%TF.GenerationSoftware,KiCad,Pcbnew,9.0.3*%
%TF.CreationDate,2025-08-31T18:15:22+02:00*%
%TF.ProjectId,TelemetryOnboard,54656c65-6d65-4747-9279-4f6e626f6172,v0.0.1*%
%TF.SameCoordinates,Original*%
%TF.FileFunction,Soldermask,Top*%
%TF.FilePolarity,Negative*%
%FSLAX46Y46*%
G04 Gerber Fmt 4.6, Leading zero omitted, Abs format (unit mm)*
G04 Created by KiCad (PCBNEW 9.0.3) date 2025-08-31 18:15:22*
%MOMM*%
%LPD*%
G01*
G04 APERTURE LIST*
G04 Aperture macros list*
%AMRoundRect*
0 Rectangle with rounded corners*
0 $1 Rounding radius*
0 $2 $3 $4 $5 $6 $7 $8 $9 X,Y pos of 4 corners*
0 Add a 4 corners polygon primitive as box body*
4,1,4,$2,$3,$4,$5,$6,$7,$8,$9,$2,$3,0*
0 Add four circle primitives for the rounded corners*
1,1,$1+$1,$2,$3*
1,1,$1+$1,$4,$5*
1,1,$1+$1,$6,$7*
1,1,$1+$1,$8,$9*
0 Add four rect primitives between the rounded corners*
20,1,$1+$1,$2,$3,$4,$5,0*
20,1,$1+$1,$4,$5,$6,$7,0*
20,1,$1+$1,$6,$7,$8,$9,0*
20,1,$1+$1,$8,$9,$2,$3,0*%
%AMFreePoly0*
4,1,23,0.500000,-0.750000,0.000000,-0.750000,0.000000,-0.745722,-0.065263,-0.745722,-0.191342,-0.711940,-0.304381,-0.646677,-0.396677,-0.554381,-0.461940,-0.441342,-0.495722,-0.315263,-0.495722,-0.250000,-0.500000,-0.250000,-0.500000,0.250000,-0.495722,0.250000,-0.495722,0.315263,-0.461940,0.441342,-0.396677,0.554381,-0.304381,0.646677,-0.191342,0.711940,-0.065263,0.745722,0.000000,0.745722,
0.000000,0.750000,0.500000,0.750000,0.500000,-0.750000,0.500000,-0.750000,$1*%
%AMFreePoly1*
4,1,23,0.000000,0.745722,0.065263,0.745722,0.191342,0.711940,0.304381,0.646677,0.396677,0.554381,0.461940,0.441342,0.495722,0.315263,0.495722,0.250000,0.500000,0.250000,0.500000,-0.250000,0.495722,-0.250000,0.495722,-0.315263,0.461940,-0.441342,0.396677,-0.554381,0.304381,-0.646677,0.191342,-0.711940,0.065263,-0.745722,0.000000,-0.745722,0.000000,-0.750000,-0.500000,-0.750000,
-0.500000,0.750000,0.000000,0.750000,0.000000,0.745722,0.000000,0.745722,$1*%
G04 Aperture macros list end*
%ADD10C,2.000000*%
%ADD11C,0.010000*%
%ADD12C,2.000000*%
%ADD13RoundRect,0.250000X-0.337500X-0.475000X0.337500X-0.475000X0.337500X0.475000X-0.337500X0.475000X0*%
%ADD14RoundRect,0.250000X0.337500X0.475000X-0.337500X0.475000X-0.337500X-0.475000X0.337500X-0.475000X0*%
%ADD15RoundRect,0.250000X-0.450000X0.350000X-0.450000X-0.350000X0.450000X-0.350000X0.450000X0.350000X0*%
%ADD16O,1.700000X1.700000*%
%ADD17RoundRect,0.250000X0.450000X-0.325000X0.450000X0.325000X-0.450000X0.325000X-0.450000X-0.325000X0*%
%ADD18C,4.700000*%
%ADD19C,8.000000*%
%ADD20R,1.600000X2.600000*%
%ADD21RoundRect,0.250000X0.350000X0.450000X-0.350000X0.450000X-0.350000X-0.450000X0.350000X-0.450000X0*%
%ADD22RoundRect,0.250000X0.325000X0.450000X-0.325000X0.450000X-0.325000X-0.450000X0.325000X-0.450000X0*%
%ADD23RoundRect,0.250000X-0.475000X0.337500X-0.475000X-0.337500X0.475000X-0.337500X0.475000X0.337500X0*%
%ADD24RoundRect,0.075000X-0.075000X0.662500X-0.075000X-0.662500X0.075000X-0.662500X0.075000X0.662500X0*%
%ADD25RoundRect,0.075000X-0.662500X0.075000X-0.662500X-0.075000X0.662500X-0.075000X0.662500X0.075000X0*%
%ADD26RoundRect,0.250000X0.450000X-0.350000X0.450000X0.350000X-0.450000X0.350000X-0.450000X-0.350000X0*%
%ADD27RoundRect,0.102000X-0.650000X-0.750000X0.650000X-0.750000X0.650000X0.750000X-0.650000X0.750000X0*%
%ADD28C,2.254000*%
%ADD29RoundRect,0.250000X-0.350000X-0.450000X0.350000X-0.450000X0.350000X0.450000X-0.350000X0.450000X0*%
%ADD30RoundRect,0.508000X-0.000010X0.508000X-0.000010X-0.508000X0.000010X-0.508000X0.000010X0.508000X0*%
%ADD31RoundRect,0.508000X0.000010X-0.508000X0.000010X0.508000X-0.000010X0.508000X-0.000010X-0.508000X0*%
%ADD32RoundRect,0.508000X-0.508000X-0.000010X0.508000X-0.000010X0.508000X0.000010X-0.508000X0.000010X0*%
%ADD33RoundRect,0.250000X0.475000X-0.337500X0.475000X0.337500X-0.475000X0.337500X-0.475000X-0.337500X0*%
%ADD34FreePoly0,0.000000*%
%ADD35FreePoly1,0.000000*%
G04 APERTURE END LIST*
D10*
X29999984Y-35999940D02*
G75*
G02*
X23999984Y-35999940I-3000000J0D01*
G01*
X23999984Y-35999940D02*
G75*
G02*
X29999984Y-35999940I3000000J0D01*
G01*
D11*
%TO.C,J3*%
X-1340016Y1770060D02*
X-1385016Y1731060D01*
X-1436016Y1684060D01*
X-1485016Y1636060D01*
X-1533016Y1587060D01*
X-1580016Y1536060D01*
X-1625016Y1484060D01*
X-1669016Y1430060D01*
X-1711016Y1375060D01*
X-1751016Y1320060D01*
X-1790016Y1262060D01*
X-1827016Y1204060D01*
X-1862016Y1145060D01*
X-1896016Y1085060D01*
X-1928016Y1024060D01*
X-1958016Y962060D01*
X-1986016Y899060D01*
X-2012016Y835060D01*
X-2037016Y770060D01*
X-2060016Y705060D01*
X-2080016Y639060D01*
X-2099016Y573060D01*
X-2116016Y506060D01*
X-2131016Y439060D01*
X-2144016Y371060D01*
X-2155016Y303060D01*
X-2164016Y235060D01*
X-2171016Y166060D01*
X-2176016Y97060D01*
X-2179016Y28060D01*
X-2180016Y-49940D01*
X-2176016Y-125940D01*
X-2171016Y-189940D01*
X-2164016Y-253940D01*
X-2156016Y-317940D01*
X-2145016Y-380940D01*
X-2133016Y-443940D01*
X-2118016Y-506940D01*
X-2102016Y-568940D01*
X-2084016Y-630940D01*
X-2065016Y-691940D01*
X-2043016Y-752940D01*
X-2020016Y-812940D01*
X-1995016Y-871940D01*
X-1968016Y-930940D01*
X-1940016Y-987940D01*
X-1910016Y-1044940D01*
X-1878016Y-1100940D01*
X-1845016Y-1155940D01*
X-1810016Y-1209940D01*
X-1774016Y-1262940D01*
X-1736016Y-1314940D01*
X-1696016Y-1365940D01*
X-1655016Y-1415940D01*
X-1613016Y-1463940D01*
X-1569016Y-1510940D01*
X-1524016Y-1556940D01*
X-1478016Y-1601940D01*
X-1430016Y-1644940D01*
X-1381016Y-1686940D01*
X-1340016Y-1719940D01*
X-1340016Y-3979940D01*
X-3980016Y-3979940D01*
X-3980016Y3980060D01*
X-1340016Y3980060D01*
X-1340016Y1770060D01*
G36*
X-1340016Y1770060D02*
G01*
X-1385016Y1731060D01*
X-1436016Y1684060D01*
X-1485016Y1636060D01*
X-1533016Y1587060D01*
X-1580016Y1536060D01*
X-1625016Y1484060D01*
X-1669016Y1430060D01*
X-1711016Y1375060D01*
X-1751016Y1320060D01*
X-1790016Y1262060D01*
X-1827016Y1204060D01*
X-1862016Y1145060D01*
X-1896016Y1085060D01*
X-1928016Y1024060D01*
X-1958016Y962060D01*
X-1986016Y899060D01*
X-2012016Y835060D01*
X-2037016Y770060D01*
X-2060016Y705060D01*
X-2080016Y639060D01*
X-2099016Y573060D01*
X-2116016Y506060D01*
X-2131016Y439060D01*
X-2144016Y371060D01*
X-2155016Y303060D01*
X-2164016Y235060D01*
X-2171016Y166060D01*
X-2176016Y97060D01*
X-2179016Y28060D01*
X-2180016Y-49940D01*
X-2176016Y-125940D01*
X-2171016Y-189940D01*
X-2164016Y-253940D01*
X-2156016Y-317940D01*
X-2145016Y-380940D01*
X-2133016Y-443940D01*
X-2118016Y-506940D01*
X-2102016Y-568940D01*
X-2084016Y-630940D01*
X-2065016Y-691940D01*
X-2043016Y-752940D01*
X-2020016Y-812940D01*
X-1995016Y-871940D01*
X-1968016Y-930940D01*
X-1940016Y-987940D01*
X-1910016Y-1044940D01*
X-1878016Y-1100940D01*
X-1845016Y-1155940D01*
X-1810016Y-1209940D01*
X-1774016Y-1262940D01*
X-1736016Y-1314940D01*
X-1696016Y-1365940D01*
X-1655016Y-1415940D01*
X-1613016Y-1463940D01*
X-1569016Y-1510940D01*
X-1524016Y-1556940D01*
X-1478016Y-1601940D01*
X-1430016Y-1644940D01*
X-1381016Y-1686940D01*
X-1340016Y-1719940D01*
X-1340016Y-3979940D01*
X-3980016Y-3979940D01*
X-3980016Y3980060D01*
X-1340016Y3980060D01*
X-1340016Y1770060D01*
G37*
X3979984Y-3979940D02*
X1339984Y-3979940D01*
X1339984Y-1719940D01*
X1390984Y-1676940D01*
X1440984Y-1632940D01*
X1488984Y-1587940D01*
X1535984Y-1541940D01*
X1580984Y-1493940D01*
X1624984Y-1444940D01*
X1666984Y-1394940D01*
X1707984Y-1342940D01*
X1747984Y-1289940D01*
X1785984Y-1236940D01*
X1821984Y-1181940D01*
X1856984Y-1125940D01*
X1889984Y-1068940D01*
X1920984Y-1010940D01*
X1950984Y-951940D01*
X1978984Y-891940D01*
X2004984Y-831940D01*
X2029984Y-770940D01*
X2052984Y-708940D01*
X2073984Y-646940D01*
X2092984Y-583940D01*
X2109984Y-519940D01*
X2124984Y-455940D01*
X2138984Y-390940D01*
X2149984Y-326940D01*
X2159984Y-260940D01*
X2167984Y-195940D01*
X2173984Y-129940D01*
X2177984Y-64940D01*
X2179984Y60D01*
X2178984Y52060D01*
X2175984Y119060D01*
X2170984Y186060D01*
X2163984Y253060D01*
X2155984Y320060D01*
X2144984Y387060D01*
X2131984Y453060D01*
X2117984Y519060D01*
X2100984Y584060D01*
X2082984Y649060D01*
X2061984Y713060D01*
X2039984Y777060D01*
X2015984Y840060D01*
X1989984Y902060D01*
X1962984Y964060D01*
X1932984Y1025060D01*
X1901984Y1084060D01*
X1869984Y1143060D01*
X1834984Y1201060D01*
X1798984Y1258060D01*
X1760984Y1314060D01*
X1720984Y1368060D01*
X1679984Y1422060D01*
X1637984Y1474060D01*
X1593984Y1525060D01*
X1547984Y1575060D01*
X1500984Y1623060D01*
X1452984Y1670060D01*
X1402984Y1716060D01*
X1339984Y1770060D01*
X1339984Y3980060D01*
X3979984Y3980060D01*
X3979984Y-3979940D01*
G36*
X3979984Y-3979940D02*
G01*
X1339984Y-3979940D01*
X1339984Y-1719940D01*
X1390984Y-1676940D01*
X1440984Y-1632940D01*
X1488984Y-1587940D01*
X1535984Y-1541940D01*
X1580984Y-1493940D01*
X1624984Y-1444940D01*
X1666984Y-1394940D01*
X1707984Y-1342940D01*
X1747984Y-1289940D01*
X1785984Y-1236940D01*
X1821984Y-1181940D01*
X1856984Y-1125940D01*
X1889984Y-1068940D01*
X1920984Y-1010940D01*
X1950984Y-951940D01*
X1978984Y-891940D01*
X2004984Y-831940D01*
X2029984Y-770940D01*
X2052984Y-708940D01*
X2073984Y-646940D01*
X2092984Y-583940D01*
X2109984Y-519940D01*
X2124984Y-455940D01*
X2138984Y-390940D01*
X2149984Y-326940D01*
X2159984Y-260940D01*
X2167984Y-195940D01*
X2173984Y-129940D01*
X2177984Y-64940D01*
X2179984Y60D01*
X2178984Y52060D01*
X2175984Y119060D01*
X2170984Y186060D01*
X2163984Y253060D01*
X2155984Y320060D01*
X2144984Y387060D01*
X2131984Y453060D01*
X2117984Y519060D01*
X2100984Y584060D01*
X2082984Y649060D01*
X2061984Y713060D01*
X2039984Y777060D01*
X2015984Y840060D01*
X1989984Y902060D01*
X1962984Y964060D01*
X1932984Y1025060D01*
X1901984Y1084060D01*
X1869984Y1143060D01*
X1834984Y1201060D01*
X1798984Y1258060D01*
X1760984Y1314060D01*
X1720984Y1368060D01*
X1679984Y1422060D01*
X1637984Y1474060D01*
X1593984Y1525060D01*
X1547984Y1575060D01*
X1500984Y1623060D01*
X1452984Y1670060D01*
X1402984Y1716060D01*
X1339984Y1770060D01*
X1339984Y3980060D01*
X3979984Y3980060D01*
X3979984Y-3979940D01*
G37*
%TD*%
D12*
%TO.C,TP13*%
X-30920016Y15240060D03*
%TD*%
D13*
%TO.C,C5*%
X16579984Y3500060D03*
X18654984Y3500060D03*
%TD*%
D14*
%TO.C,C2*%
X-6575016Y12240060D03*
X-8650016Y12240060D03*
%TD*%
D15*
%TO.C,R15*%
X-21565016Y-11874940D03*
X-21565016Y-13874940D03*
%TD*%
D16*
%TO.C,J1*%
X-19525016Y-26374940D03*
X-19525016Y-28914940D03*
X-16985016Y-26374940D03*
X-16985016Y-28914940D03*
X-14445016Y-26374940D03*
X-14445016Y-28914940D03*
%TD*%
D17*
%TO.C,D12*%
X-35000016Y-28024940D03*
X-35000016Y-25974940D03*
%TD*%
D12*
%TO.C,TP8*%
X-19525016Y-21874940D03*
%TD*%
D18*
%TO.C,M1*%
X-27000016Y36000060D03*
D19*
X-27000016Y36000060D03*
%TD*%
D18*
%TO.C,M3*%
X26999984Y-25999940D03*
D19*
X26999984Y-25999940D03*
%TD*%
D16*
%TO.C,JL1*%
X-35000016Y17780060D03*
X-35000016Y15240060D03*
X-35000016Y12700060D03*
X-35000016Y10160060D03*
X-35000016Y7620060D03*
X-35000016Y5080060D03*
X-35000016Y2540060D03*
X-35000016Y60D03*
%TD*%
D15*
%TO.C,R1*%
X-2000016Y-24499940D03*
X-2000016Y-26499940D03*
%TD*%
D12*
%TO.C,TP5*%
X-22025016Y21152560D03*
%TD*%
%TO.C,TP7*%
X-14445016Y-21874940D03*
%TD*%
%TO.C,TP9*%
X-16985016Y-18374940D03*
%TD*%
D17*
%TO.C,D16*%
X-16985016Y-9899940D03*
X-16985016Y-7849940D03*
%TD*%
D12*
%TO.C,TP11*%
X-29920016Y60D03*
%TD*%
D20*
%TO.C,D2*%
X-4900016Y-31549940D03*
X-7000016Y-31549940D03*
X-9100016Y-31549940D03*
X-9100016Y-36449940D03*
X-7000016Y-36449940D03*
X-4900016Y-36449940D03*
%TD*%
D16*
%TO.C,J2*%
X-6990016Y30895062D03*
X-6990016Y28355062D03*
%TD*%
D21*
%TO.C,R6*%
X28999984Y28000060D03*
X26999984Y28000060D03*
%TD*%
D12*
%TO.C,TP4*%
X-13000016Y40400062D03*
%TD*%
D16*
%TO.C,J5*%
X-35000016Y27940060D03*
X-35000016Y25400060D03*
%TD*%
%TO.C,JL4*%
X-40975016Y-5079940D03*
X-40975016Y-7619940D03*
X-40975016Y-10159940D03*
X-40975016Y-12699940D03*
X-40975016Y-15239940D03*
X-40975016Y-17779940D03*
%TD*%
D15*
%TO.C,R20*%
X-22025016Y27652560D03*
X-22025016Y25652560D03*
%TD*%
%TO.C,R12*%
X-35000016Y-21499940D03*
X-35000016Y-23499940D03*
%TD*%
%TO.C,R2*%
X-4900016Y-24499940D03*
X-4900016Y-26499940D03*
%TD*%
D12*
%TO.C,TP2*%
X-20025016Y30652560D03*
%TD*%
D21*
%TO.C,R5*%
X27499984Y30500060D03*
X25499984Y30500060D03*
%TD*%
D22*
%TO.C,D6*%
X36049984Y28000060D03*
X33999984Y28000060D03*
%TD*%
D16*
%TO.C,JR4*%
X40974984Y-17804940D03*
X40974984Y-15264940D03*
X40974984Y-12724940D03*
X40974984Y-10184940D03*
X40974984Y-7644940D03*
X40974984Y-5104940D03*
%TD*%
D23*
%TO.C,C3*%
X-21500016Y4037560D03*
X-21500016Y1962560D03*
%TD*%
D15*
%TO.C,R11*%
X34999984Y-21499940D03*
X34999984Y-23499940D03*
%TD*%
D18*
%TO.C,M4*%
X26999984Y36000060D03*
D19*
X26999984Y36000060D03*
%TD*%
D17*
%TO.C,D13*%
X-12525016Y31090060D03*
X-12525016Y33140060D03*
%TD*%
D22*
%TO.C,D10*%
X19049984Y34090060D03*
X16999984Y34090060D03*
%TD*%
D13*
%TO.C,C4*%
X-27975016Y13740060D03*
X-25900016Y13740060D03*
%TD*%
D24*
%TO.C,U1*%
X-13525016Y18152560D03*
X-14025016Y18152560D03*
X-14525016Y18152560D03*
X-15025016Y18152560D03*
X-15525016Y18152560D03*
X-16025016Y18152560D03*
X-16525016Y18152560D03*
X-17025016Y18152560D03*
X-17525016Y18152560D03*
X-18025016Y18152560D03*
X-18525016Y18152560D03*
X-19025016Y18152560D03*
X-19525016Y18152560D03*
X-20025016Y18152560D03*
X-20525016Y18152560D03*
X-21025016Y18152560D03*
D25*
X-22937516Y16240060D03*
X-22937516Y15740060D03*
X-22937516Y15240060D03*
X-22937516Y14740060D03*
X-22937516Y14240060D03*
X-22937516Y13740060D03*
X-22937516Y13240060D03*
X-22937516Y12740060D03*
X-22937516Y12240060D03*
X-22937516Y11740060D03*
X-22937516Y11240060D03*
X-22937516Y10740060D03*
X-22937516Y10240060D03*
X-22937516Y9740060D03*
X-22937516Y9240060D03*
X-22937516Y8740060D03*
D24*
X-21025016Y6827560D03*
X-20525016Y6827560D03*
X-20025016Y6827560D03*
X-19525016Y6827560D03*
X-19025016Y6827560D03*
X-18525016Y6827560D03*
X-18025016Y6827560D03*
X-17525016Y6827560D03*
X-17025016Y6827560D03*
X-16525016Y6827560D03*
X-16025016Y6827560D03*
X-15525016Y6827560D03*
X-15025016Y6827560D03*
X-14525016Y6827560D03*
X-14025016Y6827560D03*
X-13525016Y6827560D03*
D25*
X-11612516Y8740060D03*
X-11612516Y9240060D03*
X-11612516Y9740060D03*
X-11612516Y10240060D03*
X-11612516Y10740060D03*
X-11612516Y11240060D03*
X-11612516Y11740060D03*
X-11612516Y12240060D03*
X-11612516Y12740060D03*
X-11612516Y13240060D03*
X-11612516Y13740060D03*
X-11612516Y14240060D03*
X-11612516Y14740060D03*
X-11612516Y15240060D03*
X-11612516Y15740060D03*
X-11612516Y16240060D03*
%TD*%
D22*
%TO.C,D7*%
X37549984Y25500060D03*
X35499984Y25500060D03*
%TD*%
D21*
%TO.C,R18*%
X18579984Y-3499940D03*
X16579984Y-3499940D03*
%TD*%
%TO.C,R9*%
X14499984Y38040060D03*
X12499984Y38040060D03*
%TD*%
D17*
%TO.C,D15*%
X-21565016Y-9899940D03*
X-21565016Y-7849940D03*
%TD*%
D22*
%TO.C,D9*%
X19049984Y38040060D03*
X16999984Y38040060D03*
%TD*%
D12*
%TO.C,TP17*%
X-26437516Y-3467440D03*
%TD*%
D15*
%TO.C,R3*%
X-7000016Y-24499940D03*
X-7000016Y-26499940D03*
%TD*%
D17*
%TO.C,D14*%
X-16025016Y36090060D03*
X-16025016Y38140060D03*
%TD*%
D16*
%TO.C,JL3*%
X-40975016Y17780060D03*
X-40975016Y15240060D03*
X-40975016Y12700060D03*
X-40975016Y10160060D03*
X-40975016Y7620060D03*
X-40975016Y5080060D03*
X-40975016Y2540060D03*
X-40975016Y60D03*
%TD*%
%TO.C,JR1*%
X34974984Y60D03*
X34974984Y2540060D03*
X34974984Y5080060D03*
X34974984Y7620060D03*
X34974984Y10160060D03*
X34974984Y12700060D03*
X34974984Y15240060D03*
X34974984Y17780060D03*
%TD*%
D17*
%TO.C,D11*%
X34999984Y-28024940D03*
X34999984Y-25974940D03*
%TD*%
D22*
%TO.C,D8*%
X39049984Y23000060D03*
X36999984Y23000060D03*
%TD*%
D26*
%TO.C,R21*%
X29974984Y17780060D03*
X29974984Y19780060D03*
%TD*%
%TO.C,R14*%
X-16025016Y31115060D03*
X-16025016Y33115060D03*
%TD*%
D15*
%TO.C,ZS1*%
X-16Y10000060D03*
X-16Y8000060D03*
%TD*%
D16*
%TO.C,JL2*%
X-35000016Y-5079940D03*
X-35000016Y-7619940D03*
X-35000016Y-10159940D03*
X-35000016Y-12699940D03*
X-35000016Y-15239940D03*
X-35000016Y-17779940D03*
%TD*%
D12*
%TO.C,TP3*%
X-10500016Y37900062D03*
%TD*%
%TO.C,TP10*%
X-29920016Y3810060D03*
%TD*%
%TO.C,TP6*%
X-18025016Y26652560D03*
%TD*%
D27*
%TO.C,LS1*%
X-26000000Y-16000000D03*
X-29500000Y-20500000D03*
X-29500000Y-16000000D03*
%TD*%
D21*
%TO.C,R7*%
X30499984Y25500060D03*
X28499984Y25500060D03*
%TD*%
D12*
%TO.C,TP14*%
X-31190016Y27940060D03*
%TD*%
D16*
%TO.C,JR3*%
X40974984Y60D03*
X40974984Y2540060D03*
X40974984Y5080060D03*
X40974984Y7620060D03*
X40974984Y10160060D03*
X40974984Y12700060D03*
X40974984Y15240060D03*
X40974984Y17780060D03*
%TD*%
D21*
%TO.C,R8*%
X31999984Y23000060D03*
X29999984Y23000060D03*
%TD*%
D26*
%TO.C,R16*%
X-16985016Y-13874940D03*
X-16985016Y-11874940D03*
%TD*%
D28*
%TO.C,J3*%
X-16Y60D03*
%TD*%
D15*
%TO.C,R4*%
X-9100016Y-24499940D03*
X-9100016Y-26499940D03*
%TD*%
D16*
%TO.C,J4*%
X-6990016Y16925062D03*
X-6990016Y19465062D03*
X-6990016Y22005062D03*
X-6990016Y24545062D03*
%TD*%
D22*
%TO.C,D5*%
X34549984Y30500060D03*
X32499984Y30500060D03*
%TD*%
D12*
%TO.C,TP15*%
X-28650016Y25400060D03*
%TD*%
D21*
%TO.C,R10*%
X14499984Y34090060D03*
X12499984Y34090060D03*
%TD*%
D12*
%TO.C,TP12*%
X-28920016Y17780060D03*
%TD*%
D16*
%TO.C,JR2*%
X34999984Y-17804940D03*
X34999984Y-15264940D03*
X34999984Y-12724940D03*
X34999984Y-10184940D03*
X34999984Y-7644940D03*
X34999984Y-5104940D03*
%TD*%
D29*
%TO.C,ZP1*%
X-16Y6000060D03*
X1999984Y6000060D03*
%TD*%
D15*
%TO.C,R19*%
X-12525016Y23115060D03*
X-12525016Y21115060D03*
%TD*%
D18*
%TO.C,M2*%
X-27000016Y-35999940D03*
D19*
X-27000016Y-35999940D03*
%TD*%
D15*
%TO.C,R13*%
X-12525016Y28115060D03*
X-12525016Y26115060D03*
%TD*%
D30*
%TO.C,U2*%
X6349984Y37900062D03*
X5079984Y37900062D03*
X3809984Y37900062D03*
X2539984Y37900062D03*
X1269984Y37900062D03*
X-16Y37900062D03*
X-1270016Y37900062D03*
D31*
X-1270016Y12500062D03*
X-16Y12500062D03*
X1269984Y12500062D03*
X2539984Y12500062D03*
X3809984Y12500062D03*
X5079984Y12500062D03*
X6349984Y12500062D03*
D32*
X-3810016Y35360062D03*
X-3810016Y34090062D03*
X-3810016Y32820062D03*
X-3800993Y31548107D03*
X-3810016Y30280062D03*
X-3810016Y29010062D03*
X-3810016Y27740062D03*
X-3810016Y26470062D03*
X8889984Y26470062D03*
X8889984Y27740062D03*
X8889984Y29010062D03*
X8889984Y30280062D03*
X8889984Y31550062D03*
X8889984Y32820062D03*
X8889984Y34090062D03*
X8889984Y35360062D03*
X8889984Y22660062D03*
X-3810016Y22660062D03*
X8889984Y21390062D03*
X-3810016Y21390062D03*
X8889984Y20120062D03*
X-3810016Y20120062D03*
X8889984Y18850062D03*
X-3810016Y18850062D03*
X8889984Y17580062D03*
X-3810016Y17580062D03*
X8889984Y16310062D03*
X-3810016Y16310062D03*
%TD*%
D33*
%TO.C,C1*%
X-16025016Y21115060D03*
X-16025016Y23190060D03*
%TD*%
D12*
%TO.C,TP16*%
X13139984Y9000062D03*
%TD*%
%TO.C,TP1*%
X-15215016Y-3749980D03*
%TD*%
D17*
%TO.C,D1*%
X-2000016Y-35024940D03*
X-2000016Y-32974940D03*
%TD*%
D15*
%TO.C,R17*%
X16579984Y1000060D03*
X16579984Y-999940D03*
%TD*%
D34*
%TO.C,JP1*%
X12474984Y16310062D03*
D35*
X13774984Y16310062D03*
%TD*%
G36*
X214406Y49999546D02*
G01*
X1165464Y49986065D01*
X1166846Y49986037D01*
X1578555Y49975610D01*
X1580686Y49975538D01*
X2572613Y49933342D01*
X2573620Y49933295D01*
X2846384Y49919469D01*
X2847952Y49919380D01*
X3087698Y49904182D01*
X3088632Y49904119D01*
X4056234Y49835440D01*
X4056862Y49835394D01*
X4109491Y49831390D01*
X4111059Y49831260D01*
X4500323Y49796670D01*
X4501629Y49796547D01*
X5452175Y49701939D01*
X5453993Y49701745D01*
X5876222Y49653423D01*
X5877896Y49653220D01*
X6818441Y49532603D01*
X6819882Y49532409D01*
X7232585Y49474556D01*
X7234623Y49474253D01*
X8203253Y49322020D01*
X8204318Y49321848D01*
X8503924Y49272085D01*
X8505473Y49271818D01*
X8706258Y49235849D01*
X8707108Y49235694D01*
X9643421Y49061216D01*
X9644112Y49061085D01*
X9748798Y49040962D01*
X9750339Y49040655D01*
X10108491Y48967092D01*
X10109704Y48966837D01*
X11049129Y48764074D01*
X11050984Y48763659D01*
X11463546Y48667973D01*
X11465116Y48667598D01*
X12384503Y48441713D01*
X12385982Y48441340D01*
X12792977Y48336020D01*
X12794899Y48335506D01*
X13730592Y48077288D01*
X13731699Y48076977D01*
X14051190Y47985610D01*
X14052697Y47985168D01*
X14209717Y47938105D01*
X14210477Y47937875D01*
X15114623Y47660560D01*
X15115364Y47660330D01*
X15261605Y47614472D01*
X15263100Y47613993D01*
X15585499Y47508396D01*
X15586608Y47508027D01*
X16504049Y47197924D01*
X16505911Y47197278D01*
X16902669Y47056105D01*
X16904120Y47055579D01*
X17791934Y46727175D01*
X17793428Y46726611D01*
X18188259Y46574755D01*
X18190044Y46574053D01*
X19083175Y46214591D01*
X19084306Y46214129D01*
X19416119Y46076769D01*
X19417566Y46076159D01*
X19526977Y46029234D01*
X19527640Y46028947D01*
X20398156Y45649577D01*
X20398931Y45649236D01*
X20576501Y45570404D01*
X20577933Y45569758D01*
X20860662Y45439929D01*
X20861657Y45439467D01*
X21746650Y45023560D01*
X21748491Y45022676D01*
X22123657Y44838761D01*
X22124975Y44838105D01*
X22970897Y44410884D01*
X22972381Y44410122D01*
X23348843Y44213596D01*
X23350473Y44212730D01*
X24191805Y43757457D01*
X24192939Y43756835D01*
X24529251Y43570285D01*
X24530622Y43569514D01*
X24588888Y43536221D01*
X24589450Y43535897D01*
X25424335Y43053035D01*
X25425129Y43052572D01*
X25624545Y42935258D01*
X25625893Y42934454D01*
X25866411Y42788829D01*
X25867286Y42788294D01*
X26709366Y42268878D01*
X26711156Y42267753D01*
X27059172Y42044810D01*
X27060347Y42044048D01*
X27854584Y41522506D01*
X27856031Y41521541D01*
X28265659Y41244254D01*
X28266763Y41243498D01*
X28427293Y41132287D01*
X28427484Y41132154D01*
X28686228Y40952184D01*
X28686754Y40951816D01*
X28894102Y40805997D01*
X28894859Y40805461D01*
X29323935Y40498887D01*
X29325667Y40497627D01*
X30124694Y39905614D01*
X30125493Y39905016D01*
X30340262Y39743196D01*
X30341510Y39742243D01*
X30532048Y39594861D01*
X30532788Y39594285D01*
X31295699Y38994892D01*
X31296192Y38994502D01*
X31336818Y38962249D01*
X31338044Y38961263D01*
X31639339Y38715769D01*
X31640346Y38714940D01*
X32374709Y38103620D01*
X32376111Y38102435D01*
X32696872Y37827278D01*
X32698133Y37826182D01*
X33408999Y37199563D01*
X33410095Y37198585D01*
X33718606Y36920073D01*
X33720107Y36918695D01*
X34434295Y36252333D01*
X34435098Y36251577D01*
X34662402Y36035681D01*
X34663533Y36034593D01*
X34797537Y35904048D01*
X34798133Y35903464D01*
X35472448Y35237661D01*
X35472969Y35237143D01*
X35563640Y35146549D01*
X35564745Y35145432D01*
X35810116Y34893975D01*
X35810949Y34893112D01*
X36477899Y34196257D01*
X36479230Y34194845D01*
X36764949Y33886808D01*
X36766007Y33885653D01*
X37400669Y33183841D01*
X37401717Y33182667D01*
X37679636Y32867393D01*
X37680902Y32865933D01*
X38306897Y32133078D01*
X38307677Y32132157D01*
X38534969Y31860762D01*
X38535970Y31859550D01*
X38614143Y31763767D01*
X38614602Y31763202D01*
X39209900Y31025003D01*
X39210425Y31024348D01*
X39329310Y30874863D01*
X39330280Y30873627D01*
X39520488Y30628140D01*
X39521155Y30627271D01*
X40113205Y29849061D01*
X40114429Y29847424D01*
X40360432Y29512759D01*
X40361291Y29511576D01*
X40913471Y28741524D01*
X40914440Y28740154D01*
X41156257Y28393103D01*
X41157291Y28391595D01*
X41691535Y27600229D01*
X41692263Y27599139D01*
X41907697Y27272629D01*
X41908556Y27271308D01*
X41933462Y27232497D01*
X41933795Y27231975D01*
X42454857Y26411003D01*
X42455361Y26410203D01*
X42584807Y26202774D01*
X42585630Y26201436D01*
X42723496Y25974154D01*
X42724006Y25973305D01*
X43231512Y25121372D01*
X43231809Y25120871D01*
X43234579Y25116171D01*
X43235366Y25114817D01*
X43437473Y24761774D01*
X43438141Y24760592D01*
X43902056Y23929238D01*
X43902913Y23927675D01*
X44103834Y23555130D01*
X44104642Y23553607D01*
X44543552Y22711990D01*
X44544200Y22710731D01*
X44730787Y22342758D01*
X44731716Y22340886D01*
X45162297Y21455016D01*
X45162752Y21454070D01*
X45287977Y21190790D01*
X45288642Y21189368D01*
X45378679Y20993719D01*
X45379047Y20992912D01*
X45772476Y20121650D01*
X45772755Y20121027D01*
X45809953Y20037426D01*
X45810583Y20035987D01*
X45956988Y19695398D01*
X45957477Y19694244D01*
X46327467Y18808973D01*
X46328181Y18807227D01*
X46484856Y18415712D01*
X46485448Y18414205D01*
X46825584Y17530970D01*
X46826122Y17529547D01*
X46971649Y17137384D01*
X46972325Y17135517D01*
X47295154Y16220920D01*
X47295533Y16219830D01*
X47403717Y15904005D01*
X47404216Y15902516D01*
X47453271Y15753164D01*
X47453513Y15752421D01*
X47742800Y14852559D01*
X47743038Y14851809D01*
X47791184Y14698717D01*
X47791646Y14697215D01*
X47887139Y14379565D01*
X47887465Y14378464D01*
X48158278Y13446405D01*
X48158818Y13444488D01*
X48269009Y13041183D01*
X48269399Y13039719D01*
X48507670Y12123758D01*
X48508069Y12122183D01*
X48608925Y11712509D01*
X48609361Y11710679D01*
X48824465Y10776069D01*
X48824741Y10774841D01*
X48904609Y10410965D01*
X48904936Y10409429D01*
X48922651Y10323539D01*
X48922786Y10322875D01*
X49110987Y9384519D01*
X49111159Y9383644D01*
X49152530Y9169389D01*
X49152818Y9167845D01*
X49204037Y8883274D01*
X49204218Y8882246D01*
X49370694Y7910455D01*
X49371030Y7908387D01*
X49433751Y7500998D01*
X49433958Y7499602D01*
X49567756Y6559566D01*
X49567987Y6557852D01*
X49621764Y6138149D01*
X49621978Y6136386D01*
X49729402Y5190693D01*
X49729548Y5189338D01*
X49771201Y4782867D01*
X49771316Y4781691D01*
X49771342Y4781411D01*
X49771427Y4780452D01*
X49855673Y3789712D01*
X49855754Y3788719D01*
X49876347Y3521096D01*
X49876457Y3519530D01*
X49891958Y3278168D01*
X49892015Y3277230D01*
X49946871Y2308287D01*
X49946905Y2307659D01*
X49949506Y2257181D01*
X49949577Y2255611D01*
X49964687Y1866480D01*
X49964730Y1865175D01*
X49991734Y910407D01*
X49991773Y908574D01*
X49997478Y485775D01*
X49997489Y484102D01*
X49997489Y-463403D01*
X49997480Y-464871D01*
X49992560Y-880496D01*
X49992519Y-882534D01*
X49964900Y-1859047D01*
X49964864Y-1860147D01*
X49953243Y-2172761D01*
X49953175Y-2174330D01*
X49943808Y-2362202D01*
X49943764Y-2363036D01*
X49890194Y-3309267D01*
X49890150Y-3310000D01*
X49882213Y-3436878D01*
X49882105Y-3438444D01*
X49855689Y-3789349D01*
X49855593Y-3790547D01*
X49773879Y-4751497D01*
X49773700Y-4753427D01*
X49731554Y-5171543D01*
X49731387Y-5173102D01*
X49624596Y-6113224D01*
X49624408Y-6114785D01*
X49571688Y-6531712D01*
X49571431Y-6533629D01*
X49435573Y-7488134D01*
X49435397Y-7489327D01*
X49382230Y-7838505D01*
X49381984Y-7840056D01*
X49361636Y-7963189D01*
X49361515Y-7963909D01*
X49201412Y-8898508D01*
X49201267Y-8899334D01*
X49167936Y-9086294D01*
X49167651Y-9087838D01*
X49109118Y-9393694D01*
X49108907Y-9394771D01*
X48916692Y-10353142D01*
X48916274Y-10355142D01*
X48827871Y-10761113D01*
X48827551Y-10762541D01*
X48615015Y-11685996D01*
X48614628Y-11687627D01*
X48514222Y-12098395D01*
X48513774Y-12100169D01*
X48273364Y-13024353D01*
X48273028Y-13025619D01*
X48170704Y-13402592D01*
X48170283Y-13404105D01*
X48157291Y-13449677D01*
X48157118Y-13450279D01*
X47885931Y-14383627D01*
X47885664Y-14384532D01*
X47815919Y-14617933D01*
X47815460Y-14619434D01*
X47735873Y-14873974D01*
X47735573Y-14874921D01*
X47431762Y-15819960D01*
X47431586Y-15820503D01*
X47430475Y-15823905D01*
X47429976Y-15825400D01*
X47298601Y-16211010D01*
X47298156Y-16212294D01*
X46981300Y-17109969D01*
X46980695Y-17111644D01*
X46834089Y-17508731D01*
X46833480Y-17510346D01*
X46492323Y-18396232D01*
X46491807Y-18397548D01*
X46339225Y-18780673D01*
X46338435Y-18782610D01*
X45958503Y-19691670D01*
X45958095Y-19692635D01*
X45843708Y-19959957D01*
X45843081Y-19961397D01*
X45755401Y-20159335D01*
X45755038Y-20160146D01*
X45361565Y-21031506D01*
X45361283Y-21032125D01*
X45323618Y-21114330D01*
X45322955Y-21115754D01*
X45164066Y-21451243D01*
X45163523Y-21452375D01*
X44744121Y-22315245D01*
X44743284Y-22316934D01*
X44553189Y-22693369D01*
X44552449Y-22694811D01*
X44114769Y-23534069D01*
X44114058Y-23535412D01*
X43916163Y-23903802D01*
X43915209Y-23905545D01*
X43442462Y-24752728D01*
X43441896Y-24753731D01*
X43276873Y-25043108D01*
X43276086Y-25044467D01*
X43195940Y-25180961D01*
X43195541Y-25181636D01*
X42711818Y-25993646D01*
X42711414Y-25994320D01*
X42628934Y-26130802D01*
X42628113Y-26132141D01*
X42452622Y-26414394D01*
X42452010Y-26415368D01*
X41932046Y-27234611D01*
X41930967Y-27236281D01*
X41701208Y-27585765D01*
X41700367Y-27587028D01*
X41170808Y-28371452D01*
X41169891Y-28372791D01*
X40929294Y-28719314D01*
X40928208Y-28720853D01*
X40369266Y-29500335D01*
X40368529Y-29501352D01*
X40148756Y-29801374D01*
X40147820Y-29802635D01*
X40094358Y-29873713D01*
X40093948Y-29874255D01*
X39514732Y-30635595D01*
X39514190Y-30636302D01*
X39381289Y-30808414D01*
X39380322Y-30809650D01*
X39200279Y-31036808D01*
X39199626Y-31037625D01*
X38580906Y-31804869D01*
X38579577Y-31806488D01*
X38315344Y-32123057D01*
X38314433Y-32124136D01*
X37697874Y-32845944D01*
X37696743Y-32847250D01*
X37417359Y-33165247D01*
X37416176Y-33166575D01*
X36777705Y-33872597D01*
X36776786Y-33873601D01*
X36499928Y-34173078D01*
X36498840Y-34174241D01*
X36497235Y-34175933D01*
X36496853Y-34176333D01*
X35810045Y-34893936D01*
X35809355Y-34894652D01*
X35622973Y-35086291D01*
X35621871Y-35087410D01*
X35450382Y-35259324D01*
X35449715Y-35259987D01*
X34758558Y-35942420D01*
X34758111Y-35942859D01*
X34723121Y-35977060D01*
X34721989Y-35978152D01*
X34439782Y-36247083D01*
X34438831Y-36247980D01*
X33740390Y-36899650D01*
X33739041Y-36900890D01*
X33425726Y-37184683D01*
X33424478Y-37185799D01*
X32713540Y-37812481D01*
X32712435Y-37813443D01*
X32397584Y-38084436D01*
X32396026Y-38085755D01*
X31644895Y-38711033D01*
X31644047Y-38711732D01*
X31402478Y-38909228D01*
X31401256Y-38910215D01*
X31253469Y-39027948D01*
X31252813Y-39028467D01*
X30507191Y-39614275D01*
X30506614Y-39614725D01*
X30407290Y-39691817D01*
X30406043Y-39692773D01*
X30124879Y-39905349D01*
X30123916Y-39906070D01*
X29348977Y-40480236D01*
X29347412Y-40481376D01*
X28932629Y-40778776D01*
X28931705Y-40779432D01*
X28650251Y-40977368D01*
X28584091Y-40999831D01*
X28578920Y-40999939D01*
X-28578954Y-40999939D01*
X-28645993Y-40980254D01*
X-28650286Y-40977368D01*
X-28931862Y-40779344D01*
X-28932785Y-40778688D01*
X-29347402Y-40481407D01*
X-29348967Y-40480267D01*
X-30124014Y-39906021D01*
X-30124977Y-39905300D01*
X-30406075Y-39692774D01*
X-30407323Y-39691818D01*
X-30506542Y-39614807D01*
X-30507118Y-39614357D01*
X-31252936Y-39028395D01*
X-31253592Y-39027875D01*
X-31401327Y-38910183D01*
X-31402549Y-38909197D01*
X-31643897Y-38711883D01*
X-31644745Y-38711184D01*
X-32396122Y-38085702D01*
X-32397680Y-38084383D01*
X-32712407Y-37813496D01*
X-32713512Y-37812534D01*
X-33424596Y-37185722D01*
X-33425844Y-37184606D01*
X-33738972Y-36900985D01*
X-33740321Y-36899745D01*
X-34438933Y-36247915D01*
X-34439884Y-36247018D01*
X-34722020Y-35978154D01*
X-34723153Y-35977061D01*
X-34758007Y-35942992D01*
X-34758452Y-35942555D01*
X-35449839Y-35259898D01*
X-35450507Y-35259233D01*
X-35621864Y-35087450D01*
X-35622966Y-35086332D01*
X-35809328Y-34894715D01*
X-35810018Y-34893999D01*
X-36497353Y-34175843D01*
X-36497712Y-34175467D01*
X-36498812Y-34174308D01*
X-36499923Y-34173121D01*
X-36776746Y-33873681D01*
X-36777665Y-33872677D01*
X-37416295Y-33166479D01*
X-37417479Y-33165151D01*
X-37696733Y-32847299D01*
X-37697863Y-32845993D01*
X-38314567Y-32124016D01*
X-38315479Y-32122937D01*
X-38579562Y-31806547D01*
X-38580890Y-31804928D01*
X-39199735Y-31037528D01*
X-39200388Y-31036712D01*
X-39380415Y-30809577D01*
X-39381383Y-30808339D01*
X-39514019Y-30636569D01*
X-39514560Y-30635863D01*
X-40094140Y-29874042D01*
X-40094549Y-29873502D01*
X-40147871Y-29802613D01*
X-40148808Y-29801350D01*
X-40368467Y-29501484D01*
X-40369204Y-29500467D01*
X-40928316Y-28720748D01*
X-40929402Y-28719209D01*
X-41169839Y-28372915D01*
X-41170756Y-28371576D01*
X-41700469Y-27586924D01*
X-41701310Y-27585661D01*
X-41930935Y-27236381D01*
X-41932014Y-27234711D01*
X-42452136Y-26415220D01*
X-42452748Y-26414246D01*
X-42628146Y-26132143D01*
X-42628967Y-26130804D01*
X-42711293Y-25994577D01*
X-42711697Y-25993903D01*
X-43195672Y-25181469D01*
X-43196071Y-25180794D01*
X-43276118Y-25044469D01*
X-43276905Y-25043110D01*
X-43441852Y-24753867D01*
X-43442418Y-24752864D01*
X-43915297Y-23905445D01*
X-43916251Y-23903702D01*
X-44114021Y-23535545D01*
X-44114732Y-23534202D01*
X-44552544Y-22694689D01*
X-44553284Y-22693247D01*
X-44743264Y-22317040D01*
X-44744101Y-22315351D01*
X-45163631Y-21452218D01*
X-45164174Y-21451087D01*
X-45323019Y-21115692D01*
X-45323682Y-21114268D01*
X-45361138Y-21032521D01*
X-45361420Y-21031901D01*
X-45755169Y-20159927D01*
X-45755532Y-20159116D01*
X-45843114Y-19961399D01*
X-45843741Y-19959959D01*
X-45958049Y-19692821D01*
X-45958457Y-19691856D01*
X-46338505Y-18782519D01*
X-46339295Y-18780582D01*
X-46491798Y-18397656D01*
X-46492314Y-18396340D01*
X-46833550Y-17510249D01*
X-46834159Y-17508634D01*
X-46980671Y-17111803D01*
X-46981276Y-17110128D01*
X-47298247Y-16212128D01*
X-47298692Y-16210844D01*
X-47429990Y-15825462D01*
X-47430505Y-15823919D01*
X-47431514Y-15820825D01*
X-47431674Y-15820330D01*
X-47735669Y-14874721D01*
X-47735969Y-14873774D01*
X-47815493Y-14619436D01*
X-47815952Y-14617935D01*
X-47885626Y-14384772D01*
X-47885893Y-14383867D01*
X-48157275Y-13449846D01*
X-48157447Y-13449246D01*
X-48170301Y-13404161D01*
X-48170723Y-13402646D01*
X-48273011Y-13025810D01*
X-48273347Y-13024544D01*
X-48513831Y-12100074D01*
X-48514279Y-12098300D01*
X-48614636Y-11687731D01*
X-48615023Y-11686100D01*
X-48827611Y-10762420D01*
X-48827931Y-10760992D01*
X-48916287Y-10355238D01*
X-48916705Y-10353238D01*
X-49108984Y-9394547D01*
X-49109195Y-9393470D01*
X-49167681Y-9087855D01*
X-49167966Y-9086312D01*
X-49201258Y-8899573D01*
X-49201403Y-8898746D01*
X-49361590Y-7963657D01*
X-49361711Y-7962937D01*
X-49382017Y-7840058D01*
X-49382263Y-7838507D01*
X-49435402Y-7489513D01*
X-49435578Y-7488320D01*
X-49571484Y-6533480D01*
X-49571741Y-6531563D01*
X-49624420Y-6114962D01*
X-49624608Y-6113402D01*
X-49731439Y-5172931D01*
X-49731606Y-5171371D01*
X-49773720Y-4753567D01*
X-49773899Y-4751637D01*
X-49855644Y-3790322D01*
X-49855740Y-3789124D01*
X-49882139Y-3438446D01*
X-49882247Y-3436880D01*
X-49890162Y-3310357D01*
X-49890206Y-3309624D01*
X-49943817Y-2362679D01*
X-49943861Y-2361844D01*
X-49953209Y-2174331D01*
X-49953277Y-2172763D01*
X-49964889Y-1860380D01*
X-49964925Y-1859280D01*
X-49992554Y-882412D01*
X-49992595Y-880374D01*
X-49995792Y-610345D01*
X-47998630Y-610345D01*
X-47961166Y-1991809D01*
X-47883951Y-3371628D01*
X-47767039Y-4748725D01*
X-47610543Y-6121797D01*
X-47414580Y-7489842D01*
X-47179317Y-8851655D01*
X-46904946Y-10206158D01*
X-46591700Y-11552183D01*
X-46239830Y-12888656D01*
X-45849643Y-14214407D01*
X-45421444Y-15528407D01*
X-44955596Y-16829537D01*
X-44452499Y-18116679D01*
X-43912543Y-19388841D01*
X-43336197Y-20644911D01*
X-42723912Y-21883910D01*
X-42076250Y-23104702D01*
X-41393670Y-24306417D01*
X-40676817Y-25487922D01*
X-39926230Y-26648332D01*
X-39142537Y-27786669D01*
X-38326428Y-28901940D01*
X-37478522Y-29993288D01*
X-36599579Y-31059745D01*
X-35690303Y-32100451D01*
X-34751400Y-33114600D01*
X-33783744Y-34101246D01*
X-32788051Y-35059663D01*
X-31765178Y-35989020D01*
X-30716028Y-36888502D01*
X-29641350Y-37757464D01*
X-28542139Y-38595104D01*
X-27982152Y-38999938D01*
X-27982151Y-38999939D01*
X27982119Y-38999939D01*
X27982120Y-38999938D01*
X28542107Y-38595104D01*
X29641318Y-37757464D01*
X30715996Y-36888502D01*
X31765146Y-35989020D01*
X32788019Y-35059663D01*
X33783712Y-34101246D01*
X34751368Y-33114600D01*
X35690271Y-32100451D01*
X36599547Y-31059745D01*
X37478490Y-29993288D01*
X38326396Y-28901940D01*
X39142505Y-27786669D01*
X39926198Y-26648332D01*
X40676785Y-25487922D01*
X41393638Y-24306417D01*
X42076218Y-23104702D01*
X42723880Y-21883910D01*
X43336165Y-20644911D01*
X43912511Y-19388841D01*
X44452467Y-18116679D01*
X44955564Y-16829537D01*
X45421412Y-15528407D01*
X45849611Y-14214407D01*
X46239798Y-12888656D01*
X46591668Y-11552183D01*
X46904914Y-10206158D01*
X47179285Y-8851655D01*
X47414548Y-7489842D01*
X47610511Y-6121797D01*
X47767007Y-4748725D01*
X47883919Y-3371628D01*
X47961134Y-1991809D01*
X47998598Y-610345D01*
X47996275Y771693D01*
X47954173Y2153026D01*
X47872323Y3532578D01*
X47750786Y4909275D01*
X47589678Y6281817D01*
X47389120Y7649196D01*
X47149285Y9010212D01*
X46870372Y10363751D01*
X46552597Y11708757D01*
X46196246Y13044017D01*
X45801602Y14368472D01*
X45368997Y15681005D01*
X44898782Y16980563D01*
X44391364Y18266007D01*
X43847126Y19536372D01*
X43266571Y20790488D01*
X42650126Y22027424D01*
X41998365Y23246035D01*
X41311756Y24445447D01*
X40590945Y25624526D01*
X39836443Y26782440D01*
X39048959Y27918101D01*
X38229103Y29030629D01*
X37377528Y30119134D01*
X36495005Y31182632D01*
X35582223Y32220298D01*
X34639953Y33231249D01*
X33668955Y34214674D01*
X32670082Y35169707D01*
X31644076Y36095641D01*
X30591888Y36991610D01*
X29514337Y37856928D01*
X28412295Y38690885D01*
X27286749Y39492740D01*
X26138548Y40261889D01*
X24968661Y40997677D01*
X23778151Y41699439D01*
X22567857Y42366680D01*
X21338901Y42998782D01*
X20092273Y43595236D01*
X18828929Y44155583D01*
X17550017Y44679313D01*
X16256563Y45166010D01*
X14949638Y45615269D01*
X13630309Y46026722D01*
X12299648Y46400035D01*
X10958850Y46734873D01*
X9608959Y47030976D01*
X8251097Y47288098D01*
X6886368Y47506029D01*
X5515946Y47684581D01*
X4140969Y47823608D01*
X2762535Y47922995D01*
X1381846Y47982660D01*
X-16Y48002555D01*
X-1381878Y47982660D01*
X-2762567Y47922995D01*
X-4141001Y47823608D01*
X-5515978Y47684581D01*
X-6886400Y47506029D01*
X-8251129Y47288098D01*
X-9608991Y47030976D01*
X-10958882Y46734873D01*
X-12299680Y46400035D01*
X-13630341Y46026722D01*
X-14949670Y45615269D01*
X-16256595Y45166010D01*
X-17550049Y44679313D01*
X-18828961Y44155583D01*
X-20092305Y43595236D01*
X-21338933Y42998782D01*
X-22567889Y42366680D01*
X-23778183Y41699439D01*
X-24968693Y40997677D01*
X-26138580Y40261889D01*
X-27286781Y39492740D01*
X-28412327Y38690885D01*
X-29514369Y37856928D01*
X-30591920Y36991610D01*
X-31644108Y36095641D01*
X-32670114Y35169707D01*
X-33668987Y34214674D01*
X-34639985Y33231249D01*
X-35582255Y32220298D01*
X-36495037Y31182632D01*
X-37377560Y30119134D01*
X-38229135Y29030629D01*
X-39048991Y27918101D01*
X-39836475Y26782440D01*
X-40590977Y25624526D01*
X-41311788Y24445447D01*
X-41998397Y23246035D01*
X-42650158Y22027424D01*
X-43266603Y20790488D01*
X-43847158Y19536372D01*
X-44391396Y18266007D01*
X-44898814Y16980563D01*
X-45369029Y15681005D01*
X-45801634Y14368472D01*
X-46196278Y13044017D01*
X-46552629Y11708757D01*
X-46870404Y10363751D01*
X-47149317Y9010212D01*
X-47389152Y7649196D01*
X-47589710Y6281817D01*
X-47750818Y4909275D01*
X-47872355Y3532578D01*
X-47954205Y2153026D01*
X-47996307Y771693D01*
X-47998630Y-610345D01*
X-49995792Y-610345D01*
X-49997512Y-465041D01*
X-49997521Y-463573D01*
X-49997521Y484248D01*
X-49997510Y485921D01*
X-49991809Y908442D01*
X-49991770Y910275D01*
X-49964756Y1865357D01*
X-49964713Y1866662D01*
X-49949611Y2255605D01*
X-49949540Y2257174D01*
X-49946955Y2307346D01*
X-49946921Y2307975D01*
X-49892033Y3277476D01*
X-49891976Y3278414D01*
X-49876491Y3519528D01*
X-49876381Y3521094D01*
X-49855810Y3788438D01*
X-49855729Y3789431D01*
X-49771436Y4780726D01*
X-49771236Y4782861D01*
X-49729606Y5189108D01*
X-49729460Y5190462D01*
X-49621998Y6136497D01*
X-49621784Y6138262D01*
X-49568035Y6557739D01*
X-49567804Y6559452D01*
X-49433967Y7499762D01*
X-49433760Y7501158D01*
X-49371086Y7908242D01*
X-49370750Y7910310D01*
X-49204222Y8882414D01*
X-49204041Y8883443D01*
X-49152849Y9167858D01*
X-49152561Y9169401D01*
X-49111234Y9383428D01*
X-49111062Y9384303D01*
X-48922750Y10323219D01*
X-48922614Y10323885D01*
X-48904969Y10409429D01*
X-48904643Y10410963D01*
X-48824807Y10774694D01*
X-48824531Y10775922D01*
X-48609370Y11710780D01*
X-48608934Y11712610D01*
X-48508144Y12122019D01*
X-48507745Y12123595D01*
X-48269382Y13039907D01*
X-48268992Y13041370D01*
X-48158891Y13444347D01*
X-48158351Y13446264D01*
X-47887428Y14378702D01*
X-47887102Y14379803D01*
X-47791681Y14697213D01*
X-47791219Y14698715D01*
X-47743167Y14851506D01*
X-47742929Y14852255D01*
X-47453449Y15752721D01*
X-47453207Y15753466D01*
X-47404251Y15902514D01*
X-47403752Y15904002D01*
X-47295643Y16219608D01*
X-47295264Y16220698D01*
X-46972314Y17135638D01*
X-46971638Y17137505D01*
X-46826196Y17529438D01*
X-46825658Y17530860D01*
X-46485444Y18414299D01*
X-46484852Y18415807D01*
X-46328263Y18807109D01*
X-46327549Y18808855D01*
X-45957449Y19694389D01*
X-45956960Y19695543D01*
X-45810630Y20035955D01*
X-45810000Y20037394D01*
X-45772842Y20120905D01*
X-45772563Y20121528D01*
X-45379022Y20993036D01*
X-45378655Y20993842D01*
X-45288647Y21189430D01*
X-45287981Y21190853D01*
X-45162879Y21453874D01*
X-45162424Y21454820D01*
X-44731702Y22340981D01*
X-44730773Y22342853D01*
X-44544304Y22710594D01*
X-44543656Y22711853D01*
X-44104618Y23553715D01*
X-44103810Y23555238D01*
X-43903002Y23927573D01*
X-43902145Y23929136D01*
X-43438101Y24760720D01*
X-43437433Y24761902D01*
X-43235387Y25114840D01*
X-43234597Y25116200D01*
X-43232063Y25120499D01*
X-43231769Y25120994D01*
X-42723927Y25973492D01*
X-42723417Y25974341D01*
X-42585665Y26201434D01*
X-42584842Y26202772D01*
X-42455498Y26410038D01*
X-42454994Y26410838D01*
X-41933589Y27232351D01*
X-41933255Y27232874D01*
X-41908627Y27271251D01*
X-41907769Y27272571D01*
X-41692378Y27599015D01*
X-41691650Y27600105D01*
X-41157224Y28391742D01*
X-41156190Y28393250D01*
X-40914561Y28740031D01*
X-40913592Y28741401D01*
X-40361262Y29511661D01*
X-40360403Y29512844D01*
X-40114506Y29847364D01*
X-40113282Y29849001D01*
X-39521061Y30627438D01*
X-39520394Y30628307D01*
X-39330316Y30873625D01*
X-39329346Y30874860D01*
X-39210610Y31024158D01*
X-39210085Y31024814D01*
X-38614456Y31763425D01*
X-38613996Y31763992D01*
X-38536005Y31859549D01*
X-38535005Y31860759D01*
X-38307828Y32132018D01*
X-38307048Y32132939D01*
X-37680924Y32865945D01*
X-37679658Y32867405D01*
X-37401785Y33182628D01*
X-37400737Y33183802D01*
X-36765986Y33885712D01*
X-36764928Y33886867D01*
X-36479327Y34194777D01*
X-36477996Y34196189D01*
X-35810876Y34893221D01*
X-35810043Y34894084D01*
X-35564781Y35145430D01*
X-35563676Y35146548D01*
X-35473187Y35236960D01*
X-35472666Y35237477D01*
X-34797945Y35903681D01*
X-34797349Y35904265D01*
X-34663569Y36034592D01*
X-34662438Y36035681D01*
X-34435239Y36251476D01*
X-34434436Y36252231D01*
X-33720085Y36918745D01*
X-33718584Y36920123D01*
X-33410202Y37198518D01*
X-33409106Y37199496D01*
X-32698071Y37826265D01*
X-32696810Y37827361D01*
X-32376205Y38102384D01*
X-32374803Y38103569D01*
X-31640250Y38715046D01*
X-31639243Y38715875D01*
X-31338090Y38961253D01*
X-31336865Y38962238D01*
X-31296464Y38994313D01*
X-31295970Y38994704D01*
X-30532648Y39594420D01*
X-30531908Y39594996D01*
X-30341546Y39742242D01*
X-30340298Y39743195D01*
X-30125651Y39904923D01*
X-30124852Y39905521D01*
X-29325629Y40497679D01*
X-29323897Y40498939D01*
X-28895003Y40805382D01*
X-28894246Y40805918D01*
X-28686624Y40951930D01*
X-28686098Y40952298D01*
X-28428096Y41131752D01*
X-28427905Y41131885D01*
X-28266668Y41243585D01*
X-28265564Y41244341D01*
X-27856097Y41521519D01*
X-27854650Y41522483D01*
X-27060378Y42044049D01*
X-27059203Y42044812D01*
X-26711187Y42267755D01*
X-26709397Y42268880D01*
X-25867266Y42788326D01*
X-25866391Y42788861D01*
X-25625929Y42934452D01*
X-25624581Y42935256D01*
X-25425233Y43052530D01*
X-25424439Y43052993D01*
X-24589371Y43535961D01*
X-24588808Y43536285D01*
X-24530655Y43569513D01*
X-24529285Y43570284D01*
X-24192971Y43756836D01*
X-24191837Y43757457D01*
X-23350501Y44212733D01*
X-23348871Y44213600D01*
X-22972477Y44410090D01*
X-22970993Y44410852D01*
X-22124922Y44838148D01*
X-22123604Y44838804D01*
X-21748617Y45022633D01*
X-21746776Y45023517D01*
X-20861612Y45439504D01*
X-20860617Y45439966D01*
X-20577969Y45569757D01*
X-20576537Y45570403D01*
X-20399058Y45649195D01*
X-20398283Y45649536D01*
X-19527518Y46029014D01*
X-19526856Y46029301D01*
X-19417604Y46076158D01*
X-19416156Y46076768D01*
X-19084411Y46214100D01*
X-19083280Y46214562D01*
X-18189996Y46574085D01*
X-18188211Y46574787D01*
X-17793513Y46726591D01*
X-17792019Y46727155D01*
X-16904122Y47055591D01*
X-16902671Y47056117D01*
X-16505967Y47197270D01*
X-16504105Y47197916D01*
X-15586567Y47508051D01*
X-15585458Y47508420D01*
X-15263114Y47614000D01*
X-15261619Y47614479D01*
X-15115589Y47660270D01*
X-15114848Y47660500D01*
X-14210480Y47937884D01*
X-14209720Y47938114D01*
X-14052733Y47985167D01*
X-14051226Y47985609D01*
X-13731813Y48076954D01*
X-13730706Y48077265D01*
X-12794925Y48335507D01*
X-12793003Y48336021D01*
X-12386073Y48441325D01*
X-12384594Y48441698D01*
X-11465081Y48667616D01*
X-11463510Y48667991D01*
X-11051032Y48763656D01*
X-11049178Y48764071D01*
X-10109753Y48966833D01*
X-10108540Y48967088D01*
X-9750389Y49040651D01*
X-9748850Y49040957D01*
X-9644074Y49061099D01*
X-9643381Y49061231D01*
X-8707179Y49235687D01*
X-8706328Y49235842D01*
X-8505521Y49271814D01*
X-8503974Y49272081D01*
X-8204304Y49321856D01*
X-8203238Y49322028D01*
X-7234622Y49474259D01*
X-7232584Y49474562D01*
X-6819961Y49532403D01*
X-6818520Y49532597D01*
X-5877893Y49653225D01*
X-5876219Y49653428D01*
X-5454063Y49701741D01*
X-5452245Y49701935D01*
X-4501694Y49796543D01*
X-4500389Y49796666D01*
X-4111095Y49831260D01*
X-4109526Y49831390D01*
X-4056938Y49835391D01*
X-4056310Y49835437D01*
X-3088630Y49904121D01*
X-3087696Y49904184D01*
X-2847988Y49919380D01*
X-2846420Y49919469D01*
X-2573680Y49933293D01*
X-2572673Y49933340D01*
X-1580770Y49975536D01*
X-1578639Y49975608D01*
X-1166857Y49986037D01*
X-1165476Y49986065D01*
X-214439Y49999546D01*
X-212681Y49999558D01*
X212649Y49999558D01*
X214406Y49999546D01*
G37*
G36*
X-1056977Y10980377D02*
G01*
X-1011222Y10927573D01*
X-1000016Y10876062D01*
X-1000016Y4104060D01*
X-1019701Y4037021D01*
X-1072505Y3991266D01*
X-1124016Y3980060D01*
X-2750016Y3980060D01*
X-2750016Y-3979940D01*
X2749984Y-3979940D01*
X2749984Y3980060D01*
X1123984Y3980060D01*
X1056945Y3999745D01*
X1011190Y4052549D01*
X999984Y4104060D01*
X999984Y10876062D01*
X1019669Y10943101D01*
X1072473Y10988856D01*
X1123984Y11000062D01*
X1875984Y11000062D01*
X1943023Y10980377D01*
X1988778Y10927573D01*
X1999984Y10876062D01*
X1999984Y7500059D01*
X2463665Y7036379D01*
X2497150Y6975056D01*
X2499984Y6948698D01*
X2499984Y5000060D01*
X4875984Y5000060D01*
X4943023Y4980375D01*
X4988778Y4927571D01*
X4999984Y4876060D01*
X4999984Y-4875940D01*
X4980299Y-4942979D01*
X4927495Y-4988734D01*
X4875984Y-4999940D01*
X-4876016Y-4999940D01*
X-4943055Y-4980255D01*
X-4988810Y-4927451D01*
X-5000016Y-4875940D01*
X-5000016Y4876060D01*
X-4980331Y4943099D01*
X-4927527Y4988854D01*
X-4876016Y5000060D01*
X-2000016Y5000060D01*
X-2000016Y10876062D01*
X-1980331Y10943101D01*
X-1927527Y10988856D01*
X-1876016Y11000062D01*
X-1124016Y11000062D01*
X-1056977Y10980377D01*
G37*
M02*
