%TF.GenerationSoftware,KiCad,Pcbnew,9.0.4*%
%TF.CreationDate,2026-03-19T19:45:48+01:00*%
%TF.ProjectId,TelemetryOnboard,54656c65-6d65-4747-9279-4f6e626f6172,rev?*%
%TF.SameCoordinates,Original*%
%TF.FileFunction,Soldermask,Top*%
%TF.FilePolarity,Negative*%
%FSLAX46Y46*%
G04 Gerber Fmt 4.6, Leading zero omitted, Abs format (unit mm)*
G04 Created by KiCad (PCBNEW 9.0.4) date 2026-03-19 19:45:48*
%MOMM*%
%LPD*%
G01*
G04 APERTURE LIST*
G04 Aperture macros list*
%AMRoundRect*
0 Rectangle with rounded corners*
0 $1 Rounding radius*
0 $2 $3 $4 $5 $6 $7 $8 $9 X,Y pos of 4 corners*
0 Add a 4 corners polygon primitive as box body*
4,1,4,$2,$3,$4,$5,$6,$7,$8,$9,$2,$3,0*
0 Add four circle primitives for the rounded corners*
1,1,$1+$1,$2,$3*
1,1,$1+$1,$4,$5*
1,1,$1+$1,$6,$7*
1,1,$1+$1,$8,$9*
0 Add four rect primitives between the rounded corners*
20,1,$1+$1,$2,$3,$4,$5,0*
20,1,$1+$1,$4,$5,$6,$7,0*
20,1,$1+$1,$6,$7,$8,$9,0*
20,1,$1+$1,$8,$9,$2,$3,0*%
%AMFreePoly0*
4,1,23,0.500000,-0.750000,0.000000,-0.750000,0.000000,-0.745722,-0.065263,-0.745722,-0.191342,-0.711940,-0.304381,-0.646677,-0.396677,-0.554381,-0.461940,-0.441342,-0.495722,-0.315263,-0.495722,-0.250000,-0.500000,-0.250000,-0.500000,0.250000,-0.495722,0.250000,-0.495722,0.315263,-0.461940,0.441342,-0.396677,0.554381,-0.304381,0.646677,-0.191342,0.711940,-0.065263,0.745722,0.000000,0.745722,
0.000000,0.750000,0.500000,0.750000,0.500000,-0.750000,0.500000,-0.750000,$1*%
%AMFreePoly1*
4,1,23,0.000000,0.745722,0.065263,0.745722,0.191342,0.711940,0.304381,0.646677,0.396677,0.554381,0.461940,0.441342,0.495722,0.315263,0.495722,0.250000,0.500000,0.250000,0.500000,-0.250000,0.495722,-0.250000,0.495722,-0.315263,0.461940,-0.441342,0.396677,-0.554381,0.304381,-0.646677,0.191342,-0.711940,0.065263,-0.745722,0.000000,-0.745722,0.000000,-0.750000,-0.500000,-0.750000,
-0.500000,0.750000,0.000000,0.750000,0.000000,0.745722,0.000000,0.745722,$1*%
G04 Aperture macros list end*
%ADD10C,1.531200*%
%ADD11C,0.836200*%
%ADD12RoundRect,0.250000X0.325000X0.450000X-0.325000X0.450000X-0.325000X-0.450000X0.325000X-0.450000X0*%
%ADD13RoundRect,0.250000X-0.337500X-0.475000X0.337500X-0.475000X0.337500X0.475000X-0.337500X0.475000X0*%
%ADD14C,2.000000*%
%ADD15RoundRect,0.250000X0.450000X-0.325000X0.450000X0.325000X-0.450000X0.325000X-0.450000X-0.325000X0*%
%ADD16C,1.700000*%
%ADD17RoundRect,0.225000X0.375000X-0.225000X0.375000X0.225000X-0.375000X0.225000X-0.375000X-0.225000X0*%
%ADD18RoundRect,0.175000X-0.325000X0.175000X-0.325000X-0.175000X0.325000X-0.175000X0.325000X0.175000X0*%
%ADD19RoundRect,0.150000X-0.150000X0.200000X-0.150000X-0.200000X0.150000X-0.200000X0.150000X0.200000X0*%
%ADD20RoundRect,0.250000X-0.350000X-0.450000X0.350000X-0.450000X0.350000X0.450000X-0.350000X0.450000X0*%
%ADD21RoundRect,0.250000X0.450000X-0.350000X0.450000X0.350000X-0.450000X0.350000X-0.450000X-0.350000X0*%
%ADD22RoundRect,0.250000X-0.450000X0.350000X-0.450000X-0.350000X0.450000X-0.350000X0.450000X0.350000X0*%
%ADD23RoundRect,0.250000X-0.450000X0.325000X-0.450000X-0.325000X0.450000X-0.325000X0.450000X0.325000X0*%
%ADD24RoundRect,0.250000X0.337500X0.475000X-0.337500X0.475000X-0.337500X-0.475000X0.337500X-0.475000X0*%
%ADD25RoundRect,0.250000X0.350000X0.450000X-0.350000X0.450000X-0.350000X-0.450000X0.350000X-0.450000X0*%
%ADD26C,8.000000*%
%ADD27RoundRect,0.250000X0.475000X-0.337500X0.475000X0.337500X-0.475000X0.337500X-0.475000X-0.337500X0*%
%ADD28C,0.650000*%
%ADD29RoundRect,0.102000X-0.300000X-0.575000X0.300000X-0.575000X0.300000X0.575000X-0.300000X0.575000X0*%
%ADD30RoundRect,0.102000X-0.150000X-0.575000X0.150000X-0.575000X0.150000X0.575000X-0.150000X0.575000X0*%
%ADD31RoundRect,0.102000X-0.775000X-0.625000X0.775000X-0.625000X0.775000X0.625000X-0.775000X0.625000X0*%
%ADD32RoundRect,0.102000X-0.775000X-0.750000X0.775000X-0.750000X0.775000X0.750000X-0.775000X0.750000X0*%
%ADD33RoundRect,0.250000X-0.325000X-0.450000X0.325000X-0.450000X0.325000X0.450000X-0.325000X0.450000X0*%
%ADD34R,0.355600X0.355600*%
%ADD35R,0.254000X0.812800*%
%ADD36R,0.812800X0.254000*%
%ADD37R,1.701800X1.701800*%
%ADD38RoundRect,0.150000X0.512500X0.150000X-0.512500X0.150000X-0.512500X-0.150000X0.512500X-0.150000X0*%
%ADD39RoundRect,0.102000X0.650000X0.750000X-0.650000X0.750000X-0.650000X-0.750000X0.650000X-0.750000X0*%
%ADD40R,1.600000X2.600000*%
%ADD41RoundRect,0.508000X-0.000010X0.508000X-0.000010X-0.508000X0.000010X-0.508000X0.000010X0.508000X0*%
%ADD42RoundRect,0.508000X0.000010X-0.508000X0.000010X0.508000X-0.000010X0.508000X-0.000010X-0.508000X0*%
%ADD43RoundRect,0.508000X-0.508000X-0.000010X0.508000X-0.000010X0.508000X0.000010X-0.508000X0.000010X0*%
%ADD44RoundRect,0.150000X-0.150000X0.587500X-0.150000X-0.587500X0.150000X-0.587500X0.150000X0.587500X0*%
%ADD45FreePoly0,0.000000*%
%ADD46FreePoly1,0.000000*%
%ADD47RoundRect,0.075000X-0.075000X0.662500X-0.075000X-0.662500X0.075000X-0.662500X0.075000X0.662500X0*%
%ADD48RoundRect,0.075000X-0.662500X0.075000X-0.662500X-0.075000X0.662500X-0.075000X0.662500X0.075000X0*%
%ADD49RoundRect,0.162500X0.162500X-0.650000X0.162500X0.650000X-0.162500X0.650000X-0.162500X-0.650000X0*%
%ADD50C,2.529000*%
%ADD51C,2.829000*%
G04 APERTURE END LIST*
D10*
%TO.C,J5*%
X-25384400Y42820000D02*
G75*
G02*
X-26915600Y42820000I-765600J0D01*
G01*
X-26915600Y42820000D02*
G75*
G02*
X-25384400Y42820000I765600J0D01*
G01*
D11*
X-23581900Y38500000D02*
G75*
G02*
X-24418100Y38500000I-418100J0D01*
G01*
X-24418100Y38500000D02*
G75*
G02*
X-23581900Y38500000I418100J0D01*
G01*
X-20581900Y38500000D02*
G75*
G02*
X-21418100Y38500000I-418100J0D01*
G01*
X-21418100Y38500000D02*
G75*
G02*
X-20581900Y38500000I418100J0D01*
G01*
D10*
X-18084400Y42820000D02*
G75*
G02*
X-19615600Y42820000I-765600J0D01*
G01*
X-19615600Y42820000D02*
G75*
G02*
X-18084400Y42820000I765600J0D01*
G01*
%TD*%
D12*
%TO.C,D27*%
X38525000Y33590000D03*
X36475000Y33590000D03*
%TD*%
D13*
%TO.C,C10*%
X5080000Y9500000D03*
X7155000Y9500000D03*
%TD*%
D14*
%TO.C,TP11*%
X-24000000Y23500000D03*
%TD*%
D15*
%TO.C,D1*%
X15950000Y-44012500D03*
X15950000Y-41962500D03*
%TD*%
D14*
%TO.C,TP9*%
X-24000000Y33500000D03*
%TD*%
D16*
%TO.C,JL4*%
X-39290000Y-2540000D03*
X-39290000Y-5080000D03*
X-39290000Y-7620000D03*
X-39290000Y-10160000D03*
X-39290000Y-12700000D03*
X-39290000Y-15240000D03*
X-39290000Y-17780000D03*
X-39290000Y-20320000D03*
%TD*%
D17*
%TO.C,D14*%
X-23937500Y-17150000D03*
X-23937500Y-13850000D03*
%TD*%
D18*
%TO.C,D8*%
X-20750000Y-34562500D03*
D19*
X-22450000Y-34562500D03*
X-22450000Y-36562500D03*
X-20550000Y-36562500D03*
%TD*%
D20*
%TO.C,R14*%
X-19000000Y-38062500D03*
X-17000000Y-38062500D03*
%TD*%
D21*
%TO.C,R50*%
X-27000000Y32500000D03*
X-27000000Y34500000D03*
%TD*%
D22*
%TO.C,R42*%
X-8000000Y22500000D03*
X-8000000Y20500000D03*
%TD*%
D23*
%TO.C,D7*%
X-14000000Y-39037500D03*
X-14000000Y-41087500D03*
%TD*%
D24*
%TO.C,C13*%
X-17330000Y-10500000D03*
X-19405000Y-10500000D03*
%TD*%
D13*
%TO.C,C6*%
X-17750000Y9500000D03*
X-15675000Y9500000D03*
%TD*%
D21*
%TO.C,R12*%
X-14000000Y-35562500D03*
X-14000000Y-33562500D03*
%TD*%
%TO.C,R17*%
X-30500000Y-35562500D03*
X-30500000Y-33562500D03*
%TD*%
D23*
%TO.C,D9*%
X-30500000Y-39037500D03*
X-30500000Y-41087500D03*
%TD*%
D12*
%TO.C,D17*%
X21835000Y44000000D03*
X19785000Y44000000D03*
%TD*%
D25*
%TO.C,R7*%
X-6000000Y-38062500D03*
X-8000000Y-38062500D03*
%TD*%
D22*
%TO.C,R5*%
X6500000Y-32000000D03*
X6500000Y-34000000D03*
%TD*%
D25*
%TO.C,R20*%
X-34000000Y37000000D03*
X-36000000Y37000000D03*
%TD*%
D21*
%TO.C,R15*%
X-17087500Y-29562500D03*
X-17087500Y-27562500D03*
%TD*%
D26*
%TO.C,M3*%
X36830000Y-27500000D03*
%TD*%
D25*
%TO.C,R45*%
X30500000Y41090000D03*
X28500000Y41090000D03*
%TD*%
D26*
%TO.C,M2*%
X-36830000Y-36500000D03*
%TD*%
D15*
%TO.C,D22*%
X-17000000Y26475000D03*
X-17000000Y28525000D03*
%TD*%
D14*
%TO.C,TP4*%
X7155000Y-5000000D03*
%TD*%
D21*
%TO.C,R22*%
X-29000000Y-7500000D03*
X-29000000Y-5500000D03*
%TD*%
D20*
%TO.C,R30*%
X19810000Y40500000D03*
X21810000Y40500000D03*
%TD*%
D27*
%TO.C,C2*%
X-1087500Y-32312689D03*
X-1087500Y-30237689D03*
%TD*%
D23*
%TO.C,D18*%
X-20500000Y19525000D03*
X-20500000Y17475000D03*
%TD*%
D28*
%TO.C,J2*%
X-24500000Y-41525000D03*
X-18500000Y-41525000D03*
D29*
X-24700000Y-40250000D03*
X-23900000Y-40250000D03*
D30*
X-22750000Y-40250000D03*
X-21750000Y-40250000D03*
X-21250000Y-40250000D03*
X-20250000Y-40250000D03*
D29*
X-18300000Y-40250000D03*
X-19100000Y-40250000D03*
D30*
X-19750000Y-40250000D03*
X-20750000Y-40250000D03*
X-22250000Y-40250000D03*
X-23250000Y-40250000D03*
D31*
X-26595000Y-40900000D03*
X-16405000Y-40900000D03*
D32*
X-26595000Y-44825000D03*
X-16405000Y-44825000D03*
%TD*%
D27*
%TO.C,C1*%
X-3087500Y-32312689D03*
X-3087500Y-30237689D03*
%TD*%
D33*
%TO.C,D11*%
X-40025000Y37000000D03*
X-37975000Y37000000D03*
%TD*%
D25*
%TO.C,R48*%
X34500000Y33590000D03*
X32500000Y33590000D03*
%TD*%
D14*
%TO.C,TP5*%
X-20000000Y28500000D03*
%TD*%
D21*
%TO.C,R26*%
X30500000Y8500000D03*
X30500000Y10500000D03*
%TD*%
%TO.C,R10*%
X912500Y-34562500D03*
X912500Y-32562500D03*
%TD*%
D34*
%TO.C,U1*%
X-7750061Y-32812500D03*
D35*
X-7250189Y-32959500D03*
X-6750063Y-32959500D03*
X-6249937Y-32959500D03*
X-5749811Y-32959500D03*
D34*
X-5249939Y-32812500D03*
D36*
X-5103000Y-32312689D03*
X-5103000Y-31812563D03*
X-5103000Y-31312437D03*
X-5103000Y-30812311D03*
D34*
X-5249939Y-30312500D03*
D35*
X-5749811Y-30165500D03*
X-6249937Y-30165500D03*
X-6750063Y-30165500D03*
X-7250189Y-30165500D03*
D34*
X-7750061Y-30312500D03*
D36*
X-7897000Y-30812311D03*
X-7897000Y-31312437D03*
X-7897000Y-31812563D03*
X-7897000Y-32312689D03*
D37*
X-6500000Y-31562500D03*
%TD*%
D14*
%TO.C,TP1*%
X-13000000Y-26562500D03*
%TD*%
D15*
%TO.C,D2*%
X13850000Y-44012500D03*
X13850000Y-41962500D03*
%TD*%
D22*
%TO.C,R2*%
X13850000Y-31987500D03*
X13850000Y-33987500D03*
%TD*%
D23*
%TO.C,D28*%
X-30000000Y28525000D03*
X-30000000Y26475000D03*
%TD*%
D14*
%TO.C,TP17*%
X-17000000Y16000000D03*
%TD*%
D26*
%TO.C,M4*%
X36830000Y27500000D03*
%TD*%
D16*
%TO.C,JL2*%
X-34163000Y-2540000D03*
X-34417000Y-5080000D03*
X-34163000Y-7620000D03*
X-34417000Y-10160000D03*
X-34163000Y-12700000D03*
X-34417000Y-15240000D03*
X-34163000Y-17780000D03*
X-34417000Y-20320000D03*
%TD*%
D15*
%TO.C,D20*%
X-11000000Y26475000D03*
X-11000000Y28525000D03*
%TD*%
D14*
%TO.C,TP3*%
X-24500000Y-26562500D03*
%TD*%
D22*
%TO.C,R19*%
X-28087500Y-24750000D03*
X-28087500Y-26750000D03*
%TD*%
D21*
%TO.C,R24*%
X-31250000Y20500000D03*
X-31250000Y22500000D03*
%TD*%
D12*
%TO.C,D24*%
X34525000Y41090000D03*
X32475000Y41090000D03*
%TD*%
D14*
%TO.C,TP7*%
X-20000000Y33500000D03*
%TD*%
%TO.C,TP10*%
X-24000000Y28500000D03*
%TD*%
D25*
%TO.C,R13*%
X-24000000Y-38062500D03*
X-26000000Y-38062500D03*
%TD*%
%TO.C,R38*%
X17810000Y44000000D03*
X15810000Y44000000D03*
%TD*%
D16*
%TO.C,JL3*%
X-39290000Y20320000D03*
X-39290000Y17780000D03*
X-39290000Y15240000D03*
X-39290000Y12700000D03*
X-39290000Y10160000D03*
X-39290000Y7620000D03*
X-39290000Y5080000D03*
X-39290000Y2540000D03*
%TD*%
%TO.C,JL1*%
X-34163000Y20320000D03*
X-34417000Y17780000D03*
X-34163000Y15240000D03*
X-34417000Y12700000D03*
X-34163000Y10160000D03*
X-34417000Y7620000D03*
X-34163000Y5080000D03*
X-34417000Y2540000D03*
%TD*%
D21*
%TO.C,R43*%
X-17000000Y20500000D03*
X-17000000Y22500000D03*
%TD*%
D22*
%TO.C,R6*%
X4400000Y-32000000D03*
X4400000Y-34000000D03*
%TD*%
D25*
%TO.C,R21*%
X-34087500Y33500000D03*
X-36087500Y33500000D03*
%TD*%
D21*
%TO.C,R29*%
X-14000000Y32500000D03*
X-14000000Y34500000D03*
%TD*%
D25*
%TO.C,ZP1*%
X0Y5500000D03*
X-2000000Y5500000D03*
%TD*%
%TO.C,R37*%
X4810000Y44000000D03*
X2810000Y44000000D03*
%TD*%
D23*
%TO.C,D6*%
X-11000000Y-39037500D03*
X-11000000Y-41087500D03*
%TD*%
D38*
%TO.C,D13*%
X31387500Y-9840000D03*
X31387500Y-7940000D03*
X29112500Y-8890000D03*
%TD*%
D39*
%TO.C,LS1*%
X-30400000Y-17750000D03*
X-26900000Y-13250000D03*
X-26900000Y-17750000D03*
%TD*%
D22*
%TO.C,R23*%
X-31250000Y16500000D03*
X-31250000Y14500000D03*
%TD*%
D25*
%TO.C,R46*%
X30500000Y38590000D03*
X28500000Y38590000D03*
%TD*%
D22*
%TO.C,R44*%
X-14000000Y22500000D03*
X-14000000Y20500000D03*
%TD*%
D21*
%TO.C,R9*%
X912500Y-29562500D03*
X912500Y-27562500D03*
%TD*%
%TO.C,R16*%
X-17087500Y-34562500D03*
X-17087500Y-32562500D03*
%TD*%
D14*
%TO.C,TP2*%
X-10000000Y-26562500D03*
%TD*%
D20*
%TO.C,R35*%
X24155000Y-500000D03*
X26155000Y-500000D03*
%TD*%
%TO.C,R8*%
X-1000000Y-38062500D03*
X1000000Y-38062500D03*
%TD*%
D25*
%TO.C,ZP2*%
X17000000Y5500000D03*
X15000000Y5500000D03*
%TD*%
D27*
%TO.C,C3*%
X-21087500Y-32312689D03*
X-21087500Y-30237689D03*
%TD*%
D14*
%TO.C,TP14*%
X-27000000Y18500000D03*
%TD*%
D16*
%TO.C,JR3*%
X39290000Y2540000D03*
X39290000Y5080000D03*
X39290000Y7620000D03*
X39290000Y10160000D03*
X39290000Y12700000D03*
X39290000Y15240000D03*
X39290000Y17780000D03*
X39290000Y20320000D03*
%TD*%
D40*
%TO.C,D4*%
X8600000Y-38550000D03*
X6500000Y-38550000D03*
X4400000Y-38550000D03*
X4400000Y-43450000D03*
X6500000Y-43450000D03*
X8600000Y-43450000D03*
%TD*%
D21*
%TO.C,R25*%
X30500000Y16500000D03*
X30500000Y18500000D03*
%TD*%
D25*
%TO.C,R36*%
X-8190000Y44000000D03*
X-10190000Y44000000D03*
%TD*%
D15*
%TO.C,D3*%
X11750000Y-44012500D03*
X11750000Y-41962500D03*
%TD*%
D16*
%TO.C,REF\u002A\u002A*%
X-10000000Y-22500000D03*
%TD*%
D41*
%TO.C,U4*%
X6350000Y37400000D03*
X5080000Y37400000D03*
X3810000Y37400000D03*
X2540000Y37400000D03*
X1270000Y37400000D03*
X0Y37400000D03*
X-1270000Y37400000D03*
D42*
X-1270000Y12000000D03*
X0Y12000000D03*
X1270000Y12000000D03*
X2540000Y12000000D03*
X3810000Y12000000D03*
X5080000Y12000000D03*
X6350000Y12000000D03*
D43*
X-3810000Y34860000D03*
X-3810000Y33590000D03*
X-3810000Y32320000D03*
X-3800977Y31048045D03*
X-3810000Y29780000D03*
X-3810000Y28510000D03*
X-3810000Y27240000D03*
X-3810000Y25970000D03*
X8890000Y25970000D03*
X8890000Y27240000D03*
X8890000Y28510000D03*
X8890000Y29780000D03*
X8890000Y31050000D03*
X8890000Y32320000D03*
X8890000Y33590000D03*
X8890000Y34860000D03*
X8890000Y22160000D03*
X-3810000Y22160000D03*
X8890000Y20890000D03*
X-3810000Y20890000D03*
X8890000Y19620000D03*
X-3810000Y19620000D03*
X8890000Y18350000D03*
X-3810000Y18350000D03*
X8890000Y17080000D03*
X-3810000Y17080000D03*
X8890000Y15810000D03*
X-3810000Y15810000D03*
%TD*%
D22*
%TO.C,R4*%
X8600000Y-32000000D03*
X8600000Y-34000000D03*
%TD*%
D26*
%TO.C,M1*%
X-36830000Y27500000D03*
%TD*%
D15*
%TO.C,D23*%
X-14000000Y26475000D03*
X-14000000Y28525000D03*
%TD*%
D14*
%TO.C,TP13*%
X-11000000Y16000000D03*
%TD*%
D13*
%TO.C,C12*%
X22080000Y9500000D03*
X24155000Y9500000D03*
%TD*%
D21*
%TO.C,R11*%
X-11000000Y-35562500D03*
X-11000000Y-33562500D03*
%TD*%
D12*
%TO.C,D15*%
X-4165000Y44000000D03*
X-6215000Y44000000D03*
%TD*%
D20*
%TO.C,R33*%
X7155000Y-500000D03*
X9155000Y-500000D03*
%TD*%
D14*
%TO.C,TP16*%
X-14000000Y16000000D03*
%TD*%
D27*
%TO.C,C4*%
X-19087500Y-32312689D03*
X-19087500Y-30237689D03*
%TD*%
D28*
%TO.C,J1*%
X-6500000Y-41525000D03*
X-500000Y-41525000D03*
D29*
X-6700000Y-40250000D03*
X-5900000Y-40250000D03*
D30*
X-4750000Y-40250000D03*
X-3750000Y-40250000D03*
X-3250000Y-40250000D03*
X-2250000Y-40250000D03*
D29*
X-300000Y-40250000D03*
X-1100000Y-40250000D03*
D30*
X-1750000Y-40250000D03*
X-2750000Y-40250000D03*
X-4250000Y-40250000D03*
X-5250000Y-40250000D03*
D31*
X-8595000Y-40900000D03*
X1595000Y-40900000D03*
D32*
X-8595000Y-44825000D03*
X1595000Y-44825000D03*
%TD*%
D16*
%TO.C,JR2*%
X34163000Y-20320000D03*
X34417000Y-17780000D03*
X34163000Y-15240000D03*
X34417000Y-12700000D03*
X34163000Y-10160000D03*
X34417000Y-7620000D03*
X34163000Y-5080000D03*
X34417000Y-2540000D03*
%TD*%
D23*
%TO.C,D19*%
X-23500000Y19525000D03*
X-23500000Y17475000D03*
%TD*%
D13*
%TO.C,C11*%
X22080000Y5500000D03*
X24155000Y5500000D03*
%TD*%
D16*
%TO.C,REF\u002A\u002A*%
X-24500000Y-22500000D03*
%TD*%
D24*
%TO.C,C5*%
X-23250000Y-6500000D03*
X-25325000Y-6500000D03*
%TD*%
D15*
%TO.C,D21*%
X-8000000Y26475000D03*
X-8000000Y28525000D03*
%TD*%
D20*
%TO.C,R18*%
X-30000000Y-30062500D03*
X-28000000Y-30062500D03*
%TD*%
D44*
%TO.C,Q1*%
X-29000000Y-9662500D03*
X-30900000Y-9662500D03*
X-29950000Y-11537500D03*
%TD*%
D12*
%TO.C,D16*%
X8835000Y44000000D03*
X6785000Y44000000D03*
%TD*%
D13*
%TO.C,C9*%
X5080000Y5540000D03*
X7155000Y5540000D03*
%TD*%
D22*
%TO.C,R39*%
X-20500000Y13500000D03*
X-20500000Y11500000D03*
%TD*%
D23*
%TO.C,D29*%
X-27000000Y28525000D03*
X-27000000Y26475000D03*
%TD*%
D22*
%TO.C,R34*%
X24155000Y3500000D03*
X24155000Y1500000D03*
%TD*%
D16*
%TO.C,JR4*%
X39290000Y-20320000D03*
X39290000Y-17780000D03*
X39290000Y-15240000D03*
X39290000Y-12700000D03*
X39290000Y-10160000D03*
X39290000Y-7620000D03*
X39290000Y-5080000D03*
X39290000Y-2540000D03*
%TD*%
D21*
%TO.C,R27*%
X-8000000Y32500000D03*
X-8000000Y34500000D03*
%TD*%
D12*
%TO.C,D25*%
X34525000Y38590000D03*
X32475000Y38590000D03*
%TD*%
D25*
%TO.C,R47*%
X34500000Y36090000D03*
X32500000Y36090000D03*
%TD*%
D45*
%TO.C,JP2*%
X-20752500Y-26562500D03*
D46*
X-19452500Y-26562500D03*
%TD*%
D24*
%TO.C,C8*%
X-9962500Y1250000D03*
X-12037500Y1250000D03*
%TD*%
D12*
%TO.C,D26*%
X38525000Y36090000D03*
X36475000Y36090000D03*
%TD*%
D45*
%TO.C,JP1*%
X-2752500Y-26562500D03*
D46*
X-1452500Y-26562500D03*
%TD*%
D17*
%TO.C,D10*%
X-31000000Y-26662500D03*
X-31000000Y-23362500D03*
%TD*%
D20*
%TO.C,R28*%
X2810000Y40500000D03*
X4810000Y40500000D03*
%TD*%
D14*
%TO.C,TP6*%
X-20000000Y23500000D03*
%TD*%
D22*
%TO.C,ZS2*%
X17000000Y9500000D03*
X17000000Y7500000D03*
%TD*%
D14*
%TO.C,TP8*%
X24155000Y-5000000D03*
%TD*%
D16*
%TO.C,REF\u002A\u002A*%
X-13000000Y-22500000D03*
%TD*%
D18*
%TO.C,D5*%
X-2750000Y-34562500D03*
D19*
X-4450000Y-34562500D03*
X-4450000Y-36562500D03*
X-2550000Y-36562500D03*
%TD*%
D16*
%TO.C,JR1*%
X34163000Y2540000D03*
X34417000Y5080000D03*
X34163000Y7620000D03*
X34417000Y10160000D03*
X34163000Y12700000D03*
X34417000Y15240000D03*
X34163000Y17780000D03*
X34417000Y20320000D03*
%TD*%
D47*
%TO.C,U3*%
X-16250000Y7162500D03*
X-16750000Y7162500D03*
X-17250000Y7162500D03*
X-17750000Y7162500D03*
X-18250000Y7162500D03*
X-18750000Y7162500D03*
X-19250000Y7162500D03*
X-19750000Y7162500D03*
X-20250000Y7162500D03*
X-20750000Y7162500D03*
X-21250000Y7162500D03*
X-21750000Y7162500D03*
X-22250000Y7162500D03*
X-22750000Y7162500D03*
X-23250000Y7162500D03*
X-23750000Y7162500D03*
D48*
X-25662500Y5250000D03*
X-25662500Y4750000D03*
X-25662500Y4250000D03*
X-25662500Y3750000D03*
X-25662500Y3250000D03*
X-25662500Y2750000D03*
X-25662500Y2250000D03*
X-25662500Y1750000D03*
X-25662500Y1250000D03*
X-25662500Y750000D03*
X-25662500Y250000D03*
X-25662500Y-250000D03*
X-25662500Y-750000D03*
X-25662500Y-1250000D03*
X-25662500Y-1750000D03*
X-25662500Y-2250000D03*
D47*
X-23750000Y-4162500D03*
X-23250000Y-4162500D03*
X-22750000Y-4162500D03*
X-22250000Y-4162500D03*
X-21750000Y-4162500D03*
X-21250000Y-4162500D03*
X-20750000Y-4162500D03*
X-20250000Y-4162500D03*
X-19750000Y-4162500D03*
X-19250000Y-4162500D03*
X-18750000Y-4162500D03*
X-18250000Y-4162500D03*
X-17750000Y-4162500D03*
X-17250000Y-4162500D03*
X-16750000Y-4162500D03*
X-16250000Y-4162500D03*
D48*
X-14337500Y-2250000D03*
X-14337500Y-1750000D03*
X-14337500Y-1250000D03*
X-14337500Y-750000D03*
X-14337500Y-250000D03*
X-14337500Y250000D03*
X-14337500Y750000D03*
X-14337500Y1250000D03*
X-14337500Y1750000D03*
X-14337500Y2250000D03*
X-14337500Y2750000D03*
X-14337500Y3250000D03*
X-14337500Y3750000D03*
X-14337500Y4250000D03*
X-14337500Y4750000D03*
X-14337500Y5250000D03*
%TD*%
D22*
%TO.C,R49*%
X-30000000Y34500000D03*
X-30000000Y32500000D03*
%TD*%
D33*
%TO.C,D12*%
X-40025000Y33500000D03*
X-37975000Y33500000D03*
%TD*%
D22*
%TO.C,R40*%
X-23500000Y13500000D03*
X-23500000Y11500000D03*
%TD*%
D13*
%TO.C,C7*%
X-30037500Y3750000D03*
X-27962500Y3750000D03*
%TD*%
D49*
%TO.C,U6*%
X-19405000Y-20087500D03*
X-18135000Y-20087500D03*
X-16865000Y-20087500D03*
X-15595000Y-20087500D03*
X-15595000Y-12912500D03*
X-16865000Y-12912500D03*
X-18135000Y-12912500D03*
X-19405000Y-12912500D03*
%TD*%
D34*
%TO.C,U2*%
X-25750061Y-32812500D03*
D35*
X-25250189Y-32959500D03*
X-24750063Y-32959500D03*
X-24249937Y-32959500D03*
X-23749811Y-32959500D03*
D34*
X-23249939Y-32812500D03*
D36*
X-23103000Y-32312689D03*
X-23103000Y-31812563D03*
X-23103000Y-31312437D03*
X-23103000Y-30812311D03*
D34*
X-23249939Y-30312500D03*
D35*
X-23749811Y-30165500D03*
X-24249937Y-30165500D03*
X-24750063Y-30165500D03*
X-25250189Y-30165500D03*
D34*
X-25750061Y-30312500D03*
D36*
X-25897000Y-30812311D03*
X-25897000Y-31312437D03*
X-25897000Y-31812563D03*
X-25897000Y-32312689D03*
D37*
X-24500000Y-31562500D03*
%TD*%
D21*
%TO.C,R41*%
X-11000000Y20500000D03*
X-11000000Y22500000D03*
%TD*%
D41*
%TO.C,U5*%
X23350000Y37400000D03*
X22080000Y37400000D03*
X20810000Y37400000D03*
X19540000Y37400000D03*
X18270000Y37400000D03*
X17000000Y37400000D03*
X15730000Y37400000D03*
D42*
X15730000Y12000000D03*
X17000000Y12000000D03*
X18270000Y12000000D03*
X19540000Y12000000D03*
X20810000Y12000000D03*
X22080000Y12000000D03*
X23350000Y12000000D03*
D43*
X13190000Y34860000D03*
X13190000Y33590000D03*
X13190000Y32320000D03*
X13199023Y31048045D03*
X13190000Y29780000D03*
X13190000Y28510000D03*
X13190000Y27240000D03*
X13190000Y25970000D03*
X25890000Y25970000D03*
X25890000Y27240000D03*
X25890000Y28510000D03*
X25890000Y29780000D03*
X25890000Y31050000D03*
X25890000Y32320000D03*
X25890000Y33590000D03*
X25890000Y34860000D03*
X25890000Y22160000D03*
X13190000Y22160000D03*
X25890000Y20890000D03*
X13190000Y20890000D03*
X25890000Y19620000D03*
X13190000Y19620000D03*
X25890000Y18350000D03*
X13190000Y18350000D03*
X25890000Y17080000D03*
X13190000Y17080000D03*
X25890000Y15810000D03*
X13190000Y15810000D03*
%TD*%
D14*
%TO.C,TP15*%
X-27000000Y12500000D03*
%TD*%
D22*
%TO.C,R3*%
X11750000Y-31987500D03*
X11750000Y-33987500D03*
%TD*%
D20*
%TO.C,R31*%
X-19405000Y-22500000D03*
X-17405000Y-22500000D03*
%TD*%
D22*
%TO.C,R32*%
X7155000Y3500000D03*
X7155000Y1500000D03*
%TD*%
D14*
%TO.C,TP12*%
X-8000000Y16000000D03*
%TD*%
D22*
%TO.C,R1*%
X15950000Y-31987500D03*
X15950000Y-33987500D03*
%TD*%
%TO.C,ZS1*%
X0Y9500000D03*
X0Y7500000D03*
%TD*%
D50*
%TO.C,J4*%
X17000000Y0D03*
D51*
X14460000Y-2540000D03*
X19540000Y-2540000D03*
X14460000Y2540000D03*
X19540000Y2540000D03*
%TD*%
D50*
%TO.C,J3*%
X0Y0D03*
D51*
X-2540000Y-2540000D03*
X2540000Y-2540000D03*
X-2540000Y2540000D03*
X2540000Y2540000D03*
%TD*%
G36*
X27500358Y47499998D02*
G01*
X27946385Y47497496D01*
X27951252Y47497373D01*
X28842762Y47457335D01*
X28848314Y47456961D01*
X29736798Y47376996D01*
X29742328Y47376373D01*
X30626336Y47256626D01*
X30631832Y47255755D01*
X31509549Y47096473D01*
X31515001Y47095357D01*
X32384716Y46896850D01*
X32390112Y46895490D01*
X33250023Y46658169D01*
X33255352Y46656569D01*
X34103763Y46380904D01*
X34109016Y46379066D01*
X34944216Y46065610D01*
X34949380Y46063538D01*
X35769642Y45712942D01*
X35774709Y45710641D01*
X36578441Y45323583D01*
X36583399Y45321057D01*
X37368950Y44898334D01*
X37373790Y44895588D01*
X38139606Y44438034D01*
X38144317Y44435073D01*
X38888803Y43943643D01*
X38893377Y43940474D01*
X39615068Y43416136D01*
X39619496Y43412765D01*
X40316954Y42856559D01*
X40321225Y42852993D01*
X40993015Y42266069D01*
X40997123Y42262314D01*
X41641904Y41645838D01*
X41645838Y41641904D01*
X42262314Y40997123D01*
X42266069Y40993015D01*
X42852993Y40321225D01*
X42856559Y40316954D01*
X43412765Y39619496D01*
X43416136Y39615068D01*
X43940474Y38893377D01*
X43943643Y38888803D01*
X44435073Y38144317D01*
X44438034Y38139606D01*
X44895588Y37373790D01*
X44898334Y37368950D01*
X45321057Y36583399D01*
X45323583Y36578441D01*
X45710641Y35774709D01*
X45712942Y35769642D01*
X46063538Y34949380D01*
X46065610Y34944216D01*
X46379066Y34109016D01*
X46380904Y34103763D01*
X46656569Y33255352D01*
X46658169Y33250023D01*
X46895490Y32390112D01*
X46896850Y32384716D01*
X47095357Y31515001D01*
X47096473Y31509549D01*
X47255755Y30631832D01*
X47256626Y30626336D01*
X47376373Y29742328D01*
X47376996Y29736798D01*
X47456961Y28848314D01*
X47457335Y28842762D01*
X47497373Y27951252D01*
X47497496Y27946385D01*
X47499998Y27500357D01*
X47500000Y27499661D01*
X47500000Y-27499661D01*
X47499998Y-27500357D01*
X47497496Y-27946385D01*
X47497373Y-27951252D01*
X47457335Y-28842762D01*
X47456961Y-28848314D01*
X47376996Y-29736798D01*
X47376373Y-29742328D01*
X47256626Y-30626336D01*
X47255755Y-30631832D01*
X47096473Y-31509549D01*
X47095357Y-31515001D01*
X46896850Y-32384716D01*
X46895490Y-32390112D01*
X46658169Y-33250023D01*
X46656569Y-33255352D01*
X46380904Y-34103763D01*
X46379066Y-34109016D01*
X46065610Y-34944216D01*
X46063538Y-34949380D01*
X45712942Y-35769642D01*
X45710641Y-35774709D01*
X45323583Y-36578441D01*
X45321057Y-36583399D01*
X44898334Y-37368950D01*
X44895588Y-37373790D01*
X44438034Y-38139606D01*
X44435073Y-38144317D01*
X43943643Y-38888803D01*
X43940474Y-38893377D01*
X43416136Y-39615068D01*
X43412765Y-39619496D01*
X42856559Y-40316954D01*
X42852993Y-40321225D01*
X42266069Y-40993015D01*
X42262314Y-40997123D01*
X41645838Y-41641904D01*
X41641904Y-41645838D01*
X40997123Y-42262314D01*
X40993015Y-42266069D01*
X40321225Y-42852993D01*
X40316954Y-42856559D01*
X39619496Y-43412765D01*
X39615068Y-43416136D01*
X38893377Y-43940474D01*
X38888803Y-43943643D01*
X38144317Y-44435073D01*
X38139606Y-44438034D01*
X37373790Y-44895588D01*
X37368950Y-44898334D01*
X36583399Y-45321057D01*
X36578441Y-45323583D01*
X35774709Y-45710641D01*
X35769642Y-45712942D01*
X34949380Y-46063538D01*
X34944216Y-46065610D01*
X34109016Y-46379066D01*
X34103763Y-46380904D01*
X33255352Y-46656569D01*
X33250023Y-46658169D01*
X32390112Y-46895490D01*
X32384716Y-46896850D01*
X31515001Y-47095357D01*
X31509549Y-47096473D01*
X30631832Y-47255755D01*
X30626336Y-47256626D01*
X29742328Y-47376373D01*
X29736798Y-47376996D01*
X28848314Y-47456961D01*
X28842762Y-47457335D01*
X27951252Y-47497373D01*
X27946385Y-47497496D01*
X27500358Y-47499998D01*
X27499662Y-47500000D01*
X2124000Y-47500000D01*
X2056961Y-47480315D01*
X2011206Y-47427511D01*
X2000000Y-47376000D01*
X2000000Y-45624000D01*
X2019685Y-45556961D01*
X2072489Y-45511206D01*
X2124000Y-45500000D01*
X27499838Y-45500000D01*
X27688509Y-45499506D01*
X28065428Y-45491610D01*
X28442077Y-45475824D01*
X28818314Y-45452154D01*
X29193979Y-45420608D01*
X29568948Y-45381197D01*
X29942926Y-45333952D01*
X30315886Y-45278879D01*
X30687618Y-45216005D01*
X31057959Y-45145358D01*
X31426667Y-45066986D01*
X31793745Y-44980889D01*
X32158858Y-44887145D01*
X32521952Y-44785767D01*
X32882901Y-44676790D01*
X33241415Y-44560302D01*
X33597454Y-44436316D01*
X33950821Y-44304899D01*
X34301302Y-44166134D01*
X34648849Y-44020039D01*
X34993244Y-43866705D01*
X35334404Y-43706167D01*
X35672051Y-43538558D01*
X36006153Y-43363893D01*
X36336504Y-43182281D01*
X36662984Y-42993789D01*
X36985471Y-42798482D01*
X37303791Y-42596471D01*
X37617762Y-42387869D01*
X37927354Y-42172697D01*
X38232328Y-41951121D01*
X38532638Y-41723173D01*
X38828050Y-41489032D01*
X39118591Y-41248676D01*
X39403929Y-41002378D01*
X39684096Y-40750115D01*
X39958916Y-40492042D01*
X40228270Y-40228270D01*
X40492042Y-39958916D01*
X40750115Y-39684096D01*
X41002378Y-39403929D01*
X41248676Y-39118591D01*
X41489032Y-38828050D01*
X41723173Y-38532638D01*
X41951121Y-38232328D01*
X42172697Y-37927354D01*
X42387869Y-37617762D01*
X42596471Y-37303791D01*
X42798482Y-36985471D01*
X42993789Y-36662984D01*
X43182281Y-36336504D01*
X43363893Y-36006153D01*
X43538558Y-35672051D01*
X43706167Y-35334404D01*
X43866705Y-34993244D01*
X44020039Y-34648849D01*
X44166134Y-34301302D01*
X44304899Y-33950821D01*
X44436316Y-33597454D01*
X44560302Y-33241415D01*
X44676790Y-32882901D01*
X44785767Y-32521952D01*
X44887145Y-32158858D01*
X44980889Y-31793745D01*
X45066986Y-31426667D01*
X45145358Y-31057959D01*
X45216005Y-30687618D01*
X45278879Y-30315886D01*
X45333952Y-29942926D01*
X45381197Y-29568948D01*
X45420608Y-29193979D01*
X45452154Y-28818314D01*
X45475824Y-28442077D01*
X45491610Y-28065428D01*
X45499506Y-27688509D01*
X45500000Y-27499838D01*
X45500000Y27499838D01*
X45499506Y27688509D01*
X45491610Y28065428D01*
X45475824Y28442077D01*
X45452154Y28818314D01*
X45420608Y29193979D01*
X45381197Y29568948D01*
X45333952Y29942926D01*
X45278879Y30315886D01*
X45216005Y30687618D01*
X45145358Y31057959D01*
X45066986Y31426667D01*
X44980889Y31793745D01*
X44887145Y32158858D01*
X44785767Y32521952D01*
X44676790Y32882901D01*
X44560302Y33241415D01*
X44436316Y33597454D01*
X44304899Y33950821D01*
X44166134Y34301302D01*
X44020039Y34648849D01*
X43866705Y34993244D01*
X43706167Y35334404D01*
X43538558Y35672051D01*
X43363893Y36006153D01*
X43182281Y36336504D01*
X42993789Y36662984D01*
X42798482Y36985471D01*
X42596471Y37303791D01*
X42387869Y37617762D01*
X42172697Y37927354D01*
X41951121Y38232328D01*
X41723173Y38532638D01*
X41489032Y38828050D01*
X41248676Y39118591D01*
X41002378Y39403929D01*
X40750115Y39684096D01*
X40492042Y39958916D01*
X40228270Y40228270D01*
X39958916Y40492042D01*
X39684096Y40750115D01*
X39403929Y41002378D01*
X39118591Y41248676D01*
X38828050Y41489032D01*
X38532638Y41723173D01*
X38232328Y41951121D01*
X37927354Y42172697D01*
X37617762Y42387869D01*
X37303791Y42596471D01*
X36985471Y42798482D01*
X36662984Y42993789D01*
X36336504Y43182281D01*
X36006153Y43363893D01*
X35672051Y43538558D01*
X35334404Y43706167D01*
X34993244Y43866705D01*
X34648849Y44020039D01*
X34301302Y44166134D01*
X33950821Y44304899D01*
X33597454Y44436316D01*
X33241415Y44560302D01*
X32882901Y44676790D01*
X32521952Y44785767D01*
X32158858Y44887145D01*
X31793745Y44980889D01*
X31426667Y45066986D01*
X31057959Y45145358D01*
X30687618Y45216005D01*
X30315886Y45278879D01*
X29942926Y45333952D01*
X29568948Y45381197D01*
X29193979Y45420608D01*
X28818314Y45452154D01*
X28442077Y45475824D01*
X28065428Y45491610D01*
X27688509Y45499506D01*
X27499838Y45500000D01*
X27374000Y45500000D01*
X27306961Y45519685D01*
X27261206Y45572489D01*
X27250000Y45624000D01*
X27250000Y47376000D01*
X27269685Y47443039D01*
X27322489Y47488794D01*
X27374000Y47500000D01*
X27499662Y47500000D01*
X27500358Y47499998D01*
G37*
G36*
X-9056961Y-45519685D02*
G01*
X-9011206Y-45572489D01*
X-9000000Y-45624000D01*
X-9000000Y-47376000D01*
X-9019685Y-47443039D01*
X-9072489Y-47488794D01*
X-9124000Y-47500000D01*
X-15876000Y-47500000D01*
X-15943039Y-47480315D01*
X-15988794Y-47427511D01*
X-16000000Y-47376000D01*
X-16000000Y-45624000D01*
X-15980315Y-45556961D01*
X-15927511Y-45511206D01*
X-15876000Y-45500000D01*
X-9124000Y-45500000D01*
X-9056961Y-45519685D01*
G37*
G36*
X-27499838Y-45500000D02*
G01*
X-27124000Y-45500000D01*
X-27056961Y-45519685D01*
X-27011206Y-45572489D01*
X-27000000Y-45624000D01*
X-27000000Y-47376000D01*
X-27019685Y-47443039D01*
X-27072489Y-47488794D01*
X-27124000Y-47500000D01*
X-27499677Y-47500000D01*
X-27500363Y-47499998D01*
X-27626686Y-47499299D01*
X-27693616Y-47479244D01*
X-27739078Y-47426188D01*
X-27750000Y-47375301D01*
X-27750000Y-45623671D01*
X-27730315Y-45556632D01*
X-27677511Y-45510877D01*
X-27625676Y-45499671D01*
X-27499838Y-45500000D01*
G37*
G36*
X27500357Y47499998D02*
G01*
X27626697Y47499288D01*
X27693625Y47479227D01*
X27739082Y47426167D01*
X27750000Y47375290D01*
X27750000Y45623671D01*
X27730315Y45556632D01*
X27677511Y45510877D01*
X27625676Y45499671D01*
X27499838Y45500000D01*
X-27499838Y45500000D01*
X-27688509Y45499506D01*
X-28065428Y45491610D01*
X-28442077Y45475824D01*
X-28818314Y45452154D01*
X-29193979Y45420608D01*
X-29568948Y45381197D01*
X-29942926Y45333952D01*
X-30315886Y45278879D01*
X-30687618Y45216005D01*
X-31057959Y45145358D01*
X-31426667Y45066986D01*
X-31793745Y44980889D01*
X-32158858Y44887145D01*
X-32521952Y44785767D01*
X-32882901Y44676790D01*
X-33241415Y44560302D01*
X-33597454Y44436316D01*
X-33950821Y44304899D01*
X-34301302Y44166134D01*
X-34648849Y44020039D01*
X-34993244Y43866705D01*
X-35334404Y43706167D01*
X-35672051Y43538558D01*
X-36006153Y43363893D01*
X-36336504Y43182281D01*
X-36662984Y42993789D01*
X-36985471Y42798482D01*
X-37303791Y42596471D01*
X-37617762Y42387869D01*
X-37927354Y42172697D01*
X-38232328Y41951121D01*
X-38532638Y41723173D01*
X-38828050Y41489032D01*
X-39118591Y41248676D01*
X-39403929Y41002378D01*
X-39684096Y40750115D01*
X-39958916Y40492042D01*
X-40228270Y40228270D01*
X-40492042Y39958916D01*
X-40750115Y39684096D01*
X-41002378Y39403929D01*
X-41248676Y39118591D01*
X-41489032Y38828050D01*
X-41723173Y38532638D01*
X-41951121Y38232328D01*
X-42172697Y37927354D01*
X-42387869Y37617762D01*
X-42596471Y37303791D01*
X-42798482Y36985471D01*
X-42993789Y36662984D01*
X-43182281Y36336504D01*
X-43363893Y36006153D01*
X-43538558Y35672051D01*
X-43706167Y35334404D01*
X-43866705Y34993244D01*
X-44020039Y34648849D01*
X-44166134Y34301302D01*
X-44304899Y33950821D01*
X-44436316Y33597454D01*
X-44560302Y33241415D01*
X-44676790Y32882901D01*
X-44785767Y32521952D01*
X-44887145Y32158858D01*
X-44980889Y31793745D01*
X-45066986Y31426667D01*
X-45145358Y31057959D01*
X-45216005Y30687618D01*
X-45278879Y30315886D01*
X-45333952Y29942926D01*
X-45381197Y29568948D01*
X-45420608Y29193979D01*
X-45452154Y28818314D01*
X-45475824Y28442077D01*
X-45491610Y28065428D01*
X-45499506Y27688509D01*
X-45500000Y27499838D01*
X-45500000Y-27499838D01*
X-45499506Y-27688509D01*
X-45491610Y-28065428D01*
X-45475824Y-28442077D01*
X-45452154Y-28818314D01*
X-45420608Y-29193979D01*
X-45381197Y-29568948D01*
X-45333952Y-29942926D01*
X-45278879Y-30315886D01*
X-45216005Y-30687618D01*
X-45145358Y-31057959D01*
X-45066986Y-31426667D01*
X-44980889Y-31793745D01*
X-44887145Y-32158858D01*
X-44785767Y-32521952D01*
X-44676790Y-32882901D01*
X-44560302Y-33241415D01*
X-44436316Y-33597454D01*
X-44304899Y-33950821D01*
X-44166134Y-34301302D01*
X-44020039Y-34648849D01*
X-43866705Y-34993244D01*
X-43706167Y-35334404D01*
X-43538558Y-35672051D01*
X-43363893Y-36006153D01*
X-43182281Y-36336504D01*
X-42993789Y-36662984D01*
X-42798482Y-36985471D01*
X-42596471Y-37303791D01*
X-42387869Y-37617762D01*
X-42172697Y-37927354D01*
X-41951121Y-38232328D01*
X-41723173Y-38532638D01*
X-41489032Y-38828050D01*
X-41248676Y-39118591D01*
X-41002378Y-39403929D01*
X-40750115Y-39684096D01*
X-40492042Y-39958916D01*
X-40228270Y-40228270D01*
X-39958916Y-40492042D01*
X-39684096Y-40750115D01*
X-39403929Y-41002378D01*
X-39118591Y-41248676D01*
X-38828050Y-41489032D01*
X-38532638Y-41723173D01*
X-38232328Y-41951121D01*
X-37927354Y-42172697D01*
X-37617762Y-42387869D01*
X-37303791Y-42596471D01*
X-36985471Y-42798482D01*
X-36662984Y-42993789D01*
X-36336504Y-43182281D01*
X-36006153Y-43363893D01*
X-35672051Y-43538558D01*
X-35334404Y-43706167D01*
X-34993244Y-43866705D01*
X-34648849Y-44020039D01*
X-34301302Y-44166134D01*
X-33950821Y-44304899D01*
X-33597454Y-44436316D01*
X-33241415Y-44560302D01*
X-32882901Y-44676790D01*
X-32521952Y-44785767D01*
X-32158858Y-44887145D01*
X-31793745Y-44980889D01*
X-31426667Y-45066986D01*
X-31057959Y-45145358D01*
X-30687618Y-45216005D01*
X-30315886Y-45278879D01*
X-29942926Y-45333952D01*
X-29568948Y-45381197D01*
X-29193979Y-45420608D01*
X-28818314Y-45452154D01*
X-28442077Y-45475824D01*
X-28065428Y-45491610D01*
X-27688509Y-45499506D01*
X-27499838Y-45500000D01*
X-27374000Y-45500000D01*
X-27306961Y-45519685D01*
X-27261206Y-45572489D01*
X-27250000Y-45624000D01*
X-27250000Y-47376000D01*
X-27269685Y-47443039D01*
X-27322489Y-47488794D01*
X-27374000Y-47500000D01*
X-27499677Y-47500000D01*
X-27500363Y-47499998D01*
X-27946380Y-47497532D01*
X-27951257Y-47497409D01*
X-28842764Y-47457371D01*
X-28848316Y-47456997D01*
X-29736802Y-47377032D01*
X-29742332Y-47376409D01*
X-30626342Y-47256662D01*
X-30631838Y-47255791D01*
X-31509556Y-47096509D01*
X-31515008Y-47095393D01*
X-32384725Y-46896885D01*
X-32390121Y-46895525D01*
X-33250033Y-46658204D01*
X-33255362Y-46656604D01*
X-34103783Y-46380936D01*
X-34109036Y-46379098D01*
X-34944222Y-46065647D01*
X-34949386Y-46063575D01*
X-35769657Y-45712975D01*
X-35774724Y-45710674D01*
X-36578458Y-45323616D01*
X-36583416Y-45321090D01*
X-37368968Y-44898366D01*
X-37373808Y-44895620D01*
X-38139626Y-44438065D01*
X-38144337Y-44435104D01*
X-38888824Y-43943673D01*
X-38893398Y-43940504D01*
X-39615090Y-43416165D01*
X-39619518Y-43412794D01*
X-40316978Y-42856587D01*
X-40321249Y-42853021D01*
X-40993040Y-42266096D01*
X-40997148Y-42262341D01*
X-41641930Y-41645864D01*
X-41645864Y-41641930D01*
X-42262341Y-40997148D01*
X-42266096Y-40993040D01*
X-42853021Y-40321249D01*
X-42856587Y-40316978D01*
X-43412794Y-39619518D01*
X-43416165Y-39615090D01*
X-43940504Y-38893398D01*
X-43943673Y-38888824D01*
X-44435104Y-38144337D01*
X-44438065Y-38139626D01*
X-44895620Y-37373808D01*
X-44898366Y-37368968D01*
X-45321090Y-36583416D01*
X-45323616Y-36578458D01*
X-45710674Y-35774724D01*
X-45712975Y-35769657D01*
X-46063575Y-34949386D01*
X-46065647Y-34944222D01*
X-46379098Y-34109036D01*
X-46380936Y-34103783D01*
X-46656604Y-33255362D01*
X-46658204Y-33250033D01*
X-46895525Y-32390121D01*
X-46896885Y-32384725D01*
X-47095393Y-31515008D01*
X-47096509Y-31509556D01*
X-47255791Y-30631838D01*
X-47256662Y-30626342D01*
X-47376409Y-29742332D01*
X-47377032Y-29736802D01*
X-47456997Y-28848316D01*
X-47457371Y-28842764D01*
X-47497409Y-27951257D01*
X-47497532Y-27946380D01*
X-47499998Y-27500362D01*
X-47500000Y-27499676D01*
X-47500000Y27499676D01*
X-47499998Y27500362D01*
X-47497532Y27946380D01*
X-47497409Y27951257D01*
X-47457371Y28842764D01*
X-47456997Y28848316D01*
X-47377032Y29736802D01*
X-47376409Y29742332D01*
X-47256662Y30626342D01*
X-47255791Y30631838D01*
X-47096509Y31509556D01*
X-47095393Y31515008D01*
X-46896885Y32384725D01*
X-46895525Y32390121D01*
X-46658204Y33250033D01*
X-46656604Y33255362D01*
X-46380936Y34103783D01*
X-46379098Y34109036D01*
X-46065647Y34944222D01*
X-46063575Y34949386D01*
X-45712975Y35769657D01*
X-45710674Y35774724D01*
X-45323616Y36578458D01*
X-45321090Y36583416D01*
X-44898366Y37368968D01*
X-44895620Y37373808D01*
X-44438065Y38139626D01*
X-44435104Y38144337D01*
X-43943673Y38888824D01*
X-43940504Y38893398D01*
X-43416165Y39615090D01*
X-43412794Y39619518D01*
X-42856587Y40316978D01*
X-42853021Y40321249D01*
X-42266096Y40993040D01*
X-42262341Y40997148D01*
X-41645864Y41641930D01*
X-41641930Y41645864D01*
X-40997148Y42262341D01*
X-40993040Y42266096D01*
X-40321249Y42853021D01*
X-40316978Y42856587D01*
X-39619518Y43412794D01*
X-39615090Y43416165D01*
X-38893398Y43940504D01*
X-38888824Y43943673D01*
X-38144337Y44435104D01*
X-38139626Y44438065D01*
X-37373808Y44895620D01*
X-37368968Y44898366D01*
X-36583416Y45321090D01*
X-36578458Y45323616D01*
X-35774724Y45710674D01*
X-35769657Y45712975D01*
X-34949386Y46063575D01*
X-34944222Y46065647D01*
X-34109036Y46379098D01*
X-34103783Y46380936D01*
X-33255362Y46656604D01*
X-33250033Y46658204D01*
X-32390121Y46895525D01*
X-32384725Y46896885D01*
X-31515008Y47095393D01*
X-31509556Y47096509D01*
X-30631838Y47255791D01*
X-30626342Y47256662D01*
X-29742332Y47376409D01*
X-29736802Y47377032D01*
X-28848316Y47456997D01*
X-28842764Y47457371D01*
X-27951257Y47497409D01*
X-27946380Y47497532D01*
X-27500363Y47499998D01*
X-27499677Y47500000D01*
X27499660Y47500000D01*
X27500357Y47499998D01*
G37*
M02*
