M48
; DRILL file {KiCad 9.0.3} date 2025-09-01T11:10:02+0200
; FORMAT={-:-/ absolute / inch / decimal}
; #@! TF.CreationDate,2025-09-01T11:10:02+02:00
; #@! TF.GenerationSoftware,Kicad,Pcbnew,9.0.3
; #@! TF.FileFunction,Plated,1,4,PTH
FMAT,2
INCH
; #@! TA.AperFunction,Plated,PTH,ViaDrill
T1C0.0157
; #@! TA.AperFunction,Plated,PTH,ComponentDrill
T2C0.0394
; #@! TA.AperFunction,Plated,PTH,ComponentDrill
T3C0.1693
%
G90
G05
T1
X-1.9291Y0.0148
X-1.9286Y-0.0443
X-1.9277Y0.0739
X-1.9264Y-0.1034
X-1.9245Y0.1329
X-1.9223Y-0.1624
X-1.9196Y0.1918
X-1.9164Y-0.2212
X-1.9128Y0.2506
X-1.9087Y-0.2799
X-1.9042Y0.3091
X-1.8993Y-0.3382
X-1.8938Y0.3673
X-1.888Y-0.3963
X-1.8817Y0.4252
X-1.875Y-0.4539
X-1.8678Y0.4826
X-1.8602Y-0.5112
X-1.8521Y0.5396
X-1.8436Y-0.5679
X-1.8347Y0.5961
X-1.8254Y-0.6242
X-1.8156Y0.6521
X-1.8054Y-0.6798
X-1.7948Y0.7074
X-1.7837Y-0.7348
X-1.7722Y0.7621
X-1.7603Y-0.7891
X-1.748Y0.816
X-1.7353Y-0.8427
X-1.7222Y0.8692
X-1.7087Y-0.8955
X-1.6948Y0.9216
X-1.6804Y-0.9474
X-1.6657Y0.9731
X-1.6506Y-0.9985
X-1.6351Y1.0237
X-1.6192Y-1.0486
X-1.603Y1.0733
X-1.5864Y-1.0977
X-1.5693Y1.1219
X-1.552Y-1.1458
X-1.5342Y1.1695
X-1.5161Y-1.1929
X-1.4977Y1.216
X-1.4789Y-1.2388
X-1.4597Y1.2613
X-1.4402Y-1.2835
X-1.4204Y1.3054
X-1.4002Y-1.327
X-1.3797Y1.3483
X-1.3589Y-1.3693
X-1.3377Y1.39
X-1.3163Y-1.4103
X-1.2992Y-1.1821
X-1.2945Y1.4303
X-1.2724Y-1.45
X-1.2501Y1.4693
X-1.2274Y-1.4883
X-1.2044Y1.5069
X-1.1812Y-1.5252
X-1.1614Y-0.8858
X-1.1577Y1.5431
X-1.1339Y-1.5607
X-1.1099Y1.5779
X-1.0999Y0.4819
X-1.063Y-1.5748
X-1.061Y1.6112
X-1.0408Y-0.2743
X-1.0212Y0.4819
X-1.0111Y1.6429
X-1.0039Y-1.5748
X-1.0015Y0.2654
X-0.9621Y0.5409
X-0.9621Y0.2654
X-0.9603Y1.6731
X-0.9449Y-1.5748
X-0.9262Y1.1477
X-0.9086Y1.7018
X-0.9055Y0.0
X-0.8858Y-1.5748
X-0.8671Y0.9312
X-0.856Y1.7288
X-0.849Y-0.2409
X-0.8465Y0.0
X-0.8268Y-1.5748
X-0.8026Y1.7542
X-0.7884Y1.3052
X-0.7677Y-1.5748
X-0.7485Y1.778
X-0.7096Y1.1477
X-0.7096Y0.9115
X-0.7096Y0.8328
X-0.7096Y0.0
X-0.7087Y-1.5748
X-0.6936Y1.8001
X-0.6703Y0.0
X-0.6496Y-1.5748
X-0.6381Y1.8205
X-0.6309Y1.5906
X-0.6309Y0.9903
X-0.6309Y0.0
X-0.6006Y-0.2409
X-0.5906Y-1.5748
X-0.5821Y1.8392
X-0.5719Y0.0
X-0.5325Y0.0
X-0.5315Y-1.5748
X-0.5254Y1.8562
X-0.4724Y-1.5748
X-0.4683Y1.8714
X-0.4144Y1.3835
X-0.4144Y0.9888
X-0.4134Y-1.5748
X-0.4107Y1.8849
X-0.3543Y-1.5748
X-0.3528Y1.8966
X-0.3346Y0.5409
X-0.2953Y-0.4134
X-0.2953Y-1.5748
X-0.2953Y0.2953
X-0.2953Y0.1772
X-0.2953Y0.0591
X-0.2953Y-0.0591
X-0.2953Y-0.1772
X-0.2953Y-0.2953
X-0.2945Y1.9065
X-0.2815Y0.5409
X-0.2362Y-1.5748
X-0.2359Y1.9147
X-0.1998Y0.5409
X-0.1772Y-0.4134
X-0.1772Y0.1772
X-0.1772Y0.1181
X-0.1772Y0.0591
X-0.1772Y0.0
X-0.1772Y-0.0591
X-0.1772Y-0.1181
X-0.1772Y-0.1772
X-0.1772Y-1.5748
X-0.1772Y0.2953
X-0.1772Y-0.2953
X-0.1771Y1.921
X-0.1182Y1.9255
X-0.1181Y0.1772
X-0.1181Y-0.1772
X-0.1181Y-1.5748
X-0.0787Y-1.4961
X-0.0591Y1.9282
X-0.0591Y-0.4134
X-0.0591Y0.5709
X-0.0591Y0.4134
X-0.0591Y0.3543
X-0.0591Y0.2953
X-0.0591Y0.2362
X-0.0591Y0.1772
X-0.0591Y-0.1772
X-0.0591Y-1.5748
X-0.0591Y-0.2953
X-0.05Y1.5906
X-0.0Y0.5709
X-0.0Y1.9291
X-0.0Y-0.1772
X-0.0Y-1.5748
X0.0591Y-0.4134
X0.0591Y0.5709
X0.0591Y0.4134
X0.0591Y0.3543
X0.0591Y0.2953
X0.0591Y0.1772
X0.0591Y-0.1772
X0.0591Y-1.5748
X0.0591Y-0.2953
X0.0591Y1.9282
X0.1Y1.6595
X0.1181Y0.1772
X0.1181Y-0.1772
X0.1181Y-1.5748
X0.1182Y1.9255
X0.15Y1.6595
X0.1771Y1.921
X0.1772Y-0.4134
X0.1772Y0.1772
X0.1772Y0.1181
X0.1772Y0.0591
X0.1772Y0.0
X0.1772Y-0.0591
X0.1772Y-0.1181
X0.1772Y-0.1772
X0.1772Y-1.5748
X0.1772Y0.2953
X0.1772Y-0.2953
X0.2Y1.6595
X0.2359Y1.9147
X0.2362Y-1.5748
X0.25Y1.5906
X0.2697Y0.3937
X0.2945Y1.9065
X0.2953Y-0.4134
X0.2953Y-1.5748
X0.2953Y0.2953
X0.2953Y0.1772
X0.2953Y0.0591
X0.2953Y-0.0591
X0.2953Y-0.1772
X0.2953Y-0.2953
X0.3091Y0.4331
X0.3484Y0.3937
X0.3528Y1.8966
X0.3543Y-1.5748
X0.3878Y0.4331
X0.4107Y1.8849
X0.4134Y0.2953
X0.4134Y0.1772
X0.4134Y0.0591
X0.4134Y-0.0591
X0.4134Y-0.1772
X0.4134Y-0.2953
X0.4134Y-0.4134
X0.4134Y-1.5748
X0.4272Y0.3937
X0.4665Y0.4331
X0.4683Y1.8714
X0.4724Y-1.5748
X0.5254Y1.8562
X0.5315Y0.1772
X0.5315Y0.0591
X0.5315Y-0.0591
X0.5315Y-0.1772
X0.5315Y-0.2953
X0.5315Y-0.4134
X0.5315Y-1.5748
X0.5821Y1.8392
X0.5906Y-1.5748
X0.6256Y0.6421
X0.6381Y1.8205
X0.6496Y-1.5748
X0.6528Y-0.3047
X0.665Y0.6421
X0.6936Y1.8001
X0.7043Y0.6421
X0.7087Y-1.5748
X0.7485Y1.778
X0.7677Y-1.5748
X0.8026Y1.7542
X0.8102Y0.1378
X0.8102Y-0.1378
X0.8268Y-1.5748
X0.8287Y1.4976
X0.8287Y1.3421
X0.856Y1.7288
X0.8858Y-1.5748
X0.9055Y0.6421
X0.9086Y1.7018
X0.9449Y-1.5748
X0.9603Y1.6731
X0.9646Y0.6421
X1.0039Y-1.5748
X1.0111Y1.6429
X1.0236Y0.6421
X1.061Y1.6112
X1.063Y-1.5748
X1.0827Y0.6421
X1.1099Y1.5779
X1.1339Y-1.5607
X1.1577Y1.5431
X1.1801Y0.6016
X1.1812Y-1.5252
X1.2044Y1.5069
X1.2274Y-1.4883
X1.2501Y1.4693
X1.2589Y0.8181
X1.2724Y-1.45
X1.2945Y1.4303
X1.2992Y-1.1821
X1.3163Y-1.4103
X1.3377Y1.39
X1.3589Y-1.3693
X1.3797Y1.3483
X1.4002Y-1.327
X1.4193Y1.2008
X1.4204Y1.3054
X1.4402Y-1.2835
X1.4597Y1.2613
X1.4783Y1.1024
X1.4789Y-1.2388
X1.4977Y1.216
X1.5161Y-1.1929
X1.5342Y1.1695
X1.5374Y1.0039
X1.552Y-1.1458
X1.5693Y1.1219
X1.5864Y-1.0977
X1.5965Y0.9055
X1.603Y1.0733
X1.6192Y-1.0486
X1.6351Y1.0237
X1.6506Y-0.9985
X1.6657Y0.9731
X1.6804Y-0.9474
X1.6948Y0.9216
X1.7087Y-0.8955
X1.7222Y0.8692
X1.7353Y-0.8427
X1.748Y0.816
X1.7603Y-0.7891
X1.7722Y0.7621
X1.7837Y-0.7348
X1.7947Y0.7074
X1.8054Y-0.6798
X1.8156Y0.6521
X1.8254Y-0.6242
X1.8347Y0.5961
X1.8436Y-0.5679
X1.8521Y0.5396
X1.8602Y-0.5112
X1.8678Y0.4826
X1.875Y-0.4539
X1.8817Y0.4252
X1.888Y-0.3963
X1.8938Y0.3673
X1.8993Y-0.3382
X1.9042Y0.3091
X1.9087Y-0.2799
X1.9128Y0.2506
X1.9164Y-0.2212
X1.9196Y0.1918
X1.9223Y-0.1624
X1.9245Y0.1329
X1.9264Y-0.1034
X1.9277Y0.0739
X1.9286Y-0.0443
X1.9291Y0.0148
T2
X-1.6132Y0.7
X-1.6132Y0.6
X-1.6132Y0.5
X-1.6132Y0.4
X-1.6132Y0.3
X-1.6132Y0.2
X-1.6132Y0.1
X-1.6132Y0.0
X-1.6132Y-0.2
X-1.6132Y-0.3
X-1.6132Y-0.4
X-1.6132Y-0.5
X-1.6132Y-0.6
X-1.6132Y-0.7
X-1.378Y1.1
X-1.378Y1.0
X-1.378Y0.7
X-1.378Y0.6
X-1.378Y0.5
X-1.378Y0.4
X-1.378Y0.3
X-1.378Y0.2
X-1.378Y0.1
X-1.378Y0.0
X-1.378Y-0.2
X-1.378Y-0.3
X-1.378Y-0.4
X-1.378Y-0.5
X-1.378Y-0.6
X-1.378Y-0.7
X-0.7687Y-1.0384
X-0.7687Y-1.1384
X-0.6687Y-1.0384
X-0.6687Y-1.1384
X-0.5687Y-1.0384
X-0.5687Y-1.1384
X-0.2752Y1.2163
X-0.2752Y1.1163
X-0.2752Y0.9663
X-0.2752Y0.8663
X-0.2752Y0.7663
X-0.2752Y0.6663
X1.377Y0.7
X1.377Y0.6
X1.377Y0.5
X1.377Y0.4
X1.377Y0.3
X1.377Y0.2
X1.377Y0.1
X1.377Y0.0
X1.378Y-0.201
X1.378Y-0.301
X1.378Y-0.401
X1.378Y-0.501
X1.378Y-0.601
X1.378Y-0.701
X1.6132Y0.7
X1.6132Y0.6
X1.6132Y0.5
X1.6132Y0.4
X1.6132Y0.3
X1.6132Y0.2
X1.6132Y0.1
X1.6132Y0.0
X1.6132Y-0.201
X1.6132Y-0.301
X1.6132Y-0.401
X1.6132Y-0.501
X1.6132Y-0.601
X1.6132Y-0.701
T3
X-1.063Y1.4173
X-1.063Y-1.4173
X1.063Y1.4173
X1.063Y-1.0236
M30
