%TF.GenerationSoftware,KiCad,Pcbnew,9.0.3*%
%TF.CreationDate,2025-09-01T11:10:08+02:00*%
%TF.ProjectId,TelemetryOnboard,54656c65-6d65-4747-9279-4f6e626f6172,v0.0.1*%
%TF.SameCoordinates,Original*%
%TF.FileFunction,Paste,Top*%
%TF.FilePolarity,Positive*%
%FSLAX46Y46*%
G04 Gerber Fmt 4.6, Leading zero omitted, Abs format (unit mm)*
G04 Created by KiCad (PCBNEW 9.0.3) date 2025-09-01 11:10:08*
%MOMM*%
%LPD*%
G01*
G04 APERTURE LIST*
G04 Aperture macros list*
%AMRoundRect*
0 Rectangle with rounded corners*
0 $1 Rounding radius*
0 $2 $3 $4 $5 $6 $7 $8 $9 X,Y pos of 4 corners*
0 Add a 4 corners polygon primitive as box body*
4,1,4,$2,$3,$4,$5,$6,$7,$8,$9,$2,$3,0*
0 Add four circle primitives for the rounded corners*
1,1,$1+$1,$2,$3*
1,1,$1+$1,$4,$5*
1,1,$1+$1,$6,$7*
1,1,$1+$1,$8,$9*
0 Add four rect primitives between the rounded corners*
20,1,$1+$1,$2,$3,$4,$5,0*
20,1,$1+$1,$4,$5,$6,$7,0*
20,1,$1+$1,$6,$7,$8,$9,0*
20,1,$1+$1,$8,$9,$2,$3,0*%
G04 Aperture macros list end*
%ADD10C,0.010000*%
%ADD11RoundRect,0.250000X-0.337500X-0.475000X0.337500X-0.475000X0.337500X0.475000X-0.337500X0.475000X0*%
%ADD12RoundRect,0.250000X0.337500X0.475000X-0.337500X0.475000X-0.337500X-0.475000X0.337500X-0.475000X0*%
%ADD13RoundRect,0.250000X-0.450000X0.350000X-0.450000X-0.350000X0.450000X-0.350000X0.450000X0.350000X0*%
%ADD14RoundRect,0.250000X0.450000X-0.325000X0.450000X0.325000X-0.450000X0.325000X-0.450000X-0.325000X0*%
%ADD15R,1.600000X2.600000*%
%ADD16RoundRect,0.250000X0.350000X0.450000X-0.350000X0.450000X-0.350000X-0.450000X0.350000X-0.450000X0*%
%ADD17RoundRect,0.250000X0.325000X0.450000X-0.325000X0.450000X-0.325000X-0.450000X0.325000X-0.450000X0*%
%ADD18RoundRect,0.250000X-0.475000X0.337500X-0.475000X-0.337500X0.475000X-0.337500X0.475000X0.337500X0*%
%ADD19RoundRect,0.075000X-0.075000X0.662500X-0.075000X-0.662500X0.075000X-0.662500X0.075000X0.662500X0*%
%ADD20RoundRect,0.075000X-0.662500X0.075000X-0.662500X-0.075000X0.662500X-0.075000X0.662500X0.075000X0*%
%ADD21RoundRect,0.250000X0.450000X-0.350000X0.450000X0.350000X-0.450000X0.350000X-0.450000X-0.350000X0*%
%ADD22R,1.300000X1.500000*%
%ADD23C,2.050000*%
%ADD24RoundRect,0.250000X-0.350000X-0.450000X0.350000X-0.450000X0.350000X0.450000X-0.350000X0.450000X0*%
%ADD25RoundRect,0.508000X-0.000010X0.508000X-0.000010X-0.508000X0.000010X-0.508000X0.000010X0.508000X0*%
%ADD26RoundRect,0.508000X0.000010X-0.508000X0.000010X0.508000X-0.000010X0.508000X-0.000010X-0.508000X0*%
%ADD27RoundRect,0.508000X-0.508000X-0.000010X0.508000X-0.000010X0.508000X0.000010X-0.508000X0.000010X0*%
%ADD28RoundRect,0.250000X0.475000X-0.337500X0.475000X0.337500X-0.475000X0.337500X-0.475000X-0.337500X0*%
G04 APERTURE END LIST*
D10*
%TO.C,J3*%
X-1440016Y1770060D02*
X-1503016Y1716060D01*
X-1553016Y1670060D01*
X-1601016Y1623060D01*
X-1648016Y1575060D01*
X-1694016Y1525060D01*
X-1738016Y1474060D01*
X-1780016Y1422060D01*
X-1821016Y1368060D01*
X-1861016Y1314060D01*
X-1899016Y1258060D01*
X-1935016Y1201060D01*
X-1970016Y1143060D01*
X-2002016Y1084060D01*
X-2033016Y1025060D01*
X-2063016Y964060D01*
X-2090016Y902060D01*
X-2116016Y840060D01*
X-2140016Y777060D01*
X-2162016Y713060D01*
X-2183016Y649060D01*
X-2201016Y584060D01*
X-2218016Y519060D01*
X-2232016Y453060D01*
X-2245016Y387060D01*
X-2256016Y320060D01*
X-2264016Y253060D01*
X-2271016Y186060D01*
X-2276016Y119060D01*
X-2279016Y52060D01*
X-2280016Y60D01*
X-2279016Y-51940D01*
X-2276016Y-118940D01*
X-2271016Y-185940D01*
X-2264016Y-252940D01*
X-2256016Y-319940D01*
X-2245016Y-386940D01*
X-2232016Y-452940D01*
X-2218016Y-518940D01*
X-2201016Y-583940D01*
X-2183016Y-648940D01*
X-2162016Y-712940D01*
X-2140016Y-776940D01*
X-2116016Y-839940D01*
X-2090016Y-901940D01*
X-2063016Y-963940D01*
X-2033016Y-1024940D01*
X-2002016Y-1083940D01*
X-1970016Y-1142940D01*
X-1935016Y-1200940D01*
X-1899016Y-1257940D01*
X-1861016Y-1313940D01*
X-1821016Y-1367940D01*
X-1780016Y-1421940D01*
X-1738016Y-1473940D01*
X-1694016Y-1524940D01*
X-1648016Y-1574940D01*
X-1601016Y-1622940D01*
X-1553016Y-1669940D01*
X-1503016Y-1715940D01*
X-1440016Y-1769940D01*
X-1440016Y-3879940D01*
X-3880016Y-3879940D01*
X-3880016Y3880060D01*
X-1440016Y3880060D01*
X-1440016Y1770060D01*
G36*
X-1440016Y1770060D02*
G01*
X-1503016Y1716060D01*
X-1553016Y1670060D01*
X-1601016Y1623060D01*
X-1648016Y1575060D01*
X-1694016Y1525060D01*
X-1738016Y1474060D01*
X-1780016Y1422060D01*
X-1821016Y1368060D01*
X-1861016Y1314060D01*
X-1899016Y1258060D01*
X-1935016Y1201060D01*
X-1970016Y1143060D01*
X-2002016Y1084060D01*
X-2033016Y1025060D01*
X-2063016Y964060D01*
X-2090016Y902060D01*
X-2116016Y840060D01*
X-2140016Y777060D01*
X-2162016Y713060D01*
X-2183016Y649060D01*
X-2201016Y584060D01*
X-2218016Y519060D01*
X-2232016Y453060D01*
X-2245016Y387060D01*
X-2256016Y320060D01*
X-2264016Y253060D01*
X-2271016Y186060D01*
X-2276016Y119060D01*
X-2279016Y52060D01*
X-2280016Y60D01*
X-2279016Y-51940D01*
X-2276016Y-118940D01*
X-2271016Y-185940D01*
X-2264016Y-252940D01*
X-2256016Y-319940D01*
X-2245016Y-386940D01*
X-2232016Y-452940D01*
X-2218016Y-518940D01*
X-2201016Y-583940D01*
X-2183016Y-648940D01*
X-2162016Y-712940D01*
X-2140016Y-776940D01*
X-2116016Y-839940D01*
X-2090016Y-901940D01*
X-2063016Y-963940D01*
X-2033016Y-1024940D01*
X-2002016Y-1083940D01*
X-1970016Y-1142940D01*
X-1935016Y-1200940D01*
X-1899016Y-1257940D01*
X-1861016Y-1313940D01*
X-1821016Y-1367940D01*
X-1780016Y-1421940D01*
X-1738016Y-1473940D01*
X-1694016Y-1524940D01*
X-1648016Y-1574940D01*
X-1601016Y-1622940D01*
X-1553016Y-1669940D01*
X-1503016Y-1715940D01*
X-1440016Y-1769940D01*
X-1440016Y-3879940D01*
X-3880016Y-3879940D01*
X-3880016Y3880060D01*
X-1440016Y3880060D01*
X-1440016Y1770060D01*
G37*
X3879984Y-3879940D02*
X1439984Y-3879940D01*
X1439984Y-1769940D01*
X1502984Y-1715940D01*
X1552984Y-1669940D01*
X1600984Y-1622940D01*
X1647984Y-1574940D01*
X1693984Y-1524940D01*
X1737984Y-1473940D01*
X1779984Y-1421940D01*
X1820984Y-1367940D01*
X1860984Y-1313940D01*
X1898984Y-1257940D01*
X1934984Y-1200940D01*
X1969984Y-1142940D01*
X2001984Y-1083940D01*
X2032984Y-1024940D01*
X2062984Y-963940D01*
X2089984Y-901940D01*
X2115984Y-839940D01*
X2139984Y-776940D01*
X2161984Y-712940D01*
X2182984Y-648940D01*
X2200984Y-583940D01*
X2217984Y-518940D01*
X2231984Y-452940D01*
X2244984Y-386940D01*
X2255984Y-319940D01*
X2263984Y-252940D01*
X2270984Y-185940D01*
X2275984Y-118940D01*
X2278984Y-51940D01*
X2279984Y60D01*
X2278984Y52060D01*
X2275984Y119060D01*
X2270984Y186060D01*
X2263984Y253060D01*
X2255984Y320060D01*
X2244984Y387060D01*
X2231984Y453060D01*
X2217984Y519060D01*
X2200984Y584060D01*
X2182984Y649060D01*
X2161984Y713060D01*
X2139984Y777060D01*
X2115984Y840060D01*
X2089984Y902060D01*
X2062984Y964060D01*
X2032984Y1025060D01*
X2001984Y1084060D01*
X1969984Y1143060D01*
X1934984Y1201060D01*
X1898984Y1258060D01*
X1860984Y1314060D01*
X1820984Y1368060D01*
X1779984Y1422060D01*
X1737984Y1474060D01*
X1693984Y1525060D01*
X1647984Y1575060D01*
X1600984Y1623060D01*
X1552984Y1670060D01*
X1502984Y1716060D01*
X1439984Y1770060D01*
X1439984Y3880060D01*
X3879984Y3880060D01*
X3879984Y-3879940D01*
G36*
X3879984Y-3879940D02*
G01*
X1439984Y-3879940D01*
X1439984Y-1769940D01*
X1502984Y-1715940D01*
X1552984Y-1669940D01*
X1600984Y-1622940D01*
X1647984Y-1574940D01*
X1693984Y-1524940D01*
X1737984Y-1473940D01*
X1779984Y-1421940D01*
X1820984Y-1367940D01*
X1860984Y-1313940D01*
X1898984Y-1257940D01*
X1934984Y-1200940D01*
X1969984Y-1142940D01*
X2001984Y-1083940D01*
X2032984Y-1024940D01*
X2062984Y-963940D01*
X2089984Y-901940D01*
X2115984Y-839940D01*
X2139984Y-776940D01*
X2161984Y-712940D01*
X2182984Y-648940D01*
X2200984Y-583940D01*
X2217984Y-518940D01*
X2231984Y-452940D01*
X2244984Y-386940D01*
X2255984Y-319940D01*
X2263984Y-252940D01*
X2270984Y-185940D01*
X2275984Y-118940D01*
X2278984Y-51940D01*
X2279984Y60D01*
X2278984Y52060D01*
X2275984Y119060D01*
X2270984Y186060D01*
X2263984Y253060D01*
X2255984Y320060D01*
X2244984Y387060D01*
X2231984Y453060D01*
X2217984Y519060D01*
X2200984Y584060D01*
X2182984Y649060D01*
X2161984Y713060D01*
X2139984Y777060D01*
X2115984Y840060D01*
X2089984Y902060D01*
X2062984Y964060D01*
X2032984Y1025060D01*
X2001984Y1084060D01*
X1969984Y1143060D01*
X1934984Y1201060D01*
X1898984Y1258060D01*
X1860984Y1314060D01*
X1820984Y1368060D01*
X1779984Y1422060D01*
X1737984Y1474060D01*
X1693984Y1525060D01*
X1647984Y1575060D01*
X1600984Y1623060D01*
X1552984Y1670060D01*
X1502984Y1716060D01*
X1439984Y1770060D01*
X1439984Y3880060D01*
X3879984Y3880060D01*
X3879984Y-3879940D01*
G37*
%TD*%
D11*
%TO.C,C5*%
X16579984Y3500060D03*
X18654984Y3500060D03*
%TD*%
D12*
%TO.C,C2*%
X-6575016Y12240060D03*
X-8650016Y12240060D03*
%TD*%
D13*
%TO.C,R15*%
X-21565016Y-11874940D03*
X-21565016Y-13874940D03*
%TD*%
D14*
%TO.C,D12*%
X-35000016Y-28024940D03*
X-35000016Y-25974940D03*
%TD*%
D13*
%TO.C,R1*%
X-2000016Y-24499940D03*
X-2000016Y-26499940D03*
%TD*%
D14*
%TO.C,D16*%
X-16985016Y-9899940D03*
X-16985016Y-7849940D03*
%TD*%
D15*
%TO.C,D2*%
X-4900016Y-31549940D03*
X-7000016Y-31549940D03*
X-9100016Y-31549940D03*
X-9100016Y-36449940D03*
X-7000016Y-36449940D03*
X-4900016Y-36449940D03*
%TD*%
D16*
%TO.C,R6*%
X28999984Y28000060D03*
X26999984Y28000060D03*
%TD*%
D13*
%TO.C,R20*%
X-22025016Y27652560D03*
X-22025016Y25652560D03*
%TD*%
%TO.C,R12*%
X-35000016Y-21499940D03*
X-35000016Y-23499940D03*
%TD*%
%TO.C,R2*%
X-4900016Y-24499940D03*
X-4900016Y-26499940D03*
%TD*%
D16*
%TO.C,R5*%
X27499984Y30500060D03*
X25499984Y30500060D03*
%TD*%
D17*
%TO.C,D6*%
X36049984Y28000060D03*
X33999984Y28000060D03*
%TD*%
D18*
%TO.C,C3*%
X-21500016Y4037560D03*
X-21500016Y1962560D03*
%TD*%
D13*
%TO.C,R11*%
X34999984Y-21499940D03*
X34999984Y-23499940D03*
%TD*%
D14*
%TO.C,D13*%
X-12525016Y31090060D03*
X-12525016Y33140060D03*
%TD*%
D17*
%TO.C,D10*%
X19049984Y34090060D03*
X16999984Y34090060D03*
%TD*%
D11*
%TO.C,C4*%
X-27975016Y13740060D03*
X-25900016Y13740060D03*
%TD*%
D19*
%TO.C,U1*%
X-13525016Y18152560D03*
X-14025016Y18152560D03*
X-14525016Y18152560D03*
X-15025016Y18152560D03*
X-15525016Y18152560D03*
X-16025016Y18152560D03*
X-16525016Y18152560D03*
X-17025016Y18152560D03*
X-17525016Y18152560D03*
X-18025016Y18152560D03*
X-18525016Y18152560D03*
X-19025016Y18152560D03*
X-19525016Y18152560D03*
X-20025016Y18152560D03*
X-20525016Y18152560D03*
X-21025016Y18152560D03*
D20*
X-22937516Y16240060D03*
X-22937516Y15740060D03*
X-22937516Y15240060D03*
X-22937516Y14740060D03*
X-22937516Y14240060D03*
X-22937516Y13740060D03*
X-22937516Y13240060D03*
X-22937516Y12740060D03*
X-22937516Y12240060D03*
X-22937516Y11740060D03*
X-22937516Y11240060D03*
X-22937516Y10740060D03*
X-22937516Y10240060D03*
X-22937516Y9740060D03*
X-22937516Y9240060D03*
X-22937516Y8740060D03*
D19*
X-21025016Y6827560D03*
X-20525016Y6827560D03*
X-20025016Y6827560D03*
X-19525016Y6827560D03*
X-19025016Y6827560D03*
X-18525016Y6827560D03*
X-18025016Y6827560D03*
X-17525016Y6827560D03*
X-17025016Y6827560D03*
X-16525016Y6827560D03*
X-16025016Y6827560D03*
X-15525016Y6827560D03*
X-15025016Y6827560D03*
X-14525016Y6827560D03*
X-14025016Y6827560D03*
X-13525016Y6827560D03*
D20*
X-11612516Y8740060D03*
X-11612516Y9240060D03*
X-11612516Y9740060D03*
X-11612516Y10240060D03*
X-11612516Y10740060D03*
X-11612516Y11240060D03*
X-11612516Y11740060D03*
X-11612516Y12240060D03*
X-11612516Y12740060D03*
X-11612516Y13240060D03*
X-11612516Y13740060D03*
X-11612516Y14240060D03*
X-11612516Y14740060D03*
X-11612516Y15240060D03*
X-11612516Y15740060D03*
X-11612516Y16240060D03*
%TD*%
D17*
%TO.C,D7*%
X37549984Y25500060D03*
X35499984Y25500060D03*
%TD*%
D16*
%TO.C,R18*%
X18579984Y-3499940D03*
X16579984Y-3499940D03*
%TD*%
%TO.C,R9*%
X14499984Y38040060D03*
X12499984Y38040060D03*
%TD*%
D14*
%TO.C,D15*%
X-21565016Y-9899940D03*
X-21565016Y-7849940D03*
%TD*%
D17*
%TO.C,D9*%
X19049984Y38040060D03*
X16999984Y38040060D03*
%TD*%
D13*
%TO.C,R3*%
X-7000016Y-24499940D03*
X-7000016Y-26499940D03*
%TD*%
D14*
%TO.C,D14*%
X-16025016Y36090060D03*
X-16025016Y38140060D03*
%TD*%
%TO.C,D11*%
X34999984Y-28024940D03*
X34999984Y-25974940D03*
%TD*%
D17*
%TO.C,D8*%
X39049984Y23000060D03*
X36999984Y23000060D03*
%TD*%
D21*
%TO.C,R21*%
X29974984Y17780060D03*
X29974984Y19780060D03*
%TD*%
%TO.C,R14*%
X-16025016Y31115060D03*
X-16025016Y33115060D03*
%TD*%
D13*
%TO.C,ZS1*%
X-16Y10000060D03*
X-16Y8000060D03*
%TD*%
D22*
%TO.C,LS1*%
X-26000000Y-16000000D03*
X-29500000Y-20500000D03*
X-29500000Y-16000000D03*
%TD*%
D16*
%TO.C,R7*%
X30499984Y25500060D03*
X28499984Y25500060D03*
%TD*%
%TO.C,R8*%
X31999984Y23000060D03*
X29999984Y23000060D03*
%TD*%
D21*
%TO.C,R16*%
X-16985016Y-13874940D03*
X-16985016Y-11874940D03*
%TD*%
D23*
%TO.C,J3*%
X-16Y60D03*
%TD*%
D13*
%TO.C,R4*%
X-9100016Y-24499940D03*
X-9100016Y-26499940D03*
%TD*%
D17*
%TO.C,D5*%
X34549984Y30500060D03*
X32499984Y30500060D03*
%TD*%
D16*
%TO.C,R10*%
X14499984Y34090060D03*
X12499984Y34090060D03*
%TD*%
D24*
%TO.C,ZP1*%
X-16Y6000060D03*
X1999984Y6000060D03*
%TD*%
D13*
%TO.C,R19*%
X-12525016Y23115060D03*
X-12525016Y21115060D03*
%TD*%
%TO.C,R13*%
X-12525016Y28115060D03*
X-12525016Y26115060D03*
%TD*%
D25*
%TO.C,U2*%
X6349984Y37900062D03*
X5079984Y37900062D03*
X3809984Y37900062D03*
X2539984Y37900062D03*
X1269984Y37900062D03*
X-16Y37900062D03*
X-1270016Y37900062D03*
D26*
X-1270016Y12500062D03*
X-16Y12500062D03*
X1269984Y12500062D03*
X2539984Y12500062D03*
X3809984Y12500062D03*
X5079984Y12500062D03*
X6349984Y12500062D03*
D27*
X-3810016Y35360062D03*
X-3810016Y34090062D03*
X-3810016Y32820062D03*
X-3800993Y31548107D03*
X-3810016Y30280062D03*
X-3810016Y29010062D03*
X-3810016Y27740062D03*
X-3810016Y26470062D03*
X8889984Y26470062D03*
X8889984Y27740062D03*
X8889984Y29010062D03*
X8889984Y30280062D03*
X8889984Y31550062D03*
X8889984Y32820062D03*
X8889984Y34090062D03*
X8889984Y35360062D03*
X8889984Y22660062D03*
X-3810016Y22660062D03*
X8889984Y21390062D03*
X-3810016Y21390062D03*
X8889984Y20120062D03*
X-3810016Y20120062D03*
X8889984Y18850062D03*
X-3810016Y18850062D03*
X8889984Y17580062D03*
X-3810016Y17580062D03*
X8889984Y16310062D03*
X-3810016Y16310062D03*
%TD*%
D28*
%TO.C,C1*%
X-16025016Y21115060D03*
X-16025016Y23190060D03*
%TD*%
D14*
%TO.C,D1*%
X-2000016Y-35024940D03*
X-2000016Y-32974940D03*
%TD*%
D13*
%TO.C,R17*%
X16579984Y1000060D03*
X16579984Y-999940D03*
%TD*%
M02*
