M48
; DRILL file {KiCad 9.0.4} date 2026-03-19T19:45:42+0100
; FORMAT={-:-/ absolute / inch / decimal}
; #@! TF.CreationDate,2026-03-19T19:45:42+01:00
; #@! TF.GenerationSoftware,Kicad,Pcbnew,9.0.4
; #@! TF.FileFunction,Plated,1,4,PTH
FMAT,2
INCH
; #@! TA.AperFunction,Plated,PTH,ViaDrill
T1C0.0118
; #@! TA.AperFunction,Plated,PTH,ViaDrill
T2C0.0157
; #@! TA.AperFunction,Plated,PTH,ComponentDrill
T3C0.0394
; #@! TA.AperFunction,Plated,PTH,ComponentDrill
T4C0.0402
; #@! TA.AperFunction,Plated,PTH,ComponentDrill
T5C0.0610
; #@! TA.AperFunction,Plated,PTH,ComponentDrill
T6C0.0689
; #@! TA.AperFunction,Plated,PTH,ComponentDrill
T7C0.0949
; #@! TA.AperFunction,Plated,PTH,ComponentDrill
T8C0.1614
%
G90
G05
T1
X-1.8307Y1.0827
X-1.8307Y0.9843
X-1.8307Y0.8858
X-1.8307Y0.7874
X-1.8307Y0.689
X-1.8307Y0.5906
X-1.8307Y0.4921
X-1.8307Y0.3937
X-1.8307Y0.2953
X-1.8307Y0.1969
X-1.8307Y0.0984
X-1.8307Y0.0
X-1.8307Y-0.0984
X-1.8307Y-0.1969
X-1.8307Y-0.2953
X-1.8307Y-0.3937
X-1.8307Y-0.4921
X-1.8307Y-0.5906
X-1.8307Y-0.689
X-1.8307Y-0.7874
X-1.8307Y-0.8858
X-1.8307Y-0.9843
X-1.8307Y-1.0827
X-1.8243Y1.1803
X-1.8243Y-1.1803
X-1.8052Y1.2763
X-1.8052Y-1.2763
X-1.7738Y1.3689
X-1.7738Y-1.3689
X-1.7305Y1.4567
X-1.7305Y-1.4567
X-1.6761Y1.538
X-1.6761Y-1.538
X-1.6116Y1.6116
X-1.6116Y-1.6116
X-1.538Y1.6761
X-1.538Y-1.6761
X-1.4567Y1.7305
X-1.4567Y-1.7305
X-1.3689Y1.7738
X-1.3689Y-1.7738
X-1.2763Y1.8052
X-1.2763Y-1.8052
X-1.2008Y-1.6535
X-1.1803Y1.8243
X-1.1803Y-1.8243
X-1.0827Y1.8307
X-1.0827Y-1.8307
X-1.0236Y-1.3706
X-0.9843Y1.8307
X-0.9646Y-1.2426
X-0.9547Y-1.4099
X-0.8957Y-1.1245
X-0.8858Y1.8307
X-0.876Y-1.3115
X-0.8465Y-1.4395
X-0.7874Y1.8307
X-0.748Y-1.378
X-0.689Y1.8307
X-0.5906Y1.8307
X-0.5906Y-1.8307
X-0.4921Y1.8307
X-0.4921Y-1.6535
X-0.4921Y-1.8307
X-0.3937Y1.8307
X-0.3937Y-1.8307
X-0.315Y-1.3706
X-0.2953Y1.8307
X-0.2559Y-1.2426
X-0.2461Y-1.4099
X-0.1969Y1.8307
X-0.187Y-1.1245
X-0.1673Y-1.3115
X-0.1378Y-1.4395
X-0.0984Y1.8307
X-0.0394Y-1.378
X0.0Y1.8307
X0.0984Y1.8307
X0.0984Y-1.8307
X0.1969Y1.8307
X0.1969Y-1.8307
X0.2953Y1.8307
X0.2953Y-1.8307
X0.3937Y1.8307
X0.3937Y-1.8307
X0.4921Y1.8307
X0.4921Y-1.8307
X0.5906Y1.8307
X0.5906Y-1.8307
X0.689Y1.8307
X0.689Y-1.8307
X0.7874Y1.8307
X0.7874Y-1.8307
X0.8858Y1.8307
X0.8858Y-1.8307
X0.9843Y1.8307
X0.9843Y-1.8307
X1.0827Y1.8307
X1.0827Y-1.8307
X1.1803Y1.8243
X1.1803Y-1.8243
X1.2763Y1.8052
X1.2763Y-1.8052
X1.3689Y1.7738
X1.3689Y-1.7738
X1.4567Y1.7305
X1.4567Y-1.7305
X1.538Y1.6761
X1.538Y-1.6761
X1.6116Y1.6116
X1.6116Y-1.6116
X1.6761Y1.538
X1.6761Y-1.538
X1.7305Y1.4567
X1.7305Y-1.4567
X1.7738Y1.3689
X1.7738Y-1.3689
X1.8052Y1.2763
X1.8052Y-1.2763
X1.8243Y1.1803
X1.8243Y-1.1803
X1.8307Y1.0827
X1.8307Y0.9843
X1.8307Y0.8858
X1.8307Y0.7874
X1.8307Y0.689
X1.8307Y0.5906
X1.8307Y0.4921
X1.8307Y0.3937
X1.8307Y0.2953
X1.8307Y0.1969
X1.8307Y0.0984
X1.8307Y0.0
X1.8307Y-0.0984
X1.8307Y-0.1969
X1.8307Y-0.2953
X1.8307Y-0.3937
X1.8307Y-0.4921
X1.8307Y-0.5906
X1.8307Y-0.689
X1.8307Y-0.7874
X1.8307Y-0.8858
X1.8307Y-0.9843
X1.8307Y-1.0827
T2
X-1.2795Y1.4567
X-1.2795Y1.3189
X-1.2303Y0.4331
X-1.1024Y0.0098
X-1.1024Y-0.0295
X-1.1024Y-0.0689
X-1.063Y0.8858
X-1.0039Y-0.3937
X-0.9449Y1.2402
X-0.9449Y1.0433
X-0.9449Y0.8465
X-0.9031Y-0.8071
X-0.8957Y-0.3346
X-0.8858Y0.0492
X-0.8661Y0.2165
X-0.856Y-0.6988
X-0.8366Y0.187
X-0.8071Y0.1575
X-0.7972Y-0.4626
X-0.7874Y1.2402
X-0.7874Y1.0433
X-0.7874Y0.8465
X-0.7677Y-0.0984
X-0.764Y-0.3346
X-0.7087Y0.2165
X-0.7087Y0.0492
X-0.6791Y0.187
X-0.6693Y1.2008
X-0.6496Y0.1575
X-0.6496Y0.0492
X-0.6496Y-0.0492
X-0.6299Y0.4429
X-0.6201Y-0.8858
X-0.614Y-0.4331
X-0.4602Y1.7323
X-0.4331Y1.437
X-0.4331Y1.2008
X-0.3937Y-0.0197
X-0.3937Y-0.4134
X-0.2362Y1.437
X-0.2362Y1.2008
X-0.1969Y0.1181
X-0.1969Y0.0394
X-0.1969Y-0.0394
X-0.1969Y-0.1181
X-0.1181Y-0.1969
X-0.0787Y0.0
X-0.0591Y0.3937
X-0.0591Y0.2756
X-0.0394Y0.5512
X0.0Y0.5512
X0.0Y-0.0787
X0.0394Y0.5512
X0.0516Y1.7323
X0.0591Y0.3937
X0.0591Y0.3543
X0.0591Y0.315
X0.0591Y0.2756
X0.0591Y0.2362
X0.0591Y0.1969
X0.0787Y0.0
X0.1Y1.5354
X0.1181Y-0.1969
X0.15Y1.5354
X0.1969Y0.1181
X0.1969Y0.0394
X0.1969Y-0.0394
X0.1969Y-0.1181
X0.2Y1.5354
X0.2408Y0.2953
X0.25Y1.5945
X0.2817Y0.2953
X0.35Y0.5118
X0.35Y0.4724
X0.35Y0.4331
X0.4331Y1.3724
X0.4331Y1.3224
X0.4331Y1.1417
X0.4331Y1.063
X0.4331Y0.9843
X0.4331Y0.9055
X0.4331Y0.8268
X0.4331Y0.748
X0.4331Y0.6693
X0.4331Y0.5906
X0.4331Y0.5118
X0.4331Y0.4331
X0.4331Y0.3543
X0.4331Y0.2756
X0.4724Y0.1181
X0.4724Y0.0394
X0.4724Y-0.0394
X0.4724Y-0.1181
X0.5512Y-0.1969
X0.5634Y1.7323
X0.5906Y0.0
X0.6102Y0.3937
X0.6102Y0.2756
X0.6299Y0.5512
X0.6693Y0.5512
X0.6693Y-0.0787
X0.7087Y0.5512
X0.7283Y0.3937
X0.7283Y0.3543
X0.7283Y0.315
X0.7283Y0.2756
X0.7283Y0.2362
X0.7283Y0.1969
X0.748Y0.0
X0.7693Y1.5354
X0.7874Y-0.1969
X0.8193Y1.5354
X0.8661Y0.1181
X0.8661Y0.0394
X0.8661Y-0.0394
X0.8661Y-0.1181
X0.8693Y1.5354
X0.9101Y0.2953
X0.9193Y1.5945
X0.951Y0.2953
X1.0193Y0.5118
X1.0193Y0.4724
X1.0193Y0.4331
X1.0612Y1.5766
X1.0612Y1.4781
T3
X-1.5469Y0.8
X-1.5469Y0.7
X-1.5469Y0.6
X-1.5469Y0.5
X-1.5469Y0.4
X-1.5469Y0.3
X-1.5469Y0.2
X-1.5469Y0.1
X-1.5469Y-0.1
X-1.5469Y-0.2
X-1.5469Y-0.3
X-1.5469Y-0.4
X-1.5469Y-0.5
X-1.5469Y-0.6
X-1.5469Y-0.7
X-1.5469Y-0.8
X-1.355Y0.7
X-1.355Y0.5
X-1.355Y0.3
X-1.355Y0.1
X-1.355Y-0.2
X-1.355Y-0.4
X-1.355Y-0.6
X-1.355Y-0.8
X-1.345Y0.8
X-1.345Y0.6
X-1.345Y0.4
X-1.345Y0.2
X-1.345Y-0.1
X-1.345Y-0.3
X-1.345Y-0.5
X-1.345Y-0.7
X-0.9646Y-0.8858
X-0.5118Y-0.8858
X-0.3937Y-0.8858
X1.345Y0.7
X1.345Y0.5
X1.345Y0.3
X1.345Y0.1
X1.345Y-0.2
X1.345Y-0.4
X1.345Y-0.6
X1.345Y-0.8
X1.355Y0.8
X1.355Y0.6
X1.355Y0.4
X1.355Y0.2
X1.355Y-0.1
X1.355Y-0.3
X1.355Y-0.5
X1.355Y-0.7
X1.5469Y0.8
X1.5469Y0.7
X1.5469Y0.6
X1.5469Y0.5
X1.5469Y0.4
X1.5469Y0.3
X1.5469Y0.2
X1.5469Y0.1
X1.5469Y-0.1
X1.5469Y-0.2
X1.5469Y-0.3
X1.5469Y-0.4
X1.5469Y-0.5
X1.5469Y-0.6
X1.5469Y-0.7
X1.5469Y-0.8
T4
X-0.9449Y1.5157
X-0.8268Y1.5157
T5
X0.0Y0.0
X0.6693Y0.0
T6
X-0.1Y0.1
X-0.1Y-0.1
X0.1Y0.1
X0.1Y-0.1
X0.5693Y0.1
X0.5693Y-0.1
X0.7693Y0.1
X0.7693Y-0.1
T7
X-1.0295Y1.6858
X-0.7421Y1.6858
T8
X-1.45Y1.0827
X-1.45Y-1.437
X1.45Y1.0827
X1.45Y-1.0827
M30
