  0
SECTION
  2
BLOCKS
  0
ENDSEC
  0
SECTION
  2
ENTITIES
  0
LINE
  8
0
 10
73.754
 20
-83.0786
 11
74.4053
 21
-83.0144
  0
LINE
  8
0
 10
74.4053
 20
-83.0144
 11
75.0509
 21
-82.9078
  0
LINE
  8
0
 10
75.0509
 20
-82.9078
 11
75.6882
 21
-82.7592
  0
LINE
  8
0
 10
75.6882
 20
-82.7592
 11
76.3144
 21
-82.5693
  0
LINE
  8
0
 10
76.3144
 20
-82.5693
 11
76.9268
 21
-82.3388
  0
LINE
  8
0
 10
76.9268
 20
-82.3388
 11
77.5229
 21
-82.0687
  0
LINE
  8
0
 10
77.5229
 20
-82.0687
 11
78.1
 21
-81.7602
  0
LINE
  8
0
 10
78.1
 20
-81.7602
 11
78.6557
 21
-81.4147
  0
LINE
  8
0
 10
78.6557
 20
-81.4147
 11
79.1876
 21
-81.0335
  0
LINE
  8
0
 10
79.1876
 20
-81.0335
 11
79.6935
 21
-80.6184
  0
LINE
  8
0
 10
79.6935
 20
-80.6184
 11
80.1711
 21
-80.1711
  0
LINE
  8
0
 10
80.1711
 20
-80.1711
 11
80.6184
 21
-79.6935
  0
LINE
  8
0
 10
80.6184
 20
-79.6935
 11
81.0335
 21
-79.1876
  0
LINE
  8
0
 10
81.0335
 20
-79.1876
 11
81.4147
 21
-78.6557
  0
LINE
  8
0
 10
81.4147
 20
-78.6557
 11
81.7602
 21
-78.1
  0
LINE
  8
0
 10
81.7602
 20
-78.1
 11
82.0687
 21
-77.5229
  0
LINE
  8
0
 10
82.0687
 20
-77.5229
 11
82.3388
 21
-76.9268
  0
LINE
  8
0
 10
82.3388
 20
-76.9268
 11
82.5693
 21
-76.3144
  0
LINE
  8
0
 10
82.5693
 20
-76.3144
 11
82.7592
 21
-75.6882
  0
LINE
  8
0
 10
82.7592
 20
-75.6882
 11
82.9078
 21
-75.0509
  0
LINE
  8
0
 10
82.9078
 20
-75.0509
 11
83.0144
 21
-74.4053
  0
LINE
  8
0
 10
83.0144
 20
-74.4053
 11
83.0786
 21
-73.754
  0
LINE
  8
0
 10
83.0786
 20
-73.754
 11
83.1
 21
-73.1
  0
LINE
  8
0
 10
83.1
 20
-73.1
 11
83.1
 21
73.1
  0
LINE
  8
0
 10
83.1
 20
73.1
 11
83.0786
 21
73.754
  0
LINE
  8
0
 10
83.0786
 20
73.754
 11
83.0144
 21
74.4053
  0
LINE
  8
0
 10
83.0144
 20
74.4053
 11
82.9078
 21
75.0509
  0
LINE
  8
0
 10
82.9078
 20
75.0509
 11
82.7592
 21
75.6882
  0
LINE
  8
0
 10
82.7592
 20
75.6882
 11
82.5693
 21
76.3144
  0
LINE
  8
0
 10
82.5693
 20
76.3144
 11
82.3388
 21
76.9268
  0
LINE
  8
0
 10
82.3388
 20
76.9268
 11
82.0687
 21
77.5229
  0
LINE
  8
0
 10
82.0687
 20
77.5229
 11
81.7602
 21
78.1
  0
LINE
  8
0
 10
81.7602
 20
78.1
 11
81.4147
 21
78.6557
  0
LINE
  8
0
 10
81.4147
 20
78.6557
 11
81.0335
 21
79.1876
  0
LINE
  8
0
 10
81.0335
 20
79.1876
 11
80.6184
 21
79.6935
  0
LINE
  8
0
 10
80.6184
 20
79.6935
 11
80.1711
 21
80.1711
  0
LINE
  8
0
 10
80.1711
 20
80.1711
 11
79.6935
 21
80.6184
  0
LINE
  8
0
 10
79.6935
 20
80.6184
 11
79.1876
 21
81.0335
  0
LINE
  8
0
 10
79.1876
 20
81.0335
 11
78.6557
 21
81.4147
  0
LINE
  8
0
 10
78.6557
 20
81.4147
 11
78.1
 21
81.7602
  0
LINE
  8
0
 10
78.1
 20
81.7602
 11
77.5229
 21
82.0687
  0
LINE
  8
0
 10
77.5229
 20
82.0687
 11
76.9268
 21
82.3388
  0
LINE
  8
0
 10
76.9268
 20
82.3388
 11
76.3144
 21
82.5693
  0
LINE
  8
0
 10
76.3144
 20
82.5693
 11
75.6882
 21
82.7592
  0
LINE
  8
0
 10
75.6882
 20
82.7592
 11
75.0509
 21
82.9078
  0
LINE
  8
0
 10
75.0509
 20
82.9078
 11
74.4053
 21
83.0144
  0
LINE
  8
0
 10
74.4053
 20
83.0144
 11
73.754
 21
83.0786
  0
LINE
  8
0
 10
73.754
 20
83.0786
 11
73.1
 21
83.1
  0
LINE
  8
0
 10
73.1
 20
83.1
 11
-73.1
 21
83.1
  0
LINE
  8
0
 10
-73.1
 20
83.1
 11
-73.754
 21
83.0786
  0
LINE
  8
0
 10
-73.754
 20
83.0786
 11
-74.4053
 21
83.0144
  0
LINE
  8
0
 10
-74.4053
 20
83.0144
 11
-75.0509
 21
82.9078
  0
LINE
  8
0
 10
-75.0509
 20
82.9078
 11
-75.6882
 21
82.7592
  0
LINE
  8
0
 10
-75.6882
 20
82.7592
 11
-76.3144
 21
82.5693
  0
LINE
  8
0
 10
-76.3144
 20
82.5693
 11
-76.9268
 21
82.3388
  0
LINE
  8
0
 10
-76.9268
 20
82.3388
 11
-77.5229
 21
82.0687
  0
LINE
  8
0
 10
-77.5229
 20
82.0687
 11
-78.1
 21
81.7602
  0
LINE
  8
0
 10
-78.1
 20
81.7602
 11
-78.6557
 21
81.4147
  0
LINE
  8
0
 10
-78.6557
 20
81.4147
 11
-79.1876
 21
81.0335
  0
LINE
  8
0
 10
-79.1876
 20
81.0335
 11
-79.6935
 21
80.6184
  0
LINE
  8
0
 10
-79.6935
 20
80.6184
 11
-80.1711
 21
80.1711
  0
LINE
  8
0
 10
-80.1711
 20
80.1711
 11
-80.6184
 21
79.6935
  0
LINE
  8
0
 10
-80.6184
 20
79.6935
 11
-81.0335
 21
79.1876
  0
LINE
  8
0
 10
-81.0335
 20
79.1876
 11
-81.4147
 21
78.6557
  0
LINE
  8
0
 10
-81.4147
 20
78.6557
 11
-81.7602
 21
78.1
  0
LINE
  8
0
 10
-81.7602
 20
78.1
 11
-82.0687
 21
77.5229
  0
LINE
  8
0
 10
-82.0687
 20
77.5229
 11
-82.3388
 21
76.9268
  0
LINE
  8
0
 10
-82.3388
 20
76.9268
 11
-82.5693
 21
76.3144
  0
LINE
  8
0
 10
-82.5693
 20
76.3144
 11
-82.7592
 21
75.6882
  0
LINE
  8
0
 10
-82.7592
 20
75.6882
 11
-82.9078
 21
75.0509
  0
LINE
  8
0
 10
-82.9078
 20
75.0509
 11
-83.0144
 21
74.4053
  0
LINE
  8
0
 10
-83.0144
 20
74.4053
 11
-83.0786
 21
73.754
  0
LINE
  8
0
 10
-83.0786
 20
73.754
 11
-83.1
 21
73.1
  0
LINE
  8
0
 10
-83.1
 20
73.1
 11
-83.1
 21
-73.1
  0
LINE
  8
0
 10
-83.1
 20
-73.1
 11
-83.0786
 21
-73.754
  0
LINE
  8
0
 10
-83.0786
 20
-73.754
 11
-83.0144
 21
-74.4053
  0
LINE
  8
0
 10
-83.0144
 20
-74.4053
 11
-82.9078
 21
-75.0509
  0
LINE
  8
0
 10
-82.9078
 20
-75.0509
 11
-82.7592
 21
-75.6882
  0
LINE
  8
0
 10
-82.7592
 20
-75.6882
 11
-82.5693
 21
-76.3144
  0
LINE
  8
0
 10
-82.5693
 20
-76.3144
 11
-82.3388
 21
-76.9268
  0
LINE
  8
0
 10
-82.3388
 20
-76.9268
 11
-82.0687
 21
-77.5229
  0
LINE
  8
0
 10
-82.0687
 20
-77.5229
 11
-81.7602
 21
-78.1
  0
LINE
  8
0
 10
-81.7602
 20
-78.1
 11
-81.4147
 21
-78.6557
  0
LINE
  8
0
 10
-81.4147
 20
-78.6557
 11
-81.0335
 21
-79.1876
  0
LINE
  8
0
 10
-81.0335
 20
-79.1876
 11
-80.6184
 21
-79.6935
  0
LINE
  8
0
 10
-80.6184
 20
-79.6935
 11
-80.1711
 21
-80.1711
  0
LINE
  8
0
 10
-80.1711
 20
-80.1711
 11
-79.6935
 21
-80.6184
  0
LINE
  8
0
 10
-79.6935
 20
-80.6184
 11
-79.1876
 21
-81.0335
  0
LINE
  8
0
 10
-79.1876
 20
-81.0335
 11
-78.6557
 21
-81.4147
  0
LINE
  8
0
 10
-78.6557
 20
-81.4147
 11
-78.1
 21
-81.7602
  0
LINE
  8
0
 10
-78.1
 20
-81.7602
 11
-77.5229
 21
-82.0687
  0
LINE
  8
0
 10
-77.5229
 20
-82.0687
 11
-76.9268
 21
-82.3388
  0
LINE
  8
0
 10
-76.9268
 20
-82.3388
 11
-76.3144
 21
-82.5693
  0
LINE
  8
0
 10
-76.3144
 20
-82.5693
 11
-75.6882
 21
-82.7592
  0
LINE
  8
0
 10
-75.6882
 20
-82.7592
 11
-75.0509
 21
-82.9078
  0
LINE
  8
0
 10
-75.0509
 20
-82.9078
 11
-74.4053
 21
-83.0144
  0
LINE
  8
0
 10
-74.4053
 20
-83.0144
 11
-73.754
 21
-83.0786
  0
LINE
  8
0
 10
-73.754
 20
-83.0786
 11
-73.1
 21
-83.1
  0
LINE
  8
0
 10
-73.1
 20
-83.1
 11
73.1
 21
-83.1
  0
LINE
  8
0
 10
73.1
 20
-83.1
 11
73.754
 21
-83.0786
  0
ENDSEC
  0
SECTION
  2
OBJECTS
  0
DICTIONARY
  0
ENDSEC
  0
EOF
