ISO-10303-21;
HEADER;
/* Generated by software containing ST-Developer
 * from STEP Tools, Inc. (www.steptools.com) 
 */

FILE_DESCRIPTION(
/* description */ (''),
/* implementation_level */ '2;1');

FILE_NAME(
/* name */ 'Cone Bottom.step',
/* time_stamp */ '2026-03-20T15:09:51+01:00',
/* author */ (''),
/* organization */ (''),
/* preprocessor_version */ 'ST-DEVELOPER v20.1',
/* originating_system */ 'Autodesk Translation Framework v14.24.0.0',
/* authorisation */ '');

FILE_SCHEMA (('AUTOMOTIVE_DESIGN { 1 0 10303 214 3 1 1 }'));
ENDSEC;

DATA;
#10=MECHANICAL_DESIGN_GEOMETRIC_PRESENTATION_REPRESENTATION('',(#13),#839);
#11=SHAPE_REPRESENTATION_RELATIONSHIP('SRR','None',#846,#12);
#12=ADVANCED_BREP_SHAPE_REPRESENTATION('',(#14),#838);
#13=STYLED_ITEM('',(#856),#14);
#14=MANIFOLD_SOLID_BREP('Cone Bottom',#437);
#15=CYLINDRICAL_SURFACE('',#472,100.);
#16=CYLINDRICAL_SURFACE('',#482,20.);
#17=CYLINDRICAL_SURFACE('',#485,15.2);
#18=CYLINDRICAL_SURFACE('',#487,75.);
#19=CYLINDRICAL_SURFACE('',#489,4.2);
#20=CYLINDRICAL_SURFACE('',#491,4.2);
#21=CYLINDRICAL_SURFACE('',#493,4.2);
#22=CYLINDRICAL_SURFACE('',#495,4.2);
#23=CYLINDRICAL_SURFACE('',#497,4.2);
#24=CYLINDRICAL_SURFACE('',#499,4.2);
#25=CYLINDRICAL_SURFACE('',#501,4.2);
#26=CYLINDRICAL_SURFACE('',#503,4.2);
#27=FACE_BOUND('',#119,.T.);
#28=FACE_BOUND('',#120,.T.);
#29=FACE_BOUND('',#121,.T.);
#30=FACE_BOUND('',#122,.T.);
#31=FACE_BOUND('',#123,.T.);
#32=FACE_BOUND('',#124,.T.);
#33=FACE_BOUND('',#125,.T.);
#34=FACE_BOUND('',#126,.T.);
#35=FACE_BOUND('',#127,.T.);
#36=FACE_BOUND('',#132,.T.);
#37=FACE_BOUND('',#147,.T.);
#38=FACE_BOUND('',#148,.T.);
#39=FACE_BOUND('',#149,.T.);
#40=FACE_BOUND('',#150,.T.);
#41=FACE_BOUND('',#151,.T.);
#42=FACE_BOUND('',#152,.T.);
#43=FACE_BOUND('',#153,.T.);
#44=FACE_BOUND('',#154,.T.);
#45=FACE_BOUND('',#155,.T.);
#46=FACE_BOUND('',#156,.T.);
#47=PLANE('',#462);
#48=PLANE('',#479);
#49=PLANE('',#481);
#50=PLANE('',#484);
#51=PLANE('',#505);
#52=(
BOUNDED_CURVE()
B_SPLINE_CURVE(2,(#673,#674,#675),.UNSPECIFIED.,.F.,.F.)
B_SPLINE_CURVE_WITH_KNOTS((3,3),(0.600572884534929,6.04482565138061),
 .UNSPECIFIED.)
CURVE()
GEOMETRIC_REPRESENTATION_ITEM()
RATIONAL_B_SPLINE_CURVE((1.01299631502076,1.07015889457678,1.09570489557913))
REPRESENTATION_ITEM('')
);
#53=(
BOUNDED_CURVE()
B_SPLINE_CURVE(2,(#716,#717,#718),.UNSPECIFIED.,.F.,.F.)
B_SPLINE_CURVE_WITH_KNOTS((3,3),(14.8426710704411,20.2869239021144),
 .UNSPECIFIED.)
CURVE()
GEOMETRIC_REPRESENTATION_ITEM()
RATIONAL_B_SPLINE_CURVE((1.09570489485519,1.07015889432454,1.01299631491843))
REPRESENTATION_ITEM('')
);
#54=LINE('',#671,#73);
#55=LINE('',#728,#74);
#56=LINE('',#731,#75);
#57=LINE('',#750,#76);
#58=LINE('',#785,#77);
#59=LINE('',#787,#78);
#60=LINE('',#788,#79);
#61=LINE('',#791,#80);
#62=LINE('',#795,#81);
#63=LINE('',#796,#82);
#64=LINE('',#799,#83);
#65=LINE('',#805,#84);
#66=LINE('',#809,#85);
#67=LINE('',#813,#86);
#68=LINE('',#817,#87);
#69=LINE('',#821,#88);
#70=LINE('',#825,#89);
#71=LINE('',#829,#90);
#72=LINE('',#833,#91);
#73=VECTOR('',#520,50.);
#74=VECTOR('',#533,10.);
#75=VECTOR('',#536,10.);
#76=VECTOR('',#555,100.);
#77=VECTOR('',#574,10.);
#78=VECTOR('',#575,10.);
#79=VECTOR('',#576,10.);
#80=VECTOR('',#579,10.);
#81=VECTOR('',#584,10.);
#82=VECTOR('',#585,10.);
#83=VECTOR('',#588,15.2);
#84=VECTOR('',#597,4.2);
#85=VECTOR('',#602,4.2);
#86=VECTOR('',#607,4.2);
#87=VECTOR('',#612,4.2);
#88=VECTOR('',#617,4.2);
#89=VECTOR('',#622,4.2);
#90=VECTOR('',#627,4.2);
#91=VECTOR('',#632,4.2);
#92=CONICAL_SURFACE('',#455,50.,0.257323714971089);
#93=FACE_OUTER_BOUND('',#115,.T.);
#94=FACE_OUTER_BOUND('',#116,.T.);
#95=FACE_OUTER_BOUND('',#117,.T.);
#96=FACE_OUTER_BOUND('',#118,.T.);
#97=FACE_OUTER_BOUND('',#128,.T.);
#98=FACE_OUTER_BOUND('',#129,.T.);
#99=FACE_OUTER_BOUND('',#130,.T.);
#100=FACE_OUTER_BOUND('',#131,.T.);
#101=FACE_OUTER_BOUND('',#133,.T.);
#102=FACE_OUTER_BOUND('',#134,.T.);
#103=FACE_OUTER_BOUND('',#135,.T.);
#104=FACE_OUTER_BOUND('',#136,.T.);
#105=FACE_OUTER_BOUND('',#137,.T.);
#106=FACE_OUTER_BOUND('',#138,.T.);
#107=FACE_OUTER_BOUND('',#139,.T.);
#108=FACE_OUTER_BOUND('',#140,.T.);
#109=FACE_OUTER_BOUND('',#141,.T.);
#110=FACE_OUTER_BOUND('',#142,.T.);
#111=FACE_OUTER_BOUND('',#143,.T.);
#112=FACE_OUTER_BOUND('',#144,.T.);
#113=FACE_OUTER_BOUND('',#145,.T.);
#114=FACE_OUTER_BOUND('',#146,.T.);
#115=EDGE_LOOP('',(#293,#294,#295,#296,#297));
#116=EDGE_LOOP('',(#298,#299,#300,#301,#302,#303,#304,#305,#306));
#117=EDGE_LOOP('',(#307,#308,#309,#310));
#118=EDGE_LOOP('',(#311));
#119=EDGE_LOOP('',(#312,#313,#314,#315));
#120=EDGE_LOOP('',(#316));
#121=EDGE_LOOP('',(#317));
#122=EDGE_LOOP('',(#318));
#123=EDGE_LOOP('',(#319));
#124=EDGE_LOOP('',(#320));
#125=EDGE_LOOP('',(#321));
#126=EDGE_LOOP('',(#322));
#127=EDGE_LOOP('',(#323));
#128=EDGE_LOOP('',(#324,#325,#326,#327));
#129=EDGE_LOOP('',(#328,#329,#330,#331));
#130=EDGE_LOOP('',(#332,#333,#334,#335,#336));
#131=EDGE_LOOP('',(#337));
#132=EDGE_LOOP('',(#338));
#133=EDGE_LOOP('',(#339,#340,#341,#342,#343,#344,#345));
#134=EDGE_LOOP('',(#346,#347,#348,#349));
#135=EDGE_LOOP('',(#350,#351,#352,#353,#354,#355,#356));
#136=EDGE_LOOP('',(#357,#358,#359,#360));
#137=EDGE_LOOP('',(#361,#362,#363,#364));
#138=EDGE_LOOP('',(#365,#366,#367,#368));
#139=EDGE_LOOP('',(#369,#370,#371,#372));
#140=EDGE_LOOP('',(#373,#374,#375,#376));
#141=EDGE_LOOP('',(#377,#378,#379,#380));
#142=EDGE_LOOP('',(#381,#382,#383,#384));
#143=EDGE_LOOP('',(#385,#386,#387,#388));
#144=EDGE_LOOP('',(#389,#390,#391,#392));
#145=EDGE_LOOP('',(#393,#394,#395,#396));
#146=EDGE_LOOP('',(#397));
#147=EDGE_LOOP('',(#398));
#148=EDGE_LOOP('',(#399));
#149=EDGE_LOOP('',(#400));
#150=EDGE_LOOP('',(#401));
#151=EDGE_LOOP('',(#402));
#152=EDGE_LOOP('',(#403));
#153=EDGE_LOOP('',(#404));
#154=EDGE_LOOP('',(#405));
#155=EDGE_LOOP('',(#406));
#156=EDGE_LOOP('',(#407,#408,#409,#410));
#157=CIRCLE('',#452,74.6076280522525);
#158=CIRCLE('',#453,74.6076280522525);
#159=CIRCLE('',#454,76.5417771267777);
#160=CIRCLE('',#456,25.3923719477475);
#161=CIRCLE('',#457,25.3923719477475);
#162=CIRCLE('',#459,98.);
#163=CIRCLE('',#460,2.);
#164=CIRCLE('',#461,100.);
#165=CIRCLE('',#463,77.);
#166=CIRCLE('',#464,4.2);
#167=CIRCLE('',#465,4.2);
#168=CIRCLE('',#466,4.2);
#169=CIRCLE('',#467,4.2);
#170=CIRCLE('',#468,4.2);
#171=CIRCLE('',#469,4.2);
#172=CIRCLE('',#470,4.2);
#173=CIRCLE('',#471,4.2);
#174=CIRCLE('',#473,100.);
#175=CIRCLE('',#475,75.);
#176=CIRCLE('',#477,2.);
#177=CIRCLE('',#478,23.4582228732223);
#178=CIRCLE('',#480,15.2);
#179=CIRCLE('',#483,20.);
#180=CIRCLE('',#486,15.2);
#181=CIRCLE('',#488,75.);
#182=CIRCLE('',#490,4.2);
#183=CIRCLE('',#492,4.2);
#184=CIRCLE('',#494,4.2);
#185=CIRCLE('',#496,4.2);
#186=CIRCLE('',#498,4.2);
#187=CIRCLE('',#500,4.2);
#188=CIRCLE('',#502,4.2);
#189=CIRCLE('',#504,4.2);
#190=B_SPLINE_CURVE_WITH_KNOTS('',3,(#641,#642,#643,#644,#645,#646,#647,
#648,#649,#650),.UNSPECIFIED.,.F.,.F.,(4,2,2,2,4),(0.301422471937543,0.379038863299671,
0.455321713945646,0.529917486499782,0.554827628019408),.UNSPECIFIED.);
#191=B_SPLINE_CURVE_WITH_KNOTS('',3,(#656,#657,#658,#659,#660,#661,#662,
#663,#664,#665),.UNSPECIFIED.,.F.,.F.,(4,2,2,2,4),(0.651368398166635,0.676278539713989,
0.750874312250992,0.827157162826712,0.904773554076115),.UNSPECIFIED.);
#192=B_SPLINE_CURVE_WITH_KNOTS('',3,(#677,#678,#679,#680,#681,#682,#683,
#684,#685,#686,#687,#688,#689,#690,#691,#692,#693,#694,#695,#696,#697,#698,
#699,#700,#701,#702,#703,#704,#705,#706,#707,#708,#709,#710,#711,#712,#713,
#714,#715),.UNSPECIFIED.,.F.,.F.,(4,2,2,2,2,2,2,2,2,2,2,2,2,2,2,2,2,3,4),
(-15.4061042810071,-12.3928361323899,-9.87770643734539,-8.62014158982311,
-7.99135916606197,-7.36257674230083,-6.94148878917253,-6.52040083604422,
-6.3584094511196,-6.19641806619498,-6.03442668127035,-5.87243529634573,
-5.45134734321742,-5.03025939008912,-4.40147696632798,-3.77269454256684,
-2.51512969504456,0.,3.01326818666324),.UNSPECIFIED.);
#193=B_SPLINE_CURVE_WITH_KNOTS('',3,(#754,#755,#756,#757,#758,#759,#760,
#761,#762,#763),.UNSPECIFIED.,.F.,.F.,(4,2,2,2,4),(0.60296338247805,0.676154768670619,
0.75074346335324,0.826997852110463,0.904569178919655),.UNSPECIFIED.);
#194=B_SPLINE_CURVE_WITH_KNOTS('',3,(#766,#767,#768,#769,#770,#771,#772,
#773,#774,#775),.UNSPECIFIED.,.F.,.F.,(4,2,2,2,4),(0.301357586199135,0.378928913119547,
0.455183301946083,0.529771996645607,0.602963382811735),.UNSPECIFIED.);
#195=VERTEX_POINT('',#639);
#196=VERTEX_POINT('',#640);
#197=VERTEX_POINT('',#651);
#198=VERTEX_POINT('',#653);
#199=VERTEX_POINT('',#655);
#200=VERTEX_POINT('',#668);
#201=VERTEX_POINT('',#669);
#202=VERTEX_POINT('',#672);
#203=VERTEX_POINT('',#676);
#204=VERTEX_POINT('',#721);
#205=VERTEX_POINT('',#723);
#206=VERTEX_POINT('',#727);
#207=VERTEX_POINT('',#729);
#208=VERTEX_POINT('',#732);
#209=VERTEX_POINT('',#734);
#210=VERTEX_POINT('',#736);
#211=VERTEX_POINT('',#738);
#212=VERTEX_POINT('',#740);
#213=VERTEX_POINT('',#742);
#214=VERTEX_POINT('',#744);
#215=VERTEX_POINT('',#746);
#216=VERTEX_POINT('',#749);
#217=VERTEX_POINT('',#753);
#218=VERTEX_POINT('',#764);
#219=VERTEX_POINT('',#777);
#220=VERTEX_POINT('',#781);
#221=VERTEX_POINT('',#784);
#222=VERTEX_POINT('',#786);
#223=VERTEX_POINT('',#790);
#224=VERTEX_POINT('',#794);
#225=VERTEX_POINT('',#798);
#226=VERTEX_POINT('',#804);
#227=VERTEX_POINT('',#808);
#228=VERTEX_POINT('',#812);
#229=VERTEX_POINT('',#816);
#230=VERTEX_POINT('',#820);
#231=VERTEX_POINT('',#824);
#232=VERTEX_POINT('',#828);
#233=VERTEX_POINT('',#832);
#234=EDGE_CURVE('',#195,#196,#190,.T.);
#235=EDGE_CURVE('',#196,#197,#157,.T.);
#236=EDGE_CURVE('',#197,#198,#158,.T.);
#237=EDGE_CURVE('',#198,#199,#191,.T.);
#238=EDGE_CURVE('',#199,#195,#159,.T.);
#239=EDGE_CURVE('',#200,#201,#160,.T.);
#240=EDGE_CURVE('',#200,#197,#54,.T.);
#241=EDGE_CURVE('',#196,#202,#52,.T.);
#242=EDGE_CURVE('',#203,#202,#192,.T.);
#243=EDGE_CURVE('',#203,#198,#53,.T.);
#244=EDGE_CURVE('',#201,#200,#161,.T.);
#245=EDGE_CURVE('',#204,#204,#162,.T.);
#246=EDGE_CURVE('',#204,#205,#163,.T.);
#247=EDGE_CURVE('',#205,#205,#164,.T.);
#248=EDGE_CURVE('',#206,#199,#55,.T.);
#249=EDGE_CURVE('',#207,#206,#165,.T.);
#250=EDGE_CURVE('',#195,#207,#56,.T.);
#251=EDGE_CURVE('',#208,#208,#166,.T.);
#252=EDGE_CURVE('',#209,#209,#167,.T.);
#253=EDGE_CURVE('',#210,#210,#168,.T.);
#254=EDGE_CURVE('',#211,#211,#169,.T.);
#255=EDGE_CURVE('',#212,#212,#170,.T.);
#256=EDGE_CURVE('',#213,#213,#171,.T.);
#257=EDGE_CURVE('',#214,#214,#172,.T.);
#258=EDGE_CURVE('',#215,#215,#173,.T.);
#259=EDGE_CURVE('',#205,#216,#57,.T.);
#260=EDGE_CURVE('',#216,#216,#174,.T.);
#261=EDGE_CURVE('',#206,#217,#193,.F.);
#262=EDGE_CURVE('',#217,#218,#175,.T.);
#263=EDGE_CURVE('',#207,#218,#194,.T.);
#264=EDGE_CURVE('',#201,#219,#176,.T.);
#265=EDGE_CURVE('',#219,#219,#177,.T.);
#266=EDGE_CURVE('',#220,#220,#178,.T.);
#267=EDGE_CURVE('',#221,#203,#58,.T.);
#268=EDGE_CURVE('',#221,#222,#59,.T.);
#269=EDGE_CURVE('',#217,#222,#60,.T.);
#270=EDGE_CURVE('',#223,#202,#61,.T.);
#271=EDGE_CURVE('',#221,#223,#179,.T.);
#272=EDGE_CURVE('',#224,#218,#62,.T.);
#273=EDGE_CURVE('',#223,#224,#63,.T.);
#274=EDGE_CURVE('',#220,#225,#64,.T.);
#275=EDGE_CURVE('',#225,#225,#180,.T.);
#276=EDGE_CURVE('',#222,#224,#181,.T.);
#277=EDGE_CURVE('',#215,#226,#65,.T.);
#278=EDGE_CURVE('',#226,#226,#182,.T.);
#279=EDGE_CURVE('',#214,#227,#66,.T.);
#280=EDGE_CURVE('',#227,#227,#183,.T.);
#281=EDGE_CURVE('',#213,#228,#67,.T.);
#282=EDGE_CURVE('',#228,#228,#184,.T.);
#283=EDGE_CURVE('',#212,#229,#68,.T.);
#284=EDGE_CURVE('',#229,#229,#185,.T.);
#285=EDGE_CURVE('',#211,#230,#69,.T.);
#286=EDGE_CURVE('',#230,#230,#186,.T.);
#287=EDGE_CURVE('',#210,#231,#70,.T.);
#288=EDGE_CURVE('',#231,#231,#187,.T.);
#289=EDGE_CURVE('',#209,#232,#71,.T.);
#290=EDGE_CURVE('',#232,#232,#188,.T.);
#291=EDGE_CURVE('',#208,#233,#72,.T.);
#292=EDGE_CURVE('',#233,#233,#189,.T.);
#293=ORIENTED_EDGE('',*,*,#234,.T.);
#294=ORIENTED_EDGE('',*,*,#235,.T.);
#295=ORIENTED_EDGE('',*,*,#236,.T.);
#296=ORIENTED_EDGE('',*,*,#237,.T.);
#297=ORIENTED_EDGE('',*,*,#238,.T.);
#298=ORIENTED_EDGE('',*,*,#239,.F.);
#299=ORIENTED_EDGE('',*,*,#240,.T.);
#300=ORIENTED_EDGE('',*,*,#235,.F.);
#301=ORIENTED_EDGE('',*,*,#241,.T.);
#302=ORIENTED_EDGE('',*,*,#242,.F.);
#303=ORIENTED_EDGE('',*,*,#243,.T.);
#304=ORIENTED_EDGE('',*,*,#236,.F.);
#305=ORIENTED_EDGE('',*,*,#240,.F.);
#306=ORIENTED_EDGE('',*,*,#244,.F.);
#307=ORIENTED_EDGE('',*,*,#245,.T.);
#308=ORIENTED_EDGE('',*,*,#246,.T.);
#309=ORIENTED_EDGE('',*,*,#247,.T.);
#310=ORIENTED_EDGE('',*,*,#246,.F.);
#311=ORIENTED_EDGE('',*,*,#245,.F.);
#312=ORIENTED_EDGE('',*,*,#238,.F.);
#313=ORIENTED_EDGE('',*,*,#248,.F.);
#314=ORIENTED_EDGE('',*,*,#249,.F.);
#315=ORIENTED_EDGE('',*,*,#250,.F.);
#316=ORIENTED_EDGE('',*,*,#251,.T.);
#317=ORIENTED_EDGE('',*,*,#252,.T.);
#318=ORIENTED_EDGE('',*,*,#253,.T.);
#319=ORIENTED_EDGE('',*,*,#254,.T.);
#320=ORIENTED_EDGE('',*,*,#255,.T.);
#321=ORIENTED_EDGE('',*,*,#256,.T.);
#322=ORIENTED_EDGE('',*,*,#257,.T.);
#323=ORIENTED_EDGE('',*,*,#258,.T.);
#324=ORIENTED_EDGE('',*,*,#247,.F.);
#325=ORIENTED_EDGE('',*,*,#259,.T.);
#326=ORIENTED_EDGE('',*,*,#260,.T.);
#327=ORIENTED_EDGE('',*,*,#259,.F.);
#328=ORIENTED_EDGE('',*,*,#261,.T.);
#329=ORIENTED_EDGE('',*,*,#262,.T.);
#330=ORIENTED_EDGE('',*,*,#263,.F.);
#331=ORIENTED_EDGE('',*,*,#249,.T.);
#332=ORIENTED_EDGE('',*,*,#239,.T.);
#333=ORIENTED_EDGE('',*,*,#264,.T.);
#334=ORIENTED_EDGE('',*,*,#265,.T.);
#335=ORIENTED_EDGE('',*,*,#264,.F.);
#336=ORIENTED_EDGE('',*,*,#244,.T.);
#337=ORIENTED_EDGE('',*,*,#265,.F.);
#338=ORIENTED_EDGE('',*,*,#266,.T.);
#339=ORIENTED_EDGE('',*,*,#243,.F.);
#340=ORIENTED_EDGE('',*,*,#267,.F.);
#341=ORIENTED_EDGE('',*,*,#268,.T.);
#342=ORIENTED_EDGE('',*,*,#269,.F.);
#343=ORIENTED_EDGE('',*,*,#261,.F.);
#344=ORIENTED_EDGE('',*,*,#248,.T.);
#345=ORIENTED_EDGE('',*,*,#237,.F.);
#346=ORIENTED_EDGE('',*,*,#242,.T.);
#347=ORIENTED_EDGE('',*,*,#270,.F.);
#348=ORIENTED_EDGE('',*,*,#271,.F.);
#349=ORIENTED_EDGE('',*,*,#267,.T.);
#350=ORIENTED_EDGE('',*,*,#234,.F.);
#351=ORIENTED_EDGE('',*,*,#250,.T.);
#352=ORIENTED_EDGE('',*,*,#263,.T.);
#353=ORIENTED_EDGE('',*,*,#272,.F.);
#354=ORIENTED_EDGE('',*,*,#273,.F.);
#355=ORIENTED_EDGE('',*,*,#270,.T.);
#356=ORIENTED_EDGE('',*,*,#241,.F.);
#357=ORIENTED_EDGE('',*,*,#266,.F.);
#358=ORIENTED_EDGE('',*,*,#274,.T.);
#359=ORIENTED_EDGE('',*,*,#275,.T.);
#360=ORIENTED_EDGE('',*,*,#274,.F.);
#361=ORIENTED_EDGE('',*,*,#262,.F.);
#362=ORIENTED_EDGE('',*,*,#269,.T.);
#363=ORIENTED_EDGE('',*,*,#276,.T.);
#364=ORIENTED_EDGE('',*,*,#272,.T.);
#365=ORIENTED_EDGE('',*,*,#258,.F.);
#366=ORIENTED_EDGE('',*,*,#277,.T.);
#367=ORIENTED_EDGE('',*,*,#278,.T.);
#368=ORIENTED_EDGE('',*,*,#277,.F.);
#369=ORIENTED_EDGE('',*,*,#257,.F.);
#370=ORIENTED_EDGE('',*,*,#279,.T.);
#371=ORIENTED_EDGE('',*,*,#280,.T.);
#372=ORIENTED_EDGE('',*,*,#279,.F.);
#373=ORIENTED_EDGE('',*,*,#256,.F.);
#374=ORIENTED_EDGE('',*,*,#281,.T.);
#375=ORIENTED_EDGE('',*,*,#282,.T.);
#376=ORIENTED_EDGE('',*,*,#281,.F.);
#377=ORIENTED_EDGE('',*,*,#255,.F.);
#378=ORIENTED_EDGE('',*,*,#283,.T.);
#379=ORIENTED_EDGE('',*,*,#284,.T.);
#380=ORIENTED_EDGE('',*,*,#283,.F.);
#381=ORIENTED_EDGE('',*,*,#254,.F.);
#382=ORIENTED_EDGE('',*,*,#285,.T.);
#383=ORIENTED_EDGE('',*,*,#286,.T.);
#384=ORIENTED_EDGE('',*,*,#285,.F.);
#385=ORIENTED_EDGE('',*,*,#253,.F.);
#386=ORIENTED_EDGE('',*,*,#287,.T.);
#387=ORIENTED_EDGE('',*,*,#288,.T.);
#388=ORIENTED_EDGE('',*,*,#287,.F.);
#389=ORIENTED_EDGE('',*,*,#252,.F.);
#390=ORIENTED_EDGE('',*,*,#289,.T.);
#391=ORIENTED_EDGE('',*,*,#290,.T.);
#392=ORIENTED_EDGE('',*,*,#289,.F.);
#393=ORIENTED_EDGE('',*,*,#251,.F.);
#394=ORIENTED_EDGE('',*,*,#291,.T.);
#395=ORIENTED_EDGE('',*,*,#292,.T.);
#396=ORIENTED_EDGE('',*,*,#291,.F.);
#397=ORIENTED_EDGE('',*,*,#260,.F.);
#398=ORIENTED_EDGE('',*,*,#275,.F.);
#399=ORIENTED_EDGE('',*,*,#292,.F.);
#400=ORIENTED_EDGE('',*,*,#290,.F.);
#401=ORIENTED_EDGE('',*,*,#288,.F.);
#402=ORIENTED_EDGE('',*,*,#286,.F.);
#403=ORIENTED_EDGE('',*,*,#284,.F.);
#404=ORIENTED_EDGE('',*,*,#282,.F.);
#405=ORIENTED_EDGE('',*,*,#280,.F.);
#406=ORIENTED_EDGE('',*,*,#278,.F.);
#407=ORIENTED_EDGE('',*,*,#276,.F.);
#408=ORIENTED_EDGE('',*,*,#268,.F.);
#409=ORIENTED_EDGE('',*,*,#271,.T.);
#410=ORIENTED_EDGE('',*,*,#273,.T.);
#411=TOROIDAL_SURFACE('',#451,76.5417771267777,2.);
#412=TOROIDAL_SURFACE('',#458,98.,2.);
#413=TOROIDAL_SURFACE('',#474,77.,2.);
#414=TOROIDAL_SURFACE('',#476,23.4582228732223,2.);
#415=ADVANCED_FACE('',(#93),#411,.F.);
#416=ADVANCED_FACE('',(#94),#92,.T.);
#417=ADVANCED_FACE('',(#95),#412,.T.);
#418=ADVANCED_FACE('',(#96,#27,#28,#29,#30,#31,#32,#33,#34,#35),#47,.T.);
#419=ADVANCED_FACE('',(#97),#15,.T.);
#420=ADVANCED_FACE('',(#98),#413,.T.);
#421=ADVANCED_FACE('',(#99),#414,.T.);
#422=ADVANCED_FACE('',(#100,#36),#48,.T.);
#423=ADVANCED_FACE('',(#101),#49,.T.);
#424=ADVANCED_FACE('',(#102),#16,.F.);
#425=ADVANCED_FACE('',(#103),#50,.T.);
#426=ADVANCED_FACE('',(#104),#17,.F.);
#427=ADVANCED_FACE('',(#105),#18,.F.);
#428=ADVANCED_FACE('',(#106),#19,.F.);
#429=ADVANCED_FACE('',(#107),#20,.F.);
#430=ADVANCED_FACE('',(#108),#21,.F.);
#431=ADVANCED_FACE('',(#109),#22,.F.);
#432=ADVANCED_FACE('',(#110),#23,.F.);
#433=ADVANCED_FACE('',(#111),#24,.F.);
#434=ADVANCED_FACE('',(#112),#25,.F.);
#435=ADVANCED_FACE('',(#113),#26,.F.);
#436=ADVANCED_FACE('',(#114,#37,#38,#39,#40,#41,#42,#43,#44,#45,#46),#51,
 .F.);
#437=CLOSED_SHELL('',(#415,#416,#417,#418,#419,#420,#421,#422,#423,#424,
#425,#426,#427,#428,#429,#430,#431,#432,#433,#434,#435,#436));
#438=DERIVED_UNIT_ELEMENT(#440,1.);
#439=DERIVED_UNIT_ELEMENT(#841,-3.);
#440=(
MASS_UNIT()
NAMED_UNIT(*)
SI_UNIT(.KILO.,.GRAM.)
);
#441=DERIVED_UNIT((#438,#439));
#442=MEASURE_REPRESENTATION_ITEM('density measure',
POSITIVE_RATIO_MEASURE(7850.),#441);
#443=PROPERTY_DEFINITION_REPRESENTATION(#448,#445);
#444=PROPERTY_DEFINITION_REPRESENTATION(#449,#446);
#445=REPRESENTATION('material name',(#447),#838);
#446=REPRESENTATION('density',(#442),#838);
#447=DESCRIPTIVE_REPRESENTATION_ITEM('Stahl','Stahl');
#448=PROPERTY_DEFINITION('material property','material name',#848);
#449=PROPERTY_DEFINITION('material property','density of part',#848);
#450=AXIS2_PLACEMENT_3D('',#637,#506,#507);
#451=AXIS2_PLACEMENT_3D('',#638,#508,#509);
#452=AXIS2_PLACEMENT_3D('',#652,#510,#511);
#453=AXIS2_PLACEMENT_3D('',#654,#512,#513);
#454=AXIS2_PLACEMENT_3D('',#666,#514,#515);
#455=AXIS2_PLACEMENT_3D('',#667,#516,#517);
#456=AXIS2_PLACEMENT_3D('',#670,#518,#519);
#457=AXIS2_PLACEMENT_3D('',#719,#521,#522);
#458=AXIS2_PLACEMENT_3D('',#720,#523,#524);
#459=AXIS2_PLACEMENT_3D('',#722,#525,#526);
#460=AXIS2_PLACEMENT_3D('',#724,#527,#528);
#461=AXIS2_PLACEMENT_3D('',#725,#529,#530);
#462=AXIS2_PLACEMENT_3D('',#726,#531,#532);
#463=AXIS2_PLACEMENT_3D('',#730,#534,#535);
#464=AXIS2_PLACEMENT_3D('',#733,#537,#538);
#465=AXIS2_PLACEMENT_3D('',#735,#539,#540);
#466=AXIS2_PLACEMENT_3D('',#737,#541,#542);
#467=AXIS2_PLACEMENT_3D('',#739,#543,#544);
#468=AXIS2_PLACEMENT_3D('',#741,#545,#546);
#469=AXIS2_PLACEMENT_3D('',#743,#547,#548);
#470=AXIS2_PLACEMENT_3D('',#745,#549,#550);
#471=AXIS2_PLACEMENT_3D('',#747,#551,#552);
#472=AXIS2_PLACEMENT_3D('',#748,#553,#554);
#473=AXIS2_PLACEMENT_3D('',#751,#556,#557);
#474=AXIS2_PLACEMENT_3D('',#752,#558,#559);
#475=AXIS2_PLACEMENT_3D('',#765,#560,#561);
#476=AXIS2_PLACEMENT_3D('',#776,#562,#563);
#477=AXIS2_PLACEMENT_3D('',#778,#564,#565);
#478=AXIS2_PLACEMENT_3D('',#779,#566,#567);
#479=AXIS2_PLACEMENT_3D('',#780,#568,#569);
#480=AXIS2_PLACEMENT_3D('',#782,#570,#571);
#481=AXIS2_PLACEMENT_3D('',#783,#572,#573);
#482=AXIS2_PLACEMENT_3D('',#789,#577,#578);
#483=AXIS2_PLACEMENT_3D('',#792,#580,#581);
#484=AXIS2_PLACEMENT_3D('',#793,#582,#583);
#485=AXIS2_PLACEMENT_3D('',#797,#586,#587);
#486=AXIS2_PLACEMENT_3D('',#800,#589,#590);
#487=AXIS2_PLACEMENT_3D('',#801,#591,#592);
#488=AXIS2_PLACEMENT_3D('',#802,#593,#594);
#489=AXIS2_PLACEMENT_3D('',#803,#595,#596);
#490=AXIS2_PLACEMENT_3D('',#806,#598,#599);
#491=AXIS2_PLACEMENT_3D('',#807,#600,#601);
#492=AXIS2_PLACEMENT_3D('',#810,#603,#604);
#493=AXIS2_PLACEMENT_3D('',#811,#605,#606);
#494=AXIS2_PLACEMENT_3D('',#814,#608,#609);
#495=AXIS2_PLACEMENT_3D('',#815,#610,#611);
#496=AXIS2_PLACEMENT_3D('',#818,#613,#614);
#497=AXIS2_PLACEMENT_3D('',#819,#615,#616);
#498=AXIS2_PLACEMENT_3D('',#822,#618,#619);
#499=AXIS2_PLACEMENT_3D('',#823,#620,#621);
#500=AXIS2_PLACEMENT_3D('',#826,#623,#624);
#501=AXIS2_PLACEMENT_3D('',#827,#625,#626);
#502=AXIS2_PLACEMENT_3D('',#830,#628,#629);
#503=AXIS2_PLACEMENT_3D('',#831,#630,#631);
#504=AXIS2_PLACEMENT_3D('',#834,#633,#634);
#505=AXIS2_PLACEMENT_3D('',#835,#635,#636);
#506=DIRECTION('axis',(0.,0.,1.));
#507=DIRECTION('refdir',(1.,0.,0.));
#508=DIRECTION('center_axis',(0.,0.,-1.));
#509=DIRECTION('ref_axis',(2.01686883288456E-9,1.,0.));
#510=DIRECTION('center_axis',(0.,0.,-1.));
#511=DIRECTION('ref_axis',(2.06146977266286E-9,1.,0.));
#512=DIRECTION('center_axis',(0.,0.,-1.));
#513=DIRECTION('ref_axis',(2.06146977266286E-9,1.,0.));
#514=DIRECTION('center_axis',(0.,0.,1.));
#515=DIRECTION('ref_axis',(2.0614697228729E-9,1.,0.));
#516=DIRECTION('center_axis',(0.,0.,-1.));
#517=DIRECTION('ref_axis',(1.,0.,0.));
#518=DIRECTION('center_axis',(0.,0.,1.));
#519=DIRECTION('ref_axis',(1.,6.12323399573677E-17,0.));
#520=DIRECTION('',(-0.254493299279644,-3.11664404367265E-17,-0.967074537262646));
#521=DIRECTION('center_axis',(0.,0.,1.));
#522=DIRECTION('ref_axis',(1.,6.12323399573677E-17,0.));
#523=DIRECTION('center_axis',(0.,0.,1.));
#524=DIRECTION('ref_axis',(1.,0.,0.));
#525=DIRECTION('center_axis',(0.,0.,-1.));
#526=DIRECTION('ref_axis',(1.,0.,0.));
#527=DIRECTION('center_axis',(1.22464679914735E-16,-1.,0.));
#528=DIRECTION('ref_axis',(-1.,-1.22464679914735E-16,0.));
#529=DIRECTION('center_axis',(0.,0.,1.));
#530=DIRECTION('ref_axis',(1.,0.,0.));
#531=DIRECTION('center_axis',(0.,0.,1.));
#532=DIRECTION('ref_axis',(1.,0.,0.));
#533=DIRECTION('',(-4.57262110831296E-16,1.,0.));
#534=DIRECTION('center_axis',(0.,0.,1.));
#535=DIRECTION('ref_axis',(-2.06146960040822E-9,-1.,0.));
#536=DIRECTION('',(0.,-1.,0.));
#537=DIRECTION('center_axis',(0.,0.,-1.));
#538=DIRECTION('ref_axis',(1.,0.,0.));
#539=DIRECTION('center_axis',(0.,0.,-1.));
#540=DIRECTION('ref_axis',(1.,0.,0.));
#541=DIRECTION('center_axis',(0.,0.,-1.));
#542=DIRECTION('ref_axis',(1.,0.,0.));
#543=DIRECTION('center_axis',(0.,0.,-1.));
#544=DIRECTION('ref_axis',(1.,0.,0.));
#545=DIRECTION('center_axis',(0.,0.,-1.));
#546=DIRECTION('ref_axis',(1.,0.,0.));
#547=DIRECTION('center_axis',(0.,0.,-1.));
#548=DIRECTION('ref_axis',(1.,0.,0.));
#549=DIRECTION('center_axis',(0.,0.,-1.));
#550=DIRECTION('ref_axis',(1.,0.,0.));
#551=DIRECTION('center_axis',(0.,0.,-1.));
#552=DIRECTION('ref_axis',(1.,0.,0.));
#553=DIRECTION('center_axis',(0.,0.,1.));
#554=DIRECTION('ref_axis',(1.,0.,0.));
#555=DIRECTION('',(0.,0.,-1.));
#556=DIRECTION('center_axis',(0.,0.,1.));
#557=DIRECTION('ref_axis',(1.,0.,0.));
#558=DIRECTION('center_axis',(0.,0.,-1.));
#559=DIRECTION('ref_axis',(-1.,0.,0.));
#560=DIRECTION('center_axis',(0.,0.,-1.));
#561=DIRECTION('ref_axis',(-2.06146960040822E-9,-1.,0.));
#562=DIRECTION('center_axis',(0.,0.,-1.));
#563=DIRECTION('ref_axis',(-1.,0.,0.));
#564=DIRECTION('center_axis',(-1.22464679914735E-16,-1.,0.));
#565=DIRECTION('ref_axis',(1.,-1.22464679914735E-16,0.));
#566=DIRECTION('center_axis',(0.,0.,-1.));
#567=DIRECTION('ref_axis',(1.,0.,0.));
#568=DIRECTION('center_axis',(0.,0.,1.));
#569=DIRECTION('ref_axis',(1.,0.,0.));
#570=DIRECTION('center_axis',(0.,0.,-1.));
#571=DIRECTION('ref_axis',(1.,0.,0.));
#572=DIRECTION('center_axis',(-1.,-4.57262110831296E-16,0.));
#573=DIRECTION('ref_axis',(4.57262110831296E-16,-1.,0.));
#574=DIRECTION('',(0.,0.,1.));
#575=DIRECTION('',(4.57262110831296E-16,-1.,0.));
#576=DIRECTION('',(0.,0.,-1.));
#577=DIRECTION('center_axis',(0.,0.,1.));
#578=DIRECTION('ref_axis',(-2.7903250208703E-9,1.,0.));
#579=DIRECTION('',(0.,0.,1.));
#580=DIRECTION('center_axis',(0.,0.,1.));
#581=DIRECTION('ref_axis',(1.,0.,0.));
#582=DIRECTION('center_axis',(1.,0.,0.));
#583=DIRECTION('ref_axis',(0.,1.,0.));
#584=DIRECTION('',(0.,0.,1.));
#585=DIRECTION('',(0.,-1.,0.));
#586=DIRECTION('center_axis',(0.,0.,1.));
#587=DIRECTION('ref_axis',(1.,0.,0.));
#588=DIRECTION('',(0.,0.,-1.));
#589=DIRECTION('center_axis',(0.,0.,-1.));
#590=DIRECTION('ref_axis',(1.,0.,0.));
#591=DIRECTION('center_axis',(0.,0.,1.));
#592=DIRECTION('ref_axis',(1.,0.,0.));
#593=DIRECTION('center_axis',(0.,0.,-1.));
#594=DIRECTION('ref_axis',(1.,0.,0.));
#595=DIRECTION('center_axis',(0.,0.,1.));
#596=DIRECTION('ref_axis',(1.,0.,0.));
#597=DIRECTION('',(0.,0.,-1.));
#598=DIRECTION('center_axis',(0.,0.,-1.));
#599=DIRECTION('ref_axis',(1.,0.,0.));
#600=DIRECTION('center_axis',(0.,0.,1.));
#601=DIRECTION('ref_axis',(1.,0.,0.));
#602=DIRECTION('',(0.,0.,-1.));
#603=DIRECTION('center_axis',(0.,0.,-1.));
#604=DIRECTION('ref_axis',(1.,0.,0.));
#605=DIRECTION('center_axis',(0.,0.,1.));
#606=DIRECTION('ref_axis',(1.,0.,0.));
#607=DIRECTION('',(0.,0.,-1.));
#608=DIRECTION('center_axis',(0.,0.,-1.));
#609=DIRECTION('ref_axis',(1.,0.,0.));
#610=DIRECTION('center_axis',(0.,0.,1.));
#611=DIRECTION('ref_axis',(1.,0.,0.));
#612=DIRECTION('',(0.,0.,-1.));
#613=DIRECTION('center_axis',(0.,0.,-1.));
#614=DIRECTION('ref_axis',(1.,0.,0.));
#615=DIRECTION('center_axis',(0.,0.,1.));
#616=DIRECTION('ref_axis',(1.,0.,0.));
#617=DIRECTION('',(0.,0.,-1.));
#618=DIRECTION('center_axis',(0.,0.,-1.));
#619=DIRECTION('ref_axis',(1.,0.,0.));
#620=DIRECTION('center_axis',(0.,0.,1.));
#621=DIRECTION('ref_axis',(1.,0.,0.));
#622=DIRECTION('',(0.,0.,-1.));
#623=DIRECTION('center_axis',(0.,0.,-1.));
#624=DIRECTION('ref_axis',(1.,0.,0.));
#625=DIRECTION('center_axis',(0.,0.,1.));
#626=DIRECTION('ref_axis',(1.,0.,0.));
#627=DIRECTION('',(0.,0.,-1.));
#628=DIRECTION('center_axis',(0.,0.,-1.));
#629=DIRECTION('ref_axis',(1.,0.,0.));
#630=DIRECTION('center_axis',(0.,0.,1.));
#631=DIRECTION('ref_axis',(1.,0.,0.));
#632=DIRECTION('',(0.,0.,-1.));
#633=DIRECTION('center_axis',(0.,0.,-1.));
#634=DIRECTION('ref_axis',(1.,0.,0.));
#635=DIRECTION('center_axis',(0.,0.,1.));
#636=DIRECTION('ref_axis',(1.,0.,0.));
#637=CARTESIAN_POINT('',(0.,0.,0.));
#638=CARTESIAN_POINT('Origin',(0.,0.,12.));
#639=CARTESIAN_POINT('',(-20.0000002980232,-73.8826341829011,10.));
#640=CARTESIAN_POINT('',(-20.0000002980232,-71.8769653759974,11.4910134014407));
#641=CARTESIAN_POINT('Ctrl Pts',(-20.0000002980232,-73.8826341829011,9.99999999999999));
#642=CARTESIAN_POINT('Ctrl Pts',(-20.0000002980232,-73.6239128783607,9.99999999999999));
#643=CARTESIAN_POINT('Ctrl Pts',(-20.0000002980232,-73.3191195001666,10.0590750703622));
#644=CARTESIAN_POINT('Ctrl Pts',(-20.0000002980232,-72.843717047876,10.2518415509291));
#645=CARTESIAN_POINT('Ctrl Pts',(-20.0000002980232,-72.5878889197891,10.4181459156414));
#646=CARTESIAN_POINT('Ctrl Pts',(-20.0000002980232,-72.2282880626649,10.7697487385785));
#647=CARTESIAN_POINT('Ctrl Pts',(-20.0000002980232,-72.0592995444838,11.0156661012232));
#648=CARTESIAN_POINT('Ctrl Pts',(-20.0000002980232,-71.9299913750553,11.3211088162446));
#649=CARTESIAN_POINT('Ctrl Pts',(-20.0000002980232,-71.9006109742752,11.4044487860823));
#650=CARTESIAN_POINT('Ctrl Pts',(-20.0000002980232,-71.8769653759966,11.4910134014432));
#651=CARTESIAN_POINT('',(-74.6076280522525,-9.13679928861672E-15,11.4910134014407));
#652=CARTESIAN_POINT('Origin',(-3.71471099974649E-15,0.,11.4910134014407));
#653=CARTESIAN_POINT('',(20.,-71.8769654589233,11.4910134014407));
#654=CARTESIAN_POINT('Origin',(-3.71471099974649E-15,0.,11.4910134014407));
#655=CARTESIAN_POINT('',(20.,-73.8826342635759,10.));
#656=CARTESIAN_POINT('Ctrl Pts',(20.,-71.876965458924,11.491013401438));
#657=CARTESIAN_POINT('Ctrl Pts',(20.,-71.9006110572046,11.4044487859708));
#658=CARTESIAN_POINT('Ctrl Pts',(20.,-71.9299914579962,11.3211088160282));
#659=CARTESIAN_POINT('Ctrl Pts',(20.,-72.0592996273646,11.015666100943));
#660=CARTESIAN_POINT('Ctrl Pts',(20.,-72.2282881454074,10.7697487382864));
#661=CARTESIAN_POINT('Ctrl Pts',(20.,-72.5878890022009,10.4181459154278));
#662=CARTESIAN_POINT('Ctrl Pts',(20.,-72.8437171299876,10.2518415507692));
#663=CARTESIAN_POINT('Ctrl Pts',(20.,-73.3191195816686,10.0590750703221));
#664=CARTESIAN_POINT('Ctrl Pts',(20.,-73.6239129594112,9.99999999999999));
#665=CARTESIAN_POINT('Ctrl Pts',(20.,-73.8826342635759,9.99999999999999));
#666=CARTESIAN_POINT('Origin',(0.,0.,10.));
#667=CARTESIAN_POINT('Origin',(0.,0.,105.));
#668=CARTESIAN_POINT('',(-25.3923719477475,-6.21933740571362E-15,198.508986598559));
#669=CARTESIAN_POINT('',(25.3923719477475,-3.10966870285681E-15,198.508986598559));
#670=CARTESIAN_POINT('Origin',(0.,-1.5548343514284E-15,198.508986598559));
#671=CARTESIAN_POINT('',(-50.,-6.12323399573677E-15,105.));
#672=CARTESIAN_POINT('',(-20.0000002980232,-49.42,92.4084459111432));
#673=CARTESIAN_POINT('Ctrl Pts',(-20.0000002980232,-71.8769653759965,11.4910134014437));
#674=CARTESIAN_POINT('Ctrl Pts',(-20.0000002980232,-58.7793632074788,59.4402714622973));
#675=CARTESIAN_POINT('Ctrl Pts',(-20.0000002980232,-49.42,92.4084459111432));
#676=CARTESIAN_POINT('',(20.,-49.42,92.4084463359837));
#677=CARTESIAN_POINT('Ctrl Pts',(20.,-49.42,92.4084463359837));
#678=CARTESIAN_POINT('Ctrl Pts',(20.,-46.4221565073068,102.968291621797));
#679=CARTESIAN_POINT('Ctrl Pts',(19.3235146309671,-43.6636224931562,113.556062318145));
#680=CARTESIAN_POINT('Ctrl Pts',(17.4255782935005,-39.3750250336456,131.377304939689));
#681=CARTESIAN_POINT('Ctrl Pts',(16.1644149351149,-37.3808318044551,140.280544483786));
#682=CARTESIAN_POINT('Ctrl Pts',(13.572771942981,-34.6775546298928,153.502211898416));
#683=CARTESIAN_POINT('Ctrl Pts',(12.5950411073784,-33.8230451906094,157.88470717841));
#684=CARTESIAN_POINT('Ctrl Pts',(10.9008398521349,-32.6376637615896,164.251161377612));
#685=CARTESIAN_POINT('Ctrl Pts',(10.2978893226747,-32.2585612475127,166.338329446537));
#686=CARTESIAN_POINT('Ctrl Pts',(8.98484979104244,-31.5360970895454,170.409916910166));
#687=CARTESIAN_POINT('Ctrl Pts',(8.27704301413541,-31.1926269380081,172.395052690247));
#688=CARTESIAN_POINT('Ctrl Pts',(6.93893156608158,-30.6533793210785,175.583413618321));
#689=CARTESIAN_POINT('Ctrl Pts',(6.30137982406484,-30.4229059898721,176.968364339008));
#690=CARTESIAN_POINT('Ctrl Pts',(4.8169544390082,-29.9933690056879,179.594581666127));
#691=CARTESIAN_POINT('Ctrl Pts',(3.98065556222604,-29.7933495048765,180.841655204216));
#692=CARTESIAN_POINT('Ctrl Pts',(2.57677416006675,-29.5827678668512,182.169188542906));
#693=CARTESIAN_POINT('Ctrl Pts',(2.11209428078719,-29.5252957739149,182.533575521403));
#694=CARTESIAN_POINT('Ctrl Pts',(1.09517836195395,-29.4434940338275,183.053829316986));
#695=CARTESIAN_POINT('Ctrl Pts',(0.539971283082095,-29.42,183.204));
#696=CARTESIAN_POINT('Ctrl Pts',(-0.539971283082071,-29.42,183.204));
#697=CARTESIAN_POINT('Ctrl Pts',(-1.09517836195393,-29.4434940338275,183.053829316986));
#698=CARTESIAN_POINT('Ctrl Pts',(-2.11209428078716,-29.5252957739149,182.533575521403));
#699=CARTESIAN_POINT('Ctrl Pts',(-2.57677416006674,-29.5827678668512,182.169188542906));
#700=CARTESIAN_POINT('Ctrl Pts',(-3.98065556222603,-29.7933495048765,180.841655204216));
#701=CARTESIAN_POINT('Ctrl Pts',(-4.8169544390082,-29.9933690056879,179.594581666127));
#702=CARTESIAN_POINT('Ctrl Pts',(-6.30137982406484,-30.4229059898721,176.968364339008));
#703=CARTESIAN_POINT('Ctrl Pts',(-6.93893156608157,-30.6533793210785,175.583413618321));
#704=CARTESIAN_POINT('Ctrl Pts',(-8.2770430141354,-31.1926269380081,172.395052690247));
#705=CARTESIAN_POINT('Ctrl Pts',(-8.98484979104241,-31.5360970895454,170.409916910166));
#706=CARTESIAN_POINT('Ctrl Pts',(-10.2978893226746,-32.2585612475127,166.338329446537));
#707=CARTESIAN_POINT('Ctrl Pts',(-10.9008398521349,-32.6376637615896,164.251161377612));
#708=CARTESIAN_POINT('Ctrl Pts',(-12.5950411073783,-33.8230451906094,157.88470717841));
#709=CARTESIAN_POINT('Ctrl Pts',(-13.572771942981,-34.6775546298928,153.502211898416));
#710=CARTESIAN_POINT('Ctrl Pts',(-16.1644149351149,-37.3808318044551,140.280544483786));
#711=CARTESIAN_POINT('Ctrl Pts',(-17.4255782935005,-39.3750250336456,131.377304939689));
#712=CARTESIAN_POINT('Ctrl Pts',(-18.2890393136113,-41.3261108862809,123.269578653053));
#713=CARTESIAN_POINT('Ctrl Pts',(-19.3235146440285,-43.6636225226701,113.556062195501));
#714=CARTESIAN_POINT('Ctrl Pts',(-20.0000000167299,-46.422156568741,102.968291384903));
#715=CARTESIAN_POINT('Ctrl Pts',(-20.,-49.420000111613,92.4084459428291));
#716=CARTESIAN_POINT('Ctrl Pts',(20.,-49.42,92.4084463359837));
#717=CARTESIAN_POINT('Ctrl Pts',(20.,-58.7793632306159,59.4402717364964));
#718=CARTESIAN_POINT('Ctrl Pts',(20.,-71.8769654589224,11.4910134014437));
#719=CARTESIAN_POINT('Origin',(0.,-1.5548343514284E-15,198.508986598559));
#720=CARTESIAN_POINT('Origin',(0.,0.,8.));
#721=CARTESIAN_POINT('',(-98.,1.20015386316441E-14,10.));
#722=CARTESIAN_POINT('Origin',(0.,0.,10.));
#723=CARTESIAN_POINT('',(-100.,-1.22464679914735E-14,8.));
#724=CARTESIAN_POINT('Origin',(-98.,-1.20015386316441E-14,8.));
#725=CARTESIAN_POINT('Origin',(0.,0.,8.));
#726=CARTESIAN_POINT('Origin',(0.,0.,10.));
#727=CARTESIAN_POINT('',(20.,-74.3572457800852,10.));
#728=CARTESIAN_POINT('',(20.,-24.71,10.));
#729=CARTESIAN_POINT('',(-20.0000002980232,-74.3572456999254,10.));
#730=CARTESIAN_POINT('Origin',(0.,0.,10.));
#731=CARTESIAN_POINT('',(-20.0000002980232,-36.142080695773,10.));
#732=CARTESIAN_POINT('',(57.6718433538229,61.8718433538229,10.));
#733=CARTESIAN_POINT('Origin',(61.8718433538229,61.8718433538229,10.));
#734=CARTESIAN_POINT('',(83.3,-1.77635683940025E-14,10.));
#735=CARTESIAN_POINT('Origin',(87.5,-1.94289029309402E-14,10.));
#736=CARTESIAN_POINT('',(-66.0718433538229,61.8718433538229,10.));
#737=CARTESIAN_POINT('Origin',(-61.8718433538229,61.8718433538229,10.));
#738=CARTESIAN_POINT('',(-4.20000000000001,-87.5,10.));
#739=CARTESIAN_POINT('Origin',(-1.07156594925393E-14,-87.5,10.));
#740=CARTESIAN_POINT('',(-91.7,-1.77635683940025E-14,10.));
#741=CARTESIAN_POINT('Origin',(-87.5,-1.94289029309402E-14,10.));
#742=CARTESIAN_POINT('',(-4.2,87.5,10.));
#743=CARTESIAN_POINT('Origin',(0.,87.5,10.));
#744=CARTESIAN_POINT('',(-66.0718433538229,-61.8718433538229,10.));
#745=CARTESIAN_POINT('Origin',(-61.8718433538229,-61.8718433538229,10.));
#746=CARTESIAN_POINT('',(57.6718433538229,-61.8718433538229,10.));
#747=CARTESIAN_POINT('Origin',(61.8718433538229,-61.8718433538229,10.));
#748=CARTESIAN_POINT('Origin',(0.,0.,0.));
#749=CARTESIAN_POINT('',(-100.,-1.22464679914735E-14,0.));
#750=CARTESIAN_POINT('',(-100.,-1.22464679914735E-14,0.));
#751=CARTESIAN_POINT('Origin',(0.,0.,0.));
#752=CARTESIAN_POINT('Origin',(0.,0.,8.));
#753=CARTESIAN_POINT('',(20.,-72.2841614740048,8.));
#754=CARTESIAN_POINT('Ctrl Pts',(20.,-72.2841614740048,8.));
#755=CARTESIAN_POINT('Ctrl Pts',(20.,-72.2841614740048,8.24397128730856));
#756=CARTESIAN_POINT('Ctrl Pts',(20.,-72.3428038578743,8.53080352925276));
#757=CARTESIAN_POINT('Ctrl Pts',(20.,-72.5347995535103,8.98444730850192));
#758=CARTESIAN_POINT('Ctrl Pts',(20.,-72.7037314136753,9.23036924858148));
#759=CARTESIAN_POINT('Ctrl Pts',(20.,-73.0631977954856,9.58194014633073));
#760=CARTESIAN_POINT('Ctrl Pts',(20.,-73.3189043562673,9.74822262781632));
#761=CARTESIAN_POINT('Ctrl Pts',(20.,-73.7940617816035,9.94094115234908));
#762=CARTESIAN_POINT('Ctrl Pts',(20.,-74.0986746907212,10.));
#763=CARTESIAN_POINT('Ctrl Pts',(20.,-74.3572457800852,10.));
#764=CARTESIAN_POINT('',(-20.0000002980232,-72.284161391546,8.));
#765=CARTESIAN_POINT('Origin',(0.,0.,8.));
#766=CARTESIAN_POINT('Ctrl Pts',(-20.0000002980232,-74.3572456999254,10.));
#767=CARTESIAN_POINT('Ctrl Pts',(-20.0000002980232,-74.0986746101907,10.));
#768=CARTESIAN_POINT('Ctrl Pts',(-20.0000002980232,-73.7940617006275,9.94094115230949));
#769=CARTESIAN_POINT('Ctrl Pts',(-20.0000002980232,-73.3189042746898,9.74822262765849));
#770=CARTESIAN_POINT('Ctrl Pts',(-20.0000002980232,-73.0631977136119,9.58194014611987));
#771=CARTESIAN_POINT('Ctrl Pts',(-20.0000002980232,-72.7037313314754,9.23036924829313));
#772=CARTESIAN_POINT('Ctrl Pts',(-20.0000002980232,-72.5347994711738,8.98444730822533));
#773=CARTESIAN_POINT('Ctrl Pts',(-20.0000002980232,-72.3428037754421,8.53080352905125));
#774=CARTESIAN_POINT('Ctrl Pts',(-20.0000002980232,-72.284161391546,8.24397128722043));
#775=CARTESIAN_POINT('Ctrl Pts',(-20.0000002980232,-72.284161391546,8.));
#776=CARTESIAN_POINT('Origin',(0.,0.,198.));
#777=CARTESIAN_POINT('',(23.4582228732223,-2.87280375553769E-15,200.));
#778=CARTESIAN_POINT('Origin',(23.4582228732223,-2.87280375553769E-15,198.));
#779=CARTESIAN_POINT('Origin',(0.,0.,200.));
#780=CARTESIAN_POINT('Origin',(0.,1.3579192629976,200.));
#781=CARTESIAN_POINT('',(-15.2,-1.86146313470398E-15,200.));
#782=CARTESIAN_POINT('Origin',(0.,0.,200.));
#783=CARTESIAN_POINT('Origin',(20.,-49.42,0.));
#784=CARTESIAN_POINT('',(20.,-49.42,0.));
#785=CARTESIAN_POINT('',(20.,-49.42,0.));
#786=CARTESIAN_POINT('',(20.,-72.2841614740048,0.));
#787=CARTESIAN_POINT('',(20.,-49.42,0.));
#788=CARTESIAN_POINT('',(20.,-72.2841614740048,0.));
#789=CARTESIAN_POINT('Origin',(0.,-49.42,0.));
#790=CARTESIAN_POINT('',(-20.0000002980232,-49.42,0.));
#791=CARTESIAN_POINT('',(-20.0000002980232,-49.42,0.));
#792=CARTESIAN_POINT('Origin',(0.,-49.42,0.));
#793=CARTESIAN_POINT('Origin',(-20.0000002980232,-72.284161391546,0.));
#794=CARTESIAN_POINT('',(-20.0000002980232,-72.284161391546,0.));
#795=CARTESIAN_POINT('',(-20.0000002980232,-72.284161391546,0.));
#796=CARTESIAN_POINT('',(-20.0000002980232,-49.42,0.));
#797=CARTESIAN_POINT('Origin',(0.,0.,0.));
#798=CARTESIAN_POINT('',(-15.2,-1.86146313470398E-15,0.));
#799=CARTESIAN_POINT('',(-15.2,-1.86146313470398E-15,0.));
#800=CARTESIAN_POINT('Origin',(0.,0.,0.));
#801=CARTESIAN_POINT('Origin',(0.,0.,0.));
#802=CARTESIAN_POINT('Origin',(0.,0.,0.));
#803=CARTESIAN_POINT('Origin',(61.8718433538229,-61.8718433538229,0.));
#804=CARTESIAN_POINT('',(57.6718433538229,-61.8718433538229,0.));
#805=CARTESIAN_POINT('',(57.6718433538229,-61.8718433538229,0.));
#806=CARTESIAN_POINT('Origin',(61.8718433538229,-61.8718433538229,0.));
#807=CARTESIAN_POINT('Origin',(-61.8718433538229,-61.8718433538229,0.));
#808=CARTESIAN_POINT('',(-66.0718433538229,-61.8718433538229,0.));
#809=CARTESIAN_POINT('',(-66.0718433538229,-61.8718433538229,0.));
#810=CARTESIAN_POINT('Origin',(-61.8718433538229,-61.8718433538229,0.));
#811=CARTESIAN_POINT('Origin',(0.,87.5,0.));
#812=CARTESIAN_POINT('',(-4.2,87.5,0.));
#813=CARTESIAN_POINT('',(-4.2,87.5,0.));
#814=CARTESIAN_POINT('Origin',(0.,87.5,0.));
#815=CARTESIAN_POINT('Origin',(-87.5,-1.94289029309402E-14,0.));
#816=CARTESIAN_POINT('',(-91.7,-1.99432545865821E-14,0.));
#817=CARTESIAN_POINT('',(-91.7,-1.99432545865821E-14,0.));
#818=CARTESIAN_POINT('Origin',(-87.5,-1.94289029309402E-14,0.));
#819=CARTESIAN_POINT('Origin',(-1.07156594925393E-14,-87.5,0.));
#820=CARTESIAN_POINT('',(-4.20000000000001,-87.5,0.));
#821=CARTESIAN_POINT('',(-4.20000000000001,-87.5,0.));
#822=CARTESIAN_POINT('Origin',(-1.07156594925393E-14,-87.5,0.));
#823=CARTESIAN_POINT('Origin',(-61.8718433538229,61.8718433538229,0.));
#824=CARTESIAN_POINT('',(-66.0718433538229,61.8718433538229,0.));
#825=CARTESIAN_POINT('',(-66.0718433538229,61.8718433538229,0.));
#826=CARTESIAN_POINT('Origin',(-61.8718433538229,61.8718433538229,0.));
#827=CARTESIAN_POINT('Origin',(87.5,-1.94289029309402E-14,0.));
#828=CARTESIAN_POINT('',(83.3,-1.99432545865821E-14,0.));
#829=CARTESIAN_POINT('',(83.3,-1.99432545865821E-14,0.));
#830=CARTESIAN_POINT('Origin',(87.5,-1.94289029309402E-14,0.));
#831=CARTESIAN_POINT('Origin',(61.8718433538229,61.8718433538229,0.));
#832=CARTESIAN_POINT('',(57.6718433538229,61.8718433538229,0.));
#833=CARTESIAN_POINT('',(57.6718433538229,61.8718433538229,0.));
#834=CARTESIAN_POINT('Origin',(61.8718433538229,61.8718433538229,0.));
#835=CARTESIAN_POINT('Origin',(0.,0.,0.));
#836=UNCERTAINTY_MEASURE_WITH_UNIT(LENGTH_MEASURE(0.01),#840,
'DISTANCE_ACCURACY_VALUE',
'Maximum model space distance between geometric entities at asserted c
onnectivities');
#837=UNCERTAINTY_MEASURE_WITH_UNIT(LENGTH_MEASURE(0.01),#840,
'DISTANCE_ACCURACY_VALUE',
'Maximum model space distance between geometric entities at asserted c
onnectivities');
#838=(
GEOMETRIC_REPRESENTATION_CONTEXT(3)
GLOBAL_UNCERTAINTY_ASSIGNED_CONTEXT((#836))
GLOBAL_UNIT_ASSIGNED_CONTEXT((#840,#842,#843))
REPRESENTATION_CONTEXT('','3D')
);
#839=(
GEOMETRIC_REPRESENTATION_CONTEXT(3)
GLOBAL_UNCERTAINTY_ASSIGNED_CONTEXT((#837))
GLOBAL_UNIT_ASSIGNED_CONTEXT((#840,#842,#843))
REPRESENTATION_CONTEXT('','3D')
);
#840=(
LENGTH_UNIT()
NAMED_UNIT(*)
SI_UNIT(.MILLI.,.METRE.)
);
#841=(
LENGTH_UNIT()
NAMED_UNIT(*)
SI_UNIT($,.METRE.)
);
#842=(
NAMED_UNIT(*)
PLANE_ANGLE_UNIT()
SI_UNIT($,.RADIAN.)
);
#843=(
NAMED_UNIT(*)
SI_UNIT($,.STERADIAN.)
SOLID_ANGLE_UNIT()
);
#844=SHAPE_DEFINITION_REPRESENTATION(#845,#846);
#845=PRODUCT_DEFINITION_SHAPE('',$,#848);
#846=SHAPE_REPRESENTATION('',(#450),#838);
#847=PRODUCT_DEFINITION_CONTEXT('part definition',#852,'design');
#848=PRODUCT_DEFINITION('2026-03-20-12-15-29-059','Cone Bottom',#849,#847);
#849=PRODUCT_DEFINITION_FORMATION('',$,#854);
#850=PRODUCT_RELATED_PRODUCT_CATEGORY('Cone Bottom','Cone Bottom',(#854));
#851=APPLICATION_PROTOCOL_DEFINITION('international standard',
'automotive_design',2009,#852);
#852=APPLICATION_CONTEXT(
'Core Data for Automotive Mechanical Design Process');
#853=PRODUCT_CONTEXT('part definition',#852,'mechanical');
#854=PRODUCT('2026-03-20-12-15-29-059','Cone Bottom',$,(#853));
#855=PRESENTATION_STYLE_ASSIGNMENT((#857));
#856=PRESENTATION_STYLE_ASSIGNMENT((#858));
#857=SURFACE_STYLE_USAGE(.BOTH.,#859);
#858=SURFACE_STYLE_USAGE(.BOTH.,#860);
#859=SURFACE_SIDE_STYLE('',(#861));
#860=SURFACE_SIDE_STYLE('',(#862));
#861=SURFACE_STYLE_FILL_AREA(#863);
#862=SURFACE_STYLE_FILL_AREA(#864);
#863=FILL_AREA_STYLE('Stahl - satiniert',(#865));
#864=FILL_AREA_STYLE('ABS (Schwarz)',(#866));
#865=FILL_AREA_STYLE_COLOUR('Stahl - satiniert',#867);
#866=FILL_AREA_STYLE_COLOUR('ABS (Schwarz)',#868);
#867=COLOUR_RGB('Stahl - satiniert',0.627450980392157,0.627450980392157,
0.627450980392157);
#868=COLOUR_RGB('ABS (Schwarz)',0.0627450980392157,0.0627450980392157,0.0627450980392157);
ENDSEC;
END-ISO-10303-21;
