ISO-10303-21;
HEADER;
/* Generated by software containing ST-Developer
 * from STEP Tools, Inc. (www.steptools.com) 
 */

FILE_DESCRIPTION(
/* description */ (''),
/* implementation_level */ '2;1');

FILE_NAME(
/* name */ 'Pacifier.step',
/* time_stamp */ '2026-03-20T15:13:55+01:00',
/* author */ (''),
/* organization */ (''),
/* preprocessor_version */ 'ST-DEVELOPER v20.1',
/* originating_system */ 'Autodesk Translation Framework v14.24.0.0',
/* authorisation */ '');

FILE_SCHEMA (('AUTOMOTIVE_DESIGN { 1 0 10303 214 3 1 1 }'));
ENDSEC;

DATA;
#10=MECHANICAL_DESIGN_GEOMETRIC_PRESENTATION_REPRESENTATION('',(#13),#1089);
#11=SHAPE_REPRESENTATION_RELATIONSHIP('SRR','None',#1096,#12);
#12=ADVANCED_BREP_SHAPE_REPRESENTATION('',(#14),#1088);
#13=STYLED_ITEM('',(#1106),#14);
#14=MANIFOLD_SOLID_BREP('Pacifier',#442);
#15=B_SPLINE_SURFACE_WITH_KNOTS('',3,3,((#967,#968,#969,#970,#971,#972),
(#973,#974,#975,#976,#977,#978),(#979,#980,#981,#982,#983,#984),(#985,#986,
#987,#988,#989,#990),(#991,#992,#993,#994,#995,#996),(#997,#998,#999,#1000,
#1001,#1002),(#1003,#1004,#1005,#1006,#1007,#1008),(#1009,#1010,#1011,#1012,
#1013,#1014),(#1015,#1016,#1017,#1018,#1019,#1020),(#1021,#1022,#1023,#1024,
#1025,#1026),(#1027,#1028,#1029,#1030,#1031,#1032),(#1033,#1034,#1035,#1036,
#1037,#1038)),.UNSPECIFIED.,.T.,.F.,.F.,(4,1,1,1,1,1,1,1,1,4),(4,2,4),(-3.14159265358979,
-2.69279370307697,-2.24399475256414,-1.34639685153848,-0.448798950512828,
0.448798950512828,1.34639685153848,2.24399475256414,2.69279370307697,3.14159265358979),
(2.92017078060088,3.01917847985266,3.36286346755885),.UNSPECIFIED.);
#16=FACE_BOUND('',#135,.T.);
#17=FACE_BOUND('',#137,.T.);
#18=PLANE('',#510);
#19=PLANE('',#512);
#20=PLANE('',#514);
#21=PLANE('',#520);
#22=TOROIDAL_SURFACE('',#476,22.5,2.5);
#23=TOROIDAL_SURFACE('',#480,17.5,2.5);
#24=TOROIDAL_SURFACE('',#484,22.5,2.5);
#25=TOROIDAL_SURFACE('',#489,52.5,2.5);
#26=TOROIDAL_SURFACE('',#492,52.5,2.5);
#27=TOROIDAL_SURFACE('',#497,22.5,2.5);
#28=TOROIDAL_SURFACE('',#501,17.5,2.5);
#29=TOROIDAL_SURFACE('',#505,22.5,2.5);
#30=B_SPLINE_CURVE_WITH_KNOTS('',3,(#710,#711,#712,#713,#714,#715,#716,
#717,#718,#719,#720,#721,#722,#723,#724,#725,#726,#727,#728,#729,#730),
 .UNSPECIFIED.,.F.,.F.,(4,3,2,2,2,2,2,2,2,4),(-0.0869589983637053,0.,0.0973904873745834,
0.197650645982036,0.274784306057071,0.324514928963099,0.377937243805476,
0.415928002017215,0.446204248168585,0.450194980384699),.UNSPECIFIED.);
#31=B_SPLINE_CURVE_WITH_KNOTS('',3,(#767,#768,#769,#770,#771,#772,#773,
#774,#775,#776,#777,#778,#779,#780,#781,#782,#783,#784,#785,#786),
 .UNSPECIFIED.,.F.,.F.,(4,2,2,2,2,2,2,2,2,4),(-1.23425269446999,-1.19562857471159,
-1.10422465853346,-0.995911068666396,-0.917420867198464,-0.836877967255736,
-0.729194682599479,-0.609220570696143,-0.526973722514021,-0.463860017156398),
 .UNSPECIFIED.);
#32=B_SPLINE_CURVE_WITH_KNOTS('',3,(#817,#818,#819,#820,#821,#822,#823,
#824,#825,#826,#827,#828,#829,#830,#831,#832,#833,#834,#835,#836,#837,#838,
#839,#840,#841,#842,#843,#844,#845,#846,#847,#848,#849,#850,#851,#852,#853,
#854,#855,#856,#857,#858,#859,#860,#861,#862,#863,#864,#865,#866,#867,#868,
#869,#870,#871,#872,#873,#874,#875,#876,#877,#878,#879,#880,#881,#882,#883,
#884,#885,#886,#887,#888,#889,#890,#891,#892,#893,#894,#895,#896,#897,#898,
#899,#900,#901,#902,#903,#904,#905,#906,#907,#908,#909,#910,#911,#912,#913,
#914,#915,#916,#917,#918,#919,#920,#921,#922,#923,#924,#925,#926,#927,#928,
#929,#930,#931,#932,#933,#934,#935,#936,#937,#938,#939,#940,#941,#942,#943,
#944,#945,#946,#947,#948,#949,#950,#951,#952,#953,#954,#955),
 .UNSPECIFIED.,.F.,.F.,(4,3,3,3,3,3,3,3,3,3,3,3,3,3,3,3,3,3,3,3,3,3,3,3,
3,3,3,3,3,3,3,3,3,3,3,3,3,3,3,3,3,3,3,3,3,3,4),(2.4419955979269,2.4756742747527,
2.50932667442756,2.54233209648369,2.55923504390067,2.56585530149784,2.59881062878582,
2.63184657198511,2.6657101978089,2.69767661064974,2.73184126464423,2.766175783124,
2.80025550487584,2.83433522662769,2.86873919830645,2.87121132765605,2.90507251809587,
2.93989144920245,2.97471038030904,3.00982202269702,3.0441623353757,3.07965964261833,
3.11274550544257,3.11515694986096,3.14985898935168,3.1845610288424,3.21849210830323,
3.25221743621698,3.28584132416331,3.31963395966948,3.35296923016532,3.3849804126438,
3.41872394638223,3.45225658423366,3.48504179248287,3.49234764126354,3.51501040523557,
3.54765283651261,3.58086308506873,3.6143987034924,3.644954817949,3.645969306828,
3.67927545068335,3.71296081086773,3.74669810492856,3.77722504948295,3.80102651987709),
 .UNSPECIFIED.);
#33=B_SPLINE_CURVE_WITH_KNOTS('',3,(#956,#957,#958,#959),.UNSPECIFIED.,
 .F.,.F.,(4,4),(1.62696726433948,1.62782331639869),.UNSPECIFIED.);
#34=B_SPLINE_CURVE_WITH_KNOTS('',3,(#1040,#1041,#1042,#1043,#1044,#1045),
 .UNSPECIFIED.,.F.,.F.,(4,2,4),(2.95325832086558,3.01917847985266,3.33650883176348),
 .UNSPECIFIED.);
#35=B_SPLINE_CURVE_WITH_KNOTS('',3,(#1046,#1047,#1048,#1049,#1050,#1051,
#1052,#1053,#1054,#1055,#1056,#1057,#1058,#1059,#1060,#1061,#1062,#1063,
#1064,#1065,#1066,#1067,#1068),.UNSPECIFIED.,.F.,.F.,(4,2,2,2,2,2,2,2,3,
2,4),(1.26664740773141,1.33795461202437,1.46871906664152,1.60414624749479,
1.74393359184454,1.88482361179028,2.02296607806169,2.09831226731699,2.17366580443062,
2.30379424152285,2.33222722549322),.UNSPECIFIED.);
#36=B_SPLINE_CURVE_WITH_KNOTS('',3,(#1069,#1070,#1071,#1072,#1073,#1074,
#1075,#1076),.UNSPECIFIED.,.F.,.F.,(4,2,2,4),(0.158561421062598,0.259846458114823,
0.391667460251255,0.409447665914013),.UNSPECIFIED.);
#37=LINE('',#695,#56);
#38=LINE('',#696,#57);
#39=LINE('',#705,#58);
#40=LINE('',#706,#59);
#41=LINE('',#732,#60);
#42=LINE('',#735,#61);
#43=LINE('',#736,#62);
#44=LINE('',#756,#63);
#45=LINE('',#757,#64);
#46=LINE('',#788,#65);
#47=LINE('',#791,#66);
#48=LINE('',#792,#67);
#49=LINE('',#812,#68);
#50=LINE('',#813,#69);
#51=LINE('',#815,#70);
#52=LINE('',#1078,#71);
#53=LINE('',#1080,#72);
#54=LINE('',#1081,#73);
#55=LINE('',#1083,#74);
#56=VECTOR('',#549,10.);
#57=VECTOR('',#550,10.);
#58=VECTOR('',#561,10.);
#59=VECTOR('',#562,10.);
#60=VECTOR('',#565,10.);
#61=VECTOR('',#568,10.);
#62=VECTOR('',#569,10.);
#63=VECTOR('',#596,10.);
#64=VECTOR('',#597,10.);
#65=VECTOR('',#612,10.);
#66=VECTOR('',#615,10.);
#67=VECTOR('',#616,10.);
#68=VECTOR('',#643,10.);
#69=VECTOR('',#644,10.);
#70=VECTOR('',#647,10.);
#71=VECTOR('',#660,15.2);
#72=VECTOR('',#663,10.);
#73=VECTOR('',#664,10.);
#74=VECTOR('',#667,10.);
#75=CYLINDRICAL_SURFACE('',#468,2.5);
#76=CYLINDRICAL_SURFACE('',#473,2.5);
#77=CYLINDRICAL_SURFACE('',#474,2.5);
#78=CYLINDRICAL_SURFACE('',#488,2.5);
#79=CYLINDRICAL_SURFACE('',#495,2.5);
#80=CYLINDRICAL_SURFACE('',#509,2.5);
#81=CYLINDRICAL_SURFACE('',#511,55.);
#82=CYLINDRICAL_SURFACE('',#516,15.2);
#83=CYLINDRICAL_SURFACE('',#517,20.);
#84=CYLINDRICAL_SURFACE('',#518,20.);
#85=CYLINDRICAL_SURFACE('',#519,20.);
#86=FACE_OUTER_BOUND('',#114,.T.);
#87=FACE_OUTER_BOUND('',#115,.T.);
#88=FACE_OUTER_BOUND('',#116,.T.);
#89=FACE_OUTER_BOUND('',#117,.T.);
#90=FACE_OUTER_BOUND('',#118,.T.);
#91=FACE_OUTER_BOUND('',#119,.T.);
#92=FACE_OUTER_BOUND('',#120,.T.);
#93=FACE_OUTER_BOUND('',#121,.T.);
#94=FACE_OUTER_BOUND('',#122,.T.);
#95=FACE_OUTER_BOUND('',#123,.T.);
#96=FACE_OUTER_BOUND('',#124,.T.);
#97=FACE_OUTER_BOUND('',#125,.T.);
#98=FACE_OUTER_BOUND('',#126,.T.);
#99=FACE_OUTER_BOUND('',#127,.T.);
#100=FACE_OUTER_BOUND('',#128,.T.);
#101=FACE_OUTER_BOUND('',#129,.T.);
#102=FACE_OUTER_BOUND('',#130,.T.);
#103=FACE_OUTER_BOUND('',#131,.T.);
#104=FACE_OUTER_BOUND('',#132,.T.);
#105=FACE_OUTER_BOUND('',#133,.T.);
#106=FACE_OUTER_BOUND('',#134,.T.);
#107=FACE_OUTER_BOUND('',#136,.T.);
#108=FACE_OUTER_BOUND('',#138,.T.);
#109=FACE_OUTER_BOUND('',#139,.T.);
#110=FACE_OUTER_BOUND('',#140,.T.);
#111=FACE_OUTER_BOUND('',#141,.T.);
#112=FACE_OUTER_BOUND('',#142,.T.);
#113=FACE_OUTER_BOUND('',#143,.T.);
#114=EDGE_LOOP('',(#282,#283,#284));
#115=EDGE_LOOP('',(#285,#286,#287));
#116=EDGE_LOOP('',(#288,#289,#290));
#117=EDGE_LOOP('',(#291,#292,#293,#294));
#118=EDGE_LOOP('',(#295,#296,#297));
#119=EDGE_LOOP('',(#298,#299,#300,#301));
#120=EDGE_LOOP('',(#302,#303,#304,#305,#306,#307));
#121=EDGE_LOOP('',(#308,#309,#310,#311));
#122=EDGE_LOOP('',(#312,#313,#314,#315));
#123=EDGE_LOOP('',(#316,#317,#318,#319));
#124=EDGE_LOOP('',(#320,#321,#322,#323));
#125=EDGE_LOOP('',(#324,#325,#326,#327));
#126=EDGE_LOOP('',(#328,#329,#330,#331));
#127=EDGE_LOOP('',(#332,#333,#334,#335,#336,#337));
#128=EDGE_LOOP('',(#338,#339,#340,#341));
#129=EDGE_LOOP('',(#342,#343,#344,#345));
#130=EDGE_LOOP('',(#346,#347,#348,#349));
#131=EDGE_LOOP('',(#350,#351,#352,#353));
#132=EDGE_LOOP('',(#354,#355,#356,#357,#358,#359,#360));
#133=EDGE_LOOP('',(#361,#362,#363,#364));
#134=EDGE_LOOP('',(#365,#366,#367,#368,#369,#370));
#135=EDGE_LOOP('',(#371));
#136=EDGE_LOOP('',(#372,#373,#374,#375,#376,#377));
#137=EDGE_LOOP('',(#378));
#138=EDGE_LOOP('',(#379,#380,#381,#382,#383,#384,#385,#386));
#139=EDGE_LOOP('',(#387,#388,#389,#390));
#140=EDGE_LOOP('',(#391,#392,#393,#394));
#141=EDGE_LOOP('',(#395,#396,#397,#398));
#142=EDGE_LOOP('',(#399,#400,#401,#402));
#143=EDGE_LOOP('',(#403,#404,#405,#406,#407,#408,#409));
#144=CIRCLE('',#457,2.49999999999999);
#145=CIRCLE('',#458,2.5);
#146=CIRCLE('',#459,2.5);
#147=CIRCLE('',#461,2.5);
#148=CIRCLE('',#462,2.49999999999999);
#149=CIRCLE('',#463,2.5);
#150=CIRCLE('',#465,2.5);
#151=CIRCLE('',#466,2.5);
#152=CIRCLE('',#467,2.5);
#153=CIRCLE('',#470,2.49999999999999);
#154=CIRCLE('',#471,2.5);
#155=CIRCLE('',#472,2.5);
#156=CIRCLE('',#475,2.5);
#157=CIRCLE('',#477,2.5);
#158=CIRCLE('',#478,22.5);
#159=CIRCLE('',#479,20.);
#160=CIRCLE('',#481,2.5);
#161=CIRCLE('',#482,17.5);
#162=CIRCLE('',#483,20.);
#163=CIRCLE('',#485,2.5);
#164=CIRCLE('',#486,22.5);
#165=CIRCLE('',#487,20.);
#166=CIRCLE('',#490,52.5);
#167=CIRCLE('',#491,55.);
#168=CIRCLE('',#493,52.5);
#169=CIRCLE('',#494,55.);
#170=CIRCLE('',#496,2.5);
#171=CIRCLE('',#498,2.5);
#172=CIRCLE('',#499,22.5);
#173=CIRCLE('',#500,20.);
#174=CIRCLE('',#502,2.5);
#175=CIRCLE('',#503,17.5);
#176=CIRCLE('',#504,20.);
#177=CIRCLE('',#506,2.5);
#178=CIRCLE('',#507,22.5);
#179=CIRCLE('',#508,20.);
#180=CIRCLE('',#513,15.2);
#181=CIRCLE('',#515,15.2);
#182=VERTEX_POINT('',#674);
#183=VERTEX_POINT('',#675);
#184=VERTEX_POINT('',#677);
#185=VERTEX_POINT('',#681);
#186=VERTEX_POINT('',#682);
#187=VERTEX_POINT('',#684);
#188=VERTEX_POINT('',#688);
#189=VERTEX_POINT('',#689);
#190=VERTEX_POINT('',#691);
#191=VERTEX_POINT('',#698);
#192=VERTEX_POINT('',#699);
#193=VERTEX_POINT('',#701);
#194=VERTEX_POINT('',#708);
#195=VERTEX_POINT('',#709);
#196=VERTEX_POINT('',#731);
#197=VERTEX_POINT('',#733);
#198=VERTEX_POINT('',#738);
#199=VERTEX_POINT('',#739);
#200=VERTEX_POINT('',#744);
#201=VERTEX_POINT('',#745);
#202=VERTEX_POINT('',#750);
#203=VERTEX_POINT('',#751);
#204=VERTEX_POINT('',#765);
#205=VERTEX_POINT('',#766);
#206=VERTEX_POINT('',#787);
#207=VERTEX_POINT('',#789);
#208=VERTEX_POINT('',#794);
#209=VERTEX_POINT('',#795);
#210=VERTEX_POINT('',#800);
#211=VERTEX_POINT('',#801);
#212=VERTEX_POINT('',#806);
#213=VERTEX_POINT('',#807);
#214=VERTEX_POINT('',#816);
#215=VERTEX_POINT('',#962);
#216=VERTEX_POINT('',#965);
#217=VERTEX_POINT('',#1039);
#218=EDGE_CURVE('',#182,#183,#144,.F.);
#219=EDGE_CURVE('',#184,#182,#145,.F.);
#220=EDGE_CURVE('',#183,#184,#146,.F.);
#221=EDGE_CURVE('',#185,#186,#147,.F.);
#222=EDGE_CURVE('',#187,#185,#148,.F.);
#223=EDGE_CURVE('',#186,#187,#149,.F.);
#224=EDGE_CURVE('',#188,#189,#150,.F.);
#225=EDGE_CURVE('',#190,#188,#151,.F.);
#226=EDGE_CURVE('',#189,#190,#152,.F.);
#227=EDGE_CURVE('',#188,#184,#37,.T.);
#228=EDGE_CURVE('',#182,#190,#38,.T.);
#229=EDGE_CURVE('',#191,#192,#153,.F.);
#230=EDGE_CURVE('',#193,#191,#154,.F.);
#231=EDGE_CURVE('',#192,#193,#155,.F.);
#232=EDGE_CURVE('',#191,#187,#39,.T.);
#233=EDGE_CURVE('',#185,#193,#40,.T.);
#234=EDGE_CURVE('',#194,#195,#30,.T.);
#235=EDGE_CURVE('',#195,#196,#41,.T.);
#236=EDGE_CURVE('',#196,#197,#156,.T.);
#237=EDGE_CURVE('',#197,#192,#42,.T.);
#238=EDGE_CURVE('',#193,#194,#43,.T.);
#239=EDGE_CURVE('',#198,#199,#157,.T.);
#240=EDGE_CURVE('',#199,#197,#158,.T.);
#241=EDGE_CURVE('',#196,#198,#159,.T.);
#242=EDGE_CURVE('',#200,#201,#160,.T.);
#243=EDGE_CURVE('',#201,#199,#161,.T.);
#244=EDGE_CURVE('',#198,#200,#162,.T.);
#245=EDGE_CURVE('',#202,#203,#163,.T.);
#246=EDGE_CURVE('',#203,#201,#164,.T.);
#247=EDGE_CURVE('',#200,#202,#165,.T.);
#248=EDGE_CURVE('',#189,#203,#44,.T.);
#249=EDGE_CURVE('',#202,#188,#45,.T.);
#250=EDGE_CURVE('',#192,#189,#166,.T.);
#251=EDGE_CURVE('',#190,#191,#167,.T.);
#252=EDGE_CURVE('',#183,#186,#168,.T.);
#253=EDGE_CURVE('',#187,#182,#169,.T.);
#254=EDGE_CURVE('',#204,#205,#31,.T.);
#255=EDGE_CURVE('',#205,#206,#46,.T.);
#256=EDGE_CURVE('',#206,#207,#170,.T.);
#257=EDGE_CURVE('',#207,#183,#47,.T.);
#258=EDGE_CURVE('',#184,#204,#48,.T.);
#259=EDGE_CURVE('',#208,#209,#171,.T.);
#260=EDGE_CURVE('',#209,#207,#172,.T.);
#261=EDGE_CURVE('',#206,#208,#173,.T.);
#262=EDGE_CURVE('',#210,#211,#174,.T.);
#263=EDGE_CURVE('',#211,#209,#175,.T.);
#264=EDGE_CURVE('',#208,#210,#176,.T.);
#265=EDGE_CURVE('',#212,#213,#177,.T.);
#266=EDGE_CURVE('',#213,#211,#178,.T.);
#267=EDGE_CURVE('',#210,#212,#179,.T.);
#268=EDGE_CURVE('',#186,#213,#49,.T.);
#269=EDGE_CURVE('',#212,#185,#50,.T.);
#270=EDGE_CURVE('',#212,#196,#51,.T.);
#271=EDGE_CURVE('',#195,#214,#32,.T.);
#272=EDGE_CURVE('',#214,#194,#33,.T.);
#273=EDGE_CURVE('',#215,#215,#180,.T.);
#274=EDGE_CURVE('',#216,#216,#181,.T.);
#275=EDGE_CURVE('',#217,#214,#34,.T.);
#276=EDGE_CURVE('',#205,#217,#35,.T.);
#277=EDGE_CURVE('',#217,#204,#36,.T.);
#278=EDGE_CURVE('',#215,#216,#52,.T.);
#279=EDGE_CURVE('',#208,#200,#53,.T.);
#280=EDGE_CURVE('',#202,#206,#54,.T.);
#281=EDGE_CURVE('',#210,#198,#55,.T.);
#282=ORIENTED_EDGE('',*,*,#218,.F.);
#283=ORIENTED_EDGE('',*,*,#219,.F.);
#284=ORIENTED_EDGE('',*,*,#220,.F.);
#285=ORIENTED_EDGE('',*,*,#221,.F.);
#286=ORIENTED_EDGE('',*,*,#222,.F.);
#287=ORIENTED_EDGE('',*,*,#223,.F.);
#288=ORIENTED_EDGE('',*,*,#224,.F.);
#289=ORIENTED_EDGE('',*,*,#225,.F.);
#290=ORIENTED_EDGE('',*,*,#226,.F.);
#291=ORIENTED_EDGE('',*,*,#225,.T.);
#292=ORIENTED_EDGE('',*,*,#227,.T.);
#293=ORIENTED_EDGE('',*,*,#219,.T.);
#294=ORIENTED_EDGE('',*,*,#228,.T.);
#295=ORIENTED_EDGE('',*,*,#229,.F.);
#296=ORIENTED_EDGE('',*,*,#230,.F.);
#297=ORIENTED_EDGE('',*,*,#231,.F.);
#298=ORIENTED_EDGE('',*,*,#230,.T.);
#299=ORIENTED_EDGE('',*,*,#232,.T.);
#300=ORIENTED_EDGE('',*,*,#222,.T.);
#301=ORIENTED_EDGE('',*,*,#233,.T.);
#302=ORIENTED_EDGE('',*,*,#234,.T.);
#303=ORIENTED_EDGE('',*,*,#235,.T.);
#304=ORIENTED_EDGE('',*,*,#236,.T.);
#305=ORIENTED_EDGE('',*,*,#237,.T.);
#306=ORIENTED_EDGE('',*,*,#231,.T.);
#307=ORIENTED_EDGE('',*,*,#238,.T.);
#308=ORIENTED_EDGE('',*,*,#239,.T.);
#309=ORIENTED_EDGE('',*,*,#240,.T.);
#310=ORIENTED_EDGE('',*,*,#236,.F.);
#311=ORIENTED_EDGE('',*,*,#241,.T.);
#312=ORIENTED_EDGE('',*,*,#242,.T.);
#313=ORIENTED_EDGE('',*,*,#243,.T.);
#314=ORIENTED_EDGE('',*,*,#239,.F.);
#315=ORIENTED_EDGE('',*,*,#244,.T.);
#316=ORIENTED_EDGE('',*,*,#245,.T.);
#317=ORIENTED_EDGE('',*,*,#246,.T.);
#318=ORIENTED_EDGE('',*,*,#242,.F.);
#319=ORIENTED_EDGE('',*,*,#247,.T.);
#320=ORIENTED_EDGE('',*,*,#224,.T.);
#321=ORIENTED_EDGE('',*,*,#248,.T.);
#322=ORIENTED_EDGE('',*,*,#245,.F.);
#323=ORIENTED_EDGE('',*,*,#249,.T.);
#324=ORIENTED_EDGE('',*,*,#229,.T.);
#325=ORIENTED_EDGE('',*,*,#250,.T.);
#326=ORIENTED_EDGE('',*,*,#226,.T.);
#327=ORIENTED_EDGE('',*,*,#251,.T.);
#328=ORIENTED_EDGE('',*,*,#218,.T.);
#329=ORIENTED_EDGE('',*,*,#252,.T.);
#330=ORIENTED_EDGE('',*,*,#223,.T.);
#331=ORIENTED_EDGE('',*,*,#253,.T.);
#332=ORIENTED_EDGE('',*,*,#254,.T.);
#333=ORIENTED_EDGE('',*,*,#255,.T.);
#334=ORIENTED_EDGE('',*,*,#256,.T.);
#335=ORIENTED_EDGE('',*,*,#257,.T.);
#336=ORIENTED_EDGE('',*,*,#220,.T.);
#337=ORIENTED_EDGE('',*,*,#258,.T.);
#338=ORIENTED_EDGE('',*,*,#259,.T.);
#339=ORIENTED_EDGE('',*,*,#260,.T.);
#340=ORIENTED_EDGE('',*,*,#256,.F.);
#341=ORIENTED_EDGE('',*,*,#261,.T.);
#342=ORIENTED_EDGE('',*,*,#262,.T.);
#343=ORIENTED_EDGE('',*,*,#263,.T.);
#344=ORIENTED_EDGE('',*,*,#259,.F.);
#345=ORIENTED_EDGE('',*,*,#264,.T.);
#346=ORIENTED_EDGE('',*,*,#265,.T.);
#347=ORIENTED_EDGE('',*,*,#266,.T.);
#348=ORIENTED_EDGE('',*,*,#262,.F.);
#349=ORIENTED_EDGE('',*,*,#267,.T.);
#350=ORIENTED_EDGE('',*,*,#221,.T.);
#351=ORIENTED_EDGE('',*,*,#268,.T.);
#352=ORIENTED_EDGE('',*,*,#265,.F.);
#353=ORIENTED_EDGE('',*,*,#269,.T.);
#354=ORIENTED_EDGE('',*,*,#238,.F.);
#355=ORIENTED_EDGE('',*,*,#233,.F.);
#356=ORIENTED_EDGE('',*,*,#269,.F.);
#357=ORIENTED_EDGE('',*,*,#270,.T.);
#358=ORIENTED_EDGE('',*,*,#235,.F.);
#359=ORIENTED_EDGE('',*,*,#271,.T.);
#360=ORIENTED_EDGE('',*,*,#272,.T.);
#361=ORIENTED_EDGE('',*,*,#232,.F.);
#362=ORIENTED_EDGE('',*,*,#251,.F.);
#363=ORIENTED_EDGE('',*,*,#228,.F.);
#364=ORIENTED_EDGE('',*,*,#253,.F.);
#365=ORIENTED_EDGE('',*,*,#237,.F.);
#366=ORIENTED_EDGE('',*,*,#240,.F.);
#367=ORIENTED_EDGE('',*,*,#243,.F.);
#368=ORIENTED_EDGE('',*,*,#246,.F.);
#369=ORIENTED_EDGE('',*,*,#248,.F.);
#370=ORIENTED_EDGE('',*,*,#250,.F.);
#371=ORIENTED_EDGE('',*,*,#273,.T.);
#372=ORIENTED_EDGE('',*,*,#252,.F.);
#373=ORIENTED_EDGE('',*,*,#257,.F.);
#374=ORIENTED_EDGE('',*,*,#260,.F.);
#375=ORIENTED_EDGE('',*,*,#263,.F.);
#376=ORIENTED_EDGE('',*,*,#266,.F.);
#377=ORIENTED_EDGE('',*,*,#268,.F.);
#378=ORIENTED_EDGE('',*,*,#274,.T.);
#379=ORIENTED_EDGE('',*,*,#234,.F.);
#380=ORIENTED_EDGE('',*,*,#272,.F.);
#381=ORIENTED_EDGE('',*,*,#275,.F.);
#382=ORIENTED_EDGE('',*,*,#276,.F.);
#383=ORIENTED_EDGE('',*,*,#254,.F.);
#384=ORIENTED_EDGE('',*,*,#277,.F.);
#385=ORIENTED_EDGE('',*,*,#275,.T.);
#386=ORIENTED_EDGE('',*,*,#271,.F.);
#387=ORIENTED_EDGE('',*,*,#273,.F.);
#388=ORIENTED_EDGE('',*,*,#278,.T.);
#389=ORIENTED_EDGE('',*,*,#274,.F.);
#390=ORIENTED_EDGE('',*,*,#278,.F.);
#391=ORIENTED_EDGE('',*,*,#247,.F.);
#392=ORIENTED_EDGE('',*,*,#279,.F.);
#393=ORIENTED_EDGE('',*,*,#261,.F.);
#394=ORIENTED_EDGE('',*,*,#280,.F.);
#395=ORIENTED_EDGE('',*,*,#244,.F.);
#396=ORIENTED_EDGE('',*,*,#281,.F.);
#397=ORIENTED_EDGE('',*,*,#264,.F.);
#398=ORIENTED_EDGE('',*,*,#279,.T.);
#399=ORIENTED_EDGE('',*,*,#241,.F.);
#400=ORIENTED_EDGE('',*,*,#270,.F.);
#401=ORIENTED_EDGE('',*,*,#267,.F.);
#402=ORIENTED_EDGE('',*,*,#281,.T.);
#403=ORIENTED_EDGE('',*,*,#249,.F.);
#404=ORIENTED_EDGE('',*,*,#280,.T.);
#405=ORIENTED_EDGE('',*,*,#255,.F.);
#406=ORIENTED_EDGE('',*,*,#276,.T.);
#407=ORIENTED_EDGE('',*,*,#277,.T.);
#408=ORIENTED_EDGE('',*,*,#258,.F.);
#409=ORIENTED_EDGE('',*,*,#227,.F.);
#410=SPHERICAL_SURFACE('',#456,2.5);
#411=SPHERICAL_SURFACE('',#460,2.49999999999999);
#412=SPHERICAL_SURFACE('',#464,2.5);
#413=SPHERICAL_SURFACE('',#469,2.5);
#414=ADVANCED_FACE('',(#86),#410,.T.);
#415=ADVANCED_FACE('',(#87),#411,.T.);
#416=ADVANCED_FACE('',(#88),#412,.T.);
#417=ADVANCED_FACE('',(#89),#75,.T.);
#418=ADVANCED_FACE('',(#90),#413,.T.);
#419=ADVANCED_FACE('',(#91),#76,.T.);
#420=ADVANCED_FACE('',(#92),#77,.T.);
#421=ADVANCED_FACE('',(#93),#22,.T.);
#422=ADVANCED_FACE('',(#94),#23,.T.);
#423=ADVANCED_FACE('',(#95),#24,.T.);
#424=ADVANCED_FACE('',(#96),#78,.T.);
#425=ADVANCED_FACE('',(#97),#25,.T.);
#426=ADVANCED_FACE('',(#98),#26,.T.);
#427=ADVANCED_FACE('',(#99),#79,.T.);
#428=ADVANCED_FACE('',(#100),#27,.T.);
#429=ADVANCED_FACE('',(#101),#28,.T.);
#430=ADVANCED_FACE('',(#102),#29,.T.);
#431=ADVANCED_FACE('',(#103),#80,.T.);
#432=ADVANCED_FACE('',(#104),#18,.T.);
#433=ADVANCED_FACE('',(#105),#81,.T.);
#434=ADVANCED_FACE('',(#106,#16),#19,.T.);
#435=ADVANCED_FACE('',(#107,#17),#20,.F.);
#436=ADVANCED_FACE('',(#108),#15,.F.);
#437=ADVANCED_FACE('',(#109),#82,.F.);
#438=ADVANCED_FACE('',(#110),#83,.F.);
#439=ADVANCED_FACE('',(#111),#84,.T.);
#440=ADVANCED_FACE('',(#112),#85,.F.);
#441=ADVANCED_FACE('',(#113),#21,.T.);
#442=CLOSED_SHELL('',(#414,#415,#416,#417,#418,#419,#420,#421,#422,#423,
#424,#425,#426,#427,#428,#429,#430,#431,#432,#433,#434,#435,#436,#437,#438,
#439,#440,#441));
#443=DERIVED_UNIT_ELEMENT(#445,1.);
#444=DERIVED_UNIT_ELEMENT(#1091,-3.);
#445=(
MASS_UNIT()
NAMED_UNIT(*)
SI_UNIT(.KILO.,.GRAM.)
);
#446=DERIVED_UNIT((#443,#444));
#447=MEASURE_REPRESENTATION_ITEM('density measure',
POSITIVE_RATIO_MEASURE(7850.),#446);
#448=PROPERTY_DEFINITION_REPRESENTATION(#453,#450);
#449=PROPERTY_DEFINITION_REPRESENTATION(#454,#451);
#450=REPRESENTATION('material name',(#452),#1088);
#451=REPRESENTATION('density',(#447),#1088);
#452=DESCRIPTIVE_REPRESENTATION_ITEM('Stahl','Stahl');
#453=PROPERTY_DEFINITION('material property','material name',#1098);
#454=PROPERTY_DEFINITION('material property','density of part',#1098);
#455=AXIS2_PLACEMENT_3D('',#672,#521,#522);
#456=AXIS2_PLACEMENT_3D('',#673,#523,#524);
#457=AXIS2_PLACEMENT_3D('',#676,#525,#526);
#458=AXIS2_PLACEMENT_3D('',#678,#527,#528);
#459=AXIS2_PLACEMENT_3D('',#679,#529,#530);
#460=AXIS2_PLACEMENT_3D('',#680,#531,#532);
#461=AXIS2_PLACEMENT_3D('',#683,#533,#534);
#462=AXIS2_PLACEMENT_3D('',#685,#535,#536);
#463=AXIS2_PLACEMENT_3D('',#686,#537,#538);
#464=AXIS2_PLACEMENT_3D('',#687,#539,#540);
#465=AXIS2_PLACEMENT_3D('',#690,#541,#542);
#466=AXIS2_PLACEMENT_3D('',#692,#543,#544);
#467=AXIS2_PLACEMENT_3D('',#693,#545,#546);
#468=AXIS2_PLACEMENT_3D('',#694,#547,#548);
#469=AXIS2_PLACEMENT_3D('',#697,#551,#552);
#470=AXIS2_PLACEMENT_3D('',#700,#553,#554);
#471=AXIS2_PLACEMENT_3D('',#702,#555,#556);
#472=AXIS2_PLACEMENT_3D('',#703,#557,#558);
#473=AXIS2_PLACEMENT_3D('',#704,#559,#560);
#474=AXIS2_PLACEMENT_3D('',#707,#563,#564);
#475=AXIS2_PLACEMENT_3D('',#734,#566,#567);
#476=AXIS2_PLACEMENT_3D('',#737,#570,#571);
#477=AXIS2_PLACEMENT_3D('',#740,#572,#573);
#478=AXIS2_PLACEMENT_3D('',#741,#574,#575);
#479=AXIS2_PLACEMENT_3D('',#742,#576,#577);
#480=AXIS2_PLACEMENT_3D('',#743,#578,#579);
#481=AXIS2_PLACEMENT_3D('',#746,#580,#581);
#482=AXIS2_PLACEMENT_3D('',#747,#582,#583);
#483=AXIS2_PLACEMENT_3D('',#748,#584,#585);
#484=AXIS2_PLACEMENT_3D('',#749,#586,#587);
#485=AXIS2_PLACEMENT_3D('',#752,#588,#589);
#486=AXIS2_PLACEMENT_3D('',#753,#590,#591);
#487=AXIS2_PLACEMENT_3D('',#754,#592,#593);
#488=AXIS2_PLACEMENT_3D('',#755,#594,#595);
#489=AXIS2_PLACEMENT_3D('',#758,#598,#599);
#490=AXIS2_PLACEMENT_3D('',#759,#600,#601);
#491=AXIS2_PLACEMENT_3D('',#760,#602,#603);
#492=AXIS2_PLACEMENT_3D('',#761,#604,#605);
#493=AXIS2_PLACEMENT_3D('',#762,#606,#607);
#494=AXIS2_PLACEMENT_3D('',#763,#608,#609);
#495=AXIS2_PLACEMENT_3D('',#764,#610,#611);
#496=AXIS2_PLACEMENT_3D('',#790,#613,#614);
#497=AXIS2_PLACEMENT_3D('',#793,#617,#618);
#498=AXIS2_PLACEMENT_3D('',#796,#619,#620);
#499=AXIS2_PLACEMENT_3D('',#797,#621,#622);
#500=AXIS2_PLACEMENT_3D('',#798,#623,#624);
#501=AXIS2_PLACEMENT_3D('',#799,#625,#626);
#502=AXIS2_PLACEMENT_3D('',#802,#627,#628);
#503=AXIS2_PLACEMENT_3D('',#803,#629,#630);
#504=AXIS2_PLACEMENT_3D('',#804,#631,#632);
#505=AXIS2_PLACEMENT_3D('',#805,#633,#634);
#506=AXIS2_PLACEMENT_3D('',#808,#635,#636);
#507=AXIS2_PLACEMENT_3D('',#809,#637,#638);
#508=AXIS2_PLACEMENT_3D('',#810,#639,#640);
#509=AXIS2_PLACEMENT_3D('',#811,#641,#642);
#510=AXIS2_PLACEMENT_3D('',#814,#645,#646);
#511=AXIS2_PLACEMENT_3D('',#960,#648,#649);
#512=AXIS2_PLACEMENT_3D('',#961,#650,#651);
#513=AXIS2_PLACEMENT_3D('',#963,#652,#653);
#514=AXIS2_PLACEMENT_3D('',#964,#654,#655);
#515=AXIS2_PLACEMENT_3D('',#966,#656,#657);
#516=AXIS2_PLACEMENT_3D('',#1077,#658,#659);
#517=AXIS2_PLACEMENT_3D('',#1079,#661,#662);
#518=AXIS2_PLACEMENT_3D('',#1082,#665,#666);
#519=AXIS2_PLACEMENT_3D('',#1084,#668,#669);
#520=AXIS2_PLACEMENT_3D('',#1085,#670,#671);
#521=DIRECTION('axis',(0.,0.,1.));
#522=DIRECTION('refdir',(1.,0.,0.));
#523=DIRECTION('center_axis',(-0.837772853485518,-0.410921103699505,0.359555965737066));
#524=DIRECTION('ref_axis',(-0.546018906231948,0.630488324991281,-0.55167728436737));
#525=DIRECTION('center_axis',(0.142857142857143,0.989743318610787,-8.79068656632486E-16));
#526=DIRECTION('ref_axis',(-0.989743318610787,0.142857142857143,0.));
#527=DIRECTION('center_axis',(0.,0.,-1.));
#528=DIRECTION('ref_axis',(0.,1.,0.));
#529=DIRECTION('center_axis',(-1.,0.,0.));
#530=DIRECTION('ref_axis',(0.,0.,-1.));
#531=DIRECTION('center_axis',(-0.83777285348552,0.410921103699501,0.359555965737064));
#532=DIRECTION('ref_axis',(-0.546018906231945,-0.630488324991282,-0.551677284367372));
#533=DIRECTION('center_axis',(-1.,0.,-3.5527136788005E-15));
#534=DIRECTION('ref_axis',(0.,-1.,0.));
#535=DIRECTION('center_axis',(0.,0.,-1.));
#536=DIRECTION('ref_axis',(-0.989743318610787,-0.142857142857143,0.));
#537=DIRECTION('center_axis',(0.142857142857143,-0.989743318610787,0.));
#538=DIRECTION('ref_axis',(0.,0.,-1.));
#539=DIRECTION('center_axis',(-0.837772853485518,-0.410921103699504,-0.359555965737066));
#540=DIRECTION('ref_axis',(-0.546018906231946,0.630488324991281,0.551677284367371));
#541=DIRECTION('center_axis',(-1.,0.,0.));
#542=DIRECTION('ref_axis',(0.,1.,0.));
#543=DIRECTION('center_axis',(0.,0.,1.));
#544=DIRECTION('ref_axis',(-0.989743318610787,0.142857142857143,0.));
#545=DIRECTION('center_axis',(0.142857142857143,0.989743318610787,0.));
#546=DIRECTION('ref_axis',(0.,0.,1.));
#547=DIRECTION('center_axis',(0.,0.,1.));
#548=DIRECTION('ref_axis',(-0.654653670707979,0.755928946018453,0.));
#549=DIRECTION('',(0.,0.,-1.));
#550=DIRECTION('',(0.,0.,1.));
#551=DIRECTION('center_axis',(-0.83777285348552,0.410921103699502,-0.359555965737064));
#552=DIRECTION('ref_axis',(-0.546018906231947,-0.630488324991281,0.551677284367372));
#553=DIRECTION('center_axis',(0.142857142857144,-0.989743318610787,-1.31860298494873E-15));
#554=DIRECTION('ref_axis',(-0.989743318610787,-0.142857142857144,0.));
#555=DIRECTION('center_axis',(0.,0.,1.));
#556=DIRECTION('ref_axis',(0.,-1.,0.));
#557=DIRECTION('center_axis',(-1.,3.5527136788005E-15,0.));
#558=DIRECTION('ref_axis',(0.,0.,1.));
#559=DIRECTION('center_axis',(0.,0.,1.));
#560=DIRECTION('ref_axis',(-0.654653670707976,-0.755928946018455,0.));
#561=DIRECTION('',(0.,0.,-1.));
#562=DIRECTION('',(0.,0.,1.));
#563=DIRECTION('center_axis',(1.,0.,0.));
#564=DIRECTION('ref_axis',(0.,-0.707106781186547,0.707106781186547));
#565=DIRECTION('',(1.,0.,0.));
#566=DIRECTION('center_axis',(-1.,0.,0.));
#567=DIRECTION('ref_axis',(0.,-1.,0.));
#568=DIRECTION('',(-1.,0.,0.));
#569=DIRECTION('',(1.,0.,0.));
#570=DIRECTION('center_axis',(0.,0.,-1.));
#571=DIRECTION('ref_axis',(-1.,0.,0.));
#572=DIRECTION('center_axis',(-0.750000000000001,0.661437827766147,0.));
#573=DIRECTION('ref_axis',(-0.661437827766147,-0.75,0.));
#574=DIRECTION('center_axis',(0.,0.,1.));
#575=DIRECTION('ref_axis',(0.353553390593273,0.935414346693485,0.));
#576=DIRECTION('center_axis',(0.,0.,-1.));
#577=DIRECTION('ref_axis',(0.353553390593273,0.935414346693486,0.));
#578=DIRECTION('center_axis',(0.,0.,1.));
#579=DIRECTION('ref_axis',(1.,0.,0.));
#580=DIRECTION('center_axis',(0.75,0.661437827766148,0.));
#581=DIRECTION('ref_axis',(-0.661437827766148,0.75,0.));
#582=DIRECTION('center_axis',(0.,0.,-1.));
#583=DIRECTION('ref_axis',(1.,-2.22044604925031E-16,0.));
#584=DIRECTION('center_axis',(0.,0.,1.));
#585=DIRECTION('ref_axis',(1.,-2.22044604925031E-16,0.));
#586=DIRECTION('center_axis',(0.,0.,-1.));
#587=DIRECTION('ref_axis',(-1.,0.,0.));
#588=DIRECTION('center_axis',(1.,0.,0.));
#589=DIRECTION('ref_axis',(0.,1.,0.));
#590=DIRECTION('center_axis',(0.,0.,1.));
#591=DIRECTION('ref_axis',(0.353553390593274,-0.935414346693485,0.));
#592=DIRECTION('center_axis',(0.,0.,-1.));
#593=DIRECTION('ref_axis',(0.353553390593274,-0.935414346693485,0.));
#594=DIRECTION('center_axis',(-1.,0.,0.));
#595=DIRECTION('ref_axis',(0.,0.707106781186547,0.707106781186547));
#596=DIRECTION('',(1.,0.,0.));
#597=DIRECTION('',(-1.,0.,0.));
#598=DIRECTION('center_axis',(0.,0.,1.));
#599=DIRECTION('ref_axis',(-1.,-1.22464679914735E-16,0.));
#600=DIRECTION('center_axis',(0.,0.,-1.));
#601=DIRECTION('ref_axis',(-1.,1.21115239050017E-16,0.));
#602=DIRECTION('center_axis',(0.,0.,1.));
#603=DIRECTION('ref_axis',(-1.,1.21115239050017E-16,0.));
#604=DIRECTION('center_axis',(0.,0.,-1.));
#605=DIRECTION('ref_axis',(-1.,0.,0.));
#606=DIRECTION('center_axis',(0.,0.,1.));
#607=DIRECTION('ref_axis',(-1.,1.21115239050017E-16,0.));
#608=DIRECTION('center_axis',(0.,0.,-1.));
#609=DIRECTION('ref_axis',(-1.,1.21115239050017E-16,0.));
#610=DIRECTION('center_axis',(1.,0.,0.));
#611=DIRECTION('ref_axis',(0.,0.707106781186547,-0.707106781186547));
#612=DIRECTION('',(1.,0.,0.));
#613=DIRECTION('center_axis',(-1.,0.,0.));
#614=DIRECTION('ref_axis',(0.,1.,0.));
#615=DIRECTION('',(-1.,0.,0.));
#616=DIRECTION('',(1.,0.,0.));
#617=DIRECTION('center_axis',(0.,0.,1.));
#618=DIRECTION('ref_axis',(1.,0.,0.));
#619=DIRECTION('center_axis',(-0.75,-0.661437827766148,0.));
#620=DIRECTION('ref_axis',(-0.661437827766148,0.75,0.));
#621=DIRECTION('center_axis',(0.,0.,-1.));
#622=DIRECTION('ref_axis',(0.353553390593274,-0.935414346693485,0.));
#623=DIRECTION('center_axis',(0.,0.,1.));
#624=DIRECTION('ref_axis',(0.353553390593274,-0.935414346693485,0.));
#625=DIRECTION('center_axis',(0.,0.,-1.));
#626=DIRECTION('ref_axis',(1.,-1.22464679914735E-16,0.));
#627=DIRECTION('center_axis',(0.75,-0.661437827766148,0.));
#628=DIRECTION('ref_axis',(-0.661437827766148,-0.75,0.));
#629=DIRECTION('center_axis',(0.,0.,1.));
#630=DIRECTION('ref_axis',(1.,-2.22044604925031E-16,0.));
#631=DIRECTION('center_axis',(0.,0.,-1.));
#632=DIRECTION('ref_axis',(1.,-2.22044604925031E-16,0.));
#633=DIRECTION('center_axis',(0.,0.,1.));
#634=DIRECTION('ref_axis',(1.,0.,0.));
#635=DIRECTION('center_axis',(1.,0.,0.));
#636=DIRECTION('ref_axis',(0.,-1.,0.));
#637=DIRECTION('center_axis',(0.,0.,-1.));
#638=DIRECTION('ref_axis',(0.353553390593273,0.935414346693485,0.));
#639=DIRECTION('center_axis',(0.,0.,1.));
#640=DIRECTION('ref_axis',(0.353553390593273,0.935414346693486,0.));
#641=DIRECTION('center_axis',(-1.,0.,0.));
#642=DIRECTION('ref_axis',(0.,-0.707106781186547,-0.707106781186547));
#643=DIRECTION('',(1.,0.,0.));
#644=DIRECTION('',(-1.,0.,0.));
#645=DIRECTION('center_axis',(0.,-1.,0.));
#646=DIRECTION('ref_axis',(1.,0.,0.));
#647=DIRECTION('',(0.,0.,1.));
#648=DIRECTION('center_axis',(0.,0.,1.));
#649=DIRECTION('ref_axis',(-0.983332166035633,0.181818181818182,0.));
#650=DIRECTION('center_axis',(0.,0.,1.));
#651=DIRECTION('ref_axis',(1.,0.,0.));
#652=DIRECTION('center_axis',(0.,0.,-1.));
#653=DIRECTION('ref_axis',(1.,0.,0.));
#654=DIRECTION('center_axis',(0.,0.,1.));
#655=DIRECTION('ref_axis',(1.,0.,0.));
#656=DIRECTION('center_axis',(0.,0.,1.));
#657=DIRECTION('ref_axis',(1.,0.,0.));
#658=DIRECTION('center_axis',(0.,0.,1.));
#659=DIRECTION('ref_axis',(1.,0.,0.));
#660=DIRECTION('',(0.,0.,-1.));
#661=DIRECTION('center_axis',(0.,0.,1.));
#662=DIRECTION('ref_axis',(0.,-1.,0.));
#663=DIRECTION('',(0.,0.,1.));
#664=DIRECTION('',(0.,0.,-1.));
#665=DIRECTION('center_axis',(0.,0.,1.));
#666=DIRECTION('ref_axis',(1.,-2.22044604925031E-16,0.));
#667=DIRECTION('',(0.,0.,1.));
#668=DIRECTION('center_axis',(0.,0.,1.));
#669=DIRECTION('ref_axis',(0.661437827766147,0.750000000000001,0.));
#670=DIRECTION('center_axis',(0.,1.,0.));
#671=DIRECTION('ref_axis',(-1.,0.,0.));
#672=CARTESIAN_POINT('',(0.,0.,0.));
#673=CARTESIAN_POINT('Origin',(-51.9615242270663,7.5,17.251));
#674=CARTESIAN_POINT('',(-54.4358825235933,7.85714285714286,17.251));
#675=CARTESIAN_POINT('',(-51.9615242270663,7.5,14.751));
#676=CARTESIAN_POINT('Origin',(-51.9615242270663,7.5,17.251));
#677=CARTESIAN_POINT('',(-51.9615242270663,10.,17.251));
#678=CARTESIAN_POINT('Origin',(-51.9615242270663,7.5,17.251));
#679=CARTESIAN_POINT('Origin',(-51.9615242270663,7.5,17.251));
#680=CARTESIAN_POINT('Origin',(-51.9615242270663,-7.5,17.251));
#681=CARTESIAN_POINT('',(-51.9615242270663,-10.,17.251));
#682=CARTESIAN_POINT('',(-51.9615242270663,-7.5,14.751));
#683=CARTESIAN_POINT('Origin',(-51.9615242270663,-7.5,17.251));
#684=CARTESIAN_POINT('',(-54.4358825235933,-7.85714285714285,17.251));
#685=CARTESIAN_POINT('Origin',(-51.9615242270663,-7.5,17.251));
#686=CARTESIAN_POINT('Origin',(-51.9615242270663,-7.5,17.251));
#687=CARTESIAN_POINT('Origin',(-51.9615242270663,7.5,22.251));
#688=CARTESIAN_POINT('',(-51.9615242270663,10.,22.251));
#689=CARTESIAN_POINT('',(-51.9615242270663,7.5,24.751));
#690=CARTESIAN_POINT('Origin',(-51.9615242270663,7.5,22.251));
#691=CARTESIAN_POINT('',(-54.4358825235933,7.85714285714286,22.251));
#692=CARTESIAN_POINT('Origin',(-51.9615242270663,7.5,22.251));
#693=CARTESIAN_POINT('Origin',(-51.9615242270663,7.5,22.251));
#694=CARTESIAN_POINT('Origin',(-51.9615242270663,7.5,19.751));
#695=CARTESIAN_POINT('',(-51.9615242270663,10.,19.751));
#696=CARTESIAN_POINT('',(-54.4358825235933,7.85714285714286,19.751));
#697=CARTESIAN_POINT('Origin',(-51.9615242270663,-7.5,22.251));
#698=CARTESIAN_POINT('',(-54.4358825235933,-7.85714285714286,22.251));
#699=CARTESIAN_POINT('',(-51.9615242270663,-7.5,24.751));
#700=CARTESIAN_POINT('Origin',(-51.9615242270663,-7.5,22.251));
#701=CARTESIAN_POINT('',(-51.9615242270663,-10.,22.251));
#702=CARTESIAN_POINT('Origin',(-51.9615242270663,-7.5,22.251));
#703=CARTESIAN_POINT('Origin',(-51.9615242270663,-7.5,22.251));
#704=CARTESIAN_POINT('Origin',(-51.9615242270663,-7.5,19.751));
#705=CARTESIAN_POINT('',(-54.4358825235933,-7.85714285714286,19.751));
#706=CARTESIAN_POINT('',(-51.9615242270663,-10.,19.751));
#707=CARTESIAN_POINT('Origin',(-35.7916345659799,-7.5,22.251));
#708=CARTESIAN_POINT('',(-51.5545420418922,-10.,22.2509999998654));
#709=CARTESIAN_POINT('',(-45.1482035048639,-10.,22.2509999778404));
#710=CARTESIAN_POINT('Ctrl Pts',(-51.554542041842,-10.,22.2509999998429));
#711=CARTESIAN_POINT('Ctrl Pts',(-51.4307975864101,-10.0000000000173,22.5269716378895));
#712=CARTESIAN_POINT('Ctrl Pts',(-51.2814220978784,-9.95493585629315,22.7780146538903));
#713=CARTESIAN_POINT('Ctrl Pts',(-51.1094737192289,-9.88496375509322,23.0006318342304));
#714=CARTESIAN_POINT('Ctrl Pts',(-50.9168986353956,-9.80659789110312,23.2499538836933));
#715=CARTESIAN_POINT('Ctrl Pts',(-50.6961244092933,-9.69633281947746,23.4638228009596));
#716=CARTESIAN_POINT('Ctrl Pts',(-50.1966869044194,-9.45765159772073,23.8210628188275));
#717=CARTESIAN_POINT('Ctrl Pts',(-49.9261918212642,-9.3339387692939,23.9554806346647));
#718=CARTESIAN_POINT('Ctrl Pts',(-49.426666501286,-9.16034927807642,24.1229617198511));
#719=CARTESIAN_POINT('Ctrl Pts',(-49.1106590251742,-9.06581301039195,24.20023646119));
#720=CARTESIAN_POINT('Ctrl Pts',(-48.4837694516412,-9.01917430271077,24.2366099772735));
#721=CARTESIAN_POINT('Ctrl Pts',(-48.1237674929918,-9.02513532262946,24.2366152924564));
#722=CARTESIAN_POINT('Ctrl Pts',(-47.1892449770279,-9.24034398337177,24.0517745426625));
#723=CARTESIAN_POINT('Ctrl Pts',(-46.7289162512925,-9.42478692942313,23.8741789182597));
#724=CARTESIAN_POINT('Ctrl Pts',(-46.0485854871124,-9.70598604246,23.4463639220705));
#725=CARTESIAN_POINT('Ctrl Pts',(-45.796005380201,-9.81453795802249,23.2309179608474));
#726=CARTESIAN_POINT('Ctrl Pts',(-45.4221154031556,-9.95102189928657,22.7850884353785));
#727=CARTESIAN_POINT('Ctrl Pts',(-45.2868759181142,-9.99012878093091,22.5693231132893));
#728=CARTESIAN_POINT('Ctrl Pts',(-45.1727827309902,-9.99945551499316,22.3112230185887));
#729=CARTESIAN_POINT('Ctrl Pts',(-45.1601661715353,-10.0000000003034,22.2811242697479));
#730=CARTESIAN_POINT('Ctrl Pts',(-45.148203512465,-10.,22.2509999748219));
#731=CARTESIAN_POINT('',(-26.4575131106459,-10.,22.251));
#732=CARTESIAN_POINT('',(-35.7916345659799,-10.,22.251));
#733=CARTESIAN_POINT('',(-26.4575131106459,-7.5,24.751));
#734=CARTESIAN_POINT('Origin',(-26.4575131106459,-7.5,22.251));
#735=CARTESIAN_POINT('',(-35.7916345659799,-7.5,24.751));
#736=CARTESIAN_POINT('',(-35.7916345659799,-10.,22.251));
#737=CARTESIAN_POINT('Origin',(-26.4575131106459,-30.,22.251));
#738=CARTESIAN_POINT('',(-13.228756555323,-15.,22.251));
#739=CARTESIAN_POINT('',(-11.5751619859076,-13.125,24.751));
#740=CARTESIAN_POINT('Origin',(-11.5751619859076,-13.125,22.251));
#741=CARTESIAN_POINT('Origin',(-26.4575131106459,-30.,24.751));
#742=CARTESIAN_POINT('Origin',(-26.4575131106459,-30.,22.251));
#743=CARTESIAN_POINT('Origin',(0.,0.,22.251));
#744=CARTESIAN_POINT('',(-13.2287565553229,15.,22.251));
#745=CARTESIAN_POINT('',(-11.5751619859076,13.125,24.751));
#746=CARTESIAN_POINT('Origin',(-11.5751619859076,13.125,22.251));
#747=CARTESIAN_POINT('Origin',(0.,0.,24.751));
#748=CARTESIAN_POINT('Origin',(0.,0.,22.251));
#749=CARTESIAN_POINT('Origin',(-26.4575131106459,30.,22.251));
#750=CARTESIAN_POINT('',(-26.4575131106459,10.,22.251));
#751=CARTESIAN_POINT('',(-26.4575131106459,7.5,24.751));
#752=CARTESIAN_POINT('Origin',(-26.4575131106459,7.5,22.251));
#753=CARTESIAN_POINT('Origin',(-26.4575131106459,30.,24.751));
#754=CARTESIAN_POINT('Origin',(-26.4575131106459,30.,22.251));
#755=CARTESIAN_POINT('Origin',(-21.978756555323,7.5,22.251));
#756=CARTESIAN_POINT('',(-21.978756555323,7.5,24.751));
#757=CARTESIAN_POINT('',(-21.978756555323,10.,22.251));
#758=CARTESIAN_POINT('Origin',(0.,0.,22.251));
#759=CARTESIAN_POINT('Origin',(0.,0.,24.751));
#760=CARTESIAN_POINT('Origin',(0.,0.,22.251));
#761=CARTESIAN_POINT('Origin',(0.,0.,17.251));
#762=CARTESIAN_POINT('Origin',(0.,0.,14.751));
#763=CARTESIAN_POINT('Origin',(0.,0.,17.251));
#764=CARTESIAN_POINT('Origin',(-21.978756555323,7.5,17.251));
#765=CARTESIAN_POINT('',(-51.6418149661935,10.,17.251));
#766=CARTESIAN_POINT('',(-45.0794647258692,10.,17.251));
#767=CARTESIAN_POINT('Ctrl Pts',(-51.6418149661935,10.,17.251));
#768=CARTESIAN_POINT('Ctrl Pts',(-51.5868015081871,10.,17.1048744905005));
#769=CARTESIAN_POINT('Ctrl Pts',(-51.5236169931353,9.98719531762136,16.9618367220658));
#770=CARTESIAN_POINT('Ctrl Pts',(-51.2817925402376,9.90625344621628,16.4956299701791));
#771=CARTESIAN_POINT('Ctrl Pts',(-51.0713617130983,9.78951004205037,16.2086131372791));
#772=CARTESIAN_POINT('Ctrl Pts',(-50.5328243963046,9.47554005706917,15.6833999304928));
#773=CARTESIAN_POINT('Ctrl Pts',(-50.2055727680019,9.27621657908296,15.4788245945916));
#774=CARTESIAN_POINT('Ctrl Pts',(-49.608926248658,8.99501311305408,15.2413095042457));
#775=CARTESIAN_POINT('Ctrl Pts',(-49.3393977449185,8.89172990526551,15.1730832082073));
#776=CARTESIAN_POINT('Ctrl Pts',(-48.7588650436329,8.7748764581222,15.0993525490731));
#777=CARTESIAN_POINT('Ctrl Pts',(-48.4688625101342,8.76902398017732,15.0964719866989));
#778=CARTESIAN_POINT('Ctrl Pts',(-47.7755917099329,8.86677124778448,15.1566625781365));
#779=CARTESIAN_POINT('Ctrl Pts',(-47.3900573100219,9.00255939353456,15.2435027918201));
#780=CARTESIAN_POINT('Ctrl Pts',(-46.6508779666921,9.31127358805485,15.5143013666282));
#781=CARTESIAN_POINT('Ctrl Pts',(-46.2783951670261,9.49901330353468,15.7180278064944));
#782=CARTESIAN_POINT('Ctrl Pts',(-45.7375308292143,9.76349439980794,16.1685321006156));
#783=CARTESIAN_POINT('Ctrl Pts',(-45.5382428659556,9.85905042373567,16.3845419665089));
#784=CARTESIAN_POINT('Ctrl Pts',(-45.2514397287482,9.97113655300198,16.8240677696879));
#785=CARTESIAN_POINT('Ctrl Pts',(-45.1508632480033,10.,17.0310113896424));
#786=CARTESIAN_POINT('Ctrl Pts',(-45.0794647258692,10.,17.251));
#787=CARTESIAN_POINT('',(-26.4575131106459,10.,17.251));
#788=CARTESIAN_POINT('',(-21.978756555323,10.,17.251));
#789=CARTESIAN_POINT('',(-26.4575131106459,7.5,14.751));
#790=CARTESIAN_POINT('Origin',(-26.4575131106459,7.5,17.251));
#791=CARTESIAN_POINT('',(-21.978756555323,7.5,14.751));
#792=CARTESIAN_POINT('',(-21.978756555323,10.,17.251));
#793=CARTESIAN_POINT('Origin',(-26.4575131106459,30.,17.251));
#794=CARTESIAN_POINT('',(-13.2287565553229,15.,17.251));
#795=CARTESIAN_POINT('',(-11.5751619859076,13.125,14.751));
#796=CARTESIAN_POINT('Origin',(-11.5751619859076,13.125,17.251));
#797=CARTESIAN_POINT('Origin',(-26.4575131106459,30.,14.751));
#798=CARTESIAN_POINT('Origin',(-26.4575131106459,30.,17.251));
#799=CARTESIAN_POINT('Origin',(0.,0.,17.251));
#800=CARTESIAN_POINT('',(-13.228756555323,-15.,17.251));
#801=CARTESIAN_POINT('',(-11.5751619859076,-13.125,14.751));
#802=CARTESIAN_POINT('Origin',(-11.5751619859076,-13.125,17.251));
#803=CARTESIAN_POINT('Origin',(0.,0.,14.751));
#804=CARTESIAN_POINT('Origin',(0.,0.,17.251));
#805=CARTESIAN_POINT('Origin',(-26.4575131106459,-30.,17.251));
#806=CARTESIAN_POINT('',(-26.4575131106459,-10.,17.251));
#807=CARTESIAN_POINT('',(-26.4575131106459,-7.5,14.751));
#808=CARTESIAN_POINT('Origin',(-26.4575131106459,-7.5,17.251));
#809=CARTESIAN_POINT('Origin',(-26.4575131106459,-30.,14.751));
#810=CARTESIAN_POINT('Origin',(-26.4575131106459,-30.,17.251));
#811=CARTESIAN_POINT('Origin',(-35.7916345659799,-7.5,17.251));
#812=CARTESIAN_POINT('',(-35.7916345659799,-7.5,14.751));
#813=CARTESIAN_POINT('',(-35.7916345659799,-10.,17.251));
#814=CARTESIAN_POINT('Origin',(-54.0832691319598,-10.,19.751));
#815=CARTESIAN_POINT('',(-26.4575131106459,-10.,19.751));
#816=CARTESIAN_POINT('',(-51.5580262296488,-9.99999999999999,22.2432041636049));
#817=CARTESIAN_POINT('Ctrl Pts',(-45.1505957683138,-10.0006620492841,22.2500281074521));
#818=CARTESIAN_POINT('Ctrl Pts',(-45.1087311499873,-10.0005682597396,22.1457092849276));
#819=CARTESIAN_POINT('Ctrl Pts',(-45.0721475567071,-10.0004256653104,22.0396432609932));
#820=CARTESIAN_POINT('Ctrl Pts',(-45.0409802038944,-10.0002624801916,21.9322300760718));
#821=CARTESIAN_POINT('Ctrl Pts',(-45.0098371688194,-10.0000994223949,21.8249006982575));
#822=CARTESIAN_POINT('Ctrl Pts',(-44.9841015203545,-9.99991582747947,21.71622543302));
#823=CARTESIAN_POINT('Ctrl Pts',(-44.9639529099521,-9.99974676747197,21.6065781253594));
#824=CARTESIAN_POINT('Ctrl Pts',(-44.9441916627126,-9.99958095769453,21.4990388205365));
#825=CARTESIAN_POINT('Ctrl Pts',(-44.9298044509754,-9.99942917116231,21.390563696335));
#826=CARTESIAN_POINT('Ctrl Pts',(-44.9210083852068,-9.99933065850242,21.2814932005123));
#827=CARTESIAN_POINT('Ctrl Pts',(-44.9165036878601,-9.99928020757022,21.2256353219947));
#828=CARTESIAN_POINT('Ctrl Pts',(-44.9134661961949,-9.99924382541973,21.1696211668662));
#829=CARTESIAN_POINT('Ctrl Pts',(-44.9119303773272,-9.99922737463745,21.1134961861054));
#830=CARTESIAN_POINT('Ctrl Pts',(-44.911328854038,-9.99922093147617,21.0915141127363));
#831=CARTESIAN_POINT('Ctrl Pts',(-44.9109577288333,-9.99921755001313,21.0695150399238));
#832=CARTESIAN_POINT('Ctrl Pts',(-44.9108156492998,-9.99921679550268,21.0475017779383));
#833=CARTESIAN_POINT('Ctrl Pts',(-44.9101083841434,-9.99921303958556,20.937920807295));
#834=CARTESIAN_POINT('Ctrl Pts',(-44.9150748830192,-9.99927769743734,20.8285467644974));
#835=CARTESIAN_POINT('Ctrl Pts',(-44.925406817045,-9.99937305164058,20.7197286157504));
#836=CARTESIAN_POINT('Ctrl Pts',(-44.9357640252327,-9.99946863910098,20.6106442741006));
#837=CARTESIAN_POINT('Ctrl Pts',(-44.9515132746779,-9.99959519237894,20.5021178205367));
#838=CARTESIAN_POINT('Ctrl Pts',(-44.9723989349825,-9.99972530797861,20.3944901595573));
#839=CARTESIAN_POINT('Ctrl Pts',(-44.9938078646857,-9.99985868349493,20.2841659948222));
#840=CARTESIAN_POINT('Ctrl Pts',(-45.0206139325589,-9.99999589937,20.1747854364053));
#841=CARTESIAN_POINT('Ctrl Pts',(-45.0525963285494,-10.0001169581758,20.0667160320879));
#842=CARTESIAN_POINT('Ctrl Pts',(-45.0827869076443,-10.00023123465,19.9647012268261));
#843=CARTESIAN_POINT('Ctrl Pts',(-45.117590736101,-10.0003312917494,19.863854211563));
#844=CARTESIAN_POINT('Ctrl Pts',(-45.1568630050829,-10.0004064874065,19.7644941845762));
#845=CARTESIAN_POINT('Ctrl Pts',(-45.1988359185914,-10.0004868540595,19.6583014453475));
#846=CARTESIAN_POINT('Ctrl Pts',(-45.2457272038874,-10.0005443122552,19.5542734052259));
#847=CARTESIAN_POINT('Ctrl Pts',(-45.297275958275,-10.0005715185691,19.452768021254));
#848=CARTESIAN_POINT('Ctrl Pts',(-45.3490810097886,-10.0005988601511,19.3507579589731));
#849=CARTESIAN_POINT('Ctrl Pts',(-45.4055902925963,-10.0005957926556,19.2512948789564));
#850=CARTESIAN_POINT('Ctrl Pts',(-45.4665906020767,-10.0005654784471,19.1547522381157));
#851=CARTESIAN_POINT('Ctrl Pts',(-45.5271382277874,-10.0005353892006,19.0589260409614));
#852=CARTESIAN_POINT('Ctrl Pts',(-45.5921108731891,-10.0004786148242,18.9659763336679));
#853=CARTESIAN_POINT('Ctrl Pts',(-45.6613451156873,-10.0004063841304,18.8762900850534));
#854=CARTESIAN_POINT('Ctrl Pts',(-45.7305793581855,-10.0003341534366,18.7866038364389));
#855=CARTESIAN_POINT('Ctrl Pts',(-45.8040755215843,-10.0002466126999,18.7001802554184));
#856=CARTESIAN_POINT('Ctrl Pts',(-45.8817100900858,-10.0001608942418,18.6174398152731));
#857=CARTESIAN_POINT('Ctrl Pts',(-45.9600833090771,-10.0000743602195,18.53391214506));
#858=CARTESIAN_POINT('Ctrl Pts',(-46.0423722408099,-9.99999351851331,18.4544600054457));
#859=CARTESIAN_POINT('Ctrl Pts',(-46.1283967920113,-9.99992563377614,18.3794622462226));
#860=CARTESIAN_POINT('Ctrl Pts',(-46.134578166063,-9.99992075585528,18.3740732125534));
#861=CARTESIAN_POINT('Ctrl Pts',(-46.140778846056,-9.99991594829601,18.3687071910131));
#862=CARTESIAN_POINT('Ctrl Pts',(-46.1469987733633,-9.99991121534112,18.3633643284599));
#863=CARTESIAN_POINT('Ctrl Pts',(-46.2321942115025,-9.99984638722573,18.2901822004956));
#864=CARTESIAN_POINT('Ctrl Pts',(-46.3209977083923,-9.99979492776066,18.2213416934645));
#865=CARTESIAN_POINT('Ctrl Pts',(-46.4129770417015,-9.99975389617334,18.1568934752184));
#866=CARTESIAN_POINT('Ctrl Pts',(-46.5075579476923,-9.99971170403557,18.0906223830947));
#867=CARTESIAN_POINT('Ctrl Pts',(-46.6054975865717,-9.99968070217058,18.0289951265596));
#868=CARTESIAN_POINT('Ctrl Pts',(-46.7063578915724,-9.99966426629314,17.972112620273));
#869=CARTESIAN_POINT('Ctrl Pts',(-46.8072181965731,-9.99964783041571,17.9152301139863));
#870=CARTESIAN_POINT('Ctrl Pts',(-46.9110000486126,-9.99964616346724,17.8630921050821));
#871=CARTESIAN_POINT('Ctrl Pts',(-47.0172845812459,-9.99966629294408,17.8158495765616));
#872=CARTESIAN_POINT('Ctrl Pts',(-47.1244626129255,-9.9996865916428,17.7682098956696));
#873=CARTESIAN_POINT('Ctrl Pts',(-47.2337501538309,-9.99972887021286,17.725741442716));
#874=CARTESIAN_POINT('Ctrl Pts',(-47.34469008979,-9.99978426605661,17.6885234311098));
#875=CARTESIAN_POINT('Ctrl Pts',(-47.4531929062429,-9.99983844496897,17.6521230217609));
#876=CARTESIAN_POINT('Ctrl Pts',(-47.5632772705371,-9.99990540543031,17.6207448659887));
#877=CARTESIAN_POINT('Ctrl Pts',(-47.6745337093443,-9.99997966331026,17.5945125188711));
#878=CARTESIAN_POINT('Ctrl Pts',(-47.7895386025149,-10.0000564230883,17.567396350942));
#879=CARTESIAN_POINT('Ctrl Pts',(-47.9057968120973,-10.0001412256872,17.5457779908032));
#880=CARTESIAN_POINT('Ctrl Pts',(-48.0228615852309,-10.0002274361732,17.529852723536));
#881=CARTESIAN_POINT('Ctrl Pts',(-48.1319737778537,-10.0003077901081,17.5150093100726));
#882=CARTESIAN_POINT('Ctrl Pts',(-48.2417873884393,-10.0003895289999,17.5051121283066));
#883=CARTESIAN_POINT('Ctrl Pts',(-48.3519334724317,-10.0004639033185,17.5003694455423));
#884=CARTESIAN_POINT('Ctrl Pts',(-48.3599614075309,-10.0004693240486,17.5000237777886));
#885=CARTESIAN_POINT('Ctrl Pts',(-48.3679911027451,-10.0004747034715,17.4997055136774));
#886=CARTESIAN_POINT('Ctrl Pts',(-48.3760224120996,-10.0004800370965,17.4994147444145));
#887=CARTESIAN_POINT('Ctrl Pts',(-48.4915974642372,-10.0005567909556,17.49523041142));
#888=CARTESIAN_POINT('Ctrl Pts',(-48.606967069166,-10.0006220323842,17.4967544677214));
#889=CARTESIAN_POINT('Ctrl Pts',(-48.7217064496539,-10.0006513811205,17.5041280726869));
#890=CARTESIAN_POINT('Ctrl Pts',(-48.8364458301418,-10.0006807298569,17.5115016776524));
#891=CARTESIAN_POINT('Ctrl Pts',(-48.9505559379081,-10.0006744365399,17.524724584679));
#892=CARTESIAN_POINT('Ctrl Pts',(-49.0636060803867,-10.0006024813781,17.5439976113858));
#893=CARTESIAN_POINT('Ctrl Pts',(-49.174144637307,-10.0005321248126,17.5628424576899));
#894=CARTESIAN_POINT('Ctrl Pts',(-49.2836704227954,-10.0003990592329,17.5874725517922));
#895=CARTESIAN_POINT('Ctrl Pts',(-49.3918538253533,-10.0002445516104,17.617667650047));
#896=CARTESIAN_POINT('Ctrl Pts',(-49.499381224542,-10.0000909808923,17.647679651027));
#897=CARTESIAN_POINT('Ctrl Pts',(-49.6055831639379,-9.99991631655521,17.683189905351));
#898=CARTESIAN_POINT('Ctrl Pts',(-49.7101087371115,-9.99975202243828,17.7240243212678));
#899=CARTESIAN_POINT('Ctrl Pts',(-49.8143199153958,-9.99958822248971,17.7647359143071));
#900=CARTESIAN_POINT('Ctrl Pts',(-49.9163213102427,-9.99943349376768,17.8105263945778));
#901=CARTESIAN_POINT('Ctrl Pts',(-50.0158070625425,-9.99931110621275,17.8611081274263));
#902=CARTESIAN_POINT('Ctrl Pts',(-50.1157921020743,-9.99918810443376,17.9119437138446));
#903=CARTESIAN_POINT('Ctrl Pts',(-50.2132369103968,-9.99909787087234,17.9676192682974));
#904=CARTESIAN_POINT('Ctrl Pts',(-50.3078097013677,-9.99905311864159,18.0278900944393));
#905=CARTESIAN_POINT('Ctrl Pts',(-50.401102500859,-9.99900897210803,18.0873451876083));
#906=CARTESIAN_POINT('Ctrl Pts',(-50.4916011208779,-9.99900915221478,18.151272597206));
#907=CARTESIAN_POINT('Ctrl Pts',(-50.5789564927336,-9.99905406657552,18.2194749768224));
#908=CARTESIAN_POINT('Ctrl Pts',(-50.6628420802015,-9.99909719692293,18.284968335265));
#909=CARTESIAN_POINT('Ctrl Pts',(-50.7438295266767,-9.99918158826559,18.3544044065482));
#910=CARTESIAN_POINT('Ctrl Pts',(-50.8215744899496,-9.99929617476929,18.4276344459755));
#911=CARTESIAN_POINT('Ctrl Pts',(-50.9035267824947,-9.99941696235832,18.5048274802454));
#912=CARTESIAN_POINT('Ctrl Pts',(-50.981419444116,-9.9995689932832,18.5858053540105));
#913=CARTESIAN_POINT('Ctrl Pts',(-51.0549385994018,-9.99973575330955,18.6702964494787));
#914=CARTESIAN_POINT('Ctrl Pts',(-51.1279982625791,-9.99990147109165,18.754259478602));
#915=CARTESIAN_POINT('Ctrl Pts',(-51.1967395653608,-10.0000818049082,18.8416925316413));
#916=CARTESIAN_POINT('Ctrl Pts',(-51.2608217402109,-10.0002459298038,18.9323655319576));
#917=CARTESIAN_POINT('Ctrl Pts',(-51.3234755480274,-10.0004063964185,19.0210174659664));
#918=CARTESIAN_POINT('Ctrl Pts',(-51.3816760982313,-10.0005513994383,19.1127671050638));
#919=CARTESIAN_POINT('Ctrl Pts',(-51.4350653481993,-10.0006374314643,19.2074257307508));
#920=CARTESIAN_POINT('Ctrl Pts',(-51.4469625972214,-10.0006566028225,19.2285194386144));
#921=CARTESIAN_POINT('Ctrl Pts',(-51.4586207537986,-10.0006727857392,19.2497576860636));
#922=CARTESIAN_POINT('Ctrl Pts',(-51.4700355426867,-10.0006853936243,19.2711385243964));
#923=CARTESIAN_POINT('Ctrl Pts',(-51.5054442507132,-10.0007245033204,19.3374619465214));
#924=CARTESIAN_POINT('Ctrl Pts',(-51.5385119326966,-10.0007294470693,19.4051572833899));
#925=CARTESIAN_POINT('Ctrl Pts',(-51.5692145122861,-10.0007108101112,19.4740930375056));
#926=CARTESIAN_POINT('Ctrl Pts',(-51.6134371342716,-10.0006839662707,19.5733850134989));
#927=CARTESIAN_POINT('Ctrl Pts',(-51.6525201440315,-10.0006078488423,19.6747204929233));
#928=CARTESIAN_POINT('Ctrl Pts',(-51.6865122221123,-10.0005185130836,19.7776543772607));
#929=CARTESIAN_POINT('Ctrl Pts',(-51.7210955946687,-10.0004276233234,19.8823788034126));
#930=CARTESIAN_POINT('Ctrl Pts',(-51.7504095948374,-10.0003229935707,19.9887585069293));
#931=CARTESIAN_POINT('Ctrl Pts',(-51.7744608034818,-10.0002262252936,20.0963529257383));
#932=CARTESIAN_POINT('Ctrl Pts',(-51.7987476483803,-10.0001285089512,20.2050014764288));
#933=CARTESIAN_POINT('Ctrl Pts',(-51.8176682601846,-10.0000387350843,20.3148895295766));
#934=CARTESIAN_POINT('Ctrl Pts',(-51.8311812872595,-9.99996363147492,20.425579331893));
#935=CARTESIAN_POINT('Ctrl Pts',(-51.8434937365706,-9.9998952005173,20.5264347932722));
#936=CARTESIAN_POINT('Ctrl Pts',(-51.8513163036238,-9.99983871667189,20.6279565551984));
#937=CARTESIAN_POINT('Ctrl Pts',(-51.8545815082052,-9.99978900108476,20.7298155046408));
#938=CARTESIAN_POINT('Ctrl Pts',(-51.8546899157628,-9.99978735048516,20.7331973080303));
#939=CARTESIAN_POINT('Ctrl Pts',(-51.854793279863,-9.99978570666988,20.7365789627385));
#940=CARTESIAN_POINT('Ctrl Pts',(-51.8548916019167,-9.99978406975103,20.7399604564758));
#941=CARTESIAN_POINT('Ctrl Pts',(-51.8581195608777,-9.99973032894015,20.850976475668));
#942=CARTESIAN_POINT('Ctrl Pts',(-51.8559171941403,-9.99968527906044,20.9618176705689));
#943=CARTESIAN_POINT('Ctrl Pts',(-51.8484270698822,-9.99966236081933,21.0721313773322));
#944=CARTESIAN_POINT('Ctrl Pts',(-51.840851664739,-9.99963918163624,21.1837010913686));
#945=CARTESIAN_POINT('Ctrl Pts',(-51.8278673899951,-9.99963853319971,21.2947319988568));
#946=CARTESIAN_POINT('Ctrl Pts',(-51.8095704231482,-9.99965985109619,21.4048687019943));
#947=CARTESIAN_POINT('Ctrl Pts',(-51.7912452472392,-9.9996812018592,21.5151752066688));
#948=CARTESIAN_POINT('Ctrl Pts',(-51.7675909038103,-9.99972446430974,21.6245855319604));
#949=CARTESIAN_POINT('Ctrl Pts',(-51.7386536930053,-9.99977641015045,21.7327403799185));
#950=CARTESIAN_POINT('Ctrl Pts',(-51.7124700687879,-9.99982341296569,21.8306035055429));
#951=CARTESIAN_POINT('Ctrl Pts',(-51.681960487254,-9.99987730802271,21.9274391074917));
#952=CARTESIAN_POINT('Ctrl Pts',(-51.6471245864324,-9.99992059905694,22.0229713516345));
#953=CARTESIAN_POINT('Ctrl Pts',(-51.6199634776428,-9.99995435252572,22.0974566273096));
#954=CARTESIAN_POINT('Ctrl Pts',(-51.5902612089779,-9.99998351387087,22.1709030822364));
#955=CARTESIAN_POINT('Ctrl Pts',(-51.5580523940251,-9.99999933085914,22.2431984199003));
#956=CARTESIAN_POINT('Ctrl Pts',(-51.558052394025,-9.99999933085913,22.2431984199003));
#957=CARTESIAN_POINT('Ctrl Pts',(-51.5568941576641,-9.99999916296311,22.2457985242917));
#958=CARTESIAN_POINT('Ctrl Pts',(-51.5557327204427,-9.99999899570416,22.248397035986));
#959=CARTESIAN_POINT('Ctrl Pts',(-51.5545680879799,-9.99999882919355,22.2509939515437));
#960=CARTESIAN_POINT('Origin',(0.,0.,19.751));
#961=CARTESIAN_POINT('Origin',(-17.5,0.,24.751));
#962=CARTESIAN_POINT('',(-15.2,-1.86146313470398E-15,24.751));
#963=CARTESIAN_POINT('Origin',(0.,0.,24.751));
#964=CARTESIAN_POINT('Origin',(-17.5,0.,14.751));
#965=CARTESIAN_POINT('',(-15.2,-1.86146313470398E-15,14.751));
#966=CARTESIAN_POINT('Origin',(0.,0.,14.751));
#967=CARTESIAN_POINT('Ctrl Pts',(-51.2724179770551,11.701860682326,19.4756405106719));
#968=CARTESIAN_POINT('Ctrl Pts',(-51.6549701392108,10.0105931666859,19.6950740899975));
#969=CARTESIAN_POINT('Ctrl Pts',(-51.9538572680169,8.29988175380781,19.9145656519296));
#970=CARTESIAN_POINT('Ctrl Pts',(-52.9013017319063,0.596988481516347,20.8969425576702));
#971=CARTESIAN_POINT('Ctrl Pts',(-52.5872183653282,-5.48933667923505,21.6577504209917));
#972=CARTESIAN_POINT('Ctrl Pts',(-51.2734890397771,-11.3526196862323,22.418130152998));
#973=CARTESIAN_POINT('Ctrl Pts',(-51.4634197773076,11.6839207149752,19.004567364015));
#974=CARTESIAN_POINT('Ctrl Pts',(-51.8473062080389,9.98670370293448,19.2247684137884));
#975=CARTESIAN_POINT('Ctrl Pts',(-52.1472614606529,8.26994590277196,19.4450308294768));
#976=CARTESIAN_POINT('Ctrl Pts',(-53.0981853798503,0.539064897831547,20.4309802156563));
#977=CARTESIAN_POINT('Ctrl Pts',(-52.7831790671779,-5.56840947277454,21.1944547472344));
#978=CARTESIAN_POINT('Ctrl Pts',(-51.4641798819823,-11.4550582867312,21.9578511338625));
#979=CARTESIAN_POINT('Ctrl Pts',(-51.6328576921032,11.5895971596748,17.9825489130747));
#980=CARTESIAN_POINT('Ctrl Pts',(-52.0176958886616,9.88806398557471,18.2033062882245));
#981=CARTESIAN_POINT('Ctrl Pts',(-52.3184449728929,8.16653703283927,18.4241764429239));
#982=CARTESIAN_POINT('Ctrl Pts',(-53.2720812695937,0.41308405346832,19.4130079578753));
#983=CARTESIAN_POINT('Ctrl Pts',(-52.9566244369473,-5.71646788386103,20.1792705712346));
#984=CARTESIAN_POINT('Ctrl Pts',(-51.6328289568977,-11.624189002257,20.9453887174178));
#985=CARTESIAN_POINT('Ctrl Pts',(-51.0870986112983,11.2087422668939,15.9991867835826));
#986=CARTESIAN_POINT('Ctrl Pts',(-51.467521078956,9.52652183004848,16.2174505203269));
#987=CARTESIAN_POINT('Ctrl Pts',(-51.7648455560516,7.82443390636937,16.435840346893));
#988=CARTESIAN_POINT('Ctrl Pts',(-52.707947700012,0.157662065808772,17.4136118284755));
#989=CARTESIAN_POINT('Ctrl Pts',(-52.3968984082011,-5.90938790573099,18.1719683576218));
#990=CARTESIAN_POINT('Ctrl Pts',(-51.0851312874418,-11.7627658068267,18.9310768020365));
#991=CARTESIAN_POINT('Ctrl Pts',(-48.8571306691042,10.5026419334751,14.4448395490891));
#992=CARTESIAN_POINT('Ctrl Pts',(-49.2207574754596,8.89451600666966,14.6535403212939));
#993=CARTESIAN_POINT('Ctrl Pts',(-49.504864650581,7.26750342729554,14.862354409996));
#994=CARTESIAN_POINT('Ctrl Pts',(-50.406221972645,-0.0588012231057066,15.7966762450355));
#995=CARTESIAN_POINT('Ctrl Pts',(-50.1096803540052,-5.87270165218577,16.52305544528));
#996=CARTESIAN_POINT('Ctrl Pts',(-48.852803845762,-11.4805638650399,17.2504797989984));
#997=CARTESIAN_POINT('Ctrl Pts',(-45.6859788012298,9.91650801674585,15.4549650699542));
#998=CARTESIAN_POINT('Ctrl Pts',(-46.0265264478381,8.41053035139834,15.6504842341122));
#999=CARTESIAN_POINT('Ctrl Pts',(-46.2923538747411,6.88782012273903,15.8459964020629));
#1000=CARTESIAN_POINT('Ctrl Pts',(-47.1354017137087,0.0373078981877711,
16.7195944368123));
#1001=CARTESIAN_POINT('Ctrl Pts',(-46.8576876703586,-5.41194477476998,17.3999215295001));
#1002=CARTESIAN_POINT('Ctrl Pts',(-45.6810312747508,-10.6620795727302,18.0811740426226));
#1003=CARTESIAN_POINT('Ctrl Pts',(-44.4183305990218,10.0357845089086,18.5830337287525));
#1004=CARTESIAN_POINT('Ctrl Pts',(-44.7502547665041,8.56826624677709,18.7735917699099));
#1005=CARTESIAN_POINT('Ctrl Pts',(-45.0091563288134,7.08530151395348,18.9640366134157));
#1006=CARTESIAN_POINT('Ctrl Pts',(-45.8296169273249,0.418571906866446,19.8141755155043));
#1007=CARTESIAN_POINT('Ctrl Pts',(-45.5579395187202,-4.88332838148291,20.4759062528001));
#1008=CARTESIAN_POINT('Ctrl Pts',(-44.4154482368513,-9.98199966406908,21.1376038671591));
#1009=CARTESIAN_POINT('Ctrl Pts',(-46.0065864102318,10.7704478033905,21.4757311562919));
#1010=CARTESIAN_POINT('Ctrl Pts',(-46.3508548561518,9.24865787937789,21.6732949025764));
#1011=CARTESIAN_POINT('Ctrl Pts',(-46.6194113303192,7.71096698282346,21.8707209575333));
#1012=CARTESIAN_POINT('Ctrl Pts',(-47.4700501797719,0.797652343434718,22.7523261944633));
#1013=CARTESIAN_POINT('Ctrl Pts',(-47.1870724557622,-4.68387591731148,23.4367565490025));
#1014=CARTESIAN_POINT('Ctrl Pts',(-46.0069008152759,-9.95168575048959,24.1202779765221));
#1015=CARTESIAN_POINT('Ctrl Pts',(-48.7080440032717,11.4319831500398,21.8650726312087));
#1016=CARTESIAN_POINT('Ctrl Pts',(-49.07228692968,9.82192114665751,22.0740281936307));
#1017=CARTESIAN_POINT('Ctrl Pts',(-49.3566162758932,8.1944183762294,22.2829088338262));
#1018=CARTESIAN_POINT('Ctrl Pts',(-50.2573370292796,0.87252310296654,23.216658163147));
#1019=CARTESIAN_POINT('Ctrl Pts',(-49.9576122640383,-4.91784749142355,23.9400965302551));
#1020=CARTESIAN_POINT('Ctrl Pts',(-48.7099484730794,-10.4870377684474,24.662514550779));
#1021=CARTESIAN_POINT('Ctrl Pts',(-50.4896216491333,11.6969621821294,20.8020352217913));
#1022=CARTESIAN_POINT('Ctrl Pts',(-50.8667104795571,10.0299903676647,21.0183343096528));
#1023=CARTESIAN_POINT('Ctrl Pts',(-51.1612332060147,8.34426366058622,21.2346401126287));
#1024=CARTESIAN_POINT('Ctrl Pts',(-52.0945612104559,0.756321700918251,22.2023447638288));
#1025=CARTESIAN_POINT('Ctrl Pts',(-51.7845422697826,-5.2394714904945,22.9517245485856));
#1026=CARTESIAN_POINT('Ctrl Pts',(-50.491454052155,-11.0110596985185,23.7002670680448));
#1027=CARTESIAN_POINT('Ctrl Pts',(-51.0814161768027,11.7198006496768,19.9467136573288));
#1028=CARTESIAN_POINT('Ctrl Pts',(-51.462684228131,10.0342611509302,20.1654083500275));
#1029=CARTESIAN_POINT('Ctrl Pts',(-51.7605381461947,8.32951180880291,20.3841397738836));
#1030=CARTESIAN_POINT('Ctrl Pts',(-52.7046103553199,0.654180115534978,21.3629985255363));
#1031=CARTESIAN_POINT('Ctrl Pts',(-52.3914245616562,-5.40951805248135,22.120949839934));
#1032=CARTESIAN_POINT('Ctrl Pts',(-51.0827981975718,-11.2501810857333,22.8784091721335));
#1033=CARTESIAN_POINT('Ctrl Pts',(-51.2724179770551,11.701860682326,19.4756405106719));
#1034=CARTESIAN_POINT('Ctrl Pts',(-51.6549701392108,10.0105931666859,19.6950740899975));
#1035=CARTESIAN_POINT('Ctrl Pts',(-51.9538572680169,8.29988175380781,19.9145656519296));
#1036=CARTESIAN_POINT('Ctrl Pts',(-52.9013017319063,0.596988481516347,20.8969425576702));
#1037=CARTESIAN_POINT('Ctrl Pts',(-52.5872183653282,-5.48933667923505,21.6577504209917));
#1038=CARTESIAN_POINT('Ctrl Pts',(-51.2734890397771,-11.3526196862323,22.418130152998));
#1039=CARTESIAN_POINT('',(-51.6277889954348,9.99999999999977,19.6956665427456));
#1040=CARTESIAN_POINT('Ctrl Pts',(-51.6277987938996,10.0000004878087,19.6956644003436));
#1041=CARTESIAN_POINT('Ctrl Pts',(-51.8450256195908,8.86583869914211,19.8418026675888));
#1042=CARTESIAN_POINT('Ctrl Pts',(-52.0246707414965,7.72415552473243,19.987990030469));
#1043=CARTESIAN_POINT('Ctrl Pts',(-52.8448979228583,1.05556155656956,20.8384591303914));
#1044=CARTESIAN_POINT('Ctrl Pts',(-52.6292157187839,-4.5565313365808,21.5410581245086));
#1045=CARTESIAN_POINT('Ctrl Pts',(-51.5580523940252,-9.99999933085822,22.2431984199002));
#1046=CARTESIAN_POINT('Ctrl Pts',(-45.0794647258692,10.,17.251));
#1047=CARTESIAN_POINT('Ctrl Pts',(-45.0065042828375,10.,17.4758011022343));
#1048=CARTESIAN_POINT('Ctrl Pts',(-44.9577026076147,10.,17.7083138727716));
#1049=CARTESIAN_POINT('Ctrl Pts',(-44.8903820388612,10.,18.3784708553047));
#1050=CARTESIAN_POINT('Ctrl Pts',(-44.9319296850281,10.0000000000019,18.8161950874002));
#1051=CARTESIAN_POINT('Ctrl Pts',(-45.1795284306733,10.0000000000019,19.6685788432352));
#1052=CARTESIAN_POINT('Ctrl Pts',(-45.3890293061549,10.0000000000057,20.0738938740644));
#1053=CARTESIAN_POINT('Ctrl Pts',(-45.9559021750819,10.0000000000057,20.7960574240211));
#1054=CARTESIAN_POINT('Ctrl Pts',(-46.3132221375245,9.99999999995571,21.1038106744041));
#1055=CARTESIAN_POINT('Ctrl Pts',(-47.1267420921845,9.99999999995571,21.5675779052538));
#1056=CARTESIAN_POINT('Ctrl Pts',(-47.5772434530392,9.99999999993723,21.718695210029));
#1057=CARTESIAN_POINT('Ctrl Pts',(-48.5006376542848,9.99999999993723,21.8350480342059));
#1058=CARTESIAN_POINT('Ctrl Pts',(-48.9647180435078,9.99999999997745,21.8027880942808));
#1059=CARTESIAN_POINT('Ctrl Pts',(-49.6505878852181,9.99999999997745,21.612660935003));
#1060=CARTESIAN_POINT('Ctrl Pts',(-49.884472628404,9.99999999999998,21.5191357328408));
#1061=CARTESIAN_POINT('Ctrl Pts',(-50.3272080775251,9.99999999999998,21.281747933827));
#1062=CARTESIAN_POINT('Ctrl Pts',(-50.5345260521122,10.,21.1386976476716));
#1063=CARTESIAN_POINT('Ctrl Pts',(-50.7238474499325,10.,20.9736278878394));
#1064=CARTESIAN_POINT('Ctrl Pts',(-51.0507876116044,10.,20.6885680130022));
#1065=CARTESIAN_POINT('Ctrl Pts',(-51.3184268889356,9.99999999999999,20.3427429605757));
#1066=CARTESIAN_POINT('Ctrl Pts',(-51.5544086337243,9.99999999999999,19.8698591414938));
#1067=CARTESIAN_POINT('Ctrl Pts',(-51.5929909056641,9.99999999999999,19.7834491546809));
#1068=CARTESIAN_POINT('Ctrl Pts',(-51.6277889954337,9.99999999999999,19.6956665427452));
#1069=CARTESIAN_POINT('Ctrl Pts',(-51.6277889954337,10.,19.6956665427452));
#1070=CARTESIAN_POINT('Ctrl Pts',(-51.7517480500067,10.,19.3829640451208));
#1071=CARTESIAN_POINT('Ctrl Pts',(-51.8276845866518,10.0000000000005,19.0528423813518));
#1072=CARTESIAN_POINT('Ctrl Pts',(-51.8865082179635,10.0000000000005,18.2779482567749));
#1073=CARTESIAN_POINT('Ctrl Pts',(-51.8338025760281,10.0000000000051,17.8376624404572));
#1074=CARTESIAN_POINT('Ctrl Pts',(-51.6821209673286,10.0000000000051,17.3623442923527));
#1075=CARTESIAN_POINT('Ctrl Pts',(-51.6626655880107,10.,17.306382952587));
#1076=CARTESIAN_POINT('Ctrl Pts',(-51.6418149661935,10.,17.251));
#1077=CARTESIAN_POINT('Origin',(0.,0.,19.751));
#1078=CARTESIAN_POINT('',(-15.2,-1.86146313470398E-15,19.751));
#1079=CARTESIAN_POINT('Origin',(-26.4575131106459,30.,19.751));
#1080=CARTESIAN_POINT('',(-13.2287565553229,15.,19.751));
#1081=CARTESIAN_POINT('',(-26.4575131106459,10.,19.751));
#1082=CARTESIAN_POINT('Origin',(0.,0.,19.751));
#1083=CARTESIAN_POINT('',(-13.228756555323,-15.,19.751));
#1084=CARTESIAN_POINT('Origin',(-26.4575131106459,-30.,19.751));
#1085=CARTESIAN_POINT('Origin',(-26.4575131106459,10.,19.751));
#1086=UNCERTAINTY_MEASURE_WITH_UNIT(LENGTH_MEASURE(0.01),#1090,
'DISTANCE_ACCURACY_VALUE',
'Maximum model space distance between geometric entities at asserted c
onnectivities');
#1087=UNCERTAINTY_MEASURE_WITH_UNIT(LENGTH_MEASURE(0.01),#1090,
'DISTANCE_ACCURACY_VALUE',
'Maximum model space distance between geometric entities at asserted c
onnectivities');
#1088=(
GEOMETRIC_REPRESENTATION_CONTEXT(3)
GLOBAL_UNCERTAINTY_ASSIGNED_CONTEXT((#1086))
GLOBAL_UNIT_ASSIGNED_CONTEXT((#1090,#1092,#1093))
REPRESENTATION_CONTEXT('','3D')
);
#1089=(
GEOMETRIC_REPRESENTATION_CONTEXT(3)
GLOBAL_UNCERTAINTY_ASSIGNED_CONTEXT((#1087))
GLOBAL_UNIT_ASSIGNED_CONTEXT((#1090,#1092,#1093))
REPRESENTATION_CONTEXT('','3D')
);
#1090=(
LENGTH_UNIT()
NAMED_UNIT(*)
SI_UNIT(.MILLI.,.METRE.)
);
#1091=(
LENGTH_UNIT()
NAMED_UNIT(*)
SI_UNIT($,.METRE.)
);
#1092=(
NAMED_UNIT(*)
PLANE_ANGLE_UNIT()
SI_UNIT($,.RADIAN.)
);
#1093=(
NAMED_UNIT(*)
SI_UNIT($,.STERADIAN.)
SOLID_ANGLE_UNIT()
);
#1094=SHAPE_DEFINITION_REPRESENTATION(#1095,#1096);
#1095=PRODUCT_DEFINITION_SHAPE('',$,#1098);
#1096=SHAPE_REPRESENTATION('',(#455),#1088);
#1097=PRODUCT_DEFINITION_CONTEXT('part definition',#1102,'design');
#1098=PRODUCT_DEFINITION('2026-03-20-12-47-00-141','Pacifier',#1099,#1097);
#1099=PRODUCT_DEFINITION_FORMATION('',$,#1104);
#1100=PRODUCT_RELATED_PRODUCT_CATEGORY('Pacifier','Pacifier',(#1104));
#1101=APPLICATION_PROTOCOL_DEFINITION('international standard',
'automotive_design',2009,#1102);
#1102=APPLICATION_CONTEXT(
'Core Data for Automotive Mechanical Design Process');
#1103=PRODUCT_CONTEXT('part definition',#1102,'mechanical');
#1104=PRODUCT('2026-03-20-12-47-00-141','Pacifier',$,(#1103));
#1105=PRESENTATION_STYLE_ASSIGNMENT((#1107));
#1106=PRESENTATION_STYLE_ASSIGNMENT((#1108));
#1107=SURFACE_STYLE_USAGE(.BOTH.,#1109);
#1108=SURFACE_STYLE_USAGE(.BOTH.,#1110);
#1109=SURFACE_SIDE_STYLE('',(#1111));
#1110=SURFACE_SIDE_STYLE('',(#1112));
#1111=SURFACE_STYLE_FILL_AREA(#1113);
#1112=SURFACE_STYLE_FILL_AREA(#1114);
#1113=FILL_AREA_STYLE('Stahl - satiniert',(#1115));
#1114=FILL_AREA_STYLE('ABS (Rot)',(#1116));
#1115=FILL_AREA_STYLE_COLOUR('Stahl - satiniert',#1117);
#1116=FILL_AREA_STYLE_COLOUR('ABS (Rot)',#1118);
#1117=COLOUR_RGB('Stahl - satiniert',0.627450980392157,0.627450980392157,
0.627450980392157);
#1118=COLOUR_RGB('ABS (Rot)',0.615686274509804,0.109803921568627,0.125490196078431);
ENDSEC;
END-ISO-10303-21;
