ISO-10303-21;
HEADER;
/* Generated by software containing ST-Developer
 * from STEP Tools, Inc. (www.steptools.com) 
 */

FILE_DESCRIPTION(
/* description */ (''),
/* implementation_level */ '2;1');

FILE_NAME(
/* name */ 'Pacifier Fixture.step',
/* time_stamp */ '2026-03-20T15:04:10+01:00',
/* author */ (''),
/* organization */ (''),
/* preprocessor_version */ 'ST-DEVELOPER v20.1',
/* originating_system */ 'Autodesk Translation Framework v14.24.0.0',
/* authorisation */ '');

FILE_SCHEMA (('AUTOMOTIVE_DESIGN { 1 0 10303 214 3 1 1 }'));
ENDSEC;

DATA;
#10=MECHANICAL_DESIGN_GEOMETRIC_PRESENTATION_REPRESENTATION('',(#13),#986);
#11=SHAPE_REPRESENTATION_RELATIONSHIP('SRR','None',#992,#12);
#12=ADVANCED_BREP_SHAPE_REPRESENTATION('',(#14),#985);
#13=STYLED_ITEM('',(#1002),#14);
#14=MANIFOLD_SOLID_BREP('Pacifier Fixture',#540);
#15=PLANE('',#561);
#16=PLANE('',#576);
#17=PLANE('',#587);
#18=PLANE('',#592);
#19=PLANE('',#594);
#20=PLANE('',#598);
#21=PLANE('',#600);
#22=PLANE('',#602);
#23=PLANE('',#605);
#24=PLANE('',#607);
#25=PLANE('',#609);
#26=PLANE('',#610);
#27=TOROIDAL_SURFACE('',#555,25.2,5.);
#28=TOROIDAL_SURFACE('',#564,22.5,2.5);
#29=TOROIDAL_SURFACE('',#568,17.7,2.5);
#30=TOROIDAL_SURFACE('',#577,17.7,2.5);
#31=TOROIDAL_SURFACE('',#582,22.5,2.5);
#32=B_SPLINE_CURVE_WITH_KNOTS('',3,(#818,#819,#820,#821,#822,#823,#824,
#825,#826,#827),.UNSPECIFIED.,.F.,.F.,(4,2,2,2,4),(0.,0.188353754114942,
0.376707508229885,0.565378297174162,0.75404908611844),.UNSPECIFIED.);
#33=B_SPLINE_CURVE_WITH_KNOTS('',3,(#836,#837,#838,#839,#840,#841,#842,
#843,#844,#845),.UNSPECIFIED.,.F.,.F.,(4,2,2,2,4),(-0.76470751197898,-0.570228477535431,
-0.375749443091882,-0.187874721545941,0.),.UNSPECIFIED.);
#34=B_SPLINE_CURVE_WITH_KNOTS('',3,(#861,#862,#863,#864,#865,#866,#867,
#868,#869,#870),.UNSPECIFIED.,.F.,.F.,(4,2,2,2,4),(0.378093855177631,0.473507973092699,
0.568922091007767,0.663084837479731,0.757247583951695),.UNSPECIFIED.);
#35=B_SPLINE_CURVE_WITH_KNOTS('',3,(#916,#917,#918,#919,#920,#921,#922,
#923,#924,#925),.UNSPECIFIED.,.F.,.F.,(4,2,2,2,4),(0.757247583951693,0.851737131841793,
0.946226679731892,1.04131421340453,1.13640174707717),.UNSPECIFIED.);
#36=LINE('',#800,#73);
#37=LINE('',#801,#74);
#38=LINE('',#813,#75);
#39=LINE('',#814,#76);
#40=LINE('',#828,#77);
#41=LINE('',#829,#78);
#42=LINE('',#846,#79);
#43=LINE('',#847,#80);
#44=LINE('',#852,#81);
#45=LINE('',#853,#82);
#46=LINE('',#859,#83);
#47=LINE('',#871,#84);
#48=LINE('',#886,#85);
#49=LINE('',#889,#86);
#50=LINE('',#892,#87);
#51=LINE('',#896,#88);
#52=LINE('',#897,#89);
#53=LINE('',#926,#90);
#54=LINE('',#927,#91);
#55=LINE('',#930,#92);
#56=LINE('',#932,#93);
#57=LINE('',#933,#94);
#58=LINE('',#936,#95);
#59=LINE('',#940,#96);
#60=LINE('',#944,#97);
#61=LINE('',#949,#98);
#62=LINE('',#953,#99);
#63=LINE('',#956,#100);
#64=LINE('',#962,#101);
#65=LINE('',#965,#102);
#66=LINE('',#969,#103);
#67=LINE('',#972,#104);
#68=LINE('',#973,#105);
#69=LINE('',#975,#106);
#70=LINE('',#976,#107);
#71=LINE('',#978,#108);
#72=LINE('',#980,#109);
#73=VECTOR('',#625,10.);
#74=VECTOR('',#626,10.);
#75=VECTOR('',#639,10.);
#76=VECTOR('',#640,10.);
#77=VECTOR('',#643,10.);
#78=VECTOR('',#644,10.);
#79=VECTOR('',#653,10.);
#80=VECTOR('',#654,10.);
#81=VECTOR('',#661,10.);
#82=VECTOR('',#662,10.);
#83=VECTOR('',#667,10.);
#84=VECTOR('',#668,10.);
#85=VECTOR('',#687,10.);
#86=VECTOR('',#690,10.);
#87=VECTOR('',#693,10.);
#88=VECTOR('',#698,10.);
#89=VECTOR('',#699,10.);
#90=VECTOR('',#720,10.);
#91=VECTOR('',#721,10.);
#92=VECTOR('',#724,10.);
#93=VECTOR('',#725,10.);
#94=VECTOR('',#726,10.);
#95=VECTOR('',#729,10.);
#96=VECTOR('',#734,10.);
#97=VECTOR('',#739,10.);
#98=VECTOR('',#746,10.);
#99=VECTOR('',#749,10.);
#100=VECTOR('',#752,10.);
#101=VECTOR('',#761,10.);
#102=VECTOR('',#764,10.);
#103=VECTOR('',#767,10.);
#104=VECTOR('',#772,10.);
#105=VECTOR('',#773,10.);
#106=VECTOR('',#776,10.);
#107=VECTOR('',#777,10.);
#108=VECTOR('',#780,10.);
#109=VECTOR('',#783,10.);
#110=CYLINDRICAL_SURFACE('',#546,5.);
#111=CYLINDRICAL_SURFACE('',#552,5.);
#112=CYLINDRICAL_SURFACE('',#554,5.);
#113=CYLINDRICAL_SURFACE('',#558,5.);
#114=CYLINDRICAL_SURFACE('',#559,20.2);
#115=CYLINDRICAL_SURFACE('',#562,2.5);
#116=CYLINDRICAL_SURFACE('',#572,20.2);
#117=CYLINDRICAL_SURFACE('',#574,20.);
#118=CYLINDRICAL_SURFACE('',#586,2.5);
#119=CYLINDRICAL_SURFACE('',#588,20.);
#120=CYLINDRICAL_SURFACE('',#590,20.2);
#121=CYLINDRICAL_SURFACE('',#606,15.2);
#122=CYLINDRICAL_SURFACE('',#608,55.);
#123=FACE_OUTER_BOUND('',#155,.T.);
#124=FACE_OUTER_BOUND('',#156,.T.);
#125=FACE_OUTER_BOUND('',#157,.T.);
#126=FACE_OUTER_BOUND('',#158,.T.);
#127=FACE_OUTER_BOUND('',#159,.T.);
#128=FACE_OUTER_BOUND('',#160,.T.);
#129=FACE_OUTER_BOUND('',#161,.T.);
#130=FACE_OUTER_BOUND('',#162,.T.);
#131=FACE_OUTER_BOUND('',#163,.T.);
#132=FACE_OUTER_BOUND('',#164,.T.);
#133=FACE_OUTER_BOUND('',#165,.T.);
#134=FACE_OUTER_BOUND('',#166,.T.);
#135=FACE_OUTER_BOUND('',#167,.T.);
#136=FACE_OUTER_BOUND('',#168,.T.);
#137=FACE_OUTER_BOUND('',#169,.T.);
#138=FACE_OUTER_BOUND('',#170,.T.);
#139=FACE_OUTER_BOUND('',#171,.T.);
#140=FACE_OUTER_BOUND('',#172,.T.);
#141=FACE_OUTER_BOUND('',#173,.T.);
#142=FACE_OUTER_BOUND('',#174,.T.);
#143=FACE_OUTER_BOUND('',#175,.T.);
#144=FACE_OUTER_BOUND('',#176,.T.);
#145=FACE_OUTER_BOUND('',#177,.T.);
#146=FACE_OUTER_BOUND('',#178,.T.);
#147=FACE_OUTER_BOUND('',#179,.T.);
#148=FACE_OUTER_BOUND('',#180,.T.);
#149=FACE_OUTER_BOUND('',#181,.T.);
#150=FACE_OUTER_BOUND('',#182,.T.);
#151=FACE_OUTER_BOUND('',#183,.T.);
#152=FACE_OUTER_BOUND('',#184,.T.);
#153=FACE_OUTER_BOUND('',#185,.T.);
#154=FACE_OUTER_BOUND('',#186,.T.);
#155=EDGE_LOOP('',(#350,#351,#352));
#156=EDGE_LOOP('',(#353,#354,#355,#356));
#157=EDGE_LOOP('',(#357,#358,#359));
#158=EDGE_LOOP('',(#360,#361,#362,#363));
#159=EDGE_LOOP('',(#364,#365,#366,#367));
#160=EDGE_LOOP('',(#368,#369,#370,#371));
#161=EDGE_LOOP('',(#372,#373,#374,#375));
#162=EDGE_LOOP('',(#376,#377,#378,#379));
#163=EDGE_LOOP('',(#380,#381,#382,#383));
#164=EDGE_LOOP('',(#384,#385,#386,#387));
#165=EDGE_LOOP('',(#388,#389,#390,#391));
#166=EDGE_LOOP('',(#392,#393,#394,#395));
#167=EDGE_LOOP('',(#396,#397,#398,#399));
#168=EDGE_LOOP('',(#400,#401,#402,#403));
#169=EDGE_LOOP('',(#404,#405,#406,#407));
#170=EDGE_LOOP('',(#408,#409,#410,#411));
#171=EDGE_LOOP('',(#412,#413,#414,#415));
#172=EDGE_LOOP('',(#416,#417,#418,#419));
#173=EDGE_LOOP('',(#420,#421,#422,#423));
#174=EDGE_LOOP('',(#424,#425,#426,#427));
#175=EDGE_LOOP('',(#428,#429,#430,#431));
#176=EDGE_LOOP('',(#432,#433,#434,#435,#436));
#177=EDGE_LOOP('',(#437,#438,#439,#440,#441,#442,#443,#444,#445,#446,#447,
#448,#449));
#178=EDGE_LOOP('',(#450,#451,#452,#453));
#179=EDGE_LOOP('',(#454,#455,#456,#457,#458));
#180=EDGE_LOOP('',(#459,#460,#461,#462,#463,#464,#465));
#181=EDGE_LOOP('',(#466,#467,#468,#469,#470,#471));
#182=EDGE_LOOP('',(#472,#473,#474,#475));
#183=EDGE_LOOP('',(#476,#477,#478,#479));
#184=EDGE_LOOP('',(#480,#481,#482,#483,#484,#485,#486,#487,#488,#489,#490,
#491,#492,#493,#494,#495));
#185=EDGE_LOOP('',(#496,#497,#498,#499));
#186=EDGE_LOOP('',(#500,#501,#502,#503,#504,#505));
#187=CIRCLE('',#543,5.);
#188=CIRCLE('',#544,5.);
#189=CIRCLE('',#545,5.);
#190=CIRCLE('',#547,5.);
#191=CIRCLE('',#549,5.);
#192=CIRCLE('',#550,5.);
#193=CIRCLE('',#551,5.);
#194=CIRCLE('',#553,5.);
#195=CIRCLE('',#556,20.2);
#196=CIRCLE('',#557,25.2);
#197=CIRCLE('',#560,20.2);
#198=CIRCLE('',#563,2.5);
#199=CIRCLE('',#565,2.50000000000001);
#200=CIRCLE('',#566,22.5);
#201=CIRCLE('',#567,20.);
#202=CIRCLE('',#569,2.5);
#203=CIRCLE('',#570,17.7);
#204=CIRCLE('',#571,20.2);
#205=CIRCLE('',#573,20.2);
#206=CIRCLE('',#575,20.);
#207=CIRCLE('',#578,2.5);
#208=CIRCLE('',#579,20.2);
#209=CIRCLE('',#580,2.49999999999999);
#210=CIRCLE('',#581,17.7);
#211=CIRCLE('',#583,2.50000000000001);
#212=CIRCLE('',#584,22.5);
#213=CIRCLE('',#585,20.);
#214=CIRCLE('',#589,20.);
#215=CIRCLE('',#591,20.2);
#216=CIRCLE('',#593,55.);
#217=CIRCLE('',#595,55.);
#218=CIRCLE('',#596,55.);
#219=CIRCLE('',#597,15.2);
#220=CIRCLE('',#599,55.);
#221=CIRCLE('',#601,55.);
#222=CIRCLE('',#603,15.2);
#223=CIRCLE('',#604,55.);
#224=VERTEX_POINT('',#790);
#225=VERTEX_POINT('',#791);
#226=VERTEX_POINT('',#793);
#227=VERTEX_POINT('',#797);
#228=VERTEX_POINT('',#798);
#229=VERTEX_POINT('',#803);
#230=VERTEX_POINT('',#804);
#231=VERTEX_POINT('',#806);
#232=VERTEX_POINT('',#810);
#233=VERTEX_POINT('',#811);
#234=VERTEX_POINT('',#816);
#235=VERTEX_POINT('',#817);
#236=VERTEX_POINT('',#834);
#237=VERTEX_POINT('',#835);
#238=VERTEX_POINT('',#851);
#239=VERTEX_POINT('',#855);
#240=VERTEX_POINT('',#856);
#241=VERTEX_POINT('',#858);
#242=VERTEX_POINT('',#860);
#243=VERTEX_POINT('',#873);
#244=VERTEX_POINT('',#874);
#245=VERTEX_POINT('',#879);
#246=VERTEX_POINT('',#880);
#247=VERTEX_POINT('',#885);
#248=VERTEX_POINT('',#887);
#249=VERTEX_POINT('',#891);
#250=VERTEX_POINT('',#895);
#251=VERTEX_POINT('',#899);
#252=VERTEX_POINT('',#900);
#253=VERTEX_POINT('',#902);
#254=VERTEX_POINT('',#904);
#255=VERTEX_POINT('',#908);
#256=VERTEX_POINT('',#909);
#257=VERTEX_POINT('',#914);
#258=VERTEX_POINT('',#915);
#259=VERTEX_POINT('',#929);
#260=VERTEX_POINT('',#931);
#261=VERTEX_POINT('',#935);
#262=VERTEX_POINT('',#939);
#263=VERTEX_POINT('',#943);
#264=VERTEX_POINT('',#947);
#265=VERTEX_POINT('',#950);
#266=VERTEX_POINT('',#952);
#267=VERTEX_POINT('',#954);
#268=VERTEX_POINT('',#960);
#269=VERTEX_POINT('',#964);
#270=VERTEX_POINT('',#966);
#271=VERTEX_POINT('',#968);
#272=EDGE_CURVE('',#224,#225,#187,.F.);
#273=EDGE_CURVE('',#226,#224,#188,.F.);
#274=EDGE_CURVE('',#225,#226,#189,.F.);
#275=EDGE_CURVE('',#227,#228,#190,.T.);
#276=EDGE_CURVE('',#228,#226,#36,.T.);
#277=EDGE_CURVE('',#224,#227,#37,.T.);
#278=EDGE_CURVE('',#229,#230,#191,.F.);
#279=EDGE_CURVE('',#231,#229,#192,.F.);
#280=EDGE_CURVE('',#230,#231,#193,.F.);
#281=EDGE_CURVE('',#232,#233,#194,.T.);
#282=EDGE_CURVE('',#233,#231,#38,.T.);
#283=EDGE_CURVE('',#229,#232,#39,.T.);
#284=EDGE_CURVE('',#234,#235,#32,.T.);
#285=EDGE_CURVE('',#235,#230,#40,.T.);
#286=EDGE_CURVE('',#231,#234,#41,.T.);
#287=EDGE_CURVE('',#226,#229,#195,.T.);
#288=EDGE_CURVE('',#230,#225,#196,.T.);
#289=EDGE_CURVE('',#236,#237,#33,.T.);
#290=EDGE_CURVE('',#237,#224,#42,.T.);
#291=EDGE_CURVE('',#225,#236,#43,.T.);
#292=EDGE_CURVE('',#232,#228,#197,.T.);
#293=EDGE_CURVE('',#237,#238,#44,.T.);
#294=EDGE_CURVE('',#227,#238,#45,.T.);
#295=EDGE_CURVE('',#239,#240,#198,.T.);
#296=EDGE_CURVE('',#240,#241,#46,.T.);
#297=EDGE_CURVE('',#241,#242,#34,.T.);
#298=EDGE_CURVE('',#242,#239,#47,.T.);
#299=EDGE_CURVE('',#243,#244,#199,.T.);
#300=EDGE_CURVE('',#244,#240,#200,.T.);
#301=EDGE_CURVE('',#239,#243,#201,.T.);
#302=EDGE_CURVE('',#245,#246,#202,.T.);
#303=EDGE_CURVE('',#246,#244,#203,.T.);
#304=EDGE_CURVE('',#243,#245,#204,.T.);
#305=EDGE_CURVE('',#247,#243,#48,.T.);
#306=EDGE_CURVE('',#248,#247,#205,.T.);
#307=EDGE_CURVE('',#248,#245,#49,.T.);
#308=EDGE_CURVE('',#239,#249,#50,.T.);
#309=EDGE_CURVE('',#249,#247,#206,.T.);
#310=EDGE_CURVE('',#250,#242,#51,.T.);
#311=EDGE_CURVE('',#249,#250,#52,.T.);
#312=EDGE_CURVE('',#251,#252,#207,.F.);
#313=EDGE_CURVE('',#251,#253,#208,.T.);
#314=EDGE_CURVE('',#253,#254,#209,.T.);
#315=EDGE_CURVE('',#254,#252,#210,.T.);
#316=EDGE_CURVE('',#255,#256,#211,.T.);
#317=EDGE_CURVE('',#256,#254,#212,.T.);
#318=EDGE_CURVE('',#253,#255,#213,.T.);
#319=EDGE_CURVE('',#257,#258,#35,.T.);
#320=EDGE_CURVE('',#258,#256,#53,.T.);
#321=EDGE_CURVE('',#255,#257,#54,.T.);
#322=EDGE_CURVE('',#259,#255,#55,.T.);
#323=EDGE_CURVE('',#260,#259,#56,.T.);
#324=EDGE_CURVE('',#257,#260,#57,.T.);
#325=EDGE_CURVE('',#253,#261,#58,.T.);
#326=EDGE_CURVE('',#261,#259,#214,.T.);
#327=EDGE_CURVE('',#251,#262,#59,.T.);
#328=EDGE_CURVE('',#261,#262,#215,.T.);
#329=EDGE_CURVE('',#262,#263,#60,.T.);
#330=EDGE_CURVE('',#263,#260,#216,.T.);
#331=EDGE_CURVE('',#258,#264,#217,.T.);
#332=EDGE_CURVE('',#264,#233,#61,.T.);
#333=EDGE_CURVE('',#238,#265,#218,.T.);
#334=EDGE_CURVE('',#265,#266,#62,.T.);
#335=EDGE_CURVE('',#266,#267,#219,.T.);
#336=EDGE_CURVE('',#267,#252,#63,.T.);
#337=EDGE_CURVE('',#235,#236,#220,.T.);
#338=EDGE_CURVE('',#268,#250,#221,.T.);
#339=EDGE_CURVE('',#248,#268,#64,.T.);
#340=EDGE_CURVE('',#269,#246,#65,.T.);
#341=EDGE_CURVE('',#269,#270,#222,.T.);
#342=EDGE_CURVE('',#270,#271,#66,.T.);
#343=EDGE_CURVE('',#241,#271,#223,.T.);
#344=EDGE_CURVE('',#268,#263,#67,.T.);
#345=EDGE_CURVE('',#245,#251,#68,.T.);
#346=EDGE_CURVE('',#269,#267,#69,.T.);
#347=EDGE_CURVE('',#270,#266,#70,.T.);
#348=EDGE_CURVE('',#271,#265,#71,.T.);
#349=EDGE_CURVE('',#234,#264,#72,.T.);
#350=ORIENTED_EDGE('',*,*,#272,.F.);
#351=ORIENTED_EDGE('',*,*,#273,.F.);
#352=ORIENTED_EDGE('',*,*,#274,.F.);
#353=ORIENTED_EDGE('',*,*,#275,.T.);
#354=ORIENTED_EDGE('',*,*,#276,.T.);
#355=ORIENTED_EDGE('',*,*,#273,.T.);
#356=ORIENTED_EDGE('',*,*,#277,.T.);
#357=ORIENTED_EDGE('',*,*,#278,.F.);
#358=ORIENTED_EDGE('',*,*,#279,.F.);
#359=ORIENTED_EDGE('',*,*,#280,.F.);
#360=ORIENTED_EDGE('',*,*,#281,.T.);
#361=ORIENTED_EDGE('',*,*,#282,.T.);
#362=ORIENTED_EDGE('',*,*,#279,.T.);
#363=ORIENTED_EDGE('',*,*,#283,.T.);
#364=ORIENTED_EDGE('',*,*,#284,.T.);
#365=ORIENTED_EDGE('',*,*,#285,.T.);
#366=ORIENTED_EDGE('',*,*,#280,.T.);
#367=ORIENTED_EDGE('',*,*,#286,.T.);
#368=ORIENTED_EDGE('',*,*,#274,.T.);
#369=ORIENTED_EDGE('',*,*,#287,.T.);
#370=ORIENTED_EDGE('',*,*,#278,.T.);
#371=ORIENTED_EDGE('',*,*,#288,.T.);
#372=ORIENTED_EDGE('',*,*,#289,.T.);
#373=ORIENTED_EDGE('',*,*,#290,.T.);
#374=ORIENTED_EDGE('',*,*,#272,.T.);
#375=ORIENTED_EDGE('',*,*,#291,.T.);
#376=ORIENTED_EDGE('',*,*,#283,.F.);
#377=ORIENTED_EDGE('',*,*,#287,.F.);
#378=ORIENTED_EDGE('',*,*,#276,.F.);
#379=ORIENTED_EDGE('',*,*,#292,.F.);
#380=ORIENTED_EDGE('',*,*,#277,.F.);
#381=ORIENTED_EDGE('',*,*,#290,.F.);
#382=ORIENTED_EDGE('',*,*,#293,.T.);
#383=ORIENTED_EDGE('',*,*,#294,.F.);
#384=ORIENTED_EDGE('',*,*,#295,.T.);
#385=ORIENTED_EDGE('',*,*,#296,.T.);
#386=ORIENTED_EDGE('',*,*,#297,.T.);
#387=ORIENTED_EDGE('',*,*,#298,.T.);
#388=ORIENTED_EDGE('',*,*,#299,.T.);
#389=ORIENTED_EDGE('',*,*,#300,.T.);
#390=ORIENTED_EDGE('',*,*,#295,.F.);
#391=ORIENTED_EDGE('',*,*,#301,.T.);
#392=ORIENTED_EDGE('',*,*,#302,.T.);
#393=ORIENTED_EDGE('',*,*,#303,.T.);
#394=ORIENTED_EDGE('',*,*,#299,.F.);
#395=ORIENTED_EDGE('',*,*,#304,.T.);
#396=ORIENTED_EDGE('',*,*,#304,.F.);
#397=ORIENTED_EDGE('',*,*,#305,.F.);
#398=ORIENTED_EDGE('',*,*,#306,.F.);
#399=ORIENTED_EDGE('',*,*,#307,.T.);
#400=ORIENTED_EDGE('',*,*,#301,.F.);
#401=ORIENTED_EDGE('',*,*,#308,.T.);
#402=ORIENTED_EDGE('',*,*,#309,.T.);
#403=ORIENTED_EDGE('',*,*,#305,.T.);
#404=ORIENTED_EDGE('',*,*,#298,.F.);
#405=ORIENTED_EDGE('',*,*,#310,.F.);
#406=ORIENTED_EDGE('',*,*,#311,.F.);
#407=ORIENTED_EDGE('',*,*,#308,.F.);
#408=ORIENTED_EDGE('',*,*,#312,.F.);
#409=ORIENTED_EDGE('',*,*,#313,.T.);
#410=ORIENTED_EDGE('',*,*,#314,.T.);
#411=ORIENTED_EDGE('',*,*,#315,.T.);
#412=ORIENTED_EDGE('',*,*,#316,.T.);
#413=ORIENTED_EDGE('',*,*,#317,.T.);
#414=ORIENTED_EDGE('',*,*,#314,.F.);
#415=ORIENTED_EDGE('',*,*,#318,.T.);
#416=ORIENTED_EDGE('',*,*,#319,.T.);
#417=ORIENTED_EDGE('',*,*,#320,.T.);
#418=ORIENTED_EDGE('',*,*,#316,.F.);
#419=ORIENTED_EDGE('',*,*,#321,.T.);
#420=ORIENTED_EDGE('',*,*,#321,.F.);
#421=ORIENTED_EDGE('',*,*,#322,.F.);
#422=ORIENTED_EDGE('',*,*,#323,.F.);
#423=ORIENTED_EDGE('',*,*,#324,.F.);
#424=ORIENTED_EDGE('',*,*,#318,.F.);
#425=ORIENTED_EDGE('',*,*,#325,.T.);
#426=ORIENTED_EDGE('',*,*,#326,.T.);
#427=ORIENTED_EDGE('',*,*,#322,.T.);
#428=ORIENTED_EDGE('',*,*,#313,.F.);
#429=ORIENTED_EDGE('',*,*,#327,.T.);
#430=ORIENTED_EDGE('',*,*,#328,.F.);
#431=ORIENTED_EDGE('',*,*,#325,.F.);
#432=ORIENTED_EDGE('',*,*,#326,.F.);
#433=ORIENTED_EDGE('',*,*,#328,.T.);
#434=ORIENTED_EDGE('',*,*,#329,.T.);
#435=ORIENTED_EDGE('',*,*,#330,.T.);
#436=ORIENTED_EDGE('',*,*,#323,.T.);
#437=ORIENTED_EDGE('',*,*,#320,.F.);
#438=ORIENTED_EDGE('',*,*,#331,.T.);
#439=ORIENTED_EDGE('',*,*,#332,.T.);
#440=ORIENTED_EDGE('',*,*,#281,.F.);
#441=ORIENTED_EDGE('',*,*,#292,.T.);
#442=ORIENTED_EDGE('',*,*,#275,.F.);
#443=ORIENTED_EDGE('',*,*,#294,.T.);
#444=ORIENTED_EDGE('',*,*,#333,.T.);
#445=ORIENTED_EDGE('',*,*,#334,.T.);
#446=ORIENTED_EDGE('',*,*,#335,.T.);
#447=ORIENTED_EDGE('',*,*,#336,.T.);
#448=ORIENTED_EDGE('',*,*,#315,.F.);
#449=ORIENTED_EDGE('',*,*,#317,.F.);
#450=ORIENTED_EDGE('',*,*,#285,.F.);
#451=ORIENTED_EDGE('',*,*,#337,.T.);
#452=ORIENTED_EDGE('',*,*,#291,.F.);
#453=ORIENTED_EDGE('',*,*,#288,.F.);
#454=ORIENTED_EDGE('',*,*,#309,.F.);
#455=ORIENTED_EDGE('',*,*,#311,.T.);
#456=ORIENTED_EDGE('',*,*,#338,.F.);
#457=ORIENTED_EDGE('',*,*,#339,.F.);
#458=ORIENTED_EDGE('',*,*,#306,.T.);
#459=ORIENTED_EDGE('',*,*,#303,.F.);
#460=ORIENTED_EDGE('',*,*,#340,.F.);
#461=ORIENTED_EDGE('',*,*,#341,.T.);
#462=ORIENTED_EDGE('',*,*,#342,.T.);
#463=ORIENTED_EDGE('',*,*,#343,.F.);
#464=ORIENTED_EDGE('',*,*,#296,.F.);
#465=ORIENTED_EDGE('',*,*,#300,.F.);
#466=ORIENTED_EDGE('',*,*,#344,.T.);
#467=ORIENTED_EDGE('',*,*,#329,.F.);
#468=ORIENTED_EDGE('',*,*,#327,.F.);
#469=ORIENTED_EDGE('',*,*,#345,.F.);
#470=ORIENTED_EDGE('',*,*,#307,.F.);
#471=ORIENTED_EDGE('',*,*,#339,.T.);
#472=ORIENTED_EDGE('',*,*,#341,.F.);
#473=ORIENTED_EDGE('',*,*,#346,.T.);
#474=ORIENTED_EDGE('',*,*,#335,.F.);
#475=ORIENTED_EDGE('',*,*,#347,.F.);
#476=ORIENTED_EDGE('',*,*,#342,.F.);
#477=ORIENTED_EDGE('',*,*,#347,.T.);
#478=ORIENTED_EDGE('',*,*,#334,.F.);
#479=ORIENTED_EDGE('',*,*,#348,.F.);
#480=ORIENTED_EDGE('',*,*,#343,.T.);
#481=ORIENTED_EDGE('',*,*,#348,.T.);
#482=ORIENTED_EDGE('',*,*,#333,.F.);
#483=ORIENTED_EDGE('',*,*,#293,.F.);
#484=ORIENTED_EDGE('',*,*,#289,.F.);
#485=ORIENTED_EDGE('',*,*,#337,.F.);
#486=ORIENTED_EDGE('',*,*,#284,.F.);
#487=ORIENTED_EDGE('',*,*,#349,.T.);
#488=ORIENTED_EDGE('',*,*,#331,.F.);
#489=ORIENTED_EDGE('',*,*,#319,.F.);
#490=ORIENTED_EDGE('',*,*,#324,.T.);
#491=ORIENTED_EDGE('',*,*,#330,.F.);
#492=ORIENTED_EDGE('',*,*,#344,.F.);
#493=ORIENTED_EDGE('',*,*,#338,.T.);
#494=ORIENTED_EDGE('',*,*,#310,.T.);
#495=ORIENTED_EDGE('',*,*,#297,.F.);
#496=ORIENTED_EDGE('',*,*,#282,.F.);
#497=ORIENTED_EDGE('',*,*,#332,.F.);
#498=ORIENTED_EDGE('',*,*,#349,.F.);
#499=ORIENTED_EDGE('',*,*,#286,.F.);
#500=ORIENTED_EDGE('',*,*,#340,.T.);
#501=ORIENTED_EDGE('',*,*,#302,.F.);
#502=ORIENTED_EDGE('',*,*,#345,.T.);
#503=ORIENTED_EDGE('',*,*,#312,.T.);
#504=ORIENTED_EDGE('',*,*,#336,.F.);
#505=ORIENTED_EDGE('',*,*,#346,.F.);
#506=SPHERICAL_SURFACE('',#542,5.);
#507=SPHERICAL_SURFACE('',#548,5.);
#508=ADVANCED_FACE('',(#123),#506,.F.);
#509=ADVANCED_FACE('',(#124),#110,.F.);
#510=ADVANCED_FACE('',(#125),#507,.F.);
#511=ADVANCED_FACE('',(#126),#111,.F.);
#512=ADVANCED_FACE('',(#127),#112,.F.);
#513=ADVANCED_FACE('',(#128),#27,.F.);
#514=ADVANCED_FACE('',(#129),#113,.F.);
#515=ADVANCED_FACE('',(#130),#114,.T.);
#516=ADVANCED_FACE('',(#131),#15,.T.);
#517=ADVANCED_FACE('',(#132),#115,.F.);
#518=ADVANCED_FACE('',(#133),#28,.F.);
#519=ADVANCED_FACE('',(#134),#29,.F.);
#520=ADVANCED_FACE('',(#135),#116,.F.);
#521=ADVANCED_FACE('',(#136),#117,.T.);
#522=ADVANCED_FACE('',(#137),#16,.T.);
#523=ADVANCED_FACE('',(#138),#30,.F.);
#524=ADVANCED_FACE('',(#139),#31,.F.);
#525=ADVANCED_FACE('',(#140),#118,.F.);
#526=ADVANCED_FACE('',(#141),#17,.T.);
#527=ADVANCED_FACE('',(#142),#119,.T.);
#528=ADVANCED_FACE('',(#143),#120,.F.);
#529=ADVANCED_FACE('',(#144),#18,.T.);
#530=ADVANCED_FACE('',(#145),#19,.T.);
#531=ADVANCED_FACE('',(#146),#20,.T.);
#532=ADVANCED_FACE('',(#147),#21,.F.);
#533=ADVANCED_FACE('',(#148),#22,.F.);
#534=ADVANCED_FACE('',(#149),#23,.T.);
#535=ADVANCED_FACE('',(#150),#121,.F.);
#536=ADVANCED_FACE('',(#151),#24,.T.);
#537=ADVANCED_FACE('',(#152),#122,.T.);
#538=ADVANCED_FACE('',(#153),#25,.T.);
#539=ADVANCED_FACE('',(#154),#26,.T.);
#540=CLOSED_SHELL('',(#508,#509,#510,#511,#512,#513,#514,#515,#516,#517,
#518,#519,#520,#521,#522,#523,#524,#525,#526,#527,#528,#529,#530,#531,#532,
#533,#534,#535,#536,#537,#538,#539));
#541=AXIS2_PLACEMENT_3D('',#788,#611,#612);
#542=AXIS2_PLACEMENT_3D('',#789,#613,#614);
#543=AXIS2_PLACEMENT_3D('',#792,#615,#616);
#544=AXIS2_PLACEMENT_3D('',#794,#617,#618);
#545=AXIS2_PLACEMENT_3D('',#795,#619,#620);
#546=AXIS2_PLACEMENT_3D('',#796,#621,#622);
#547=AXIS2_PLACEMENT_3D('',#799,#623,#624);
#548=AXIS2_PLACEMENT_3D('',#802,#627,#628);
#549=AXIS2_PLACEMENT_3D('',#805,#629,#630);
#550=AXIS2_PLACEMENT_3D('',#807,#631,#632);
#551=AXIS2_PLACEMENT_3D('',#808,#633,#634);
#552=AXIS2_PLACEMENT_3D('',#809,#635,#636);
#553=AXIS2_PLACEMENT_3D('',#812,#637,#638);
#554=AXIS2_PLACEMENT_3D('',#815,#641,#642);
#555=AXIS2_PLACEMENT_3D('',#830,#645,#646);
#556=AXIS2_PLACEMENT_3D('',#831,#647,#648);
#557=AXIS2_PLACEMENT_3D('',#832,#649,#650);
#558=AXIS2_PLACEMENT_3D('',#833,#651,#652);
#559=AXIS2_PLACEMENT_3D('',#848,#655,#656);
#560=AXIS2_PLACEMENT_3D('',#849,#657,#658);
#561=AXIS2_PLACEMENT_3D('',#850,#659,#660);
#562=AXIS2_PLACEMENT_3D('',#854,#663,#664);
#563=AXIS2_PLACEMENT_3D('',#857,#665,#666);
#564=AXIS2_PLACEMENT_3D('',#872,#669,#670);
#565=AXIS2_PLACEMENT_3D('',#875,#671,#672);
#566=AXIS2_PLACEMENT_3D('',#876,#673,#674);
#567=AXIS2_PLACEMENT_3D('',#877,#675,#676);
#568=AXIS2_PLACEMENT_3D('',#878,#677,#678);
#569=AXIS2_PLACEMENT_3D('',#881,#679,#680);
#570=AXIS2_PLACEMENT_3D('',#882,#681,#682);
#571=AXIS2_PLACEMENT_3D('',#883,#683,#684);
#572=AXIS2_PLACEMENT_3D('',#884,#685,#686);
#573=AXIS2_PLACEMENT_3D('',#888,#688,#689);
#574=AXIS2_PLACEMENT_3D('',#890,#691,#692);
#575=AXIS2_PLACEMENT_3D('',#893,#694,#695);
#576=AXIS2_PLACEMENT_3D('',#894,#696,#697);
#577=AXIS2_PLACEMENT_3D('',#898,#700,#701);
#578=AXIS2_PLACEMENT_3D('',#901,#702,#703);
#579=AXIS2_PLACEMENT_3D('',#903,#704,#705);
#580=AXIS2_PLACEMENT_3D('',#905,#706,#707);
#581=AXIS2_PLACEMENT_3D('',#906,#708,#709);
#582=AXIS2_PLACEMENT_3D('',#907,#710,#711);
#583=AXIS2_PLACEMENT_3D('',#910,#712,#713);
#584=AXIS2_PLACEMENT_3D('',#911,#714,#715);
#585=AXIS2_PLACEMENT_3D('',#912,#716,#717);
#586=AXIS2_PLACEMENT_3D('',#913,#718,#719);
#587=AXIS2_PLACEMENT_3D('',#928,#722,#723);
#588=AXIS2_PLACEMENT_3D('',#934,#727,#728);
#589=AXIS2_PLACEMENT_3D('',#937,#730,#731);
#590=AXIS2_PLACEMENT_3D('',#938,#732,#733);
#591=AXIS2_PLACEMENT_3D('',#941,#735,#736);
#592=AXIS2_PLACEMENT_3D('',#942,#737,#738);
#593=AXIS2_PLACEMENT_3D('',#945,#740,#741);
#594=AXIS2_PLACEMENT_3D('',#946,#742,#743);
#595=AXIS2_PLACEMENT_3D('',#948,#744,#745);
#596=AXIS2_PLACEMENT_3D('',#951,#747,#748);
#597=AXIS2_PLACEMENT_3D('',#955,#750,#751);
#598=AXIS2_PLACEMENT_3D('',#957,#753,#754);
#599=AXIS2_PLACEMENT_3D('',#958,#755,#756);
#600=AXIS2_PLACEMENT_3D('',#959,#757,#758);
#601=AXIS2_PLACEMENT_3D('',#961,#759,#760);
#602=AXIS2_PLACEMENT_3D('',#963,#762,#763);
#603=AXIS2_PLACEMENT_3D('',#967,#765,#766);
#604=AXIS2_PLACEMENT_3D('',#970,#768,#769);
#605=AXIS2_PLACEMENT_3D('',#971,#770,#771);
#606=AXIS2_PLACEMENT_3D('',#974,#774,#775);
#607=AXIS2_PLACEMENT_3D('',#977,#778,#779);
#608=AXIS2_PLACEMENT_3D('',#979,#781,#782);
#609=AXIS2_PLACEMENT_3D('',#981,#784,#785);
#610=AXIS2_PLACEMENT_3D('',#982,#786,#787);
#611=DIRECTION('axis',(0.,0.,1.));
#612=DIRECTION('refdir',(1.,0.,0.));
#613=DIRECTION('center_axis',(-0.92128014898187,-0.329969598396975,-0.205822620782271));
#614=DIRECTION('ref_axis',(0.388899584844139,-0.78167849135783,-0.4875816332232));
#615=DIRECTION('center_axis',(-1.,0.,-8.88178419700125E-16));
#616=DIRECTION('ref_axis',(0.,-1.,0.));
#617=DIRECTION('center_axis',(0.,0.,1.));
#618=DIRECTION('ref_axis',(0.797609176279436,-0.603174603174603,0.));
#619=DIRECTION('center_axis',(0.603174603174604,0.797609176279435,0.));
#620=DIRECTION('ref_axis',(0.,0.,-1.));
#621=DIRECTION('center_axis',(0.,0.,1.));
#622=DIRECTION('ref_axis',(0.445435403187374,-0.895314079855389,0.));
#623=DIRECTION('center_axis',(0.,0.,1.));
#624=DIRECTION('ref_axis',(0.445435403187374,-0.895314079855389,0.));
#625=DIRECTION('',(0.,0.,-1.));
#626=DIRECTION('',(0.,0.,1.));
#627=DIRECTION('center_axis',(-0.420002225183247,0.343497677147324,-0.840004450366493));
#628=DIRECTION('ref_axis',(0.650234173238743,-0.531792249462178,-0.542579508795242));
#629=DIRECTION('center_axis',(-0.980118564821926,-0.198412698412699,-2.17630039505573E-16));
#630=DIRECTION('ref_axis',(0.198412698412699,-0.980118564821926,0.));
#631=DIRECTION('center_axis',(0.,0.,1.));
#632=DIRECTION('ref_axis',(1.,0.,0.));
#633=DIRECTION('center_axis',(-8.88178419700125E-16,1.,0.));
#634=DIRECTION('ref_axis',(0.,0.,-1.));
#635=DIRECTION('center_axis',(0.,0.,1.));
#636=DIRECTION('ref_axis',(0.774084200333755,-0.633082657157539,0.));
#637=DIRECTION('center_axis',(0.,0.,1.));
#638=DIRECTION('ref_axis',(0.774084200333755,-0.633082657157539,0.));
#639=DIRECTION('',(0.,0.,-1.));
#640=DIRECTION('',(0.,0.,1.));
#641=DIRECTION('center_axis',(0.,-1.,0.));
#642=DIRECTION('ref_axis',(0.707106781186547,0.,-0.707106781186547));
#643=DIRECTION('',(0.,-1.,0.));
#644=DIRECTION('',(0.,1.,0.));
#645=DIRECTION('center_axis',(0.,0.,1.));
#646=DIRECTION('ref_axis',(1.,0.,0.));
#647=DIRECTION('center_axis',(0.,0.,-1.));
#648=DIRECTION('ref_axis',(-0.497518595104994,0.867453311438001,0.));
#649=DIRECTION('center_axis',(0.,0.,1.));
#650=DIRECTION('ref_axis',(-0.497518595104994,0.867453311438001,0.));
#651=DIRECTION('center_axis',(-1.,0.,0.));
#652=DIRECTION('ref_axis',(0.,-0.707106781186547,-0.707106781186547));
#653=DIRECTION('',(1.,0.,0.));
#654=DIRECTION('',(-1.,0.,0.));
#655=DIRECTION('center_axis',(0.,0.,1.));
#656=DIRECTION('ref_axis',(1.,0.,0.));
#657=DIRECTION('center_axis',(0.,0.,1.));
#658=DIRECTION('ref_axis',(1.,0.,0.));
#659=DIRECTION('center_axis',(0.,1.,0.));
#660=DIRECTION('ref_axis',(-1.,0.,0.));
#661=DIRECTION('',(0.,0.,1.));
#662=DIRECTION('',(-1.,0.,0.));
#663=DIRECTION('center_axis',(-1.,0.,0.));
#664=DIRECTION('ref_axis',(0.,0.707106781186547,0.707106781186547));
#665=DIRECTION('center_axis',(1.,0.,0.));
#666=DIRECTION('ref_axis',(0.,1.,0.));
#667=DIRECTION('',(-1.,0.,0.));
#668=DIRECTION('',(1.,0.,0.));
#669=DIRECTION('center_axis',(0.,0.,-1.));
#670=DIRECTION('ref_axis',(-1.,0.,0.));
#671=DIRECTION('center_axis',(0.751243781094527,0.660024833901572,0.));
#672=DIRECTION('ref_axis',(-0.660024833901572,0.751243781094527,0.));
#673=DIRECTION('center_axis',(0.,0.,-1.));
#674=DIRECTION('ref_axis',(0.352672807929299,-0.93574670213005,0.));
#675=DIRECTION('center_axis',(0.,0.,1.));
#676=DIRECTION('ref_axis',(0.352672807929299,-0.93574670213005,0.));
#677=DIRECTION('center_axis',(0.,0.,-1.));
#678=DIRECTION('ref_axis',(-1.,0.,0.));
#679=DIRECTION('center_axis',(0.,-1.,0.));
#680=DIRECTION('ref_axis',(1.,0.,0.));
#681=DIRECTION('center_axis',(0.,0.,1.));
#682=DIRECTION('ref_axis',(0.412295504522198,0.911050172576015,0.));
#683=DIRECTION('center_axis',(0.,0.,-1.));
#684=DIRECTION('ref_axis',(0.412295504522198,0.911050172576015,0.));
#685=DIRECTION('center_axis',(0.,0.,1.));
#686=DIRECTION('ref_axis',(1.,0.,0.));
#687=DIRECTION('',(0.,0.,1.));
#688=DIRECTION('center_axis',(0.,0.,1.));
#689=DIRECTION('ref_axis',(1.,0.,0.));
#690=DIRECTION('',(0.,0.,1.));
#691=DIRECTION('center_axis',(0.,0.,1.));
#692=DIRECTION('ref_axis',(0.352672807929299,-0.93574670213005,0.));
#693=DIRECTION('',(0.,0.,-1.));
#694=DIRECTION('center_axis',(0.,0.,1.));
#695=DIRECTION('ref_axis',(0.352672807929299,-0.93574670213005,0.));
#696=DIRECTION('center_axis',(0.,-1.,0.));
#697=DIRECTION('ref_axis',(1.,0.,0.));
#698=DIRECTION('',(0.,0.,1.));
#699=DIRECTION('',(-1.,0.,0.));
#700=DIRECTION('center_axis',(0.,0.,1.));
#701=DIRECTION('ref_axis',(1.,0.,0.));
#702=DIRECTION('center_axis',(0.,-1.,0.));
#703=DIRECTION('ref_axis',(1.,0.,0.));
#704=DIRECTION('center_axis',(0.,0.,1.));
#705=DIRECTION('ref_axis',(0.93574670213005,0.352672807929299,0.));
#706=DIRECTION('center_axis',(-0.66002483390157,0.751243781094529,0.));
#707=DIRECTION('ref_axis',(0.751243781094529,0.66002483390157,0.));
#708=DIRECTION('center_axis',(0.,0.,-1.));
#709=DIRECTION('ref_axis',(0.93574670213005,0.352672807929299,0.));
#710=DIRECTION('center_axis',(0.,0.,1.));
#711=DIRECTION('ref_axis',(1.,0.,0.));
#712=DIRECTION('center_axis',(0.,1.,0.));
#713=DIRECTION('ref_axis',(1.,0.,0.));
#714=DIRECTION('center_axis',(0.,0.,1.));
#715=DIRECTION('ref_axis',(-0.93574670213005,-0.352672807929299,0.));
#716=DIRECTION('center_axis',(0.,0.,-1.));
#717=DIRECTION('ref_axis',(-0.93574670213005,-0.352672807929299,0.));
#718=DIRECTION('center_axis',(0.,1.,0.));
#719=DIRECTION('ref_axis',(0.707106781186547,0.,-0.707106781186547));
#720=DIRECTION('',(0.,-1.,0.));
#721=DIRECTION('',(0.,1.,0.));
#722=DIRECTION('center_axis',(-1.,0.,0.));
#723=DIRECTION('ref_axis',(0.,-1.,0.));
#724=DIRECTION('',(0.,0.,-1.));
#725=DIRECTION('',(0.,-1.,0.));
#726=DIRECTION('',(0.,0.,1.));
#727=DIRECTION('center_axis',(0.,0.,1.));
#728=DIRECTION('ref_axis',(-0.93574670213005,-0.352672807929299,0.));
#729=DIRECTION('',(0.,0.,1.));
#730=DIRECTION('center_axis',(0.,0.,-1.));
#731=DIRECTION('ref_axis',(-0.93574670213005,-0.352672807929299,0.));
#732=DIRECTION('center_axis',(0.,0.,1.));
#733=DIRECTION('ref_axis',(1.,0.,0.));
#734=DIRECTION('',(0.,0.,1.));
#735=DIRECTION('center_axis',(0.,0.,-1.));
#736=DIRECTION('ref_axis',(1.,0.,0.));
#737=DIRECTION('center_axis',(0.,0.,1.));
#738=DIRECTION('ref_axis',(1.,0.,0.));
#739=DIRECTION('',(0.,1.,0.));
#740=DIRECTION('center_axis',(0.,0.,1.));
#741=DIRECTION('ref_axis',(1.,0.,0.));
#742=DIRECTION('center_axis',(0.,0.,1.));
#743=DIRECTION('ref_axis',(1.,0.,0.));
#744=DIRECTION('center_axis',(0.,0.,1.));
#745=DIRECTION('ref_axis',(1.,0.,0.));
#746=DIRECTION('',(0.,-1.,0.));
#747=DIRECTION('center_axis',(0.,0.,1.));
#748=DIRECTION('ref_axis',(1.,0.,0.));
#749=DIRECTION('',(1.,0.,0.));
#750=DIRECTION('center_axis',(0.,0.,-1.));
#751=DIRECTION('ref_axis',(1.,0.,0.));
#752=DIRECTION('',(1.,0.,0.));
#753=DIRECTION('center_axis',(0.,0.,1.));
#754=DIRECTION('ref_axis',(1.,0.,0.));
#755=DIRECTION('center_axis',(0.,0.,1.));
#756=DIRECTION('ref_axis',(1.,0.,0.));
#757=DIRECTION('center_axis',(0.,0.,1.));
#758=DIRECTION('ref_axis',(1.,0.,0.));
#759=DIRECTION('center_axis',(0.,0.,1.));
#760=DIRECTION('ref_axis',(1.,0.,0.));
#761=DIRECTION('',(0.,1.,0.));
#762=DIRECTION('center_axis',(0.,0.,1.));
#763=DIRECTION('ref_axis',(1.,0.,0.));
#764=DIRECTION('',(1.,0.,0.));
#765=DIRECTION('center_axis',(0.,0.,1.));
#766=DIRECTION('ref_axis',(1.,0.,0.));
#767=DIRECTION('',(-1.,0.,0.));
#768=DIRECTION('center_axis',(0.,0.,1.));
#769=DIRECTION('ref_axis',(1.,0.,0.));
#770=DIRECTION('center_axis',(1.,0.,0.));
#771=DIRECTION('ref_axis',(0.,1.,0.));
#772=DIRECTION('',(0.,0.,1.));
#773=DIRECTION('',(0.,0.,1.));
#774=DIRECTION('center_axis',(0.,0.,1.));
#775=DIRECTION('ref_axis',(1.,0.,0.));
#776=DIRECTION('',(0.,0.,1.));
#777=DIRECTION('',(0.,0.,1.));
#778=DIRECTION('center_axis',(0.,-1.,0.));
#779=DIRECTION('ref_axis',(1.,0.,0.));
#780=DIRECTION('',(0.,0.,1.));
#781=DIRECTION('center_axis',(0.,0.,1.));
#782=DIRECTION('ref_axis',(1.,0.,0.));
#783=DIRECTION('',(0.,0.,1.));
#784=DIRECTION('center_axis',(-1.,0.,0.));
#785=DIRECTION('ref_axis',(0.,-1.,0.));
#786=DIRECTION('center_axis',(0.,-1.,0.));
#787=DIRECTION('ref_axis',(1.,0.,0.));
#788=CARTESIAN_POINT('',(0.,0.,0.));
#789=CARTESIAN_POINT('Origin',(-20.0997512422418,15.2,15.));
#790=CARTESIAN_POINT('',(-20.0997512422418,10.2,15.));
#791=CARTESIAN_POINT('',(-20.0997512422418,15.2,10.));
#792=CARTESIAN_POINT('Origin',(-20.0997512422418,15.2,15.));
#793=CARTESIAN_POINT('',(-16.1117053608446,12.184126984127,15.));
#794=CARTESIAN_POINT('Origin',(-20.0997512422418,15.2,15.));
#795=CARTESIAN_POINT('Origin',(-20.0997512422418,15.2,15.));
#796=CARTESIAN_POINT('Origin',(-20.0997512422418,15.2,5.));
#797=CARTESIAN_POINT('',(-20.0997512422418,10.2,64.1285));
#798=CARTESIAN_POINT('',(-16.1117053608446,12.184126984127,64.1285));
#799=CARTESIAN_POINT('Origin',(-20.0997512422418,15.2,64.1285));
#800=CARTESIAN_POINT('',(-16.1117053608446,12.184126984127,5.));
#801=CARTESIAN_POINT('',(-20.0997512422418,10.2,5.));
#802=CARTESIAN_POINT('Origin',(-5.,24.6989878335125,15.));
#803=CARTESIAN_POINT('',(-4.00793650793651,19.7983950094029,15.));
#804=CARTESIAN_POINT('',(-5.,24.6989878335125,10.));
#805=CARTESIAN_POINT('Origin',(-5.,24.6989878335125,15.));
#806=CARTESIAN_POINT('',(0.,24.6989878335125,15.));
#807=CARTESIAN_POINT('Origin',(-5.,24.6989878335125,15.));
#808=CARTESIAN_POINT('Origin',(-5.,24.6989878335125,15.));
#809=CARTESIAN_POINT('Origin',(-5.,24.6989878335125,5.));
#810=CARTESIAN_POINT('',(-4.00793650793651,19.7983950094029,64.1285));
#811=CARTESIAN_POINT('',(0.,24.6989878335125,64.1285));
#812=CARTESIAN_POINT('Origin',(-5.,24.6989878335125,64.1285));
#813=CARTESIAN_POINT('',(0.,24.6989878335125,5.));
#814=CARTESIAN_POINT('',(-4.00793650793651,19.7983950094029,5.));
#815=CARTESIAN_POINT('Origin',(-5.,41.25,15.));
#816=CARTESIAN_POINT('',(0.,55.,15.));
#817=CARTESIAN_POINT('',(-5.,54.7722557505166,10.));
#818=CARTESIAN_POINT('Ctrl Pts',(-5.55111512312578E-16,55.,15.));
#819=CARTESIAN_POINT('Ctrl Pts',(-5.0283284366433E-16,55.,14.3721541529502));
#820=CARTESIAN_POINT('Ctrl Pts',(-0.125484110917669,55.0004486985839,13.7024661508134));
#821=CARTESIAN_POINT('Ctrl Pts',(-0.635778924308979,54.9969170816529,12.4705586342511));
#822=CARTESIAN_POINT('Ctrl Pts',(-1.02059076146847,54.9923227332177,11.9083414266661));
#823=CARTESIAN_POINT('Ctrl Pts',(-1.90908855241875,54.968656617079,11.0198436357158));
#824=CARTESIAN_POINT('Ctrl Pts',(-2.472156898787,54.9478780390188,10.6348344975795));
#825=CARTESIAN_POINT('Ctrl Pts',(-3.70448784004338,54.8785716885868,10.1249298697709));
#826=CARTESIAN_POINT('Ctrl Pts',(-4.37370153304802,54.8294287168633,10.));
#827=CARTESIAN_POINT('Ctrl Pts',(-5.,54.7722557505166,10.));
#828=CARTESIAN_POINT('',(-5.,41.25,10.));
#829=CARTESIAN_POINT('',(0.,41.25,15.));
#830=CARTESIAN_POINT('Origin',(0.,0.,15.));
#831=CARTESIAN_POINT('Origin',(0.,0.,15.));
#832=CARTESIAN_POINT('Origin',(0.,0.,10.));
#833=CARTESIAN_POINT('Origin',(-17.179274490325,15.2,15.));
#834=CARTESIAN_POINT('',(-52.8579227741689,15.2,10.));
#835=CARTESIAN_POINT('',(-54.0459064129745,10.2,15.));
#836=CARTESIAN_POINT('Ctrl Pts',(-52.8579227741689,15.2,10.));
#837=CARTESIAN_POINT('Ctrl Pts',(-53.0370792180199,14.5769843767387,10.));
#838=CARTESIAN_POINT('Ctrl Pts',(-53.21654991321,13.9070884646697,10.1236517698342));
#839=CARTESIAN_POINT('Ctrl Pts',(-53.5252821591412,12.666983218796,10.6371776766615));
#840=CARTESIAN_POINT('Ctrl Pts',(-53.6551454764899,12.0970298775857,11.0273079831714));
#841=CARTESIAN_POINT('Ctrl Pts',(-53.847175023136,11.2107227502973,11.9228338023861));
#842=CARTESIAN_POINT('Ctrl Pts',(-53.9237409843318,10.8303493152899,12.4809817188805));
#843=CARTESIAN_POINT('Ctrl Pts',(-54.0227873998432,10.3249575793054,13.7064536079786));
#844=CARTESIAN_POINT('Ctrl Pts',(-54.0459064129745,10.2,14.3737509281802));
#845=CARTESIAN_POINT('Ctrl Pts',(-54.0459064129745,10.2,15.));
#846=CARTESIAN_POINT('',(-17.179274490325,10.2,15.));
#847=CARTESIAN_POINT('',(-17.179274490325,15.2,10.));
#848=CARTESIAN_POINT('Origin',(0.,0.,5.));
#849=CARTESIAN_POINT('Origin',(0.,0.,64.1285));
#850=CARTESIAN_POINT('Origin',(-17.4355957741627,10.2,5.));
#851=CARTESIAN_POINT('',(-54.0459064129745,10.2,64.1285));
#852=CARTESIAN_POINT('',(-54.0459064129745,10.2,5.));
#853=CARTESIAN_POINT('',(0.,10.2,64.1285));
#854=CARTESIAN_POINT('Origin',(-35.7229532064873,7.7,2.5));
#855=CARTESIAN_POINT('',(-26.5329983228432,10.2,2.5));
#856=CARTESIAN_POINT('',(-26.5329983228432,7.7,5.));
#857=CARTESIAN_POINT('Origin',(-26.5329983228432,7.7,2.5));
#858=CARTESIAN_POINT('',(-54.4583326957409,7.7,5.));
#859=CARTESIAN_POINT('',(-35.7229532064873,7.7,5.));
#860=CARTESIAN_POINT('',(-54.0459064129745,10.2,2.5));
#861=CARTESIAN_POINT('Ctrl Pts',(-54.4583326957409,7.7,5.));
#862=CARTESIAN_POINT('Ctrl Pts',(-54.4138061073805,8.01491477438118,5.));
#863=CARTESIAN_POINT('Ctrl Pts',(-54.3632819092284,8.35052646155124,4.93691512093014));
#864=CARTESIAN_POINT('Ctrl Pts',(-54.2648535631469,8.9679083347945,4.68040097526361));
#865=CARTESIAN_POINT('Ctrl Pts',(-54.2171012779926,9.24970302489509,4.48697243633191));
#866=CARTESIAN_POINT('Ctrl Pts',(-54.1397656533558,9.69203389671971,4.04234997975679));
#867=CARTESIAN_POINT('Ctrl Pts',(-54.1048791581971,9.88325517849883,3.7624751540808));
#868=CARTESIAN_POINT('Ctrl Pts',(-54.0578646017846,10.1372558617453,3.14825186121528));
#869=CARTESIAN_POINT('Ctrl Pts',(-54.0459064129745,10.2,2.81387582157321));
#870=CARTESIAN_POINT('Ctrl Pts',(-54.0459064129745,10.2,2.5));
#871=CARTESIAN_POINT('',(-35.7229532064873,10.2,2.5));
#872=CARTESIAN_POINT('Origin',(-26.5329983228432,30.2,2.5));
#873=CARTESIAN_POINT('',(-13.3325016448118,15.1751243781095,2.5));
#874=CARTESIAN_POINT('',(-11.6824395600578,13.2970149253731,5.));
#875=CARTESIAN_POINT('Origin',(-11.6824395600578,13.2970149253731,2.5));
#876=CARTESIAN_POINT('Origin',(-26.5329983228432,30.2,5.));
#877=CARTESIAN_POINT('Origin',(-26.5329983228432,30.2,2.5));
#878=CARTESIAN_POINT('Origin',(0.,0.,2.5));
#879=CARTESIAN_POINT('',(20.2,0.,2.5));
#880=CARTESIAN_POINT('',(17.7,0.,5.));
#881=CARTESIAN_POINT('Origin',(17.7,0.,2.5));
#882=CARTESIAN_POINT('Origin',(0.,0.,5.));
#883=CARTESIAN_POINT('Origin',(0.,0.,2.5));
#884=CARTESIAN_POINT('Origin',(0.,0.,0.));
#885=CARTESIAN_POINT('',(-13.3325016448118,15.1751243781095,0.));
#886=CARTESIAN_POINT('',(-13.3325016448118,15.1751243781095,0.));
#887=CARTESIAN_POINT('',(20.2,0.,0.));
#888=CARTESIAN_POINT('Origin',(0.,0.,0.));
#889=CARTESIAN_POINT('',(20.2,0.,0.));
#890=CARTESIAN_POINT('Origin',(-26.5329983228432,30.2,0.));
#891=CARTESIAN_POINT('',(-26.5329983228432,10.2,0.));
#892=CARTESIAN_POINT('',(-26.5329983228432,10.2,0.));
#893=CARTESIAN_POINT('Origin',(-26.5329983228432,30.2,0.));
#894=CARTESIAN_POINT('Origin',(-54.0459064129745,10.2,0.));
#895=CARTESIAN_POINT('',(-54.0459064129745,10.2,0.));
#896=CARTESIAN_POINT('',(-54.0459064129745,10.2,0.));
#897=CARTESIAN_POINT('',(0.,10.2,0.));
#898=CARTESIAN_POINT('Origin',(0.,0.,66.6285));
#899=CARTESIAN_POINT('',(20.2,0.,66.6285));
#900=CARTESIAN_POINT('',(17.7,0.,64.1285));
#901=CARTESIAN_POINT('Origin',(17.7,0.,66.6285));
#902=CARTESIAN_POINT('',(15.1751243781095,13.3325016448118,66.6285));
#903=CARTESIAN_POINT('Origin',(0.,0.,66.6285));
#904=CARTESIAN_POINT('',(13.2970149253731,11.6824395600578,64.1285));
#905=CARTESIAN_POINT('Origin',(13.2970149253731,11.6824395600578,66.6285));
#906=CARTESIAN_POINT('Origin',(0.,0.,64.1285));
#907=CARTESIAN_POINT('Origin',(30.2,26.5329983228432,66.6285));
#908=CARTESIAN_POINT('',(10.2,26.5329983228432,66.6285));
#909=CARTESIAN_POINT('',(7.69999999999999,26.5329983228432,64.1285));
#910=CARTESIAN_POINT('Origin',(7.69999999999999,26.5329983228432,66.6285));
#911=CARTESIAN_POINT('Origin',(30.2,26.5329983228432,64.1285));
#912=CARTESIAN_POINT('Origin',(30.2,26.5329983228432,66.6285));
#913=CARTESIAN_POINT('Origin',(7.7,40.7729532064872,66.6285));
#914=CARTESIAN_POINT('',(10.2,54.0459064129745,66.6285));
#915=CARTESIAN_POINT('',(7.7,54.4583326957409,64.1285));
#916=CARTESIAN_POINT('Ctrl Pts',(10.2,54.0459064129745,66.6285));
#917=CARTESIAN_POINT('Ctrl Pts',(10.2,54.0459064129745,66.3135348403663));
#918=CARTESIAN_POINT('Ctrl Pts',(10.1368233879106,54.0579476695394,65.9780763245867));
#919=CARTESIAN_POINT('Ctrl Pts',(9.88120569964176,54.105255460961,65.3622058175845));
#920=CARTESIAN_POINT('Ctrl Pts',(9.68879989715683,54.1403500546701,65.0817659912241));
#921=CARTESIAN_POINT('Ctrl Pts',(9.24533518148707,54.217845439903,64.6383012755543));
#922=CARTESIAN_POINT('Ctrl Pts',(8.96411064312076,54.2654762336215,64.4460584935628));
#923=CARTESIAN_POINT('Ctrl Pts',(8.34837357993081,54.3636077633753,64.1911575183509));
#924=CARTESIAN_POINT('Ctrl Pts',(8.01383688145225,54.4139585133603,64.1285));
#925=CARTESIAN_POINT('Ctrl Pts',(7.7,54.4583326957409,64.1285));
#926=CARTESIAN_POINT('',(7.7,40.7729532064872,64.1285));
#927=CARTESIAN_POINT('',(10.2,40.7729532064872,66.6285));
#928=CARTESIAN_POINT('Origin',(10.2,54.0459064129745,64.1285));
#929=CARTESIAN_POINT('',(10.2,26.5329983228432,69.1285));
#930=CARTESIAN_POINT('',(10.2,26.5329983228432,64.1285));
#931=CARTESIAN_POINT('',(10.2,54.0459064129745,69.1285));
#932=CARTESIAN_POINT('',(10.2,0.,69.1285));
#933=CARTESIAN_POINT('',(10.2,54.0459064129745,64.1285));
#934=CARTESIAN_POINT('Origin',(30.2,26.5329983228432,64.1285));
#935=CARTESIAN_POINT('',(15.1751243781095,13.3325016448118,69.1285));
#936=CARTESIAN_POINT('',(15.1751243781095,13.3325016448118,64.1285));
#937=CARTESIAN_POINT('Origin',(30.2,26.5329983228432,69.1285));
#938=CARTESIAN_POINT('Origin',(0.,0.,64.1285));
#939=CARTESIAN_POINT('',(20.2,0.,69.1285));
#940=CARTESIAN_POINT('',(20.2,0.,64.1285));
#941=CARTESIAN_POINT('Origin',(0.,0.,69.1285));
#942=CARTESIAN_POINT('Origin',(15.2,27.0229532064873,69.1285));
#943=CARTESIAN_POINT('',(20.2,51.1562312919941,69.1285));
#944=CARTESIAN_POINT('',(20.2,0.,69.1285));
#945=CARTESIAN_POINT('Origin',(0.,0.,69.1285));
#946=CARTESIAN_POINT('Origin',(-17.4,27.5,64.1285));
#947=CARTESIAN_POINT('',(0.,55.,64.1285));
#948=CARTESIAN_POINT('Origin',(0.,0.,64.1285));
#949=CARTESIAN_POINT('',(0.,0.,64.1285));
#950=CARTESIAN_POINT('',(-55.,0.,64.1285));
#951=CARTESIAN_POINT('Origin',(0.,0.,64.1285));
#952=CARTESIAN_POINT('',(-15.2,0.,64.1285));
#953=CARTESIAN_POINT('',(0.,0.,64.1285));
#954=CARTESIAN_POINT('',(15.2,0.,64.1285));
#955=CARTESIAN_POINT('Origin',(0.,0.,64.1285));
#956=CARTESIAN_POINT('',(0.,0.,64.1285));
#957=CARTESIAN_POINT('Origin',(-16.9229532064873,27.5,10.));
#958=CARTESIAN_POINT('Origin',(0.,0.,10.));
#959=CARTESIAN_POINT('Origin',(-16.9229532064873,27.5,0.));
#960=CARTESIAN_POINT('',(20.2,51.1562312919941,0.));
#961=CARTESIAN_POINT('Origin',(0.,0.,0.));
#962=CARTESIAN_POINT('',(20.2,0.,0.));
#963=CARTESIAN_POINT('Origin',(-17.4,27.5,5.));
#964=CARTESIAN_POINT('',(15.2,0.,5.));
#965=CARTESIAN_POINT('',(0.,0.,5.));
#966=CARTESIAN_POINT('',(-15.2,0.,5.));
#967=CARTESIAN_POINT('Origin',(0.,0.,5.));
#968=CARTESIAN_POINT('',(-55.,0.,5.));
#969=CARTESIAN_POINT('',(0.,0.,5.));
#970=CARTESIAN_POINT('Origin',(0.,0.,5.));
#971=CARTESIAN_POINT('Origin',(20.2,0.,5.));
#972=CARTESIAN_POINT('',(20.2,51.1562312919941,5.));
#973=CARTESIAN_POINT('',(20.2,0.,5.));
#974=CARTESIAN_POINT('Origin',(0.,0.,5.));
#975=CARTESIAN_POINT('',(15.2,0.,5.));
#976=CARTESIAN_POINT('',(-15.2,0.,5.));
#977=CARTESIAN_POINT('Origin',(-55.,0.,5.));
#978=CARTESIAN_POINT('',(-55.,0.,5.));
#979=CARTESIAN_POINT('Origin',(0.,0.,5.));
#980=CARTESIAN_POINT('',(0.,55.,5.));
#981=CARTESIAN_POINT('Origin',(0.,55.,5.));
#982=CARTESIAN_POINT('Origin',(15.2,0.,5.));
#983=UNCERTAINTY_MEASURE_WITH_UNIT(LENGTH_MEASURE(0.01),#987,
'DISTANCE_ACCURACY_VALUE',
'Maximum model space distance between geometric entities at asserted c
onnectivities');
#984=UNCERTAINTY_MEASURE_WITH_UNIT(LENGTH_MEASURE(0.01),#987,
'DISTANCE_ACCURACY_VALUE',
'Maximum model space distance between geometric entities at asserted c
onnectivities');
#985=(
GEOMETRIC_REPRESENTATION_CONTEXT(3)
GLOBAL_UNCERTAINTY_ASSIGNED_CONTEXT((#983))
GLOBAL_UNIT_ASSIGNED_CONTEXT((#987,#988,#989))
REPRESENTATION_CONTEXT('','3D')
);
#986=(
GEOMETRIC_REPRESENTATION_CONTEXT(3)
GLOBAL_UNCERTAINTY_ASSIGNED_CONTEXT((#984))
GLOBAL_UNIT_ASSIGNED_CONTEXT((#987,#988,#989))
REPRESENTATION_CONTEXT('','3D')
);
#987=(
LENGTH_UNIT()
NAMED_UNIT(*)
SI_UNIT(.MILLI.,.METRE.)
);
#988=(
NAMED_UNIT(*)
PLANE_ANGLE_UNIT()
SI_UNIT($,.RADIAN.)
);
#989=(
NAMED_UNIT(*)
SI_UNIT($,.STERADIAN.)
SOLID_ANGLE_UNIT()
);
#990=SHAPE_DEFINITION_REPRESENTATION(#991,#992);
#991=PRODUCT_DEFINITION_SHAPE('',$,#994);
#992=SHAPE_REPRESENTATION('',(#541),#985);
#993=PRODUCT_DEFINITION_CONTEXT('part definition',#998,'design');
#994=PRODUCT_DEFINITION('2026-03-20-14-38-16-351','Pacifier Fixture',#995,
#993);
#995=PRODUCT_DEFINITION_FORMATION('',$,#1000);
#996=PRODUCT_RELATED_PRODUCT_CATEGORY('Pacifier Fixture',
'Pacifier Fixture',(#1000));
#997=APPLICATION_PROTOCOL_DEFINITION('international standard',
'automotive_design',2009,#998);
#998=APPLICATION_CONTEXT(
'Core Data for Automotive Mechanical Design Process');
#999=PRODUCT_CONTEXT('part definition',#998,'mechanical');
#1000=PRODUCT('2026-03-20-14-38-16-351','Pacifier Fixture',$,(#999));
#1001=PRESENTATION_STYLE_ASSIGNMENT((#1003));
#1002=PRESENTATION_STYLE_ASSIGNMENT((#1004));
#1003=SURFACE_STYLE_USAGE(.BOTH.,#1005);
#1004=SURFACE_STYLE_USAGE(.BOTH.,#1006);
#1005=SURFACE_SIDE_STYLE('',(#1007));
#1006=SURFACE_SIDE_STYLE('',(#1008));
#1007=SURFACE_STYLE_FILL_AREA(#1009);
#1008=SURFACE_STYLE_FILL_AREA(#1010);
#1009=FILL_AREA_STYLE('Stahl - satiniert',(#1011));
#1010=FILL_AREA_STYLE('ABS (Wei\X\DF)',(#1012));
#1011=FILL_AREA_STYLE_COLOUR('Stahl - satiniert',#1013);
#1012=FILL_AREA_STYLE_COLOUR('ABS (Wei\X\DF)',#1014);
#1013=COLOUR_RGB('Stahl - satiniert',0.627450980392157,0.627450980392157,
0.627450980392157);
#1014=COLOUR_RGB('ABS (Wei\X\DF)',0.964705882352941,0.964705882352941,0.952941176470588);
ENDSEC;
END-ISO-10303-21;
