ISO-10303-21;
HEADER;
/* Generated by software containing ST-Developer
 * from STEP Tools, Inc. (www.steptools.com) 
 */

FILE_DESCRIPTION(
/* description */ (''),
/* implementation_level */ '2;1');

FILE_NAME(
/* name */ 'Winding Clamp.step',
/* time_stamp */ '2026-03-20T15:06:01+01:00',
/* author */ (''),
/* organization */ (''),
/* preprocessor_version */ 'ST-DEVELOPER v20.1',
/* originating_system */ 'Autodesk Translation Framework v14.24.0.0',
/* authorisation */ '');

FILE_SCHEMA (('AUTOMOTIVE_DESIGN { 1 0 10303 214 3 1 1 }'));
ENDSEC;

DATA;
#10=MECHANICAL_DESIGN_GEOMETRIC_PRESENTATION_REPRESENTATION('',(#13),#362);
#11=SHAPE_REPRESENTATION_RELATIONSHIP('SRR','None',#368,#12);
#12=ADVANCED_BREP_SHAPE_REPRESENTATION('',(#14),#361);
#13=STYLED_ITEM('',(#378),#14);
#14=MANIFOLD_SOLID_BREP('Winding Clamp',#153);
#15=CIRCLE('',#157,49.42);
#16=CIRCLE('',#159,49.42);
#17=CYLINDRICAL_SURFACE('',#156,49.42);
#18=CYLINDRICAL_SURFACE('',#158,49.42);
#19=LINE('',#332,#31);
#20=LINE('',#334,#32);
#21=LINE('',#336,#33);
#22=LINE('',#338,#34);
#23=LINE('',#339,#35);
#24=LINE('',#342,#36);
#25=LINE('',#347,#37);
#26=LINE('',#350,#38);
#27=LINE('',#351,#39);
#28=LINE('',#354,#40);
#29=LINE('',#355,#41);
#30=LINE('',#357,#42);
#31=VECTOR('',#168,10.);
#32=VECTOR('',#169,10.);
#33=VECTOR('',#170,10.);
#34=VECTOR('',#171,10.);
#35=VECTOR('',#172,10.);
#36=VECTOR('',#175,10.);
#37=VECTOR('',#182,10.);
#38=VECTOR('',#185,10.);
#39=VECTOR('',#186,10.);
#40=VECTOR('',#189,10.);
#41=VECTOR('',#190,10.);
#42=VECTOR('',#193,10.);
#43=PLANE('',#155);
#44=PLANE('',#160);
#45=PLANE('',#161);
#46=PLANE('',#162);
#47=PLANE('',#163);
#48=FACE_OUTER_BOUND('',#56,.T.);
#49=FACE_OUTER_BOUND('',#57,.T.);
#50=FACE_OUTER_BOUND('',#58,.T.);
#51=FACE_OUTER_BOUND('',#59,.T.);
#52=FACE_OUTER_BOUND('',#60,.T.);
#53=FACE_OUTER_BOUND('',#61,.T.);
#54=FACE_OUTER_BOUND('',#62,.T.);
#55=FACE_OUTER_BOUND('',#63,.T.);
#56=EDGE_LOOP('',(#104,#105,#106,#107,#108,#109));
#57=EDGE_LOOP('',(#110,#111,#112,#113,#114,#115,#116));
#58=EDGE_LOOP('',(#117,#118,#119,#120));
#59=EDGE_LOOP('',(#121,#122,#123,#124));
#60=EDGE_LOOP('',(#125,#126,#127,#128));
#61=EDGE_LOOP('',(#129,#130,#131,#132));
#62=EDGE_LOOP('',(#133,#134,#135,#136,#137,#138,#139));
#63=EDGE_LOOP('',(#140,#141,#142,#143));
#64=B_SPLINE_CURVE_WITH_KNOTS('',3,(#253,#254,#255,#256,#257,#258,#259,
#260,#261,#262,#263,#264,#265,#266,#267,#268,#269,#270,#271,#272),
 .UNSPECIFIED.,.F.,.F.,(4,2,2,2,2,2,2,2,2,4),(0.0504915435687134,0.132525116908543,
0.256654683140585,0.372172789171084,0.483206583879208,0.595149614628334,
0.71270468784329,0.838419696661844,0.959158613092864,0.982026219779548),
 .UNSPECIFIED.);
#65=B_SPLINE_CURVE_WITH_KNOTS('',3,(#274,#275,#276,#277,#278,#279,#280,
#281),.UNSPECIFIED.,.F.,.F.,(4,2,2,4),(0.,1.72108850417797,2.67948837098798,
3.49494013007296),.UNSPECIFIED.);
#66=B_SPLINE_CURVE_WITH_KNOTS('',3,(#283,#284,#285,#286,#287,#288,#289,
#290,#291,#292,#293,#294,#295,#296,#297,#298,#299,#300,#301,#302),
 .UNSPECIFIED.,.F.,.F.,(4,2,2,2,2,2,2,2,2,4),(0.124969146825928,0.132558055516517,
0.256694997331839,0.372197380002233,0.483208139303749,0.595138595044744,
0.712705816312785,0.838462269758909,0.958834954409899,1.02878597243367),
 .UNSPECIFIED.);
#67=B_SPLINE_CURVE_WITH_KNOTS('',3,(#304,#305,#306,#307,#308,#309,#310,
#311,#312,#313),.UNSPECIFIED.,.F.,.F.,(4,3,3,4),(0.0504847830027875,0.0823617640935435,
0.113559224823844,0.124969146825928),.UNSPECIFIED.);
#68=B_SPLINE_CURVE_WITH_KNOTS('',3,(#315,#316,#317,#318,#319,#320,#321,
#322),.UNSPECIFIED.,.F.,.F.,(4,2,2,4),(0.,0.477977349685104,1.89196667681234,
3.49539179419398),.UNSPECIFIED.);
#69=B_SPLINE_CURVE_WITH_KNOTS('',3,(#323,#324,#325,#326,#327,#328,#329),
 .UNSPECIFIED.,.F.,.F.,(4,3,4),(0.982026219779548,1.0141472098143,1.0294724980326),
 .UNSPECIFIED.);
#70=VERTEX_POINT('',#251);
#71=VERTEX_POINT('',#252);
#72=VERTEX_POINT('',#273);
#73=VERTEX_POINT('',#282);
#74=VERTEX_POINT('',#303);
#75=VERTEX_POINT('',#314);
#76=VERTEX_POINT('',#331);
#77=VERTEX_POINT('',#333);
#78=VERTEX_POINT('',#335);
#79=VERTEX_POINT('',#337);
#80=VERTEX_POINT('',#341);
#81=VERTEX_POINT('',#345);
#82=VERTEX_POINT('',#349);
#83=VERTEX_POINT('',#353);
#84=EDGE_CURVE('',#70,#71,#64,.T.);
#85=EDGE_CURVE('',#72,#70,#65,.T.);
#86=EDGE_CURVE('',#73,#72,#66,.T.);
#87=EDGE_CURVE('',#74,#73,#67,.T.);
#88=EDGE_CURVE('',#75,#74,#68,.T.);
#89=EDGE_CURVE('',#71,#75,#69,.T.);
#90=EDGE_CURVE('',#72,#76,#19,.T.);
#91=EDGE_CURVE('',#77,#76,#20,.T.);
#92=EDGE_CURVE('',#78,#77,#21,.T.);
#93=EDGE_CURVE('',#79,#78,#22,.T.);
#94=EDGE_CURVE('',#79,#74,#23,.T.);
#95=EDGE_CURVE('',#80,#70,#24,.T.);
#96=EDGE_CURVE('',#76,#80,#15,.T.);
#97=EDGE_CURVE('',#81,#79,#16,.T.);
#98=EDGE_CURVE('',#75,#81,#25,.T.);
#99=EDGE_CURVE('',#82,#81,#26,.T.);
#100=EDGE_CURVE('',#78,#82,#27,.T.);
#101=EDGE_CURVE('',#83,#77,#28,.T.);
#102=EDGE_CURVE('',#82,#83,#29,.T.);
#103=EDGE_CURVE('',#80,#83,#30,.T.);
#104=ORIENTED_EDGE('',*,*,#84,.F.);
#105=ORIENTED_EDGE('',*,*,#85,.F.);
#106=ORIENTED_EDGE('',*,*,#86,.F.);
#107=ORIENTED_EDGE('',*,*,#87,.F.);
#108=ORIENTED_EDGE('',*,*,#88,.F.);
#109=ORIENTED_EDGE('',*,*,#89,.F.);
#110=ORIENTED_EDGE('',*,*,#87,.T.);
#111=ORIENTED_EDGE('',*,*,#86,.T.);
#112=ORIENTED_EDGE('',*,*,#90,.T.);
#113=ORIENTED_EDGE('',*,*,#91,.F.);
#114=ORIENTED_EDGE('',*,*,#92,.F.);
#115=ORIENTED_EDGE('',*,*,#93,.F.);
#116=ORIENTED_EDGE('',*,*,#94,.T.);
#117=ORIENTED_EDGE('',*,*,#85,.T.);
#118=ORIENTED_EDGE('',*,*,#95,.F.);
#119=ORIENTED_EDGE('',*,*,#96,.F.);
#120=ORIENTED_EDGE('',*,*,#90,.F.);
#121=ORIENTED_EDGE('',*,*,#88,.T.);
#122=ORIENTED_EDGE('',*,*,#94,.F.);
#123=ORIENTED_EDGE('',*,*,#97,.F.);
#124=ORIENTED_EDGE('',*,*,#98,.F.);
#125=ORIENTED_EDGE('',*,*,#99,.T.);
#126=ORIENTED_EDGE('',*,*,#97,.T.);
#127=ORIENTED_EDGE('',*,*,#93,.T.);
#128=ORIENTED_EDGE('',*,*,#100,.T.);
#129=ORIENTED_EDGE('',*,*,#92,.T.);
#130=ORIENTED_EDGE('',*,*,#101,.F.);
#131=ORIENTED_EDGE('',*,*,#102,.F.);
#132=ORIENTED_EDGE('',*,*,#100,.F.);
#133=ORIENTED_EDGE('',*,*,#89,.T.);
#134=ORIENTED_EDGE('',*,*,#98,.T.);
#135=ORIENTED_EDGE('',*,*,#99,.F.);
#136=ORIENTED_EDGE('',*,*,#102,.T.);
#137=ORIENTED_EDGE('',*,*,#103,.F.);
#138=ORIENTED_EDGE('',*,*,#95,.T.);
#139=ORIENTED_EDGE('',*,*,#84,.T.);
#140=ORIENTED_EDGE('',*,*,#103,.T.);
#141=ORIENTED_EDGE('',*,*,#101,.T.);
#142=ORIENTED_EDGE('',*,*,#91,.T.);
#143=ORIENTED_EDGE('',*,*,#96,.T.);
#144=B_SPLINE_SURFACE_WITH_KNOTS('',3,3,((#197,#198,#199,#200,#201,#202),
(#203,#204,#205,#206,#207,#208),(#209,#210,#211,#212,#213,#214),(#215,#216,
#217,#218,#219,#220),(#221,#222,#223,#224,#225,#226),(#227,#228,#229,#230,
#231,#232),(#233,#234,#235,#236,#237,#238),(#239,#240,#241,#242,#243,#244),
(#245,#246,#247,#248,#249,#250)),.UNSPECIFIED.,.F.,.F.,.F.,(4,1,1,1,1,1,
4),(4,2,4),(0.150925761450934,0.611642815462329,1.07235986947372,1.99379397749651,
2.45451103150791,2.91522808551931,3.3759451395307),(12.2084930546357,12.609775193222,
12.9242486856851),.UNSPECIFIED.);
#145=ADVANCED_FACE('',(#48),#144,.F.);
#146=ADVANCED_FACE('',(#49),#43,.T.);
#147=ADVANCED_FACE('',(#50),#17,.F.);
#148=ADVANCED_FACE('',(#51),#18,.F.);
#149=ADVANCED_FACE('',(#52),#44,.F.);
#150=ADVANCED_FACE('',(#53),#45,.T.);
#151=ADVANCED_FACE('',(#54),#46,.T.);
#152=ADVANCED_FACE('',(#55),#47,.T.);
#153=CLOSED_SHELL('',(#145,#146,#147,#148,#149,#150,#151,#152));
#154=AXIS2_PLACEMENT_3D('',#196,#164,#165);
#155=AXIS2_PLACEMENT_3D('',#330,#166,#167);
#156=AXIS2_PLACEMENT_3D('',#340,#173,#174);
#157=AXIS2_PLACEMENT_3D('',#343,#176,#177);
#158=AXIS2_PLACEMENT_3D('',#344,#178,#179);
#159=AXIS2_PLACEMENT_3D('',#346,#180,#181);
#160=AXIS2_PLACEMENT_3D('',#348,#183,#184);
#161=AXIS2_PLACEMENT_3D('',#352,#187,#188);
#162=AXIS2_PLACEMENT_3D('',#356,#191,#192);
#163=AXIS2_PLACEMENT_3D('',#358,#194,#195);
#164=DIRECTION('axis',(0.,0.,1.));
#165=DIRECTION('refdir',(1.,0.,0.));
#166=DIRECTION('center_axis',(0.,1.,0.));
#167=DIRECTION('ref_axis',(-1.,0.,0.));
#168=DIRECTION('',(0.,0.,1.));
#169=DIRECTION('',(-1.,0.,0.));
#170=DIRECTION('',(0.,0.,1.));
#171=DIRECTION('',(1.,0.,0.));
#172=DIRECTION('',(0.,0.,1.));
#173=DIRECTION('center_axis',(0.,0.,1.));
#174=DIRECTION('ref_axis',(1.,0.,0.));
#175=DIRECTION('',(0.,0.,-1.));
#176=DIRECTION('center_axis',(0.,0.,-1.));
#177=DIRECTION('ref_axis',(1.,0.,0.));
#178=DIRECTION('center_axis',(0.,0.,1.));
#179=DIRECTION('ref_axis',(1.,0.,0.));
#180=DIRECTION('center_axis',(0.,0.,1.));
#181=DIRECTION('ref_axis',(1.,0.,0.));
#182=DIRECTION('',(0.,0.,-1.));
#183=DIRECTION('center_axis',(0.,0.,1.));
#184=DIRECTION('ref_axis',(1.,0.,0.));
#185=DIRECTION('',(-1.,0.,0.));
#186=DIRECTION('',(-2.41667793403928E-8,-1.,0.));
#187=DIRECTION('center_axis',(1.,-2.41667793403929E-8,0.));
#188=DIRECTION('ref_axis',(2.41667793403928E-8,1.,0.));
#189=DIRECTION('',(2.41667793403928E-8,1.,0.));
#190=DIRECTION('',(0.,0.,1.));
#191=DIRECTION('center_axis',(0.,-1.,0.));
#192=DIRECTION('ref_axis',(1.,0.,0.));
#193=DIRECTION('',(1.,0.,0.));
#194=DIRECTION('center_axis',(0.,0.,1.));
#195=DIRECTION('ref_axis',(1.,0.,0.));
#196=CARTESIAN_POINT('',(0.,0.,0.));
#197=CARTESIAN_POINT('Ctrl Pts',(46.1608899342741,-17.6680144613594,79.7300436490358));
#198=CARTESIAN_POINT('Ctrl Pts',(48.4702325215132,-11.4738330172366,80.5711301666882));
#199=CARTESIAN_POINT('Ctrl Pts',(49.5327385959536,-4.82480665843656,81.4109801497777));
#200=CARTESIAN_POINT('Ctrl Pts',(49.0225908923981,6.92086947138713,82.9066128937769));
#201=CARTESIAN_POINT('Ctrl Pts',(47.9707404326597,12.0361818444209,83.5630049602869));
#202=CARTESIAN_POINT('Ctrl Pts',(46.1685533281898,16.8640951848636,84.2186185446161));
#203=CARTESIAN_POINT('Ctrl Pts',(46.5926344806488,-17.8288102466554,79.7287922643308));
#204=CARTESIAN_POINT('Ctrl Pts',(48.9234067727724,-11.5771497366556,80.5776852750742));
#205=CARTESIAN_POINT('Ctrl Pts',(49.9955327618563,-4.86973993095912,81.4248960916363));
#206=CARTESIAN_POINT('Ctrl Pts',(49.4806010803068,6.98649285646826,82.9346054627859));
#207=CARTESIAN_POINT('Ctrl Pts',(48.4190843193305,12.1474897407343,83.5968471377895));
#208=CARTESIAN_POINT('Ctrl Pts',(46.6003075736533,17.0198451245806,84.2584987610068));
#209=CARTESIAN_POINT('Ctrl Pts',(47.4603486921768,-18.1227412555543,79.5109825930674));
#210=CARTESIAN_POINT('Ctrl Pts',(49.8329207435486,-11.7589669918839,80.3751023180686));
#211=CARTESIAN_POINT('Ctrl Pts',(50.9243103835212,-4.93150855622837,81.2374732832001));
#212=CARTESIAN_POINT('Ctrl Pts',(50.3998931077292,7.145827725399,82.7753406218595));
#213=CARTESIAN_POINT('Ctrl Pts',(49.31907684415,12.4008525102151,83.4496273993466));
#214=CARTESIAN_POINT('Ctrl Pts',(47.4672285664101,17.3618073371329,84.1233163609704));
#215=CARTESIAN_POINT('Ctrl Pts',(48.892087277058,-18.4939687520701,78.3137935793948));
#216=CARTESIAN_POINT('Ctrl Pts',(51.3325425997924,-11.9481287986529,79.2026406689127));
#217=CARTESIAN_POINT('Ctrl Pts',(52.455988326169,-4.92817138880777,80.0893136344602));
#218=CARTESIAN_POINT('Ctrl Pts',(51.9157649694776,7.51580778189883,81.6738665105254));
#219=CARTESIAN_POINT('Ctrl Pts',(50.8027759797172,12.9265068057862,82.3680828883073));
#220=CARTESIAN_POINT('Ctrl Pts',(48.8944957331947,18.0386592492941,83.0623136806307));
#221=CARTESIAN_POINT('Ctrl Pts',(49.3336603621059,-18.3892628594969,76.330270224104));
#222=CARTESIAN_POINT('Ctrl Pts',(51.7914007428441,-11.7970802408477,77.2254116463525));
#223=CARTESIAN_POINT('Ctrl Pts',(52.9250314829733,-4.72197605025145,78.1190732030335));
#224=CARTESIAN_POINT('Ctrl Pts',(52.3799002700766,7.83612939273097,79.7181566294999));
#225=CARTESIAN_POINT('Ctrl Pts',(51.2566888889475,13.2991269158418,80.4190580495596));
#226=CARTESIAN_POINT('Ctrl Pts',(49.3285960033883,18.4643916869242,81.1205042509158));
#227=CARTESIAN_POINT('Ctrl Pts',(48.5334687664684,-17.8674593782157,74.6845187219752));
#228=CARTESIAN_POINT('Ctrl Pts',(50.9482367460157,-11.3905541947402,75.5640040614901));
#229=CARTESIAN_POINT('Ctrl Pts',(52.0644097751833,-4.42995037101809,76.4432432689778));
#230=CARTESIAN_POINT('Ctrl Pts',(51.5280308154294,7.92506491669572,78.0164630663833));
#231=CARTESIAN_POINT('Ctrl Pts',(50.4223275960281,13.3067744236682,78.7069413630405));
#232=CARTESIAN_POINT('Ctrl Pts',(48.5221651591365,18.397246248509,79.3982254543487));
#233=CARTESIAN_POINT('Ctrl Pts',(47.4805413059466,-17.3663562239778,73.8851458516636));
#234=CARTESIAN_POINT('Ctrl Pts',(49.8420061419703,-11.032429382463,74.7452127836653));
#235=CARTESIAN_POINT('Ctrl Pts',(50.9349761632405,-4.21954987395486,75.6058191040935));
#236=CARTESIAN_POINT('Ctrl Pts',(50.4101157828696,7.8675825066356,77.1449239110455));
#237=CARTESIAN_POINT('Ctrl Pts',(49.3276717076879,13.1383847677426,77.8211893415231));
#238=CARTESIAN_POINT('Ctrl Pts',(47.4661849863182,18.1252626566998,78.498398585168));
#239=CARTESIAN_POINT('Ctrl Pts',(46.6071781742413,-17.0223580187028,73.7497459815342));
#240=CARTESIAN_POINT('Ctrl Pts',(48.9252563167291,-10.8048049411972,74.594007686215));
#241=CARTESIAN_POINT('Ctrl Pts',(49.9988303365167,-4.11153683472241,75.4395284553311));
#242=CARTESIAN_POINT('Ctrl Pts',(49.4835975344606,7.75247518046756,76.9502221805912));
#243=CARTESIAN_POINT('Ctrl Pts',(48.4206225592716,12.9306541575461,77.6146245182213));
#244=CARTESIAN_POINT('Ctrl Pts',(46.5922815604254,17.8287403487662,78.2797701949806));
#245=CARTESIAN_POINT('Ctrl Pts',(46.1753410003308,-16.8666984584086,73.7890773986826));
#246=CARTESIAN_POINT('Ctrl Pts',(48.4724269491559,-10.7054505489552,74.6256920360488));
#247=CARTESIAN_POINT('Ctrl Pts',(49.5364212823559,-4.07196506030945,75.4636652877023));
#248=CARTESIAN_POINT('Ctrl Pts',(49.0259133639904,7.68200076641836,76.96034462154));
#249=CARTESIAN_POINT('Ctrl Pts',(47.9725373908001,12.8136390710049,77.6187848781259));
#250=CARTESIAN_POINT('Ctrl Pts',(46.1605784319511,17.6678386248142,78.2779679875223));
#251=CARTESIAN_POINT('',(46.42,-16.9564147153813,79.8263974232857));
#252=CARTESIAN_POINT('',(46.8898440515071,-16.9564147153798,73.8320640254776));
#253=CARTESIAN_POINT('Ctrl Pts',(46.42,-16.9564147153813,79.8263974232857));
#254=CARTESIAN_POINT('Ctrl Pts',(46.6922074055364,-16.9564147153813,79.8377895789984));
#255=CARTESIAN_POINT('Ctrl Pts',(46.9653524156109,-16.9564147152632,79.8160797697486));
#256=CARTESIAN_POINT('Ctrl Pts',(47.6373192306703,-16.9564147152632,79.6752055491253));
#257=CARTESIAN_POINT('Ctrl Pts',(48.0216205143405,-16.9564147153613,79.5131613498056));
#258=CARTESIAN_POINT('Ctrl Pts',(48.6766956738588,-16.9564147153613,79.0589022501777));
#259=CARTESIAN_POINT('Ctrl Pts',(48.9462303977162,-16.9564147153801,78.7814021701489));
#260=CARTESIAN_POINT('Ctrl Pts',(49.3513377718658,-16.9564147153801,78.1465717546904));
#261=CARTESIAN_POINT('Ctrl Pts',(49.4866019023276,-16.9564147153813,77.800630600931));
#262=CARTESIAN_POINT('Ctrl Pts',(49.6175190261109,-16.9564147153813,77.0711050922612));
#263=CARTESIAN_POINT('Ctrl Pts',(49.6104328081341,-16.9564147153818,76.6964018769893));
#264=CARTESIAN_POINT('Ctrl Pts',(49.4535828979554,-16.9564147153818,75.949373191461));
#265=CARTESIAN_POINT('Ctrl Pts',(49.2985567606158,-16.9564147153864,75.5865590100735));
#266=CARTESIAN_POINT('Ctrl Pts',(48.8493590496682,-16.9564147153864,74.9126363407522));
#267=CARTESIAN_POINT('Ctrl Pts',(48.5504532388904,-16.9564147154076,74.6129638350183));
#268=CARTESIAN_POINT('Ctrl Pts',(47.8734465129002,-16.9564147154076,74.1481170802119));
#269=CARTESIAN_POINT('Ctrl Pts',(47.5028113875637,-16.9564147154199,73.9807207062876));
#270=CARTESIAN_POINT('Ctrl Pts',(47.039073570357,-16.9564147154199,73.8623376482943));
#271=CARTESIAN_POINT('Ctrl Pts',(46.9646675862759,-16.9564147153814,73.84595405402));
#272=CARTESIAN_POINT('Ctrl Pts',(46.8898440515072,-16.9564147153814,73.8320640254774));
#273=CARTESIAN_POINT('',(46.42,16.9564147153813,84.2299639362264));
#274=CARTESIAN_POINT('Ctrl Pts',(46.42,16.9564147153813,84.2299639362264));
#275=CARTESIAN_POINT('Ctrl Pts',(48.3726648171002,11.6107857996431,83.5060295939843));
#276=CARTESIAN_POINT('Ctrl Pts',(49.3873470191265,5.96781714797051,82.7874343378212));
#277=CARTESIAN_POINT('Ctrl Pts',(49.4369760326933,-2.89225361959992,81.6601919097694));
#278=CARTESIAN_POINT('Ctrl Pts',(49.1498550564919,-6.05570335548627,81.2579275375653));
#279=CARTESIAN_POINT('Ctrl Pts',(48.0615062519392,-11.8194264005703,80.5118288874883));
#280=CARTESIAN_POINT('Ctrl Pts',(47.3451711335414,-14.4236597232524,80.1694346055978));
#281=CARTESIAN_POINT('Ctrl Pts',(46.42,-16.9564147153813,79.8263974232857));
#282=CARTESIAN_POINT('',(47.1587169257409,16.9564147153549,78.2341925644979));
#283=CARTESIAN_POINT('Ctrl Pts',(47.158716925739,16.9564147153813,78.2341925645082));
#284=CARTESIAN_POINT('Ctrl Pts',(47.1835400971948,16.9564147153813,78.2388202197483));
#285=CARTESIAN_POINT('Ctrl Pts',(47.2083189230257,16.9564147152653,78.2437408415043));
#286=CARTESIAN_POINT('Ctrl Pts',(47.6375575969113,16.9564147152653,78.3342560243506));
#287=CARTESIAN_POINT('Ctrl Pts',(48.0216902171256,16.9564147153618,78.4967589917575));
#288=CARTESIAN_POINT('Ctrl Pts',(48.6761895899881,16.9564147153618,78.9517898373104));
#289=CARTESIAN_POINT('Ctrl Pts',(48.9453487580371,16.9564147153801,79.2295727010231));
#290=CARTESIAN_POINT('Ctrl Pts',(49.3496064812905,16.9564147153801,79.8647854288231));
#291=CARTESIAN_POINT('Ctrl Pts',(49.4844150623586,16.9564147153813,80.2108144278825));
#292=CARTESIAN_POINT('Ctrl Pts',(49.6144214845338,16.9564147153813,80.9403780329674));
#293=CARTESIAN_POINT('Ctrl Pts',(49.6068769635465,16.9564147153819,81.3150260077664));
#294=CARTESIAN_POINT('Ctrl Pts',(49.4491367800325,16.9564147153819,82.061862966186));
#295=CARTESIAN_POINT('Ctrl Pts',(49.2936595719361,16.9564147153864,82.4245289816777));
#296=CARTESIAN_POINT('Ctrl Pts',(48.8435818653112,16.9564147153864,83.0980781183811));
#297=CARTESIAN_POINT('Ctrl Pts',(48.5442260919878,16.9564147154073,83.3975061418098));
#298=CARTESIAN_POINT('Ctrl Pts',(47.8675834076382,16.9564147154073,83.8609713736322));
#299=CARTESIAN_POINT('Ctrl Pts',(47.4980069206993,16.9564147154184,84.0276555705898));
#300=CARTESIAN_POINT('Ctrl Pts',(46.8834191388239,16.9564147154184,84.1845882918153));
#301=CARTESIAN_POINT('Ctrl Pts',(46.6522797831599,16.9564147153813,84.2191851319816));
#302=CARTESIAN_POINT('Ctrl Pts',(46.42,16.9564147153813,84.2299639362264));
#303=CARTESIAN_POINT('',(46.42,16.9564147153813,78.1816289990431));
#304=CARTESIAN_POINT('Ctrl Pts',(46.4199999643237,16.956413963022,78.1816287683913));
#305=CARTESIAN_POINT('Ctrl Pts',(46.5257583274023,16.9564213979071,78.1773198519578));
#306=CARTESIAN_POINT('Ctrl Pts',(46.631707037816,16.9564287125788,78.1781084221911));
#307=CARTESIAN_POINT('Ctrl Pts',(46.7374374728402,16.9564427304734,78.1839696623982));
#308=CARTESIAN_POINT('Ctrl Pts',(46.8409140563119,16.956456449549,78.1897059587768));
#309=CARTESIAN_POINT('Ctrl Pts',(46.9441823041976,16.956476845954,78.200301279242));
#310=CARTESIAN_POINT('Ctrl Pts',(47.0468384774165,16.9565034519339,78.2157768096753));
#311=CARTESIAN_POINT('Ctrl Pts',(47.0843831654148,16.9565131826026,78.2214367124703));
#312=CARTESIAN_POINT('Ctrl Pts',(47.1218457250816,16.9565236575775,78.2277498063508));
#313=CARTESIAN_POINT('Ctrl Pts',(47.1592053963629,16.9565345136575,78.2347185367747));
#314=CARTESIAN_POINT('',(46.42,-16.9564147153813,73.7780376953316));
#315=CARTESIAN_POINT('Ctrl Pts',(46.42,-16.9564147153813,73.7780376953316));
#316=CARTESIAN_POINT('Ctrl Pts',(46.9622889893667,-15.4718405699066,73.9791167313666));
#317=CARTESIAN_POINT('Ctrl Pts',(47.4330486113574,-13.9621040678734,74.1800636738962));
#318=CARTESIAN_POINT('Ctrl Pts',(49.0068843719371,-7.9071568006326,74.9758635360175));
#319=CARTESIAN_POINT('Ctrl Pts',(49.534981617565,-3.23779674812769,75.5676539246066));
#320=CARTESIAN_POINT('Ctrl Pts',(49.2450935323238,6.73561532361663,76.8370430603391));
#321=CARTESIAN_POINT('Ctrl Pts',(48.2391705441295,11.9762406587813,77.5072116311339));
#322=CARTESIAN_POINT('Ctrl Pts',(46.42,16.9564147153813,78.181628999043));
#323=CARTESIAN_POINT('Ctrl Pts',(46.8903312749638,-16.9566635848068,73.8325421957929));
#324=CARTESIAN_POINT('Ctrl Pts',(46.7851291591985,-16.9566329277225,73.8130098827379));
#325=CARTESIAN_POINT('Ctrl Pts',(46.6791034876407,-16.9565861443259,73.7983480523857));
#326=CARTESIAN_POINT('Ctrl Pts',(46.5726683052833,-16.9565372612757,73.788655915223));
#327=CARTESIAN_POINT('Ctrl Pts',(46.5218868740625,-16.9565139386186,73.7840316867883));
#328=CARTESIAN_POINT('Ctrl Pts',(46.4710121354366,-16.9564903238683,73.7805394592678));
#329=CARTESIAN_POINT('Ctrl Pts',(46.4200889875557,-16.9564691224573,73.7781940448158));
#330=CARTESIAN_POINT('Origin',(55.0000008195639,16.9564147153813,79.004));
#331=CARTESIAN_POINT('',(46.42,16.9564147153813,94.004));
#332=CARTESIAN_POINT('',(46.42,16.9564147153813,79.004));
#333=CARTESIAN_POINT('',(55.0000008195639,16.9564147153813,94.004));
#334=CARTESIAN_POINT('',(46.42,16.9564147153813,94.004));
#335=CARTESIAN_POINT('',(55.0000008195639,16.9564147153813,64.004));
#336=CARTESIAN_POINT('',(55.0000008195639,16.9564147153813,79.004));
#337=CARTESIAN_POINT('',(46.42,16.9564147153813,64.004));
#338=CARTESIAN_POINT('',(46.42,16.9564147153813,64.004));
#339=CARTESIAN_POINT('',(46.42,16.9564147153813,79.004));
#340=CARTESIAN_POINT('Origin',(0.,0.,79.004));
#341=CARTESIAN_POINT('',(46.42,-16.9564147153813,94.004));
#342=CARTESIAN_POINT('',(46.42,-16.9564147153813,79.004));
#343=CARTESIAN_POINT('Origin',(0.,0.,94.004));
#344=CARTESIAN_POINT('Origin',(0.,0.,79.004));
#345=CARTESIAN_POINT('',(46.42,-16.9564147153813,64.004));
#346=CARTESIAN_POINT('Origin',(0.,0.,64.004));
#347=CARTESIAN_POINT('',(46.42,-16.9564147153813,79.004));
#348=CARTESIAN_POINT('Origin',(50.7100004097819,0.,64.004));
#349=CARTESIAN_POINT('',(55.,-16.9564147153813,64.004));
#350=CARTESIAN_POINT('',(46.42,-16.9564147153813,64.004));
#351=CARTESIAN_POINT('',(55.,-16.9564147153813,64.004));
#352=CARTESIAN_POINT('Origin',(55.,-16.9564147153813,79.004));
#353=CARTESIAN_POINT('',(55.,-16.9564147153813,94.004));
#354=CARTESIAN_POINT('',(55.,-16.9564147153813,94.004));
#355=CARTESIAN_POINT('',(55.,-16.9564147153813,79.004));
#356=CARTESIAN_POINT('Origin',(46.42,-16.9564147153813,79.004));
#357=CARTESIAN_POINT('',(46.42,-16.9564147153813,94.004));
#358=CARTESIAN_POINT('Origin',(50.7100004097819,0.,94.004));
#359=UNCERTAINTY_MEASURE_WITH_UNIT(LENGTH_MEASURE(0.01),#363,
'DISTANCE_ACCURACY_VALUE',
'Maximum model space distance between geometric entities at asserted c
onnectivities');
#360=UNCERTAINTY_MEASURE_WITH_UNIT(LENGTH_MEASURE(0.01),#363,
'DISTANCE_ACCURACY_VALUE',
'Maximum model space distance between geometric entities at asserted c
onnectivities');
#361=(
GEOMETRIC_REPRESENTATION_CONTEXT(3)
GLOBAL_UNCERTAINTY_ASSIGNED_CONTEXT((#359))
GLOBAL_UNIT_ASSIGNED_CONTEXT((#363,#364,#365))
REPRESENTATION_CONTEXT('','3D')
);
#362=(
GEOMETRIC_REPRESENTATION_CONTEXT(3)
GLOBAL_UNCERTAINTY_ASSIGNED_CONTEXT((#360))
GLOBAL_UNIT_ASSIGNED_CONTEXT((#363,#364,#365))
REPRESENTATION_CONTEXT('','3D')
);
#363=(
LENGTH_UNIT()
NAMED_UNIT(*)
SI_UNIT(.MILLI.,.METRE.)
);
#364=(
NAMED_UNIT(*)
PLANE_ANGLE_UNIT()
SI_UNIT($,.RADIAN.)
);
#365=(
NAMED_UNIT(*)
SI_UNIT($,.STERADIAN.)
SOLID_ANGLE_UNIT()
);
#366=SHAPE_DEFINITION_REPRESENTATION(#367,#368);
#367=PRODUCT_DEFINITION_SHAPE('',$,#370);
#368=SHAPE_REPRESENTATION('',(#154),#361);
#369=PRODUCT_DEFINITION_CONTEXT('part definition',#374,'design');
#370=PRODUCT_DEFINITION('2026-03-20-14-23-14-785','Winding Clamp',#371,
#369);
#371=PRODUCT_DEFINITION_FORMATION('',$,#376);
#372=PRODUCT_RELATED_PRODUCT_CATEGORY('Winding Clamp','Winding Clamp',(#376));
#373=APPLICATION_PROTOCOL_DEFINITION('international standard',
'automotive_design',2009,#374);
#374=APPLICATION_CONTEXT(
'Core Data for Automotive Mechanical Design Process');
#375=PRODUCT_CONTEXT('part definition',#374,'mechanical');
#376=PRODUCT('2026-03-20-14-23-14-785','Winding Clamp',$,(#375));
#377=PRESENTATION_STYLE_ASSIGNMENT((#379));
#378=PRESENTATION_STYLE_ASSIGNMENT((#380));
#379=SURFACE_STYLE_USAGE(.BOTH.,#381);
#380=SURFACE_STYLE_USAGE(.BOTH.,#382);
#381=SURFACE_SIDE_STYLE('',(#383));
#382=SURFACE_SIDE_STYLE('',(#384));
#383=SURFACE_STYLE_FILL_AREA(#385);
#384=SURFACE_STYLE_FILL_AREA(#386);
#385=FILL_AREA_STYLE('Stahl - satiniert',(#387));
#386=FILL_AREA_STYLE('ABS (Wei\X\DF)',(#388));
#387=FILL_AREA_STYLE_COLOUR('Stahl - satiniert',#389);
#388=FILL_AREA_STYLE_COLOUR('ABS (Wei\X\DF)',#390);
#389=COLOUR_RGB('Stahl - satiniert',0.627450980392157,0.627450980392157,
0.627450980392157);
#390=COLOUR_RGB('ABS (Wei\X\DF)',0.964705882352941,0.964705882352941,0.952941176470588);
ENDSEC;
END-ISO-10303-21;
