ISO-10303-21;
HEADER;
/* Generated by software containing ST-Developer
 * from STEP Tools, Inc. (www.steptools.com) 
 */

FILE_DESCRIPTION(
/* description */ (''),
/* implementation_level */ '2;1');

FILE_NAME(
/* name */ 'Casing Bottom.step',
/* time_stamp */ '2026-07-14T10:44:10+02:00',
/* author */ (''),
/* organization */ (''),
/* preprocessor_version */ 'ST-DEVELOPER v20.1',
/* originating_system */ 'Autodesk Translation Framework v15.8.0.0',
/* authorisation */ '');

FILE_SCHEMA (('AUTOMOTIVE_DESIGN { 1 0 10303 214 3 1 1 }'));
ENDSEC;

DATA;
#10=MECHANICAL_DESIGN_GEOMETRIC_PRESENTATION_REPRESENTATION('',(#13),#2269);
#11=SHAPE_REPRESENTATION_RELATIONSHIP('SRR','None',#2275,#12);
#12=ADVANCED_BREP_SHAPE_REPRESENTATION('',(#14),#2268);
#13=STYLED_ITEM('',(#2285),#14);
#14=MANIFOLD_SOLID_BREP('Base',#1349);
#15=CYLINDRICAL_SURFACE('',#1362,1.65);
#16=CYLINDRICAL_SURFACE('',#1366,1.65);
#17=CYLINDRICAL_SURFACE('',#1370,1.65);
#18=CYLINDRICAL_SURFACE('',#1374,1.65);
#19=CYLINDRICAL_SURFACE('',#1385,2.);
#20=CYLINDRICAL_SURFACE('',#1404,2.);
#21=CYLINDRICAL_SURFACE('',#1407,2.);
#22=CYLINDRICAL_SURFACE('',#1410,2.);
#23=CYLINDRICAL_SURFACE('',#1413,2.);
#24=CYLINDRICAL_SURFACE('',#1416,2.);
#25=CYLINDRICAL_SURFACE('',#1419,2.);
#26=CYLINDRICAL_SURFACE('',#1422,2.);
#27=CYLINDRICAL_SURFACE('',#1425,2.);
#28=CYLINDRICAL_SURFACE('',#1428,2.);
#29=CYLINDRICAL_SURFACE('',#1431,2.);
#30=CYLINDRICAL_SURFACE('',#1448,3.999999);
#31=CYLINDRICAL_SURFACE('',#1450,3.999999);
#32=CYLINDRICAL_SURFACE('',#1453,3.999999);
#33=CYLINDRICAL_SURFACE('',#1455,3.999999);
#34=CYLINDRICAL_SURFACE('',#1457,2.99999999999997);
#35=CYLINDRICAL_SURFACE('',#1459,2.99999999999997);
#36=CYLINDRICAL_SURFACE('',#1461,2.99999999999997);
#37=CYLINDRICAL_SURFACE('',#1462,2.99999999999999);
#38=CYLINDRICAL_SURFACE('',#1469,1.50000000000002);
#39=CYLINDRICAL_SURFACE('',#1471,1.50000000000002);
#40=CYLINDRICAL_SURFACE('',#1473,1.50000000000002);
#41=CYLINDRICAL_SURFACE('',#1478,1.50000000000002);
#42=FACE_BOUND('',#167,.T.);
#43=FACE_BOUND('',#168,.T.);
#44=FACE_BOUND('',#169,.T.);
#45=FACE_BOUND('',#170,.T.);
#46=FACE_BOUND('',#181,.T.);
#47=FACE_BOUND('',#207,.T.);
#48=FACE_BOUND('',#208,.T.);
#49=FACE_BOUND('',#209,.T.);
#50=FACE_BOUND('',#210,.T.);
#51=FACE_BOUND('',#211,.T.);
#52=PLANE('',#1354);
#53=PLANE('',#1376);
#54=PLANE('',#1377);
#55=PLANE('',#1378);
#56=PLANE('',#1383);
#57=PLANE('',#1384);
#58=PLANE('',#1388);
#59=PLANE('',#1403);
#60=PLANE('',#1406);
#61=PLANE('',#1409);
#62=PLANE('',#1412);
#63=PLANE('',#1415);
#64=PLANE('',#1418);
#65=PLANE('',#1421);
#66=PLANE('',#1424);
#67=PLANE('',#1427);
#68=PLANE('',#1430);
#69=PLANE('',#1433);
#70=PLANE('',#1438);
#71=PLANE('',#1441);
#72=PLANE('',#1449);
#73=PLANE('',#1451);
#74=PLANE('',#1452);
#75=PLANE('',#1454);
#76=PLANE('',#1456);
#77=PLANE('',#1458);
#78=PLANE('',#1460);
#79=PLANE('',#1463);
#80=PLANE('',#1464);
#81=PLANE('',#1465);
#82=PLANE('',#1466);
#83=PLANE('',#1467);
#84=PLANE('',#1468);
#85=PLANE('',#1470);
#86=PLANE('',#1472);
#87=PLANE('',#1474);
#88=PLANE('',#1475);
#89=PLANE('',#1476);
#90=PLANE('',#1477);
#91=PLANE('',#1479);
#92=PLANE('',#1480);
#93=FACE_OUTER_BOUND('',#165,.T.);
#94=FACE_OUTER_BOUND('',#166,.T.);
#95=FACE_OUTER_BOUND('',#171,.T.);
#96=FACE_OUTER_BOUND('',#172,.T.);
#97=FACE_OUTER_BOUND('',#173,.T.);
#98=FACE_OUTER_BOUND('',#174,.T.);
#99=FACE_OUTER_BOUND('',#175,.T.);
#100=FACE_OUTER_BOUND('',#176,.T.);
#101=FACE_OUTER_BOUND('',#177,.T.);
#102=FACE_OUTER_BOUND('',#178,.T.);
#103=FACE_OUTER_BOUND('',#179,.T.);
#104=FACE_OUTER_BOUND('',#180,.T.);
#105=FACE_OUTER_BOUND('',#182,.T.);
#106=FACE_OUTER_BOUND('',#183,.T.);
#107=FACE_OUTER_BOUND('',#184,.T.);
#108=FACE_OUTER_BOUND('',#185,.T.);
#109=FACE_OUTER_BOUND('',#186,.T.);
#110=FACE_OUTER_BOUND('',#187,.T.);
#111=FACE_OUTER_BOUND('',#188,.T.);
#112=FACE_OUTER_BOUND('',#189,.T.);
#113=FACE_OUTER_BOUND('',#190,.T.);
#114=FACE_OUTER_BOUND('',#191,.T.);
#115=FACE_OUTER_BOUND('',#192,.T.);
#116=FACE_OUTER_BOUND('',#193,.T.);
#117=FACE_OUTER_BOUND('',#194,.T.);
#118=FACE_OUTER_BOUND('',#195,.T.);
#119=FACE_OUTER_BOUND('',#196,.T.);
#120=FACE_OUTER_BOUND('',#197,.T.);
#121=FACE_OUTER_BOUND('',#198,.T.);
#122=FACE_OUTER_BOUND('',#199,.T.);
#123=FACE_OUTER_BOUND('',#200,.T.);
#124=FACE_OUTER_BOUND('',#201,.T.);
#125=FACE_OUTER_BOUND('',#202,.T.);
#126=FACE_OUTER_BOUND('',#203,.T.);
#127=FACE_OUTER_BOUND('',#204,.T.);
#128=FACE_OUTER_BOUND('',#205,.T.);
#129=FACE_OUTER_BOUND('',#206,.T.);
#130=FACE_OUTER_BOUND('',#212,.T.);
#131=FACE_OUTER_BOUND('',#213,.T.);
#132=FACE_OUTER_BOUND('',#214,.T.);
#133=FACE_OUTER_BOUND('',#215,.T.);
#134=FACE_OUTER_BOUND('',#216,.T.);
#135=FACE_OUTER_BOUND('',#217,.T.);
#136=FACE_OUTER_BOUND('',#218,.T.);
#137=FACE_OUTER_BOUND('',#219,.T.);
#138=FACE_OUTER_BOUND('',#220,.T.);
#139=FACE_OUTER_BOUND('',#221,.T.);
#140=FACE_OUTER_BOUND('',#222,.T.);
#141=FACE_OUTER_BOUND('',#223,.T.);
#142=FACE_OUTER_BOUND('',#224,.T.);
#143=FACE_OUTER_BOUND('',#225,.T.);
#144=FACE_OUTER_BOUND('',#226,.T.);
#145=FACE_OUTER_BOUND('',#227,.T.);
#146=FACE_OUTER_BOUND('',#228,.T.);
#147=FACE_OUTER_BOUND('',#229,.T.);
#148=FACE_OUTER_BOUND('',#230,.T.);
#149=FACE_OUTER_BOUND('',#231,.T.);
#150=FACE_OUTER_BOUND('',#232,.T.);
#151=FACE_OUTER_BOUND('',#233,.T.);
#152=FACE_OUTER_BOUND('',#234,.T.);
#153=FACE_OUTER_BOUND('',#235,.T.);
#154=FACE_OUTER_BOUND('',#236,.T.);
#155=FACE_OUTER_BOUND('',#237,.T.);
#156=FACE_OUTER_BOUND('',#238,.T.);
#157=FACE_OUTER_BOUND('',#239,.T.);
#158=FACE_OUTER_BOUND('',#240,.T.);
#159=FACE_OUTER_BOUND('',#241,.T.);
#160=FACE_OUTER_BOUND('',#242,.T.);
#161=FACE_OUTER_BOUND('',#243,.T.);
#162=FACE_OUTER_BOUND('',#244,.T.);
#163=FACE_OUTER_BOUND('',#245,.T.);
#164=FACE_OUTER_BOUND('',#246,.T.);
#165=EDGE_LOOP('',(#889,#890,#891,#892));
#166=EDGE_LOOP('',(#893,#894,#895,#896,#897,#898,#899,#900));
#167=EDGE_LOOP('',(#901));
#168=EDGE_LOOP('',(#902));
#169=EDGE_LOOP('',(#903));
#170=EDGE_LOOP('',(#904));
#171=EDGE_LOOP('',(#905,#906,#907,#908));
#172=EDGE_LOOP('',(#909,#910,#911,#912));
#173=EDGE_LOOP('',(#913,#914,#915,#916));
#174=EDGE_LOOP('',(#917,#918,#919,#920));
#175=EDGE_LOOP('',(#921,#922,#923,#924));
#176=EDGE_LOOP('',(#925,#926,#927,#928));
#177=EDGE_LOOP('',(#929,#930,#931,#932));
#178=EDGE_LOOP('',(#933,#934,#935,#936));
#179=EDGE_LOOP('',(#937,#938,#939));
#180=EDGE_LOOP('',(#940,#941,#942,#943,#944,#945,#946,#947,#948,#949,#950,
#951));
#181=EDGE_LOOP('',(#952,#953,#954,#955));
#182=EDGE_LOOP('',(#956,#957,#958,#959));
#183=EDGE_LOOP('',(#960,#961,#962));
#184=EDGE_LOOP('',(#963,#964,#965,#966));
#185=EDGE_LOOP('',(#967,#968,#969,#970,#971,#972,#973,#974,#975,#976,#977,
#978,#979,#980,#981,#982,#983,#984,#985,#986,#987,#988,#989,#990,#991,#992,
#993,#994,#995,#996));
#186=EDGE_LOOP('',(#997,#998,#999,#1000));
#187=EDGE_LOOP('',(#1001,#1002,#1003,#1004));
#188=EDGE_LOOP('',(#1005,#1006,#1007,#1008));
#189=EDGE_LOOP('',(#1009,#1010,#1011,#1012));
#190=EDGE_LOOP('',(#1013,#1014,#1015,#1016));
#191=EDGE_LOOP('',(#1017,#1018,#1019,#1020));
#192=EDGE_LOOP('',(#1021,#1022,#1023,#1024));
#193=EDGE_LOOP('',(#1025,#1026,#1027,#1028));
#194=EDGE_LOOP('',(#1029,#1030,#1031,#1032));
#195=EDGE_LOOP('',(#1033,#1034,#1035,#1036));
#196=EDGE_LOOP('',(#1037,#1038,#1039,#1040));
#197=EDGE_LOOP('',(#1041,#1042,#1043,#1044));
#198=EDGE_LOOP('',(#1045,#1046,#1047,#1048));
#199=EDGE_LOOP('',(#1049,#1050,#1051,#1052));
#200=EDGE_LOOP('',(#1053,#1054,#1055,#1056));
#201=EDGE_LOOP('',(#1057,#1058,#1059,#1060));
#202=EDGE_LOOP('',(#1061,#1062,#1063,#1064));
#203=EDGE_LOOP('',(#1065,#1066,#1067,#1068));
#204=EDGE_LOOP('',(#1069,#1070,#1071,#1072));
#205=EDGE_LOOP('',(#1073,#1074,#1075,#1076));
#206=EDGE_LOOP('',(#1077,#1078,#1079,#1080));
#207=EDGE_LOOP('',(#1081,#1082,#1083,#1084,#1085,#1086,#1087,#1088,#1089,
#1090,#1091,#1092,#1093,#1094,#1095,#1096,#1097,#1098,#1099,#1100,#1101,
#1102,#1103,#1104,#1105,#1106,#1107,#1108,#1109,#1110));
#208=EDGE_LOOP('',(#1111));
#209=EDGE_LOOP('',(#1112));
#210=EDGE_LOOP('',(#1113));
#211=EDGE_LOOP('',(#1114));
#212=EDGE_LOOP('',(#1115,#1116,#1117,#1118,#1119,#1120,#1121,#1122));
#213=EDGE_LOOP('',(#1123,#1124,#1125,#1126,#1127,#1128,#1129,#1130,#1131,
#1132,#1133,#1134,#1135,#1136,#1137,#1138));
#214=EDGE_LOOP('',(#1139,#1140,#1141,#1142));
#215=EDGE_LOOP('',(#1143,#1144,#1145,#1146));
#216=EDGE_LOOP('',(#1147,#1148,#1149,#1150));
#217=EDGE_LOOP('',(#1151,#1152,#1153,#1154));
#218=EDGE_LOOP('',(#1155,#1156,#1157,#1158));
#219=EDGE_LOOP('',(#1159,#1160,#1161,#1162));
#220=EDGE_LOOP('',(#1163,#1164,#1165,#1166));
#221=EDGE_LOOP('',(#1167,#1168,#1169,#1170));
#222=EDGE_LOOP('',(#1171,#1172,#1173,#1174));
#223=EDGE_LOOP('',(#1175,#1176,#1177,#1178));
#224=EDGE_LOOP('',(#1179,#1180,#1181,#1182));
#225=EDGE_LOOP('',(#1183,#1184,#1185,#1186));
#226=EDGE_LOOP('',(#1187,#1188,#1189,#1190));
#227=EDGE_LOOP('',(#1191,#1192,#1193,#1194));
#228=EDGE_LOOP('',(#1195,#1196,#1197,#1198));
#229=EDGE_LOOP('',(#1199,#1200,#1201,#1202));
#230=EDGE_LOOP('',(#1203,#1204,#1205,#1206));
#231=EDGE_LOOP('',(#1207,#1208,#1209,#1210));
#232=EDGE_LOOP('',(#1211,#1212,#1213,#1214));
#233=EDGE_LOOP('',(#1215,#1216,#1217));
#234=EDGE_LOOP('',(#1218,#1219,#1220,#1221));
#235=EDGE_LOOP('',(#1222,#1223,#1224,#1225));
#236=EDGE_LOOP('',(#1226,#1227,#1228,#1229));
#237=EDGE_LOOP('',(#1230,#1231,#1232,#1233));
#238=EDGE_LOOP('',(#1234,#1235,#1236,#1237));
#239=EDGE_LOOP('',(#1238,#1239,#1240,#1241));
#240=EDGE_LOOP('',(#1242,#1243,#1244,#1245));
#241=EDGE_LOOP('',(#1246,#1247,#1248));
#242=EDGE_LOOP('',(#1249,#1250,#1251,#1252,#1253,#1254));
#243=EDGE_LOOP('',(#1255,#1256,#1257,#1258));
#244=EDGE_LOOP('',(#1259,#1260,#1261,#1262));
#245=EDGE_LOOP('',(#1263,#1264,#1265,#1266));
#246=EDGE_LOOP('',(#1267,#1268,#1269,#1270,#1271,#1272));
#247=LINE('',#1882,#381);
#248=LINE('',#1887,#382);
#249=LINE('',#1891,#383);
#250=LINE('',#1895,#384);
#251=LINE('',#1899,#385);
#252=LINE('',#1909,#386);
#253=LINE('',#1913,#387);
#254=LINE('',#1917,#388);
#255=LINE('',#1921,#389);
#256=LINE('',#1925,#390);
#257=LINE('',#1929,#391);
#258=LINE('',#1933,#392);
#259=LINE('',#1938,#393);
#260=LINE('',#1940,#394);
#261=LINE('',#1942,#395);
#262=LINE('',#1943,#396);
#263=LINE('',#1946,#397);
#264=LINE('',#1947,#398);
#265=LINE('',#1950,#399);
#266=LINE('',#1954,#400);
#267=LINE('',#1958,#401);
#268=LINE('',#1962,#402);
#269=LINE('',#1964,#403);
#270=LINE('',#1966,#404);
#271=LINE('',#1969,#405);
#272=LINE('',#1972,#406);
#273=LINE('',#1974,#407);
#274=LINE('',#1976,#408);
#275=LINE('',#1977,#409);
#276=LINE('',#1980,#410);
#277=LINE('',#1982,#411);
#278=LINE('',#1983,#412);
#279=LINE('',#1986,#413);
#280=LINE('',#1987,#414);
#281=LINE('',#1993,#415);
#282=LINE('',#1996,#416);
#283=LINE('',#1999,#417);
#284=LINE('',#2003,#418);
#285=LINE('',#2007,#419);
#286=LINE('',#2011,#420);
#287=LINE('',#2015,#421);
#288=LINE('',#2019,#422);
#289=LINE('',#2023,#423);
#290=LINE('',#2027,#424);
#291=LINE('',#2031,#425);
#292=LINE('',#2035,#426);
#293=LINE('',#2039,#427);
#294=LINE('',#2043,#428);
#295=LINE('',#2047,#429);
#296=LINE('',#2051,#430);
#297=LINE('',#2054,#431);
#298=LINE('',#2057,#432);
#299=LINE('',#2058,#433);
#300=LINE('',#2061,#434);
#301=LINE('',#2064,#435);
#302=LINE('',#2067,#436);
#303=LINE('',#2068,#437);
#304=LINE('',#2071,#438);
#305=LINE('',#2075,#439);
#306=LINE('',#2076,#440);
#307=LINE('',#2079,#441);
#308=LINE('',#2082,#442);
#309=LINE('',#2085,#443);
#310=LINE('',#2086,#444);
#311=LINE('',#2089,#445);
#312=LINE('',#2093,#446);
#313=LINE('',#2094,#447);
#314=LINE('',#2097,#448);
#315=LINE('',#2101,#449);
#316=LINE('',#2102,#450);
#317=LINE('',#2105,#451);
#318=LINE('',#2109,#452);
#319=LINE('',#2110,#453);
#320=LINE('',#2113,#454);
#321=LINE('',#2116,#455);
#322=LINE('',#2119,#456);
#323=LINE('',#2120,#457);
#324=LINE('',#2123,#458);
#325=LINE('',#2127,#459);
#326=LINE('',#2128,#460);
#327=LINE('',#2131,#461);
#328=LINE('',#2135,#462);
#329=LINE('',#2136,#463);
#330=LINE('',#2140,#464);
#331=LINE('',#2144,#465);
#332=LINE('',#2146,#466);
#333=LINE('',#2148,#467);
#334=LINE('',#2149,#468);
#335=LINE('',#2152,#469);
#336=LINE('',#2155,#470);
#337=LINE('',#2157,#471);
#338=LINE('',#2160,#472);
#339=LINE('',#2163,#473);
#340=LINE('',#2166,#474);
#341=LINE('',#2169,#475);
#342=LINE('',#2171,#476);
#343=LINE('',#2174,#477);
#344=LINE('',#2177,#478);
#345=LINE('',#2179,#479);
#346=LINE('',#2183,#480);
#347=LINE('',#2187,#481);
#348=LINE('',#2190,#482);
#349=LINE('',#2192,#483);
#350=LINE('',#2194,#484);
#351=LINE('',#2198,#485);
#352=LINE('',#2202,#486);
#353=LINE('',#2205,#487);
#354=LINE('',#2207,#488);
#355=LINE('',#2210,#489);
#356=LINE('',#2213,#490);
#357=LINE('',#2215,#491);
#358=LINE('',#2218,#492);
#359=LINE('',#2221,#493);
#360=LINE('',#2222,#494);
#361=LINE('',#2224,#495);
#362=LINE('',#2226,#496);
#363=LINE('',#2228,#497);
#364=LINE('',#2230,#498);
#365=LINE('',#2232,#499);
#366=LINE('',#2233,#500);
#367=LINE('',#2235,#501);
#368=LINE('',#2236,#502);
#369=LINE('',#2238,#503);
#370=LINE('',#2240,#504);
#371=LINE('',#2243,#505);
#372=LINE('',#2245,#506);
#373=LINE('',#2247,#507);
#374=LINE('',#2249,#508);
#375=LINE('',#2251,#509);
#376=LINE('',#2253,#510);
#377=LINE('',#2255,#511);
#378=LINE('',#2257,#512);
#379=LINE('',#2261,#513);
#380=LINE('',#2263,#514);
#381=VECTOR('',#1487,2.35);
#382=VECTOR('',#1492,10.);
#383=VECTOR('',#1495,10.);
#384=VECTOR('',#1498,10.);
#385=VECTOR('',#1501,10.);
#386=VECTOR('',#1512,2.);
#387=VECTOR('',#1517,2.35);
#388=VECTOR('',#1522,2.);
#389=VECTOR('',#1527,2.35);
#390=VECTOR('',#1532,2.);
#391=VECTOR('',#1537,2.35);
#392=VECTOR('',#1542,2.);
#393=VECTOR('',#1547,10.);
#394=VECTOR('',#1548,10.);
#395=VECTOR('',#1549,10.);
#396=VECTOR('',#1550,10.);
#397=VECTOR('',#1553,10.);
#398=VECTOR('',#1554,10.);
#399=VECTOR('',#1557,10.);
#400=VECTOR('',#1560,10.);
#401=VECTOR('',#1563,10.);
#402=VECTOR('',#1566,10.);
#403=VECTOR('',#1567,10.);
#404=VECTOR('',#1568,10.);
#405=VECTOR('',#1571,10.);
#406=VECTOR('',#1572,10.);
#407=VECTOR('',#1573,10.);
#408=VECTOR('',#1574,10.);
#409=VECTOR('',#1575,10.);
#410=VECTOR('',#1578,10.);
#411=VECTOR('',#1579,10.);
#412=VECTOR('',#1580,10.);
#413=VECTOR('',#1583,10.);
#414=VECTOR('',#1584,10.);
#415=VECTOR('',#1589,10.);
#416=VECTOR('',#1592,10.);
#417=VECTOR('',#1595,10.);
#418=VECTOR('',#1598,10.);
#419=VECTOR('',#1601,10.);
#420=VECTOR('',#1604,10.);
#421=VECTOR('',#1607,10.);
#422=VECTOR('',#1610,10.);
#423=VECTOR('',#1613,10.);
#424=VECTOR('',#1616,10.);
#425=VECTOR('',#1619,10.);
#426=VECTOR('',#1622,10.);
#427=VECTOR('',#1625,10.);
#428=VECTOR('',#1628,10.);
#429=VECTOR('',#1631,10.);
#430=VECTOR('',#1634,10.);
#431=VECTOR('',#1637,10.);
#432=VECTOR('',#1640,10.);
#433=VECTOR('',#1641,10.);
#434=VECTOR('',#1644,10.);
#435=VECTOR('',#1647,10.);
#436=VECTOR('',#1650,10.);
#437=VECTOR('',#1651,10.);
#438=VECTOR('',#1654,10.);
#439=VECTOR('',#1659,10.);
#440=VECTOR('',#1660,10.);
#441=VECTOR('',#1663,10.);
#442=VECTOR('',#1666,10.);
#443=VECTOR('',#1669,10.);
#444=VECTOR('',#1670,10.);
#445=VECTOR('',#1673,10.);
#446=VECTOR('',#1678,10.);
#447=VECTOR('',#1679,10.);
#448=VECTOR('',#1682,10.);
#449=VECTOR('',#1687,10.);
#450=VECTOR('',#1688,10.);
#451=VECTOR('',#1691,10.);
#452=VECTOR('',#1696,10.);
#453=VECTOR('',#1697,10.);
#454=VECTOR('',#1700,10.);
#455=VECTOR('',#1703,10.);
#456=VECTOR('',#1706,10.);
#457=VECTOR('',#1707,10.);
#458=VECTOR('',#1710,10.);
#459=VECTOR('',#1715,10.);
#460=VECTOR('',#1716,10.);
#461=VECTOR('',#1719,10.);
#462=VECTOR('',#1724,10.);
#463=VECTOR('',#1725,10.);
#464=VECTOR('',#1730,10.);
#465=VECTOR('',#1733,10.);
#466=VECTOR('',#1734,10.);
#467=VECTOR('',#1735,10.);
#468=VECTOR('',#1736,10.);
#469=VECTOR('',#1739,10.);
#470=VECTOR('',#1742,10.);
#471=VECTOR('',#1743,10.);
#472=VECTOR('',#1746,10.);
#473=VECTOR('',#1749,10.);
#474=VECTOR('',#1752,10.);
#475=VECTOR('',#1755,10.);
#476=VECTOR('',#1756,10.);
#477=VECTOR('',#1759,10.);
#478=VECTOR('',#1762,10.);
#479=VECTOR('',#1763,10.);
#480=VECTOR('',#1766,10.);
#481=VECTOR('',#1769,10.);
#482=VECTOR('',#1772,10.);
#483=VECTOR('',#1773,10.);
#484=VECTOR('',#1774,10.);
#485=VECTOR('',#1777,10.);
#486=VECTOR('',#1780,10.);
#487=VECTOR('',#1783,10.);
#488=VECTOR('',#1786,10.);
#489=VECTOR('',#1791,10.);
#490=VECTOR('',#1796,10.);
#491=VECTOR('',#1799,10.);
#492=VECTOR('',#1804,10.);
#493=VECTOR('',#1809,10.);
#494=VECTOR('',#1810,10.);
#495=VECTOR('',#1813,10.);
#496=VECTOR('',#1816,10.);
#497=VECTOR('',#1819,10.);
#498=VECTOR('',#1822,10.);
#499=VECTOR('',#1825,10.);
#500=VECTOR('',#1826,10.);
#501=VECTOR('',#1829,10.);
#502=VECTOR('',#1830,10.);
#503=VECTOR('',#1833,10.);
#504=VECTOR('',#1836,10.);
#505=VECTOR('',#1841,10.);
#506=VECTOR('',#1844,10.);
#507=VECTOR('',#1847,10.);
#508=VECTOR('',#1850,10.);
#509=VECTOR('',#1853,10.);
#510=VECTOR('',#1856,10.);
#511=VECTOR('',#1859,10.);
#512=VECTOR('',#1862,10.);
#513=VECTOR('',#1869,10.);
#514=VECTOR('',#1872,10.);
#515=CIRCLE('',#1352,3.05);
#516=CIRCLE('',#1353,1.65);
#517=CIRCLE('',#1355,2.99999999999997);
#518=CIRCLE('',#1356,2.99999999999997);
#519=CIRCLE('',#1357,2.99999999999997);
#520=CIRCLE('',#1358,2.99999999999999);
#521=CIRCLE('',#1359,3.05);
#522=CIRCLE('',#1360,3.05);
#523=CIRCLE('',#1361,3.05);
#524=CIRCLE('',#1363,1.65);
#525=CIRCLE('',#1365,1.65);
#526=CIRCLE('',#1367,1.65);
#527=CIRCLE('',#1369,1.65);
#528=CIRCLE('',#1371,1.65);
#529=CIRCLE('',#1373,1.65);
#530=CIRCLE('',#1375,1.65);
#531=CIRCLE('',#1379,1.50000000000002);
#532=CIRCLE('',#1380,1.50000000000002);
#533=CIRCLE('',#1381,1.50000000000002);
#534=CIRCLE('',#1382,1.50000000000002);
#535=CIRCLE('',#1386,2.);
#536=CIRCLE('',#1387,2.);
#537=CIRCLE('',#1389,2.);
#538=CIRCLE('',#1390,3.999999);
#539=CIRCLE('',#1391,2.);
#540=CIRCLE('',#1392,2.);
#541=CIRCLE('',#1393,2.);
#542=CIRCLE('',#1394,3.999999);
#543=CIRCLE('',#1395,2.);
#544=CIRCLE('',#1396,2.);
#545=CIRCLE('',#1397,2.);
#546=CIRCLE('',#1398,2.);
#547=CIRCLE('',#1399,3.999999);
#548=CIRCLE('',#1400,2.);
#549=CIRCLE('',#1401,2.);
#550=CIRCLE('',#1402,3.999999);
#551=CIRCLE('',#1405,2.);
#552=CIRCLE('',#1408,2.);
#553=CIRCLE('',#1411,2.);
#554=CIRCLE('',#1414,2.);
#555=CIRCLE('',#1417,2.);
#556=CIRCLE('',#1420,2.);
#557=CIRCLE('',#1423,2.);
#558=CIRCLE('',#1426,2.);
#559=CIRCLE('',#1429,2.);
#560=CIRCLE('',#1432,2.);
#561=CIRCLE('',#1434,3.999999);
#562=CIRCLE('',#1435,3.999999);
#563=CIRCLE('',#1436,3.999999);
#564=CIRCLE('',#1437,3.999999);
#565=CIRCLE('',#1439,1.50000000000002);
#566=CIRCLE('',#1440,2.99999999999999);
#567=CIRCLE('',#1442,2.99999999999997);
#568=CIRCLE('',#1443,2.99999999999997);
#569=CIRCLE('',#1444,2.99999999999997);
#570=CIRCLE('',#1445,1.50000000000002);
#571=CIRCLE('',#1446,1.50000000000002);
#572=CIRCLE('',#1447,1.50000000000002);
#573=VERTEX_POINT('',#1879);
#574=VERTEX_POINT('',#1881);
#575=VERTEX_POINT('',#1885);
#576=VERTEX_POINT('',#1886);
#577=VERTEX_POINT('',#1888);
#578=VERTEX_POINT('',#1890);
#579=VERTEX_POINT('',#1892);
#580=VERTEX_POINT('',#1894);
#581=VERTEX_POINT('',#1896);
#582=VERTEX_POINT('',#1898);
#583=VERTEX_POINT('',#1901);
#584=VERTEX_POINT('',#1903);
#585=VERTEX_POINT('',#1905);
#586=VERTEX_POINT('',#1908);
#587=VERTEX_POINT('',#1912);
#588=VERTEX_POINT('',#1916);
#589=VERTEX_POINT('',#1920);
#590=VERTEX_POINT('',#1924);
#591=VERTEX_POINT('',#1928);
#592=VERTEX_POINT('',#1932);
#593=VERTEX_POINT('',#1936);
#594=VERTEX_POINT('',#1937);
#595=VERTEX_POINT('',#1939);
#596=VERTEX_POINT('',#1941);
#597=VERTEX_POINT('',#1945);
#598=VERTEX_POINT('',#1949);
#599=VERTEX_POINT('',#1951);
#600=VERTEX_POINT('',#1953);
#601=VERTEX_POINT('',#1955);
#602=VERTEX_POINT('',#1957);
#603=VERTEX_POINT('',#1959);
#604=VERTEX_POINT('',#1961);
#605=VERTEX_POINT('',#1963);
#606=VERTEX_POINT('',#1965);
#607=VERTEX_POINT('',#1967);
#608=VERTEX_POINT('',#1970);
#609=VERTEX_POINT('',#1971);
#610=VERTEX_POINT('',#1973);
#611=VERTEX_POINT('',#1975);
#612=VERTEX_POINT('',#1979);
#613=VERTEX_POINT('',#1981);
#614=VERTEX_POINT('',#1985);
#615=VERTEX_POINT('',#1989);
#616=VERTEX_POINT('',#1990);
#617=VERTEX_POINT('',#1992);
#618=VERTEX_POINT('',#1994);
#619=VERTEX_POINT('',#1998);
#620=VERTEX_POINT('',#2000);
#621=VERTEX_POINT('',#2002);
#622=VERTEX_POINT('',#2004);
#623=VERTEX_POINT('',#2006);
#624=VERTEX_POINT('',#2008);
#625=VERTEX_POINT('',#2010);
#626=VERTEX_POINT('',#2012);
#627=VERTEX_POINT('',#2014);
#628=VERTEX_POINT('',#2016);
#629=VERTEX_POINT('',#2018);
#630=VERTEX_POINT('',#2020);
#631=VERTEX_POINT('',#2022);
#632=VERTEX_POINT('',#2024);
#633=VERTEX_POINT('',#2026);
#634=VERTEX_POINT('',#2028);
#635=VERTEX_POINT('',#2030);
#636=VERTEX_POINT('',#2032);
#637=VERTEX_POINT('',#2034);
#638=VERTEX_POINT('',#2036);
#639=VERTEX_POINT('',#2038);
#640=VERTEX_POINT('',#2040);
#641=VERTEX_POINT('',#2042);
#642=VERTEX_POINT('',#2044);
#643=VERTEX_POINT('',#2046);
#644=VERTEX_POINT('',#2048);
#645=VERTEX_POINT('',#2050);
#646=VERTEX_POINT('',#2052);
#647=VERTEX_POINT('',#2056);
#648=VERTEX_POINT('',#2060);
#649=VERTEX_POINT('',#2062);
#650=VERTEX_POINT('',#2066);
#651=VERTEX_POINT('',#2070);
#652=VERTEX_POINT('',#2074);
#653=VERTEX_POINT('',#2078);
#654=VERTEX_POINT('',#2080);
#655=VERTEX_POINT('',#2084);
#656=VERTEX_POINT('',#2088);
#657=VERTEX_POINT('',#2092);
#658=VERTEX_POINT('',#2096);
#659=VERTEX_POINT('',#2100);
#660=VERTEX_POINT('',#2104);
#661=VERTEX_POINT('',#2108);
#662=VERTEX_POINT('',#2112);
#663=VERTEX_POINT('',#2114);
#664=VERTEX_POINT('',#2118);
#665=VERTEX_POINT('',#2122);
#666=VERTEX_POINT('',#2126);
#667=VERTEX_POINT('',#2130);
#668=VERTEX_POINT('',#2134);
#669=VERTEX_POINT('',#2138);
#670=VERTEX_POINT('',#2142);
#671=VERTEX_POINT('',#2143);
#672=VERTEX_POINT('',#2145);
#673=VERTEX_POINT('',#2147);
#674=VERTEX_POINT('',#2150);
#675=VERTEX_POINT('',#2153);
#676=VERTEX_POINT('',#2156);
#677=VERTEX_POINT('',#2158);
#678=VERTEX_POINT('',#2161);
#679=VERTEX_POINT('',#2165);
#680=VERTEX_POINT('',#2167);
#681=VERTEX_POINT('',#2170);
#682=VERTEX_POINT('',#2172);
#683=VERTEX_POINT('',#2176);
#684=VERTEX_POINT('',#2178);
#685=VERTEX_POINT('',#2180);
#686=VERTEX_POINT('',#2182);
#687=VERTEX_POINT('',#2184);
#688=VERTEX_POINT('',#2186);
#689=VERTEX_POINT('',#2188);
#690=VERTEX_POINT('',#2191);
#691=VERTEX_POINT('',#2193);
#692=VERTEX_POINT('',#2195);
#693=VERTEX_POINT('',#2197);
#694=VERTEX_POINT('',#2199);
#695=VERTEX_POINT('',#2201);
#696=VERTEX_POINT('',#2203);
#697=EDGE_CURVE('',#573,#573,#515,.T.);
#698=EDGE_CURVE('',#573,#574,#247,.T.);
#699=EDGE_CURVE('',#574,#574,#516,.T.);
#700=EDGE_CURVE('',#575,#576,#248,.T.);
#701=EDGE_CURVE('',#576,#577,#517,.T.);
#702=EDGE_CURVE('',#577,#578,#249,.T.);
#703=EDGE_CURVE('',#578,#579,#518,.T.);
#704=EDGE_CURVE('',#579,#580,#250,.T.);
#705=EDGE_CURVE('',#580,#581,#519,.T.);
#706=EDGE_CURVE('',#581,#582,#251,.T.);
#707=EDGE_CURVE('',#582,#575,#520,.T.);
#708=EDGE_CURVE('',#583,#583,#521,.T.);
#709=EDGE_CURVE('',#584,#584,#522,.T.);
#710=EDGE_CURVE('',#585,#585,#523,.T.);
#711=EDGE_CURVE('',#574,#586,#252,.T.);
#712=EDGE_CURVE('',#586,#586,#524,.F.);
#713=EDGE_CURVE('',#583,#587,#253,.T.);
#714=EDGE_CURVE('',#587,#587,#525,.T.);
#715=EDGE_CURVE('',#587,#588,#254,.T.);
#716=EDGE_CURVE('',#588,#588,#526,.F.);
#717=EDGE_CURVE('',#585,#589,#255,.T.);
#718=EDGE_CURVE('',#589,#589,#527,.T.);
#719=EDGE_CURVE('',#589,#590,#256,.T.);
#720=EDGE_CURVE('',#590,#590,#528,.F.);
#721=EDGE_CURVE('',#584,#591,#257,.T.);
#722=EDGE_CURVE('',#591,#591,#529,.T.);
#723=EDGE_CURVE('',#591,#592,#258,.T.);
#724=EDGE_CURVE('',#592,#592,#530,.F.);
#725=EDGE_CURVE('',#593,#594,#259,.T.);
#726=EDGE_CURVE('',#594,#595,#260,.T.);
#727=EDGE_CURVE('',#595,#596,#261,.T.);
#728=EDGE_CURVE('',#596,#593,#262,.T.);
#729=EDGE_CURVE('',#597,#595,#263,.T.);
#730=EDGE_CURVE('',#597,#596,#264,.T.);
#731=EDGE_CURVE('',#594,#598,#265,.T.);
#732=EDGE_CURVE('',#598,#599,#531,.T.);
#733=EDGE_CURVE('',#599,#600,#266,.T.);
#734=EDGE_CURVE('',#600,#601,#532,.T.);
#735=EDGE_CURVE('',#601,#602,#267,.T.);
#736=EDGE_CURVE('',#602,#603,#533,.T.);
#737=EDGE_CURVE('',#603,#604,#268,.T.);
#738=EDGE_CURVE('',#605,#604,#269,.T.);
#739=EDGE_CURVE('',#605,#606,#270,.T.);
#740=EDGE_CURVE('',#606,#607,#534,.T.);
#741=EDGE_CURVE('',#607,#595,#271,.T.);
#742=EDGE_CURVE('',#608,#609,#272,.T.);
#743=EDGE_CURVE('',#609,#610,#273,.T.);
#744=EDGE_CURVE('',#610,#611,#274,.T.);
#745=EDGE_CURVE('',#611,#608,#275,.T.);
#746=EDGE_CURVE('',#612,#605,#276,.T.);
#747=EDGE_CURVE('',#604,#613,#277,.T.);
#748=EDGE_CURVE('',#613,#612,#278,.T.);
#749=EDGE_CURVE('',#612,#614,#279,.T.);
#750=EDGE_CURVE('',#614,#605,#280,.T.);
#751=EDGE_CURVE('',#615,#616,#535,.T.);
#752=EDGE_CURVE('',#615,#617,#281,.T.);
#753=EDGE_CURVE('',#617,#618,#536,.T.);
#754=EDGE_CURVE('',#618,#616,#282,.T.);
#755=EDGE_CURVE('',#616,#619,#283,.T.);
#756=EDGE_CURVE('',#619,#620,#537,.T.);
#757=EDGE_CURVE('',#620,#621,#284,.T.);
#758=EDGE_CURVE('',#621,#622,#538,.T.);
#759=EDGE_CURVE('',#622,#623,#285,.T.);
#760=EDGE_CURVE('',#623,#624,#539,.T.);
#761=EDGE_CURVE('',#624,#625,#286,.T.);
#762=EDGE_CURVE('',#625,#626,#540,.T.);
#763=EDGE_CURVE('',#626,#627,#287,.T.);
#764=EDGE_CURVE('',#627,#628,#541,.T.);
#765=EDGE_CURVE('',#628,#629,#288,.T.);
#766=EDGE_CURVE('',#629,#630,#542,.T.);
#767=EDGE_CURVE('',#630,#631,#289,.T.);
#768=EDGE_CURVE('',#631,#632,#543,.T.);
#769=EDGE_CURVE('',#632,#633,#290,.T.);
#770=EDGE_CURVE('',#633,#634,#544,.T.);
#771=EDGE_CURVE('',#634,#635,#291,.T.);
#772=EDGE_CURVE('',#635,#636,#545,.T.);
#773=EDGE_CURVE('',#636,#637,#292,.T.);
#774=EDGE_CURVE('',#637,#638,#546,.T.);
#775=EDGE_CURVE('',#638,#639,#293,.T.);
#776=EDGE_CURVE('',#639,#640,#547,.T.);
#777=EDGE_CURVE('',#640,#641,#294,.T.);
#778=EDGE_CURVE('',#641,#642,#548,.T.);
#779=EDGE_CURVE('',#642,#643,#295,.T.);
#780=EDGE_CURVE('',#643,#644,#549,.T.);
#781=EDGE_CURVE('',#644,#645,#296,.T.);
#782=EDGE_CURVE('',#645,#646,#550,.T.);
#783=EDGE_CURVE('',#646,#615,#297,.T.);
#784=EDGE_CURVE('',#618,#647,#298,.T.);
#785=EDGE_CURVE('',#619,#647,#299,.T.);
#786=EDGE_CURVE('',#643,#648,#300,.T.);
#787=EDGE_CURVE('',#648,#649,#551,.T.);
#788=EDGE_CURVE('',#649,#644,#301,.T.);
#789=EDGE_CURVE('',#650,#642,#302,.T.);
#790=EDGE_CURVE('',#650,#648,#303,.T.);
#791=EDGE_CURVE('',#641,#651,#304,.T.);
#792=EDGE_CURVE('',#651,#650,#552,.T.);
#793=EDGE_CURVE('',#652,#640,#305,.T.);
#794=EDGE_CURVE('',#652,#651,#306,.T.);
#795=EDGE_CURVE('',#637,#653,#307,.T.);
#796=EDGE_CURVE('',#653,#654,#553,.T.);
#797=EDGE_CURVE('',#654,#638,#308,.T.);
#798=EDGE_CURVE('',#655,#636,#309,.T.);
#799=EDGE_CURVE('',#655,#653,#310,.T.);
#800=EDGE_CURVE('',#635,#656,#311,.T.);
#801=EDGE_CURVE('',#656,#655,#554,.T.);
#802=EDGE_CURVE('',#657,#634,#312,.T.);
#803=EDGE_CURVE('',#657,#656,#313,.T.);
#804=EDGE_CURVE('',#633,#658,#314,.T.);
#805=EDGE_CURVE('',#658,#657,#555,.T.);
#806=EDGE_CURVE('',#659,#632,#315,.T.);
#807=EDGE_CURVE('',#659,#658,#316,.T.);
#808=EDGE_CURVE('',#631,#660,#317,.T.);
#809=EDGE_CURVE('',#660,#659,#556,.T.);
#810=EDGE_CURVE('',#661,#630,#318,.T.);
#811=EDGE_CURVE('',#661,#660,#319,.T.);
#812=EDGE_CURVE('',#627,#662,#320,.T.);
#813=EDGE_CURVE('',#662,#663,#557,.T.);
#814=EDGE_CURVE('',#663,#628,#321,.T.);
#815=EDGE_CURVE('',#664,#626,#322,.T.);
#816=EDGE_CURVE('',#664,#662,#323,.T.);
#817=EDGE_CURVE('',#625,#665,#324,.T.);
#818=EDGE_CURVE('',#665,#664,#558,.T.);
#819=EDGE_CURVE('',#666,#624,#325,.T.);
#820=EDGE_CURVE('',#666,#665,#326,.T.);
#821=EDGE_CURVE('',#623,#667,#327,.T.);
#822=EDGE_CURVE('',#667,#666,#559,.T.);
#823=EDGE_CURVE('',#668,#622,#328,.T.);
#824=EDGE_CURVE('',#668,#667,#329,.T.);
#825=EDGE_CURVE('',#647,#669,#560,.T.);
#826=EDGE_CURVE('',#669,#620,#330,.T.);
#827=EDGE_CURVE('',#670,#671,#331,.T.);
#828=EDGE_CURVE('',#671,#672,#332,.T.);
#829=EDGE_CURVE('',#672,#673,#333,.T.);
#830=EDGE_CURVE('',#673,#670,#334,.T.);
#831=EDGE_CURVE('',#674,#661,#561,.T.);
#832=EDGE_CURVE('',#663,#674,#335,.T.);
#833=EDGE_CURVE('',#675,#668,#562,.T.);
#834=EDGE_CURVE('',#669,#675,#336,.T.);
#835=EDGE_CURVE('',#676,#617,#337,.T.);
#836=EDGE_CURVE('',#677,#676,#563,.T.);
#837=EDGE_CURVE('',#649,#677,#338,.T.);
#838=EDGE_CURVE('',#678,#652,#564,.T.);
#839=EDGE_CURVE('',#654,#678,#339,.T.);
#840=EDGE_CURVE('',#597,#679,#340,.T.);
#841=EDGE_CURVE('',#679,#680,#565,.T.);
#842=EDGE_CURVE('',#680,#614,#341,.T.);
#843=EDGE_CURVE('',#681,#612,#342,.T.);
#844=EDGE_CURVE('',#682,#681,#566,.T.);
#845=EDGE_CURVE('',#596,#682,#343,.T.);
#846=EDGE_CURVE('',#683,#593,#344,.T.);
#847=EDGE_CURVE('',#684,#593,#345,.T.);
#848=EDGE_CURVE('',#685,#684,#567,.T.);
#849=EDGE_CURVE('',#686,#685,#346,.T.);
#850=EDGE_CURVE('',#687,#686,#568,.T.);
#851=EDGE_CURVE('',#688,#687,#347,.T.);
#852=EDGE_CURVE('',#689,#688,#569,.T.);
#853=EDGE_CURVE('',#613,#689,#348,.T.);
#854=EDGE_CURVE('',#613,#690,#349,.T.);
#855=EDGE_CURVE('',#690,#691,#350,.T.);
#856=EDGE_CURVE('',#691,#692,#570,.T.);
#857=EDGE_CURVE('',#692,#693,#351,.T.);
#858=EDGE_CURVE('',#693,#694,#571,.T.);
#859=EDGE_CURVE('',#694,#695,#352,.T.);
#860=EDGE_CURVE('',#695,#696,#572,.T.);
#861=EDGE_CURVE('',#696,#683,#353,.T.);
#862=EDGE_CURVE('',#674,#629,#354,.T.);
#863=EDGE_CURVE('',#675,#621,#355,.T.);
#864=EDGE_CURVE('',#676,#646,#356,.T.);
#865=EDGE_CURVE('',#677,#645,#357,.T.);
#866=EDGE_CURVE('',#678,#639,#358,.T.);
#867=EDGE_CURVE('',#684,#581,#359,.T.);
#868=EDGE_CURVE('',#685,#580,#360,.T.);
#869=EDGE_CURVE('',#686,#579,#361,.T.);
#870=EDGE_CURVE('',#687,#578,#362,.T.);
#871=EDGE_CURVE('',#688,#577,#363,.T.);
#872=EDGE_CURVE('',#689,#576,#364,.T.);
#873=EDGE_CURVE('',#681,#575,#365,.T.);
#874=EDGE_CURVE('',#682,#582,#366,.T.);
#875=EDGE_CURVE('',#670,#608,#367,.T.);
#876=EDGE_CURVE('',#671,#611,#368,.T.);
#877=EDGE_CURVE('',#672,#610,#369,.T.);
#878=EDGE_CURVE('',#673,#609,#370,.T.);
#879=EDGE_CURVE('',#690,#604,#371,.T.);
#880=EDGE_CURVE('',#691,#603,#372,.T.);
#881=EDGE_CURVE('',#692,#602,#373,.T.);
#882=EDGE_CURVE('',#693,#601,#374,.T.);
#883=EDGE_CURVE('',#694,#600,#375,.T.);
#884=EDGE_CURVE('',#695,#599,#376,.T.);
#885=EDGE_CURVE('',#696,#598,#377,.T.);
#886=EDGE_CURVE('',#683,#594,#378,.T.);
#887=EDGE_CURVE('',#679,#607,#379,.T.);
#888=EDGE_CURVE('',#680,#606,#380,.T.);
#889=ORIENTED_EDGE('',*,*,#697,.T.);
#890=ORIENTED_EDGE('',*,*,#698,.T.);
#891=ORIENTED_EDGE('',*,*,#699,.T.);
#892=ORIENTED_EDGE('',*,*,#698,.F.);
#893=ORIENTED_EDGE('',*,*,#700,.T.);
#894=ORIENTED_EDGE('',*,*,#701,.T.);
#895=ORIENTED_EDGE('',*,*,#702,.T.);
#896=ORIENTED_EDGE('',*,*,#703,.T.);
#897=ORIENTED_EDGE('',*,*,#704,.T.);
#898=ORIENTED_EDGE('',*,*,#705,.T.);
#899=ORIENTED_EDGE('',*,*,#706,.T.);
#900=ORIENTED_EDGE('',*,*,#707,.T.);
#901=ORIENTED_EDGE('',*,*,#708,.F.);
#902=ORIENTED_EDGE('',*,*,#709,.F.);
#903=ORIENTED_EDGE('',*,*,#710,.F.);
#904=ORIENTED_EDGE('',*,*,#697,.F.);
#905=ORIENTED_EDGE('',*,*,#699,.F.);
#906=ORIENTED_EDGE('',*,*,#711,.T.);
#907=ORIENTED_EDGE('',*,*,#712,.T.);
#908=ORIENTED_EDGE('',*,*,#711,.F.);
#909=ORIENTED_EDGE('',*,*,#708,.T.);
#910=ORIENTED_EDGE('',*,*,#713,.T.);
#911=ORIENTED_EDGE('',*,*,#714,.T.);
#912=ORIENTED_EDGE('',*,*,#713,.F.);
#913=ORIENTED_EDGE('',*,*,#714,.F.);
#914=ORIENTED_EDGE('',*,*,#715,.T.);
#915=ORIENTED_EDGE('',*,*,#716,.T.);
#916=ORIENTED_EDGE('',*,*,#715,.F.);
#917=ORIENTED_EDGE('',*,*,#710,.T.);
#918=ORIENTED_EDGE('',*,*,#717,.T.);
#919=ORIENTED_EDGE('',*,*,#718,.T.);
#920=ORIENTED_EDGE('',*,*,#717,.F.);
#921=ORIENTED_EDGE('',*,*,#718,.F.);
#922=ORIENTED_EDGE('',*,*,#719,.T.);
#923=ORIENTED_EDGE('',*,*,#720,.T.);
#924=ORIENTED_EDGE('',*,*,#719,.F.);
#925=ORIENTED_EDGE('',*,*,#709,.T.);
#926=ORIENTED_EDGE('',*,*,#721,.T.);
#927=ORIENTED_EDGE('',*,*,#722,.T.);
#928=ORIENTED_EDGE('',*,*,#721,.F.);
#929=ORIENTED_EDGE('',*,*,#722,.F.);
#930=ORIENTED_EDGE('',*,*,#723,.T.);
#931=ORIENTED_EDGE('',*,*,#724,.T.);
#932=ORIENTED_EDGE('',*,*,#723,.F.);
#933=ORIENTED_EDGE('',*,*,#725,.T.);
#934=ORIENTED_EDGE('',*,*,#726,.T.);
#935=ORIENTED_EDGE('',*,*,#727,.T.);
#936=ORIENTED_EDGE('',*,*,#728,.T.);
#937=ORIENTED_EDGE('',*,*,#727,.F.);
#938=ORIENTED_EDGE('',*,*,#729,.F.);
#939=ORIENTED_EDGE('',*,*,#730,.T.);
#940=ORIENTED_EDGE('',*,*,#726,.F.);
#941=ORIENTED_EDGE('',*,*,#731,.T.);
#942=ORIENTED_EDGE('',*,*,#732,.T.);
#943=ORIENTED_EDGE('',*,*,#733,.T.);
#944=ORIENTED_EDGE('',*,*,#734,.T.);
#945=ORIENTED_EDGE('',*,*,#735,.T.);
#946=ORIENTED_EDGE('',*,*,#736,.T.);
#947=ORIENTED_EDGE('',*,*,#737,.T.);
#948=ORIENTED_EDGE('',*,*,#738,.F.);
#949=ORIENTED_EDGE('',*,*,#739,.T.);
#950=ORIENTED_EDGE('',*,*,#740,.T.);
#951=ORIENTED_EDGE('',*,*,#741,.T.);
#952=ORIENTED_EDGE('',*,*,#742,.T.);
#953=ORIENTED_EDGE('',*,*,#743,.T.);
#954=ORIENTED_EDGE('',*,*,#744,.T.);
#955=ORIENTED_EDGE('',*,*,#745,.T.);
#956=ORIENTED_EDGE('',*,*,#746,.T.);
#957=ORIENTED_EDGE('',*,*,#738,.T.);
#958=ORIENTED_EDGE('',*,*,#747,.T.);
#959=ORIENTED_EDGE('',*,*,#748,.T.);
#960=ORIENTED_EDGE('',*,*,#746,.F.);
#961=ORIENTED_EDGE('',*,*,#749,.T.);
#962=ORIENTED_EDGE('',*,*,#750,.T.);
#963=ORIENTED_EDGE('',*,*,#751,.F.);
#964=ORIENTED_EDGE('',*,*,#752,.T.);
#965=ORIENTED_EDGE('',*,*,#753,.T.);
#966=ORIENTED_EDGE('',*,*,#754,.T.);
#967=ORIENTED_EDGE('',*,*,#751,.T.);
#968=ORIENTED_EDGE('',*,*,#755,.T.);
#969=ORIENTED_EDGE('',*,*,#756,.T.);
#970=ORIENTED_EDGE('',*,*,#757,.T.);
#971=ORIENTED_EDGE('',*,*,#758,.T.);
#972=ORIENTED_EDGE('',*,*,#759,.T.);
#973=ORIENTED_EDGE('',*,*,#760,.T.);
#974=ORIENTED_EDGE('',*,*,#761,.T.);
#975=ORIENTED_EDGE('',*,*,#762,.T.);
#976=ORIENTED_EDGE('',*,*,#763,.T.);
#977=ORIENTED_EDGE('',*,*,#764,.T.);
#978=ORIENTED_EDGE('',*,*,#765,.T.);
#979=ORIENTED_EDGE('',*,*,#766,.T.);
#980=ORIENTED_EDGE('',*,*,#767,.T.);
#981=ORIENTED_EDGE('',*,*,#768,.T.);
#982=ORIENTED_EDGE('',*,*,#769,.T.);
#983=ORIENTED_EDGE('',*,*,#770,.T.);
#984=ORIENTED_EDGE('',*,*,#771,.T.);
#985=ORIENTED_EDGE('',*,*,#772,.T.);
#986=ORIENTED_EDGE('',*,*,#773,.T.);
#987=ORIENTED_EDGE('',*,*,#774,.T.);
#988=ORIENTED_EDGE('',*,*,#775,.T.);
#989=ORIENTED_EDGE('',*,*,#776,.T.);
#990=ORIENTED_EDGE('',*,*,#777,.T.);
#991=ORIENTED_EDGE('',*,*,#778,.T.);
#992=ORIENTED_EDGE('',*,*,#779,.T.);
#993=ORIENTED_EDGE('',*,*,#780,.T.);
#994=ORIENTED_EDGE('',*,*,#781,.T.);
#995=ORIENTED_EDGE('',*,*,#782,.T.);
#996=ORIENTED_EDGE('',*,*,#783,.T.);
#997=ORIENTED_EDGE('',*,*,#754,.F.);
#998=ORIENTED_EDGE('',*,*,#784,.T.);
#999=ORIENTED_EDGE('',*,*,#785,.F.);
#1000=ORIENTED_EDGE('',*,*,#755,.F.);
#1001=ORIENTED_EDGE('',*,*,#780,.F.);
#1002=ORIENTED_EDGE('',*,*,#786,.T.);
#1003=ORIENTED_EDGE('',*,*,#787,.T.);
#1004=ORIENTED_EDGE('',*,*,#788,.T.);
#1005=ORIENTED_EDGE('',*,*,#786,.F.);
#1006=ORIENTED_EDGE('',*,*,#779,.F.);
#1007=ORIENTED_EDGE('',*,*,#789,.F.);
#1008=ORIENTED_EDGE('',*,*,#790,.T.);
#1009=ORIENTED_EDGE('',*,*,#778,.F.);
#1010=ORIENTED_EDGE('',*,*,#791,.T.);
#1011=ORIENTED_EDGE('',*,*,#792,.T.);
#1012=ORIENTED_EDGE('',*,*,#789,.T.);
#1013=ORIENTED_EDGE('',*,*,#791,.F.);
#1014=ORIENTED_EDGE('',*,*,#777,.F.);
#1015=ORIENTED_EDGE('',*,*,#793,.F.);
#1016=ORIENTED_EDGE('',*,*,#794,.T.);
#1017=ORIENTED_EDGE('',*,*,#774,.F.);
#1018=ORIENTED_EDGE('',*,*,#795,.T.);
#1019=ORIENTED_EDGE('',*,*,#796,.T.);
#1020=ORIENTED_EDGE('',*,*,#797,.T.);
#1021=ORIENTED_EDGE('',*,*,#795,.F.);
#1022=ORIENTED_EDGE('',*,*,#773,.F.);
#1023=ORIENTED_EDGE('',*,*,#798,.F.);
#1024=ORIENTED_EDGE('',*,*,#799,.T.);
#1025=ORIENTED_EDGE('',*,*,#772,.F.);
#1026=ORIENTED_EDGE('',*,*,#800,.T.);
#1027=ORIENTED_EDGE('',*,*,#801,.T.);
#1028=ORIENTED_EDGE('',*,*,#798,.T.);
#1029=ORIENTED_EDGE('',*,*,#800,.F.);
#1030=ORIENTED_EDGE('',*,*,#771,.F.);
#1031=ORIENTED_EDGE('',*,*,#802,.F.);
#1032=ORIENTED_EDGE('',*,*,#803,.T.);
#1033=ORIENTED_EDGE('',*,*,#770,.F.);
#1034=ORIENTED_EDGE('',*,*,#804,.T.);
#1035=ORIENTED_EDGE('',*,*,#805,.T.);
#1036=ORIENTED_EDGE('',*,*,#802,.T.);
#1037=ORIENTED_EDGE('',*,*,#804,.F.);
#1038=ORIENTED_EDGE('',*,*,#769,.F.);
#1039=ORIENTED_EDGE('',*,*,#806,.F.);
#1040=ORIENTED_EDGE('',*,*,#807,.T.);
#1041=ORIENTED_EDGE('',*,*,#768,.F.);
#1042=ORIENTED_EDGE('',*,*,#808,.T.);
#1043=ORIENTED_EDGE('',*,*,#809,.T.);
#1044=ORIENTED_EDGE('',*,*,#806,.T.);
#1045=ORIENTED_EDGE('',*,*,#808,.F.);
#1046=ORIENTED_EDGE('',*,*,#767,.F.);
#1047=ORIENTED_EDGE('',*,*,#810,.F.);
#1048=ORIENTED_EDGE('',*,*,#811,.T.);
#1049=ORIENTED_EDGE('',*,*,#764,.F.);
#1050=ORIENTED_EDGE('',*,*,#812,.T.);
#1051=ORIENTED_EDGE('',*,*,#813,.T.);
#1052=ORIENTED_EDGE('',*,*,#814,.T.);
#1053=ORIENTED_EDGE('',*,*,#812,.F.);
#1054=ORIENTED_EDGE('',*,*,#763,.F.);
#1055=ORIENTED_EDGE('',*,*,#815,.F.);
#1056=ORIENTED_EDGE('',*,*,#816,.T.);
#1057=ORIENTED_EDGE('',*,*,#762,.F.);
#1058=ORIENTED_EDGE('',*,*,#817,.T.);
#1059=ORIENTED_EDGE('',*,*,#818,.T.);
#1060=ORIENTED_EDGE('',*,*,#815,.T.);
#1061=ORIENTED_EDGE('',*,*,#817,.F.);
#1062=ORIENTED_EDGE('',*,*,#761,.F.);
#1063=ORIENTED_EDGE('',*,*,#819,.F.);
#1064=ORIENTED_EDGE('',*,*,#820,.T.);
#1065=ORIENTED_EDGE('',*,*,#760,.F.);
#1066=ORIENTED_EDGE('',*,*,#821,.T.);
#1067=ORIENTED_EDGE('',*,*,#822,.T.);
#1068=ORIENTED_EDGE('',*,*,#819,.T.);
#1069=ORIENTED_EDGE('',*,*,#821,.F.);
#1070=ORIENTED_EDGE('',*,*,#759,.F.);
#1071=ORIENTED_EDGE('',*,*,#823,.F.);
#1072=ORIENTED_EDGE('',*,*,#824,.T.);
#1073=ORIENTED_EDGE('',*,*,#756,.F.);
#1074=ORIENTED_EDGE('',*,*,#785,.T.);
#1075=ORIENTED_EDGE('',*,*,#825,.T.);
#1076=ORIENTED_EDGE('',*,*,#826,.T.);
#1077=ORIENTED_EDGE('',*,*,#827,.T.);
#1078=ORIENTED_EDGE('',*,*,#828,.T.);
#1079=ORIENTED_EDGE('',*,*,#829,.T.);
#1080=ORIENTED_EDGE('',*,*,#830,.T.);
#1081=ORIENTED_EDGE('',*,*,#805,.F.);
#1082=ORIENTED_EDGE('',*,*,#807,.F.);
#1083=ORIENTED_EDGE('',*,*,#809,.F.);
#1084=ORIENTED_EDGE('',*,*,#811,.F.);
#1085=ORIENTED_EDGE('',*,*,#831,.F.);
#1086=ORIENTED_EDGE('',*,*,#832,.F.);
#1087=ORIENTED_EDGE('',*,*,#813,.F.);
#1088=ORIENTED_EDGE('',*,*,#816,.F.);
#1089=ORIENTED_EDGE('',*,*,#818,.F.);
#1090=ORIENTED_EDGE('',*,*,#820,.F.);
#1091=ORIENTED_EDGE('',*,*,#822,.F.);
#1092=ORIENTED_EDGE('',*,*,#824,.F.);
#1093=ORIENTED_EDGE('',*,*,#833,.F.);
#1094=ORIENTED_EDGE('',*,*,#834,.F.);
#1095=ORIENTED_EDGE('',*,*,#825,.F.);
#1096=ORIENTED_EDGE('',*,*,#784,.F.);
#1097=ORIENTED_EDGE('',*,*,#753,.F.);
#1098=ORIENTED_EDGE('',*,*,#835,.F.);
#1099=ORIENTED_EDGE('',*,*,#836,.F.);
#1100=ORIENTED_EDGE('',*,*,#837,.F.);
#1101=ORIENTED_EDGE('',*,*,#787,.F.);
#1102=ORIENTED_EDGE('',*,*,#790,.F.);
#1103=ORIENTED_EDGE('',*,*,#792,.F.);
#1104=ORIENTED_EDGE('',*,*,#794,.F.);
#1105=ORIENTED_EDGE('',*,*,#838,.F.);
#1106=ORIENTED_EDGE('',*,*,#839,.F.);
#1107=ORIENTED_EDGE('',*,*,#796,.F.);
#1108=ORIENTED_EDGE('',*,*,#799,.F.);
#1109=ORIENTED_EDGE('',*,*,#801,.F.);
#1110=ORIENTED_EDGE('',*,*,#803,.F.);
#1111=ORIENTED_EDGE('',*,*,#720,.F.);
#1112=ORIENTED_EDGE('',*,*,#724,.F.);
#1113=ORIENTED_EDGE('',*,*,#712,.F.);
#1114=ORIENTED_EDGE('',*,*,#716,.F.);
#1115=ORIENTED_EDGE('',*,*,#730,.F.);
#1116=ORIENTED_EDGE('',*,*,#840,.T.);
#1117=ORIENTED_EDGE('',*,*,#841,.T.);
#1118=ORIENTED_EDGE('',*,*,#842,.T.);
#1119=ORIENTED_EDGE('',*,*,#749,.F.);
#1120=ORIENTED_EDGE('',*,*,#843,.F.);
#1121=ORIENTED_EDGE('',*,*,#844,.F.);
#1122=ORIENTED_EDGE('',*,*,#845,.F.);
#1123=ORIENTED_EDGE('',*,*,#846,.T.);
#1124=ORIENTED_EDGE('',*,*,#847,.F.);
#1125=ORIENTED_EDGE('',*,*,#848,.F.);
#1126=ORIENTED_EDGE('',*,*,#849,.F.);
#1127=ORIENTED_EDGE('',*,*,#850,.F.);
#1128=ORIENTED_EDGE('',*,*,#851,.F.);
#1129=ORIENTED_EDGE('',*,*,#852,.F.);
#1130=ORIENTED_EDGE('',*,*,#853,.F.);
#1131=ORIENTED_EDGE('',*,*,#854,.T.);
#1132=ORIENTED_EDGE('',*,*,#855,.T.);
#1133=ORIENTED_EDGE('',*,*,#856,.T.);
#1134=ORIENTED_EDGE('',*,*,#857,.T.);
#1135=ORIENTED_EDGE('',*,*,#858,.T.);
#1136=ORIENTED_EDGE('',*,*,#859,.T.);
#1137=ORIENTED_EDGE('',*,*,#860,.T.);
#1138=ORIENTED_EDGE('',*,*,#861,.T.);
#1139=ORIENTED_EDGE('',*,*,#831,.T.);
#1140=ORIENTED_EDGE('',*,*,#810,.T.);
#1141=ORIENTED_EDGE('',*,*,#766,.F.);
#1142=ORIENTED_EDGE('',*,*,#862,.F.);
#1143=ORIENTED_EDGE('',*,*,#814,.F.);
#1144=ORIENTED_EDGE('',*,*,#832,.T.);
#1145=ORIENTED_EDGE('',*,*,#862,.T.);
#1146=ORIENTED_EDGE('',*,*,#765,.F.);
#1147=ORIENTED_EDGE('',*,*,#833,.T.);
#1148=ORIENTED_EDGE('',*,*,#823,.T.);
#1149=ORIENTED_EDGE('',*,*,#758,.F.);
#1150=ORIENTED_EDGE('',*,*,#863,.F.);
#1151=ORIENTED_EDGE('',*,*,#826,.F.);
#1152=ORIENTED_EDGE('',*,*,#834,.T.);
#1153=ORIENTED_EDGE('',*,*,#863,.T.);
#1154=ORIENTED_EDGE('',*,*,#757,.F.);
#1155=ORIENTED_EDGE('',*,*,#752,.F.);
#1156=ORIENTED_EDGE('',*,*,#783,.F.);
#1157=ORIENTED_EDGE('',*,*,#864,.F.);
#1158=ORIENTED_EDGE('',*,*,#835,.T.);
#1159=ORIENTED_EDGE('',*,*,#836,.T.);
#1160=ORIENTED_EDGE('',*,*,#864,.T.);
#1161=ORIENTED_EDGE('',*,*,#782,.F.);
#1162=ORIENTED_EDGE('',*,*,#865,.F.);
#1163=ORIENTED_EDGE('',*,*,#788,.F.);
#1164=ORIENTED_EDGE('',*,*,#837,.T.);
#1165=ORIENTED_EDGE('',*,*,#865,.T.);
#1166=ORIENTED_EDGE('',*,*,#781,.F.);
#1167=ORIENTED_EDGE('',*,*,#838,.T.);
#1168=ORIENTED_EDGE('',*,*,#793,.T.);
#1169=ORIENTED_EDGE('',*,*,#776,.F.);
#1170=ORIENTED_EDGE('',*,*,#866,.F.);
#1171=ORIENTED_EDGE('',*,*,#797,.F.);
#1172=ORIENTED_EDGE('',*,*,#839,.T.);
#1173=ORIENTED_EDGE('',*,*,#866,.T.);
#1174=ORIENTED_EDGE('',*,*,#775,.F.);
#1175=ORIENTED_EDGE('',*,*,#848,.T.);
#1176=ORIENTED_EDGE('',*,*,#867,.T.);
#1177=ORIENTED_EDGE('',*,*,#705,.F.);
#1178=ORIENTED_EDGE('',*,*,#868,.F.);
#1179=ORIENTED_EDGE('',*,*,#849,.T.);
#1180=ORIENTED_EDGE('',*,*,#868,.T.);
#1181=ORIENTED_EDGE('',*,*,#704,.F.);
#1182=ORIENTED_EDGE('',*,*,#869,.F.);
#1183=ORIENTED_EDGE('',*,*,#850,.T.);
#1184=ORIENTED_EDGE('',*,*,#869,.T.);
#1185=ORIENTED_EDGE('',*,*,#703,.F.);
#1186=ORIENTED_EDGE('',*,*,#870,.F.);
#1187=ORIENTED_EDGE('',*,*,#851,.T.);
#1188=ORIENTED_EDGE('',*,*,#870,.T.);
#1189=ORIENTED_EDGE('',*,*,#702,.F.);
#1190=ORIENTED_EDGE('',*,*,#871,.F.);
#1191=ORIENTED_EDGE('',*,*,#852,.T.);
#1192=ORIENTED_EDGE('',*,*,#871,.T.);
#1193=ORIENTED_EDGE('',*,*,#701,.F.);
#1194=ORIENTED_EDGE('',*,*,#872,.F.);
#1195=ORIENTED_EDGE('',*,*,#844,.T.);
#1196=ORIENTED_EDGE('',*,*,#873,.T.);
#1197=ORIENTED_EDGE('',*,*,#707,.F.);
#1198=ORIENTED_EDGE('',*,*,#874,.F.);
#1199=ORIENTED_EDGE('',*,*,#827,.F.);
#1200=ORIENTED_EDGE('',*,*,#875,.T.);
#1201=ORIENTED_EDGE('',*,*,#745,.F.);
#1202=ORIENTED_EDGE('',*,*,#876,.F.);
#1203=ORIENTED_EDGE('',*,*,#828,.F.);
#1204=ORIENTED_EDGE('',*,*,#876,.T.);
#1205=ORIENTED_EDGE('',*,*,#744,.F.);
#1206=ORIENTED_EDGE('',*,*,#877,.F.);
#1207=ORIENTED_EDGE('',*,*,#829,.F.);
#1208=ORIENTED_EDGE('',*,*,#877,.T.);
#1209=ORIENTED_EDGE('',*,*,#743,.F.);
#1210=ORIENTED_EDGE('',*,*,#878,.F.);
#1211=ORIENTED_EDGE('',*,*,#830,.F.);
#1212=ORIENTED_EDGE('',*,*,#878,.T.);
#1213=ORIENTED_EDGE('',*,*,#742,.F.);
#1214=ORIENTED_EDGE('',*,*,#875,.F.);
#1215=ORIENTED_EDGE('',*,*,#747,.F.);
#1216=ORIENTED_EDGE('',*,*,#879,.F.);
#1217=ORIENTED_EDGE('',*,*,#854,.F.);
#1218=ORIENTED_EDGE('',*,*,#855,.F.);
#1219=ORIENTED_EDGE('',*,*,#879,.T.);
#1220=ORIENTED_EDGE('',*,*,#737,.F.);
#1221=ORIENTED_EDGE('',*,*,#880,.F.);
#1222=ORIENTED_EDGE('',*,*,#856,.F.);
#1223=ORIENTED_EDGE('',*,*,#880,.T.);
#1224=ORIENTED_EDGE('',*,*,#736,.F.);
#1225=ORIENTED_EDGE('',*,*,#881,.F.);
#1226=ORIENTED_EDGE('',*,*,#857,.F.);
#1227=ORIENTED_EDGE('',*,*,#881,.T.);
#1228=ORIENTED_EDGE('',*,*,#735,.F.);
#1229=ORIENTED_EDGE('',*,*,#882,.F.);
#1230=ORIENTED_EDGE('',*,*,#858,.F.);
#1231=ORIENTED_EDGE('',*,*,#882,.T.);
#1232=ORIENTED_EDGE('',*,*,#734,.F.);
#1233=ORIENTED_EDGE('',*,*,#883,.F.);
#1234=ORIENTED_EDGE('',*,*,#859,.F.);
#1235=ORIENTED_EDGE('',*,*,#883,.T.);
#1236=ORIENTED_EDGE('',*,*,#733,.F.);
#1237=ORIENTED_EDGE('',*,*,#884,.F.);
#1238=ORIENTED_EDGE('',*,*,#860,.F.);
#1239=ORIENTED_EDGE('',*,*,#884,.T.);
#1240=ORIENTED_EDGE('',*,*,#732,.F.);
#1241=ORIENTED_EDGE('',*,*,#885,.F.);
#1242=ORIENTED_EDGE('',*,*,#861,.F.);
#1243=ORIENTED_EDGE('',*,*,#885,.T.);
#1244=ORIENTED_EDGE('',*,*,#731,.F.);
#1245=ORIENTED_EDGE('',*,*,#886,.F.);
#1246=ORIENTED_EDGE('',*,*,#725,.F.);
#1247=ORIENTED_EDGE('',*,*,#846,.F.);
#1248=ORIENTED_EDGE('',*,*,#886,.T.);
#1249=ORIENTED_EDGE('',*,*,#728,.F.);
#1250=ORIENTED_EDGE('',*,*,#845,.T.);
#1251=ORIENTED_EDGE('',*,*,#874,.T.);
#1252=ORIENTED_EDGE('',*,*,#706,.F.);
#1253=ORIENTED_EDGE('',*,*,#867,.F.);
#1254=ORIENTED_EDGE('',*,*,#847,.T.);
#1255=ORIENTED_EDGE('',*,*,#840,.F.);
#1256=ORIENTED_EDGE('',*,*,#729,.T.);
#1257=ORIENTED_EDGE('',*,*,#741,.F.);
#1258=ORIENTED_EDGE('',*,*,#887,.F.);
#1259=ORIENTED_EDGE('',*,*,#841,.F.);
#1260=ORIENTED_EDGE('',*,*,#887,.T.);
#1261=ORIENTED_EDGE('',*,*,#740,.F.);
#1262=ORIENTED_EDGE('',*,*,#888,.F.);
#1263=ORIENTED_EDGE('',*,*,#842,.F.);
#1264=ORIENTED_EDGE('',*,*,#888,.T.);
#1265=ORIENTED_EDGE('',*,*,#739,.F.);
#1266=ORIENTED_EDGE('',*,*,#750,.F.);
#1267=ORIENTED_EDGE('',*,*,#748,.F.);
#1268=ORIENTED_EDGE('',*,*,#853,.T.);
#1269=ORIENTED_EDGE('',*,*,#872,.T.);
#1270=ORIENTED_EDGE('',*,*,#700,.F.);
#1271=ORIENTED_EDGE('',*,*,#873,.F.);
#1272=ORIENTED_EDGE('',*,*,#843,.T.);
#1273=CONICAL_SURFACE('',#1351,2.35,0.785398163397447);
#1274=CONICAL_SURFACE('',#1364,2.35,0.785398163397449);
#1275=CONICAL_SURFACE('',#1368,2.35,0.785398163397447);
#1276=CONICAL_SURFACE('',#1372,2.35,0.785398163397447);
#1277=ADVANCED_FACE('',(#93),#1273,.F.);
#1278=ADVANCED_FACE('',(#94,#42,#43,#44,#45),#52,.T.);
#1279=ADVANCED_FACE('',(#95),#15,.F.);
#1280=ADVANCED_FACE('',(#96),#1274,.F.);
#1281=ADVANCED_FACE('',(#97),#16,.F.);
#1282=ADVANCED_FACE('',(#98),#1275,.F.);
#1283=ADVANCED_FACE('',(#99),#17,.F.);
#1284=ADVANCED_FACE('',(#100),#1276,.F.);
#1285=ADVANCED_FACE('',(#101),#18,.F.);
#1286=ADVANCED_FACE('',(#102),#53,.T.);
#1287=ADVANCED_FACE('',(#103),#54,.T.);
#1288=ADVANCED_FACE('',(#104,#46),#55,.F.);
#1289=ADVANCED_FACE('',(#105),#56,.T.);
#1290=ADVANCED_FACE('',(#106),#57,.T.);
#1291=ADVANCED_FACE('',(#107),#19,.F.);
#1292=ADVANCED_FACE('',(#108),#58,.F.);
#1293=ADVANCED_FACE('',(#109),#59,.T.);
#1294=ADVANCED_FACE('',(#110),#20,.F.);
#1295=ADVANCED_FACE('',(#111),#60,.T.);
#1296=ADVANCED_FACE('',(#112),#21,.F.);
#1297=ADVANCED_FACE('',(#113),#61,.T.);
#1298=ADVANCED_FACE('',(#114),#22,.F.);
#1299=ADVANCED_FACE('',(#115),#62,.T.);
#1300=ADVANCED_FACE('',(#116),#23,.F.);
#1301=ADVANCED_FACE('',(#117),#63,.T.);
#1302=ADVANCED_FACE('',(#118),#24,.F.);
#1303=ADVANCED_FACE('',(#119),#64,.T.);
#1304=ADVANCED_FACE('',(#120),#25,.F.);
#1305=ADVANCED_FACE('',(#121),#65,.T.);
#1306=ADVANCED_FACE('',(#122),#26,.F.);
#1307=ADVANCED_FACE('',(#123),#66,.T.);
#1308=ADVANCED_FACE('',(#124),#27,.F.);
#1309=ADVANCED_FACE('',(#125),#67,.T.);
#1310=ADVANCED_FACE('',(#126),#28,.F.);
#1311=ADVANCED_FACE('',(#127),#68,.T.);
#1312=ADVANCED_FACE('',(#128),#29,.F.);
#1313=ADVANCED_FACE('',(#129,#47,#48,#49,#50,#51),#69,.F.);
#1314=ADVANCED_FACE('',(#130),#70,.F.);
#1315=ADVANCED_FACE('',(#131),#71,.F.);
#1316=ADVANCED_FACE('',(#132),#30,.T.);
#1317=ADVANCED_FACE('',(#133),#72,.T.);
#1318=ADVANCED_FACE('',(#134),#31,.T.);
#1319=ADVANCED_FACE('',(#135),#73,.T.);
#1320=ADVANCED_FACE('',(#136),#74,.T.);
#1321=ADVANCED_FACE('',(#137),#32,.T.);
#1322=ADVANCED_FACE('',(#138),#75,.T.);
#1323=ADVANCED_FACE('',(#139),#33,.T.);
#1324=ADVANCED_FACE('',(#140),#76,.T.);
#1325=ADVANCED_FACE('',(#141),#34,.T.);
#1326=ADVANCED_FACE('',(#142),#77,.T.);
#1327=ADVANCED_FACE('',(#143),#35,.T.);
#1328=ADVANCED_FACE('',(#144),#78,.T.);
#1329=ADVANCED_FACE('',(#145),#36,.T.);
#1330=ADVANCED_FACE('',(#146),#37,.T.);
#1331=ADVANCED_FACE('',(#147),#79,.T.);
#1332=ADVANCED_FACE('',(#148),#80,.T.);
#1333=ADVANCED_FACE('',(#149),#81,.T.);
#1334=ADVANCED_FACE('',(#150),#82,.T.);
#1335=ADVANCED_FACE('',(#151),#83,.T.);
#1336=ADVANCED_FACE('',(#152),#84,.T.);
#1337=ADVANCED_FACE('',(#153),#38,.T.);
#1338=ADVANCED_FACE('',(#154),#85,.T.);
#1339=ADVANCED_FACE('',(#155),#39,.T.);
#1340=ADVANCED_FACE('',(#156),#86,.T.);
#1341=ADVANCED_FACE('',(#157),#40,.T.);
#1342=ADVANCED_FACE('',(#158),#87,.T.);
#1343=ADVANCED_FACE('',(#159),#88,.T.);
#1344=ADVANCED_FACE('',(#160),#89,.T.);
#1345=ADVANCED_FACE('',(#161),#90,.T.);
#1346=ADVANCED_FACE('',(#162),#41,.T.);
#1347=ADVANCED_FACE('',(#163),#91,.T.);
#1348=ADVANCED_FACE('',(#164),#92,.T.);
#1349=CLOSED_SHELL('',(#1277,#1278,#1279,#1280,#1281,#1282,#1283,#1284,
#1285,#1286,#1287,#1288,#1289,#1290,#1291,#1292,#1293,#1294,#1295,#1296,
#1297,#1298,#1299,#1300,#1301,#1302,#1303,#1304,#1305,#1306,#1307,#1308,
#1309,#1310,#1311,#1312,#1313,#1314,#1315,#1316,#1317,#1318,#1319,#1320,
#1321,#1322,#1323,#1324,#1325,#1326,#1327,#1328,#1329,#1330,#1331,#1332,
#1333,#1334,#1335,#1336,#1337,#1338,#1339,#1340,#1341,#1342,#1343,#1344,
#1345,#1346,#1347,#1348));
#1350=AXIS2_PLACEMENT_3D('',#1877,#1481,#1482);
#1351=AXIS2_PLACEMENT_3D('',#1878,#1483,#1484);
#1352=AXIS2_PLACEMENT_3D('',#1880,#1485,#1486);
#1353=AXIS2_PLACEMENT_3D('',#1883,#1488,#1489);
#1354=AXIS2_PLACEMENT_3D('',#1884,#1490,#1491);
#1355=AXIS2_PLACEMENT_3D('',#1889,#1493,#1494);
#1356=AXIS2_PLACEMENT_3D('',#1893,#1496,#1497);
#1357=AXIS2_PLACEMENT_3D('',#1897,#1499,#1500);
#1358=AXIS2_PLACEMENT_3D('',#1900,#1502,#1503);
#1359=AXIS2_PLACEMENT_3D('',#1902,#1504,#1505);
#1360=AXIS2_PLACEMENT_3D('',#1904,#1506,#1507);
#1361=AXIS2_PLACEMENT_3D('',#1906,#1508,#1509);
#1362=AXIS2_PLACEMENT_3D('',#1907,#1510,#1511);
#1363=AXIS2_PLACEMENT_3D('',#1910,#1513,#1514);
#1364=AXIS2_PLACEMENT_3D('',#1911,#1515,#1516);
#1365=AXIS2_PLACEMENT_3D('',#1914,#1518,#1519);
#1366=AXIS2_PLACEMENT_3D('',#1915,#1520,#1521);
#1367=AXIS2_PLACEMENT_3D('',#1918,#1523,#1524);
#1368=AXIS2_PLACEMENT_3D('',#1919,#1525,#1526);
#1369=AXIS2_PLACEMENT_3D('',#1922,#1528,#1529);
#1370=AXIS2_PLACEMENT_3D('',#1923,#1530,#1531);
#1371=AXIS2_PLACEMENT_3D('',#1926,#1533,#1534);
#1372=AXIS2_PLACEMENT_3D('',#1927,#1535,#1536);
#1373=AXIS2_PLACEMENT_3D('',#1930,#1538,#1539);
#1374=AXIS2_PLACEMENT_3D('',#1931,#1540,#1541);
#1375=AXIS2_PLACEMENT_3D('',#1934,#1543,#1544);
#1376=AXIS2_PLACEMENT_3D('',#1935,#1545,#1546);
#1377=AXIS2_PLACEMENT_3D('',#1944,#1551,#1552);
#1378=AXIS2_PLACEMENT_3D('',#1948,#1555,#1556);
#1379=AXIS2_PLACEMENT_3D('',#1952,#1558,#1559);
#1380=AXIS2_PLACEMENT_3D('',#1956,#1561,#1562);
#1381=AXIS2_PLACEMENT_3D('',#1960,#1564,#1565);
#1382=AXIS2_PLACEMENT_3D('',#1968,#1569,#1570);
#1383=AXIS2_PLACEMENT_3D('',#1978,#1576,#1577);
#1384=AXIS2_PLACEMENT_3D('',#1984,#1581,#1582);
#1385=AXIS2_PLACEMENT_3D('',#1988,#1585,#1586);
#1386=AXIS2_PLACEMENT_3D('',#1991,#1587,#1588);
#1387=AXIS2_PLACEMENT_3D('',#1995,#1590,#1591);
#1388=AXIS2_PLACEMENT_3D('',#1997,#1593,#1594);
#1389=AXIS2_PLACEMENT_3D('',#2001,#1596,#1597);
#1390=AXIS2_PLACEMENT_3D('',#2005,#1599,#1600);
#1391=AXIS2_PLACEMENT_3D('',#2009,#1602,#1603);
#1392=AXIS2_PLACEMENT_3D('',#2013,#1605,#1606);
#1393=AXIS2_PLACEMENT_3D('',#2017,#1608,#1609);
#1394=AXIS2_PLACEMENT_3D('',#2021,#1611,#1612);
#1395=AXIS2_PLACEMENT_3D('',#2025,#1614,#1615);
#1396=AXIS2_PLACEMENT_3D('',#2029,#1617,#1618);
#1397=AXIS2_PLACEMENT_3D('',#2033,#1620,#1621);
#1398=AXIS2_PLACEMENT_3D('',#2037,#1623,#1624);
#1399=AXIS2_PLACEMENT_3D('',#2041,#1626,#1627);
#1400=AXIS2_PLACEMENT_3D('',#2045,#1629,#1630);
#1401=AXIS2_PLACEMENT_3D('',#2049,#1632,#1633);
#1402=AXIS2_PLACEMENT_3D('',#2053,#1635,#1636);
#1403=AXIS2_PLACEMENT_3D('',#2055,#1638,#1639);
#1404=AXIS2_PLACEMENT_3D('',#2059,#1642,#1643);
#1405=AXIS2_PLACEMENT_3D('',#2063,#1645,#1646);
#1406=AXIS2_PLACEMENT_3D('',#2065,#1648,#1649);
#1407=AXIS2_PLACEMENT_3D('',#2069,#1652,#1653);
#1408=AXIS2_PLACEMENT_3D('',#2072,#1655,#1656);
#1409=AXIS2_PLACEMENT_3D('',#2073,#1657,#1658);
#1410=AXIS2_PLACEMENT_3D('',#2077,#1661,#1662);
#1411=AXIS2_PLACEMENT_3D('',#2081,#1664,#1665);
#1412=AXIS2_PLACEMENT_3D('',#2083,#1667,#1668);
#1413=AXIS2_PLACEMENT_3D('',#2087,#1671,#1672);
#1414=AXIS2_PLACEMENT_3D('',#2090,#1674,#1675);
#1415=AXIS2_PLACEMENT_3D('',#2091,#1676,#1677);
#1416=AXIS2_PLACEMENT_3D('',#2095,#1680,#1681);
#1417=AXIS2_PLACEMENT_3D('',#2098,#1683,#1684);
#1418=AXIS2_PLACEMENT_3D('',#2099,#1685,#1686);
#1419=AXIS2_PLACEMENT_3D('',#2103,#1689,#1690);
#1420=AXIS2_PLACEMENT_3D('',#2106,#1692,#1693);
#1421=AXIS2_PLACEMENT_3D('',#2107,#1694,#1695);
#1422=AXIS2_PLACEMENT_3D('',#2111,#1698,#1699);
#1423=AXIS2_PLACEMENT_3D('',#2115,#1701,#1702);
#1424=AXIS2_PLACEMENT_3D('',#2117,#1704,#1705);
#1425=AXIS2_PLACEMENT_3D('',#2121,#1708,#1709);
#1426=AXIS2_PLACEMENT_3D('',#2124,#1711,#1712);
#1427=AXIS2_PLACEMENT_3D('',#2125,#1713,#1714);
#1428=AXIS2_PLACEMENT_3D('',#2129,#1717,#1718);
#1429=AXIS2_PLACEMENT_3D('',#2132,#1720,#1721);
#1430=AXIS2_PLACEMENT_3D('',#2133,#1722,#1723);
#1431=AXIS2_PLACEMENT_3D('',#2137,#1726,#1727);
#1432=AXIS2_PLACEMENT_3D('',#2139,#1728,#1729);
#1433=AXIS2_PLACEMENT_3D('',#2141,#1731,#1732);
#1434=AXIS2_PLACEMENT_3D('',#2151,#1737,#1738);
#1435=AXIS2_PLACEMENT_3D('',#2154,#1740,#1741);
#1436=AXIS2_PLACEMENT_3D('',#2159,#1744,#1745);
#1437=AXIS2_PLACEMENT_3D('',#2162,#1747,#1748);
#1438=AXIS2_PLACEMENT_3D('',#2164,#1750,#1751);
#1439=AXIS2_PLACEMENT_3D('',#2168,#1753,#1754);
#1440=AXIS2_PLACEMENT_3D('',#2173,#1757,#1758);
#1441=AXIS2_PLACEMENT_3D('',#2175,#1760,#1761);
#1442=AXIS2_PLACEMENT_3D('',#2181,#1764,#1765);
#1443=AXIS2_PLACEMENT_3D('',#2185,#1767,#1768);
#1444=AXIS2_PLACEMENT_3D('',#2189,#1770,#1771);
#1445=AXIS2_PLACEMENT_3D('',#2196,#1775,#1776);
#1446=AXIS2_PLACEMENT_3D('',#2200,#1778,#1779);
#1447=AXIS2_PLACEMENT_3D('',#2204,#1781,#1782);
#1448=AXIS2_PLACEMENT_3D('',#2206,#1784,#1785);
#1449=AXIS2_PLACEMENT_3D('',#2208,#1787,#1788);
#1450=AXIS2_PLACEMENT_3D('',#2209,#1789,#1790);
#1451=AXIS2_PLACEMENT_3D('',#2211,#1792,#1793);
#1452=AXIS2_PLACEMENT_3D('',#2212,#1794,#1795);
#1453=AXIS2_PLACEMENT_3D('',#2214,#1797,#1798);
#1454=AXIS2_PLACEMENT_3D('',#2216,#1800,#1801);
#1455=AXIS2_PLACEMENT_3D('',#2217,#1802,#1803);
#1456=AXIS2_PLACEMENT_3D('',#2219,#1805,#1806);
#1457=AXIS2_PLACEMENT_3D('',#2220,#1807,#1808);
#1458=AXIS2_PLACEMENT_3D('',#2223,#1811,#1812);
#1459=AXIS2_PLACEMENT_3D('',#2225,#1814,#1815);
#1460=AXIS2_PLACEMENT_3D('',#2227,#1817,#1818);
#1461=AXIS2_PLACEMENT_3D('',#2229,#1820,#1821);
#1462=AXIS2_PLACEMENT_3D('',#2231,#1823,#1824);
#1463=AXIS2_PLACEMENT_3D('',#2234,#1827,#1828);
#1464=AXIS2_PLACEMENT_3D('',#2237,#1831,#1832);
#1465=AXIS2_PLACEMENT_3D('',#2239,#1834,#1835);
#1466=AXIS2_PLACEMENT_3D('',#2241,#1837,#1838);
#1467=AXIS2_PLACEMENT_3D('',#2242,#1839,#1840);
#1468=AXIS2_PLACEMENT_3D('',#2244,#1842,#1843);
#1469=AXIS2_PLACEMENT_3D('',#2246,#1845,#1846);
#1470=AXIS2_PLACEMENT_3D('',#2248,#1848,#1849);
#1471=AXIS2_PLACEMENT_3D('',#2250,#1851,#1852);
#1472=AXIS2_PLACEMENT_3D('',#2252,#1854,#1855);
#1473=AXIS2_PLACEMENT_3D('',#2254,#1857,#1858);
#1474=AXIS2_PLACEMENT_3D('',#2256,#1860,#1861);
#1475=AXIS2_PLACEMENT_3D('',#2258,#1863,#1864);
#1476=AXIS2_PLACEMENT_3D('',#2259,#1865,#1866);
#1477=AXIS2_PLACEMENT_3D('',#2260,#1867,#1868);
#1478=AXIS2_PLACEMENT_3D('',#2262,#1870,#1871);
#1479=AXIS2_PLACEMENT_3D('',#2264,#1873,#1874);
#1480=AXIS2_PLACEMENT_3D('',#2265,#1875,#1876);
#1481=DIRECTION('axis',(0.,0.,1.));
#1482=DIRECTION('refdir',(1.,0.,0.));
#1483=DIRECTION('center_axis',(0.,0.,-1.));
#1484=DIRECTION('ref_axis',(1.,0.,0.));
#1485=DIRECTION('center_axis',(0.,0.,-1.));
#1486=DIRECTION('ref_axis',(1.,0.,0.));
#1487=DIRECTION('',(0.707106781186547,-8.65956056235492E-17,0.707106781186548));
#1488=DIRECTION('center_axis',(0.,0.,1.));
#1489=DIRECTION('ref_axis',(1.,0.,0.));
#1490=DIRECTION('center_axis',(0.,0.,-1.));
#1491=DIRECTION('ref_axis',(-1.,0.,0.));
#1492=DIRECTION('',(1.,0.,0.));
#1493=DIRECTION('center_axis',(0.,0.,-1.));
#1494=DIRECTION('ref_axis',(-5.92118946466756E-15,1.,0.));
#1495=DIRECTION('',(0.,-1.,0.));
#1496=DIRECTION('center_axis',(0.,0.,-1.));
#1497=DIRECTION('ref_axis',(1.,1.18423789293351E-14,0.));
#1498=DIRECTION('',(-1.,0.,0.));
#1499=DIRECTION('center_axis',(0.,0.,-1.));
#1500=DIRECTION('ref_axis',(5.92118946466756E-15,-1.,0.));
#1501=DIRECTION('',(0.,1.,0.));
#1502=DIRECTION('center_axis',(0.,0.,-1.));
#1503=DIRECTION('ref_axis',(-1.,-8.88178419700128E-15,0.));
#1504=DIRECTION('center_axis',(0.,0.,-1.));
#1505=DIRECTION('ref_axis',(1.,0.,0.));
#1506=DIRECTION('center_axis',(0.,0.,-1.));
#1507=DIRECTION('ref_axis',(1.,0.,0.));
#1508=DIRECTION('center_axis',(0.,0.,-1.));
#1509=DIRECTION('ref_axis',(1.,0.,0.));
#1510=DIRECTION('center_axis',(0.,0.,-1.));
#1511=DIRECTION('ref_axis',(1.,0.,0.));
#1512=DIRECTION('',(0.,0.,1.));
#1513=DIRECTION('center_axis',(0.,0.,-1.));
#1514=DIRECTION('ref_axis',(1.,0.,0.));
#1515=DIRECTION('center_axis',(0.,0.,-1.));
#1516=DIRECTION('ref_axis',(1.,0.,0.));
#1517=DIRECTION('',(0.707106781186548,-8.65956056235494E-17,0.707106781186547));
#1518=DIRECTION('center_axis',(0.,0.,1.));
#1519=DIRECTION('ref_axis',(1.,0.,0.));
#1520=DIRECTION('center_axis',(0.,0.,-1.));
#1521=DIRECTION('ref_axis',(1.,0.,0.));
#1522=DIRECTION('',(0.,0.,1.));
#1523=DIRECTION('center_axis',(0.,0.,-1.));
#1524=DIRECTION('ref_axis',(1.,0.,0.));
#1525=DIRECTION('center_axis',(0.,0.,-1.));
#1526=DIRECTION('ref_axis',(1.,0.,0.));
#1527=DIRECTION('',(0.707106781186547,-8.65956056235492E-17,0.707106781186548));
#1528=DIRECTION('center_axis',(0.,0.,1.));
#1529=DIRECTION('ref_axis',(1.,0.,0.));
#1530=DIRECTION('center_axis',(0.,0.,-1.));
#1531=DIRECTION('ref_axis',(1.,0.,0.));
#1532=DIRECTION('',(0.,0.,1.));
#1533=DIRECTION('center_axis',(0.,0.,-1.));
#1534=DIRECTION('ref_axis',(1.,0.,0.));
#1535=DIRECTION('center_axis',(0.,0.,-1.));
#1536=DIRECTION('ref_axis',(1.,0.,0.));
#1537=DIRECTION('',(0.707106781186547,-8.65956056235492E-17,0.707106781186548));
#1538=DIRECTION('center_axis',(0.,0.,1.));
#1539=DIRECTION('ref_axis',(1.,0.,0.));
#1540=DIRECTION('center_axis',(0.,0.,-1.));
#1541=DIRECTION('ref_axis',(1.,0.,0.));
#1542=DIRECTION('',(0.,0.,1.));
#1543=DIRECTION('center_axis',(0.,0.,-1.));
#1544=DIRECTION('ref_axis',(1.,0.,0.));
#1545=DIRECTION('center_axis',(-0.729537204140084,0.,0.683941128881331));
#1546=DIRECTION('ref_axis',(0.683941128881331,0.,0.729537204140084));
#1547=DIRECTION('',(0.683941128881331,0.,0.729537204140084));
#1548=DIRECTION('',(0.,1.,0.));
#1549=DIRECTION('',(-0.683941128881331,0.,-0.729537204140084));
#1550=DIRECTION('',(0.,-1.,0.));
#1551=DIRECTION('center_axis',(0.,1.,0.));
#1552=DIRECTION('ref_axis',(-1.,0.,0.));
#1553=DIRECTION('',(0.,0.,1.));
#1554=DIRECTION('',(-1.,0.,0.));
#1555=DIRECTION('center_axis',(0.,0.,-1.));
#1556=DIRECTION('ref_axis',(1.,0.,0.));
#1557=DIRECTION('',(0.,-1.,0.));
#1558=DIRECTION('center_axis',(0.,0.,1.));
#1559=DIRECTION('ref_axis',(-1.18423789293348E-14,-1.,0.));
#1560=DIRECTION('',(1.,0.,0.));
#1561=DIRECTION('center_axis',(0.,0.,1.));
#1562=DIRECTION('ref_axis',(1.,-1.18423789293348E-14,0.));
#1563=DIRECTION('',(0.,1.,0.));
#1564=DIRECTION('center_axis',(0.,0.,1.));
#1565=DIRECTION('ref_axis',(1.18423789293348E-14,1.,0.));
#1566=DIRECTION('',(-1.,0.,0.));
#1567=DIRECTION('',(1.,0.,0.));
#1568=DIRECTION('',(-1.,0.,0.));
#1569=DIRECTION('center_axis',(0.,0.,1.));
#1570=DIRECTION('ref_axis',(-1.,1.18423789293348E-14,0.));
#1571=DIRECTION('',(0.,-1.,0.));
#1572=DIRECTION('',(0.,1.,0.));
#1573=DIRECTION('',(1.,0.,0.));
#1574=DIRECTION('',(0.,-1.,0.));
#1575=DIRECTION('',(-1.,0.,0.));
#1576=DIRECTION('center_axis',(0.,0.729537204140084,0.683941128881331));
#1577=DIRECTION('ref_axis',(1.,0.,0.));
#1578=DIRECTION('',(0.,-0.683941128881331,0.729537204140084));
#1579=DIRECTION('',(0.,0.683941128881331,-0.729537204140084));
#1580=DIRECTION('',(-1.,0.,0.));
#1581=DIRECTION('center_axis',(-1.,0.,0.));
#1582=DIRECTION('ref_axis',(0.,-1.,0.));
#1583=DIRECTION('',(0.,-1.,0.));
#1584=DIRECTION('',(0.,0.,1.));
#1585=DIRECTION('center_axis',(0.,0.,-1.));
#1586=DIRECTION('ref_axis',(-0.707106781186546,-0.707106781186549,0.));
#1587=DIRECTION('center_axis',(0.,0.,1.));
#1588=DIRECTION('ref_axis',(-0.707106781186546,-0.707106781186549,0.));
#1589=DIRECTION('',(0.,0.,1.));
#1590=DIRECTION('center_axis',(0.,0.,1.));
#1591=DIRECTION('ref_axis',(-0.707106781186546,-0.707106781186549,0.));
#1592=DIRECTION('',(0.,0.,-1.));
#1593=DIRECTION('center_axis',(0.,0.,-1.));
#1594=DIRECTION('ref_axis',(-1.,0.,0.));
#1595=DIRECTION('',(1.,0.,0.));
#1596=DIRECTION('center_axis',(0.,0.,1.));
#1597=DIRECTION('ref_axis',(0.707106781186548,-0.707106781186548,0.));
#1598=DIRECTION('',(0.,1.,0.));
#1599=DIRECTION('center_axis',(0.,0.,-1.));
#1600=DIRECTION('ref_axis',(1.,0.,0.));
#1601=DIRECTION('',(0.,-1.,0.));
#1602=DIRECTION('center_axis',(0.,0.,1.));
#1603=DIRECTION('ref_axis',(-0.707106781186546,-0.707106781186549,0.));
#1604=DIRECTION('',(1.,0.,0.));
#1605=DIRECTION('center_axis',(0.,0.,1.));
#1606=DIRECTION('ref_axis',(0.707106781186546,-0.707106781186549,0.));
#1607=DIRECTION('',(0.,1.,0.));
#1608=DIRECTION('center_axis',(0.,0.,1.));
#1609=DIRECTION('ref_axis',(0.707106781186547,0.707106781186548,0.));
#1610=DIRECTION('',(-1.,0.,0.));
#1611=DIRECTION('center_axis',(0.,0.,-1.));
#1612=DIRECTION('ref_axis',(1.,0.,0.));
#1613=DIRECTION('',(1.,0.,0.));
#1614=DIRECTION('center_axis',(0.,0.,1.));
#1615=DIRECTION('ref_axis',(0.707106781186549,-0.707106781186546,0.));
#1616=DIRECTION('',(0.,1.,0.));
#1617=DIRECTION('center_axis',(0.,0.,1.));
#1618=DIRECTION('ref_axis',(0.707106781186549,0.707106781186546,0.));
#1619=DIRECTION('',(-1.,0.,0.));
#1620=DIRECTION('center_axis',(0.,0.,1.));
#1621=DIRECTION('ref_axis',(-0.707106781186549,0.707106781186546,0.));
#1622=DIRECTION('',(0.,-1.,0.));
#1623=DIRECTION('center_axis',(0.,0.,1.));
#1624=DIRECTION('ref_axis',(-0.707106781186546,-0.707106781186549,0.));
#1625=DIRECTION('',(1.,0.,0.));
#1626=DIRECTION('center_axis',(0.,0.,-1.));
#1627=DIRECTION('ref_axis',(1.,0.,0.));
#1628=DIRECTION('',(-1.,0.,0.));
#1629=DIRECTION('center_axis',(0.,0.,1.));
#1630=DIRECTION('ref_axis',(-0.707106781186546,0.707106781186549,0.));
#1631=DIRECTION('',(0.,-1.,0.));
#1632=DIRECTION('center_axis',(0.,0.,1.));
#1633=DIRECTION('ref_axis',(-0.707106781186546,-0.707106781186549,0.));
#1634=DIRECTION('',(1.,0.,0.));
#1635=DIRECTION('center_axis',(0.,0.,-1.));
#1636=DIRECTION('ref_axis',(1.,0.,0.));
#1637=DIRECTION('',(0.,-1.,0.));
#1638=DIRECTION('center_axis',(0.,1.,0.));
#1639=DIRECTION('ref_axis',(1.,0.,0.));
#1640=DIRECTION('',(1.,0.,0.));
#1641=DIRECTION('',(0.,0.,1.));
#1642=DIRECTION('center_axis',(0.,0.,-1.));
#1643=DIRECTION('ref_axis',(-0.707106781186546,-0.707106781186549,0.));
#1644=DIRECTION('',(0.,0.,1.));
#1645=DIRECTION('center_axis',(0.,0.,1.));
#1646=DIRECTION('ref_axis',(-0.707106781186546,-0.707106781186549,0.));
#1647=DIRECTION('',(0.,0.,-1.));
#1648=DIRECTION('center_axis',(1.,0.,0.));
#1649=DIRECTION('ref_axis',(0.,-1.,0.));
#1650=DIRECTION('',(0.,0.,-1.));
#1651=DIRECTION('',(0.,-1.,0.));
#1652=DIRECTION('center_axis',(0.,0.,-1.));
#1653=DIRECTION('ref_axis',(-0.707106781186546,0.707106781186549,0.));
#1654=DIRECTION('',(0.,0.,1.));
#1655=DIRECTION('center_axis',(0.,0.,1.));
#1656=DIRECTION('ref_axis',(-0.707106781186546,0.707106781186549,0.));
#1657=DIRECTION('center_axis',(0.,-1.,0.));
#1658=DIRECTION('ref_axis',(-1.,0.,0.));
#1659=DIRECTION('',(0.,0.,-1.));
#1660=DIRECTION('',(-1.,0.,0.));
#1661=DIRECTION('center_axis',(0.,0.,-1.));
#1662=DIRECTION('ref_axis',(-0.707106781186546,-0.707106781186549,0.));
#1663=DIRECTION('',(0.,0.,1.));
#1664=DIRECTION('center_axis',(0.,0.,1.));
#1665=DIRECTION('ref_axis',(-0.707106781186546,-0.707106781186549,0.));
#1666=DIRECTION('',(0.,0.,-1.));
#1667=DIRECTION('center_axis',(1.,0.,0.));
#1668=DIRECTION('ref_axis',(0.,-1.,0.));
#1669=DIRECTION('',(0.,0.,-1.));
#1670=DIRECTION('',(0.,-1.,0.));
#1671=DIRECTION('center_axis',(0.,0.,-1.));
#1672=DIRECTION('ref_axis',(-0.707106781186549,0.707106781186546,0.));
#1673=DIRECTION('',(0.,0.,1.));
#1674=DIRECTION('center_axis',(0.,0.,1.));
#1675=DIRECTION('ref_axis',(-0.707106781186549,0.707106781186546,0.));
#1676=DIRECTION('center_axis',(0.,-1.,0.));
#1677=DIRECTION('ref_axis',(-1.,0.,0.));
#1678=DIRECTION('',(0.,0.,-1.));
#1679=DIRECTION('',(-1.,0.,0.));
#1680=DIRECTION('center_axis',(0.,0.,-1.));
#1681=DIRECTION('ref_axis',(0.707106781186549,0.707106781186546,0.));
#1682=DIRECTION('',(0.,0.,1.));
#1683=DIRECTION('center_axis',(0.,0.,1.));
#1684=DIRECTION('ref_axis',(0.707106781186549,0.707106781186546,0.));
#1685=DIRECTION('center_axis',(-1.,0.,0.));
#1686=DIRECTION('ref_axis',(0.,1.,0.));
#1687=DIRECTION('',(0.,0.,-1.));
#1688=DIRECTION('',(0.,1.,0.));
#1689=DIRECTION('center_axis',(0.,0.,-1.));
#1690=DIRECTION('ref_axis',(0.707106781186549,-0.707106781186546,0.));
#1691=DIRECTION('',(0.,0.,1.));
#1692=DIRECTION('center_axis',(0.,0.,1.));
#1693=DIRECTION('ref_axis',(0.707106781186549,-0.707106781186546,0.));
#1694=DIRECTION('center_axis',(0.,1.,0.));
#1695=DIRECTION('ref_axis',(1.,0.,0.));
#1696=DIRECTION('',(0.,0.,-1.));
#1697=DIRECTION('',(1.,0.,0.));
#1698=DIRECTION('center_axis',(0.,0.,-1.));
#1699=DIRECTION('ref_axis',(0.707106781186547,0.707106781186548,0.));
#1700=DIRECTION('',(0.,0.,1.));
#1701=DIRECTION('center_axis',(0.,0.,1.));
#1702=DIRECTION('ref_axis',(0.707106781186547,0.707106781186548,0.));
#1703=DIRECTION('',(0.,0.,-1.));
#1704=DIRECTION('center_axis',(-1.,0.,0.));
#1705=DIRECTION('ref_axis',(0.,1.,0.));
#1706=DIRECTION('',(0.,0.,-1.));
#1707=DIRECTION('',(0.,1.,0.));
#1708=DIRECTION('center_axis',(0.,0.,-1.));
#1709=DIRECTION('ref_axis',(0.707106781186546,-0.707106781186549,0.));
#1710=DIRECTION('',(0.,0.,1.));
#1711=DIRECTION('center_axis',(0.,0.,1.));
#1712=DIRECTION('ref_axis',(0.707106781186546,-0.707106781186549,0.));
#1713=DIRECTION('center_axis',(0.,1.,0.));
#1714=DIRECTION('ref_axis',(1.,0.,0.));
#1715=DIRECTION('',(0.,0.,-1.));
#1716=DIRECTION('',(1.,0.,0.));
#1717=DIRECTION('center_axis',(0.,0.,-1.));
#1718=DIRECTION('ref_axis',(-0.707106781186546,-0.707106781186549,0.));
#1719=DIRECTION('',(0.,0.,1.));
#1720=DIRECTION('center_axis',(0.,0.,1.));
#1721=DIRECTION('ref_axis',(-0.707106781186546,-0.707106781186549,0.));
#1722=DIRECTION('center_axis',(1.,0.,0.));
#1723=DIRECTION('ref_axis',(0.,-1.,0.));
#1724=DIRECTION('',(0.,0.,-1.));
#1725=DIRECTION('',(0.,-1.,0.));
#1726=DIRECTION('center_axis',(0.,0.,-1.));
#1727=DIRECTION('ref_axis',(0.707106781186548,-0.707106781186548,0.));
#1728=DIRECTION('center_axis',(0.,0.,1.));
#1729=DIRECTION('ref_axis',(0.707106781186548,-0.707106781186548,0.));
#1730=DIRECTION('',(0.,0.,-1.));
#1731=DIRECTION('center_axis',(0.,0.,-1.));
#1732=DIRECTION('ref_axis',(1.,0.,0.));
#1733=DIRECTION('',(1.,0.,0.));
#1734=DIRECTION('',(0.,1.,0.));
#1735=DIRECTION('',(-1.,0.,0.));
#1736=DIRECTION('',(0.,-1.,0.));
#1737=DIRECTION('center_axis',(0.,0.,-1.));
#1738=DIRECTION('ref_axis',(1.,0.,0.));
#1739=DIRECTION('',(-1.,0.,0.));
#1740=DIRECTION('center_axis',(0.,0.,-1.));
#1741=DIRECTION('ref_axis',(1.,0.,0.));
#1742=DIRECTION('',(0.,1.,0.));
#1743=DIRECTION('',(0.,-1.,0.));
#1744=DIRECTION('center_axis',(0.,0.,-1.));
#1745=DIRECTION('ref_axis',(1.,0.,0.));
#1746=DIRECTION('',(1.,0.,0.));
#1747=DIRECTION('center_axis',(0.,0.,-1.));
#1748=DIRECTION('ref_axis',(1.,0.,0.));
#1749=DIRECTION('',(1.,0.,0.));
#1750=DIRECTION('center_axis',(0.,0.,-1.));
#1751=DIRECTION('ref_axis',(1.,0.,0.));
#1752=DIRECTION('',(0.,1.,0.));
#1753=DIRECTION('center_axis',(0.,0.,-1.));
#1754=DIRECTION('ref_axis',(-1.,1.18423789293348E-14,0.));
#1755=DIRECTION('',(1.,0.,0.));
#1756=DIRECTION('',(1.,0.,0.));
#1757=DIRECTION('center_axis',(0.,0.,-1.));
#1758=DIRECTION('ref_axis',(-1.,-8.88178419700128E-15,0.));
#1759=DIRECTION('',(0.,1.,0.));
#1760=DIRECTION('center_axis',(0.,0.,-1.));
#1761=DIRECTION('ref_axis',(1.,0.,0.));
#1762=DIRECTION('',(-1.,0.,0.));
#1763=DIRECTION('',(0.,1.,0.));
#1764=DIRECTION('center_axis',(0.,0.,-1.));
#1765=DIRECTION('ref_axis',(5.92118946466756E-15,-1.,0.));
#1766=DIRECTION('',(-1.,0.,0.));
#1767=DIRECTION('center_axis',(0.,0.,-1.));
#1768=DIRECTION('ref_axis',(1.,1.18423789293351E-14,0.));
#1769=DIRECTION('',(0.,-1.,0.));
#1770=DIRECTION('center_axis',(0.,0.,-1.));
#1771=DIRECTION('ref_axis',(-5.92118946466756E-15,1.,0.));
#1772=DIRECTION('',(1.,0.,0.));
#1773=DIRECTION('',(0.,-1.,0.));
#1774=DIRECTION('',(1.,0.,0.));
#1775=DIRECTION('center_axis',(0.,0.,-1.));
#1776=DIRECTION('ref_axis',(1.18423789293348E-14,1.,0.));
#1777=DIRECTION('',(0.,-1.,0.));
#1778=DIRECTION('center_axis',(0.,0.,-1.));
#1779=DIRECTION('ref_axis',(1.,-1.18423789293348E-14,0.));
#1780=DIRECTION('',(-1.,0.,0.));
#1781=DIRECTION('center_axis',(0.,0.,-1.));
#1782=DIRECTION('ref_axis',(-1.18423789293348E-14,-1.,0.));
#1783=DIRECTION('',(0.,1.,0.));
#1784=DIRECTION('center_axis',(0.,0.,-1.));
#1785=DIRECTION('ref_axis',(-1.,-1.22464679914735E-16,0.));
#1786=DIRECTION('',(0.,0.,-1.));
#1787=DIRECTION('center_axis',(0.,-1.,0.));
#1788=DIRECTION('ref_axis',(-1.,0.,0.));
#1789=DIRECTION('center_axis',(0.,0.,-1.));
#1790=DIRECTION('ref_axis',(1.,0.,0.));
#1791=DIRECTION('',(0.,0.,-1.));
#1792=DIRECTION('center_axis',(-1.,0.,0.));
#1793=DIRECTION('ref_axis',(0.,1.,0.));
#1794=DIRECTION('center_axis',(1.,0.,0.));
#1795=DIRECTION('ref_axis',(0.,-1.,0.));
#1796=DIRECTION('',(0.,0.,-1.));
#1797=DIRECTION('center_axis',(0.,0.,-1.));
#1798=DIRECTION('ref_axis',(1.,0.,0.));
#1799=DIRECTION('',(0.,0.,-1.));
#1800=DIRECTION('center_axis',(0.,1.,0.));
#1801=DIRECTION('ref_axis',(1.,0.,0.));
#1802=DIRECTION('center_axis',(0.,0.,-1.));
#1803=DIRECTION('ref_axis',(1.,0.,0.));
#1804=DIRECTION('',(0.,0.,-1.));
#1805=DIRECTION('center_axis',(0.,1.,0.));
#1806=DIRECTION('ref_axis',(1.,0.,0.));
#1807=DIRECTION('center_axis',(0.,0.,-1.));
#1808=DIRECTION('ref_axis',(5.92118946466756E-15,-1.,0.));
#1809=DIRECTION('',(0.,0.,-1.));
#1810=DIRECTION('',(0.,0.,-1.));
#1811=DIRECTION('center_axis',(0.,-1.,0.));
#1812=DIRECTION('ref_axis',(-1.,0.,0.));
#1813=DIRECTION('',(0.,0.,-1.));
#1814=DIRECTION('center_axis',(0.,0.,-1.));
#1815=DIRECTION('ref_axis',(1.,1.18423789293351E-14,0.));
#1816=DIRECTION('',(0.,0.,-1.));
#1817=DIRECTION('center_axis',(1.,0.,0.));
#1818=DIRECTION('ref_axis',(0.,-1.,0.));
#1819=DIRECTION('',(0.,0.,-1.));
#1820=DIRECTION('center_axis',(0.,0.,-1.));
#1821=DIRECTION('ref_axis',(-5.92118946466756E-15,1.,0.));
#1822=DIRECTION('',(0.,0.,-1.));
#1823=DIRECTION('center_axis',(0.,0.,-1.));
#1824=DIRECTION('ref_axis',(-1.,-8.88178419700128E-15,0.));
#1825=DIRECTION('',(0.,0.,-1.));
#1826=DIRECTION('',(0.,0.,-1.));
#1827=DIRECTION('center_axis',(0.,1.,0.));
#1828=DIRECTION('ref_axis',(-1.,0.,0.));
#1829=DIRECTION('',(0.,0.,1.));
#1830=DIRECTION('',(0.,0.,1.));
#1831=DIRECTION('center_axis',(-1.,0.,0.));
#1832=DIRECTION('ref_axis',(0.,-1.,0.));
#1833=DIRECTION('',(0.,0.,1.));
#1834=DIRECTION('center_axis',(0.,-1.,0.));
#1835=DIRECTION('ref_axis',(1.,0.,0.));
#1836=DIRECTION('',(0.,0.,1.));
#1837=DIRECTION('center_axis',(1.,0.,0.));
#1838=DIRECTION('ref_axis',(0.,1.,0.));
#1839=DIRECTION('center_axis',(1.,0.,0.));
#1840=DIRECTION('ref_axis',(0.,1.,0.));
#1841=DIRECTION('',(0.,0.,1.));
#1842=DIRECTION('center_axis',(0.,1.,0.));
#1843=DIRECTION('ref_axis',(-1.,0.,0.));
#1844=DIRECTION('',(0.,0.,1.));
#1845=DIRECTION('center_axis',(0.,0.,1.));
#1846=DIRECTION('ref_axis',(1.18423789293348E-14,1.,0.));
#1847=DIRECTION('',(0.,0.,1.));
#1848=DIRECTION('center_axis',(1.,0.,0.));
#1849=DIRECTION('ref_axis',(0.,1.,0.));
#1850=DIRECTION('',(0.,0.,1.));
#1851=DIRECTION('center_axis',(0.,0.,1.));
#1852=DIRECTION('ref_axis',(1.,-1.18423789293348E-14,0.));
#1853=DIRECTION('',(0.,0.,1.));
#1854=DIRECTION('center_axis',(0.,-1.,0.));
#1855=DIRECTION('ref_axis',(1.,0.,0.));
#1856=DIRECTION('',(0.,0.,1.));
#1857=DIRECTION('center_axis',(0.,0.,1.));
#1858=DIRECTION('ref_axis',(-1.18423789293348E-14,-1.,0.));
#1859=DIRECTION('',(0.,0.,1.));
#1860=DIRECTION('center_axis',(-1.,0.,0.));
#1861=DIRECTION('ref_axis',(0.,-1.,0.));
#1862=DIRECTION('',(0.,0.,1.));
#1863=DIRECTION('center_axis',(0.,-1.,0.));
#1864=DIRECTION('ref_axis',(1.,0.,0.));
#1865=DIRECTION('center_axis',(-1.,0.,0.));
#1866=DIRECTION('ref_axis',(0.,-1.,0.));
#1867=DIRECTION('center_axis',(-1.,0.,0.));
#1868=DIRECTION('ref_axis',(0.,-1.,0.));
#1869=DIRECTION('',(0.,0.,1.));
#1870=DIRECTION('center_axis',(0.,0.,1.));
#1871=DIRECTION('ref_axis',(-1.,1.18423789293348E-14,0.));
#1872=DIRECTION('',(0.,0.,1.));
#1873=DIRECTION('center_axis',(0.,1.,0.));
#1874=DIRECTION('ref_axis',(-1.,0.,0.));
#1875=DIRECTION('center_axis',(0.,1.,0.));
#1876=DIRECTION('ref_axis',(-1.,0.,0.));
#1877=CARTESIAN_POINT('',(0.,0.,0.));
#1878=CARTESIAN_POINT('Origin',(62.,19.375,-3.3));
#1879=CARTESIAN_POINT('',(58.95,19.375,-4.));
#1880=CARTESIAN_POINT('Origin',(62.,19.375,-4.));
#1881=CARTESIAN_POINT('',(60.35,19.375,-2.6));
#1882=CARTESIAN_POINT('',(59.65,19.375,-3.3));
#1883=CARTESIAN_POINT('Origin',(62.,19.375,-2.6));
#1884=CARTESIAN_POINT('Origin',(8.88178419700125E-15,0.,-4.));
#1885=CARTESIAN_POINT('',(-67.,43.375,-4.));
#1886=CARTESIAN_POINT('',(67.,43.375,-4.));
#1887=CARTESIAN_POINT('',(-33.5,43.375,-4.));
#1888=CARTESIAN_POINT('',(70.,40.375,-4.));
#1889=CARTESIAN_POINT('Origin',(67.,40.375,-4.));
#1890=CARTESIAN_POINT('',(70.,-40.375,-4.));
#1891=CARTESIAN_POINT('',(70.,20.1875,-4.));
#1892=CARTESIAN_POINT('',(67.,-43.375,-4.));
#1893=CARTESIAN_POINT('Origin',(67.,-40.375,-4.));
#1894=CARTESIAN_POINT('',(-67.,-43.375,-4.));
#1895=CARTESIAN_POINT('',(33.5,-43.375,-4.));
#1896=CARTESIAN_POINT('',(-70.,-40.375,-4.));
#1897=CARTESIAN_POINT('Origin',(-67.,-40.375,-4.));
#1898=CARTESIAN_POINT('',(-70.,40.375,-4.));
#1899=CARTESIAN_POINT('',(-70.,-20.1875,-4.));
#1900=CARTESIAN_POINT('Origin',(-67.,40.375,-4.));
#1901=CARTESIAN_POINT('',(33.45,-35.625,-4.));
#1902=CARTESIAN_POINT('Origin',(36.5,-35.625,-4.));
#1903=CARTESIAN_POINT('',(-65.3,-35.625,-4.));
#1904=CARTESIAN_POINT('Origin',(-62.25,-35.625,-4.));
#1905=CARTESIAN_POINT('',(-65.05,19.375,-4.));
#1906=CARTESIAN_POINT('Origin',(-62.,19.375,-4.));
#1907=CARTESIAN_POINT('Origin',(62.,19.375,0.));
#1908=CARTESIAN_POINT('',(60.35,19.375,0.));
#1909=CARTESIAN_POINT('',(60.35,19.375,0.));
#1910=CARTESIAN_POINT('Origin',(62.,19.375,0.));
#1911=CARTESIAN_POINT('Origin',(36.5,-35.625,-3.3));
#1912=CARTESIAN_POINT('',(34.85,-35.625,-2.6));
#1913=CARTESIAN_POINT('',(34.15,-35.625,-3.3));
#1914=CARTESIAN_POINT('Origin',(36.5,-35.625,-2.6));
#1915=CARTESIAN_POINT('Origin',(36.5,-35.625,0.));
#1916=CARTESIAN_POINT('',(34.85,-35.625,0.));
#1917=CARTESIAN_POINT('',(34.85,-35.625,0.));
#1918=CARTESIAN_POINT('Origin',(36.5,-35.625,0.));
#1919=CARTESIAN_POINT('Origin',(-62.,19.375,-3.3));
#1920=CARTESIAN_POINT('',(-63.65,19.375,-2.6));
#1921=CARTESIAN_POINT('',(-64.35,19.375,-3.3));
#1922=CARTESIAN_POINT('Origin',(-62.,19.375,-2.6));
#1923=CARTESIAN_POINT('Origin',(-62.,19.375,0.));
#1924=CARTESIAN_POINT('',(-63.65,19.375,0.));
#1925=CARTESIAN_POINT('',(-63.65,19.375,0.));
#1926=CARTESIAN_POINT('Origin',(-62.,19.375,0.));
#1927=CARTESIAN_POINT('Origin',(-62.25,-35.625,-3.3));
#1928=CARTESIAN_POINT('',(-63.9,-35.625,-2.6));
#1929=CARTESIAN_POINT('',(-64.6,-35.625,-3.3));
#1930=CARTESIAN_POINT('Origin',(-62.25,-35.625,-2.6));
#1931=CARTESIAN_POINT('Origin',(-62.25,-35.625,0.));
#1932=CARTESIAN_POINT('',(-63.9,-35.625,0.));
#1933=CARTESIAN_POINT('',(-63.9,-35.625,0.));
#1934=CARTESIAN_POINT('Origin',(-62.25,-35.625,0.));
#1935=CARTESIAN_POINT('Origin',(-69.25,7.1875,0.8));
#1936=CARTESIAN_POINT('',(-70.,-16.875,0.));
#1937=CARTESIAN_POINT('',(-68.5,-16.875,1.6));
#1938=CARTESIAN_POINT('',(-69.625,-16.875,0.4));
#1939=CARTESIAN_POINT('',(-68.5,13.625,1.6));
#1940=CARTESIAN_POINT('',(-68.5,7.1875,1.6));
#1941=CARTESIAN_POINT('',(-70.,13.625,0.));
#1942=CARTESIAN_POINT('',(-69.2741683991684,13.625,0.774220374220373));
#1943=CARTESIAN_POINT('',(-70.,7.1875,0.));
#1944=CARTESIAN_POINT('Origin',(-68.5,13.625,0.));
#1945=CARTESIAN_POINT('',(-68.5,13.625,0.));
#1946=CARTESIAN_POINT('',(-68.5,13.625,0.));
#1947=CARTESIAN_POINT('',(-67.,13.625,0.));
#1948=CARTESIAN_POINT('Origin',(-0.749999999999993,0.749999999999993,1.6));
#1949=CARTESIAN_POINT('',(-68.5,-40.375,1.6));
#1950=CARTESIAN_POINT('',(-68.5,-40.375,1.6));
#1951=CARTESIAN_POINT('',(-67.,-41.875,1.6));
#1952=CARTESIAN_POINT('Origin',(-67.,-40.375,1.6));
#1953=CARTESIAN_POINT('',(67.,-41.875,1.6));
#1954=CARTESIAN_POINT('',(67.,-41.875,1.6));
#1955=CARTESIAN_POINT('',(68.5,-40.375,1.6));
#1956=CARTESIAN_POINT('Origin',(67.,-40.375,1.6));
#1957=CARTESIAN_POINT('',(68.5,40.375,1.6));
#1958=CARTESIAN_POINT('',(68.5,40.375,1.6));
#1959=CARTESIAN_POINT('',(67.,41.875,1.6));
#1960=CARTESIAN_POINT('Origin',(67.,40.375,1.6));
#1961=CARTESIAN_POINT('',(66.8,41.875,1.6));
#1962=CARTESIAN_POINT('',(-67.,41.875,1.6));
#1963=CARTESIAN_POINT('',(-66.8,41.875,1.6));
#1964=CARTESIAN_POINT('',(33.025,41.875,1.6));
#1965=CARTESIAN_POINT('',(-67.,41.875,1.6));
#1966=CARTESIAN_POINT('',(-67.,41.875,1.6));
#1967=CARTESIAN_POINT('',(-68.5,40.375,1.6));
#1968=CARTESIAN_POINT('Origin',(-67.,40.375,1.6));
#1969=CARTESIAN_POINT('',(-68.5,-40.375,1.6));
#1970=CARTESIAN_POINT('',(-67.,-40.375,1.6));
#1971=CARTESIAN_POINT('',(-67.,40.375,1.6));
#1972=CARTESIAN_POINT('',(-67.,-40.375,1.6));
#1973=CARTESIAN_POINT('',(67.,40.375,1.6));
#1974=CARTESIAN_POINT('',(-67.,40.375,1.6));
#1975=CARTESIAN_POINT('',(67.,-40.375,1.6));
#1976=CARTESIAN_POINT('',(67.,40.375,1.6));
#1977=CARTESIAN_POINT('',(67.,-40.375,1.6));
#1978=CARTESIAN_POINT('Origin',(33.025,42.625,0.8));
#1979=CARTESIAN_POINT('',(-66.8,43.375,0.));
#1980=CARTESIAN_POINT('',(-66.8,43.,0.4));
#1981=CARTESIAN_POINT('',(66.8,43.375,0.));
#1982=CARTESIAN_POINT('',(66.8,42.6491683991684,0.774220374220373));
#1983=CARTESIAN_POINT('',(33.025,43.375,0.));
#1984=CARTESIAN_POINT('Origin',(-66.8,43.375,0.));
#1985=CARTESIAN_POINT('',(-66.8,41.875,0.));
#1986=CARTESIAN_POINT('',(-66.8,43.375,0.));
#1987=CARTESIAN_POINT('',(-66.8,41.875,0.));
#1988=CARTESIAN_POINT('Origin',(-56.250001,-35.875,0.));
#1989=CARTESIAN_POINT('',(-58.250001,-35.875,-2.));
#1990=CARTESIAN_POINT('',(-56.250001,-37.875,-2.));
#1991=CARTESIAN_POINT('Origin',(-56.250001,-35.875,-2.));
#1992=CARTESIAN_POINT('',(-58.250001,-35.875,0.));
#1993=CARTESIAN_POINT('',(-58.250001,-35.875,0.));
#1994=CARTESIAN_POINT('',(-56.250001,-37.875,0.));
#1995=CARTESIAN_POINT('Origin',(-56.250001,-35.875,0.));
#1996=CARTESIAN_POINT('',(-56.250001,-37.875,0.));
#1997=CARTESIAN_POINT('Origin',(8.88178419700125E-15,0.,-2.));
#1998=CARTESIAN_POINT('',(30.500001,-37.875,-2.));
#1999=CARTESIAN_POINT('',(64.5,-37.875,-2.));
#2000=CARTESIAN_POINT('',(32.500001,-35.875,-2.));
#2001=CARTESIAN_POINT('Origin',(30.500001,-35.875,-2.));
#2002=CARTESIAN_POINT('',(32.500001,-35.625,-2.));
#2003=CARTESIAN_POINT('',(32.500001,-35.625,-2.));
#2004=CARTESIAN_POINT('',(40.499999,-35.625,-2.));
#2005=CARTESIAN_POINT('Origin',(36.5,-35.625,-2.));
#2006=CARTESIAN_POINT('',(40.499999,-35.875,-2.));
#2007=CARTESIAN_POINT('',(40.499999,-35.625,-2.));
#2008=CARTESIAN_POINT('',(42.499999,-37.875,-2.));
#2009=CARTESIAN_POINT('Origin',(42.499999,-35.875,-2.));
#2010=CARTESIAN_POINT('',(62.5,-37.875,-2.));
#2011=CARTESIAN_POINT('',(64.5,-37.875,-2.));
#2012=CARTESIAN_POINT('',(64.5,-35.875,-2.));
#2013=CARTESIAN_POINT('Origin',(62.5,-35.875,-2.));
#2014=CARTESIAN_POINT('',(64.5,13.375001,-2.));
#2015=CARTESIAN_POINT('',(64.5,37.875,-2.));
#2016=CARTESIAN_POINT('',(62.5,15.375001,-2.));
#2017=CARTESIAN_POINT('Origin',(62.5,13.375001,-2.));
#2018=CARTESIAN_POINT('',(62.,15.375001,-2.));
#2019=CARTESIAN_POINT('',(62.,15.375001,-2.));
#2020=CARTESIAN_POINT('',(62.,23.374999,-2.));
#2021=CARTESIAN_POINT('Origin',(62.,19.375,-2.));
#2022=CARTESIAN_POINT('',(64.5,23.374999,-2.));
#2023=CARTESIAN_POINT('',(62.,23.374999,-2.));
#2024=CARTESIAN_POINT('',(66.5,25.374999,-2.));
#2025=CARTESIAN_POINT('Origin',(64.5,25.374999,-2.));
#2026=CARTESIAN_POINT('',(66.5,35.875,-2.));
#2027=CARTESIAN_POINT('',(66.5,39.875,-2.));
#2028=CARTESIAN_POINT('',(64.5,37.875,-2.));
#2029=CARTESIAN_POINT('Origin',(64.5,35.875,-2.));
#2030=CARTESIAN_POINT('',(-64.5,37.875,-2.));
#2031=CARTESIAN_POINT('',(-64.5,37.875,-2.));
#2032=CARTESIAN_POINT('',(-66.5,35.875,-2.));
#2033=CARTESIAN_POINT('Origin',(-64.5,35.875,-2.));
#2034=CARTESIAN_POINT('',(-66.5,25.374999,-2.));
#2035=CARTESIAN_POINT('',(-66.5,-39.875,-2.));
#2036=CARTESIAN_POINT('',(-64.5,23.374999,-2.));
#2037=CARTESIAN_POINT('Origin',(-64.5,25.374999,-2.));
#2038=CARTESIAN_POINT('',(-62.,23.374999,-2.));
#2039=CARTESIAN_POINT('',(-62.,23.374999,-2.));
#2040=CARTESIAN_POINT('',(-62.,15.375001,-2.));
#2041=CARTESIAN_POINT('Origin',(-62.,19.375,-2.));
#2042=CARTESIAN_POINT('',(-62.5,15.375001,-2.));
#2043=CARTESIAN_POINT('',(-62.,15.375001,-2.));
#2044=CARTESIAN_POINT('',(-64.5,13.375001,-2.));
#2045=CARTESIAN_POINT('Origin',(-62.5,13.375001,-2.));
#2046=CARTESIAN_POINT('',(-64.5,-29.625001,-2.));
#2047=CARTESIAN_POINT('',(-64.5,-37.875,-2.));
#2048=CARTESIAN_POINT('',(-62.5,-31.625001,-2.));
#2049=CARTESIAN_POINT('Origin',(-62.5,-29.625001,-2.));
#2050=CARTESIAN_POINT('',(-62.25,-31.625001,-2.));
#2051=CARTESIAN_POINT('',(-62.25,-31.625001,-2.));
#2052=CARTESIAN_POINT('',(-58.250001,-35.625,-2.));
#2053=CARTESIAN_POINT('Origin',(-62.25,-35.625,-2.));
#2054=CARTESIAN_POINT('',(-58.250001,-35.625,-2.));
#2055=CARTESIAN_POINT('Origin',(-58.250001,-37.875,0.));
#2056=CARTESIAN_POINT('',(30.500001,-37.875,0.));
#2057=CARTESIAN_POINT('',(64.5,-37.875,0.));
#2058=CARTESIAN_POINT('',(30.500001,-37.875,0.));
#2059=CARTESIAN_POINT('Origin',(-62.5,-29.625001,0.));
#2060=CARTESIAN_POINT('',(-64.5,-29.625001,0.));
#2061=CARTESIAN_POINT('',(-64.5,-29.625001,0.));
#2062=CARTESIAN_POINT('',(-62.5,-31.625001,0.));
#2063=CARTESIAN_POINT('Origin',(-62.5,-29.625001,0.));
#2064=CARTESIAN_POINT('',(-62.5,-31.625001,0.));
#2065=CARTESIAN_POINT('Origin',(-64.5,15.375001,0.));
#2066=CARTESIAN_POINT('',(-64.5,13.375001,0.));
#2067=CARTESIAN_POINT('',(-64.5,13.375001,0.));
#2068=CARTESIAN_POINT('',(-64.5,-37.875,0.));
#2069=CARTESIAN_POINT('Origin',(-62.5,13.375001,0.));
#2070=CARTESIAN_POINT('',(-62.5,15.375001,0.));
#2071=CARTESIAN_POINT('',(-62.5,15.375001,0.));
#2072=CARTESIAN_POINT('Origin',(-62.5,13.375001,0.));
#2073=CARTESIAN_POINT('Origin',(-62.,15.375001,0.));
#2074=CARTESIAN_POINT('',(-62.,15.375001,0.));
#2075=CARTESIAN_POINT('',(-62.,15.375001,0.));
#2076=CARTESIAN_POINT('',(-62.,15.375001,0.));
#2077=CARTESIAN_POINT('Origin',(-64.5,25.374999,0.));
#2078=CARTESIAN_POINT('',(-66.5,25.374999,0.));
#2079=CARTESIAN_POINT('',(-66.5,25.374999,0.));
#2080=CARTESIAN_POINT('',(-64.5,23.374999,0.));
#2081=CARTESIAN_POINT('Origin',(-64.5,25.374999,0.));
#2082=CARTESIAN_POINT('',(-64.5,23.374999,0.));
#2083=CARTESIAN_POINT('Origin',(-66.5,37.875,0.));
#2084=CARTESIAN_POINT('',(-66.5,35.875,0.));
#2085=CARTESIAN_POINT('',(-66.5,35.875,0.));
#2086=CARTESIAN_POINT('',(-66.5,-39.875,0.));
#2087=CARTESIAN_POINT('Origin',(-64.5,35.875,0.));
#2088=CARTESIAN_POINT('',(-64.5,37.875,0.));
#2089=CARTESIAN_POINT('',(-64.5,37.875,0.));
#2090=CARTESIAN_POINT('Origin',(-64.5,35.875,0.));
#2091=CARTESIAN_POINT('Origin',(66.5,37.875,0.));
#2092=CARTESIAN_POINT('',(64.5,37.875,0.));
#2093=CARTESIAN_POINT('',(64.5,37.875,0.));
#2094=CARTESIAN_POINT('',(-64.5,37.875,0.));
#2095=CARTESIAN_POINT('Origin',(64.5,35.875,0.));
#2096=CARTESIAN_POINT('',(66.5,35.875,0.));
#2097=CARTESIAN_POINT('',(66.5,35.875,0.));
#2098=CARTESIAN_POINT('Origin',(64.5,35.875,0.));
#2099=CARTESIAN_POINT('Origin',(66.5,23.374999,0.));
#2100=CARTESIAN_POINT('',(66.5,25.374999,0.));
#2101=CARTESIAN_POINT('',(66.5,25.374999,0.));
#2102=CARTESIAN_POINT('',(66.5,39.875,0.));
#2103=CARTESIAN_POINT('Origin',(64.5,25.374999,0.));
#2104=CARTESIAN_POINT('',(64.5,23.374999,0.));
#2105=CARTESIAN_POINT('',(64.5,23.374999,0.));
#2106=CARTESIAN_POINT('Origin',(64.5,25.374999,0.));
#2107=CARTESIAN_POINT('Origin',(62.,23.374999,0.));
#2108=CARTESIAN_POINT('',(62.,23.374999,0.));
#2109=CARTESIAN_POINT('',(62.,23.374999,0.));
#2110=CARTESIAN_POINT('',(62.,23.374999,0.));
#2111=CARTESIAN_POINT('Origin',(62.5,13.375001,0.));
#2112=CARTESIAN_POINT('',(64.5,13.375001,0.));
#2113=CARTESIAN_POINT('',(64.5,13.375001,0.));
#2114=CARTESIAN_POINT('',(62.5,15.375001,0.));
#2115=CARTESIAN_POINT('Origin',(62.5,13.375001,0.));
#2116=CARTESIAN_POINT('',(62.5,15.375001,0.));
#2117=CARTESIAN_POINT('Origin',(64.5,-37.875,0.));
#2118=CARTESIAN_POINT('',(64.5,-35.875,0.));
#2119=CARTESIAN_POINT('',(64.5,-35.875,0.));
#2120=CARTESIAN_POINT('',(64.5,37.875,0.));
#2121=CARTESIAN_POINT('Origin',(62.5,-35.875,0.));
#2122=CARTESIAN_POINT('',(62.5,-37.875,0.));
#2123=CARTESIAN_POINT('',(62.5,-37.875,0.));
#2124=CARTESIAN_POINT('Origin',(62.5,-35.875,0.));
#2125=CARTESIAN_POINT('Origin',(40.499999,-37.875,0.));
#2126=CARTESIAN_POINT('',(42.499999,-37.875,0.));
#2127=CARTESIAN_POINT('',(42.499999,-37.875,0.));
#2128=CARTESIAN_POINT('',(64.5,-37.875,0.));
#2129=CARTESIAN_POINT('Origin',(42.499999,-35.875,0.));
#2130=CARTESIAN_POINT('',(40.499999,-35.875,0.));
#2131=CARTESIAN_POINT('',(40.499999,-35.875,0.));
#2132=CARTESIAN_POINT('Origin',(42.499999,-35.875,0.));
#2133=CARTESIAN_POINT('Origin',(40.499999,-35.625,0.));
#2134=CARTESIAN_POINT('',(40.499999,-35.625,0.));
#2135=CARTESIAN_POINT('',(40.499999,-35.625,0.));
#2136=CARTESIAN_POINT('',(40.499999,-35.625,0.));
#2137=CARTESIAN_POINT('Origin',(30.500001,-35.875,0.));
#2138=CARTESIAN_POINT('',(32.500001,-35.875,0.));
#2139=CARTESIAN_POINT('Origin',(30.500001,-35.875,0.));
#2140=CARTESIAN_POINT('',(32.500001,-35.875,0.));
#2141=CARTESIAN_POINT('Origin',(8.88178419700125E-15,0.,0.));
#2142=CARTESIAN_POINT('',(-67.,-40.375,0.));
#2143=CARTESIAN_POINT('',(67.,-40.375,0.));
#2144=CARTESIAN_POINT('',(67.,-40.375,0.));
#2145=CARTESIAN_POINT('',(67.,40.375,0.));
#2146=CARTESIAN_POINT('',(67.,40.375,0.));
#2147=CARTESIAN_POINT('',(-67.,40.375,0.));
#2148=CARTESIAN_POINT('',(-67.,40.375,0.));
#2149=CARTESIAN_POINT('',(-67.,-40.375,0.));
#2150=CARTESIAN_POINT('',(62.,15.375001,0.));
#2151=CARTESIAN_POINT('Origin',(62.,19.375,0.));
#2152=CARTESIAN_POINT('',(62.,15.375001,0.));
#2153=CARTESIAN_POINT('',(32.500001,-35.625,0.));
#2154=CARTESIAN_POINT('Origin',(36.5,-35.625,0.));
#2155=CARTESIAN_POINT('',(32.500001,-35.625,0.));
#2156=CARTESIAN_POINT('',(-58.250001,-35.625,0.));
#2157=CARTESIAN_POINT('',(-58.250001,-35.625,0.));
#2158=CARTESIAN_POINT('',(-62.25,-31.625001,0.));
#2159=CARTESIAN_POINT('Origin',(-62.25,-35.625,0.));
#2160=CARTESIAN_POINT('',(-62.25,-31.625001,0.));
#2161=CARTESIAN_POINT('',(-62.,23.374999,0.));
#2162=CARTESIAN_POINT('Origin',(-62.,19.375,0.));
#2163=CARTESIAN_POINT('',(-62.,23.374999,0.));
#2164=CARTESIAN_POINT('Origin',(8.88178419700125E-15,0.,0.));
#2165=CARTESIAN_POINT('',(-68.5,40.375,0.));
#2166=CARTESIAN_POINT('',(-68.5,-40.375,0.));
#2167=CARTESIAN_POINT('',(-67.,41.875,0.));
#2168=CARTESIAN_POINT('Origin',(-67.,40.375,0.));
#2169=CARTESIAN_POINT('',(-67.,41.875,0.));
#2170=CARTESIAN_POINT('',(-67.,43.375,0.));
#2171=CARTESIAN_POINT('',(-67.,43.375,0.));
#2172=CARTESIAN_POINT('',(-70.,40.375,0.));
#2173=CARTESIAN_POINT('Origin',(-67.,40.375,0.));
#2174=CARTESIAN_POINT('',(-70.,-40.375,0.));
#2175=CARTESIAN_POINT('Origin',(8.88178419700125E-15,0.,0.));
#2176=CARTESIAN_POINT('',(-68.5,-16.875,0.));
#2177=CARTESIAN_POINT('',(-67.,-16.875,0.));
#2178=CARTESIAN_POINT('',(-70.,-40.375,0.));
#2179=CARTESIAN_POINT('',(-70.,-40.375,0.));
#2180=CARTESIAN_POINT('',(-67.,-43.375,0.));
#2181=CARTESIAN_POINT('Origin',(-67.,-40.375,0.));
#2182=CARTESIAN_POINT('',(67.,-43.375,0.));
#2183=CARTESIAN_POINT('',(67.,-43.375,0.));
#2184=CARTESIAN_POINT('',(70.,-40.375,0.));
#2185=CARTESIAN_POINT('Origin',(67.,-40.375,0.));
#2186=CARTESIAN_POINT('',(70.,40.375,0.));
#2187=CARTESIAN_POINT('',(70.,40.375,0.));
#2188=CARTESIAN_POINT('',(67.,43.375,0.));
#2189=CARTESIAN_POINT('Origin',(67.,40.375,0.));
#2190=CARTESIAN_POINT('',(-67.,43.375,0.));
#2191=CARTESIAN_POINT('',(66.8,41.875,0.));
#2192=CARTESIAN_POINT('',(66.8,43.375,0.));
#2193=CARTESIAN_POINT('',(67.,41.875,0.));
#2194=CARTESIAN_POINT('',(-67.,41.875,0.));
#2195=CARTESIAN_POINT('',(68.5,40.375,0.));
#2196=CARTESIAN_POINT('Origin',(67.,40.375,0.));
#2197=CARTESIAN_POINT('',(68.5,-40.375,0.));
#2198=CARTESIAN_POINT('',(68.5,40.375,0.));
#2199=CARTESIAN_POINT('',(67.,-41.875,0.));
#2200=CARTESIAN_POINT('Origin',(67.,-40.375,0.));
#2201=CARTESIAN_POINT('',(-67.,-41.875,0.));
#2202=CARTESIAN_POINT('',(67.,-41.875,0.));
#2203=CARTESIAN_POINT('',(-68.5,-40.375,0.));
#2204=CARTESIAN_POINT('Origin',(-67.,-40.375,0.));
#2205=CARTESIAN_POINT('',(-68.5,-40.375,0.));
#2206=CARTESIAN_POINT('Origin',(62.,19.375,0.));
#2207=CARTESIAN_POINT('',(62.,15.375001,0.));
#2208=CARTESIAN_POINT('Origin',(64.5,15.375001,0.));
#2209=CARTESIAN_POINT('Origin',(36.5,-35.625,0.));
#2210=CARTESIAN_POINT('',(32.500001,-35.625,0.));
#2211=CARTESIAN_POINT('Origin',(32.500001,-37.875,0.));
#2212=CARTESIAN_POINT('Origin',(-58.250001,-35.625,0.));
#2213=CARTESIAN_POINT('',(-58.250001,-35.625,0.));
#2214=CARTESIAN_POINT('Origin',(-62.25,-35.625,0.));
#2215=CARTESIAN_POINT('',(-62.25,-31.625001,0.));
#2216=CARTESIAN_POINT('Origin',(-64.5,-31.625001,0.));
#2217=CARTESIAN_POINT('Origin',(-62.,19.375,0.));
#2218=CARTESIAN_POINT('',(-62.,23.374999,0.));
#2219=CARTESIAN_POINT('Origin',(-66.5,23.374999,0.));
#2220=CARTESIAN_POINT('Origin',(-67.,-40.375,0.));
#2221=CARTESIAN_POINT('',(-70.,-40.375,0.));
#2222=CARTESIAN_POINT('',(-67.,-43.375,0.));
#2223=CARTESIAN_POINT('Origin',(67.,-43.375,0.));
#2224=CARTESIAN_POINT('',(67.,-43.375,0.));
#2225=CARTESIAN_POINT('Origin',(67.,-40.375,0.));
#2226=CARTESIAN_POINT('',(70.,-40.375,0.));
#2227=CARTESIAN_POINT('Origin',(70.,40.375,0.));
#2228=CARTESIAN_POINT('',(70.,40.375,0.));
#2229=CARTESIAN_POINT('Origin',(67.,40.375,0.));
#2230=CARTESIAN_POINT('',(67.,43.375,0.));
#2231=CARTESIAN_POINT('Origin',(-67.,40.375,0.));
#2232=CARTESIAN_POINT('',(-67.,43.375,0.));
#2233=CARTESIAN_POINT('',(-70.,40.375,0.));
#2234=CARTESIAN_POINT('Origin',(67.,-40.375,0.));
#2235=CARTESIAN_POINT('',(-67.,-40.375,0.));
#2236=CARTESIAN_POINT('',(67.,-40.375,0.));
#2237=CARTESIAN_POINT('Origin',(67.,40.375,0.));
#2238=CARTESIAN_POINT('',(67.,40.375,0.));
#2239=CARTESIAN_POINT('Origin',(-67.,40.375,0.));
#2240=CARTESIAN_POINT('',(-67.,40.375,0.));
#2241=CARTESIAN_POINT('Origin',(-67.,-40.375,0.));
#2242=CARTESIAN_POINT('Origin',(66.8,41.875,0.));
#2243=CARTESIAN_POINT('',(66.8,41.875,0.));
#2244=CARTESIAN_POINT('Origin',(67.,41.875,0.));
#2245=CARTESIAN_POINT('',(67.,41.875,0.));
#2246=CARTESIAN_POINT('Origin',(67.,40.375,0.));
#2247=CARTESIAN_POINT('',(68.5,40.375,0.));
#2248=CARTESIAN_POINT('Origin',(68.5,-40.375,0.));
#2249=CARTESIAN_POINT('',(68.5,-40.375,0.));
#2250=CARTESIAN_POINT('Origin',(67.,-40.375,0.));
#2251=CARTESIAN_POINT('',(67.,-41.875,0.));
#2252=CARTESIAN_POINT('Origin',(-67.,-41.875,0.));
#2253=CARTESIAN_POINT('',(-67.,-41.875,0.));
#2254=CARTESIAN_POINT('Origin',(-67.,-40.375,0.));
#2255=CARTESIAN_POINT('',(-68.5,-40.375,0.));
#2256=CARTESIAN_POINT('Origin',(-68.5,-16.875,0.));
#2257=CARTESIAN_POINT('',(-68.5,-16.875,0.));
#2258=CARTESIAN_POINT('Origin',(-70.,-16.875,0.));
#2259=CARTESIAN_POINT('Origin',(-70.,13.625,0.));
#2260=CARTESIAN_POINT('Origin',(-68.5,40.375,0.));
#2261=CARTESIAN_POINT('',(-68.5,40.375,0.));
#2262=CARTESIAN_POINT('Origin',(-67.,40.375,0.));
#2263=CARTESIAN_POINT('',(-67.,41.875,0.));
#2264=CARTESIAN_POINT('Origin',(-66.8,41.875,0.));
#2265=CARTESIAN_POINT('Origin',(66.8,43.375,0.));
#2266=UNCERTAINTY_MEASURE_WITH_UNIT(LENGTH_MEASURE(0.01),#2270,
'DISTANCE_ACCURACY_VALUE',
'Maximum model space distance between geometric entities at asserted c
onnectivities');
#2267=UNCERTAINTY_MEASURE_WITH_UNIT(LENGTH_MEASURE(0.01),#2270,
'DISTANCE_ACCURACY_VALUE',
'Maximum model space distance between geometric entities at asserted c
onnectivities');
#2268=(
GEOMETRIC_REPRESENTATION_CONTEXT(3)
GLOBAL_UNCERTAINTY_ASSIGNED_CONTEXT((#2266))
GLOBAL_UNIT_ASSIGNED_CONTEXT((#2270,#2271,#2272))
REPRESENTATION_CONTEXT('','3D')
);
#2269=(
GEOMETRIC_REPRESENTATION_CONTEXT(3)
GLOBAL_UNCERTAINTY_ASSIGNED_CONTEXT((#2267))
GLOBAL_UNIT_ASSIGNED_CONTEXT((#2270,#2271,#2272))
REPRESENTATION_CONTEXT('','3D')
);
#2270=(
LENGTH_UNIT()
NAMED_UNIT(*)
SI_UNIT(.MILLI.,.METRE.)
);
#2271=(
NAMED_UNIT(*)
PLANE_ANGLE_UNIT()
SI_UNIT($,.RADIAN.)
);
#2272=(
NAMED_UNIT(*)
SI_UNIT($,.STERADIAN.)
SOLID_ANGLE_UNIT()
);
#2273=SHAPE_DEFINITION_REPRESENTATION(#2274,#2275);
#2274=PRODUCT_DEFINITION_SHAPE('',$,#2277);
#2275=SHAPE_REPRESENTATION('',(#1350),#2268);
#2276=PRODUCT_DEFINITION_CONTEXT('part definition',#2281,'design');
#2277=PRODUCT_DEFINITION('Motherboard Casing','Motherboard Casing',#2278,
#2276);
#2278=PRODUCT_DEFINITION_FORMATION('',$,#2283);
#2279=PRODUCT_RELATED_PRODUCT_CATEGORY('Motherboard Casing',
'Motherboard Casing',(#2283));
#2280=APPLICATION_PROTOCOL_DEFINITION('international standard',
'automotive_design',2009,#2281);
#2281=APPLICATION_CONTEXT(
'Core Data for Automotive Mechanical Design Process');
#2282=PRODUCT_CONTEXT('part definition',#2281,'mechanical');
#2283=PRODUCT('Motherboard Casing','Motherboard Casing',$,(#2282));
#2284=PRESENTATION_STYLE_ASSIGNMENT((#2288));
#2285=PRESENTATION_STYLE_ASSIGNMENT((#2289));
#2286=PRESENTATION_STYLE_ASSIGNMENT((#2290));
#2287=PRESENTATION_STYLE_ASSIGNMENT((#2291));
#2288=SURFACE_STYLE_USAGE(.BOTH.,#2292);
#2289=SURFACE_STYLE_USAGE(.BOTH.,#2293);
#2290=SURFACE_STYLE_USAGE(.BOTH.,#2294);
#2291=SURFACE_STYLE_USAGE(.BOTH.,#2295);
#2292=SURFACE_SIDE_STYLE('',(#2296));
#2293=SURFACE_SIDE_STYLE('',(#2297));
#2294=SURFACE_SIDE_STYLE('',(#2298));
#2295=SURFACE_SIDE_STYLE('',(#2299));
#2296=SURFACE_STYLE_FILL_AREA(#2300);
#2297=SURFACE_STYLE_FILL_AREA(#2301);
#2298=SURFACE_STYLE_FILL_AREA(#2302);
#2299=SURFACE_STYLE_FILL_AREA(#2303);
#2300=FILL_AREA_STYLE('Stahl - satiniert',(#2304));
#2301=FILL_AREA_STYLE('ABS (Rot)',(#2305));
#2302=FILL_AREA_STYLE('ABS (Wei\X\DF)',(#2306));
#2303=FILL_AREA_STYLE('Acryl (klar)',(#2307));
#2304=FILL_AREA_STYLE_COLOUR('Stahl - satiniert',#2308);
#2305=FILL_AREA_STYLE_COLOUR('ABS (Rot)',#2309);
#2306=FILL_AREA_STYLE_COLOUR('ABS (Wei\X\DF)',#2310);
#2307=FILL_AREA_STYLE_COLOUR('Acryl (klar)',#2311);
#2308=COLOUR_RGB('Stahl - satiniert',0.627450980392157,0.627450980392157,
0.627450980392157);
#2309=COLOUR_RGB('ABS (Rot)',0.615686274509804,0.109803921568627,0.125490196078431);
#2310=COLOUR_RGB('ABS (Wei\X\DF)',0.964705882352941,0.964705882352941,0.952941176470588);
#2311=COLOUR_RGB('Acryl (klar)',0.964705882352941,0.964705882352941,0.952941176470588);
ENDSEC;
END-ISO-10303-21;
