%TF.GenerationSoftware,KiCad,Pcbnew,9.0.7*%
%TF.CreationDate,2026-03-19T19:45:42+01:00*%
%TF.ProjectId,TelemetryGroundstationDB,54656c65-6d65-4747-9279-47726f756e64,rev?*%
%TF.SameCoordinates,Original*%
%TF.FileFunction,Copper,L1,Top*%
%TF.FilePolarity,Positive*%
%FSLAX46Y46*%
G04 Gerber Fmt 4.6, Leading zero omitted, Abs format (unit mm)*
G04 Created by KiCad (PCBNEW 9.0.7) date 2026-03-19 19:45:42*
%MOMM*%
%LPD*%
G01*
G04 APERTURE LIST*
G04 Aperture macros list*
%AMRoundRect*
0 Rectangle with rounded corners*
0 $1 Rounding radius*
0 $2 $3 $4 $5 $6 $7 $8 $9 X,Y pos of 4 corners*
0 Add a 4 corners polygon primitive as box body*
4,1,4,$2,$3,$4,$5,$6,$7,$8,$9,$2,$3,0*
0 Add four circle primitives for the rounded corners*
1,1,$1+$1,$2,$3*
1,1,$1+$1,$4,$5*
1,1,$1+$1,$6,$7*
1,1,$1+$1,$8,$9*
0 Add four rect primitives between the rounded corners*
20,1,$1+$1,$2,$3,$4,$5,0*
20,1,$1+$1,$4,$5,$6,$7,0*
20,1,$1+$1,$6,$7,$8,$9,0*
20,1,$1+$1,$8,$9,$2,$3,0*%
%AMFreePoly0*
4,1,23,0.500000,-0.750000,0.000000,-0.750000,0.000000,-0.745722,-0.065263,-0.745722,-0.191342,-0.711940,-0.304381,-0.646677,-0.396677,-0.554381,-0.461940,-0.441342,-0.495722,-0.315263,-0.495722,-0.250000,-0.500000,-0.250000,-0.500000,0.250000,-0.495722,0.250000,-0.495722,0.315263,-0.461940,0.441342,-0.396677,0.554381,-0.304381,0.646677,-0.191342,0.711940,-0.065263,0.745722,0.000000,0.745722,
0.000000,0.750000,0.500000,0.750000,0.500000,-0.750000,0.500000,-0.750000,$1*%
%AMFreePoly1*
4,1,23,0.000000,0.745722,0.065263,0.745722,0.191342,0.711940,0.304381,0.646677,0.396677,0.554381,0.461940,0.441342,0.495722,0.315263,0.495722,0.250000,0.500000,0.250000,0.500000,-0.250000,0.495722,-0.250000,0.495722,-0.315263,0.461940,-0.441342,0.396677,-0.554381,0.304381,-0.646677,0.191342,-0.711940,0.065263,-0.745722,0.000000,-0.745722,0.000000,-0.750000,-0.500000,-0.750000,
-0.500000,0.750000,0.000000,0.750000,0.000000,0.745722,0.000000,0.745722,$1*%
G04 Aperture macros list end*
%TA.AperFunction,ComponentPad*%
%ADD10C,8.000000*%
%TD*%
%TA.AperFunction,SMDPad,CuDef*%
%ADD11C,2.000000*%
%TD*%
%TA.AperFunction,SMDPad,CuDef*%
%ADD12RoundRect,0.250000X0.450000X-0.325000X0.450000X0.325000X-0.450000X0.325000X-0.450000X-0.325000X0*%
%TD*%
%TA.AperFunction,SMDPad,CuDef*%
%ADD13FreePoly0,270.000000*%
%TD*%
%TA.AperFunction,SMDPad,CuDef*%
%ADD14FreePoly1,270.000000*%
%TD*%
%TA.AperFunction,SMDPad,CuDef*%
%ADD15RoundRect,0.250000X0.450000X-0.350000X0.450000X0.350000X-0.450000X0.350000X-0.450000X-0.350000X0*%
%TD*%
%TA.AperFunction,SMDPad,CuDef*%
%ADD16RoundRect,0.250000X-0.337500X-0.475000X0.337500X-0.475000X0.337500X0.475000X-0.337500X0.475000X0*%
%TD*%
%TA.AperFunction,SMDPad,CuDef*%
%ADD17RoundRect,0.250000X-0.450000X0.350000X-0.450000X-0.350000X0.450000X-0.350000X0.450000X0.350000X0*%
%TD*%
%TA.AperFunction,ComponentPad*%
%ADD18R,1.408000X1.408000*%
%TD*%
%TA.AperFunction,ComponentPad*%
%ADD19C,1.408000*%
%TD*%
%TA.AperFunction,ComponentPad*%
%ADD20C,4.216000*%
%TD*%
%TA.AperFunction,SMDPad,CuDef*%
%ADD21RoundRect,0.150000X-0.150000X0.512500X-0.150000X-0.512500X0.150000X-0.512500X0.150000X0.512500X0*%
%TD*%
%TA.AperFunction,SMDPad,CuDef*%
%ADD22RoundRect,0.508000X-0.000010X0.508000X-0.000010X-0.508000X0.000010X-0.508000X0.000010X0.508000X0*%
%TD*%
%TA.AperFunction,SMDPad,CuDef*%
%ADD23RoundRect,0.508000X0.000010X-0.508000X0.000010X0.508000X-0.000010X0.508000X-0.000010X-0.508000X0*%
%TD*%
%TA.AperFunction,SMDPad,CuDef*%
%ADD24RoundRect,0.508000X-0.508000X-0.000010X0.508000X-0.000010X0.508000X0.000010X-0.508000X0.000010X0*%
%TD*%
%TA.AperFunction,ComponentPad*%
%ADD25C,2.325000*%
%TD*%
%TA.AperFunction,ComponentPad*%
%ADD26C,2.475000*%
%TD*%
%TA.AperFunction,SMDPad,CuDef*%
%ADD27RoundRect,0.250000X0.350000X0.450000X-0.350000X0.450000X-0.350000X-0.450000X0.350000X-0.450000X0*%
%TD*%
%TA.AperFunction,SMDPad,CuDef*%
%ADD28RoundRect,0.250000X-0.350000X-0.450000X0.350000X-0.450000X0.350000X0.450000X-0.350000X0.450000X0*%
%TD*%
%TA.AperFunction,ViaPad*%
%ADD29C,0.800000*%
%TD*%
%TA.AperFunction,Conductor*%
%ADD30C,0.250000*%
%TD*%
%TA.AperFunction,Conductor*%
%ADD31C,0.300000*%
%TD*%
%TA.AperFunction,Conductor*%
%ADD32C,1.200000*%
%TD*%
%TA.AperFunction,Conductor*%
%ADD33C,0.500000*%
%TD*%
G04 APERTURE END LIST*
D10*
%TO.P,M3,1,Pin_1*%
%TO.N,GND*%
X4400000Y44400000D03*
%TD*%
D11*
%TO.P,TP3,1,1*%
%TO.N,RST*%
X9875000Y47615000D03*
%TD*%
D12*
%TO.P,D2,1,K*%
%TO.N,GND*%
X28250000Y30175000D03*
%TO.P,D2,2,A*%
%TO.N,Net-(D2-A)*%
X28250000Y32225000D03*
%TD*%
D10*
%TO.P,M1,1,Pin_1*%
%TO.N,GND*%
X35600000Y4400000D03*
%TD*%
D13*
%TO.P,JP2,1,A*%
%TO.N,+3V3*%
X37500000Y33675000D03*
D14*
%TO.P,JP2,2,B*%
%TO.N,Net-(JP1-B)*%
X37500000Y32375000D03*
%TD*%
D10*
%TO.P,M4,1,Pin_1*%
%TO.N,GND*%
X4400000Y4400000D03*
%TD*%
D15*
%TO.P,R2,1*%
%TO.N,Net-(D1-A)*%
X26300000Y34075000D03*
%TO.P,R2,2*%
%TO.N,Net-(U1-D1)*%
X26300000Y36075000D03*
%TD*%
D16*
%TO.P,C2,1*%
%TO.N,+3V3*%
X19205000Y14200000D03*
%TO.P,C2,2*%
%TO.N,GND*%
X21280000Y14200000D03*
%TD*%
D17*
%TO.P,R1,1*%
%TO.N,Net-(U1-RESET)*%
X21500000Y7950000D03*
%TO.P,R1,2*%
%TO.N,RST*%
X21500000Y5950000D03*
%TD*%
D18*
%TO.P,J2,1,1*%
%TO.N,TX*%
X11380000Y55995000D03*
D19*
%TO.P,J2,2,2*%
%TO.N,RX*%
X13660000Y55995000D03*
%TO.P,J2,3,3*%
%TO.N,CFG*%
X15940000Y55995000D03*
%TO.P,J2,4,4*%
%TO.N,RTS*%
X18220000Y55995000D03*
%TO.P,J2,5,5*%
%TO.N,CTS*%
X20500000Y55995000D03*
%TO.P,J2,6,6*%
%TO.N,RST*%
X10240000Y58535000D03*
%TO.P,J2,7,7*%
%TO.N,GND*%
X12520000Y58535000D03*
%TO.P,J2,8,8*%
X14800000Y58535000D03*
%TO.P,J2,9,9*%
%TO.N,+3V3*%
X17080000Y58535000D03*
%TO.P,J2,10,10*%
X19360000Y58535000D03*
%TO.P,J2,11,11*%
%TO.N,GND*%
X11380000Y61075000D03*
%TO.P,J2,12,12*%
X13660000Y61075000D03*
%TO.P,J2,13,13*%
X15940000Y61075000D03*
%TO.P,J2,14,14*%
%TO.N,+5V*%
X18220000Y61075000D03*
%TO.P,J2,15,15*%
X20500000Y61075000D03*
D20*
%TO.P,J2,SH1,SHIELD*%
%TO.N,GND*%
X28180000Y58535000D03*
%TO.P,J2,SH2,SHIELD__1*%
X3190000Y58535000D03*
%TD*%
D21*
%TO.P,D5,1*%
%TO.N,+5V*%
X30700000Y50712500D03*
%TO.P,D5,2*%
%TO.N,+3V3*%
X28800000Y50712500D03*
%TO.P,D5,3*%
%TO.N,GND*%
X29750000Y48437500D03*
%TD*%
D16*
%TO.P,C1,1*%
%TO.N,Net-(U1-RESET)*%
X19205000Y10240000D03*
%TO.P,C1,2*%
%TO.N,GND*%
X21280000Y10240000D03*
%TD*%
D12*
%TO.P,D4,1,K*%
%TO.N,GND*%
X32600000Y30175000D03*
%TO.P,D4,2,A*%
%TO.N,Net-(D4-A)*%
X32600000Y32225000D03*
%TD*%
D15*
%TO.P,R3,1*%
%TO.N,Net-(D2-A)*%
X28250000Y34075000D03*
%TO.P,R3,2*%
%TO.N,Net-(U1-D2)*%
X28250000Y36075000D03*
%TD*%
D11*
%TO.P,TP1,1,1*%
%TO.N,TX*%
X12875000Y47615000D03*
%TD*%
D13*
%TO.P,JP1,1,A*%
%TO.N,+5V*%
X35000000Y33675000D03*
D14*
%TO.P,JP1,2,B*%
%TO.N,Net-(JP1-B)*%
X35000000Y32375000D03*
%TD*%
D11*
%TO.P,TP5,1,1*%
%TO.N,CFG*%
X18875000Y47615000D03*
%TD*%
D22*
%TO.P,U1,1,GND*%
%TO.N,GND*%
X20475000Y42150000D03*
%TO.P,U1,2,CTS/RXTX*%
%TO.N,CTS*%
X19205000Y42150000D03*
%TO.P,U1,3,RTS/SLEEP*%
%TO.N,RTS*%
X17935000Y42150000D03*
%TO.P,U1,4,CONFIG*%
%TO.N,CFG*%
X16665000Y42150000D03*
%TO.P,U1,5,TXD*%
%TO.N,RX*%
X15395000Y42150000D03*
%TO.P,U1,6,RXD*%
%TO.N,TX*%
X14125000Y42150000D03*
%TO.P,U1,7,GND*%
%TO.N,GND*%
X12855000Y42150000D03*
D23*
%TO.P,U1,8,GND*%
X12855000Y16750000D03*
%TO.P,U1,9,RF*%
%TO.N,Net-(U1-RF)*%
X14125000Y16750000D03*
%TO.P,U1,10,GND*%
%TO.N,GND*%
X15395000Y16750000D03*
%TO.P,U1,11*%
%TO.N,unconnected-(U1-Pad11)*%
X16665000Y16750000D03*
%TO.P,U1,12,RESET*%
%TO.N,Net-(U1-RESET)*%
X17935000Y16750000D03*
%TO.P,U1,13,VCC*%
%TO.N,+3V3*%
X19205000Y16750000D03*
%TO.P,U1,14,GND*%
%TO.N,GND*%
X20475000Y16750000D03*
D24*
%TO.P,U1,15*%
%TO.N,unconnected-(U1-Pad15)*%
X10315000Y39610000D03*
%TO.P,U1,16*%
%TO.N,unconnected-(U1-Pad16)*%
X10315000Y38340000D03*
%TO.P,U1,17*%
%TO.N,unconnected-(U1-Pad17)*%
X10315000Y37070000D03*
%TO.P,U1,18*%
%TO.N,unconnected-(U1-Pad18)*%
X10324023Y35798045D03*
%TO.P,U1,19,DD*%
%TO.N,unconnected-(U1-DD-Pad19)*%
X10315000Y34530000D03*
%TO.P,U1,20,DC*%
%TO.N,unconnected-(U1-DC-Pad20)*%
X10315000Y33260000D03*
%TO.P,U1,21*%
%TO.N,unconnected-(U1-Pad21)*%
X10315000Y31990000D03*
%TO.P,U1,22*%
%TO.N,unconnected-(U1-Pad22)*%
X10315000Y30720000D03*
%TO.P,U1,23*%
%TO.N,unconnected-(U1-Pad23)*%
X23015000Y30720000D03*
%TO.P,U1,24*%
%TO.N,unconnected-(U1-Pad24)*%
X23015000Y31990000D03*
%TO.P,U1,25*%
%TO.N,unconnected-(U1-Pad25)*%
X23015000Y33260000D03*
%TO.P,U1,26*%
%TO.N,unconnected-(U1-Pad26)*%
X23015000Y34530000D03*
%TO.P,U1,27*%
%TO.N,unconnected-(U1-Pad27)*%
X23015000Y35800000D03*
%TO.P,U1,28*%
%TO.N,unconnected-(U1-Pad28)*%
X23015000Y37070000D03*
%TO.P,U1,29,D1*%
%TO.N,Net-(U1-D1)*%
X23015000Y38340000D03*
%TO.P,U1,30,D2*%
%TO.N,Net-(U1-D2)*%
X23015000Y39610000D03*
%TO.P,U1,31*%
%TO.N,unconnected-(U1-Pad31)*%
X23015000Y26910000D03*
%TO.P,U1,32*%
%TO.N,unconnected-(U1-Pad32)*%
X10315000Y26910000D03*
%TO.P,U1,33*%
%TO.N,unconnected-(U1-Pad33)*%
X23015000Y25640000D03*
%TO.P,U1,34*%
%TO.N,unconnected-(U1-Pad34)*%
X10315000Y25640000D03*
%TO.P,U1,35*%
%TO.N,unconnected-(U1-Pad35)*%
X23015000Y24370000D03*
%TO.P,U1,36*%
%TO.N,unconnected-(U1-Pad36)*%
X10315000Y24370000D03*
%TO.P,U1,37*%
%TO.N,unconnected-(U1-Pad37)*%
X23015000Y23100000D03*
%TO.P,U1,38*%
%TO.N,unconnected-(U1-Pad38)*%
X10315000Y23100000D03*
%TO.P,U1,39*%
%TO.N,unconnected-(U1-Pad39)*%
X23015000Y21830000D03*
%TO.P,U1,40*%
%TO.N,unconnected-(U1-Pad40)*%
X10315000Y21830000D03*
%TO.P,U1,41,VCC_PA*%
%TO.N,Net-(JP1-B)*%
X23015000Y20560000D03*
%TO.P,U1,42*%
%TO.N,unconnected-(U1-Pad42)*%
X10315000Y20560000D03*
%TD*%
D12*
%TO.P,D1,1,K*%
%TO.N,GND*%
X26300000Y30175000D03*
%TO.P,D1,2,A*%
%TO.N,Net-(D1-A)*%
X26300000Y32225000D03*
%TD*%
D10*
%TO.P,M2,1,Pin_1*%
%TO.N,GND*%
X35600000Y65600000D03*
%TD*%
D12*
%TO.P,D3,1,K*%
%TO.N,GND*%
X30550000Y30175000D03*
%TO.P,D3,2,A*%
%TO.N,Net-(D3-A)*%
X30550000Y32225000D03*
%TD*%
D17*
%TO.P,R8,1*%
%TO.N,+5V*%
X32500000Y36075000D03*
%TO.P,R8,2*%
%TO.N,Net-(D4-A)*%
X32500000Y34075000D03*
%TD*%
D25*
%TO.P,J1,1*%
%TO.N,Net-(J1-Pad1)*%
X14125000Y4700000D03*
D26*
%TO.P,J1,G1*%
%TO.N,GND*%
X11585000Y7240000D03*
%TO.P,J1,G2*%
X16665000Y7240000D03*
%TO.P,J1,G3*%
X11585000Y2160000D03*
%TO.P,J1,G4*%
X16665000Y2160000D03*
%TD*%
D11*
%TO.P,TP2,1,1*%
%TO.N,RX*%
X15875000Y47615000D03*
%TD*%
D27*
%TO.P,ZP1,1*%
%TO.N,Net-(J1-Pad1)*%
X14125000Y10200000D03*
%TO.P,ZP1,2*%
%TO.N,GND*%
X12125000Y10200000D03*
%TD*%
D28*
%TO.P,R4,1*%
%TO.N,CFG*%
X16500000Y51325000D03*
%TO.P,R4,2*%
%TO.N,+3V3*%
X18500000Y51325000D03*
%TD*%
D11*
%TO.P,TP4,1,1*%
%TO.N,CTS*%
X24875000Y47615000D03*
%TD*%
D15*
%TO.P,R5,1*%
%TO.N,RST*%
X25500000Y5950000D03*
%TO.P,R5,2*%
%TO.N,+3V3*%
X25500000Y7950000D03*
%TD*%
D17*
%TO.P,R7,1*%
%TO.N,+3V3*%
X30550000Y36075000D03*
%TO.P,R7,2*%
%TO.N,Net-(D3-A)*%
X30550000Y34075000D03*
%TD*%
D27*
%TO.P,R6,1*%
%TO.N,TX*%
X11500000Y51325000D03*
%TO.P,R6,2*%
%TO.N,+3V3*%
X9500000Y51325000D03*
%TD*%
D11*
%TO.P,TP6,1,1*%
%TO.N,RTS*%
X21875000Y47615000D03*
%TD*%
D17*
%TO.P,ZS1,1*%
%TO.N,Net-(U1-RF)*%
X14125000Y14200000D03*
%TO.P,ZS1,2*%
%TO.N,Net-(J1-Pad1)*%
X14125000Y12200000D03*
%TD*%
D29*
%TO.N,GND*%
X15625000Y12700000D03*
X15625000Y11700000D03*
X16125000Y4700000D03*
X14125000Y18700000D03*
X15625000Y13700000D03*
X15125000Y18700000D03*
X13125000Y18700000D03*
X12625000Y14700000D03*
X15625000Y14700000D03*
X12125000Y4700000D03*
X30350000Y45425000D03*
X15625000Y9700000D03*
X15625000Y10700000D03*
X12625000Y12200000D03*
X14125000Y2700000D03*
%TD*%
D30*
%TO.N,Net-(U1-RESET)*%
X19240000Y10240000D02*
X21280000Y8200000D01*
X17935000Y16700000D02*
X17935000Y11510000D01*
X19205000Y10240000D02*
X19240000Y10240000D01*
X17935000Y11510000D02*
X19205000Y10240000D01*
%TO.N,Net-(D1-A)*%
X26300000Y34075000D02*
X26300000Y32225000D01*
%TO.N,RST*%
X9399000Y59376000D02*
X10240000Y58535000D01*
X39307000Y52017942D02*
X27848942Y63476000D01*
X7500000Y55795000D02*
X7500000Y49990000D01*
X27848942Y63476000D02*
X10151058Y63476000D01*
X27250000Y7575000D02*
X25625000Y5950000D01*
X10151058Y63476000D02*
X9399000Y62723942D01*
X10240000Y58535000D02*
X7500000Y55795000D01*
X21375000Y5950000D02*
X25625000Y5950000D01*
X27250000Y18325000D02*
X27250000Y7575000D01*
X27250000Y18325000D02*
X39307000Y30382000D01*
X39307000Y30382000D02*
X39307000Y52017942D01*
X9875000Y47615000D02*
X7500000Y49990000D01*
X9399000Y62723942D02*
X9399000Y59376000D01*
%TO.N,Net-(U1-D1)*%
X24035000Y38340000D02*
X26300000Y36075000D01*
X23015000Y38340000D02*
X24035000Y38340000D01*
D31*
%TO.N,Net-(U1-D2)*%
X28250000Y36933520D02*
X28250000Y36075000D01*
X23130000Y39725000D02*
X23015000Y39610000D01*
D30*
X23015000Y39610000D02*
X25573520Y39610000D01*
X25573520Y39610000D02*
X28250000Y36933520D01*
%TO.N,CFG*%
X15940000Y51885000D02*
X16500000Y51325000D01*
X18915000Y48865000D02*
X18915000Y47655000D01*
X15940000Y55995000D02*
X15940000Y51885000D01*
D31*
X16310000Y51890000D02*
X16875000Y51325000D01*
D30*
X18875000Y47615000D02*
X16665000Y45405000D01*
X16665000Y45405000D02*
X16665000Y42150000D01*
D31*
X16920000Y42405000D02*
X16665000Y42150000D01*
D30*
X16915000Y50865000D02*
X18915000Y48865000D01*
D31*
X18915000Y47655000D02*
X18875000Y47615000D01*
D30*
%TO.N,Net-(D4-A)*%
X32500000Y34075000D02*
X32500000Y32225000D01*
D32*
%TO.N,Net-(J1-Pad1)*%
X14125000Y12200000D02*
X14125000Y10200000D01*
X14125000Y10200000D02*
X14125000Y4700000D01*
%TO.N,Net-(U1-RF)*%
X14125000Y14200000D02*
X14125000Y16700000D01*
D30*
X14125000Y16750000D02*
X14165000Y16710000D01*
D31*
%TO.N,CTS*%
X24875000Y47615000D02*
X24875000Y46950000D01*
D30*
X22750000Y44825000D02*
X20250000Y44825000D01*
X20250000Y44825000D02*
X19205000Y43780000D01*
X20500000Y55995000D02*
X24875000Y51620000D01*
X24875000Y51620000D02*
X24875000Y47615000D01*
X19205000Y43780000D02*
X19205000Y42150000D01*
X24875000Y46950000D02*
X22750000Y44825000D01*
%TO.N,Net-(D3-A)*%
X30550000Y34075000D02*
X30550000Y32225000D01*
%TO.N,RTS*%
X17935000Y43675000D02*
X17935000Y42150000D01*
X18220000Y55995000D02*
X21875000Y52340000D01*
X21875000Y47615000D02*
X17935000Y43675000D01*
X21875000Y52340000D02*
X21875000Y47615000D01*
D33*
%TO.N,Net-(JP1-B)*%
X35000000Y29893130D02*
X35000000Y32375000D01*
D31*
X23015000Y20560000D02*
X23015000Y20490000D01*
D33*
X25666870Y20560000D02*
X34490935Y29384065D01*
X37500000Y32375000D02*
X34509065Y29384065D01*
D31*
X24031000Y20560000D02*
X23015000Y20560000D01*
D33*
X25666870Y20560000D02*
X23015000Y20560000D01*
X34490935Y29384065D02*
X35000000Y29893130D01*
X34509065Y29384065D02*
X34490935Y29384065D01*
D30*
%TO.N,Net-(D2-A)*%
X28250000Y34075000D02*
X28250000Y32225000D01*
D31*
%TO.N,+3V3*%
X19360000Y58535000D02*
X19821996Y58535000D01*
D33*
X37500000Y52975000D02*
X27600000Y62875000D01*
D30*
X19205000Y16490000D02*
X19165000Y16450000D01*
D33*
X25500000Y18150000D02*
X25500000Y13000000D01*
X38706000Y37869000D02*
X38706000Y31356000D01*
X19205000Y16700000D02*
X19205000Y14200000D01*
D30*
X17080000Y58535000D02*
X15595000Y57050000D01*
X18156870Y51325000D02*
X18500000Y51325000D01*
D33*
X20625000Y11700000D02*
X24200000Y11700000D01*
X37500000Y39075000D02*
X38706000Y37869000D01*
D30*
X26750000Y51606996D02*
X26750000Y46350000D01*
X19205000Y16750000D02*
X19205000Y16490000D01*
D33*
X10400000Y62875000D02*
X10000000Y62475000D01*
D30*
X10325000Y57050000D02*
X9500000Y56225000D01*
D33*
X17080000Y58535000D02*
X19360000Y58535000D01*
D30*
X15595000Y57050000D02*
X10325000Y57050000D01*
D33*
X10785000Y59690000D02*
X15925000Y59690000D01*
X19205000Y14200000D02*
X19205000Y13120000D01*
X37500000Y39075000D02*
X37500000Y52975000D01*
X15925000Y59690000D02*
X17080000Y58535000D01*
D30*
X27905504Y51606996D02*
X28800000Y50712500D01*
D33*
X38706000Y31356000D02*
X25500000Y18150000D01*
D30*
X25500000Y13000000D02*
X25500000Y7950000D01*
X26750000Y51606996D02*
X27905504Y51606996D01*
D33*
X10000000Y60475000D02*
X10785000Y59690000D01*
X37500000Y33675000D02*
X37500000Y39075000D01*
D30*
X30500000Y42600000D02*
X30500000Y36075000D01*
X26750000Y46350000D02*
X30500000Y42600000D01*
D33*
X10000000Y62475000D02*
X10000000Y60475000D01*
X27600000Y62875000D02*
X10400000Y62875000D01*
D30*
X9500000Y56225000D02*
X9500000Y51325000D01*
D33*
X24200000Y11700000D02*
X25500000Y13000000D01*
D31*
X17080000Y58535000D02*
X16988004Y58535000D01*
X17080000Y58535000D02*
X16818004Y58535000D01*
D33*
X19205000Y13120000D02*
X20625000Y11700000D01*
D30*
X17080000Y58535000D02*
X17080000Y52401870D01*
X19821996Y58535000D02*
X26750000Y51606996D01*
D31*
X19730000Y58535000D02*
X19821996Y58535000D01*
D30*
X17080000Y52401870D02*
X18156870Y51325000D01*
D31*
%TO.N,+5V*%
X30700000Y50875000D02*
X30700000Y50712500D01*
D33*
X18590000Y61075000D02*
X20870000Y61075000D01*
D30*
X32500000Y48912500D02*
X32500000Y36075000D01*
D33*
X30700000Y50712500D02*
X35000000Y46412500D01*
X20500000Y61075000D02*
X30700000Y50875000D01*
D31*
X30700000Y50712500D02*
X32500000Y48912500D01*
D33*
X35000000Y46412500D02*
X35000000Y33675000D01*
D31*
%TO.N,TX*%
X11380000Y51445000D02*
X11500000Y51325000D01*
D30*
X11380000Y55995000D02*
X11380000Y51445000D01*
X12875000Y47615000D02*
X14125000Y46365000D01*
X11125000Y51325000D02*
X11125000Y49365000D01*
D31*
X11750000Y51575000D02*
X11500000Y51325000D01*
D30*
X14125000Y46365000D02*
X14125000Y42150000D01*
X11125000Y49365000D02*
X12875000Y47615000D01*
D31*
%TO.N,RX*%
X15875000Y47615000D02*
X15395000Y47135000D01*
D30*
X13660000Y49830000D02*
X15875000Y47615000D01*
D31*
X13660000Y55915000D02*
X13700000Y55875000D01*
D30*
X15395000Y47135000D02*
X15395000Y42150000D01*
X13660000Y55995000D02*
X13660000Y49830000D01*
D31*
X13660000Y55995000D02*
X13660000Y55915000D01*
%TD*%
%TA.AperFunction,Conductor*%
%TO.N,GND*%
G36*
X15125000Y3200000D02*
G01*
X13125000Y3200000D01*
X13125000Y3744142D01*
X13224036Y3645106D01*
X13400148Y3517153D01*
X13594115Y3418321D01*
X13801149Y3351053D01*
X14016154Y3317000D01*
X14016156Y3317000D01*
X14233846Y3317000D01*
X14448850Y3351053D01*
X14655884Y3418321D01*
X14655888Y3418323D01*
X14849850Y3517152D01*
X15025964Y3645106D01*
X15125000Y3744142D01*
X15125000Y3200000D01*
G37*
%TD.AperFunction*%
%TA.AperFunction,Conductor*%
G36*
X15125000Y5655858D02*
G01*
X15025964Y5754894D01*
X14950240Y5809909D01*
X14945642Y5817414D01*
X14945500Y5819213D01*
X14945500Y11555990D01*
X14947794Y11562882D01*
X14962123Y11582024D01*
X14992194Y11622195D01*
X15039475Y11748960D01*
X15045500Y11805000D01*
X15045500Y12595000D01*
X15045065Y12599037D01*
X15045000Y12600265D01*
X15045000Y13799733D01*
X15045066Y13800962D01*
X15045500Y13804999D01*
X15045500Y14595000D01*
X15039475Y14651038D01*
X15039475Y14651040D01*
X14992194Y14777805D01*
X14947793Y14837117D01*
X14945500Y14844008D01*
X14945500Y16780811D01*
X14913970Y16939325D01*
X14913969Y16939330D01*
X14854374Y17083203D01*
X14854373Y17083205D01*
X14853499Y17087605D01*
X14853499Y17306533D01*
X14853498Y17306546D01*
X14843307Y17406313D01*
X14843306Y17406315D01*
X14843306Y17406318D01*
X14789740Y17567973D01*
X14700337Y17712917D01*
X14579917Y17833337D01*
X14434973Y17922740D01*
X14434967Y17922741D01*
X14434965Y17922743D01*
X14379515Y17941116D01*
X14273318Y17976306D01*
X14273315Y17976306D01*
X14273313Y17976307D01*
X14235327Y17980187D01*
X14173539Y17986500D01*
X14076462Y17986499D01*
X14064485Y17985275D01*
X13976686Y17976307D01*
X13976683Y17976306D01*
X13976682Y17976306D01*
X13923111Y17958554D01*
X13815034Y17922743D01*
X13815029Y17922740D01*
X13815027Y17922740D01*
X13670083Y17833337D01*
X13549663Y17712917D01*
X13549661Y17712914D01*
X13460259Y17567971D01*
X13460256Y17567965D01*
X13406694Y17406319D01*
X13406692Y17406313D01*
X13396500Y17306547D01*
X13396500Y17087604D01*
X13395625Y17083203D01*
X13336030Y16939330D01*
X13336029Y16939325D01*
X13304500Y16780811D01*
X13304500Y14844008D01*
X13302206Y14837117D01*
X13257806Y14777805D01*
X13257806Y14777804D01*
X13210524Y14651038D01*
X13204500Y14595000D01*
X13204500Y13804999D01*
X13204934Y13800962D01*
X13205000Y13799733D01*
X13205000Y12600265D01*
X13204934Y12599035D01*
X13204500Y12594999D01*
X13204500Y11804999D01*
X13210524Y11748961D01*
X13257806Y11622195D01*
X13257808Y11622192D01*
X13302206Y11562882D01*
X13304500Y11555990D01*
X13304500Y5819213D01*
X13301132Y5811081D01*
X13299762Y5809912D01*
X13224036Y5754894D01*
X13125000Y5655858D01*
X13125000Y19200000D01*
X15125000Y19200000D01*
X15125000Y5655858D01*
G37*
%TD.AperFunction*%
%TD*%
%TA.AperFunction,Conductor*%
%TO.N,GND*%
G36*
X13125000Y8068553D02*
G01*
X13119297Y8071158D01*
X13093113Y8102871D01*
X13032782Y8207367D01*
X13032776Y8207374D01*
X12977702Y8279148D01*
X12319981Y7621427D01*
X12316106Y7630784D01*
X12225819Y7765907D01*
X12110907Y7880819D01*
X11975784Y7971106D01*
X11966427Y7974981D01*
X12624148Y8632702D01*
X12552374Y8687776D01*
X12552367Y8687781D01*
X12412363Y8768613D01*
X12364148Y8819180D01*
X12350924Y8887787D01*
X12376892Y8952652D01*
X12433806Y8993180D01*
X12474361Y9000000D01*
X12524970Y9000000D01*
X12524987Y9000001D01*
X12627697Y9010494D01*
X12794119Y9065641D01*
X12794124Y9065643D01*
X12943345Y9157684D01*
X13067317Y9281656D01*
X13094962Y9326475D01*
X13125000Y9353492D01*
X13125000Y8068553D01*
G37*
%TD.AperFunction*%
%TA.AperFunction,Conductor*%
G36*
X27429074Y62404815D02*
G01*
X27449716Y62388181D01*
X28491101Y61346794D01*
X28524586Y61285471D01*
X28519602Y61215779D01*
X28477730Y61159846D01*
X28412266Y61135429D01*
X28389535Y61135893D01*
X28326464Y61143000D01*
X28033536Y61143000D01*
X28033531Y61142999D01*
X27742469Y61110205D01*
X27742455Y61110202D01*
X27456875Y61045021D01*
X27456863Y61045017D01*
X27180395Y60948276D01*
X27180381Y60948270D01*
X26916476Y60821180D01*
X26668448Y60665334D01*
X26520890Y60547662D01*
X27239301Y59829251D01*
X27137670Y59755412D01*
X26959588Y59577330D01*
X26885747Y59475697D01*
X26167336Y60194108D01*
X26049665Y60046551D01*
X25893819Y59798523D01*
X25766729Y59534618D01*
X25766723Y59534604D01*
X25669982Y59258136D01*
X25669978Y59258124D01*
X25604797Y58972544D01*
X25604794Y58972530D01*
X25572000Y58681468D01*
X25572000Y58388531D01*
X25604794Y58097469D01*
X25604797Y58097455D01*
X25669978Y57811875D01*
X25669982Y57811863D01*
X25766723Y57535395D01*
X25766729Y57535381D01*
X25893819Y57271476D01*
X26049667Y57023444D01*
X26049670Y57023440D01*
X26167336Y56875890D01*
X26885747Y57594301D01*
X26959588Y57492670D01*
X27137670Y57314588D01*
X27239301Y57240747D01*
X26520890Y56522336D01*
X26668440Y56404670D01*
X26668444Y56404667D01*
X26916476Y56248819D01*
X27180381Y56121729D01*
X27180395Y56121723D01*
X27456863Y56024982D01*
X27456875Y56024978D01*
X27742455Y55959797D01*
X27742469Y55959794D01*
X28033531Y55927000D01*
X28326468Y55927000D01*
X28617530Y55959794D01*
X28617544Y55959797D01*
X28903124Y56024978D01*
X28903136Y56024982D01*
X29179604Y56121723D01*
X29179618Y56121729D01*
X29443523Y56248819D01*
X29691551Y56404665D01*
X29839108Y56522336D01*
X29120697Y57240747D01*
X29222330Y57314588D01*
X29400412Y57492670D01*
X29474251Y57594301D01*
X30192662Y56875890D01*
X30310334Y57023448D01*
X30466180Y57271476D01*
X30593270Y57535381D01*
X30593276Y57535395D01*
X30690017Y57811863D01*
X30690021Y57811875D01*
X30755202Y58097455D01*
X30755205Y58097469D01*
X30787999Y58388531D01*
X30788000Y58388535D01*
X30788000Y58681464D01*
X30780893Y58744535D01*
X30792947Y58813357D01*
X30840295Y58864737D01*
X30907906Y58882362D01*
X30974312Y58860636D01*
X30991794Y58846101D01*
X37013181Y52824715D01*
X37046666Y52763392D01*
X37049500Y52737034D01*
X37049500Y34441198D01*
X37029815Y34374159D01*
X36977011Y34328404D01*
X36972961Y34326640D01*
X36954257Y34318893D01*
X36905192Y34290565D01*
X36840240Y34253065D01*
X36797683Y34220409D01*
X36704590Y34127316D01*
X36671934Y34084759D01*
X36606108Y33970745D01*
X36606101Y33970731D01*
X36585580Y33921188D01*
X36551503Y33794013D01*
X36551502Y33794007D01*
X36544500Y33740832D01*
X36544500Y33174995D01*
X36549651Y33129272D01*
X36571144Y33084643D01*
X36582495Y33015701D01*
X36566951Y32978659D01*
X36570913Y32976752D01*
X36564851Y32964164D01*
X36544500Y32875004D01*
X36544500Y32309167D01*
X36551502Y32255992D01*
X36551503Y32255986D01*
X36573629Y32173414D01*
X36571966Y32103564D01*
X36541535Y32053639D01*
X36030500Y31542603D01*
X35662181Y31174284D01*
X35600858Y31140799D01*
X35531167Y31145783D01*
X35475233Y31187655D01*
X35450816Y31253119D01*
X35450500Y31261965D01*
X35450500Y31608801D01*
X35470185Y31675840D01*
X35522989Y31721595D01*
X35527045Y31723361D01*
X35545733Y31731102D01*
X35545745Y31731108D01*
X35659759Y31796934D01*
X35702316Y31829590D01*
X35795409Y31922683D01*
X35828065Y31965240D01*
X35875421Y32047262D01*
X35893893Y32079257D01*
X35903962Y32103564D01*
X35914419Y32128811D01*
X35914419Y32128813D01*
X35914422Y32128819D01*
X35948497Y32255986D01*
X35955500Y32309174D01*
X35955500Y32875000D01*
X35950348Y32920728D01*
X35934906Y32952793D01*
X35928857Y32965354D01*
X35917504Y33034295D01*
X35933055Y33071336D01*
X35929087Y33073248D01*
X35935148Y33085835D01*
X35935148Y33085836D01*
X35935149Y33085837D01*
X35955500Y33175000D01*
X35955500Y33740826D01*
X35948497Y33794014D01*
X35914422Y33921181D01*
X35893893Y33970743D01*
X35828067Y34084757D01*
X35795409Y34127317D01*
X35702317Y34220409D01*
X35659757Y34253067D01*
X35545743Y34318893D01*
X35527048Y34326636D01*
X35472645Y34370476D01*
X35450579Y34436770D01*
X35450500Y34441198D01*
X35450500Y46471806D01*
X35450500Y46471809D01*
X35419799Y46586386D01*
X35415076Y46594565D01*
X35394731Y46629806D01*
X35360493Y46689107D01*
X35360489Y46689114D01*
X31236819Y50812784D01*
X31203334Y50874107D01*
X31200500Y50900465D01*
X31200500Y51258260D01*
X31198690Y51270681D01*
X31190573Y51326393D01*
X31139198Y51431483D01*
X31056483Y51514198D01*
X30951393Y51565573D01*
X30896129Y51573625D01*
X30883261Y51575500D01*
X30883260Y51575500D01*
X30687965Y51575500D01*
X30620926Y51595185D01*
X30600284Y51611819D01*
X29297988Y52914115D01*
X21421780Y60790321D01*
X21388297Y60851642D01*
X21387846Y60902192D01*
X21404500Y60985912D01*
X21404500Y61164087D01*
X21380826Y61283103D01*
X21369740Y61338833D01*
X21301557Y61503441D01*
X21202571Y61651585D01*
X21076585Y61777571D01*
X20928441Y61876557D01*
X20763833Y61944740D01*
X20706649Y61956114D01*
X20589087Y61979500D01*
X20589085Y61979500D01*
X20410915Y61979500D01*
X20410913Y61979500D01*
X20236172Y61944741D01*
X20236167Y61944740D01*
X20071559Y61876557D01*
X19958656Y61801118D01*
X19923412Y61777569D01*
X19797431Y61651588D01*
X19797428Y61651584D01*
X19750004Y61580609D01*
X19696392Y61535804D01*
X19646902Y61525500D01*
X19073098Y61525500D01*
X19006059Y61545185D01*
X18969996Y61580609D01*
X18949153Y61611800D01*
X18922571Y61651585D01*
X18796585Y61777571D01*
X18648441Y61876557D01*
X18483833Y61944740D01*
X18426649Y61956114D01*
X18309087Y61979500D01*
X18309085Y61979500D01*
X18130915Y61979500D01*
X18130913Y61979500D01*
X17956172Y61944741D01*
X17956167Y61944740D01*
X17791559Y61876557D01*
X17678656Y61801118D01*
X17643412Y61777569D01*
X17517430Y61651587D01*
X17418441Y61503439D01*
X17349710Y61337506D01*
X17305869Y61283103D01*
X17239575Y61261038D01*
X17171875Y61278317D01*
X17124265Y61329455D01*
X17115923Y61352323D01*
X17115860Y61352303D01*
X17115278Y61354093D01*
X17114569Y61356038D01*
X17114350Y61356947D01*
X17055788Y61537182D01*
X17055787Y61537184D01*
X16969756Y61706027D01*
X16969746Y61706043D01*
X16950746Y61732192D01*
X16950745Y61732193D01*
X16382137Y61163585D01*
X16359333Y61248694D01*
X16300090Y61351306D01*
X16216306Y61435090D01*
X16113694Y61494333D01*
X16028585Y61517137D01*
X16597193Y62085745D01*
X16597192Y62085746D01*
X16571043Y62104746D01*
X16571027Y62104756D01*
X16403699Y62190016D01*
X16352903Y62237990D01*
X16336108Y62305811D01*
X16358646Y62371946D01*
X16413361Y62415397D01*
X16459994Y62424500D01*
X27362035Y62424500D01*
X27429074Y62404815D01*
G37*
%TD.AperFunction*%
%TA.AperFunction,Conductor*%
G36*
X29479268Y51454550D02*
G01*
X29500107Y51437789D01*
X30163181Y50774715D01*
X30196666Y50713392D01*
X30199500Y50687034D01*
X30199500Y50166739D01*
X30209426Y50098608D01*
X30260803Y49993514D01*
X30343514Y49910803D01*
X30448608Y49859426D01*
X30516739Y49849500D01*
X30874534Y49849500D01*
X30941573Y49829815D01*
X30962215Y49813181D01*
X32138181Y48637215D01*
X32171666Y48575892D01*
X32174500Y48549534D01*
X32174500Y36999500D01*
X32154815Y36932461D01*
X32102011Y36886706D01*
X32050500Y36875500D01*
X31995730Y36875500D01*
X31965300Y36872646D01*
X31965298Y36872646D01*
X31869163Y36839006D01*
X31837118Y36827793D01*
X31727850Y36747150D01*
X31647207Y36637882D01*
X31647206Y36637880D01*
X31642041Y36623118D01*
X31601320Y36566342D01*
X31536367Y36540595D01*
X31467805Y36554051D01*
X31417402Y36602439D01*
X31407959Y36623118D01*
X31405607Y36629840D01*
X31402793Y36637882D01*
X31322150Y36747150D01*
X31212882Y36827793D01*
X31119985Y36860299D01*
X31084700Y36872646D01*
X31054270Y36875500D01*
X31054266Y36875500D01*
X30949500Y36875500D01*
X30882461Y36895185D01*
X30836706Y36947989D01*
X30825500Y36999500D01*
X30825500Y42642851D01*
X30825500Y42642853D01*
X30806098Y42715264D01*
X30803318Y42725639D01*
X30760465Y42799862D01*
X27111819Y46448508D01*
X27078334Y46509831D01*
X27075500Y46536189D01*
X27075500Y47859350D01*
X28950000Y47859350D01*
X28952899Y47822510D01*
X28952900Y47822504D01*
X28998716Y47664806D01*
X28998717Y47664803D01*
X29082314Y47523447D01*
X29082321Y47523438D01*
X29198438Y47407321D01*
X29198447Y47407314D01*
X29339803Y47323717D01*
X29339806Y47323716D01*
X29497505Y47277900D01*
X29497502Y47277900D01*
X29500000Y47277703D01*
X30000000Y47277703D01*
X30002496Y47277900D01*
X30160193Y47323716D01*
X30160196Y47323717D01*
X30301552Y47407314D01*
X30301561Y47407321D01*
X30417678Y47523438D01*
X30417685Y47523447D01*
X30501282Y47664803D01*
X30501283Y47664806D01*
X30547099Y47822504D01*
X30547100Y47822510D01*
X30549999Y47859350D01*
X30550000Y47859365D01*
X30550000Y48187500D01*
X30000000Y48187500D01*
X30000000Y47277703D01*
X29500000Y47277703D01*
X29500000Y48187500D01*
X28950000Y48187500D01*
X28950000Y47859350D01*
X27075500Y47859350D01*
X27075500Y49015649D01*
X28950000Y49015649D01*
X28950000Y48687500D01*
X29500000Y48687500D01*
X30000000Y48687500D01*
X30550000Y48687500D01*
X30550000Y49015634D01*
X30549999Y49015649D01*
X30547100Y49052489D01*
X30547099Y49052495D01*
X30501283Y49210193D01*
X30501282Y49210196D01*
X30417685Y49351552D01*
X30417678Y49351561D01*
X30301561Y49467678D01*
X30301552Y49467685D01*
X30160198Y49551281D01*
X30002485Y49597100D01*
X30002488Y49597100D01*
X30000001Y49597295D01*
X30000000Y49597295D01*
X30000000Y48687500D01*
X29500000Y48687500D01*
X29500000Y49597295D01*
X29499998Y49597295D01*
X29497513Y49597100D01*
X29339801Y49551281D01*
X29198447Y49467685D01*
X29198438Y49467678D01*
X29082321Y49351561D01*
X29082314Y49351552D01*
X28998717Y49210196D01*
X28998716Y49210193D01*
X28952900Y49052495D01*
X28952899Y49052489D01*
X28950000Y49015649D01*
X27075500Y49015649D01*
X27075500Y51157496D01*
X27095185Y51224535D01*
X27147989Y51270290D01*
X27199500Y51281496D01*
X27719315Y51281496D01*
X27786354Y51261811D01*
X27806996Y51245177D01*
X28263181Y50788992D01*
X28296666Y50727669D01*
X28299500Y50701311D01*
X28299500Y50166739D01*
X28309426Y50098608D01*
X28360803Y49993514D01*
X28443514Y49910803D01*
X28548608Y49859426D01*
X28616739Y49849500D01*
X28616740Y49849500D01*
X28983261Y49849500D01*
X29051391Y49859426D01*
X29156485Y49910803D01*
X29239196Y49993514D01*
X29239196Y49993515D01*
X29239198Y49993517D01*
X29290573Y50098607D01*
X29300500Y50166740D01*
X29300500Y51258260D01*
X29290573Y51326393D01*
X29290572Y51326394D01*
X29289722Y51332229D01*
X29299534Y51401406D01*
X29345189Y51454297D01*
X29412192Y51474108D01*
X29479268Y51454550D01*
G37*
%TD.AperFunction*%
%TA.AperFunction,Conductor*%
G36*
X16950745Y60417806D02*
G01*
X16950746Y60417806D01*
X16969752Y60443966D01*
X17055789Y60612821D01*
X17114351Y60793054D01*
X17114570Y60793965D01*
X17114748Y60794275D01*
X17115860Y60797697D01*
X17116578Y60797463D01*
X17149350Y60854564D01*
X17211370Y60886739D01*
X17280940Y60880275D01*
X17335972Y60837226D01*
X17349710Y60812493D01*
X17418441Y60646561D01*
X17517430Y60498412D01*
X17643412Y60372430D01*
X17791560Y60273442D01*
X17956166Y60205260D01*
X17956172Y60205258D01*
X18130913Y60170500D01*
X18130915Y60170500D01*
X18309087Y60170500D01*
X18483827Y60205258D01*
X18483833Y60205260D01*
X18648439Y60273442D01*
X18648441Y60273443D01*
X18722513Y60322936D01*
X18796587Y60372430D01*
X18922568Y60498411D01*
X18922571Y60498415D01*
X18969996Y60569391D01*
X19023608Y60614196D01*
X19073098Y60624500D01*
X19646902Y60624500D01*
X19713941Y60604815D01*
X19750004Y60569391D01*
X19797428Y60498415D01*
X19797431Y60498411D01*
X19923412Y60372430D01*
X20071560Y60273442D01*
X20236166Y60205260D01*
X20236172Y60205258D01*
X20410913Y60170500D01*
X20410915Y60170500D01*
X20589087Y60170500D01*
X20672805Y60187153D01*
X20742397Y60180926D01*
X20784678Y60153217D01*
X29162788Y51775107D01*
X29196273Y51713784D01*
X29191289Y51644092D01*
X29149417Y51588159D01*
X29083953Y51563742D01*
X29057228Y51564722D01*
X29051395Y51565571D01*
X29051393Y51565573D01*
X28983260Y51575500D01*
X28616740Y51575500D01*
X28548607Y51565573D01*
X28533206Y51558043D01*
X28464334Y51546283D01*
X28400037Y51573625D01*
X28391085Y51581740D01*
X28105366Y51867461D01*
X28031143Y51910314D01*
X27948357Y51932496D01*
X27948355Y51932496D01*
X26936189Y51932496D01*
X26869150Y51952181D01*
X26848508Y51968815D01*
X20300819Y58516504D01*
X20267334Y58577827D01*
X20264500Y58604185D01*
X20264500Y58624087D01*
X20240541Y58744535D01*
X20229740Y58798833D01*
X20161557Y58963441D01*
X20062571Y59111585D01*
X19936585Y59237571D01*
X19788441Y59336557D01*
X19623833Y59404740D01*
X19543663Y59420687D01*
X19449087Y59439500D01*
X19449085Y59439500D01*
X19270915Y59439500D01*
X19270913Y59439500D01*
X19122183Y59409915D01*
X19096167Y59404740D01*
X18931559Y59336557D01*
X18814193Y59258136D01*
X18783412Y59237569D01*
X18657431Y59111588D01*
X18657428Y59111584D01*
X18610004Y59040609D01*
X18556392Y58995804D01*
X18506902Y58985500D01*
X17933098Y58985500D01*
X17866059Y59005185D01*
X17829996Y59040609D01*
X17791746Y59097853D01*
X17782571Y59111585D01*
X17656585Y59237571D01*
X17508441Y59336557D01*
X17343833Y59404740D01*
X17263663Y59420687D01*
X17169087Y59439500D01*
X17169085Y59439500D01*
X16990915Y59439500D01*
X16990913Y59439500D01*
X16907192Y59422846D01*
X16837601Y59429073D01*
X16795322Y59456779D01*
X16450461Y59801641D01*
X16416978Y59862961D01*
X16421962Y59932653D01*
X16463834Y59988586D01*
X16481848Y59999803D01*
X16571030Y60045244D01*
X16597192Y60064253D01*
X16597193Y60064253D01*
X16028584Y60632861D01*
X16113694Y60655667D01*
X16216306Y60714910D01*
X16300090Y60798694D01*
X16359333Y60901306D01*
X16382137Y60986414D01*
X16950745Y60417806D01*
G37*
%TD.AperFunction*%
%TA.AperFunction,Conductor*%
G36*
X14380667Y58361306D02*
G01*
X14439910Y58258694D01*
X14523694Y58174910D01*
X14626306Y58115667D01*
X14711414Y58092861D01*
X14142806Y57524253D01*
X14143989Y57509230D01*
X14129625Y57440852D01*
X14080574Y57391095D01*
X14020371Y57375500D01*
X13299629Y57375500D01*
X13232590Y57395185D01*
X13186835Y57447989D01*
X13176011Y57509228D01*
X13177193Y57524253D01*
X12608584Y58092861D01*
X12693694Y58115667D01*
X12796306Y58174910D01*
X12880090Y58258694D01*
X12939333Y58361306D01*
X12962137Y58446413D01*
X13530745Y57877806D01*
X13530746Y57877806D01*
X13549754Y57903967D01*
X13552300Y57908122D01*
X13553301Y57907508D01*
X13597492Y57954296D01*
X13665313Y57971090D01*
X13731447Y57948551D01*
X13766901Y57907635D01*
X13767699Y57908124D01*
X13770243Y57903972D01*
X13789253Y57877806D01*
X14357861Y58446414D01*
X14380667Y58361306D01*
G37*
%TD.AperFunction*%
%TA.AperFunction,Conductor*%
G36*
X13207045Y62404815D02*
G01*
X13252800Y62352011D01*
X13262744Y62282853D01*
X13233719Y62219297D01*
X13196301Y62190015D01*
X13028965Y62104752D01*
X13002806Y62085746D01*
X13002806Y62085745D01*
X13571414Y61517137D01*
X13486306Y61494333D01*
X13383694Y61435090D01*
X13299910Y61351306D01*
X13240667Y61248694D01*
X13217861Y61163584D01*
X12649253Y61732193D01*
X12649253Y61732192D01*
X12630244Y61706030D01*
X12627700Y61701878D01*
X12626701Y61702490D01*
X12582497Y61655697D01*
X12514674Y61638909D01*
X12448541Y61661455D01*
X12413095Y61702375D01*
X12412295Y61701885D01*
X12409746Y61706043D01*
X12390746Y61732192D01*
X12390745Y61732193D01*
X11822137Y61163585D01*
X11799333Y61248694D01*
X11740090Y61351306D01*
X11656306Y61435090D01*
X11553694Y61494333D01*
X11468584Y61517138D01*
X12037193Y62085745D01*
X12037192Y62085746D01*
X12011043Y62104746D01*
X12011027Y62104756D01*
X11843699Y62190016D01*
X11792903Y62237990D01*
X11776108Y62305811D01*
X11798646Y62371946D01*
X11853361Y62415397D01*
X11899994Y62424500D01*
X13140006Y62424500D01*
X13207045Y62404815D01*
G37*
%TD.AperFunction*%
%TA.AperFunction,Conductor*%
G36*
X15487045Y62404815D02*
G01*
X15532800Y62352011D01*
X15542744Y62282853D01*
X15513719Y62219297D01*
X15476301Y62190015D01*
X15308965Y62104752D01*
X15282806Y62085746D01*
X15282806Y62085745D01*
X15851414Y61517137D01*
X15766306Y61494333D01*
X15663694Y61435090D01*
X15579910Y61351306D01*
X15520667Y61248694D01*
X15497861Y61163584D01*
X14929253Y61732193D01*
X14929253Y61732192D01*
X14910244Y61706030D01*
X14907700Y61701878D01*
X14906701Y61702490D01*
X14862497Y61655697D01*
X14794674Y61638909D01*
X14728541Y61661455D01*
X14693095Y61702375D01*
X14692295Y61701885D01*
X14689746Y61706043D01*
X14670746Y61732192D01*
X14670745Y61732193D01*
X14102137Y61163585D01*
X14079333Y61248694D01*
X14020090Y61351306D01*
X13936306Y61435090D01*
X13833694Y61494333D01*
X13748585Y61517137D01*
X14317193Y62085745D01*
X14317192Y62085746D01*
X14291043Y62104746D01*
X14291027Y62104756D01*
X14123699Y62190016D01*
X14072903Y62237990D01*
X14056108Y62305811D01*
X14078646Y62371946D01*
X14133361Y62415397D01*
X14179994Y62424500D01*
X15420006Y62424500D01*
X15487045Y62404815D01*
G37*
%TD.AperFunction*%
%TA.AperFunction,Conductor*%
G36*
X33894711Y69979815D02*
G01*
X33940466Y69927011D01*
X33950410Y69857853D01*
X33921385Y69794297D01*
X33878390Y69763303D01*
X33878736Y69762563D01*
X33520161Y69595355D01*
X33520145Y69595347D01*
X33179856Y69398881D01*
X33179841Y69398872D01*
X32857957Y69173486D01*
X32598107Y68955445D01*
X32598106Y68955444D01*
X34337971Y67215580D01*
X34245441Y67144579D01*
X34055421Y66954559D01*
X33984418Y66862027D01*
X32244554Y68601892D01*
X32244553Y68601891D01*
X32026513Y68342042D01*
X31801127Y68020158D01*
X31801118Y68020143D01*
X31604652Y67679854D01*
X31604644Y67679838D01*
X31438588Y67323733D01*
X31438582Y67323718D01*
X31304182Y66954458D01*
X31202485Y66574913D01*
X31202482Y66574900D01*
X31134248Y66187930D01*
X31100000Y65796475D01*
X31100000Y65403524D01*
X31134248Y65012069D01*
X31202482Y64625099D01*
X31202485Y64625086D01*
X31304182Y64245541D01*
X31438582Y63876281D01*
X31438588Y63876266D01*
X31604644Y63520161D01*
X31604652Y63520145D01*
X31801118Y63179856D01*
X31801127Y63179841D01*
X32026508Y62857964D01*
X32244555Y62598107D01*
X33984419Y64337972D01*
X34055421Y64245441D01*
X34245441Y64055421D01*
X34337972Y63984419D01*
X32598107Y62244555D01*
X32857964Y62026508D01*
X33179841Y61801127D01*
X33179856Y61801118D01*
X33520145Y61604652D01*
X33520161Y61604644D01*
X33876266Y61438588D01*
X33876281Y61438582D01*
X34245541Y61304182D01*
X34625086Y61202485D01*
X34625099Y61202482D01*
X35012070Y61134248D01*
X35012068Y61134248D01*
X35403524Y61100000D01*
X35796475Y61100000D01*
X36187930Y61134248D01*
X36574900Y61202482D01*
X36574913Y61202485D01*
X36954458Y61304182D01*
X37323718Y61438582D01*
X37323733Y61438588D01*
X37679838Y61604644D01*
X37679854Y61604652D01*
X38020143Y61801118D01*
X38020158Y61801127D01*
X38342042Y62026513D01*
X38601891Y62244553D01*
X38601892Y62244554D01*
X36862027Y63984418D01*
X36954559Y64055421D01*
X37144579Y64245441D01*
X37215580Y64337971D01*
X38955444Y62598106D01*
X38955445Y62598107D01*
X39173486Y62857957D01*
X39398872Y63179841D01*
X39398881Y63179856D01*
X39595347Y63520145D01*
X39595355Y63520161D01*
X39762563Y63878736D01*
X39763499Y63878299D01*
X39804777Y63929525D01*
X39871071Y63951592D01*
X39938770Y63934315D01*
X39986382Y63883179D01*
X39999500Y63827671D01*
X39999500Y6172328D01*
X39979815Y6105289D01*
X39927011Y6059534D01*
X39857853Y6049590D01*
X39794297Y6078615D01*
X39763303Y6121609D01*
X39762563Y6121264D01*
X39595355Y6479838D01*
X39595347Y6479854D01*
X39398881Y6820143D01*
X39398872Y6820158D01*
X39173486Y7142042D01*
X38955445Y7401891D01*
X38955444Y7401892D01*
X37215580Y5662027D01*
X37144579Y5754559D01*
X36954559Y5944579D01*
X36862027Y6015580D01*
X38601892Y7755444D01*
X38601891Y7755445D01*
X38342042Y7973486D01*
X38020158Y8198872D01*
X38020143Y8198881D01*
X37679854Y8395347D01*
X37679838Y8395355D01*
X37323733Y8561411D01*
X37323718Y8561417D01*
X36954458Y8695817D01*
X36574913Y8797514D01*
X36574900Y8797517D01*
X36187929Y8865751D01*
X36187931Y8865751D01*
X35796475Y8900000D01*
X35403525Y8900000D01*
X35012069Y8865751D01*
X34625099Y8797517D01*
X34625086Y8797514D01*
X34245541Y8695817D01*
X33876281Y8561417D01*
X33876266Y8561411D01*
X33520161Y8395355D01*
X33520145Y8395347D01*
X33179856Y8198881D01*
X33179841Y8198872D01*
X32857957Y7973486D01*
X32598107Y7755445D01*
X32598106Y7755444D01*
X34337971Y6015580D01*
X34245441Y5944579D01*
X34055421Y5754559D01*
X33984418Y5662027D01*
X32244554Y7401892D01*
X32244553Y7401891D01*
X32026513Y7142042D01*
X31801127Y6820158D01*
X31801118Y6820143D01*
X31604652Y6479854D01*
X31604644Y6479838D01*
X31438588Y6123733D01*
X31438582Y6123718D01*
X31304182Y5754458D01*
X31202485Y5374913D01*
X31202482Y5374900D01*
X31134248Y4987930D01*
X31100000Y4596475D01*
X31100000Y4203524D01*
X31134248Y3812069D01*
X31202482Y3425099D01*
X31202485Y3425086D01*
X31304182Y3045541D01*
X31438582Y2676281D01*
X31438588Y2676266D01*
X31604644Y2320161D01*
X31604652Y2320145D01*
X31801118Y1979856D01*
X31801127Y1979841D01*
X32026508Y1657964D01*
X32244555Y1398107D01*
X33984419Y3137972D01*
X34055421Y3045441D01*
X34245441Y2855421D01*
X34337972Y2784419D01*
X32598107Y1044555D01*
X32857964Y826508D01*
X33179841Y601127D01*
X33179856Y601118D01*
X33520145Y404652D01*
X33520161Y404644D01*
X33878736Y237437D01*
X33878296Y236493D01*
X33929507Y195250D01*
X33951592Y128962D01*
X33934332Y61258D01*
X33883209Y13632D01*
X33827672Y500D01*
X6172328Y500D01*
X6105289Y20185D01*
X6059534Y72989D01*
X6049590Y142147D01*
X6078615Y205703D01*
X6121609Y236696D01*
X6121264Y237437D01*
X6479838Y404644D01*
X6479854Y404652D01*
X6820143Y601118D01*
X6820158Y601127D01*
X7142035Y826508D01*
X7241821Y910239D01*
X7241823Y910240D01*
X7401891Y1044553D01*
X7401892Y1044554D01*
X5662027Y2784418D01*
X5754559Y2855421D01*
X5944579Y3045441D01*
X6015579Y3137971D01*
X7755444Y1398106D01*
X7755445Y1398107D01*
X7973486Y1657957D01*
X8198872Y1979841D01*
X8198881Y1979856D01*
X8368633Y2273875D01*
X9847500Y2273875D01*
X9847500Y2046124D01*
X9847501Y2046108D01*
X9877228Y1820306D01*
X9936180Y1600296D01*
X10023338Y1389878D01*
X10023343Y1389867D01*
X10137216Y1192633D01*
X10137226Y1192619D01*
X10192296Y1120850D01*
X10850018Y1778572D01*
X10853894Y1769216D01*
X10944181Y1634093D01*
X11059093Y1519181D01*
X11194216Y1428894D01*
X11203572Y1425018D01*
X10545850Y767296D01*
X10545849Y767296D01*
X10617619Y712226D01*
X10617633Y712216D01*
X10814867Y598343D01*
X10814878Y598338D01*
X11025296Y511180D01*
X11245306Y452228D01*
X11471108Y422501D01*
X11471125Y422500D01*
X11698875Y422500D01*
X11698891Y422501D01*
X11924693Y452228D01*
X12144703Y511180D01*
X12355121Y598338D01*
X12355132Y598343D01*
X12552364Y712215D01*
X12552371Y712221D01*
X12624148Y767295D01*
X12624148Y767296D01*
X11966427Y1425018D01*
X11975784Y1428894D01*
X12110907Y1519181D01*
X12225819Y1634093D01*
X12316106Y1769216D01*
X12319981Y1778571D01*
X12977702Y1120850D01*
X12977703Y1120850D01*
X13032778Y1192626D01*
X13146656Y1389867D01*
X13146661Y1389878D01*
X13233819Y1600296D01*
X13292771Y1820306D01*
X13322498Y2046108D01*
X13322500Y2046124D01*
X13322500Y2273875D01*
X14927500Y2273875D01*
X14927500Y2046124D01*
X14927501Y2046108D01*
X14957228Y1820306D01*
X15016180Y1600296D01*
X15103338Y1389878D01*
X15103343Y1389867D01*
X15217216Y1192633D01*
X15217226Y1192619D01*
X15272296Y1120850D01*
X15930018Y1778572D01*
X15933894Y1769216D01*
X16024181Y1634093D01*
X16139093Y1519181D01*
X16274216Y1428894D01*
X16283572Y1425018D01*
X15625850Y767296D01*
X15625849Y767296D01*
X15697619Y712226D01*
X15697633Y712216D01*
X15894867Y598343D01*
X15894878Y598338D01*
X16105296Y511180D01*
X16325306Y452228D01*
X16551108Y422501D01*
X16551125Y422500D01*
X16778875Y422500D01*
X16778891Y422501D01*
X17004693Y452228D01*
X17224703Y511180D01*
X17435121Y598338D01*
X17435132Y598343D01*
X17632364Y712215D01*
X17632371Y712221D01*
X17704148Y767295D01*
X17704148Y767296D01*
X17046427Y1425018D01*
X17055784Y1428894D01*
X17190907Y1519181D01*
X17305819Y1634093D01*
X17396106Y1769216D01*
X17399981Y1778571D01*
X18057702Y1120850D01*
X18057703Y1120850D01*
X18112778Y1192626D01*
X18226656Y1389867D01*
X18226661Y1389878D01*
X18313819Y1600296D01*
X18372771Y1820306D01*
X18402498Y2046108D01*
X18402500Y2046124D01*
X18402500Y2273875D01*
X18402498Y2273891D01*
X18372771Y2499693D01*
X18313819Y2719703D01*
X18226661Y2930121D01*
X18226656Y2930132D01*
X18112782Y3127366D01*
X18112776Y3127374D01*
X18057702Y3199148D01*
X17399981Y2541427D01*
X17396106Y2550784D01*
X17305819Y2685907D01*
X17190907Y2800819D01*
X17055784Y2891106D01*
X17046427Y2894981D01*
X17704148Y3552702D01*
X17632374Y3607776D01*
X17632366Y3607782D01*
X17435132Y3721656D01*
X17435121Y3721661D01*
X17224703Y3808819D01*
X17004693Y3867771D01*
X16778891Y3897498D01*
X16778875Y3897500D01*
X16551125Y3897500D01*
X16551108Y3897498D01*
X16325306Y3867771D01*
X16105296Y3808819D01*
X15894878Y3721661D01*
X15894867Y3721656D01*
X15697626Y3607778D01*
X15625850Y3552703D01*
X15625850Y3552702D01*
X16283571Y2894981D01*
X16274216Y2891106D01*
X16139093Y2800819D01*
X16024181Y2685907D01*
X15933894Y2550784D01*
X15930018Y2541427D01*
X15272296Y3199148D01*
X15272295Y3199148D01*
X15217221Y3127371D01*
X15217215Y3127364D01*
X15103343Y2930132D01*
X15103338Y2930121D01*
X15016180Y2719703D01*
X14957228Y2499693D01*
X14927501Y2273891D01*
X14927500Y2273875D01*
X13322500Y2273875D01*
X13322498Y2273891D01*
X13292771Y2499693D01*
X13233819Y2719703D01*
X13146661Y2930121D01*
X13146656Y2930132D01*
X13032782Y3127366D01*
X13032776Y3127374D01*
X12977702Y3199148D01*
X12319981Y2541427D01*
X12316106Y2550784D01*
X12225819Y2685907D01*
X12110907Y2800819D01*
X11975784Y2891106D01*
X11966427Y2894981D01*
X12624148Y3552702D01*
X12552374Y3607776D01*
X12552366Y3607782D01*
X12355132Y3721656D01*
X12355121Y3721661D01*
X12144703Y3808819D01*
X11924693Y3867771D01*
X11698891Y3897498D01*
X11698875Y3897500D01*
X11471125Y3897500D01*
X11471108Y3897498D01*
X11245306Y3867771D01*
X11025296Y3808819D01*
X10814878Y3721661D01*
X10814867Y3721656D01*
X10617626Y3607778D01*
X10545850Y3552703D01*
X10545850Y3552702D01*
X11203571Y2894981D01*
X11194216Y2891106D01*
X11059093Y2800819D01*
X10944181Y2685907D01*
X10853894Y2550784D01*
X10850018Y2541427D01*
X10192296Y3199148D01*
X10192295Y3199148D01*
X10137221Y3127371D01*
X10137215Y3127364D01*
X10023343Y2930132D01*
X10023338Y2930121D01*
X9936180Y2719703D01*
X9877228Y2499693D01*
X9847501Y2273891D01*
X9847500Y2273875D01*
X8368633Y2273875D01*
X8395347Y2320145D01*
X8395355Y2320161D01*
X8400105Y2330346D01*
X8561411Y2676266D01*
X8561417Y2676281D01*
X8695817Y3045541D01*
X8797514Y3425086D01*
X8797518Y3425103D01*
X8815359Y3526282D01*
X8815359Y3526283D01*
X8865751Y3812069D01*
X8899999Y4203524D01*
X8900000Y4203525D01*
X8900000Y4596475D01*
X8865751Y4987930D01*
X8797517Y5374900D01*
X8797514Y5374913D01*
X8695817Y5754458D01*
X8660010Y5852839D01*
X8561414Y6123725D01*
X8561411Y6123733D01*
X8395355Y6479838D01*
X8395347Y6479854D01*
X8198881Y6820143D01*
X8198872Y6820158D01*
X7973486Y7142042D01*
X7859206Y7278235D01*
X7755445Y7401891D01*
X7755444Y7401892D01*
X6015580Y5662027D01*
X5944579Y5754559D01*
X5754559Y5944579D01*
X5662027Y6015580D01*
X7401892Y7755444D01*
X7401891Y7755445D01*
X7142042Y7973486D01*
X6820158Y8198872D01*
X6820143Y8198881D01*
X6479854Y8395347D01*
X6479838Y8395355D01*
X6123733Y8561411D01*
X6123718Y8561417D01*
X5754458Y8695817D01*
X5374913Y8797514D01*
X5374900Y8797517D01*
X4987929Y8865751D01*
X4987931Y8865751D01*
X4596475Y8900000D01*
X4203525Y8900000D01*
X3812069Y8865751D01*
X3425099Y8797517D01*
X3425086Y8797514D01*
X3045541Y8695817D01*
X2676281Y8561417D01*
X2676266Y8561411D01*
X2320161Y8395355D01*
X2320145Y8395347D01*
X1979856Y8198881D01*
X1979841Y8198872D01*
X1657957Y7973486D01*
X1398107Y7755445D01*
X1398106Y7755444D01*
X3137971Y6015580D01*
X3045441Y5944579D01*
X2855421Y5754559D01*
X2784418Y5662027D01*
X1044554Y7401892D01*
X1044553Y7401891D01*
X826513Y7142042D01*
X601127Y6820158D01*
X601118Y6820143D01*
X404652Y6479854D01*
X404644Y6479838D01*
X237437Y6121264D01*
X236493Y6121703D01*
X195250Y6070493D01*
X128962Y6048408D01*
X61258Y6065668D01*
X13632Y6116791D01*
X500Y6172328D01*
X500Y10699986D01*
X11025000Y10699986D01*
X11025000Y10450000D01*
X11875000Y10450000D01*
X11875000Y11399999D01*
X11725028Y11399999D01*
X11725013Y11399998D01*
X11622302Y11389505D01*
X11455880Y11334358D01*
X11455875Y11334356D01*
X11306654Y11242315D01*
X11182684Y11118345D01*
X11090643Y10969124D01*
X11090641Y10969119D01*
X11035494Y10802697D01*
X11035493Y10802690D01*
X11025000Y10699986D01*
X500Y10699986D01*
X500Y17307514D01*
X11847000Y17307514D01*
X11847000Y16192485D01*
X11855690Y16104242D01*
X12501448Y16750000D01*
X11855690Y17395756D01*
X11847000Y17307514D01*
X500Y17307514D01*
X500Y26967262D01*
X9098500Y26967262D01*
X9098500Y26852727D01*
X9104985Y26781354D01*
X9104988Y26781344D01*
X9156171Y26617090D01*
X9245186Y26469841D01*
X9245187Y26469840D01*
X9352347Y26362681D01*
X9385832Y26301358D01*
X9380848Y26231666D01*
X9352347Y26187319D01*
X9245186Y26080158D01*
X9156173Y25932913D01*
X9104986Y25768645D01*
X9098500Y25697262D01*
X9098500Y25582727D01*
X9104985Y25511354D01*
X9104988Y25511344D01*
X9156171Y25347090D01*
X9245186Y25199841D01*
X9245187Y25199840D01*
X9352347Y25092681D01*
X9385832Y25031358D01*
X9380848Y24961666D01*
X9352347Y24917319D01*
X9245186Y24810158D01*
X9156173Y24662913D01*
X9104986Y24498645D01*
X9098500Y24427262D01*
X9098500Y24312727D01*
X9104985Y24241354D01*
X9104988Y24241344D01*
X9156171Y24077090D01*
X9245186Y23929841D01*
X9245187Y23929840D01*
X9352347Y23822681D01*
X9385832Y23761358D01*
X9380848Y23691666D01*
X9352347Y23647319D01*
X9245186Y23540158D01*
X9156173Y23392913D01*
X9104986Y23228645D01*
X9098500Y23157262D01*
X9098500Y23042727D01*
X9104985Y22971354D01*
X9104988Y22971344D01*
X9156171Y22807090D01*
X9245186Y22659841D01*
X9245187Y22659840D01*
X9352347Y22552681D01*
X9385832Y22491358D01*
X9380848Y22421666D01*
X9352347Y22377319D01*
X9245186Y22270158D01*
X9156173Y22122913D01*
X9104986Y21958645D01*
X9098500Y21887262D01*
X9098500Y21772727D01*
X9104985Y21701354D01*
X9104988Y21701344D01*
X9156171Y21537090D01*
X9245186Y21389841D01*
X9245187Y21389840D01*
X9352347Y21282681D01*
X9385832Y21221358D01*
X9380848Y21151666D01*
X9352347Y21107319D01*
X9245186Y21000158D01*
X9156173Y20852913D01*
X9104986Y20688645D01*
X9098500Y20617262D01*
X9098500Y20502727D01*
X9104985Y20431354D01*
X9104988Y20431344D01*
X9156171Y20267090D01*
X9245186Y20119841D01*
X9366841Y19998186D01*
X9514086Y19909173D01*
X9678354Y19857986D01*
X9735466Y19852796D01*
X9749735Y19851500D01*
X9749736Y19851500D01*
X9749737Y19851500D01*
X10880273Y19851500D01*
X10880273Y19851501D01*
X10951644Y19857985D01*
X10951655Y19857988D01*
X11115909Y19909171D01*
X11115911Y19909172D01*
X11115913Y19909173D01*
X11263155Y19998184D01*
X11263156Y19998185D01*
X11263158Y19998186D01*
X11384813Y20119841D01*
X11384814Y20119843D01*
X11384816Y20119845D01*
X11473827Y20267087D01*
X11525013Y20431351D01*
X11531500Y20502735D01*
X11531499Y20617264D01*
X11531499Y20617265D01*
X11531499Y20617272D01*
X11525014Y20688645D01*
X11525011Y20688655D01*
X11473828Y20852909D01*
X11473827Y20852913D01*
X11384816Y21000155D01*
X11338152Y21046819D01*
X11277653Y21107319D01*
X11244168Y21168642D01*
X11249152Y21238334D01*
X11277653Y21282681D01*
X11384813Y21389841D01*
X11384814Y21389843D01*
X11384816Y21389845D01*
X11473827Y21537087D01*
X11525013Y21701351D01*
X11531500Y21772735D01*
X11531499Y21887264D01*
X11531499Y21887265D01*
X11531499Y21887272D01*
X11525014Y21958645D01*
X11525011Y21958655D01*
X11473828Y22122909D01*
X11473827Y22122913D01*
X11384816Y22270155D01*
X11384812Y22270159D01*
X11277653Y22377319D01*
X11244168Y22438642D01*
X11249152Y22508334D01*
X11277653Y22552681D01*
X11384813Y22659841D01*
X11384814Y22659843D01*
X11384816Y22659845D01*
X11473827Y22807087D01*
X11525013Y22971351D01*
X11531500Y23042735D01*
X11531499Y23157264D01*
X11531499Y23157265D01*
X11531499Y23157272D01*
X11525014Y23228645D01*
X11525011Y23228655D01*
X11473828Y23392909D01*
X11473827Y23392913D01*
X11384816Y23540155D01*
X11384812Y23540159D01*
X11277653Y23647319D01*
X11244168Y23708642D01*
X11249152Y23778334D01*
X11277653Y23822681D01*
X11384813Y23929841D01*
X11384814Y23929843D01*
X11384816Y23929845D01*
X11473827Y24077087D01*
X11525013Y24241351D01*
X11531500Y24312735D01*
X11531499Y24427264D01*
X11531499Y24427265D01*
X11531499Y24427272D01*
X11525014Y24498645D01*
X11525011Y24498655D01*
X11473828Y24662909D01*
X11473827Y24662913D01*
X11384816Y24810155D01*
X11384812Y24810159D01*
X11277653Y24917319D01*
X11244168Y24978642D01*
X11249152Y25048334D01*
X11277653Y25092681D01*
X11384813Y25199841D01*
X11384814Y25199843D01*
X11384816Y25199845D01*
X11473827Y25347087D01*
X11525013Y25511351D01*
X11531500Y25582735D01*
X11531499Y25697264D01*
X11531499Y25697265D01*
X11531499Y25697272D01*
X11525014Y25768645D01*
X11525011Y25768655D01*
X11473828Y25932909D01*
X11473827Y25932913D01*
X11384816Y26080155D01*
X11384812Y26080159D01*
X11277653Y26187319D01*
X11244168Y26248642D01*
X11249152Y26318334D01*
X11277653Y26362681D01*
X11384813Y26469841D01*
X11384814Y26469843D01*
X11384816Y26469845D01*
X11473827Y26617087D01*
X11525013Y26781351D01*
X11531500Y26852735D01*
X11531499Y26967264D01*
X11531499Y26967265D01*
X11531499Y26967272D01*
X11525014Y27038645D01*
X11525011Y27038655D01*
X11473828Y27202909D01*
X11473827Y27202913D01*
X11384816Y27350155D01*
X11263155Y27471816D01*
X11115913Y27560827D01*
X10951649Y27612013D01*
X10880265Y27618500D01*
X9749736Y27618499D01*
X9749727Y27618499D01*
X9678355Y27612014D01*
X9678344Y27612011D01*
X9514090Y27560828D01*
X9514087Y27560827D01*
X9366845Y27471816D01*
X9366843Y27471814D01*
X9366841Y27471813D01*
X9245186Y27350158D01*
X9156173Y27202913D01*
X9104986Y27038645D01*
X9098500Y26967262D01*
X500Y26967262D01*
X500Y29800013D01*
X25100001Y29800013D01*
X25110494Y29697302D01*
X25165641Y29530880D01*
X25165643Y29530875D01*
X25257684Y29381654D01*
X25381654Y29257684D01*
X25530875Y29165643D01*
X25530880Y29165641D01*
X25697302Y29110494D01*
X25697309Y29110493D01*
X25800013Y29100000D01*
X26050000Y29100000D01*
X26550000Y29100000D01*
X26799970Y29100000D01*
X26799987Y29100001D01*
X26902697Y29110494D01*
X27069119Y29165641D01*
X27069124Y29165643D01*
X27209903Y29252477D01*
X27277296Y29270917D01*
X27340097Y29252477D01*
X27480875Y29165643D01*
X27480880Y29165641D01*
X27647302Y29110494D01*
X27647309Y29110493D01*
X27750013Y29100000D01*
X28000000Y29100000D01*
X28500000Y29100000D01*
X28749970Y29100000D01*
X28749987Y29100001D01*
X28852697Y29110494D01*
X29019119Y29165641D01*
X29019124Y29165643D01*
X29168345Y29257684D01*
X29292316Y29381655D01*
X29292318Y29381658D01*
X29294464Y29385136D01*
X29296557Y29387018D01*
X29296798Y29387323D01*
X29296849Y29387281D01*
X29346413Y29431858D01*
X29415376Y29443078D01*
X29479457Y29415232D01*
X29505536Y29385136D01*
X29507681Y29381658D01*
X29507683Y29381655D01*
X29631654Y29257684D01*
X29780875Y29165643D01*
X29780880Y29165641D01*
X29947302Y29110494D01*
X29947309Y29110493D01*
X30050013Y29100000D01*
X30300000Y29100000D01*
X30800000Y29100000D01*
X31049970Y29100000D01*
X31049987Y29100001D01*
X31152697Y29110494D01*
X31319119Y29165641D01*
X31319124Y29165643D01*
X31468345Y29257684D01*
X31487319Y29276658D01*
X31548642Y29310143D01*
X31618334Y29305159D01*
X31662681Y29276658D01*
X31681654Y29257684D01*
X31830875Y29165643D01*
X31830880Y29165641D01*
X31997302Y29110494D01*
X31997309Y29110493D01*
X32100013Y29100000D01*
X32350000Y29100000D01*
X32350000Y29925000D01*
X30800000Y29925000D01*
X30800000Y29100000D01*
X30300000Y29100000D01*
X30300000Y29925000D01*
X28500000Y29925000D01*
X28500000Y29100000D01*
X28000000Y29100000D01*
X28000000Y29925000D01*
X26550000Y29925000D01*
X26550000Y29100000D01*
X26050000Y29100000D01*
X26050000Y29925000D01*
X25100001Y29925000D01*
X25100001Y29800013D01*
X500Y29800013D01*
X500Y39667262D01*
X9098500Y39667262D01*
X9098500Y39552727D01*
X9104985Y39481354D01*
X9104988Y39481344D01*
X9156171Y39317090D01*
X9245186Y39169841D01*
X9245187Y39169840D01*
X9352347Y39062681D01*
X9385832Y39001358D01*
X9380848Y38931666D01*
X9352347Y38887319D01*
X9245186Y38780158D01*
X9245184Y38780155D01*
X9245181Y38780150D01*
X9156173Y38632913D01*
X9104986Y38468645D01*
X9098500Y38397262D01*
X9098500Y38282727D01*
X9104985Y38211354D01*
X9104988Y38211344D01*
X9156171Y38047090D01*
X9245186Y37899841D01*
X9245187Y37899840D01*
X9352347Y37792681D01*
X9385832Y37731358D01*
X9380848Y37661666D01*
X9352347Y37617319D01*
X9245186Y37510158D01*
X9245184Y37510155D01*
X9156173Y37362913D01*
X9109768Y37213990D01*
X9104986Y37198645D01*
X9098500Y37127262D01*
X9098500Y37012727D01*
X9104985Y36941354D01*
X9104988Y36941344D01*
X9156171Y36777090D01*
X9245186Y36629841D01*
X9245187Y36629840D01*
X9357836Y36517192D01*
X9391321Y36455869D01*
X9386337Y36386177D01*
X9357836Y36341830D01*
X9254209Y36238203D01*
X9165196Y36090958D01*
X9114009Y35926690D01*
X9109467Y35876712D01*
X9107701Y35857262D01*
X9107523Y35855307D01*
X9107523Y35740772D01*
X9114008Y35669399D01*
X9114011Y35669389D01*
X9165194Y35505135D01*
X9254208Y35357888D01*
X9355882Y35256214D01*
X9389366Y35194891D01*
X9384382Y35125199D01*
X9355882Y35080853D01*
X9245188Y34970159D01*
X9245185Y34970156D01*
X9156173Y34822913D01*
X9104986Y34658645D01*
X9098500Y34587262D01*
X9098500Y34472727D01*
X9104985Y34401354D01*
X9104988Y34401344D01*
X9156171Y34237090D01*
X9245186Y34089841D01*
X9245187Y34089840D01*
X9352347Y33982681D01*
X9385832Y33921358D01*
X9380848Y33851666D01*
X9352347Y33807319D01*
X9245186Y33700158D01*
X9245184Y33700155D01*
X9227396Y33670730D01*
X9156173Y33552913D01*
X9104986Y33388645D01*
X9098500Y33317262D01*
X9098500Y33202727D01*
X9104985Y33131354D01*
X9104988Y33131344D01*
X9156171Y32967090D01*
X9245186Y32819841D01*
X9245187Y32819840D01*
X9352347Y32712681D01*
X9385832Y32651358D01*
X9380848Y32581666D01*
X9352347Y32537319D01*
X9245186Y32430158D01*
X9156173Y32282913D01*
X9104986Y32118645D01*
X9098500Y32047262D01*
X9098500Y31932727D01*
X9104985Y31861354D01*
X9104988Y31861344D01*
X9156171Y31697090D01*
X9245186Y31549841D01*
X9245187Y31549840D01*
X9352347Y31442681D01*
X9385832Y31381358D01*
X9380848Y31311666D01*
X9352347Y31267319D01*
X9245186Y31160158D01*
X9156173Y31012913D01*
X9104986Y30848645D01*
X9102304Y30819124D01*
X9098996Y30782716D01*
X9098500Y30777262D01*
X9098500Y30662727D01*
X9104985Y30591354D01*
X9104988Y30591344D01*
X9156171Y30427090D01*
X9245186Y30279841D01*
X9366841Y30158186D01*
X9514086Y30069173D01*
X9678354Y30017986D01*
X9735466Y30012796D01*
X9749735Y30011500D01*
X9749736Y30011500D01*
X9749737Y30011500D01*
X10880273Y30011500D01*
X10880273Y30011501D01*
X10951644Y30017985D01*
X10951655Y30017988D01*
X11115909Y30069171D01*
X11115911Y30069172D01*
X11115913Y30069173D01*
X11263155Y30158184D01*
X11263158Y30158186D01*
X11384813Y30279841D01*
X11384814Y30279843D01*
X11384816Y30279845D01*
X11473827Y30427087D01*
X11525013Y30591351D01*
X11531500Y30662735D01*
X11531499Y30777264D01*
X11531499Y30777265D01*
X11531499Y30777272D01*
X11525014Y30848645D01*
X11525011Y30848655D01*
X11473828Y31012909D01*
X11473827Y31012913D01*
X11384816Y31160155D01*
X11357316Y31187655D01*
X11277653Y31267319D01*
X11244168Y31328642D01*
X11249152Y31398334D01*
X11277653Y31442681D01*
X11384813Y31549841D01*
X11384814Y31549843D01*
X11384816Y31549845D01*
X11473827Y31697087D01*
X11525013Y31861351D01*
X11531500Y31932735D01*
X11531499Y32047264D01*
X11531499Y32047265D01*
X11531499Y32047272D01*
X11525014Y32118645D01*
X11525011Y32118655D01*
X11507948Y32173414D01*
X11473827Y32282913D01*
X11384816Y32430155D01*
X11384812Y32430159D01*
X11277653Y32537319D01*
X11244168Y32598642D01*
X11249152Y32668334D01*
X11277653Y32712681D01*
X11384813Y32819841D01*
X11384814Y32819843D01*
X11384816Y32819845D01*
X11473827Y32967087D01*
X11525013Y33131351D01*
X11531500Y33202735D01*
X11531499Y33317264D01*
X11531499Y33317265D01*
X11531499Y33317272D01*
X11525014Y33388645D01*
X11525011Y33388655D01*
X11520588Y33402850D01*
X11473827Y33552913D01*
X11384816Y33700155D01*
X11344139Y33740832D01*
X11277653Y33807319D01*
X11244168Y33868642D01*
X11249152Y33938334D01*
X11277653Y33982681D01*
X11384813Y34089841D01*
X11384814Y34089843D01*
X11384816Y34089845D01*
X11473827Y34237087D01*
X11525013Y34401351D01*
X11531500Y34472735D01*
X11531499Y34587264D01*
X11531499Y34587265D01*
X11531499Y34587272D01*
X11525014Y34658645D01*
X11525011Y34658655D01*
X11473827Y34822913D01*
X11384816Y34970155D01*
X11283140Y35071830D01*
X11249656Y35133151D01*
X11254640Y35202842D01*
X11283141Y35247191D01*
X11393836Y35357886D01*
X11393837Y35357888D01*
X11393839Y35357890D01*
X11482850Y35505132D01*
X11534036Y35669396D01*
X11540523Y35740780D01*
X11540522Y35855309D01*
X11540522Y35855310D01*
X11540522Y35855317D01*
X11534037Y35926690D01*
X11534034Y35926700D01*
X11482851Y36090954D01*
X11482850Y36090958D01*
X11393839Y36238200D01*
X11281185Y36350853D01*
X11247701Y36412174D01*
X11252685Y36481866D01*
X11281186Y36526214D01*
X11384813Y36629841D01*
X11384814Y36629843D01*
X11384816Y36629845D01*
X11473827Y36777087D01*
X11525013Y36941351D01*
X11531500Y37012735D01*
X11531499Y37127264D01*
X11531499Y37127265D01*
X11531499Y37127272D01*
X11525014Y37198645D01*
X11525011Y37198655D01*
X11520233Y37213989D01*
X11473827Y37362913D01*
X11384816Y37510155D01*
X11382820Y37512151D01*
X11277653Y37617319D01*
X11244168Y37678642D01*
X11249152Y37748334D01*
X11277653Y37792681D01*
X11384813Y37899841D01*
X11384814Y37899843D01*
X11384816Y37899845D01*
X11473827Y38047087D01*
X11525013Y38211351D01*
X11531500Y38282735D01*
X11531499Y38397264D01*
X11531499Y38397265D01*
X11531499Y38397272D01*
X11525014Y38468645D01*
X11525011Y38468655D01*
X11483938Y38600465D01*
X11473827Y38632913D01*
X11384816Y38780155D01*
X11384812Y38780159D01*
X11277653Y38887319D01*
X11244168Y38948642D01*
X11249152Y39018334D01*
X11277653Y39062681D01*
X11384813Y39169841D01*
X11384814Y39169843D01*
X11384816Y39169845D01*
X11473827Y39317087D01*
X11525013Y39481351D01*
X11531500Y39552735D01*
X11531499Y39667262D01*
X21798500Y39667262D01*
X21798500Y39552727D01*
X21804985Y39481354D01*
X21804988Y39481344D01*
X21856171Y39317090D01*
X21945186Y39169841D01*
X21945187Y39169840D01*
X22052347Y39062681D01*
X22085832Y39001358D01*
X22080848Y38931666D01*
X22052347Y38887319D01*
X21945186Y38780158D01*
X21945184Y38780155D01*
X21945181Y38780150D01*
X21856173Y38632913D01*
X21804986Y38468645D01*
X21798500Y38397262D01*
X21798500Y38282727D01*
X21804985Y38211354D01*
X21804988Y38211344D01*
X21856171Y38047090D01*
X21945186Y37899841D01*
X21945187Y37899840D01*
X22052347Y37792681D01*
X22085832Y37731358D01*
X22080848Y37661666D01*
X22052347Y37617319D01*
X21945186Y37510158D01*
X21945184Y37510155D01*
X21856173Y37362913D01*
X21809768Y37213990D01*
X21804986Y37198645D01*
X21798500Y37127262D01*
X21798500Y37012727D01*
X21804985Y36941354D01*
X21804988Y36941344D01*
X21856171Y36777090D01*
X21945186Y36629841D01*
X21945187Y36629840D01*
X22052347Y36522681D01*
X22085832Y36461358D01*
X22080848Y36391666D01*
X22052347Y36347319D01*
X21945186Y36240158D01*
X21856173Y36092913D01*
X21804986Y35928645D01*
X21798500Y35857262D01*
X21798500Y35742727D01*
X21804985Y35671354D01*
X21804988Y35671344D01*
X21856171Y35507090D01*
X21945186Y35359841D01*
X21945187Y35359840D01*
X22052347Y35252681D01*
X22085832Y35191358D01*
X22080848Y35121666D01*
X22052347Y35077319D01*
X21945186Y34970158D01*
X21856173Y34822913D01*
X21804986Y34658645D01*
X21798500Y34587262D01*
X21798500Y34472727D01*
X21804985Y34401354D01*
X21804988Y34401344D01*
X21856171Y34237090D01*
X21945186Y34089841D01*
X21945187Y34089840D01*
X22052347Y33982681D01*
X22085832Y33921358D01*
X22080848Y33851666D01*
X22052347Y33807319D01*
X21945186Y33700158D01*
X21945184Y33700155D01*
X21927396Y33670730D01*
X21856173Y33552913D01*
X21804986Y33388645D01*
X21798500Y33317262D01*
X21798500Y33202727D01*
X21804985Y33131354D01*
X21804988Y33131344D01*
X21856171Y32967090D01*
X21945186Y32819841D01*
X21945187Y32819840D01*
X22052347Y32712681D01*
X22085832Y32651358D01*
X22080848Y32581666D01*
X22052347Y32537319D01*
X21945186Y32430158D01*
X21856173Y32282913D01*
X21804986Y32118645D01*
X21798500Y32047262D01*
X21798500Y31932727D01*
X21804985Y31861354D01*
X21804988Y31861344D01*
X21856171Y31697090D01*
X21945186Y31549841D01*
X21945187Y31549840D01*
X22052347Y31442681D01*
X22085832Y31381358D01*
X22080848Y31311666D01*
X22052347Y31267319D01*
X21945186Y31160158D01*
X21856173Y31012913D01*
X21804986Y30848645D01*
X21802304Y30819124D01*
X21798996Y30782716D01*
X21798500Y30777262D01*
X21798500Y30662727D01*
X21804985Y30591354D01*
X21804988Y30591344D01*
X21856171Y30427090D01*
X21945186Y30279841D01*
X22066841Y30158186D01*
X22214086Y30069173D01*
X22378354Y30017986D01*
X22435466Y30012796D01*
X22449735Y30011500D01*
X22449736Y30011500D01*
X22449737Y30011500D01*
X23580273Y30011500D01*
X23580273Y30011501D01*
X23651644Y30017985D01*
X23651655Y30017988D01*
X23815909Y30069171D01*
X23815911Y30069172D01*
X23815913Y30069173D01*
X23963155Y30158184D01*
X23963158Y30158186D01*
X24084813Y30279841D01*
X24084814Y30279843D01*
X24084816Y30279845D01*
X24173827Y30427087D01*
X24212123Y30549986D01*
X25100000Y30549986D01*
X25100000Y30425000D01*
X33799999Y30425000D01*
X33799999Y30549971D01*
X33799998Y30549986D01*
X33789505Y30652697D01*
X33734358Y30819119D01*
X33734356Y30819124D01*
X33642315Y30968345D01*
X33518345Y31092315D01*
X33369124Y31184356D01*
X33369117Y31184359D01*
X33200918Y31240094D01*
X33143473Y31279866D01*
X33116649Y31344382D01*
X33128964Y31413158D01*
X33176506Y31464358D01*
X33198965Y31474841D01*
X33262882Y31497207D01*
X33303150Y31526926D01*
X33372150Y31577850D01*
X33452793Y31687118D01*
X33469083Y31733671D01*
X33497646Y31815298D01*
X33497646Y31815300D01*
X33500500Y31845730D01*
X33500500Y32604269D01*
X33497646Y32634699D01*
X33497646Y32634701D01*
X33457959Y32748118D01*
X33452793Y32762882D01*
X33372150Y32872150D01*
X33262882Y32952793D01*
X33177426Y32982695D01*
X33134700Y32997646D01*
X33104270Y33000500D01*
X33104266Y33000500D01*
X32949500Y33000500D01*
X32940814Y33003050D01*
X32931853Y33001762D01*
X32907812Y33012740D01*
X32882461Y33020185D01*
X32876533Y33027025D01*
X32868297Y33030787D01*
X32854007Y33053021D01*
X32836706Y33072989D01*
X32834418Y33083503D01*
X32830523Y33089565D01*
X32825500Y33124500D01*
X32825500Y33150500D01*
X32845185Y33217539D01*
X32897989Y33263294D01*
X32949500Y33274500D01*
X33004270Y33274500D01*
X33034699Y33277353D01*
X33034701Y33277353D01*
X33162880Y33322206D01*
X33162882Y33322207D01*
X33272150Y33402850D01*
X33352793Y33512118D01*
X33386835Y33609404D01*
X33397646Y33640298D01*
X33397646Y33640300D01*
X33400500Y33670730D01*
X33400500Y34479269D01*
X33397646Y34509699D01*
X33397646Y34509701D01*
X33375219Y34573790D01*
X33352793Y34637882D01*
X33272150Y34747150D01*
X33162882Y34827793D01*
X33077426Y34857695D01*
X33034700Y34872646D01*
X33004270Y34875500D01*
X33004266Y34875500D01*
X31995734Y34875500D01*
X31995730Y34875500D01*
X31965300Y34872646D01*
X31965298Y34872646D01*
X31869163Y34839006D01*
X31837118Y34827793D01*
X31727850Y34747150D01*
X31662538Y34658655D01*
X31647207Y34637882D01*
X31647206Y34637880D01*
X31642041Y34623118D01*
X31601320Y34566342D01*
X31536367Y34540595D01*
X31467805Y34554051D01*
X31417402Y34602439D01*
X31407959Y34623118D01*
X31402793Y34637882D01*
X31322150Y34747150D01*
X31212882Y34827793D01*
X31127426Y34857695D01*
X31084700Y34872646D01*
X31054270Y34875500D01*
X31054266Y34875500D01*
X30045734Y34875500D01*
X30045730Y34875500D01*
X30015300Y34872646D01*
X30015298Y34872646D01*
X29919163Y34839006D01*
X29887118Y34827793D01*
X29777850Y34747150D01*
X29712538Y34658655D01*
X29697207Y34637882D01*
X29697206Y34637880D01*
X29652353Y34509701D01*
X29652353Y34509699D01*
X29649500Y34479269D01*
X29649500Y33670730D01*
X29652353Y33640300D01*
X29652353Y33640298D01*
X29697206Y33512119D01*
X29697207Y33512117D01*
X29777850Y33402850D01*
X29887117Y33322207D01*
X29887119Y33322206D01*
X30015299Y33277353D01*
X30045730Y33274500D01*
X30045734Y33274500D01*
X30100500Y33274500D01*
X30109185Y33271949D01*
X30118147Y33273238D01*
X30142187Y33262259D01*
X30167539Y33254815D01*
X30173466Y33247974D01*
X30181703Y33244213D01*
X30195992Y33221978D01*
X30213294Y33202011D01*
X30215581Y33191496D01*
X30219477Y33185435D01*
X30224500Y33150500D01*
X30224500Y33124500D01*
X30204815Y33057461D01*
X30152011Y33011706D01*
X30100500Y33000500D01*
X30045730Y33000500D01*
X30015300Y32997646D01*
X30015298Y32997646D01*
X29927968Y32967087D01*
X29887118Y32952793D01*
X29777850Y32872150D01*
X29739244Y32819840D01*
X29697207Y32762882D01*
X29697206Y32762880D01*
X29652353Y32634701D01*
X29652353Y32634699D01*
X29649500Y32604269D01*
X29649500Y31845730D01*
X29652353Y31815300D01*
X29652353Y31815298D01*
X29697206Y31687119D01*
X29697207Y31687117D01*
X29777850Y31577850D01*
X29887117Y31497207D01*
X29951033Y31474842D01*
X30007808Y31434120D01*
X30033555Y31369167D01*
X30020098Y31300605D01*
X29971711Y31250203D01*
X29949081Y31240095D01*
X29780880Y31184358D01*
X29780875Y31184356D01*
X29631654Y31092315D01*
X29507682Y30968343D01*
X29505539Y30964868D01*
X29503445Y30962984D01*
X29503202Y30962677D01*
X29503149Y30962718D01*
X29453592Y30918143D01*
X29384629Y30906920D01*
X29320547Y30934763D01*
X29294461Y30964868D01*
X29292317Y30968343D01*
X29168345Y31092315D01*
X29019124Y31184356D01*
X29019117Y31184359D01*
X28850918Y31240094D01*
X28793473Y31279866D01*
X28766649Y31344382D01*
X28778964Y31413158D01*
X28826506Y31464358D01*
X28848965Y31474841D01*
X28912882Y31497207D01*
X28953150Y31526926D01*
X29022150Y31577850D01*
X29102793Y31687118D01*
X29119083Y31733671D01*
X29147646Y31815298D01*
X29147646Y31815300D01*
X29150500Y31845730D01*
X29150500Y32604269D01*
X29147646Y32634699D01*
X29147646Y32634701D01*
X29107959Y32748118D01*
X29102793Y32762882D01*
X29022150Y32872150D01*
X28912882Y32952793D01*
X28827426Y32982695D01*
X28784700Y32997646D01*
X28754270Y33000500D01*
X28754266Y33000500D01*
X28699500Y33000500D01*
X28690814Y33003050D01*
X28681853Y33001762D01*
X28657812Y33012740D01*
X28632461Y33020185D01*
X28626533Y33027025D01*
X28618297Y33030787D01*
X28604007Y33053021D01*
X28586706Y33072989D01*
X28584418Y33083503D01*
X28580523Y33089565D01*
X28575500Y33124500D01*
X28575500Y33150500D01*
X28595185Y33217539D01*
X28647989Y33263294D01*
X28699500Y33274500D01*
X28754270Y33274500D01*
X28784699Y33277353D01*
X28784701Y33277353D01*
X28912880Y33322206D01*
X28912882Y33322207D01*
X29022150Y33402850D01*
X29102793Y33512118D01*
X29136835Y33609404D01*
X29147646Y33640298D01*
X29147646Y33640300D01*
X29150500Y33670730D01*
X29150500Y34479269D01*
X29147646Y34509699D01*
X29147646Y34509701D01*
X29125219Y34573790D01*
X29102793Y34637882D01*
X29022150Y34747150D01*
X28912882Y34827793D01*
X28827426Y34857695D01*
X28784700Y34872646D01*
X28754270Y34875500D01*
X28754266Y34875500D01*
X27745734Y34875500D01*
X27745730Y34875500D01*
X27715300Y34872646D01*
X27715298Y34872646D01*
X27619163Y34839006D01*
X27587118Y34827793D01*
X27477850Y34747150D01*
X27412538Y34658655D01*
X27397207Y34637882D01*
X27397206Y34637880D01*
X27392041Y34623118D01*
X27351320Y34566342D01*
X27286367Y34540595D01*
X27217805Y34554051D01*
X27167402Y34602439D01*
X27157959Y34623118D01*
X27152793Y34637882D01*
X27072150Y34747150D01*
X26962882Y34827793D01*
X26877426Y34857695D01*
X26834700Y34872646D01*
X26804270Y34875500D01*
X26804266Y34875500D01*
X25795734Y34875500D01*
X25795730Y34875500D01*
X25765300Y34872646D01*
X25765298Y34872646D01*
X25669163Y34839006D01*
X25637118Y34827793D01*
X25527850Y34747150D01*
X25462538Y34658655D01*
X25447207Y34637882D01*
X25447206Y34637880D01*
X25402353Y34509701D01*
X25402353Y34509699D01*
X25399500Y34479269D01*
X25399500Y33670730D01*
X25402353Y33640300D01*
X25402353Y33640298D01*
X25447206Y33512119D01*
X25447207Y33512117D01*
X25527850Y33402850D01*
X25637117Y33322207D01*
X25637119Y33322206D01*
X25765299Y33277353D01*
X25795730Y33274500D01*
X25795734Y33274500D01*
X25850500Y33274500D01*
X25859185Y33271949D01*
X25868147Y33273238D01*
X25892187Y33262259D01*
X25917539Y33254815D01*
X25923466Y33247974D01*
X25931703Y33244213D01*
X25945992Y33221978D01*
X25963294Y33202011D01*
X25965581Y33191496D01*
X25969477Y33185435D01*
X25974500Y33150500D01*
X25974500Y33124500D01*
X25954815Y33057461D01*
X25902011Y33011706D01*
X25850500Y33000500D01*
X25795730Y33000500D01*
X25765300Y32997646D01*
X25765298Y32997646D01*
X25677968Y32967087D01*
X25637118Y32952793D01*
X25527850Y32872150D01*
X25489244Y32819840D01*
X25447207Y32762882D01*
X25447206Y32762880D01*
X25402353Y32634701D01*
X25402353Y32634699D01*
X25399500Y32604269D01*
X25399500Y31845730D01*
X25402353Y31815300D01*
X25402353Y31815298D01*
X25447206Y31687119D01*
X25447207Y31687117D01*
X25527850Y31577850D01*
X25637117Y31497207D01*
X25701033Y31474842D01*
X25757808Y31434120D01*
X25783555Y31369167D01*
X25770098Y31300605D01*
X25721711Y31250203D01*
X25699081Y31240095D01*
X25530880Y31184358D01*
X25530875Y31184356D01*
X25381654Y31092315D01*
X25257684Y30968345D01*
X25165643Y30819124D01*
X25165641Y30819119D01*
X25110494Y30652697D01*
X25110493Y30652690D01*
X25100000Y30549986D01*
X24212123Y30549986D01*
X24225013Y30591351D01*
X24231500Y30662735D01*
X24231499Y30777264D01*
X24231499Y30777265D01*
X24231499Y30777272D01*
X24225014Y30848645D01*
X24225011Y30848655D01*
X24173828Y31012909D01*
X24173827Y31012913D01*
X24084816Y31160155D01*
X24057316Y31187655D01*
X23977653Y31267319D01*
X23944168Y31328642D01*
X23949152Y31398334D01*
X23977653Y31442681D01*
X24084813Y31549841D01*
X24084814Y31549843D01*
X24084816Y31549845D01*
X24173827Y31697087D01*
X24225013Y31861351D01*
X24231500Y31932735D01*
X24231499Y32047264D01*
X24231499Y32047265D01*
X24231499Y32047272D01*
X24225014Y32118645D01*
X24225011Y32118655D01*
X24207948Y32173414D01*
X24173827Y32282913D01*
X24084816Y32430155D01*
X24084812Y32430159D01*
X23977653Y32537319D01*
X23944168Y32598642D01*
X23949152Y32668334D01*
X23977653Y32712681D01*
X24084813Y32819841D01*
X24084814Y32819843D01*
X24084816Y32819845D01*
X24173827Y32967087D01*
X24225013Y33131351D01*
X24231500Y33202735D01*
X24231499Y33317264D01*
X24231499Y33317265D01*
X24231499Y33317272D01*
X24225014Y33388645D01*
X24225011Y33388655D01*
X24220588Y33402850D01*
X24173827Y33552913D01*
X24084816Y33700155D01*
X24044139Y33740832D01*
X23977653Y33807319D01*
X23944168Y33868642D01*
X23949152Y33938334D01*
X23977653Y33982681D01*
X24084813Y34089841D01*
X24084814Y34089843D01*
X24084816Y34089845D01*
X24173827Y34237087D01*
X24225013Y34401351D01*
X24231500Y34472735D01*
X24231499Y34587264D01*
X24231499Y34587265D01*
X24231499Y34587272D01*
X24225014Y34658645D01*
X24225011Y34658655D01*
X24173827Y34822913D01*
X24084816Y34970155D01*
X24084812Y34970159D01*
X23977653Y35077319D01*
X23944168Y35138642D01*
X23949152Y35208334D01*
X23977653Y35252681D01*
X24084813Y35359841D01*
X24084814Y35359843D01*
X24084816Y35359845D01*
X24173827Y35507087D01*
X24225013Y35671351D01*
X24231500Y35742735D01*
X24231499Y35857264D01*
X24231499Y35857265D01*
X24231499Y35857272D01*
X24225014Y35928645D01*
X24225011Y35928655D01*
X24173828Y36092909D01*
X24173827Y36092913D01*
X24084816Y36240155D01*
X24084812Y36240159D01*
X23977653Y36347319D01*
X23944168Y36408642D01*
X23949152Y36478334D01*
X23977653Y36522681D01*
X24084813Y36629841D01*
X24084814Y36629843D01*
X24084816Y36629845D01*
X24173827Y36777087D01*
X24225013Y36941351D01*
X24231500Y37012735D01*
X24231499Y37127264D01*
X24231499Y37127265D01*
X24231499Y37127272D01*
X24225014Y37198645D01*
X24225011Y37198655D01*
X24173828Y37362910D01*
X24173827Y37362912D01*
X24173827Y37362913D01*
X24124446Y37444598D01*
X24106610Y37512151D01*
X24128127Y37578625D01*
X24182167Y37622913D01*
X24251573Y37630954D01*
X24314308Y37600196D01*
X24318244Y37596428D01*
X25363181Y36551492D01*
X25396666Y36490169D01*
X25399500Y36463811D01*
X25399500Y35670730D01*
X25402353Y35640300D01*
X25402353Y35640298D01*
X25447206Y35512119D01*
X25447207Y35512117D01*
X25527850Y35402850D01*
X25637117Y35322207D01*
X25637119Y35322206D01*
X25765299Y35277353D01*
X25795730Y35274500D01*
X25795734Y35274500D01*
X26804270Y35274500D01*
X26834699Y35277353D01*
X26834701Y35277353D01*
X26962880Y35322206D01*
X26962882Y35322207D01*
X27072150Y35402850D01*
X27152793Y35512118D01*
X27157959Y35526884D01*
X27198682Y35583658D01*
X27263635Y35609404D01*
X27332196Y35595947D01*
X27382598Y35547559D01*
X27392041Y35526883D01*
X27397208Y35512116D01*
X27477850Y35402850D01*
X27587117Y35322207D01*
X27587119Y35322206D01*
X27715299Y35277353D01*
X27745730Y35274500D01*
X27745734Y35274500D01*
X28754270Y35274500D01*
X28784699Y35277353D01*
X28784701Y35277353D01*
X28912880Y35322206D01*
X28912882Y35322207D01*
X29022150Y35402850D01*
X29102793Y35512118D01*
X29136835Y35609404D01*
X29147646Y35640298D01*
X29147646Y35640300D01*
X29150500Y35670730D01*
X29150500Y36479269D01*
X29147646Y36509699D01*
X29147646Y36509701D01*
X29107959Y36623118D01*
X29102793Y36637882D01*
X29022150Y36747150D01*
X28912882Y36827793D01*
X28819985Y36860299D01*
X28784700Y36872646D01*
X28754270Y36875500D01*
X28754266Y36875500D01*
X28722958Y36875500D01*
X28655919Y36895185D01*
X28610164Y36947989D01*
X28603270Y36971992D01*
X28602603Y36971814D01*
X28600500Y36979664D01*
X28576614Y37068808D01*
X28530469Y37148732D01*
X28465212Y37213989D01*
X28395692Y37254126D01*
X28370018Y37273827D01*
X25773382Y39870465D01*
X25699159Y39913318D01*
X25616373Y39935500D01*
X25616371Y39935500D01*
X24224064Y39935500D01*
X24157025Y39955185D01*
X24117947Y39995350D01*
X24084818Y40050151D01*
X24084816Y40050155D01*
X23963155Y40171816D01*
X23815913Y40260827D01*
X23651649Y40312013D01*
X23580265Y40318500D01*
X22449736Y40318499D01*
X22449727Y40318499D01*
X22378355Y40312014D01*
X22378344Y40312011D01*
X22214090Y40260828D01*
X22214087Y40260827D01*
X22066845Y40171816D01*
X22066843Y40171814D01*
X22066841Y40171813D01*
X21945186Y40050158D01*
X21945184Y40050155D01*
X21916365Y40002482D01*
X21856173Y39902913D01*
X21804986Y39738645D01*
X21798500Y39667262D01*
X11531499Y39667262D01*
X11531499Y39667264D01*
X11531499Y39667265D01*
X11531499Y39667272D01*
X11525014Y39738645D01*
X11525011Y39738655D01*
X11483938Y39870465D01*
X11473827Y39902913D01*
X11384816Y40050155D01*
X11263155Y40171816D01*
X11115913Y40260827D01*
X10951649Y40312013D01*
X10880265Y40318500D01*
X9749736Y40318499D01*
X9749727Y40318499D01*
X9678355Y40312014D01*
X9678344Y40312011D01*
X9514090Y40260828D01*
X9514087Y40260827D01*
X9366845Y40171816D01*
X9366843Y40171814D01*
X9366841Y40171813D01*
X9245186Y40050158D01*
X9245184Y40050155D01*
X9216365Y40002482D01*
X9156173Y39902913D01*
X9104986Y39738645D01*
X9098500Y39667262D01*
X500Y39667262D01*
X500Y42627671D01*
X20185Y42694710D01*
X72989Y42740465D01*
X142147Y42750409D01*
X205703Y42721384D01*
X236701Y42678393D01*
X237437Y42678736D01*
X404644Y42320161D01*
X404652Y42320145D01*
X601118Y41979856D01*
X601127Y41979841D01*
X826508Y41657964D01*
X1044555Y41398107D01*
X2784419Y43137972D01*
X2855421Y43045441D01*
X3045441Y42855421D01*
X3137972Y42784419D01*
X1398107Y41044555D01*
X1657964Y40826508D01*
X1979841Y40601127D01*
X1979856Y40601118D01*
X2320145Y40404652D01*
X2320161Y40404644D01*
X2676266Y40238588D01*
X2676281Y40238582D01*
X3045541Y40104182D01*
X3425086Y40002485D01*
X3425099Y40002482D01*
X3812070Y39934248D01*
X3812068Y39934248D01*
X4203524Y39900000D01*
X4596475Y39900000D01*
X4987930Y39934248D01*
X5374900Y40002482D01*
X5374913Y40002485D01*
X5754458Y40104182D01*
X6123718Y40238582D01*
X6123733Y40238588D01*
X6479838Y40404644D01*
X6479854Y40404652D01*
X6820143Y40601118D01*
X6820158Y40601127D01*
X7142042Y40826513D01*
X7401891Y41044553D01*
X7401892Y41044554D01*
X5662027Y42784418D01*
X5754559Y42855421D01*
X5944579Y43045441D01*
X6015579Y43137971D01*
X7755444Y41398106D01*
X7755445Y41398107D01*
X7973486Y41657957D01*
X8198872Y41979841D01*
X8198881Y41979856D01*
X8395347Y42320145D01*
X8395355Y42320161D01*
X8561411Y42676266D01*
X8561414Y42676274D01*
X8572785Y42707514D01*
X11847000Y42707514D01*
X11847000Y41592485D01*
X11855690Y41504242D01*
X12501448Y42150000D01*
X11855690Y42795756D01*
X11847000Y42707514D01*
X8572785Y42707514D01*
X8589331Y42752973D01*
X8695817Y43045541D01*
X8797514Y43425086D01*
X8797517Y43425099D01*
X8865751Y43812069D01*
X8899999Y44203524D01*
X8900000Y44203525D01*
X8900000Y44596475D01*
X8865751Y44987930D01*
X8797517Y45374900D01*
X8797514Y45374913D01*
X8695817Y45754458D01*
X8561417Y46123718D01*
X8561411Y46123733D01*
X8395355Y46479838D01*
X8395347Y46479854D01*
X8198881Y46820143D01*
X8198872Y46820158D01*
X7973486Y47142042D01*
X7755445Y47401891D01*
X7755444Y47401892D01*
X6015580Y45662027D01*
X5944579Y45754559D01*
X5754559Y45944579D01*
X5662027Y46015580D01*
X7401892Y47755444D01*
X7401891Y47755445D01*
X7142042Y47973486D01*
X6820158Y48198872D01*
X6820143Y48198881D01*
X6479854Y48395347D01*
X6479838Y48395355D01*
X6123733Y48561411D01*
X6123718Y48561417D01*
X5754458Y48695817D01*
X5374913Y48797514D01*
X5374900Y48797517D01*
X4987929Y48865751D01*
X4987931Y48865751D01*
X4596475Y48900000D01*
X4203525Y48900000D01*
X3812069Y48865751D01*
X3425099Y48797517D01*
X3425086Y48797514D01*
X3045541Y48695817D01*
X2676281Y48561417D01*
X2676266Y48561411D01*
X2320161Y48395355D01*
X2320145Y48395347D01*
X1979856Y48198881D01*
X1979841Y48198872D01*
X1657957Y47973486D01*
X1398107Y47755445D01*
X1398106Y47755444D01*
X3137971Y46015580D01*
X3045441Y45944579D01*
X2855421Y45754559D01*
X2784418Y45662027D01*
X1044554Y47401892D01*
X1044553Y47401891D01*
X826513Y47142042D01*
X601127Y46820158D01*
X601118Y46820143D01*
X404652Y46479854D01*
X404644Y46479838D01*
X237437Y46121264D01*
X236493Y46121703D01*
X195250Y46070493D01*
X128962Y46048408D01*
X61258Y46065668D01*
X13632Y46116791D01*
X500Y46172328D01*
X500Y55837852D01*
X7174500Y55837852D01*
X7174500Y49947147D01*
X7196682Y49864359D01*
X7239535Y49790138D01*
X7239537Y49790135D01*
X8763349Y48266322D01*
X8796834Y48204999D01*
X8791850Y48135307D01*
X8786153Y48122347D01*
X8762456Y48075839D01*
X8762453Y48075832D01*
X8704059Y47896118D01*
X8674500Y47709486D01*
X8674500Y47520513D01*
X8704059Y47333881D01*
X8762454Y47154163D01*
X8848240Y46985800D01*
X8911610Y46898579D01*
X8959310Y46832927D01*
X8959312Y46832925D01*
X8959312Y46832924D01*
X9092924Y46699312D01*
X9245800Y46588240D01*
X9414163Y46502454D01*
X9593881Y46444059D01*
X9780514Y46414500D01*
X9780519Y46414500D01*
X9969486Y46414500D01*
X10156118Y46444059D01*
X10335836Y46502454D01*
X10504199Y46588240D01*
X10657073Y46699310D01*
X10790690Y46832927D01*
X10901760Y46985801D01*
X10957242Y47094690D01*
X10987545Y47154163D01*
X11045940Y47333881D01*
X11075500Y47520513D01*
X11075500Y47709486D01*
X11045940Y47896118D01*
X11020801Y47973486D01*
X10987547Y48075832D01*
X10901760Y48244199D01*
X10790690Y48397073D01*
X10657073Y48530690D01*
X10504199Y48641760D01*
X10337594Y48726649D01*
X10335836Y48727545D01*
X10335835Y48727545D01*
X10335832Y48727547D01*
X10156118Y48785940D01*
X9969486Y48815500D01*
X9969481Y48815500D01*
X9780519Y48815500D01*
X9780514Y48815500D01*
X9593881Y48785940D01*
X9549499Y48771519D01*
X9414168Y48727547D01*
X9414166Y48727546D01*
X9414160Y48727544D01*
X9367650Y48703846D01*
X9298981Y48690950D01*
X9234241Y48717227D01*
X9223684Y48726641D01*
X7861817Y50088509D01*
X7828334Y50149830D01*
X7825500Y50176188D01*
X7825500Y55608811D01*
X7845185Y55675850D01*
X7861819Y55696492D01*
X9814639Y57649312D01*
X9875962Y57682797D01*
X9945654Y57677813D01*
X9949769Y57676194D01*
X9963587Y57670470D01*
X9976167Y57665260D01*
X9976168Y57665259D01*
X9976170Y57665259D01*
X9976173Y57665258D01*
X10150913Y57630500D01*
X10150915Y57630500D01*
X10329087Y57630500D01*
X10503827Y57665258D01*
X10503833Y57665260D01*
X10668439Y57733442D01*
X10668441Y57733443D01*
X10742513Y57782936D01*
X10816587Y57832430D01*
X10942569Y57958412D01*
X10989995Y58029391D01*
X11041557Y58106559D01*
X11109740Y58271167D01*
X11109741Y58271170D01*
X11110289Y58272493D01*
X11154130Y58326896D01*
X11220424Y58348961D01*
X11288123Y58331682D01*
X11335734Y58280545D01*
X11344077Y58257676D01*
X11344140Y58257697D01*
X11344712Y58255936D01*
X11345424Y58253985D01*
X11345644Y58253067D01*
X11404210Y58072821D01*
X11490245Y57903969D01*
X11509253Y57877806D01*
X12077861Y58446414D01*
X12100667Y58361306D01*
X12159910Y58258694D01*
X12243694Y58174910D01*
X12346306Y58115667D01*
X12431415Y58092861D01*
X11862806Y57524253D01*
X11863989Y57509230D01*
X11849625Y57440852D01*
X11800574Y57391095D01*
X11740371Y57375500D01*
X10367853Y57375500D01*
X10282147Y57375500D01*
X10199361Y57353318D01*
X10125138Y57310465D01*
X9239535Y56424862D01*
X9196682Y56350639D01*
X9182663Y56298318D01*
X9174500Y56267854D01*
X9174500Y52345802D01*
X9154815Y52278763D01*
X9102011Y52233008D01*
X9072480Y52225122D01*
X9072670Y52224256D01*
X9065298Y52222646D01*
X8983592Y52194055D01*
X8937118Y52177793D01*
X8827850Y52097150D01*
X8801019Y52060795D01*
X8747207Y51987882D01*
X8747206Y51987880D01*
X8702353Y51859701D01*
X8702353Y51859699D01*
X8699500Y51829269D01*
X8699500Y50820730D01*
X8702353Y50790300D01*
X8702353Y50790298D01*
X8747206Y50662119D01*
X8747207Y50662117D01*
X8827850Y50552850D01*
X8937117Y50472207D01*
X8937119Y50472206D01*
X9065299Y50427353D01*
X9095730Y50424500D01*
X9095734Y50424500D01*
X9904270Y50424500D01*
X9934699Y50427353D01*
X9934701Y50427353D01*
X10062880Y50472206D01*
X10062882Y50472207D01*
X10172150Y50552850D01*
X10252793Y50662118D01*
X10266507Y50701311D01*
X10297646Y50790298D01*
X10297646Y50790300D01*
X10300500Y50820730D01*
X10300500Y51829269D01*
X10297646Y51859699D01*
X10297646Y51859701D01*
X10265285Y51952181D01*
X10252793Y51987882D01*
X10172150Y52097150D01*
X10062882Y52177793D01*
X9998790Y52200219D01*
X9934701Y52222646D01*
X9927330Y52224256D01*
X9927793Y52226379D01*
X9873018Y52248198D01*
X9832391Y52305041D01*
X9825500Y52345802D01*
X9825500Y56038811D01*
X9845185Y56105850D01*
X9861819Y56126492D01*
X10263819Y56528492D01*
X10325142Y56561977D01*
X10394834Y56556993D01*
X10450767Y56515121D01*
X10475184Y56449657D01*
X10475500Y56440811D01*
X10475500Y55271247D01*
X10487131Y55212770D01*
X10487132Y55212769D01*
X10531447Y55146447D01*
X10597769Y55102132D01*
X10597770Y55102131D01*
X10656247Y55090500D01*
X10656252Y55090500D01*
X10930500Y55090500D01*
X10997539Y55070815D01*
X11043294Y55018011D01*
X11054500Y54966500D01*
X11054500Y52306849D01*
X11034815Y52239810D01*
X10982011Y52194055D01*
X10971453Y52189807D01*
X10937120Y52177794D01*
X10937118Y52177793D01*
X10827850Y52097150D01*
X10801019Y52060795D01*
X10747207Y51987882D01*
X10747206Y51987880D01*
X10702353Y51859701D01*
X10702353Y51859699D01*
X10699500Y51829269D01*
X10699500Y50820730D01*
X10702353Y50790300D01*
X10702353Y50790298D01*
X10747206Y50662119D01*
X10747209Y50662113D01*
X10775270Y50624093D01*
X10799241Y50558464D01*
X10799500Y50550460D01*
X10799500Y49322147D01*
X10821682Y49239359D01*
X10864535Y49165138D01*
X10864537Y49165135D01*
X11763349Y48266323D01*
X11796834Y48205000D01*
X11791850Y48135308D01*
X11786153Y48122348D01*
X11762455Y48075839D01*
X11704059Y47896118D01*
X11674500Y47709486D01*
X11674500Y47520513D01*
X11704059Y47333881D01*
X11762454Y47154163D01*
X11848240Y46985800D01*
X11911610Y46898579D01*
X11959310Y46832927D01*
X11959312Y46832925D01*
X11959312Y46832924D01*
X12092924Y46699312D01*
X12245800Y46588240D01*
X12414163Y46502454D01*
X12593881Y46444059D01*
X12780514Y46414500D01*
X12780519Y46414500D01*
X12969486Y46414500D01*
X13156118Y46444059D01*
X13335832Y46502453D01*
X13335839Y46502456D01*
X13382347Y46526153D01*
X13451016Y46539049D01*
X13515756Y46512772D01*
X13526322Y46503349D01*
X13763181Y46266491D01*
X13796666Y46205168D01*
X13799500Y46178810D01*
X13799500Y43442599D01*
X13779815Y43375560D01*
X13727011Y43329805D01*
X13657853Y43319861D01*
X13594297Y43348886D01*
X13579645Y43363936D01*
X13571210Y43374213D01*
X13417725Y43500174D01*
X13417718Y43500179D01*
X13242612Y43593775D01*
X13052605Y43651414D01*
X13052603Y43651415D01*
X12904515Y43666000D01*
X12805485Y43666000D01*
X12657396Y43651415D01*
X12657394Y43651414D01*
X12467387Y43593775D01*
X12292281Y43500179D01*
X12292274Y43500174D01*
X12138790Y43374214D01*
X12069170Y43289381D01*
X12069170Y43289380D01*
X12944095Y42414457D01*
X12977580Y42353134D01*
X12972596Y42283443D01*
X12944095Y42239095D01*
X12855000Y42150000D01*
X12944095Y42060905D01*
X12977579Y41999582D01*
X12972595Y41929890D01*
X12944094Y41885543D01*
X12069170Y41010619D01*
X12069169Y41010617D01*
X12138787Y40925787D01*
X12292274Y40799825D01*
X12292281Y40799820D01*
X12467387Y40706224D01*
X12657394Y40648585D01*
X12657396Y40648584D01*
X12805485Y40634000D01*
X12904515Y40634000D01*
X13052603Y40648584D01*
X13052605Y40648585D01*
X13242612Y40706224D01*
X13417718Y40799820D01*
X13417725Y40799825D01*
X13571212Y40925787D01*
X13625469Y40991900D01*
X13683214Y41031234D01*
X13753059Y41033105D01*
X13785470Y41019353D01*
X13830884Y40991900D01*
X13832087Y40991173D01*
X13972129Y40947534D01*
X13996354Y40939986D01*
X14053466Y40934796D01*
X14067735Y40933500D01*
X14067736Y40933500D01*
X14067737Y40933500D01*
X14182272Y40933500D01*
X14253645Y40939985D01*
X14253655Y40939988D01*
X14417909Y40991171D01*
X14417911Y40991172D01*
X14417913Y40991173D01*
X14565155Y41080184D01*
X14565158Y41080186D01*
X14672319Y41187347D01*
X14733642Y41220832D01*
X14803334Y41215848D01*
X14847681Y41187347D01*
X14954840Y41080187D01*
X14954841Y41080186D01*
X15102086Y40991173D01*
X15266354Y40939986D01*
X15323466Y40934796D01*
X15337735Y40933500D01*
X15337736Y40933500D01*
X15337737Y40933500D01*
X15452272Y40933500D01*
X15523645Y40939985D01*
X15523655Y40939988D01*
X15687909Y40991171D01*
X15687911Y40991172D01*
X15687913Y40991173D01*
X15835155Y41080184D01*
X15835158Y41080186D01*
X15942319Y41187347D01*
X16003642Y41220832D01*
X16073334Y41215848D01*
X16117681Y41187347D01*
X16224840Y41080187D01*
X16224841Y41080186D01*
X16372086Y40991173D01*
X16536354Y40939986D01*
X16593466Y40934796D01*
X16607735Y40933500D01*
X16607736Y40933500D01*
X16607737Y40933500D01*
X16722272Y40933500D01*
X16793645Y40939985D01*
X16793655Y40939988D01*
X16957909Y40991171D01*
X16957911Y40991172D01*
X16957913Y40991173D01*
X17105155Y41080184D01*
X17105158Y41080186D01*
X17212319Y41187347D01*
X17273642Y41220832D01*
X17343334Y41215848D01*
X17387681Y41187347D01*
X17494840Y41080187D01*
X17494841Y41080186D01*
X17642086Y40991173D01*
X17806354Y40939986D01*
X17863466Y40934796D01*
X17877735Y40933500D01*
X17877736Y40933500D01*
X17877737Y40933500D01*
X17992272Y40933500D01*
X18063645Y40939985D01*
X18063655Y40939988D01*
X18227909Y40991171D01*
X18227911Y40991172D01*
X18227913Y40991173D01*
X18375155Y41080184D01*
X18375158Y41080186D01*
X18482319Y41187347D01*
X18543642Y41220832D01*
X18613334Y41215848D01*
X18657681Y41187347D01*
X18764840Y41080187D01*
X18764841Y41080186D01*
X18912086Y40991173D01*
X19076354Y40939986D01*
X19133466Y40934796D01*
X19147735Y40933500D01*
X19147736Y40933500D01*
X19147737Y40933500D01*
X19262272Y40933500D01*
X19333645Y40939985D01*
X19333655Y40939988D01*
X19497910Y40991171D01*
X19497914Y40991173D01*
X19544528Y41019352D01*
X19612083Y41037188D01*
X19678556Y41015670D01*
X19704529Y40991901D01*
X19758789Y40925785D01*
X19912274Y40799825D01*
X19912281Y40799820D01*
X20087387Y40706224D01*
X20277394Y40648585D01*
X20277396Y40648584D01*
X20425485Y40634000D01*
X20524515Y40634000D01*
X20672603Y40648584D01*
X20672605Y40648585D01*
X20862612Y40706224D01*
X21037718Y40799820D01*
X21037725Y40799825D01*
X21191209Y40925785D01*
X21260828Y41010617D01*
X21260828Y41010618D01*
X20385905Y41885543D01*
X20352420Y41946866D01*
X20357404Y42016558D01*
X20385905Y42060905D01*
X20475000Y42150000D01*
X20474999Y42150001D01*
X20828552Y42150001D01*
X20828552Y42149999D01*
X21474308Y41504241D01*
X21483000Y41592485D01*
X21483000Y42707514D01*
X21474308Y42795757D01*
X20828552Y42150001D01*
X20474999Y42150001D01*
X20385905Y42239095D01*
X20352420Y42300418D01*
X20357404Y42370110D01*
X20385905Y42414457D01*
X21260828Y43289380D01*
X21260828Y43289382D01*
X21191214Y43374210D01*
X21037725Y43500174D01*
X21037718Y43500179D01*
X20862612Y43593775D01*
X20672605Y43651414D01*
X20672603Y43651415D01*
X20524515Y43666000D01*
X20425485Y43666000D01*
X20277396Y43651415D01*
X20277394Y43651414D01*
X20087387Y43593775D01*
X19912281Y43500179D01*
X19912274Y43500174D01*
X19758789Y43374213D01*
X19750355Y43363936D01*
X19692610Y43324601D01*
X19622765Y43322729D01*
X19562996Y43358915D01*
X19532279Y43421670D01*
X19530500Y43442599D01*
X19530500Y43593811D01*
X19550185Y43660850D01*
X19566819Y43681492D01*
X20348508Y44463181D01*
X20409831Y44496666D01*
X20436189Y44499500D01*
X22792852Y44499500D01*
X22792853Y44499500D01*
X22834246Y44510591D01*
X22875640Y44521682D01*
X22912750Y44543108D01*
X22949862Y44564535D01*
X24763507Y46378181D01*
X24824830Y46411666D01*
X24851188Y46414500D01*
X24969486Y46414500D01*
X25156118Y46444059D01*
X25335836Y46502454D01*
X25504199Y46588240D01*
X25657073Y46699310D01*
X25790690Y46832927D01*
X25901760Y46985801D01*
X25957242Y47094690D01*
X25987545Y47154163D01*
X26045940Y47333881D01*
X26075500Y47520513D01*
X26075500Y47709486D01*
X26045940Y47896118D01*
X26020801Y47973486D01*
X25987547Y48075832D01*
X25901760Y48244199D01*
X25790690Y48397073D01*
X25657073Y48530690D01*
X25504199Y48641760D01*
X25335832Y48727547D01*
X25286182Y48743679D01*
X25228508Y48783115D01*
X25201308Y48847473D01*
X25200500Y48861610D01*
X25200500Y51662851D01*
X25200500Y51662853D01*
X25178318Y51745638D01*
X25135465Y51819862D01*
X25074862Y51880465D01*
X21385684Y55569641D01*
X21352201Y55630962D01*
X21357185Y55700654D01*
X21358780Y55704709D01*
X21369740Y55731167D01*
X21369741Y55731172D01*
X21404500Y55905912D01*
X21404500Y56084087D01*
X21382919Y56192577D01*
X21389146Y56262168D01*
X21432008Y56317346D01*
X21497898Y56340591D01*
X21565895Y56324524D01*
X21592217Y56304450D01*
X26388181Y51508487D01*
X26421666Y51447164D01*
X26424500Y51420806D01*
X26424500Y46307147D01*
X26446682Y46224359D01*
X26489535Y46150138D01*
X26489537Y46150135D01*
X30138181Y42501492D01*
X30171666Y42440169D01*
X30174500Y42413811D01*
X30174500Y36999500D01*
X30154815Y36932461D01*
X30102011Y36886706D01*
X30050500Y36875500D01*
X30045730Y36875500D01*
X30015300Y36872646D01*
X30015298Y36872646D01*
X29919163Y36839006D01*
X29887118Y36827793D01*
X29777850Y36747150D01*
X29697207Y36637882D01*
X29697206Y36637880D01*
X29652353Y36509701D01*
X29652353Y36509699D01*
X29649500Y36479269D01*
X29649500Y35670730D01*
X29652353Y35640300D01*
X29652353Y35640298D01*
X29697206Y35512119D01*
X29697207Y35512117D01*
X29777850Y35402850D01*
X29887117Y35322207D01*
X29887119Y35322206D01*
X30015299Y35277353D01*
X30045730Y35274500D01*
X30045734Y35274500D01*
X31054270Y35274500D01*
X31084699Y35277353D01*
X31084701Y35277353D01*
X31212880Y35322206D01*
X31212882Y35322207D01*
X31322150Y35402850D01*
X31402793Y35512118D01*
X31407959Y35526884D01*
X31448682Y35583658D01*
X31513635Y35609404D01*
X31582196Y35595947D01*
X31632598Y35547559D01*
X31642041Y35526883D01*
X31647208Y35512116D01*
X31727850Y35402850D01*
X31837117Y35322207D01*
X31837119Y35322206D01*
X31965299Y35277353D01*
X31995730Y35274500D01*
X31995734Y35274500D01*
X33004270Y35274500D01*
X33034699Y35277353D01*
X33034701Y35277353D01*
X33162880Y35322206D01*
X33162882Y35322207D01*
X33272150Y35402850D01*
X33352793Y35512118D01*
X33386835Y35609404D01*
X33397646Y35640298D01*
X33397646Y35640300D01*
X33400500Y35670730D01*
X33400500Y36479269D01*
X33397646Y36509699D01*
X33397646Y36509701D01*
X33357959Y36623118D01*
X33352793Y36637882D01*
X33272150Y36747150D01*
X33162882Y36827793D01*
X33069985Y36860299D01*
X33034700Y36872646D01*
X33004270Y36875500D01*
X33004266Y36875500D01*
X32949500Y36875500D01*
X32882461Y36895185D01*
X32836706Y36947989D01*
X32825500Y36999500D01*
X32825500Y47650535D01*
X32845185Y47717574D01*
X32897989Y47763329D01*
X32967147Y47773273D01*
X33030703Y47744248D01*
X33037181Y47738216D01*
X34513181Y46262216D01*
X34546666Y46200893D01*
X34549500Y46174535D01*
X34549500Y34441198D01*
X34529815Y34374159D01*
X34477011Y34328404D01*
X34472961Y34326640D01*
X34454257Y34318893D01*
X34405192Y34290565D01*
X34340240Y34253065D01*
X34297683Y34220409D01*
X34204590Y34127316D01*
X34171934Y34084759D01*
X34106108Y33970745D01*
X34106101Y33970731D01*
X34085580Y33921188D01*
X34051503Y33794013D01*
X34051502Y33794007D01*
X34044500Y33740832D01*
X34044500Y33174995D01*
X34049651Y33129272D01*
X34071144Y33084643D01*
X34082495Y33015701D01*
X34066951Y32978659D01*
X34070913Y32976752D01*
X34064851Y32964164D01*
X34044500Y32875004D01*
X34044500Y32309167D01*
X34051502Y32255992D01*
X34051503Y32255986D01*
X34085580Y32128811D01*
X34106101Y32079268D01*
X34106108Y32079254D01*
X34171934Y31965240D01*
X34204590Y31922683D01*
X34297683Y31829590D01*
X34340240Y31796934D01*
X34454254Y31731108D01*
X34454266Y31731102D01*
X34472955Y31723361D01*
X34527358Y31679519D01*
X34549421Y31613224D01*
X34549500Y31608801D01*
X34549500Y30131095D01*
X34529815Y30064056D01*
X34513181Y30043414D01*
X33972346Y29502579D01*
X33911023Y29469094D01*
X33841331Y29474078D01*
X33785398Y29515950D01*
X33760981Y29581414D01*
X33766959Y29629264D01*
X33789505Y29697302D01*
X33789506Y29697309D01*
X33799999Y29800013D01*
X33800000Y29800026D01*
X33800000Y29925000D01*
X32850000Y29925000D01*
X32850000Y29100000D01*
X33099970Y29100000D01*
X33099987Y29100001D01*
X33202697Y29110494D01*
X33270734Y29133039D01*
X33340563Y29135441D01*
X33400605Y29099709D01*
X33431797Y29037188D01*
X33424236Y28967729D01*
X33397419Y28927652D01*
X25516586Y21046819D01*
X25455263Y21013334D01*
X25428905Y21010500D01*
X24125833Y21010500D01*
X24096395Y21019144D01*
X24066405Y21025668D01*
X24061388Y21029423D01*
X24058794Y21030185D01*
X24038156Y21046814D01*
X23977652Y21107319D01*
X23944168Y21168643D01*
X23949153Y21238335D01*
X23977653Y21282681D01*
X24084813Y21389841D01*
X24084814Y21389843D01*
X24084816Y21389845D01*
X24173827Y21537087D01*
X24225013Y21701351D01*
X24231500Y21772735D01*
X24231499Y21887264D01*
X24231499Y21887265D01*
X24231499Y21887272D01*
X24225014Y21958645D01*
X24225011Y21958655D01*
X24173828Y22122909D01*
X24173827Y22122913D01*
X24084816Y22270155D01*
X24084812Y22270159D01*
X23977653Y22377319D01*
X23944168Y22438642D01*
X23949152Y22508334D01*
X23977653Y22552681D01*
X24084813Y22659841D01*
X24084814Y22659843D01*
X24084816Y22659845D01*
X24173827Y22807087D01*
X24225013Y22971351D01*
X24231500Y23042735D01*
X24231499Y23157264D01*
X24231499Y23157265D01*
X24231499Y23157272D01*
X24225014Y23228645D01*
X24225011Y23228655D01*
X24173828Y23392909D01*
X24173827Y23392913D01*
X24084816Y23540155D01*
X24084812Y23540159D01*
X23977653Y23647319D01*
X23944168Y23708642D01*
X23949152Y23778334D01*
X23977653Y23822681D01*
X24084813Y23929841D01*
X24084814Y23929843D01*
X24084816Y23929845D01*
X24173827Y24077087D01*
X24225013Y24241351D01*
X24231500Y24312735D01*
X24231499Y24427264D01*
X24231499Y24427265D01*
X24231499Y24427272D01*
X24225014Y24498645D01*
X24225011Y24498655D01*
X24173828Y24662909D01*
X24173827Y24662913D01*
X24084816Y24810155D01*
X24084812Y24810159D01*
X23977653Y24917319D01*
X23944168Y24978642D01*
X23949152Y25048334D01*
X23977653Y25092681D01*
X24084813Y25199841D01*
X24084814Y25199843D01*
X24084816Y25199845D01*
X24173827Y25347087D01*
X24225013Y25511351D01*
X24231500Y25582735D01*
X24231499Y25697264D01*
X24231499Y25697265D01*
X24231499Y25697272D01*
X24225014Y25768645D01*
X24225011Y25768655D01*
X24173828Y25932909D01*
X24173827Y25932913D01*
X24084816Y26080155D01*
X24084812Y26080159D01*
X23977653Y26187319D01*
X23944168Y26248642D01*
X23949152Y26318334D01*
X23977653Y26362681D01*
X24084813Y26469841D01*
X24084814Y26469843D01*
X24084816Y26469845D01*
X24173827Y26617087D01*
X24225013Y26781351D01*
X24231500Y26852735D01*
X24231499Y26967264D01*
X24231499Y26967265D01*
X24231499Y26967272D01*
X24225014Y27038645D01*
X24225011Y27038655D01*
X24173828Y27202909D01*
X24173827Y27202913D01*
X24084816Y27350155D01*
X23963155Y27471816D01*
X23815913Y27560827D01*
X23651649Y27612013D01*
X23580265Y27618500D01*
X22449736Y27618499D01*
X22449727Y27618499D01*
X22378355Y27612014D01*
X22378344Y27612011D01*
X22214090Y27560828D01*
X22214087Y27560827D01*
X22066845Y27471816D01*
X22066843Y27471814D01*
X22066841Y27471813D01*
X21945186Y27350158D01*
X21856173Y27202913D01*
X21804986Y27038645D01*
X21798500Y26967262D01*
X21798500Y26852727D01*
X21804985Y26781354D01*
X21804988Y26781344D01*
X21856171Y26617090D01*
X21945186Y26469841D01*
X21945187Y26469840D01*
X22052347Y26362681D01*
X22085832Y26301358D01*
X22080848Y26231666D01*
X22052347Y26187319D01*
X21945186Y26080158D01*
X21856173Y25932913D01*
X21804986Y25768645D01*
X21798500Y25697262D01*
X21798500Y25582727D01*
X21804985Y25511354D01*
X21804988Y25511344D01*
X21856171Y25347090D01*
X21945186Y25199841D01*
X21945187Y25199840D01*
X22052347Y25092681D01*
X22085832Y25031358D01*
X22080848Y24961666D01*
X22052347Y24917319D01*
X21945186Y24810158D01*
X21856173Y24662913D01*
X21804986Y24498645D01*
X21798500Y24427262D01*
X21798500Y24312727D01*
X21804985Y24241354D01*
X21804988Y24241344D01*
X21856171Y24077090D01*
X21945186Y23929841D01*
X21945187Y23929840D01*
X22052347Y23822681D01*
X22085832Y23761358D01*
X22080848Y23691666D01*
X22052347Y23647319D01*
X21945186Y23540158D01*
X21856173Y23392913D01*
X21804986Y23228645D01*
X21798500Y23157262D01*
X21798500Y23042727D01*
X21804985Y22971354D01*
X21804988Y22971344D01*
X21856171Y22807090D01*
X21945186Y22659841D01*
X21945187Y22659840D01*
X22052347Y22552681D01*
X22085832Y22491358D01*
X22080848Y22421666D01*
X22052347Y22377319D01*
X21945186Y22270158D01*
X21856173Y22122913D01*
X21804986Y21958645D01*
X21798500Y21887262D01*
X21798500Y21772727D01*
X21804985Y21701354D01*
X21804988Y21701344D01*
X21856171Y21537090D01*
X21945186Y21389841D01*
X21945187Y21389840D01*
X22052347Y21282681D01*
X22085832Y21221358D01*
X22080848Y21151666D01*
X22052347Y21107319D01*
X21945186Y21000158D01*
X21856173Y20852913D01*
X21804986Y20688645D01*
X21798500Y20617262D01*
X21798500Y20502727D01*
X21804985Y20431354D01*
X21804988Y20431344D01*
X21856171Y20267090D01*
X21945186Y20119841D01*
X22066841Y19998186D01*
X22214086Y19909173D01*
X22378354Y19857986D01*
X22435466Y19852796D01*
X22449735Y19851500D01*
X22449736Y19851500D01*
X22449737Y19851500D01*
X23580273Y19851500D01*
X23580273Y19851501D01*
X23651644Y19857985D01*
X23651655Y19857988D01*
X23815909Y19909171D01*
X23815911Y19909172D01*
X23815913Y19909173D01*
X23963155Y19998184D01*
X24038153Y20073182D01*
X24099474Y20106666D01*
X24125833Y20109500D01*
X25726178Y20109500D01*
X25726179Y20109500D01*
X25764787Y20119845D01*
X25816500Y20133701D01*
X25816526Y20133708D01*
X25816543Y20133713D01*
X25828650Y20136957D01*
X25840758Y20140201D01*
X25892120Y20169856D01*
X25943484Y20199511D01*
X34731237Y28987264D01*
X34756916Y29006969D01*
X34773171Y29016354D01*
X34785679Y29023576D01*
X36041948Y30279845D01*
X37395285Y31633181D01*
X37456608Y31666666D01*
X37482966Y31669500D01*
X37815832Y31669500D01*
X37869007Y31676502D01*
X37869009Y31676502D01*
X37869014Y31676503D01*
X37996181Y31710578D01*
X37996188Y31710580D01*
X38045731Y31731101D01*
X38045746Y31731108D01*
X38069500Y31744823D01*
X38075401Y31746254D01*
X38079989Y31750230D01*
X38108953Y31754394D01*
X38137400Y31761296D01*
X38143138Y31759309D01*
X38149147Y31760174D01*
X38175771Y31748014D01*
X38203427Y31738443D01*
X38207179Y31733671D01*
X38212703Y31731149D01*
X38228526Y31706526D01*
X38246618Y31683522D01*
X38248034Y31676171D01*
X38250477Y31672371D01*
X38255500Y31637436D01*
X38255500Y31593965D01*
X38235815Y31526926D01*
X38219181Y31506284D01*
X25139511Y18426614D01*
X25080201Y18323887D01*
X25080200Y18323883D01*
X25049500Y18209308D01*
X25049500Y13237965D01*
X25029815Y13170926D01*
X25013181Y13150284D01*
X24049716Y12186819D01*
X23988393Y12153334D01*
X23962035Y12150500D01*
X20862965Y12150500D01*
X20795926Y12170185D01*
X20775284Y12186819D01*
X20747760Y12214341D01*
X19790820Y13171281D01*
X19757337Y13232602D01*
X19762321Y13302293D01*
X19804192Y13358227D01*
X19804869Y13358730D01*
X19864650Y13402850D01*
X19945293Y13512118D01*
X19967658Y13576033D01*
X20008378Y13632807D01*
X20073330Y13658555D01*
X20141892Y13645099D01*
X20192295Y13596712D01*
X20202404Y13574082D01*
X20258142Y13405878D01*
X20258143Y13405875D01*
X20350184Y13256654D01*
X20474154Y13132684D01*
X20623375Y13040643D01*
X20623380Y13040641D01*
X20789802Y12985494D01*
X20789809Y12985493D01*
X20892513Y12975000D01*
X21030000Y12975000D01*
X21530000Y12975000D01*
X21667472Y12975000D01*
X21667487Y12975001D01*
X21770197Y12985494D01*
X21936619Y13040641D01*
X21936624Y13040643D01*
X22085845Y13132684D01*
X22209815Y13256654D01*
X22301856Y13405875D01*
X22301858Y13405880D01*
X22357005Y13572302D01*
X22357006Y13572309D01*
X22367499Y13675013D01*
X22367500Y13675026D01*
X22367500Y13950000D01*
X21530000Y13950000D01*
X21530000Y12975000D01*
X21030000Y12975000D01*
X21030000Y14450000D01*
X21530000Y14450000D01*
X22367499Y14450000D01*
X22367499Y14724971D01*
X22367498Y14724986D01*
X22357005Y14827697D01*
X22301858Y14994119D01*
X22301856Y14994124D01*
X22209815Y15143345D01*
X22085845Y15267315D01*
X21936624Y15359356D01*
X21936619Y15359358D01*
X21770197Y15414505D01*
X21770190Y15414506D01*
X21667480Y15424999D01*
X21530000Y15424999D01*
X21530000Y14450000D01*
X21030000Y14450000D01*
X21030000Y15431000D01*
X21049685Y15498039D01*
X21102489Y15543794D01*
X21119593Y15550131D01*
X21239643Y15584803D01*
X21260828Y15610618D01*
X20385905Y16485543D01*
X20352420Y16546866D01*
X20357404Y16616558D01*
X20385905Y16660905D01*
X20475000Y16750000D01*
X20474999Y16750001D01*
X20828552Y16750001D01*
X20828552Y16749999D01*
X21474308Y16104241D01*
X21483000Y16192485D01*
X21483000Y17307514D01*
X21474308Y17395757D01*
X20828552Y16750001D01*
X20474999Y16750001D01*
X20385905Y16839095D01*
X20352420Y16900418D01*
X20357404Y16970110D01*
X20385905Y17014457D01*
X21260828Y17889380D01*
X21260828Y17889382D01*
X21191214Y17974210D01*
X21037725Y18100174D01*
X21037718Y18100179D01*
X20862612Y18193775D01*
X20672605Y18251414D01*
X20672603Y18251415D01*
X20524515Y18266000D01*
X20425485Y18266000D01*
X20277396Y18251415D01*
X20277394Y18251414D01*
X20087387Y18193775D01*
X19912281Y18100179D01*
X19912274Y18100174D01*
X19758788Y17974212D01*
X19704531Y17908099D01*
X19646785Y17868764D01*
X19576941Y17866893D01*
X19544536Y17880642D01*
X19497913Y17908827D01*
X19333649Y17960013D01*
X19262265Y17966500D01*
X19147736Y17966499D01*
X19147727Y17966499D01*
X19076354Y17960014D01*
X19076344Y17960011D01*
X18922382Y17912035D01*
X18912087Y17908827D01*
X18764845Y17819816D01*
X18764843Y17819814D01*
X18764841Y17819813D01*
X18657681Y17712653D01*
X18596358Y17679168D01*
X18526666Y17684152D01*
X18482319Y17712653D01*
X18375159Y17819812D01*
X18375158Y17819813D01*
X18375155Y17819816D01*
X18227913Y17908827D01*
X18063649Y17960013D01*
X17992265Y17966500D01*
X17877736Y17966499D01*
X17877727Y17966499D01*
X17806354Y17960014D01*
X17806344Y17960011D01*
X17652382Y17912035D01*
X17642087Y17908827D01*
X17494845Y17819816D01*
X17494843Y17819814D01*
X17494841Y17819813D01*
X17387681Y17712653D01*
X17326358Y17679168D01*
X17256666Y17684152D01*
X17212319Y17712653D01*
X17105159Y17819812D01*
X17105158Y17819813D01*
X17105155Y17819816D01*
X16957913Y17908827D01*
X16793649Y17960013D01*
X16722265Y17966500D01*
X16607736Y17966499D01*
X16607727Y17966499D01*
X16536354Y17960014D01*
X16536344Y17960011D01*
X16372089Y17908828D01*
X16372087Y17908827D01*
X16331563Y17884329D01*
X16325472Y17880647D01*
X16257917Y17862811D01*
X16191443Y17884329D01*
X16165468Y17908100D01*
X16111211Y17974212D01*
X15957725Y18100174D01*
X15957718Y18100179D01*
X15782612Y18193775D01*
X15592605Y18251414D01*
X15592603Y18251415D01*
X15444515Y18266000D01*
X15345485Y18266000D01*
X15197396Y18251415D01*
X15197394Y18251414D01*
X15125000Y18229453D01*
X15125000Y19200000D01*
X13125000Y19200000D01*
X13125000Y18229452D01*
X13052605Y18251414D01*
X13052603Y18251415D01*
X12904515Y18266000D01*
X12805485Y18266000D01*
X12657396Y18251415D01*
X12657394Y18251414D01*
X12467387Y18193775D01*
X12292281Y18100179D01*
X12292274Y18100174D01*
X12138790Y17974214D01*
X12069170Y17889381D01*
X12069170Y17889380D01*
X12944095Y17014457D01*
X12977580Y16953134D01*
X12972596Y16883443D01*
X12944095Y16839095D01*
X12855000Y16750000D01*
X12944095Y16660905D01*
X12977579Y16599582D01*
X12972595Y16529890D01*
X12944094Y16485543D01*
X12069170Y15610619D01*
X12069169Y15610617D01*
X12138787Y15525787D01*
X12292274Y15399825D01*
X12292281Y15399820D01*
X12467387Y15306224D01*
X12657394Y15248585D01*
X12657396Y15248584D01*
X12805485Y15234000D01*
X12904515Y15234000D01*
X13052601Y15248584D01*
X13125000Y15270546D01*
X13125000Y11042304D01*
X13119297Y11044909D01*
X13094961Y11073525D01*
X13067315Y11118345D01*
X12943345Y11242315D01*
X12794124Y11334356D01*
X12794119Y11334358D01*
X12627697Y11389505D01*
X12627690Y11389506D01*
X12524980Y11399999D01*
X12375000Y11399999D01*
X12375000Y10324000D01*
X12355315Y10256961D01*
X12302511Y10211206D01*
X12251000Y10200000D01*
X12125000Y10200000D01*
X12125000Y10074000D01*
X12105315Y10006961D01*
X12052511Y9961206D01*
X12001000Y9950000D01*
X11025001Y9950000D01*
X11025001Y9700013D01*
X11035494Y9597302D01*
X11090641Y9430880D01*
X11090643Y9430875D01*
X11182682Y9281657D01*
X11307523Y9156816D01*
X11341007Y9095493D01*
X11336023Y9025801D01*
X11294151Y8969868D01*
X11248981Y8949726D01*
X11249224Y8948821D01*
X11025296Y8888819D01*
X10814878Y8801661D01*
X10814867Y8801656D01*
X10617626Y8687778D01*
X10545850Y8632703D01*
X10545850Y8632702D01*
X11203571Y7974981D01*
X11194216Y7971106D01*
X11059093Y7880819D01*
X10944181Y7765907D01*
X10853894Y7630784D01*
X10850018Y7621427D01*
X10192296Y8279148D01*
X10192295Y8279148D01*
X10137221Y8207371D01*
X10137215Y8207364D01*
X10023343Y8010132D01*
X10023338Y8010121D01*
X9936180Y7799703D01*
X9877228Y7579693D01*
X9847501Y7353891D01*
X9847500Y7353875D01*
X9847500Y7126124D01*
X9847501Y7126108D01*
X9877228Y6900306D01*
X9936180Y6680296D01*
X10023338Y6469878D01*
X10023343Y6469867D01*
X10137216Y6272633D01*
X10137226Y6272619D01*
X10192296Y6200850D01*
X10850018Y6858572D01*
X10853894Y6849216D01*
X10944181Y6714093D01*
X11059093Y6599181D01*
X11194216Y6508894D01*
X11203572Y6505018D01*
X10545850Y5847296D01*
X10545849Y5847296D01*
X10617619Y5792226D01*
X10617633Y5792216D01*
X10814867Y5678343D01*
X10814878Y5678338D01*
X11025296Y5591180D01*
X11245306Y5532228D01*
X11471108Y5502501D01*
X11471125Y5502500D01*
X11698875Y5502500D01*
X11698891Y5502501D01*
X11924693Y5532228D01*
X12144703Y5591180D01*
X12355121Y5678338D01*
X12355132Y5678343D01*
X12552364Y5792215D01*
X12552371Y5792221D01*
X12624148Y5847295D01*
X12624148Y5847296D01*
X11966427Y6505018D01*
X11975784Y6508894D01*
X12110907Y6599181D01*
X12225819Y6714093D01*
X12316106Y6849216D01*
X12319981Y6858571D01*
X12977702Y6200850D01*
X12977703Y6200850D01*
X13032778Y6272626D01*
X13093113Y6377128D01*
X13125000Y6407532D01*
X13125000Y5627573D01*
X13085362Y5587935D01*
X13023290Y5502500D01*
X12959258Y5414368D01*
X12861859Y5223215D01*
X12795560Y5019170D01*
X12762000Y4807275D01*
X12762000Y4592724D01*
X12795560Y4380829D01*
X12861859Y4176784D01*
X12959258Y3985631D01*
X13023290Y3897500D01*
X13085362Y3812065D01*
X13085364Y3812063D01*
X13085364Y3812062D01*
X13125000Y3772426D01*
X13125000Y3200000D01*
X15125000Y3200000D01*
X15125000Y3772427D01*
X15164638Y3812065D01*
X15290742Y3985632D01*
X15336758Y4075943D01*
X15388140Y4176784D01*
X15394564Y4196553D01*
X15454439Y4380830D01*
X15457475Y4400000D01*
X15488000Y4592724D01*
X15488000Y4807275D01*
X15454439Y5019170D01*
X15411165Y5152353D01*
X15388142Y5223211D01*
X15290742Y5414368D01*
X15164638Y5587935D01*
X15125000Y5627573D01*
X15125000Y6411445D01*
X15130703Y6408841D01*
X15156887Y6377128D01*
X15217216Y6272634D01*
X15217226Y6272619D01*
X15272296Y6200850D01*
X15930018Y6858572D01*
X15933894Y6849216D01*
X16024181Y6714093D01*
X16139093Y6599181D01*
X16274216Y6508894D01*
X16283572Y6505018D01*
X15625850Y5847296D01*
X15625849Y5847296D01*
X15697619Y5792226D01*
X15697633Y5792216D01*
X15894867Y5678343D01*
X15894878Y5678338D01*
X16105296Y5591180D01*
X16325306Y5532228D01*
X16551108Y5502501D01*
X16551125Y5502500D01*
X16778875Y5502500D01*
X16778891Y5502501D01*
X17004693Y5532228D01*
X17224703Y5591180D01*
X17435121Y5678338D01*
X17435132Y5678343D01*
X17632364Y5792215D01*
X17632371Y5792221D01*
X17704148Y5847295D01*
X17704148Y5847296D01*
X17046427Y6505018D01*
X17055784Y6508894D01*
X17190907Y6599181D01*
X17305819Y6714093D01*
X17396106Y6849216D01*
X17399981Y6858571D01*
X18057702Y6200850D01*
X18057703Y6200850D01*
X18112778Y6272626D01*
X18226656Y6469867D01*
X18226661Y6469878D01*
X18313819Y6680296D01*
X18372771Y6900306D01*
X18402498Y7126108D01*
X18402500Y7126124D01*
X18402500Y7353875D01*
X18402498Y7353891D01*
X18372771Y7579693D01*
X18313819Y7799703D01*
X18226661Y8010121D01*
X18226656Y8010132D01*
X18112782Y8207366D01*
X18112776Y8207374D01*
X18057702Y8279148D01*
X17399981Y7621427D01*
X17396106Y7630784D01*
X17305819Y7765907D01*
X17190907Y7880819D01*
X17055784Y7971106D01*
X17046427Y7974981D01*
X17704148Y8632702D01*
X17632374Y8687776D01*
X17632366Y8687782D01*
X17435132Y8801656D01*
X17435121Y8801661D01*
X17224703Y8888819D01*
X17004693Y8947771D01*
X16778891Y8977498D01*
X16778875Y8977500D01*
X16551125Y8977500D01*
X16551108Y8977498D01*
X16325306Y8947771D01*
X16105296Y8888819D01*
X15894878Y8801661D01*
X15894867Y8801656D01*
X15697626Y8687778D01*
X15625850Y8632703D01*
X15625850Y8632702D01*
X16283571Y7974981D01*
X16274216Y7971106D01*
X16139093Y7880819D01*
X16024181Y7765907D01*
X15933894Y7630784D01*
X15930018Y7621427D01*
X15272296Y8279148D01*
X15272295Y8279148D01*
X15217221Y8207371D01*
X15217215Y8207364D01*
X15156887Y8102871D01*
X15125000Y8072466D01*
X15125000Y15270546D01*
X15197400Y15248584D01*
X15197396Y15248584D01*
X15345485Y15234000D01*
X15444515Y15234000D01*
X15592603Y15248584D01*
X15592605Y15248585D01*
X15782612Y15306224D01*
X15957718Y15399820D01*
X15957725Y15399825D01*
X16111212Y15525787D01*
X16165469Y15591900D01*
X16223214Y15631234D01*
X16293059Y15633105D01*
X16325470Y15619353D01*
X16370884Y15591900D01*
X16372087Y15591173D01*
X16461937Y15563175D01*
X16536354Y15539986D01*
X16593466Y15534796D01*
X16607735Y15533500D01*
X16607736Y15533500D01*
X16607737Y15533500D01*
X16722272Y15533500D01*
X16793645Y15539985D01*
X16793655Y15539988D01*
X16957909Y15591171D01*
X16957911Y15591172D01*
X16957913Y15591173D01*
X17105155Y15680184D01*
X17105158Y15680186D01*
X17212319Y15787347D01*
X17215981Y15789347D01*
X17218217Y15792873D01*
X17246390Y15805951D01*
X17273642Y15820832D01*
X17277804Y15820534D01*
X17281591Y15822292D01*
X17312356Y15818063D01*
X17343334Y15815848D01*
X17347855Y15813184D01*
X17350810Y15812778D01*
X17364075Y15803628D01*
X17380619Y15793882D01*
X17384277Y15790751D01*
X17494845Y15680184D01*
X17558375Y15641778D01*
X17566119Y15635152D01*
X17579850Y15614074D01*
X17596838Y15595524D01*
X17599548Y15583837D01*
X17604258Y15576609D01*
X17604341Y15563175D01*
X17609500Y15540936D01*
X17609500Y11467147D01*
X17631682Y11384359D01*
X17674535Y11310138D01*
X17674537Y11310135D01*
X18380681Y10603992D01*
X18414166Y10542669D01*
X18417000Y10516311D01*
X18417000Y9710730D01*
X18419853Y9680300D01*
X18419853Y9680298D01*
X18464706Y9552119D01*
X18464707Y9552117D01*
X18545350Y9442850D01*
X18654617Y9362207D01*
X18654619Y9362206D01*
X18782799Y9317353D01*
X18813230Y9314500D01*
X18813234Y9314500D01*
X19596770Y9314500D01*
X19634712Y9318058D01*
X19634952Y9315489D01*
X19692345Y9311427D01*
X19736778Y9282894D01*
X20563930Y8455742D01*
X20597415Y8394419D01*
X20599709Y8356499D01*
X20599500Y8354267D01*
X20599500Y7545730D01*
X20602353Y7515300D01*
X20602353Y7515298D01*
X20647206Y7387119D01*
X20647207Y7387117D01*
X20727850Y7277850D01*
X20837117Y7197207D01*
X20837119Y7197206D01*
X20965299Y7152353D01*
X20995730Y7149500D01*
X20995734Y7149500D01*
X22004270Y7149500D01*
X22034699Y7152353D01*
X22034701Y7152353D01*
X22162880Y7197206D01*
X22162882Y7197207D01*
X22220863Y7239999D01*
X22272150Y7277850D01*
X22352793Y7387118D01*
X22380775Y7467085D01*
X22397646Y7515298D01*
X22397646Y7515300D01*
X22400500Y7545730D01*
X22400500Y8354269D01*
X22397646Y8384699D01*
X22397646Y8384701D01*
X22372787Y8455742D01*
X22352793Y8512882D01*
X22272150Y8622150D01*
X22162882Y8702793D01*
X22077426Y8732695D01*
X22034700Y8747646D01*
X22004270Y8750500D01*
X22004266Y8750500D01*
X21241188Y8750500D01*
X21174149Y8770185D01*
X21153508Y8786818D01*
X21132865Y8807461D01*
X21065341Y8874984D01*
X21031858Y8936303D01*
X21033813Y8963638D01*
X21030000Y8963638D01*
X21030000Y9015000D01*
X21530000Y9015000D01*
X21667472Y9015000D01*
X21667487Y9015001D01*
X21770197Y9025494D01*
X21936619Y9080641D01*
X21936624Y9080643D01*
X22085845Y9172684D01*
X22209815Y9296654D01*
X22301856Y9445875D01*
X22301858Y9445880D01*
X22357005Y9612302D01*
X22357006Y9612309D01*
X22367499Y9715013D01*
X22367500Y9715026D01*
X22367500Y9990000D01*
X21530000Y9990000D01*
X21530000Y9015000D01*
X21030000Y9015000D01*
X21030000Y10116000D01*
X21049685Y10183039D01*
X21102489Y10228794D01*
X21154000Y10240000D01*
X21280000Y10240000D01*
X21280000Y10366000D01*
X21299685Y10433039D01*
X21352489Y10478794D01*
X21404000Y10490000D01*
X22367499Y10490000D01*
X22367499Y10764971D01*
X22367498Y10764986D01*
X22357005Y10867697D01*
X22301858Y11034119D01*
X22301853Y11034130D01*
X22285648Y11060403D01*
X22267207Y11127795D01*
X22288129Y11194459D01*
X22341771Y11239228D01*
X22391186Y11249500D01*
X24259308Y11249500D01*
X24259309Y11249500D01*
X24291744Y11258191D01*
X24349630Y11273701D01*
X24349656Y11273708D01*
X24349673Y11273713D01*
X24361780Y11276957D01*
X24373888Y11280201D01*
X24467685Y11334356D01*
X24476614Y11339511D01*
X24703366Y11566263D01*
X24962819Y11825715D01*
X25024142Y11859200D01*
X25093834Y11854216D01*
X25149767Y11812344D01*
X25174184Y11746880D01*
X25174500Y11738034D01*
X25174500Y8874500D01*
X25154815Y8807461D01*
X25102011Y8761706D01*
X25050500Y8750500D01*
X24995730Y8750500D01*
X24965300Y8747646D01*
X24965298Y8747646D01*
X24869163Y8714006D01*
X24837118Y8702793D01*
X24727850Y8622150D01*
X24683023Y8561411D01*
X24647207Y8512882D01*
X24647206Y8512880D01*
X24602353Y8384701D01*
X24602353Y8384699D01*
X24599500Y8354269D01*
X24599500Y7545730D01*
X24602353Y7515300D01*
X24602353Y7515298D01*
X24647206Y7387119D01*
X24647207Y7387117D01*
X24727850Y7277850D01*
X24837117Y7197207D01*
X24837119Y7197206D01*
X24965299Y7152353D01*
X24995730Y7149500D01*
X24995734Y7149500D01*
X26004270Y7149500D01*
X26034699Y7152353D01*
X26042073Y7153964D01*
X26042441Y7152274D01*
X26102895Y7155360D01*
X26163521Y7120630D01*
X26195747Y7058635D01*
X26189341Y6989060D01*
X26161749Y6947076D01*
X26001492Y6786819D01*
X25940169Y6753334D01*
X25913811Y6750500D01*
X24995730Y6750500D01*
X24965300Y6747646D01*
X24965298Y6747646D01*
X24869412Y6714093D01*
X24837118Y6702793D01*
X24727850Y6622150D01*
X24647207Y6512882D01*
X24647206Y6512880D01*
X24602353Y6384701D01*
X24600744Y6377330D01*
X24598620Y6377793D01*
X24576802Y6323018D01*
X24519959Y6282391D01*
X24479198Y6275500D01*
X22520802Y6275500D01*
X22453763Y6295185D01*
X22408008Y6347989D01*
X22400122Y6377519D01*
X22399256Y6377330D01*
X22397646Y6384701D01*
X22374796Y6450000D01*
X22352793Y6512882D01*
X22272150Y6622150D01*
X22162882Y6702793D01*
X22077426Y6732695D01*
X22034700Y6747646D01*
X22004270Y6750500D01*
X22004266Y6750500D01*
X20995734Y6750500D01*
X20995730Y6750500D01*
X20965300Y6747646D01*
X20965298Y6747646D01*
X20869412Y6714093D01*
X20837118Y6702793D01*
X20727850Y6622150D01*
X20647207Y6512882D01*
X20647206Y6512880D01*
X20602353Y6384701D01*
X20602353Y6384699D01*
X20599500Y6354269D01*
X20599500Y5545730D01*
X20602353Y5515300D01*
X20602353Y5515298D01*
X20647206Y5387119D01*
X20647207Y5387117D01*
X20727850Y5277850D01*
X20837117Y5197207D01*
X20837119Y5197206D01*
X20965299Y5152353D01*
X20995730Y5149500D01*
X20995734Y5149500D01*
X22004270Y5149500D01*
X22034699Y5152353D01*
X22034701Y5152353D01*
X22162880Y5197206D01*
X22162882Y5197207D01*
X22198116Y5223211D01*
X22272150Y5277850D01*
X22352793Y5387118D01*
X22364006Y5419163D01*
X22397646Y5515298D01*
X22399256Y5522670D01*
X22401379Y5522206D01*
X22423198Y5576982D01*
X22480041Y5617609D01*
X22520802Y5624500D01*
X24479198Y5624500D01*
X24546237Y5604815D01*
X24591992Y5552011D01*
X24599877Y5522480D01*
X24600744Y5522670D01*
X24602353Y5515298D01*
X24647206Y5387119D01*
X24647207Y5387117D01*
X24727850Y5277850D01*
X24837117Y5197207D01*
X24837119Y5197206D01*
X24965299Y5152353D01*
X24995730Y5149500D01*
X24995734Y5149500D01*
X26004270Y5149500D01*
X26034699Y5152353D01*
X26034701Y5152353D01*
X26162880Y5197206D01*
X26162882Y5197207D01*
X26198116Y5223211D01*
X26272150Y5277850D01*
X26352793Y5387118D01*
X26364006Y5419163D01*
X26397646Y5515298D01*
X26397646Y5515300D01*
X26400500Y5545730D01*
X26400500Y6213811D01*
X26420185Y6280850D01*
X26436819Y6301492D01*
X27510462Y7375135D01*
X27510465Y7375138D01*
X27553318Y7449361D01*
X27575500Y7532147D01*
X27575500Y7617853D01*
X27575500Y18138811D01*
X27595185Y18205850D01*
X27611819Y18226492D01*
X39567462Y30182135D01*
X39567465Y30182138D01*
X39610318Y30256361D01*
X39632500Y30339147D01*
X39632500Y30424853D01*
X39632500Y52060795D01*
X39620599Y52105212D01*
X39610318Y52143581D01*
X39567465Y52217804D01*
X28048804Y63736465D01*
X27974581Y63779318D01*
X27891795Y63801500D01*
X27891793Y63801500D01*
X10201523Y63801500D01*
X10201507Y63801501D01*
X10193911Y63801501D01*
X10108205Y63801501D01*
X10025420Y63779318D01*
X10025419Y63779317D01*
X10025417Y63779317D01*
X10025416Y63779316D01*
X9987571Y63757466D01*
X9951196Y63736465D01*
X9890593Y63675862D01*
X9886262Y63671531D01*
X9886252Y63671520D01*
X9138535Y62923804D01*
X9117108Y62886692D01*
X9095682Y62849582D01*
X9086601Y62815689D01*
X9086600Y62815689D01*
X9073500Y62766796D01*
X9073500Y59333147D01*
X9095682Y59250359D01*
X9138534Y59176138D01*
X9354313Y58960359D01*
X9387797Y58899036D01*
X9382813Y58829344D01*
X9381192Y58825226D01*
X9370261Y58798837D01*
X9370258Y58798827D01*
X9335500Y58624087D01*
X9335500Y58445912D01*
X9335499Y58445912D01*
X9370258Y58271173D01*
X9370259Y58271170D01*
X9381194Y58244769D01*
X9388660Y58175299D01*
X9357383Y58112821D01*
X9354312Y58109639D01*
X7239535Y55994862D01*
X7239533Y55994858D01*
X7196681Y55920638D01*
X7196682Y55920638D01*
X7174500Y55837852D01*
X500Y55837852D01*
X500Y58681468D01*
X582000Y58681468D01*
X582000Y58388531D01*
X614794Y58097469D01*
X614797Y58097455D01*
X679978Y57811875D01*
X679982Y57811863D01*
X776723Y57535395D01*
X776729Y57535381D01*
X903819Y57271476D01*
X1059667Y57023444D01*
X1059670Y57023440D01*
X1177336Y56875890D01*
X1895747Y57594301D01*
X1969588Y57492670D01*
X2147670Y57314588D01*
X2249301Y57240747D01*
X1530890Y56522336D01*
X1678440Y56404670D01*
X1678444Y56404667D01*
X1926476Y56248819D01*
X2190381Y56121729D01*
X2190395Y56121723D01*
X2466863Y56024982D01*
X2466875Y56024978D01*
X2752455Y55959797D01*
X2752469Y55959794D01*
X3043531Y55927000D01*
X3336468Y55927000D01*
X3627530Y55959794D01*
X3627544Y55959797D01*
X3658537Y55966871D01*
X3658538Y55966871D01*
X3913120Y56024977D01*
X3913136Y56024982D01*
X4189604Y56121723D01*
X4189618Y56121729D01*
X4453523Y56248819D01*
X4701551Y56404665D01*
X4849108Y56522336D01*
X4130697Y57240747D01*
X4232330Y57314588D01*
X4410412Y57492670D01*
X4484251Y57594301D01*
X5202662Y56875890D01*
X5320334Y57023448D01*
X5476180Y57271476D01*
X5603270Y57535381D01*
X5603276Y57535395D01*
X5700017Y57811863D01*
X5700021Y57811875D01*
X5765202Y58097455D01*
X5765205Y58097469D01*
X5797999Y58388531D01*
X5798000Y58388535D01*
X5798000Y58681464D01*
X5797999Y58681468D01*
X5765205Y58972530D01*
X5765202Y58972544D01*
X5700021Y59258124D01*
X5700017Y59258136D01*
X5603276Y59534604D01*
X5603270Y59534618D01*
X5476180Y59798523D01*
X5320334Y60046551D01*
X5202662Y60194108D01*
X4484251Y59475698D01*
X4410412Y59577330D01*
X4232330Y59755412D01*
X4130698Y59829251D01*
X4849108Y60547662D01*
X4701551Y60665334D01*
X4453523Y60821180D01*
X4189618Y60948270D01*
X4189604Y60948276D01*
X3913136Y61045017D01*
X3913124Y61045021D01*
X3627544Y61110202D01*
X3627530Y61110205D01*
X3336468Y61142999D01*
X3336464Y61143000D01*
X3043536Y61143000D01*
X3043531Y61142999D01*
X2752469Y61110205D01*
X2752455Y61110202D01*
X2466875Y61045021D01*
X2466863Y61045017D01*
X2190395Y60948276D01*
X2190381Y60948270D01*
X1926476Y60821180D01*
X1678448Y60665334D01*
X1530890Y60547662D01*
X2249301Y59829251D01*
X2147670Y59755412D01*
X1969588Y59577330D01*
X1895747Y59475697D01*
X1177336Y60194108D01*
X1059665Y60046551D01*
X903819Y59798523D01*
X776729Y59534618D01*
X776723Y59534604D01*
X679982Y59258136D01*
X679978Y59258124D01*
X614797Y58972544D01*
X614794Y58972530D01*
X582000Y58681468D01*
X500Y58681468D01*
X500Y69875500D01*
X20185Y69942539D01*
X72989Y69988294D01*
X124500Y69999500D01*
X33827672Y69999500D01*
X33894711Y69979815D01*
G37*
%TD.AperFunction*%
%TD*%
M02*
