M48
; DRILL file {KiCad 9.0.7} date 2026-03-19T19:45:34+0100
; FORMAT={-:-/ absolute / metric / decimal}
; #@! TF.CreationDate,2026-03-19T19:45:34+01:00
; #@! TF.GenerationSoftware,Kicad,Pcbnew,9.0.7
; #@! TF.FileFunction,Plated,1,2,PTH
FMAT,2
METRIC
; #@! TA.AperFunction,Plated,PTH,ViaDrill
T1C0.400
; #@! TA.AperFunction,Plated,PTH,ComponentDrill
T2C0.900
; #@! TA.AperFunction,Plated,PTH,ComponentDrill
T3C1.550
; #@! TA.AperFunction,Plated,PTH,ComponentDrill
T4C1.650
; #@! TA.AperFunction,Plated,PTH,ComponentDrill
T5C3.200
; #@! TA.AperFunction,Plated,PTH,ComponentDrill
T6C4.100
%
G90
G05
T1
X12.125Y4.7
X12.625Y14.7
X12.625Y12.2
X13.125Y18.7
X14.125Y18.7
X14.125Y2.7
X15.125Y18.7
X15.625Y14.7
X15.625Y13.7
X15.625Y12.7
X15.625Y11.7
X15.625Y10.7
X15.625Y9.7
X16.125Y4.7
X30.35Y45.425
T2
X10.24Y58.535
X11.38Y61.075
X11.38Y55.995
X12.52Y58.535
X13.66Y61.075
X13.66Y55.995
X14.8Y58.535
X15.94Y61.075
X15.94Y55.995
X17.08Y58.535
X18.22Y61.075
X18.22Y55.995
X19.36Y58.535
X20.5Y61.075
X20.5Y55.995
T3
X14.125Y4.7
T4
X11.585Y7.24
X11.585Y2.16
X16.665Y7.24
X16.665Y2.16
T5
X3.19Y58.535
X28.18Y58.535
T6
X4.4Y44.4
X4.4Y4.4
X35.6Y65.6
X35.6Y4.4
M30
