%TF.GenerationSoftware,KiCad,Pcbnew,9.0.7*%
%TF.CreationDate,2026-03-19T19:45:42+01:00*%
%TF.ProjectId,TelemetryGroundstationDB,54656c65-6d65-4747-9279-47726f756e64,rev?*%
%TF.SameCoordinates,Original*%
%TF.FileFunction,Copper,L2,Bot*%
%TF.FilePolarity,Positive*%
%FSLAX46Y46*%
G04 Gerber Fmt 4.6, Leading zero omitted, Abs format (unit mm)*
G04 Created by KiCad (PCBNEW 9.0.7) date 2026-03-19 19:45:42*
%MOMM*%
%LPD*%
G01*
G04 APERTURE LIST*
%TA.AperFunction,ComponentPad*%
%ADD10C,8.000000*%
%TD*%
%TA.AperFunction,ComponentPad*%
%ADD11R,1.408000X1.408000*%
%TD*%
%TA.AperFunction,ComponentPad*%
%ADD12C,1.408000*%
%TD*%
%TA.AperFunction,ComponentPad*%
%ADD13C,4.216000*%
%TD*%
%TA.AperFunction,ComponentPad*%
%ADD14C,2.325000*%
%TD*%
%TA.AperFunction,ComponentPad*%
%ADD15C,2.475000*%
%TD*%
%TA.AperFunction,ViaPad*%
%ADD16C,0.800000*%
%TD*%
G04 APERTURE END LIST*
D10*
%TO.P,M3,1,Pin_1*%
%TO.N,GND*%
X4400000Y44400000D03*
%TD*%
%TO.P,M1,1,Pin_1*%
%TO.N,GND*%
X35600000Y4400000D03*
%TD*%
%TO.P,M4,1,Pin_1*%
%TO.N,GND*%
X4400000Y4400000D03*
%TD*%
D11*
%TO.P,J2,1,1*%
%TO.N,TX*%
X11380000Y55995000D03*
D12*
%TO.P,J2,2,2*%
%TO.N,RX*%
X13660000Y55995000D03*
%TO.P,J2,3,3*%
%TO.N,CFG*%
X15940000Y55995000D03*
%TO.P,J2,4,4*%
%TO.N,RTS*%
X18220000Y55995000D03*
%TO.P,J2,5,5*%
%TO.N,CTS*%
X20500000Y55995000D03*
%TO.P,J2,6,6*%
%TO.N,RST*%
X10240000Y58535000D03*
%TO.P,J2,7,7*%
%TO.N,GND*%
X12520000Y58535000D03*
%TO.P,J2,8,8*%
X14800000Y58535000D03*
%TO.P,J2,9,9*%
%TO.N,+3V3*%
X17080000Y58535000D03*
%TO.P,J2,10,10*%
X19360000Y58535000D03*
%TO.P,J2,11,11*%
%TO.N,GND*%
X11380000Y61075000D03*
%TO.P,J2,12,12*%
X13660000Y61075000D03*
%TO.P,J2,13,13*%
X15940000Y61075000D03*
%TO.P,J2,14,14*%
%TO.N,+5V*%
X18220000Y61075000D03*
%TO.P,J2,15,15*%
X20500000Y61075000D03*
D13*
%TO.P,J2,SH1,SHIELD*%
%TO.N,GND*%
X28180000Y58535000D03*
%TO.P,J2,SH2,SHIELD__1*%
X3190000Y58535000D03*
%TD*%
D10*
%TO.P,M2,1,Pin_1*%
%TO.N,GND*%
X35600000Y65600000D03*
%TD*%
D14*
%TO.P,J1,1*%
%TO.N,Net-(J1-Pad1)*%
X14125000Y4700000D03*
D15*
%TO.P,J1,G1*%
%TO.N,GND*%
X11585000Y7240000D03*
%TO.P,J1,G2*%
X16665000Y7240000D03*
%TO.P,J1,G3*%
X11585000Y2160000D03*
%TO.P,J1,G4*%
X16665000Y2160000D03*
%TD*%
D16*
%TO.N,GND*%
X15625000Y12700000D03*
X15625000Y11700000D03*
X16125000Y4700000D03*
X14125000Y18700000D03*
X15625000Y13700000D03*
X15125000Y18700000D03*
X13125000Y18700000D03*
X12625000Y14700000D03*
X15625000Y14700000D03*
X12125000Y4700000D03*
X30350000Y45425000D03*
X15625000Y9700000D03*
X15625000Y10700000D03*
X12625000Y12200000D03*
X14125000Y2700000D03*
%TD*%
%TA.AperFunction,Conductor*%
%TO.N,GND*%
G36*
X33894711Y69979815D02*
G01*
X33940466Y69927011D01*
X33950410Y69857853D01*
X33921385Y69794297D01*
X33878390Y69763303D01*
X33878736Y69762563D01*
X33520161Y69595355D01*
X33520145Y69595347D01*
X33179856Y69398881D01*
X33179841Y69398872D01*
X32857957Y69173486D01*
X32598107Y68955445D01*
X32598106Y68955444D01*
X34337971Y67215580D01*
X34245441Y67144579D01*
X34055421Y66954559D01*
X33984418Y66862027D01*
X32244554Y68601892D01*
X32244553Y68601891D01*
X32026513Y68342042D01*
X31801127Y68020158D01*
X31801118Y68020143D01*
X31604652Y67679854D01*
X31604644Y67679838D01*
X31438588Y67323733D01*
X31438582Y67323718D01*
X31304182Y66954458D01*
X31202485Y66574913D01*
X31202482Y66574900D01*
X31134248Y66187930D01*
X31100000Y65796475D01*
X31100000Y65403524D01*
X31134248Y65012069D01*
X31202482Y64625099D01*
X31202485Y64625086D01*
X31304182Y64245541D01*
X31438582Y63876281D01*
X31438588Y63876266D01*
X31604644Y63520161D01*
X31604652Y63520145D01*
X31801118Y63179856D01*
X31801127Y63179841D01*
X32026508Y62857964D01*
X32244555Y62598107D01*
X33984419Y64337972D01*
X34055421Y64245441D01*
X34245441Y64055421D01*
X34337972Y63984419D01*
X32598107Y62244555D01*
X32857964Y62026508D01*
X33179841Y61801127D01*
X33179856Y61801118D01*
X33520145Y61604652D01*
X33520161Y61604644D01*
X33876266Y61438588D01*
X33876281Y61438582D01*
X34245541Y61304182D01*
X34625086Y61202485D01*
X34625099Y61202482D01*
X35012070Y61134248D01*
X35012068Y61134248D01*
X35403524Y61100000D01*
X35796475Y61100000D01*
X36187930Y61134248D01*
X36574900Y61202482D01*
X36574913Y61202485D01*
X36954458Y61304182D01*
X37323718Y61438582D01*
X37323733Y61438588D01*
X37679838Y61604644D01*
X37679854Y61604652D01*
X38020143Y61801118D01*
X38020158Y61801127D01*
X38342042Y62026513D01*
X38601891Y62244553D01*
X38601892Y62244554D01*
X36862027Y63984418D01*
X36954559Y64055421D01*
X37144579Y64245441D01*
X37215580Y64337971D01*
X38955444Y62598106D01*
X38955445Y62598107D01*
X39173486Y62857957D01*
X39398872Y63179841D01*
X39398881Y63179856D01*
X39595347Y63520145D01*
X39595355Y63520161D01*
X39762563Y63878736D01*
X39763499Y63878299D01*
X39804777Y63929525D01*
X39871071Y63951592D01*
X39938770Y63934315D01*
X39986382Y63883179D01*
X39999500Y63827671D01*
X39999500Y6172328D01*
X39979815Y6105289D01*
X39927011Y6059534D01*
X39857853Y6049590D01*
X39794297Y6078615D01*
X39763303Y6121609D01*
X39762563Y6121264D01*
X39595355Y6479838D01*
X39595347Y6479854D01*
X39398881Y6820143D01*
X39398872Y6820158D01*
X39173486Y7142042D01*
X38955445Y7401891D01*
X38955444Y7401892D01*
X37215580Y5662027D01*
X37144579Y5754559D01*
X36954559Y5944579D01*
X36862027Y6015580D01*
X38601892Y7755444D01*
X38601891Y7755445D01*
X38342042Y7973486D01*
X38020158Y8198872D01*
X38020143Y8198881D01*
X37679854Y8395347D01*
X37679838Y8395355D01*
X37323733Y8561411D01*
X37323718Y8561417D01*
X36954458Y8695817D01*
X36574913Y8797514D01*
X36574900Y8797517D01*
X36187929Y8865751D01*
X36187931Y8865751D01*
X35796475Y8900000D01*
X35403525Y8900000D01*
X35012069Y8865751D01*
X34625099Y8797517D01*
X34625086Y8797514D01*
X34245541Y8695817D01*
X33876281Y8561417D01*
X33876266Y8561411D01*
X33520161Y8395355D01*
X33520145Y8395347D01*
X33179856Y8198881D01*
X33179841Y8198872D01*
X32857957Y7973486D01*
X32598107Y7755445D01*
X32598106Y7755444D01*
X34337971Y6015580D01*
X34245441Y5944579D01*
X34055421Y5754559D01*
X33984418Y5662027D01*
X32244554Y7401892D01*
X32244553Y7401891D01*
X32026513Y7142042D01*
X31801127Y6820158D01*
X31801118Y6820143D01*
X31604652Y6479854D01*
X31604644Y6479838D01*
X31438588Y6123733D01*
X31438582Y6123718D01*
X31304182Y5754458D01*
X31202485Y5374913D01*
X31202482Y5374900D01*
X31134248Y4987930D01*
X31100000Y4596475D01*
X31100000Y4203524D01*
X31134248Y3812069D01*
X31202482Y3425099D01*
X31202485Y3425086D01*
X31304182Y3045541D01*
X31438582Y2676281D01*
X31438588Y2676266D01*
X31604644Y2320161D01*
X31604652Y2320145D01*
X31801118Y1979856D01*
X31801127Y1979841D01*
X32026508Y1657964D01*
X32244555Y1398107D01*
X33984419Y3137972D01*
X34055421Y3045441D01*
X34245441Y2855421D01*
X34337972Y2784419D01*
X32598107Y1044555D01*
X32857964Y826508D01*
X33179841Y601127D01*
X33179856Y601118D01*
X33520145Y404652D01*
X33520161Y404644D01*
X33878736Y237437D01*
X33878296Y236493D01*
X33929507Y195250D01*
X33951592Y128962D01*
X33934332Y61258D01*
X33883209Y13632D01*
X33827672Y500D01*
X6172328Y500D01*
X6105289Y20185D01*
X6059534Y72989D01*
X6049590Y142147D01*
X6078615Y205703D01*
X6121609Y236696D01*
X6121264Y237437D01*
X6479838Y404644D01*
X6479854Y404652D01*
X6820143Y601118D01*
X6820158Y601127D01*
X7142035Y826508D01*
X7241821Y910239D01*
X7241823Y910240D01*
X7401891Y1044553D01*
X7401892Y1044554D01*
X5662027Y2784418D01*
X5754559Y2855421D01*
X5944579Y3045441D01*
X6015579Y3137971D01*
X7755444Y1398106D01*
X7755445Y1398107D01*
X7973486Y1657957D01*
X8198872Y1979841D01*
X8198881Y1979856D01*
X8368633Y2273875D01*
X9847500Y2273875D01*
X9847500Y2046124D01*
X9847501Y2046108D01*
X9877228Y1820306D01*
X9936180Y1600296D01*
X10023338Y1389878D01*
X10023343Y1389867D01*
X10137216Y1192633D01*
X10137226Y1192619D01*
X10192296Y1120850D01*
X10850018Y1778572D01*
X10853894Y1769216D01*
X10944181Y1634093D01*
X11059093Y1519181D01*
X11194216Y1428894D01*
X11203572Y1425018D01*
X10545850Y767296D01*
X10545849Y767296D01*
X10617619Y712226D01*
X10617633Y712216D01*
X10814867Y598343D01*
X10814878Y598338D01*
X11025296Y511180D01*
X11245306Y452228D01*
X11471108Y422501D01*
X11471125Y422500D01*
X11698875Y422500D01*
X11698891Y422501D01*
X11924693Y452228D01*
X12144703Y511180D01*
X12355121Y598338D01*
X12355132Y598343D01*
X12552364Y712215D01*
X12552371Y712221D01*
X12624148Y767295D01*
X12624148Y767296D01*
X11966427Y1425018D01*
X11975784Y1428894D01*
X12110907Y1519181D01*
X12225819Y1634093D01*
X12316106Y1769216D01*
X12319981Y1778571D01*
X12977702Y1120850D01*
X12977703Y1120850D01*
X13032778Y1192626D01*
X13146656Y1389867D01*
X13146661Y1389878D01*
X13233819Y1600296D01*
X13292771Y1820306D01*
X13322498Y2046108D01*
X13322500Y2046124D01*
X13322500Y2273875D01*
X14927500Y2273875D01*
X14927500Y2046124D01*
X14927501Y2046108D01*
X14957228Y1820306D01*
X15016180Y1600296D01*
X15103338Y1389878D01*
X15103343Y1389867D01*
X15217216Y1192633D01*
X15217226Y1192619D01*
X15272296Y1120850D01*
X15930018Y1778572D01*
X15933894Y1769216D01*
X16024181Y1634093D01*
X16139093Y1519181D01*
X16274216Y1428894D01*
X16283572Y1425018D01*
X15625850Y767296D01*
X15625849Y767296D01*
X15697619Y712226D01*
X15697633Y712216D01*
X15894867Y598343D01*
X15894878Y598338D01*
X16105296Y511180D01*
X16325306Y452228D01*
X16551108Y422501D01*
X16551125Y422500D01*
X16778875Y422500D01*
X16778891Y422501D01*
X17004693Y452228D01*
X17224703Y511180D01*
X17435121Y598338D01*
X17435132Y598343D01*
X17632364Y712215D01*
X17632371Y712221D01*
X17704148Y767295D01*
X17704148Y767296D01*
X17046427Y1425018D01*
X17055784Y1428894D01*
X17190907Y1519181D01*
X17305819Y1634093D01*
X17396106Y1769216D01*
X17399981Y1778571D01*
X18057702Y1120850D01*
X18057703Y1120850D01*
X18112778Y1192626D01*
X18226656Y1389867D01*
X18226661Y1389878D01*
X18313819Y1600296D01*
X18372771Y1820306D01*
X18402498Y2046108D01*
X18402500Y2046124D01*
X18402500Y2273875D01*
X18402498Y2273891D01*
X18372771Y2499693D01*
X18313819Y2719703D01*
X18226661Y2930121D01*
X18226656Y2930132D01*
X18112782Y3127366D01*
X18112776Y3127374D01*
X18057702Y3199148D01*
X17399981Y2541427D01*
X17396106Y2550784D01*
X17305819Y2685907D01*
X17190907Y2800819D01*
X17055784Y2891106D01*
X17046427Y2894981D01*
X17704148Y3552702D01*
X17632374Y3607776D01*
X17632366Y3607782D01*
X17435132Y3721656D01*
X17435121Y3721661D01*
X17224703Y3808819D01*
X17004693Y3867771D01*
X16778891Y3897498D01*
X16778875Y3897500D01*
X16551125Y3897500D01*
X16551108Y3897498D01*
X16325306Y3867771D01*
X16105296Y3808819D01*
X15894878Y3721661D01*
X15894867Y3721656D01*
X15697626Y3607778D01*
X15625850Y3552703D01*
X15625850Y3552702D01*
X16283571Y2894981D01*
X16274216Y2891106D01*
X16139093Y2800819D01*
X16024181Y2685907D01*
X15933894Y2550784D01*
X15930018Y2541427D01*
X15272296Y3199148D01*
X15272295Y3199148D01*
X15217221Y3127371D01*
X15217215Y3127364D01*
X15103343Y2930132D01*
X15103338Y2930121D01*
X15016180Y2719703D01*
X14957228Y2499693D01*
X14927501Y2273891D01*
X14927500Y2273875D01*
X13322500Y2273875D01*
X13322498Y2273891D01*
X13292771Y2499693D01*
X13233819Y2719703D01*
X13146661Y2930121D01*
X13146656Y2930132D01*
X13032782Y3127366D01*
X13032776Y3127374D01*
X12977702Y3199148D01*
X12319981Y2541427D01*
X12316106Y2550784D01*
X12225819Y2685907D01*
X12110907Y2800819D01*
X11975784Y2891106D01*
X11966427Y2894981D01*
X12624148Y3552702D01*
X12552374Y3607776D01*
X12552366Y3607782D01*
X12355132Y3721656D01*
X12355121Y3721661D01*
X12144703Y3808819D01*
X11924693Y3867771D01*
X11698891Y3897498D01*
X11698875Y3897500D01*
X11471125Y3897500D01*
X11471108Y3897498D01*
X11245306Y3867771D01*
X11025296Y3808819D01*
X10814878Y3721661D01*
X10814867Y3721656D01*
X10617626Y3607778D01*
X10545850Y3552703D01*
X10545850Y3552702D01*
X11203571Y2894981D01*
X11194216Y2891106D01*
X11059093Y2800819D01*
X10944181Y2685907D01*
X10853894Y2550784D01*
X10850018Y2541427D01*
X10192296Y3199148D01*
X10192295Y3199148D01*
X10137221Y3127371D01*
X10137215Y3127364D01*
X10023343Y2930132D01*
X10023338Y2930121D01*
X9936180Y2719703D01*
X9877228Y2499693D01*
X9847501Y2273891D01*
X9847500Y2273875D01*
X8368633Y2273875D01*
X8395347Y2320145D01*
X8395355Y2320161D01*
X8400105Y2330346D01*
X8561411Y2676266D01*
X8561417Y2676281D01*
X8695817Y3045541D01*
X8797514Y3425086D01*
X8797518Y3425103D01*
X8815359Y3526282D01*
X8815359Y3526283D01*
X8865751Y3812069D01*
X8899999Y4203524D01*
X8900000Y4203525D01*
X8900000Y4596475D01*
X8899999Y4596477D01*
X8882077Y4801335D01*
X8881557Y4807275D01*
X12762000Y4807275D01*
X12762000Y4592724D01*
X12795560Y4380829D01*
X12861859Y4176784D01*
X12959258Y3985631D01*
X13023290Y3897500D01*
X13085362Y3812065D01*
X13085364Y3812063D01*
X13085364Y3812062D01*
X13237062Y3660364D01*
X13410631Y3534258D01*
X13601784Y3436859D01*
X13805829Y3370560D01*
X14017725Y3337000D01*
X14017730Y3337000D01*
X14232275Y3337000D01*
X14444170Y3370560D01*
X14648215Y3436859D01*
X14839368Y3534258D01*
X14936829Y3605068D01*
X15012935Y3660362D01*
X15164638Y3812065D01*
X15290742Y3985632D01*
X15336758Y4075943D01*
X15388140Y4176784D01*
X15394564Y4196553D01*
X15454439Y4380830D01*
X15457475Y4400000D01*
X15488000Y4592724D01*
X15488000Y4807275D01*
X15454439Y5019170D01*
X15441054Y5060365D01*
X15388142Y5223211D01*
X15290742Y5414368D01*
X15164638Y5587935D01*
X15012935Y5739638D01*
X14839368Y5865742D01*
X14648211Y5963142D01*
X14444170Y6029439D01*
X14232275Y6063000D01*
X14232270Y6063000D01*
X14017730Y6063000D01*
X14017725Y6063000D01*
X13805829Y6029439D01*
X13711160Y5998678D01*
X13601789Y5963142D01*
X13601786Y5963140D01*
X13601784Y5963140D01*
X13565357Y5944579D01*
X13410632Y5865742D01*
X13237065Y5739638D01*
X13085362Y5587935D01*
X13023290Y5502500D01*
X12959258Y5414368D01*
X12861859Y5223215D01*
X12795560Y5019170D01*
X12762000Y4807275D01*
X8881557Y4807275D01*
X8865751Y4987930D01*
X8797517Y5374900D01*
X8797514Y5374913D01*
X8695817Y5754458D01*
X8660010Y5852839D01*
X8561414Y6123725D01*
X8561411Y6123733D01*
X8395355Y6479838D01*
X8395347Y6479854D01*
X8198881Y6820143D01*
X8198872Y6820158D01*
X7973486Y7142042D01*
X7859206Y7278235D01*
X7795736Y7353875D01*
X9847500Y7353875D01*
X9847500Y7126124D01*
X9847501Y7126108D01*
X9877228Y6900306D01*
X9936180Y6680296D01*
X10023338Y6469878D01*
X10023343Y6469867D01*
X10137216Y6272633D01*
X10137226Y6272619D01*
X10192296Y6200850D01*
X10850018Y6858572D01*
X10853894Y6849216D01*
X10944181Y6714093D01*
X11059093Y6599181D01*
X11194216Y6508894D01*
X11203572Y6505018D01*
X10545850Y5847296D01*
X10545849Y5847296D01*
X10617619Y5792226D01*
X10617633Y5792216D01*
X10814867Y5678343D01*
X10814878Y5678338D01*
X11025296Y5591180D01*
X11245306Y5532228D01*
X11471108Y5502501D01*
X11471125Y5502500D01*
X11698875Y5502500D01*
X11698891Y5502501D01*
X11924693Y5532228D01*
X12144703Y5591180D01*
X12355121Y5678338D01*
X12355132Y5678343D01*
X12552364Y5792215D01*
X12552371Y5792221D01*
X12624148Y5847295D01*
X12624148Y5847296D01*
X11966427Y6505018D01*
X11975784Y6508894D01*
X12110907Y6599181D01*
X12225819Y6714093D01*
X12316106Y6849216D01*
X12319981Y6858571D01*
X12977702Y6200850D01*
X12977703Y6200850D01*
X13032778Y6272626D01*
X13146656Y6469867D01*
X13146661Y6469878D01*
X13233819Y6680296D01*
X13292771Y6900306D01*
X13322498Y7126108D01*
X13322500Y7126124D01*
X13322500Y7353875D01*
X14927500Y7353875D01*
X14927500Y7126124D01*
X14927501Y7126108D01*
X14957228Y6900306D01*
X15016180Y6680296D01*
X15103338Y6469878D01*
X15103343Y6469867D01*
X15217216Y6272633D01*
X15217226Y6272619D01*
X15272296Y6200850D01*
X15930018Y6858572D01*
X15933894Y6849216D01*
X16024181Y6714093D01*
X16139093Y6599181D01*
X16274216Y6508894D01*
X16283572Y6505018D01*
X15625850Y5847296D01*
X15625849Y5847296D01*
X15697619Y5792226D01*
X15697633Y5792216D01*
X15894867Y5678343D01*
X15894878Y5678338D01*
X16105296Y5591180D01*
X16325306Y5532228D01*
X16551108Y5502501D01*
X16551125Y5502500D01*
X16778875Y5502500D01*
X16778891Y5502501D01*
X17004693Y5532228D01*
X17224703Y5591180D01*
X17435121Y5678338D01*
X17435132Y5678343D01*
X17632364Y5792215D01*
X17632371Y5792221D01*
X17704148Y5847295D01*
X17704148Y5847296D01*
X17046427Y6505018D01*
X17055784Y6508894D01*
X17190907Y6599181D01*
X17305819Y6714093D01*
X17396106Y6849216D01*
X17399981Y6858571D01*
X18057702Y6200850D01*
X18057703Y6200850D01*
X18112778Y6272626D01*
X18226656Y6469867D01*
X18226661Y6469878D01*
X18313819Y6680296D01*
X18372771Y6900306D01*
X18402498Y7126108D01*
X18402500Y7126124D01*
X18402500Y7353875D01*
X18402498Y7353891D01*
X18372771Y7579693D01*
X18347435Y7674250D01*
X18313819Y7799703D01*
X18226661Y8010121D01*
X18226656Y8010132D01*
X18112782Y8207366D01*
X18112776Y8207374D01*
X18057702Y8279148D01*
X17399981Y7621427D01*
X17396106Y7630784D01*
X17305819Y7765907D01*
X17190907Y7880819D01*
X17055784Y7971106D01*
X17046427Y7974981D01*
X17704148Y8632702D01*
X17632374Y8687776D01*
X17632366Y8687782D01*
X17435132Y8801656D01*
X17435121Y8801661D01*
X17224703Y8888819D01*
X17004693Y8947771D01*
X16778891Y8977498D01*
X16778875Y8977500D01*
X16551125Y8977500D01*
X16551108Y8977498D01*
X16325306Y8947771D01*
X16105296Y8888819D01*
X15894878Y8801661D01*
X15894867Y8801656D01*
X15697626Y8687778D01*
X15625850Y8632703D01*
X15625850Y8632702D01*
X16283571Y7974981D01*
X16274216Y7971106D01*
X16139093Y7880819D01*
X16024181Y7765907D01*
X15933894Y7630784D01*
X15930018Y7621427D01*
X15272296Y8279148D01*
X15272295Y8279148D01*
X15217221Y8207371D01*
X15217215Y8207364D01*
X15103343Y8010132D01*
X15103338Y8010121D01*
X15016180Y7799703D01*
X14957228Y7579693D01*
X14927501Y7353891D01*
X14927500Y7353875D01*
X13322500Y7353875D01*
X13322498Y7353891D01*
X13292771Y7579693D01*
X13233819Y7799703D01*
X13146661Y8010121D01*
X13146656Y8010132D01*
X13032782Y8207366D01*
X13032776Y8207374D01*
X12977702Y8279148D01*
X12319981Y7621427D01*
X12316106Y7630784D01*
X12225819Y7765907D01*
X12110907Y7880819D01*
X11975784Y7971106D01*
X11966427Y7974981D01*
X12624148Y8632702D01*
X12552374Y8687776D01*
X12552366Y8687782D01*
X12355132Y8801656D01*
X12355121Y8801661D01*
X12144703Y8888819D01*
X11924693Y8947771D01*
X11698891Y8977498D01*
X11698875Y8977500D01*
X11471125Y8977500D01*
X11471108Y8977498D01*
X11245306Y8947771D01*
X11025296Y8888819D01*
X10814878Y8801661D01*
X10814867Y8801656D01*
X10617626Y8687778D01*
X10545850Y8632703D01*
X10545850Y8632702D01*
X11203571Y7974981D01*
X11194216Y7971106D01*
X11059093Y7880819D01*
X10944181Y7765907D01*
X10853894Y7630784D01*
X10850018Y7621427D01*
X10192296Y8279148D01*
X10192295Y8279148D01*
X10137221Y8207371D01*
X10137215Y8207364D01*
X10023343Y8010132D01*
X10023338Y8010121D01*
X9936180Y7799703D01*
X9877228Y7579693D01*
X9847501Y7353891D01*
X9847500Y7353875D01*
X7795736Y7353875D01*
X7755445Y7401891D01*
X7755444Y7401892D01*
X6015580Y5662027D01*
X5944579Y5754559D01*
X5754559Y5944579D01*
X5662027Y6015580D01*
X7401892Y7755444D01*
X7401891Y7755445D01*
X7142042Y7973486D01*
X6820158Y8198872D01*
X6820143Y8198881D01*
X6479854Y8395347D01*
X6479838Y8395355D01*
X6314686Y8472368D01*
X6123733Y8561411D01*
X6123718Y8561417D01*
X5754458Y8695817D01*
X5374913Y8797514D01*
X5374900Y8797517D01*
X4987929Y8865751D01*
X4987931Y8865751D01*
X4596475Y8900000D01*
X4203525Y8900000D01*
X3812069Y8865751D01*
X3425099Y8797517D01*
X3425086Y8797514D01*
X3045541Y8695817D01*
X2676281Y8561417D01*
X2676266Y8561411D01*
X2320161Y8395355D01*
X2320145Y8395347D01*
X1979856Y8198881D01*
X1979841Y8198872D01*
X1657957Y7973486D01*
X1398107Y7755445D01*
X1398106Y7755444D01*
X3137971Y6015580D01*
X3045441Y5944579D01*
X2855421Y5754559D01*
X2784418Y5662027D01*
X1044554Y7401892D01*
X1044553Y7401891D01*
X826513Y7142042D01*
X601127Y6820158D01*
X601118Y6820143D01*
X404652Y6479854D01*
X404644Y6479838D01*
X237437Y6121264D01*
X236493Y6121703D01*
X195250Y6070493D01*
X128962Y6048408D01*
X61258Y6065668D01*
X13632Y6116791D01*
X500Y6172328D01*
X500Y42627671D01*
X20185Y42694710D01*
X72989Y42740465D01*
X142147Y42750409D01*
X205703Y42721384D01*
X236701Y42678393D01*
X237437Y42678736D01*
X404644Y42320161D01*
X404652Y42320145D01*
X601118Y41979856D01*
X601127Y41979841D01*
X826508Y41657964D01*
X1044555Y41398107D01*
X2784419Y43137972D01*
X2855421Y43045441D01*
X3045441Y42855421D01*
X3137972Y42784419D01*
X1398107Y41044555D01*
X1657964Y40826508D01*
X1979841Y40601127D01*
X1979856Y40601118D01*
X2320145Y40404652D01*
X2320161Y40404644D01*
X2676266Y40238588D01*
X2676281Y40238582D01*
X3045541Y40104182D01*
X3425086Y40002485D01*
X3425099Y40002482D01*
X3812070Y39934248D01*
X3812068Y39934248D01*
X4203524Y39900000D01*
X4596475Y39900000D01*
X4987930Y39934248D01*
X5374900Y40002482D01*
X5374913Y40002485D01*
X5754458Y40104182D01*
X6123718Y40238582D01*
X6123733Y40238588D01*
X6479838Y40404644D01*
X6479854Y40404652D01*
X6820143Y40601118D01*
X6820158Y40601127D01*
X7142042Y40826513D01*
X7401891Y41044553D01*
X7401892Y41044554D01*
X5662027Y42784418D01*
X5754559Y42855421D01*
X5944579Y43045441D01*
X6015579Y43137971D01*
X7755444Y41398106D01*
X7755445Y41398107D01*
X7973486Y41657957D01*
X8198872Y41979841D01*
X8198881Y41979856D01*
X8395347Y42320145D01*
X8395355Y42320161D01*
X8561411Y42676266D01*
X8561417Y42676281D01*
X8695817Y43045541D01*
X8797514Y43425086D01*
X8797517Y43425099D01*
X8865751Y43812069D01*
X8899999Y44203524D01*
X8900000Y44203525D01*
X8900000Y44596475D01*
X8865751Y44987930D01*
X8797517Y45374900D01*
X8797514Y45374913D01*
X8695817Y45754458D01*
X8561417Y46123718D01*
X8561411Y46123733D01*
X8395355Y46479838D01*
X8395347Y46479854D01*
X8198881Y46820143D01*
X8198872Y46820158D01*
X7973486Y47142042D01*
X7755445Y47401891D01*
X7755444Y47401892D01*
X6015580Y45662027D01*
X5944579Y45754559D01*
X5754559Y45944579D01*
X5662027Y46015580D01*
X7401892Y47755444D01*
X7401891Y47755445D01*
X7142042Y47973486D01*
X6820158Y48198872D01*
X6820143Y48198881D01*
X6479854Y48395347D01*
X6479838Y48395355D01*
X6123733Y48561411D01*
X6123718Y48561417D01*
X5754458Y48695817D01*
X5374913Y48797514D01*
X5374900Y48797517D01*
X4987929Y48865751D01*
X4987931Y48865751D01*
X4596475Y48900000D01*
X4203525Y48900000D01*
X3812069Y48865751D01*
X3425099Y48797517D01*
X3425086Y48797514D01*
X3045541Y48695817D01*
X2676281Y48561417D01*
X2676266Y48561411D01*
X2320161Y48395355D01*
X2320145Y48395347D01*
X1979856Y48198881D01*
X1979841Y48198872D01*
X1657957Y47973486D01*
X1398107Y47755445D01*
X1398106Y47755444D01*
X3137971Y46015580D01*
X3045441Y45944579D01*
X2855421Y45754559D01*
X2784418Y45662027D01*
X1044554Y47401892D01*
X1044553Y47401891D01*
X826513Y47142042D01*
X601127Y46820158D01*
X601118Y46820143D01*
X404652Y46479854D01*
X404644Y46479838D01*
X237437Y46121264D01*
X236493Y46121703D01*
X195250Y46070493D01*
X128962Y46048408D01*
X61258Y46065668D01*
X13632Y46116791D01*
X500Y46172328D01*
X500Y58681468D01*
X582000Y58681468D01*
X582000Y58388531D01*
X614794Y58097469D01*
X614797Y58097455D01*
X679978Y57811875D01*
X679982Y57811863D01*
X776723Y57535395D01*
X776729Y57535381D01*
X903819Y57271476D01*
X1059667Y57023444D01*
X1059670Y57023440D01*
X1177336Y56875890D01*
X1895747Y57594301D01*
X1969588Y57492670D01*
X2147670Y57314588D01*
X2249301Y57240747D01*
X1530890Y56522336D01*
X1678440Y56404670D01*
X1678444Y56404667D01*
X1926476Y56248819D01*
X2190381Y56121729D01*
X2190395Y56121723D01*
X2466863Y56024982D01*
X2466875Y56024978D01*
X2752455Y55959797D01*
X2752469Y55959794D01*
X3043531Y55927000D01*
X3336468Y55927000D01*
X3627530Y55959794D01*
X3627544Y55959797D01*
X3913124Y56024978D01*
X3913136Y56024982D01*
X4189604Y56121723D01*
X4189618Y56121729D01*
X4453523Y56248819D01*
X4701551Y56404665D01*
X4849108Y56522336D01*
X4734286Y56637159D01*
X4652693Y56718752D01*
X10475500Y56718752D01*
X10475500Y55271247D01*
X10487131Y55212770D01*
X10487132Y55212769D01*
X10531447Y55146447D01*
X10597769Y55102132D01*
X10597770Y55102131D01*
X10656247Y55090500D01*
X10656252Y55090500D01*
X12103752Y55090500D01*
X12162229Y55102131D01*
X12162230Y55102132D01*
X12228552Y55146447D01*
X12272867Y55212769D01*
X12272868Y55212770D01*
X12284499Y55271247D01*
X12284500Y55271249D01*
X12284500Y55905912D01*
X12755499Y55905912D01*
X12790258Y55731172D01*
X12790260Y55731166D01*
X12858442Y55566560D01*
X12957430Y55418412D01*
X13083412Y55292430D01*
X13231560Y55193442D01*
X13396166Y55125260D01*
X13396172Y55125258D01*
X13570913Y55090500D01*
X13570915Y55090500D01*
X13749087Y55090500D01*
X13923827Y55125258D01*
X13923833Y55125260D01*
X14088439Y55193442D01*
X14088441Y55193443D01*
X14204891Y55271252D01*
X14236587Y55292430D01*
X14362569Y55418412D01*
X14363234Y55419408D01*
X14461557Y55566559D01*
X14529740Y55731167D01*
X14529741Y55731172D01*
X14564500Y55905912D01*
X15035499Y55905912D01*
X15070258Y55731172D01*
X15070260Y55731166D01*
X15138442Y55566560D01*
X15237430Y55418412D01*
X15363412Y55292430D01*
X15511560Y55193442D01*
X15676166Y55125260D01*
X15676172Y55125258D01*
X15850913Y55090500D01*
X15850915Y55090500D01*
X16029087Y55090500D01*
X16203827Y55125258D01*
X16203833Y55125260D01*
X16368439Y55193442D01*
X16368441Y55193443D01*
X16484891Y55271252D01*
X16516587Y55292430D01*
X16642569Y55418412D01*
X16643234Y55419408D01*
X16741557Y55566559D01*
X16809740Y55731167D01*
X16809741Y55731172D01*
X16844500Y55905912D01*
X17315499Y55905912D01*
X17350258Y55731172D01*
X17350260Y55731166D01*
X17418442Y55566560D01*
X17517430Y55418412D01*
X17643412Y55292430D01*
X17791560Y55193442D01*
X17956166Y55125260D01*
X17956172Y55125258D01*
X18130913Y55090500D01*
X18130915Y55090500D01*
X18309087Y55090500D01*
X18483827Y55125258D01*
X18483833Y55125260D01*
X18648439Y55193442D01*
X18648441Y55193443D01*
X18764891Y55271252D01*
X18796587Y55292430D01*
X18922569Y55418412D01*
X18923234Y55419408D01*
X19021557Y55566559D01*
X19089740Y55731167D01*
X19089741Y55731172D01*
X19124500Y55905912D01*
X19595499Y55905912D01*
X19630258Y55731172D01*
X19630260Y55731166D01*
X19698442Y55566560D01*
X19797430Y55418412D01*
X19923412Y55292430D01*
X20071560Y55193442D01*
X20236166Y55125260D01*
X20236172Y55125258D01*
X20410913Y55090500D01*
X20410915Y55090500D01*
X20589087Y55090500D01*
X20763827Y55125258D01*
X20763833Y55125260D01*
X20928439Y55193442D01*
X20928441Y55193443D01*
X21044891Y55271252D01*
X21076587Y55292430D01*
X21202569Y55418412D01*
X21203234Y55419408D01*
X21301557Y55566559D01*
X21369740Y55731167D01*
X21369741Y55731172D01*
X21404500Y55905912D01*
X21404500Y56084087D01*
X21369741Y56258827D01*
X21369740Y56258833D01*
X21301557Y56423441D01*
X21202571Y56571585D01*
X21076585Y56697571D01*
X20928441Y56796557D01*
X20763833Y56864740D01*
X20706649Y56876114D01*
X20589087Y56899500D01*
X20589085Y56899500D01*
X20410915Y56899500D01*
X20410913Y56899500D01*
X20236172Y56864741D01*
X20236167Y56864740D01*
X20071559Y56796557D01*
X19955115Y56718752D01*
X19923412Y56697569D01*
X19797430Y56571587D01*
X19698442Y56423439D01*
X19630260Y56258833D01*
X19630258Y56258827D01*
X19595500Y56084087D01*
X19595500Y55905912D01*
X19595499Y55905912D01*
X19124500Y55905912D01*
X19124500Y56084087D01*
X19089741Y56258827D01*
X19089740Y56258833D01*
X19021557Y56423441D01*
X18922571Y56571585D01*
X18796585Y56697571D01*
X18648441Y56796557D01*
X18483833Y56864740D01*
X18426649Y56876114D01*
X18309087Y56899500D01*
X18309085Y56899500D01*
X18130915Y56899500D01*
X18130913Y56899500D01*
X17956172Y56864741D01*
X17956167Y56864740D01*
X17791559Y56796557D01*
X17675115Y56718752D01*
X17643412Y56697569D01*
X17517430Y56571587D01*
X17418442Y56423439D01*
X17350260Y56258833D01*
X17350258Y56258827D01*
X17315500Y56084087D01*
X17315500Y55905912D01*
X17315499Y55905912D01*
X16844500Y55905912D01*
X16844500Y56084087D01*
X16809741Y56258827D01*
X16809740Y56258833D01*
X16741557Y56423441D01*
X16642571Y56571585D01*
X16516585Y56697571D01*
X16368441Y56796557D01*
X16203833Y56864740D01*
X16146649Y56876114D01*
X16029087Y56899500D01*
X16029085Y56899500D01*
X15850915Y56899500D01*
X15850913Y56899500D01*
X15676172Y56864741D01*
X15676167Y56864740D01*
X15511559Y56796557D01*
X15395115Y56718752D01*
X15363412Y56697569D01*
X15237430Y56571587D01*
X15138442Y56423439D01*
X15070260Y56258833D01*
X15070258Y56258827D01*
X15035500Y56084087D01*
X15035500Y55905912D01*
X15035499Y55905912D01*
X14564500Y55905912D01*
X14564500Y56084087D01*
X14529741Y56258827D01*
X14529740Y56258833D01*
X14461557Y56423441D01*
X14362571Y56571585D01*
X14236585Y56697571D01*
X14088441Y56796557D01*
X13923833Y56864740D01*
X13866649Y56876114D01*
X13749087Y56899500D01*
X13749085Y56899500D01*
X13570915Y56899500D01*
X13570913Y56899500D01*
X13396172Y56864741D01*
X13396167Y56864740D01*
X13231559Y56796557D01*
X13115115Y56718752D01*
X13083412Y56697569D01*
X12957430Y56571587D01*
X12858442Y56423439D01*
X12790260Y56258833D01*
X12790258Y56258827D01*
X12755500Y56084087D01*
X12755500Y55905912D01*
X12755499Y55905912D01*
X12284500Y55905912D01*
X12284500Y56718750D01*
X12284499Y56718752D01*
X12272868Y56777229D01*
X12272867Y56777230D01*
X12272867Y56777231D01*
X12228552Y56843552D01*
X12162231Y56887867D01*
X12162229Y56887867D01*
X12162229Y56887868D01*
X12118568Y56896552D01*
X12103751Y56899499D01*
X12103751Y56899500D01*
X12103748Y56899500D01*
X10656252Y56899500D01*
X10656249Y56899500D01*
X10656247Y56899499D01*
X10597770Y56887868D01*
X10597769Y56887867D01*
X10531447Y56843552D01*
X10487132Y56777230D01*
X10487131Y56777229D01*
X10475500Y56718752D01*
X4652693Y56718752D01*
X4130697Y57240747D01*
X4232330Y57314588D01*
X4410412Y57492670D01*
X4484251Y57594301D01*
X5202662Y56875890D01*
X5320334Y57023448D01*
X5476180Y57271476D01*
X5603270Y57535381D01*
X5603276Y57535395D01*
X5700017Y57811863D01*
X5700021Y57811875D01*
X5765202Y58097455D01*
X5765205Y58097469D01*
X5797999Y58388531D01*
X5798000Y58388535D01*
X5798000Y58445912D01*
X9335499Y58445912D01*
X9370258Y58271172D01*
X9370260Y58271166D01*
X9438442Y58106560D01*
X9537430Y57958412D01*
X9663412Y57832430D01*
X9811560Y57733442D01*
X9976166Y57665260D01*
X9976172Y57665258D01*
X10150913Y57630500D01*
X10150915Y57630500D01*
X10329087Y57630500D01*
X10503827Y57665258D01*
X10503837Y57665261D01*
X10554078Y57686072D01*
X10554080Y57686073D01*
X10668439Y57733442D01*
X10668441Y57733443D01*
X10785824Y57811875D01*
X10816587Y57832430D01*
X10942569Y57958412D01*
X11019014Y58072821D01*
X11041557Y58106559D01*
X11109740Y58271167D01*
X11109740Y58271168D01*
X11110289Y58272493D01*
X11154130Y58326896D01*
X11220424Y58348961D01*
X11288123Y58331682D01*
X11335734Y58280545D01*
X11344077Y58257676D01*
X11344140Y58257697D01*
X11344712Y58255936D01*
X11345424Y58253985D01*
X11345644Y58253067D01*
X11404210Y58072821D01*
X11490245Y57903969D01*
X11509253Y57877806D01*
X12077861Y58446414D01*
X12100667Y58361306D01*
X12159910Y58258694D01*
X12243694Y58174910D01*
X12346306Y58115667D01*
X12431415Y58092861D01*
X11862806Y57524253D01*
X11888969Y57505245D01*
X12057821Y57419210D01*
X12238062Y57360645D01*
X12425238Y57331000D01*
X12614762Y57331000D01*
X12801937Y57360645D01*
X12982178Y57419210D01*
X13151033Y57505246D01*
X13177193Y57524253D01*
X12608584Y58092861D01*
X12693694Y58115667D01*
X12796306Y58174910D01*
X12880090Y58258694D01*
X12939333Y58361306D01*
X12962137Y58446414D01*
X13530745Y57877806D01*
X13530746Y57877806D01*
X13549754Y57903967D01*
X13552300Y57908122D01*
X13553301Y57907508D01*
X13597492Y57954296D01*
X13665313Y57971090D01*
X13731447Y57948551D01*
X13766901Y57907635D01*
X13767699Y57908124D01*
X13770243Y57903972D01*
X13789253Y57877806D01*
X14357861Y58446414D01*
X14380667Y58361306D01*
X14439910Y58258694D01*
X14523694Y58174910D01*
X14626306Y58115667D01*
X14711415Y58092861D01*
X14142806Y57524253D01*
X14168969Y57505245D01*
X14337821Y57419210D01*
X14518062Y57360645D01*
X14705238Y57331000D01*
X14894762Y57331000D01*
X15081937Y57360645D01*
X15262178Y57419210D01*
X15431033Y57505246D01*
X15457192Y57524253D01*
X15457193Y57524253D01*
X14888584Y58092861D01*
X14973694Y58115667D01*
X15076306Y58174910D01*
X15160090Y58258694D01*
X15219333Y58361306D01*
X15242137Y58446414D01*
X15810745Y57877806D01*
X15810746Y57877806D01*
X15829752Y57903966D01*
X15915789Y58072821D01*
X15974351Y58253054D01*
X15974570Y58253965D01*
X15974748Y58254275D01*
X15975860Y58257697D01*
X15976578Y58257463D01*
X16009350Y58314564D01*
X16071370Y58346739D01*
X16140940Y58340275D01*
X16195972Y58297226D01*
X16209710Y58272493D01*
X16278441Y58106561D01*
X16377430Y57958412D01*
X16503412Y57832430D01*
X16651560Y57733442D01*
X16816166Y57665260D01*
X16816172Y57665258D01*
X16990913Y57630500D01*
X16990915Y57630500D01*
X17169087Y57630500D01*
X17343827Y57665258D01*
X17343833Y57665260D01*
X17508439Y57733442D01*
X17508441Y57733443D01*
X17625824Y57811875D01*
X17656587Y57832430D01*
X17782569Y57958412D01*
X17859014Y58072821D01*
X17881557Y58106559D01*
X17949740Y58271167D01*
X17958372Y58314564D01*
X17984500Y58445912D01*
X18455499Y58445912D01*
X18490258Y58271172D01*
X18490260Y58271166D01*
X18558442Y58106560D01*
X18657430Y57958412D01*
X18783412Y57832430D01*
X18931560Y57733442D01*
X19096166Y57665260D01*
X19096172Y57665258D01*
X19270913Y57630500D01*
X19270915Y57630500D01*
X19449087Y57630500D01*
X19623827Y57665258D01*
X19623833Y57665260D01*
X19788439Y57733442D01*
X19788441Y57733443D01*
X19905824Y57811875D01*
X19936587Y57832430D01*
X20062569Y57958412D01*
X20139014Y58072821D01*
X20161557Y58106559D01*
X20229740Y58271167D01*
X20238372Y58314564D01*
X20264500Y58445912D01*
X20264500Y58624086D01*
X20257207Y58660748D01*
X20257207Y58660750D01*
X20253086Y58681468D01*
X25572000Y58681468D01*
X25572000Y58388531D01*
X25604794Y58097469D01*
X25604797Y58097455D01*
X25669978Y57811875D01*
X25669982Y57811863D01*
X25766723Y57535395D01*
X25766729Y57535381D01*
X25893819Y57271476D01*
X26049667Y57023444D01*
X26049670Y57023440D01*
X26167336Y56875890D01*
X26885747Y57594301D01*
X26959588Y57492670D01*
X27137670Y57314588D01*
X27239301Y57240747D01*
X26520890Y56522336D01*
X26668440Y56404670D01*
X26668444Y56404667D01*
X26916476Y56248819D01*
X27180381Y56121729D01*
X27180395Y56121723D01*
X27456863Y56024982D01*
X27456875Y56024978D01*
X27742455Y55959797D01*
X27742469Y55959794D01*
X28033531Y55927000D01*
X28326468Y55927000D01*
X28617530Y55959794D01*
X28617544Y55959797D01*
X28903124Y56024978D01*
X28903136Y56024982D01*
X29179604Y56121723D01*
X29179618Y56121729D01*
X29443523Y56248819D01*
X29691551Y56404665D01*
X29839108Y56522336D01*
X29120697Y57240747D01*
X29222330Y57314588D01*
X29400412Y57492670D01*
X29474251Y57594301D01*
X30192662Y56875890D01*
X30310334Y57023448D01*
X30466180Y57271476D01*
X30593270Y57535381D01*
X30593276Y57535395D01*
X30690017Y57811863D01*
X30690021Y57811875D01*
X30755202Y58097455D01*
X30755205Y58097469D01*
X30787999Y58388531D01*
X30788000Y58388535D01*
X30788000Y58681464D01*
X30787999Y58681468D01*
X30755205Y58972530D01*
X30755202Y58972544D01*
X30690021Y59258124D01*
X30690017Y59258136D01*
X30593276Y59534604D01*
X30593270Y59534618D01*
X30466180Y59798523D01*
X30310334Y60046551D01*
X30192662Y60194108D01*
X29474251Y59475698D01*
X29400412Y59577330D01*
X29222330Y59755412D01*
X29120698Y59829251D01*
X29839108Y60547662D01*
X29691551Y60665334D01*
X29443523Y60821180D01*
X29179618Y60948270D01*
X29179604Y60948276D01*
X28903136Y61045017D01*
X28903124Y61045021D01*
X28617544Y61110202D01*
X28617530Y61110205D01*
X28326468Y61142999D01*
X28326464Y61143000D01*
X28033536Y61143000D01*
X28033531Y61142999D01*
X27742469Y61110205D01*
X27742455Y61110202D01*
X27456875Y61045021D01*
X27456863Y61045017D01*
X27180395Y60948276D01*
X27180381Y60948270D01*
X26916476Y60821180D01*
X26668448Y60665334D01*
X26520890Y60547662D01*
X27239301Y59829251D01*
X27137670Y59755412D01*
X26959588Y59577330D01*
X26885747Y59475697D01*
X26167336Y60194108D01*
X26049665Y60046551D01*
X25893819Y59798523D01*
X25766729Y59534618D01*
X25766723Y59534604D01*
X25669982Y59258136D01*
X25669978Y59258124D01*
X25604797Y58972544D01*
X25604794Y58972530D01*
X25572000Y58681468D01*
X20253086Y58681468D01*
X20247670Y58708694D01*
X20229740Y58798833D01*
X20161557Y58963441D01*
X20062571Y59111585D01*
X19936585Y59237571D01*
X19788441Y59336557D01*
X19623833Y59404740D01*
X19566649Y59416114D01*
X19449087Y59439500D01*
X19449085Y59439500D01*
X19270915Y59439500D01*
X19270913Y59439500D01*
X19096172Y59404741D01*
X19096167Y59404740D01*
X18931559Y59336557D01*
X18814193Y59258136D01*
X18783412Y59237569D01*
X18657430Y59111587D01*
X18657429Y59111585D01*
X18564526Y58972544D01*
X18558442Y58963439D01*
X18490260Y58798833D01*
X18490258Y58798827D01*
X18455500Y58624087D01*
X18455500Y58445912D01*
X18455499Y58445912D01*
X17984500Y58445912D01*
X17984500Y58624087D01*
X17960826Y58743103D01*
X17949740Y58798833D01*
X17881557Y58963441D01*
X17782571Y59111585D01*
X17656585Y59237571D01*
X17508441Y59336557D01*
X17343833Y59404740D01*
X17286649Y59416114D01*
X17169087Y59439500D01*
X17169085Y59439500D01*
X16990915Y59439500D01*
X16990913Y59439500D01*
X16816172Y59404741D01*
X16816167Y59404740D01*
X16651559Y59336557D01*
X16534193Y59258136D01*
X16503412Y59237569D01*
X16377430Y59111587D01*
X16278441Y58963439D01*
X16209710Y58797506D01*
X16165869Y58743103D01*
X16099575Y58721038D01*
X16031875Y58738317D01*
X15984265Y58789455D01*
X15975923Y58812323D01*
X15975860Y58812303D01*
X15975278Y58814093D01*
X15974569Y58816038D01*
X15974350Y58816947D01*
X15915788Y58997182D01*
X15915787Y58997184D01*
X15829756Y59166027D01*
X15829746Y59166043D01*
X15810746Y59192192D01*
X15810745Y59192193D01*
X15242137Y58623585D01*
X15219333Y58708694D01*
X15160090Y58811306D01*
X15076306Y58895090D01*
X14973694Y58954333D01*
X14888585Y58977137D01*
X15457193Y59545745D01*
X15457192Y59545746D01*
X15431043Y59564746D01*
X15431027Y59564756D01*
X15262184Y59650787D01*
X15262182Y59650788D01*
X15081937Y59709354D01*
X14894762Y59739000D01*
X14705238Y59739000D01*
X14518062Y59709354D01*
X14337821Y59650789D01*
X14168966Y59564752D01*
X14142806Y59545746D01*
X14142806Y59545745D01*
X14711414Y58977137D01*
X14626306Y58954333D01*
X14523694Y58895090D01*
X14439910Y58811306D01*
X14380667Y58708694D01*
X14357861Y58623584D01*
X13789253Y59192193D01*
X13789253Y59192192D01*
X13770244Y59166030D01*
X13767700Y59161878D01*
X13766701Y59162490D01*
X13722497Y59115697D01*
X13654674Y59098909D01*
X13588541Y59121455D01*
X13553095Y59162375D01*
X13552295Y59161885D01*
X13549746Y59166043D01*
X13530746Y59192192D01*
X13530745Y59192193D01*
X12962137Y58623585D01*
X12939333Y58708694D01*
X12880090Y58811306D01*
X12796306Y58895090D01*
X12693694Y58954333D01*
X12608585Y58977137D01*
X13177193Y59545745D01*
X13177192Y59545746D01*
X13151043Y59564746D01*
X13151027Y59564756D01*
X12982184Y59650787D01*
X12982182Y59650788D01*
X12801937Y59709354D01*
X12614762Y59739000D01*
X12425238Y59739000D01*
X12238062Y59709354D01*
X12057821Y59650789D01*
X11888966Y59564752D01*
X11862806Y59545746D01*
X11862806Y59545745D01*
X12431414Y58977137D01*
X12346306Y58954333D01*
X12243694Y58895090D01*
X12159910Y58811306D01*
X12100667Y58708694D01*
X12077861Y58623584D01*
X11509253Y59192193D01*
X11509253Y59192192D01*
X11490246Y59166033D01*
X11404210Y58997178D01*
X11345645Y58816935D01*
X11345425Y58816018D01*
X11345245Y58815705D01*
X11344140Y58812303D01*
X11343425Y58812535D01*
X11310638Y58755425D01*
X11248613Y58723257D01*
X11179044Y58729730D01*
X11124018Y58772786D01*
X11110289Y58797507D01*
X11104573Y58811306D01*
X11041557Y58963441D01*
X10942571Y59111585D01*
X10816585Y59237571D01*
X10668441Y59336557D01*
X10503833Y59404740D01*
X10446649Y59416114D01*
X10329087Y59439500D01*
X10329085Y59439500D01*
X10150915Y59439500D01*
X10150913Y59439500D01*
X9976172Y59404741D01*
X9976167Y59404740D01*
X9811559Y59336557D01*
X9694193Y59258136D01*
X9663412Y59237569D01*
X9537430Y59111587D01*
X9537429Y59111585D01*
X9444526Y58972544D01*
X9438442Y58963439D01*
X9370260Y58798833D01*
X9370258Y58798827D01*
X9335500Y58624087D01*
X9335500Y58445912D01*
X9335499Y58445912D01*
X5798000Y58445912D01*
X5798000Y58681464D01*
X5797999Y58681468D01*
X5765205Y58972530D01*
X5765202Y58972544D01*
X5700021Y59258124D01*
X5700017Y59258136D01*
X5603276Y59534604D01*
X5603270Y59534618D01*
X5476180Y59798523D01*
X5320971Y60045540D01*
X5320970Y60045541D01*
X5320340Y60046544D01*
X5320337Y60046547D01*
X5202662Y60194108D01*
X4484251Y59475698D01*
X4410412Y59577330D01*
X4232330Y59755412D01*
X4130698Y59829251D01*
X4849108Y60547662D01*
X4701551Y60665334D01*
X4453523Y60821180D01*
X4189618Y60948270D01*
X4189604Y60948276D01*
X3913136Y61045017D01*
X3913120Y61045022D01*
X3874935Y61053737D01*
X3874934Y61053738D01*
X3627544Y61110202D01*
X3627530Y61110205D01*
X3336468Y61142999D01*
X3336464Y61143000D01*
X3043536Y61143000D01*
X3043531Y61142999D01*
X2752469Y61110205D01*
X2752455Y61110202D01*
X2466875Y61045021D01*
X2466863Y61045017D01*
X2190395Y60948276D01*
X2190381Y60948270D01*
X1926476Y60821180D01*
X1678448Y60665334D01*
X1530890Y60547662D01*
X2249301Y59829251D01*
X2147670Y59755412D01*
X1969588Y59577330D01*
X1895747Y59475697D01*
X1177336Y60194108D01*
X1059665Y60046551D01*
X903819Y59798523D01*
X776729Y59534618D01*
X776723Y59534604D01*
X679982Y59258136D01*
X679978Y59258124D01*
X614797Y58972544D01*
X614794Y58972530D01*
X582000Y58681468D01*
X500Y58681468D01*
X500Y61169762D01*
X10176000Y61169762D01*
X10176000Y60980237D01*
X10205645Y60793062D01*
X10264210Y60612821D01*
X10350245Y60443969D01*
X10369253Y60417806D01*
X10937861Y60986414D01*
X10960667Y60901306D01*
X11019910Y60798694D01*
X11103694Y60714910D01*
X11206306Y60655667D01*
X11291415Y60632861D01*
X10722806Y60064253D01*
X10748969Y60045245D01*
X10917821Y59959210D01*
X11098062Y59900645D01*
X11285238Y59871000D01*
X11474762Y59871000D01*
X11661937Y59900645D01*
X11842178Y59959210D01*
X12011033Y60045246D01*
X12037193Y60064253D01*
X11468584Y60632861D01*
X11553694Y60655667D01*
X11656306Y60714910D01*
X11740090Y60798694D01*
X11799333Y60901306D01*
X11822137Y60986414D01*
X12390745Y60417806D01*
X12390746Y60417806D01*
X12409754Y60443967D01*
X12412300Y60448122D01*
X12413301Y60447508D01*
X12457492Y60494296D01*
X12525313Y60511090D01*
X12591447Y60488551D01*
X12626901Y60447635D01*
X12627699Y60448124D01*
X12630243Y60443972D01*
X12649253Y60417806D01*
X13217861Y60986414D01*
X13240667Y60901306D01*
X13299910Y60798694D01*
X13383694Y60714910D01*
X13486306Y60655667D01*
X13571415Y60632861D01*
X13002806Y60064253D01*
X13028969Y60045245D01*
X13197821Y59959210D01*
X13378062Y59900645D01*
X13565238Y59871000D01*
X13754762Y59871000D01*
X13941937Y59900645D01*
X14122178Y59959210D01*
X14291033Y60045246D01*
X14317193Y60064253D01*
X13748584Y60632861D01*
X13833694Y60655667D01*
X13936306Y60714910D01*
X14020090Y60798694D01*
X14079333Y60901306D01*
X14102137Y60986414D01*
X14670745Y60417806D01*
X14670746Y60417806D01*
X14689754Y60443967D01*
X14692300Y60448122D01*
X14693301Y60447508D01*
X14737492Y60494296D01*
X14805313Y60511090D01*
X14871447Y60488551D01*
X14906901Y60447635D01*
X14907699Y60448124D01*
X14910243Y60443972D01*
X14929253Y60417806D01*
X15497861Y60986414D01*
X15520667Y60901306D01*
X15579910Y60798694D01*
X15663694Y60714910D01*
X15766306Y60655667D01*
X15851415Y60632861D01*
X15282806Y60064253D01*
X15308969Y60045245D01*
X15477821Y59959210D01*
X15658062Y59900645D01*
X15845238Y59871000D01*
X16034762Y59871000D01*
X16221937Y59900645D01*
X16402178Y59959210D01*
X16571033Y60045246D01*
X16597192Y60064253D01*
X16597193Y60064253D01*
X16028584Y60632861D01*
X16113694Y60655667D01*
X16216306Y60714910D01*
X16300090Y60798694D01*
X16359333Y60901306D01*
X16382137Y60986414D01*
X16950745Y60417806D01*
X16950746Y60417806D01*
X16969752Y60443966D01*
X17055789Y60612821D01*
X17114351Y60793054D01*
X17114570Y60793965D01*
X17114748Y60794275D01*
X17115860Y60797697D01*
X17116578Y60797463D01*
X17149350Y60854564D01*
X17211370Y60886739D01*
X17280940Y60880275D01*
X17335972Y60837226D01*
X17349710Y60812493D01*
X17418441Y60646561D01*
X17517430Y60498412D01*
X17643412Y60372430D01*
X17791560Y60273442D01*
X17956166Y60205260D01*
X17956172Y60205258D01*
X18130913Y60170500D01*
X18130915Y60170500D01*
X18309087Y60170500D01*
X18483827Y60205258D01*
X18483833Y60205260D01*
X18648439Y60273442D01*
X18648441Y60273443D01*
X18722513Y60322936D01*
X18796587Y60372430D01*
X18922569Y60498412D01*
X18931040Y60511090D01*
X19021557Y60646559D01*
X19089740Y60811167D01*
X19103487Y60880275D01*
X19124500Y60985912D01*
X19595499Y60985912D01*
X19630258Y60811172D01*
X19630260Y60811166D01*
X19698442Y60646560D01*
X19797430Y60498412D01*
X19923412Y60372430D01*
X20071560Y60273442D01*
X20236166Y60205260D01*
X20236172Y60205258D01*
X20410913Y60170500D01*
X20410915Y60170500D01*
X20589087Y60170500D01*
X20763827Y60205258D01*
X20763833Y60205260D01*
X20928439Y60273442D01*
X20928441Y60273443D01*
X21002513Y60322936D01*
X21076587Y60372430D01*
X21202568Y60498411D01*
X21202571Y60498415D01*
X21249138Y60568107D01*
X21287152Y60625000D01*
X21301557Y60646559D01*
X21369740Y60811167D01*
X21383487Y60880275D01*
X21404500Y60985912D01*
X21404500Y61164087D01*
X21369741Y61338827D01*
X21369740Y61338833D01*
X21301557Y61503441D01*
X21202571Y61651585D01*
X21076585Y61777571D01*
X20928441Y61876557D01*
X20763833Y61944740D01*
X20706649Y61956114D01*
X20589087Y61979500D01*
X20589085Y61979500D01*
X20410915Y61979500D01*
X20410913Y61979500D01*
X20236172Y61944741D01*
X20236167Y61944740D01*
X20071559Y61876557D01*
X19958656Y61801118D01*
X19923412Y61777569D01*
X19797430Y61651587D01*
X19698442Y61503439D01*
X19630260Y61338833D01*
X19630258Y61338827D01*
X19595500Y61164087D01*
X19595500Y60985912D01*
X19595499Y60985912D01*
X19124500Y60985912D01*
X19124500Y61164087D01*
X19089741Y61338827D01*
X19089740Y61338833D01*
X19021557Y61503441D01*
X18922571Y61651585D01*
X18796585Y61777571D01*
X18648441Y61876557D01*
X18483833Y61944740D01*
X18426649Y61956114D01*
X18309087Y61979500D01*
X18309085Y61979500D01*
X18130915Y61979500D01*
X18130913Y61979500D01*
X17956172Y61944741D01*
X17956167Y61944740D01*
X17791559Y61876557D01*
X17678656Y61801118D01*
X17643412Y61777569D01*
X17517430Y61651587D01*
X17418441Y61503439D01*
X17349710Y61337506D01*
X17305869Y61283103D01*
X17239575Y61261038D01*
X17171875Y61278317D01*
X17124265Y61329455D01*
X17115923Y61352323D01*
X17115860Y61352303D01*
X17115278Y61354093D01*
X17114569Y61356038D01*
X17114350Y61356947D01*
X17055788Y61537182D01*
X17055787Y61537184D01*
X16969756Y61706027D01*
X16969746Y61706043D01*
X16950746Y61732192D01*
X16950745Y61732193D01*
X16382137Y61163585D01*
X16359333Y61248694D01*
X16300090Y61351306D01*
X16216306Y61435090D01*
X16113694Y61494333D01*
X16028585Y61517137D01*
X16597193Y62085745D01*
X16597192Y62085746D01*
X16571043Y62104746D01*
X16571027Y62104756D01*
X16417133Y62183170D01*
X16417132Y62183171D01*
X16402180Y62190789D01*
X16221937Y62249354D01*
X16034762Y62279000D01*
X15845238Y62279000D01*
X15658062Y62249354D01*
X15477821Y62190789D01*
X15308966Y62104752D01*
X15282806Y62085746D01*
X15282806Y62085745D01*
X15851414Y61517137D01*
X15766306Y61494333D01*
X15663694Y61435090D01*
X15579910Y61351306D01*
X15520667Y61248694D01*
X15497861Y61163584D01*
X14929253Y61732193D01*
X14929253Y61732192D01*
X14910244Y61706030D01*
X14907700Y61701878D01*
X14906701Y61702490D01*
X14862497Y61655697D01*
X14794674Y61638909D01*
X14728541Y61661455D01*
X14693095Y61702375D01*
X14692295Y61701885D01*
X14689746Y61706043D01*
X14670746Y61732192D01*
X14670745Y61732193D01*
X14102137Y61163585D01*
X14079333Y61248694D01*
X14020090Y61351306D01*
X13936306Y61435090D01*
X13833694Y61494333D01*
X13748585Y61517137D01*
X14317193Y62085745D01*
X14317192Y62085746D01*
X14291043Y62104746D01*
X14291027Y62104756D01*
X14122184Y62190787D01*
X14122182Y62190788D01*
X13941937Y62249354D01*
X13754762Y62279000D01*
X13565238Y62279000D01*
X13378062Y62249354D01*
X13197821Y62190789D01*
X13028966Y62104752D01*
X13002806Y62085746D01*
X13002806Y62085745D01*
X13571414Y61517137D01*
X13486306Y61494333D01*
X13383694Y61435090D01*
X13299910Y61351306D01*
X13240667Y61248694D01*
X13217861Y61163584D01*
X12649253Y61732193D01*
X12649253Y61732192D01*
X12630244Y61706030D01*
X12627700Y61701878D01*
X12626701Y61702490D01*
X12582497Y61655697D01*
X12514674Y61638909D01*
X12448541Y61661455D01*
X12413095Y61702375D01*
X12412295Y61701885D01*
X12409746Y61706043D01*
X12390746Y61732192D01*
X12390745Y61732193D01*
X11822137Y61163585D01*
X11799333Y61248694D01*
X11740090Y61351306D01*
X11656306Y61435090D01*
X11553694Y61494333D01*
X11468585Y61517137D01*
X12037193Y62085745D01*
X12037192Y62085746D01*
X12011043Y62104746D01*
X12011027Y62104756D01*
X11842184Y62190787D01*
X11842182Y62190788D01*
X11661937Y62249354D01*
X11474762Y62279000D01*
X11285238Y62279000D01*
X11098062Y62249354D01*
X10917821Y62190789D01*
X10748966Y62104752D01*
X10722806Y62085746D01*
X10722806Y62085745D01*
X11291414Y61517137D01*
X11206306Y61494333D01*
X11103694Y61435090D01*
X11019910Y61351306D01*
X10960667Y61248694D01*
X10937861Y61163584D01*
X10369253Y61732193D01*
X10369253Y61732192D01*
X10350246Y61706033D01*
X10264210Y61537178D01*
X10205645Y61356937D01*
X10176000Y61169762D01*
X500Y61169762D01*
X500Y69875500D01*
X20185Y69942539D01*
X72989Y69988294D01*
X124500Y69999500D01*
X33827672Y69999500D01*
X33894711Y69979815D01*
G37*
%TD.AperFunction*%
%TD*%
M02*
