%TF.GenerationSoftware,KiCad,Pcbnew,9.0.7*%
%TF.CreationDate,2026-03-19T19:45:42+01:00*%
%TF.ProjectId,TelemetryGroundstationDB,54656c65-6d65-4747-9279-47726f756e64,rev?*%
%TF.SameCoordinates,Original*%
%TF.FileFunction,Soldermask,Top*%
%TF.FilePolarity,Negative*%
%FSLAX46Y46*%
G04 Gerber Fmt 4.6, Leading zero omitted, Abs format (unit mm)*
G04 Created by KiCad (PCBNEW 9.0.7) date 2026-03-19 19:45:42*
%MOMM*%
%LPD*%
G01*
G04 APERTURE LIST*
G04 Aperture macros list*
%AMRoundRect*
0 Rectangle with rounded corners*
0 $1 Rounding radius*
0 $2 $3 $4 $5 $6 $7 $8 $9 X,Y pos of 4 corners*
0 Add a 4 corners polygon primitive as box body*
4,1,4,$2,$3,$4,$5,$6,$7,$8,$9,$2,$3,0*
0 Add four circle primitives for the rounded corners*
1,1,$1+$1,$2,$3*
1,1,$1+$1,$4,$5*
1,1,$1+$1,$6,$7*
1,1,$1+$1,$8,$9*
0 Add four rect primitives between the rounded corners*
20,1,$1+$1,$2,$3,$4,$5,0*
20,1,$1+$1,$4,$5,$6,$7,0*
20,1,$1+$1,$6,$7,$8,$9,0*
20,1,$1+$1,$8,$9,$2,$3,0*%
%AMFreePoly0*
4,1,23,0.500000,-0.750000,0.000000,-0.750000,0.000000,-0.745722,-0.065263,-0.745722,-0.191342,-0.711940,-0.304381,-0.646677,-0.396677,-0.554381,-0.461940,-0.441342,-0.495722,-0.315263,-0.495722,-0.250000,-0.500000,-0.250000,-0.500000,0.250000,-0.495722,0.250000,-0.495722,0.315263,-0.461940,0.441342,-0.396677,0.554381,-0.304381,0.646677,-0.191342,0.711940,-0.065263,0.745722,0.000000,0.745722,
0.000000,0.750000,0.500000,0.750000,0.500000,-0.750000,0.500000,-0.750000,$1*%
%AMFreePoly1*
4,1,23,0.000000,0.745722,0.065263,0.745722,0.191342,0.711940,0.304381,0.646677,0.396677,0.554381,0.461940,0.441342,0.495722,0.315263,0.495722,0.250000,0.500000,0.250000,0.500000,-0.250000,0.495722,-0.250000,0.495722,-0.315263,0.461940,-0.441342,0.396677,-0.554381,0.304381,-0.646677,0.191342,-0.711940,0.065263,-0.745722,0.000000,-0.745722,0.000000,-0.750000,-0.500000,-0.750000,
-0.500000,0.750000,0.000000,0.750000,0.000000,0.745722,0.000000,0.745722,$1*%
G04 Aperture macros list end*
%ADD10C,8.000000*%
%ADD11C,2.000000*%
%ADD12RoundRect,0.250000X0.450000X-0.325000X0.450000X0.325000X-0.450000X0.325000X-0.450000X-0.325000X0*%
%ADD13FreePoly0,270.000000*%
%ADD14FreePoly1,270.000000*%
%ADD15RoundRect,0.250000X0.450000X-0.350000X0.450000X0.350000X-0.450000X0.350000X-0.450000X-0.350000X0*%
%ADD16RoundRect,0.250000X-0.337500X-0.475000X0.337500X-0.475000X0.337500X0.475000X-0.337500X0.475000X0*%
%ADD17RoundRect,0.250000X-0.450000X0.350000X-0.450000X-0.350000X0.450000X-0.350000X0.450000X0.350000X0*%
%ADD18RoundRect,0.102000X0.704000X0.704000X-0.704000X0.704000X-0.704000X-0.704000X0.704000X-0.704000X0*%
%ADD19C,1.612000*%
%ADD20C,4.420000*%
%ADD21RoundRect,0.150000X-0.150000X0.512500X-0.150000X-0.512500X0.150000X-0.512500X0.150000X0.512500X0*%
%ADD22RoundRect,0.508000X-0.000010X0.508000X-0.000010X-0.508000X0.000010X-0.508000X0.000010X0.508000X0*%
%ADD23RoundRect,0.508000X0.000010X-0.508000X0.000010X0.508000X-0.000010X0.508000X-0.000010X-0.508000X0*%
%ADD24RoundRect,0.508000X-0.508000X-0.000010X0.508000X-0.000010X0.508000X0.000010X-0.508000X0.000010X0*%
%ADD25C,2.529000*%
%ADD26C,2.679000*%
%ADD27RoundRect,0.250000X0.350000X0.450000X-0.350000X0.450000X-0.350000X-0.450000X0.350000X-0.450000X0*%
%ADD28RoundRect,0.250000X-0.350000X-0.450000X0.350000X-0.450000X0.350000X0.450000X-0.350000X0.450000X0*%
G04 APERTURE END LIST*
D10*
%TO.C,M3*%
X4400000Y44400000D03*
%TD*%
D11*
%TO.C,TP3*%
X9875000Y47615000D03*
%TD*%
D12*
%TO.C,D2*%
X28250000Y30175000D03*
X28250000Y32225000D03*
%TD*%
D10*
%TO.C,M1*%
X35600000Y4400000D03*
%TD*%
D13*
%TO.C,JP2*%
X37500000Y33675000D03*
D14*
X37500000Y32375000D03*
%TD*%
D10*
%TO.C,M4*%
X4400000Y4400000D03*
%TD*%
D15*
%TO.C,R2*%
X26300000Y34075000D03*
X26300000Y36075000D03*
%TD*%
D16*
%TO.C,C2*%
X19205000Y14200000D03*
X21280000Y14200000D03*
%TD*%
D17*
%TO.C,R1*%
X21500000Y7950000D03*
X21500000Y5950000D03*
%TD*%
D18*
%TO.C,J2*%
X11380000Y55995000D03*
D19*
X13660000Y55995000D03*
X15940000Y55995000D03*
X18220000Y55995000D03*
X20500000Y55995000D03*
X10240000Y58535000D03*
X12520000Y58535000D03*
X14800000Y58535000D03*
X17080000Y58535000D03*
X19360000Y58535000D03*
X11380000Y61075000D03*
X13660000Y61075000D03*
X15940000Y61075000D03*
X18220000Y61075000D03*
X20500000Y61075000D03*
D20*
X28180000Y58535000D03*
X3190000Y58535000D03*
%TD*%
D21*
%TO.C,D5*%
X30700000Y50712500D03*
X28800000Y50712500D03*
X29750000Y48437500D03*
%TD*%
D16*
%TO.C,C1*%
X19205000Y10240000D03*
X21280000Y10240000D03*
%TD*%
D12*
%TO.C,D4*%
X32600000Y30175000D03*
X32600000Y32225000D03*
%TD*%
D15*
%TO.C,R3*%
X28250000Y34075000D03*
X28250000Y36075000D03*
%TD*%
D11*
%TO.C,TP1*%
X12875000Y47615000D03*
%TD*%
D13*
%TO.C,JP1*%
X35000000Y33675000D03*
D14*
X35000000Y32375000D03*
%TD*%
D11*
%TO.C,TP5*%
X18875000Y47615000D03*
%TD*%
D22*
%TO.C,U1*%
X20475000Y42150000D03*
X19205000Y42150000D03*
X17935000Y42150000D03*
X16665000Y42150000D03*
X15395000Y42150000D03*
X14125000Y42150000D03*
X12855000Y42150000D03*
D23*
X12855000Y16750000D03*
X14125000Y16750000D03*
X15395000Y16750000D03*
X16665000Y16750000D03*
X17935000Y16750000D03*
X19205000Y16750000D03*
X20475000Y16750000D03*
D24*
X10315000Y39610000D03*
X10315000Y38340000D03*
X10315000Y37070000D03*
X10324023Y35798045D03*
X10315000Y34530000D03*
X10315000Y33260000D03*
X10315000Y31990000D03*
X10315000Y30720000D03*
X23015000Y30720000D03*
X23015000Y31990000D03*
X23015000Y33260000D03*
X23015000Y34530000D03*
X23015000Y35800000D03*
X23015000Y37070000D03*
X23015000Y38340000D03*
X23015000Y39610000D03*
X23015000Y26910000D03*
X10315000Y26910000D03*
X23015000Y25640000D03*
X10315000Y25640000D03*
X23015000Y24370000D03*
X10315000Y24370000D03*
X23015000Y23100000D03*
X10315000Y23100000D03*
X23015000Y21830000D03*
X10315000Y21830000D03*
X23015000Y20560000D03*
X10315000Y20560000D03*
%TD*%
D12*
%TO.C,D1*%
X26300000Y30175000D03*
X26300000Y32225000D03*
%TD*%
D10*
%TO.C,M2*%
X35600000Y65600000D03*
%TD*%
D12*
%TO.C,D3*%
X30550000Y30175000D03*
X30550000Y32225000D03*
%TD*%
D17*
%TO.C,R8*%
X32500000Y36075000D03*
X32500000Y34075000D03*
%TD*%
D25*
%TO.C,J1*%
X14125000Y4700000D03*
D26*
X11585000Y7240000D03*
X16665000Y7240000D03*
X11585000Y2160000D03*
X16665000Y2160000D03*
%TD*%
D11*
%TO.C,TP2*%
X15875000Y47615000D03*
%TD*%
D27*
%TO.C,ZP1*%
X14125000Y10200000D03*
X12125000Y10200000D03*
%TD*%
D28*
%TO.C,R4*%
X16500000Y51325000D03*
X18500000Y51325000D03*
%TD*%
D11*
%TO.C,TP4*%
X24875000Y47615000D03*
%TD*%
D15*
%TO.C,R5*%
X25500000Y5950000D03*
X25500000Y7950000D03*
%TD*%
D17*
%TO.C,R7*%
X30550000Y36075000D03*
X30550000Y34075000D03*
%TD*%
D27*
%TO.C,R6*%
X11500000Y51325000D03*
X9500000Y51325000D03*
%TD*%
D11*
%TO.C,TP6*%
X21875000Y47615000D03*
%TD*%
D17*
%TO.C,ZS1*%
X14125000Y14200000D03*
X14125000Y12200000D03*
%TD*%
M02*
