ISO-10303-21;
HEADER;
/* Generated by software containing ST-Developer
 * from STEP Tools, Inc. (www.steptools.com) 
 */

FILE_DESCRIPTION(
/* description */ (''),
/* implementation_level */ '2;1');

FILE_NAME(
/* name */ 'CalTest_CT3151-2_Banana_Red.step',
/* time_stamp */ '2026-09-24T20:01:59+02:00',
/* author */ (''),
/* organization */ (''),
/* preprocessor_version */ 'ST-DEVELOPER v20.2',
/* originating_system */ 'Autodesk Translation Framework v15.15.0.0',
/* authorisation */ '');

FILE_SCHEMA (('AUTOMOTIVE_DESIGN { 1 0 10303 214 3 1 1 }'));
ENDSEC;

DATA;
#10=MECHANICAL_DESIGN_GEOMETRIC_PRESENTATION_REPRESENTATION('',(#13,#14),
#1364);
#11=SHAPE_REPRESENTATION_RELATIONSHIP('SRR','None',#1371,#12);
#12=ADVANCED_BREP_SHAPE_REPRESENTATION('',(#15,#16),#1363);
#13=STYLED_ITEM('',(#1381),#15);
#14=STYLED_ITEM('',(#1382),#16);
#15=MANIFOLD_SOLID_BREP('Body1',#832);
#16=MANIFOLD_SOLID_BREP('Body2',#833);
#17=CONICAL_SURFACE('',#852,5.925,0.158089971121686);
#18=FACE_BOUND('',#107,.T.);
#19=FACE_BOUND('',#111,.T.);
#20=FACE_BOUND('',#114,.T.);
#21=FACE_BOUND('',#117,.T.);
#22=FACE_BOUND('',#120,.T.);
#23=PLANE('',#850);
#24=PLANE('',#856);
#25=PLANE('',#860);
#26=PLANE('',#864);
#27=PLANE('',#868);
#28=PLANE('',#869);
#29=PLANE('',#870);
#30=PLANE('',#871);
#31=PLANE('',#872);
#32=PLANE('',#873);
#33=PLANE('',#874);
#34=PLANE('',#875);
#35=PLANE('',#876);
#36=PLANE('',#877);
#37=PLANE('',#878);
#38=PLANE('',#879);
#39=PLANE('',#880);
#40=PLANE('',#881);
#41=PLANE('',#882);
#42=PLANE('',#883);
#43=PLANE('',#884);
#44=PLANE('',#885);
#45=PLANE('',#886);
#46=PLANE('',#887);
#47=PLANE('',#888);
#48=PLANE('',#889);
#49=PLANE('',#890);
#50=PLANE('',#891);
#51=PLANE('',#892);
#52=PLANE('',#893);
#53=PLANE('',#894);
#54=PLANE('',#895);
#55=PLANE('',#896);
#56=PLANE('',#897);
#57=PLANE('',#898);
#58=PLANE('',#901);
#59=PLANE('',#906);
#60=FACE_OUTER_BOUND('',#105,.T.);
#61=FACE_OUTER_BOUND('',#106,.T.);
#62=FACE_OUTER_BOUND('',#108,.T.);
#63=FACE_OUTER_BOUND('',#109,.T.);
#64=FACE_OUTER_BOUND('',#110,.T.);
#65=FACE_OUTER_BOUND('',#112,.T.);
#66=FACE_OUTER_BOUND('',#113,.T.);
#67=FACE_OUTER_BOUND('',#115,.T.);
#68=FACE_OUTER_BOUND('',#116,.T.);
#69=FACE_OUTER_BOUND('',#118,.T.);
#70=FACE_OUTER_BOUND('',#119,.T.);
#71=FACE_OUTER_BOUND('',#121,.T.);
#72=FACE_OUTER_BOUND('',#122,.T.);
#73=FACE_OUTER_BOUND('',#123,.T.);
#74=FACE_OUTER_BOUND('',#124,.T.);
#75=FACE_OUTER_BOUND('',#125,.T.);
#76=FACE_OUTER_BOUND('',#126,.T.);
#77=FACE_OUTER_BOUND('',#127,.T.);
#78=FACE_OUTER_BOUND('',#128,.T.);
#79=FACE_OUTER_BOUND('',#129,.T.);
#80=FACE_OUTER_BOUND('',#130,.T.);
#81=FACE_OUTER_BOUND('',#131,.T.);
#82=FACE_OUTER_BOUND('',#132,.T.);
#83=FACE_OUTER_BOUND('',#133,.T.);
#84=FACE_OUTER_BOUND('',#134,.T.);
#85=FACE_OUTER_BOUND('',#135,.T.);
#86=FACE_OUTER_BOUND('',#136,.T.);
#87=FACE_OUTER_BOUND('',#137,.T.);
#88=FACE_OUTER_BOUND('',#138,.T.);
#89=FACE_OUTER_BOUND('',#139,.T.);
#90=FACE_OUTER_BOUND('',#140,.T.);
#91=FACE_OUTER_BOUND('',#141,.T.);
#92=FACE_OUTER_BOUND('',#142,.T.);
#93=FACE_OUTER_BOUND('',#143,.T.);
#94=FACE_OUTER_BOUND('',#144,.T.);
#95=FACE_OUTER_BOUND('',#145,.T.);
#96=FACE_OUTER_BOUND('',#146,.T.);
#97=FACE_OUTER_BOUND('',#147,.T.);
#98=FACE_OUTER_BOUND('',#148,.T.);
#99=FACE_OUTER_BOUND('',#149,.T.);
#100=FACE_OUTER_BOUND('',#150,.T.);
#101=FACE_OUTER_BOUND('',#151,.T.);
#102=FACE_OUTER_BOUND('',#152,.T.);
#103=FACE_OUTER_BOUND('',#153,.T.);
#104=FACE_OUTER_BOUND('',#154,.T.);
#105=EDGE_LOOP('',(#554,#555,#556,#557));
#106=EDGE_LOOP('',(#558));
#107=EDGE_LOOP('',(#559));
#108=EDGE_LOOP('',(#560,#561,#562,#563));
#109=EDGE_LOOP('',(#564,#565,#566,#567));
#110=EDGE_LOOP('',(#568));
#111=EDGE_LOOP('',(#569));
#112=EDGE_LOOP('',(#570,#571,#572,#573));
#113=EDGE_LOOP('',(#574));
#114=EDGE_LOOP('',(#575));
#115=EDGE_LOOP('',(#576,#577,#578,#579));
#116=EDGE_LOOP('',(#580));
#117=EDGE_LOOP('',(#581));
#118=EDGE_LOOP('',(#582,#583,#584,#585));
#119=EDGE_LOOP('',(#586));
#120=EDGE_LOOP('',(#587));
#121=EDGE_LOOP('',(#588,#589,#590,#591));
#122=EDGE_LOOP('',(#592,#593,#594,#595,#596,#597,#598,#599,#600,#601,#602,
#603,#604,#605,#606,#607));
#123=EDGE_LOOP('',(#608,#609,#610,#611));
#124=EDGE_LOOP('',(#612,#613,#614,#615));
#125=EDGE_LOOP('',(#616,#617,#618,#619));
#126=EDGE_LOOP('',(#620,#621,#622,#623,#624,#625,#626,#627,#628,#629,#630,
#631,#632,#633,#634,#635));
#127=EDGE_LOOP('',(#636,#637,#638,#639));
#128=EDGE_LOOP('',(#640,#641,#642,#643));
#129=EDGE_LOOP('',(#644,#645,#646,#647));
#130=EDGE_LOOP('',(#648,#649,#650,#651));
#131=EDGE_LOOP('',(#652,#653,#654,#655,#656,#657,#658,#659,#660,#661,#662,
#663,#664,#665,#666,#667));
#132=EDGE_LOOP('',(#668,#669,#670,#671));
#133=EDGE_LOOP('',(#672,#673,#674,#675));
#134=EDGE_LOOP('',(#676,#677,#678,#679));
#135=EDGE_LOOP('',(#680,#681,#682,#683));
#136=EDGE_LOOP('',(#684,#685,#686,#687));
#137=EDGE_LOOP('',(#688,#689,#690,#691));
#138=EDGE_LOOP('',(#692,#693,#694,#695));
#139=EDGE_LOOP('',(#696,#697,#698,#699));
#140=EDGE_LOOP('',(#700,#701,#702,#703));
#141=EDGE_LOOP('',(#704,#705,#706,#707));
#142=EDGE_LOOP('',(#708,#709,#710,#711));
#143=EDGE_LOOP('',(#712,#713,#714,#715));
#144=EDGE_LOOP('',(#716,#717,#718,#719));
#145=EDGE_LOOP('',(#720,#721,#722,#723));
#146=EDGE_LOOP('',(#724,#725,#726,#727));
#147=EDGE_LOOP('',(#728,#729,#730,#731));
#148=EDGE_LOOP('',(#732,#733,#734,#735));
#149=EDGE_LOOP('',(#736,#737,#738,#739));
#150=EDGE_LOOP('',(#740,#741,#742,#743,#744,#745,#746,#747));
#151=EDGE_LOOP('',(#748,#749,#750,#751,#752,#753,#754,#755,#756,#757,#758,
#759,#760,#761,#762,#763));
#152=EDGE_LOOP('',(#764,#765,#766,#767));
#153=EDGE_LOOP('',(#768,#769,#770,#771));
#154=EDGE_LOOP('',(#772,#773,#774,#775,#776,#777,#778,#779));
#155=LINE('',#1132,#253);
#156=LINE('',#1140,#254);
#157=LINE('',#1144,#255);
#158=LINE('',#1151,#256);
#159=LINE('',#1157,#257);
#160=LINE('',#1165,#258);
#161=LINE('',#1170,#259);
#162=LINE('',#1172,#260);
#163=LINE('',#1174,#261);
#164=LINE('',#1175,#262);
#165=LINE('',#1178,#263);
#166=LINE('',#1180,#264);
#167=LINE('',#1182,#265);
#168=LINE('',#1184,#266);
#169=LINE('',#1186,#267);
#170=LINE('',#1188,#268);
#171=LINE('',#1190,#269);
#172=LINE('',#1192,#270);
#173=LINE('',#1194,#271);
#174=LINE('',#1196,#272);
#175=LINE('',#1198,#273);
#176=LINE('',#1200,#274);
#177=LINE('',#1202,#275);
#178=LINE('',#1204,#276);
#179=LINE('',#1205,#277);
#180=LINE('',#1208,#278);
#181=LINE('',#1209,#279);
#182=LINE('',#1212,#280);
#183=LINE('',#1213,#281);
#184=LINE('',#1217,#282);
#185=LINE('',#1219,#283);
#186=LINE('',#1221,#284);
#187=LINE('',#1222,#285);
#188=LINE('',#1225,#286);
#189=LINE('',#1227,#287);
#190=LINE('',#1229,#288);
#191=LINE('',#1231,#289);
#192=LINE('',#1233,#290);
#193=LINE('',#1235,#291);
#194=LINE('',#1237,#292);
#195=LINE('',#1239,#293);
#196=LINE('',#1241,#294);
#197=LINE('',#1243,#295);
#198=LINE('',#1245,#296);
#199=LINE('',#1247,#297);
#200=LINE('',#1249,#298);
#201=LINE('',#1251,#299);
#202=LINE('',#1252,#300);
#203=LINE('',#1255,#301);
#204=LINE('',#1256,#302);
#205=LINE('',#1259,#303);
#206=LINE('',#1260,#304);
#207=LINE('',#1264,#305);
#208=LINE('',#1265,#306);
#209=LINE('',#1266,#307);
#210=LINE('',#1269,#308);
#211=LINE('',#1270,#309);
#212=LINE('',#1273,#310);
#213=LINE('',#1275,#311);
#214=LINE('',#1277,#312);
#215=LINE('',#1279,#313);
#216=LINE('',#1281,#314);
#217=LINE('',#1283,#315);
#218=LINE('',#1285,#316);
#219=LINE('',#1286,#317);
#220=LINE('',#1288,#318);
#221=LINE('',#1290,#319);
#222=LINE('',#1291,#320);
#223=LINE('',#1293,#321);
#224=LINE('',#1295,#322);
#225=LINE('',#1299,#323);
#226=LINE('',#1300,#324);
#227=LINE('',#1301,#325);
#228=LINE('',#1304,#326);
#229=LINE('',#1305,#327);
#230=LINE('',#1308,#328);
#231=LINE('',#1309,#329);
#232=LINE('',#1311,#330);
#233=LINE('',#1312,#331);
#234=LINE('',#1314,#332);
#235=LINE('',#1316,#333);
#236=LINE('',#1319,#334);
#237=LINE('',#1321,#335);
#238=LINE('',#1322,#336);
#239=LINE('',#1325,#337);
#240=LINE('',#1328,#338);
#241=LINE('',#1329,#339);
#242=LINE('',#1333,#340);
#243=LINE('',#1334,#341);
#244=LINE('',#1336,#342);
#245=LINE('',#1339,#343);
#246=LINE('',#1340,#344);
#247=LINE('',#1343,#345);
#248=LINE('',#1344,#346);
#249=LINE('',#1346,#347);
#250=LINE('',#1350,#348);
#251=LINE('',#1354,#349);
#252=LINE('',#1355,#350);
#253=VECTOR('',#913,2.1);
#254=VECTOR('',#924,5.925);
#255=VECTOR('',#929,6.75);
#256=VECTOR('',#938,5.75);
#257=VECTOR('',#945,4.65);
#258=VECTOR('',#956,3.25);
#259=VECTOR('',#961,10.);
#260=VECTOR('',#962,10.);
#261=VECTOR('',#963,10.);
#262=VECTOR('',#964,10.);
#263=VECTOR('',#967,10.);
#264=VECTOR('',#968,10.);
#265=VECTOR('',#969,10.);
#266=VECTOR('',#970,10.);
#267=VECTOR('',#971,10.);
#268=VECTOR('',#972,10.);
#269=VECTOR('',#973,10.);
#270=VECTOR('',#974,10.);
#271=VECTOR('',#975,10.);
#272=VECTOR('',#976,10.);
#273=VECTOR('',#977,10.);
#274=VECTOR('',#978,10.);
#275=VECTOR('',#979,10.);
#276=VECTOR('',#980,10.);
#277=VECTOR('',#981,10.);
#278=VECTOR('',#984,10.);
#279=VECTOR('',#985,10.);
#280=VECTOR('',#988,10.);
#281=VECTOR('',#989,10.);
#282=VECTOR('',#992,10.);
#283=VECTOR('',#993,10.);
#284=VECTOR('',#994,10.);
#285=VECTOR('',#995,10.);
#286=VECTOR('',#998,10.);
#287=VECTOR('',#999,10.);
#288=VECTOR('',#1000,10.);
#289=VECTOR('',#1001,10.);
#290=VECTOR('',#1002,10.);
#291=VECTOR('',#1003,10.);
#292=VECTOR('',#1004,10.);
#293=VECTOR('',#1005,10.);
#294=VECTOR('',#1006,10.);
#295=VECTOR('',#1007,10.);
#296=VECTOR('',#1008,10.);
#297=VECTOR('',#1009,10.);
#298=VECTOR('',#1010,10.);
#299=VECTOR('',#1011,10.);
#300=VECTOR('',#1012,10.);
#301=VECTOR('',#1015,10.);
#302=VECTOR('',#1016,10.);
#303=VECTOR('',#1019,10.);
#304=VECTOR('',#1020,10.);
#305=VECTOR('',#1023,10.);
#306=VECTOR('',#1024,10.);
#307=VECTOR('',#1025,10.);
#308=VECTOR('',#1028,10.);
#309=VECTOR('',#1029,10.);
#310=VECTOR('',#1032,10.);
#311=VECTOR('',#1033,10.);
#312=VECTOR('',#1034,10.);
#313=VECTOR('',#1035,10.);
#314=VECTOR('',#1036,10.);
#315=VECTOR('',#1037,10.);
#316=VECTOR('',#1038,10.);
#317=VECTOR('',#1039,10.);
#318=VECTOR('',#1040,10.);
#319=VECTOR('',#1041,10.);
#320=VECTOR('',#1042,10.);
#321=VECTOR('',#1045,10.);
#322=VECTOR('',#1048,10.);
#323=VECTOR('',#1051,10.);
#324=VECTOR('',#1052,10.);
#325=VECTOR('',#1053,10.);
#326=VECTOR('',#1056,10.);
#327=VECTOR('',#1057,10.);
#328=VECTOR('',#1060,10.);
#329=VECTOR('',#1061,10.);
#330=VECTOR('',#1064,10.);
#331=VECTOR('',#1065,10.);
#332=VECTOR('',#1068,10.);
#333=VECTOR('',#1071,10.);
#334=VECTOR('',#1074,10.);
#335=VECTOR('',#1075,10.);
#336=VECTOR('',#1076,10.);
#337=VECTOR('',#1081,10.);
#338=VECTOR('',#1084,10.);
#339=VECTOR('',#1085,10.);
#340=VECTOR('',#1090,10.);
#341=VECTOR('',#1091,10.);
#342=VECTOR('',#1094,10.);
#343=VECTOR('',#1097,10.);
#344=VECTOR('',#1098,10.);
#345=VECTOR('',#1101,10.);
#346=VECTOR('',#1102,10.);
#347=VECTOR('',#1105,10.);
#348=VECTOR('',#1110,10.);
#349=VECTOR('',#1115,10.);
#350=VECTOR('',#1116,10.);
#351=CIRCLE('',#848,2.1);
#352=CIRCLE('',#849,2.1);
#353=CIRCLE('',#851,5.1);
#354=CIRCLE('',#853,6.75);
#355=CIRCLE('',#855,6.75);
#356=CIRCLE('',#857,5.75);
#357=CIRCLE('',#859,5.75);
#358=CIRCLE('',#861,4.65);
#359=CIRCLE('',#863,4.65);
#360=CIRCLE('',#865,3.25);
#361=CIRCLE('',#867,3.25);
#362=CIRCLE('',#899,3.);
#363=CIRCLE('',#900,2.1);
#364=CIRCLE('',#903,2.1);
#365=CIRCLE('',#905,3.);
#366=VERTEX_POINT('',#1129);
#367=VERTEX_POINT('',#1131);
#368=VERTEX_POINT('',#1135);
#369=VERTEX_POINT('',#1138);
#370=VERTEX_POINT('',#1142);
#371=VERTEX_POINT('',#1146);
#372=VERTEX_POINT('',#1149);
#373=VERTEX_POINT('',#1153);
#374=VERTEX_POINT('',#1156);
#375=VERTEX_POINT('',#1160);
#376=VERTEX_POINT('',#1163);
#377=VERTEX_POINT('',#1168);
#378=VERTEX_POINT('',#1169);
#379=VERTEX_POINT('',#1171);
#380=VERTEX_POINT('',#1173);
#381=VERTEX_POINT('',#1177);
#382=VERTEX_POINT('',#1179);
#383=VERTEX_POINT('',#1181);
#384=VERTEX_POINT('',#1183);
#385=VERTEX_POINT('',#1185);
#386=VERTEX_POINT('',#1187);
#387=VERTEX_POINT('',#1189);
#388=VERTEX_POINT('',#1191);
#389=VERTEX_POINT('',#1193);
#390=VERTEX_POINT('',#1195);
#391=VERTEX_POINT('',#1197);
#392=VERTEX_POINT('',#1199);
#393=VERTEX_POINT('',#1201);
#394=VERTEX_POINT('',#1203);
#395=VERTEX_POINT('',#1207);
#396=VERTEX_POINT('',#1211);
#397=VERTEX_POINT('',#1215);
#398=VERTEX_POINT('',#1216);
#399=VERTEX_POINT('',#1218);
#400=VERTEX_POINT('',#1220);
#401=VERTEX_POINT('',#1224);
#402=VERTEX_POINT('',#1226);
#403=VERTEX_POINT('',#1228);
#404=VERTEX_POINT('',#1230);
#405=VERTEX_POINT('',#1232);
#406=VERTEX_POINT('',#1234);
#407=VERTEX_POINT('',#1236);
#408=VERTEX_POINT('',#1238);
#409=VERTEX_POINT('',#1240);
#410=VERTEX_POINT('',#1242);
#411=VERTEX_POINT('',#1244);
#412=VERTEX_POINT('',#1246);
#413=VERTEX_POINT('',#1248);
#414=VERTEX_POINT('',#1250);
#415=VERTEX_POINT('',#1254);
#416=VERTEX_POINT('',#1258);
#417=VERTEX_POINT('',#1262);
#418=VERTEX_POINT('',#1263);
#419=VERTEX_POINT('',#1268);
#420=VERTEX_POINT('',#1272);
#421=VERTEX_POINT('',#1274);
#422=VERTEX_POINT('',#1276);
#423=VERTEX_POINT('',#1278);
#424=VERTEX_POINT('',#1280);
#425=VERTEX_POINT('',#1282);
#426=VERTEX_POINT('',#1284);
#427=VERTEX_POINT('',#1287);
#428=VERTEX_POINT('',#1289);
#429=VERTEX_POINT('',#1297);
#430=VERTEX_POINT('',#1298);
#431=VERTEX_POINT('',#1303);
#432=VERTEX_POINT('',#1307);
#433=VERTEX_POINT('',#1318);
#434=VERTEX_POINT('',#1320);
#435=VERTEX_POINT('',#1327);
#436=VERTEX_POINT('',#1332);
#437=VERTEX_POINT('',#1338);
#438=VERTEX_POINT('',#1342);
#439=VERTEX_POINT('',#1348);
#440=VERTEX_POINT('',#1353);
#441=EDGE_CURVE('',#366,#366,#351,.T.);
#442=EDGE_CURVE('',#366,#367,#155,.T.);
#443=EDGE_CURVE('',#367,#367,#352,.T.);
#444=EDGE_CURVE('',#368,#368,#353,.T.);
#445=EDGE_CURVE('',#369,#369,#354,.T.);
#446=EDGE_CURVE('',#369,#368,#156,.T.);
#447=EDGE_CURVE('',#370,#370,#355,.T.);
#448=EDGE_CURVE('',#370,#369,#157,.T.);
#449=EDGE_CURVE('',#371,#371,#356,.T.);
#450=EDGE_CURVE('',#372,#372,#357,.T.);
#451=EDGE_CURVE('',#372,#371,#158,.T.);
#452=EDGE_CURVE('',#373,#373,#358,.T.);
#453=EDGE_CURVE('',#373,#374,#159,.T.);
#454=EDGE_CURVE('',#374,#374,#359,.T.);
#455=EDGE_CURVE('',#375,#375,#360,.T.);
#456=EDGE_CURVE('',#376,#376,#361,.T.);
#457=EDGE_CURVE('',#376,#375,#160,.T.);
#458=EDGE_CURVE('',#377,#378,#161,.T.);
#459=EDGE_CURVE('',#378,#379,#162,.T.);
#460=EDGE_CURVE('',#379,#380,#163,.T.);
#461=EDGE_CURVE('',#380,#377,#164,.T.);
#462=EDGE_CURVE('',#379,#381,#165,.T.);
#463=EDGE_CURVE('',#382,#381,#166,.T.);
#464=EDGE_CURVE('',#383,#382,#167,.T.);
#465=EDGE_CURVE('',#384,#383,#168,.T.);
#466=EDGE_CURVE('',#385,#384,#169,.T.);
#467=EDGE_CURVE('',#386,#385,#170,.T.);
#468=EDGE_CURVE('',#386,#387,#171,.T.);
#469=EDGE_CURVE('',#388,#387,#172,.T.);
#470=EDGE_CURVE('',#388,#389,#173,.T.);
#471=EDGE_CURVE('',#389,#390,#174,.T.);
#472=EDGE_CURVE('',#390,#391,#175,.T.);
#473=EDGE_CURVE('',#391,#392,#176,.T.);
#474=EDGE_CURVE('',#392,#393,#177,.T.);
#475=EDGE_CURVE('',#393,#394,#178,.T.);
#476=EDGE_CURVE('',#394,#380,#179,.T.);
#477=EDGE_CURVE('',#378,#395,#180,.T.);
#478=EDGE_CURVE('',#381,#395,#181,.T.);
#479=EDGE_CURVE('',#395,#396,#182,.T.);
#480=EDGE_CURVE('',#396,#382,#183,.T.);
#481=EDGE_CURVE('',#397,#398,#184,.T.);
#482=EDGE_CURVE('',#398,#399,#185,.T.);
#483=EDGE_CURVE('',#399,#400,#186,.T.);
#484=EDGE_CURVE('',#400,#397,#187,.T.);
#485=EDGE_CURVE('',#401,#399,#188,.T.);
#486=EDGE_CURVE('',#402,#401,#189,.T.);
#487=EDGE_CURVE('',#402,#403,#190,.T.);
#488=EDGE_CURVE('',#403,#404,#191,.T.);
#489=EDGE_CURVE('',#404,#405,#192,.T.);
#490=EDGE_CURVE('',#405,#406,#193,.T.);
#491=EDGE_CURVE('',#406,#407,#194,.T.);
#492=EDGE_CURVE('',#407,#408,#195,.T.);
#493=EDGE_CURVE('',#408,#409,#196,.T.);
#494=EDGE_CURVE('',#410,#409,#197,.T.);
#495=EDGE_CURVE('',#411,#410,#198,.T.);
#496=EDGE_CURVE('',#412,#411,#199,.T.);
#497=EDGE_CURVE('',#413,#412,#200,.T.);
#498=EDGE_CURVE('',#413,#414,#201,.T.);
#499=EDGE_CURVE('',#400,#414,#202,.T.);
#500=EDGE_CURVE('',#415,#398,#203,.T.);
#501=EDGE_CURVE('',#401,#415,#204,.T.);
#502=EDGE_CURVE('',#415,#416,#205,.T.);
#503=EDGE_CURVE('',#416,#402,#206,.T.);
#504=EDGE_CURVE('',#417,#418,#207,.T.);
#505=EDGE_CURVE('',#418,#386,#208,.T.);
#506=EDGE_CURVE('',#385,#417,#209,.T.);
#507=EDGE_CURVE('',#418,#419,#210,.T.);
#508=EDGE_CURVE('',#387,#419,#211,.T.);
#509=EDGE_CURVE('',#377,#420,#212,.T.);
#510=EDGE_CURVE('',#420,#421,#213,.T.);
#511=EDGE_CURVE('',#421,#422,#214,.T.);
#512=EDGE_CURVE('',#422,#423,#215,.T.);
#513=EDGE_CURVE('',#423,#424,#216,.T.);
#514=EDGE_CURVE('',#424,#425,#217,.T.);
#515=EDGE_CURVE('',#425,#426,#218,.T.);
#516=EDGE_CURVE('',#419,#426,#219,.T.);
#517=EDGE_CURVE('',#427,#417,#220,.T.);
#518=EDGE_CURVE('',#428,#427,#221,.T.);
#519=EDGE_CURVE('',#396,#428,#222,.T.);
#520=EDGE_CURVE('',#426,#388,#223,.T.);
#521=EDGE_CURVE('',#389,#425,#224,.T.);
#522=EDGE_CURVE('',#429,#430,#225,.T.);
#523=EDGE_CURVE('',#430,#410,#226,.T.);
#524=EDGE_CURVE('',#409,#429,#227,.T.);
#525=EDGE_CURVE('',#431,#430,#228,.T.);
#526=EDGE_CURVE('',#411,#431,#229,.T.);
#527=EDGE_CURVE('',#431,#432,#230,.T.);
#528=EDGE_CURVE('',#432,#412,#231,.T.);
#529=EDGE_CURVE('',#392,#422,#232,.T.);
#530=EDGE_CURVE('',#393,#421,#233,.T.);
#531=EDGE_CURVE('',#394,#420,#234,.T.);
#532=EDGE_CURVE('',#391,#423,#235,.T.);
#533=EDGE_CURVE('',#433,#405,#236,.T.);
#534=EDGE_CURVE('',#434,#433,#237,.T.);
#535=EDGE_CURVE('',#434,#406,#238,.T.);
#536=EDGE_CURVE('',#390,#424,#239,.T.);
#537=EDGE_CURVE('',#435,#434,#240,.T.);
#538=EDGE_CURVE('',#435,#407,#241,.T.);
#539=EDGE_CURVE('',#436,#435,#242,.T.);
#540=EDGE_CURVE('',#436,#408,#243,.T.);
#541=EDGE_CURVE('',#429,#436,#244,.T.);
#542=EDGE_CURVE('',#437,#416,#245,.T.);
#543=EDGE_CURVE('',#437,#403,#246,.T.);
#544=EDGE_CURVE('',#438,#437,#247,.T.);
#545=EDGE_CURVE('',#438,#404,#248,.T.);
#546=EDGE_CURVE('',#433,#438,#249,.T.);
#547=EDGE_CURVE('',#428,#439,#362,.T.);
#548=EDGE_CURVE('',#439,#397,#250,.T.);
#549=EDGE_CURVE('',#414,#383,#363,.T.);
#550=EDGE_CURVE('',#440,#439,#251,.T.);
#551=EDGE_CURVE('',#432,#440,#252,.T.);
#552=EDGE_CURVE('',#384,#413,#364,.T.);
#553=EDGE_CURVE('',#440,#427,#365,.T.);
#554=ORIENTED_EDGE('',*,*,#441,.T.);
#555=ORIENTED_EDGE('',*,*,#442,.T.);
#556=ORIENTED_EDGE('',*,*,#443,.F.);
#557=ORIENTED_EDGE('',*,*,#442,.F.);
#558=ORIENTED_EDGE('',*,*,#444,.F.);
#559=ORIENTED_EDGE('',*,*,#443,.T.);
#560=ORIENTED_EDGE('',*,*,#445,.F.);
#561=ORIENTED_EDGE('',*,*,#446,.T.);
#562=ORIENTED_EDGE('',*,*,#444,.T.);
#563=ORIENTED_EDGE('',*,*,#446,.F.);
#564=ORIENTED_EDGE('',*,*,#447,.F.);
#565=ORIENTED_EDGE('',*,*,#448,.T.);
#566=ORIENTED_EDGE('',*,*,#445,.T.);
#567=ORIENTED_EDGE('',*,*,#448,.F.);
#568=ORIENTED_EDGE('',*,*,#447,.T.);
#569=ORIENTED_EDGE('',*,*,#449,.F.);
#570=ORIENTED_EDGE('',*,*,#450,.F.);
#571=ORIENTED_EDGE('',*,*,#451,.T.);
#572=ORIENTED_EDGE('',*,*,#449,.T.);
#573=ORIENTED_EDGE('',*,*,#451,.F.);
#574=ORIENTED_EDGE('',*,*,#450,.T.);
#575=ORIENTED_EDGE('',*,*,#452,.F.);
#576=ORIENTED_EDGE('',*,*,#452,.T.);
#577=ORIENTED_EDGE('',*,*,#453,.T.);
#578=ORIENTED_EDGE('',*,*,#454,.F.);
#579=ORIENTED_EDGE('',*,*,#453,.F.);
#580=ORIENTED_EDGE('',*,*,#454,.T.);
#581=ORIENTED_EDGE('',*,*,#455,.F.);
#582=ORIENTED_EDGE('',*,*,#456,.F.);
#583=ORIENTED_EDGE('',*,*,#457,.T.);
#584=ORIENTED_EDGE('',*,*,#455,.T.);
#585=ORIENTED_EDGE('',*,*,#457,.F.);
#586=ORIENTED_EDGE('',*,*,#456,.T.);
#587=ORIENTED_EDGE('',*,*,#441,.F.);
#588=ORIENTED_EDGE('',*,*,#458,.T.);
#589=ORIENTED_EDGE('',*,*,#459,.T.);
#590=ORIENTED_EDGE('',*,*,#460,.T.);
#591=ORIENTED_EDGE('',*,*,#461,.T.);
#592=ORIENTED_EDGE('',*,*,#460,.F.);
#593=ORIENTED_EDGE('',*,*,#462,.T.);
#594=ORIENTED_EDGE('',*,*,#463,.F.);
#595=ORIENTED_EDGE('',*,*,#464,.F.);
#596=ORIENTED_EDGE('',*,*,#465,.F.);
#597=ORIENTED_EDGE('',*,*,#466,.F.);
#598=ORIENTED_EDGE('',*,*,#467,.F.);
#599=ORIENTED_EDGE('',*,*,#468,.T.);
#600=ORIENTED_EDGE('',*,*,#469,.F.);
#601=ORIENTED_EDGE('',*,*,#470,.T.);
#602=ORIENTED_EDGE('',*,*,#471,.T.);
#603=ORIENTED_EDGE('',*,*,#472,.T.);
#604=ORIENTED_EDGE('',*,*,#473,.T.);
#605=ORIENTED_EDGE('',*,*,#474,.T.);
#606=ORIENTED_EDGE('',*,*,#475,.T.);
#607=ORIENTED_EDGE('',*,*,#476,.T.);
#608=ORIENTED_EDGE('',*,*,#459,.F.);
#609=ORIENTED_EDGE('',*,*,#477,.T.);
#610=ORIENTED_EDGE('',*,*,#478,.F.);
#611=ORIENTED_EDGE('',*,*,#462,.F.);
#612=ORIENTED_EDGE('',*,*,#479,.T.);
#613=ORIENTED_EDGE('',*,*,#480,.T.);
#614=ORIENTED_EDGE('',*,*,#463,.T.);
#615=ORIENTED_EDGE('',*,*,#478,.T.);
#616=ORIENTED_EDGE('',*,*,#481,.T.);
#617=ORIENTED_EDGE('',*,*,#482,.T.);
#618=ORIENTED_EDGE('',*,*,#483,.T.);
#619=ORIENTED_EDGE('',*,*,#484,.T.);
#620=ORIENTED_EDGE('',*,*,#483,.F.);
#621=ORIENTED_EDGE('',*,*,#485,.F.);
#622=ORIENTED_EDGE('',*,*,#486,.F.);
#623=ORIENTED_EDGE('',*,*,#487,.T.);
#624=ORIENTED_EDGE('',*,*,#488,.T.);
#625=ORIENTED_EDGE('',*,*,#489,.T.);
#626=ORIENTED_EDGE('',*,*,#490,.T.);
#627=ORIENTED_EDGE('',*,*,#491,.T.);
#628=ORIENTED_EDGE('',*,*,#492,.T.);
#629=ORIENTED_EDGE('',*,*,#493,.T.);
#630=ORIENTED_EDGE('',*,*,#494,.F.);
#631=ORIENTED_EDGE('',*,*,#495,.F.);
#632=ORIENTED_EDGE('',*,*,#496,.F.);
#633=ORIENTED_EDGE('',*,*,#497,.F.);
#634=ORIENTED_EDGE('',*,*,#498,.T.);
#635=ORIENTED_EDGE('',*,*,#499,.F.);
#636=ORIENTED_EDGE('',*,*,#482,.F.);
#637=ORIENTED_EDGE('',*,*,#500,.F.);
#638=ORIENTED_EDGE('',*,*,#501,.F.);
#639=ORIENTED_EDGE('',*,*,#485,.T.);
#640=ORIENTED_EDGE('',*,*,#486,.T.);
#641=ORIENTED_EDGE('',*,*,#501,.T.);
#642=ORIENTED_EDGE('',*,*,#502,.T.);
#643=ORIENTED_EDGE('',*,*,#503,.T.);
#644=ORIENTED_EDGE('',*,*,#504,.T.);
#645=ORIENTED_EDGE('',*,*,#505,.T.);
#646=ORIENTED_EDGE('',*,*,#467,.T.);
#647=ORIENTED_EDGE('',*,*,#506,.T.);
#648=ORIENTED_EDGE('',*,*,#505,.F.);
#649=ORIENTED_EDGE('',*,*,#507,.T.);
#650=ORIENTED_EDGE('',*,*,#508,.F.);
#651=ORIENTED_EDGE('',*,*,#468,.F.);
#652=ORIENTED_EDGE('',*,*,#458,.F.);
#653=ORIENTED_EDGE('',*,*,#509,.T.);
#654=ORIENTED_EDGE('',*,*,#510,.T.);
#655=ORIENTED_EDGE('',*,*,#511,.T.);
#656=ORIENTED_EDGE('',*,*,#512,.T.);
#657=ORIENTED_EDGE('',*,*,#513,.T.);
#658=ORIENTED_EDGE('',*,*,#514,.T.);
#659=ORIENTED_EDGE('',*,*,#515,.T.);
#660=ORIENTED_EDGE('',*,*,#516,.F.);
#661=ORIENTED_EDGE('',*,*,#507,.F.);
#662=ORIENTED_EDGE('',*,*,#504,.F.);
#663=ORIENTED_EDGE('',*,*,#517,.F.);
#664=ORIENTED_EDGE('',*,*,#518,.F.);
#665=ORIENTED_EDGE('',*,*,#519,.F.);
#666=ORIENTED_EDGE('',*,*,#479,.F.);
#667=ORIENTED_EDGE('',*,*,#477,.F.);
#668=ORIENTED_EDGE('',*,*,#469,.T.);
#669=ORIENTED_EDGE('',*,*,#508,.T.);
#670=ORIENTED_EDGE('',*,*,#516,.T.);
#671=ORIENTED_EDGE('',*,*,#520,.T.);
#672=ORIENTED_EDGE('',*,*,#520,.F.);
#673=ORIENTED_EDGE('',*,*,#515,.F.);
#674=ORIENTED_EDGE('',*,*,#521,.F.);
#675=ORIENTED_EDGE('',*,*,#470,.F.);
#676=ORIENTED_EDGE('',*,*,#522,.T.);
#677=ORIENTED_EDGE('',*,*,#523,.T.);
#678=ORIENTED_EDGE('',*,*,#494,.T.);
#679=ORIENTED_EDGE('',*,*,#524,.T.);
#680=ORIENTED_EDGE('',*,*,#523,.F.);
#681=ORIENTED_EDGE('',*,*,#525,.F.);
#682=ORIENTED_EDGE('',*,*,#526,.F.);
#683=ORIENTED_EDGE('',*,*,#495,.T.);
#684=ORIENTED_EDGE('',*,*,#527,.T.);
#685=ORIENTED_EDGE('',*,*,#528,.T.);
#686=ORIENTED_EDGE('',*,*,#496,.T.);
#687=ORIENTED_EDGE('',*,*,#526,.T.);
#688=ORIENTED_EDGE('',*,*,#474,.F.);
#689=ORIENTED_EDGE('',*,*,#529,.T.);
#690=ORIENTED_EDGE('',*,*,#511,.F.);
#691=ORIENTED_EDGE('',*,*,#530,.F.);
#692=ORIENTED_EDGE('',*,*,#475,.F.);
#693=ORIENTED_EDGE('',*,*,#530,.T.);
#694=ORIENTED_EDGE('',*,*,#510,.F.);
#695=ORIENTED_EDGE('',*,*,#531,.F.);
#696=ORIENTED_EDGE('',*,*,#473,.F.);
#697=ORIENTED_EDGE('',*,*,#532,.T.);
#698=ORIENTED_EDGE('',*,*,#512,.F.);
#699=ORIENTED_EDGE('',*,*,#529,.F.);
#700=ORIENTED_EDGE('',*,*,#490,.F.);
#701=ORIENTED_EDGE('',*,*,#533,.F.);
#702=ORIENTED_EDGE('',*,*,#534,.F.);
#703=ORIENTED_EDGE('',*,*,#535,.T.);
#704=ORIENTED_EDGE('',*,*,#461,.F.);
#705=ORIENTED_EDGE('',*,*,#476,.F.);
#706=ORIENTED_EDGE('',*,*,#531,.T.);
#707=ORIENTED_EDGE('',*,*,#509,.F.);
#708=ORIENTED_EDGE('',*,*,#472,.F.);
#709=ORIENTED_EDGE('',*,*,#536,.T.);
#710=ORIENTED_EDGE('',*,*,#513,.F.);
#711=ORIENTED_EDGE('',*,*,#532,.F.);
#712=ORIENTED_EDGE('',*,*,#491,.F.);
#713=ORIENTED_EDGE('',*,*,#535,.F.);
#714=ORIENTED_EDGE('',*,*,#537,.F.);
#715=ORIENTED_EDGE('',*,*,#538,.T.);
#716=ORIENTED_EDGE('',*,*,#471,.F.);
#717=ORIENTED_EDGE('',*,*,#521,.T.);
#718=ORIENTED_EDGE('',*,*,#514,.F.);
#719=ORIENTED_EDGE('',*,*,#536,.F.);
#720=ORIENTED_EDGE('',*,*,#492,.F.);
#721=ORIENTED_EDGE('',*,*,#538,.F.);
#722=ORIENTED_EDGE('',*,*,#539,.F.);
#723=ORIENTED_EDGE('',*,*,#540,.T.);
#724=ORIENTED_EDGE('',*,*,#524,.F.);
#725=ORIENTED_EDGE('',*,*,#493,.F.);
#726=ORIENTED_EDGE('',*,*,#540,.F.);
#727=ORIENTED_EDGE('',*,*,#541,.F.);
#728=ORIENTED_EDGE('',*,*,#503,.F.);
#729=ORIENTED_EDGE('',*,*,#542,.F.);
#730=ORIENTED_EDGE('',*,*,#543,.T.);
#731=ORIENTED_EDGE('',*,*,#487,.F.);
#732=ORIENTED_EDGE('',*,*,#488,.F.);
#733=ORIENTED_EDGE('',*,*,#543,.F.);
#734=ORIENTED_EDGE('',*,*,#544,.F.);
#735=ORIENTED_EDGE('',*,*,#545,.T.);
#736=ORIENTED_EDGE('',*,*,#489,.F.);
#737=ORIENTED_EDGE('',*,*,#545,.F.);
#738=ORIENTED_EDGE('',*,*,#546,.F.);
#739=ORIENTED_EDGE('',*,*,#533,.T.);
#740=ORIENTED_EDGE('',*,*,#480,.F.);
#741=ORIENTED_EDGE('',*,*,#519,.T.);
#742=ORIENTED_EDGE('',*,*,#547,.T.);
#743=ORIENTED_EDGE('',*,*,#548,.T.);
#744=ORIENTED_EDGE('',*,*,#484,.F.);
#745=ORIENTED_EDGE('',*,*,#499,.T.);
#746=ORIENTED_EDGE('',*,*,#549,.T.);
#747=ORIENTED_EDGE('',*,*,#464,.T.);
#748=ORIENTED_EDGE('',*,*,#481,.F.);
#749=ORIENTED_EDGE('',*,*,#548,.F.);
#750=ORIENTED_EDGE('',*,*,#550,.F.);
#751=ORIENTED_EDGE('',*,*,#551,.F.);
#752=ORIENTED_EDGE('',*,*,#527,.F.);
#753=ORIENTED_EDGE('',*,*,#525,.T.);
#754=ORIENTED_EDGE('',*,*,#522,.F.);
#755=ORIENTED_EDGE('',*,*,#541,.T.);
#756=ORIENTED_EDGE('',*,*,#539,.T.);
#757=ORIENTED_EDGE('',*,*,#537,.T.);
#758=ORIENTED_EDGE('',*,*,#534,.T.);
#759=ORIENTED_EDGE('',*,*,#546,.T.);
#760=ORIENTED_EDGE('',*,*,#544,.T.);
#761=ORIENTED_EDGE('',*,*,#542,.T.);
#762=ORIENTED_EDGE('',*,*,#502,.F.);
#763=ORIENTED_EDGE('',*,*,#500,.T.);
#764=ORIENTED_EDGE('',*,*,#498,.F.);
#765=ORIENTED_EDGE('',*,*,#552,.F.);
#766=ORIENTED_EDGE('',*,*,#465,.T.);
#767=ORIENTED_EDGE('',*,*,#549,.F.);
#768=ORIENTED_EDGE('',*,*,#518,.T.);
#769=ORIENTED_EDGE('',*,*,#553,.F.);
#770=ORIENTED_EDGE('',*,*,#550,.T.);
#771=ORIENTED_EDGE('',*,*,#547,.F.);
#772=ORIENTED_EDGE('',*,*,#506,.F.);
#773=ORIENTED_EDGE('',*,*,#466,.T.);
#774=ORIENTED_EDGE('',*,*,#552,.T.);
#775=ORIENTED_EDGE('',*,*,#497,.T.);
#776=ORIENTED_EDGE('',*,*,#528,.F.);
#777=ORIENTED_EDGE('',*,*,#551,.T.);
#778=ORIENTED_EDGE('',*,*,#553,.T.);
#779=ORIENTED_EDGE('',*,*,#517,.T.);
#780=CYLINDRICAL_SURFACE('',#847,2.1);
#781=CYLINDRICAL_SURFACE('',#854,6.75);
#782=CYLINDRICAL_SURFACE('',#858,5.75);
#783=CYLINDRICAL_SURFACE('',#862,4.65);
#784=CYLINDRICAL_SURFACE('',#866,3.25);
#785=CYLINDRICAL_SURFACE('',#902,2.1);
#786=CYLINDRICAL_SURFACE('',#904,3.);
#787=ADVANCED_FACE('',(#60),#780,.F.);
#788=ADVANCED_FACE('',(#61,#18),#23,.T.);
#789=ADVANCED_FACE('',(#62),#17,.T.);
#790=ADVANCED_FACE('',(#63),#781,.T.);
#791=ADVANCED_FACE('',(#64,#19),#24,.T.);
#792=ADVANCED_FACE('',(#65),#782,.T.);
#793=ADVANCED_FACE('',(#66,#20),#25,.T.);
#794=ADVANCED_FACE('',(#67),#783,.F.);
#795=ADVANCED_FACE('',(#68,#21),#26,.T.);
#796=ADVANCED_FACE('',(#69),#784,.T.);
#797=ADVANCED_FACE('',(#70,#22),#27,.T.);
#798=ADVANCED_FACE('',(#71),#28,.T.);
#799=ADVANCED_FACE('',(#72),#29,.T.);
#800=ADVANCED_FACE('',(#73),#30,.T.);
#801=ADVANCED_FACE('',(#74),#31,.T.);
#802=ADVANCED_FACE('',(#75),#32,.T.);
#803=ADVANCED_FACE('',(#76),#33,.T.);
#804=ADVANCED_FACE('',(#77),#34,.T.);
#805=ADVANCED_FACE('',(#78),#35,.T.);
#806=ADVANCED_FACE('',(#79),#36,.T.);
#807=ADVANCED_FACE('',(#80),#37,.T.);
#808=ADVANCED_FACE('',(#81),#38,.T.);
#809=ADVANCED_FACE('',(#82),#39,.T.);
#810=ADVANCED_FACE('',(#83),#40,.F.);
#811=ADVANCED_FACE('',(#84),#41,.T.);
#812=ADVANCED_FACE('',(#85),#42,.T.);
#813=ADVANCED_FACE('',(#86),#43,.T.);
#814=ADVANCED_FACE('',(#87),#44,.F.);
#815=ADVANCED_FACE('',(#88),#45,.F.);
#816=ADVANCED_FACE('',(#89),#46,.F.);
#817=ADVANCED_FACE('',(#90),#47,.F.);
#818=ADVANCED_FACE('',(#91),#48,.F.);
#819=ADVANCED_FACE('',(#92),#49,.F.);
#820=ADVANCED_FACE('',(#93),#50,.F.);
#821=ADVANCED_FACE('',(#94),#51,.F.);
#822=ADVANCED_FACE('',(#95),#52,.F.);
#823=ADVANCED_FACE('',(#96),#53,.F.);
#824=ADVANCED_FACE('',(#97),#54,.F.);
#825=ADVANCED_FACE('',(#98),#55,.F.);
#826=ADVANCED_FACE('',(#99),#56,.F.);
#827=ADVANCED_FACE('',(#100),#57,.T.);
#828=ADVANCED_FACE('',(#101),#58,.T.);
#829=ADVANCED_FACE('',(#102),#785,.F.);
#830=ADVANCED_FACE('',(#103),#786,.T.);
#831=ADVANCED_FACE('',(#104),#59,.F.);
#832=CLOSED_SHELL('',(#787,#788,#789,#790,#791,#792,#793,#794,#795,#796,
#797));
#833=CLOSED_SHELL('',(#798,#799,#800,#801,#802,#803,#804,#805,#806,#807,
#808,#809,#810,#811,#812,#813,#814,#815,#816,#817,#818,#819,#820,#821,#822,
#823,#824,#825,#826,#827,#828,#829,#830,#831));
#834=DERIVED_UNIT_ELEMENT(#836,1.);
#835=DERIVED_UNIT_ELEMENT(#1366,-3.);
#836=(
MASS_UNIT()
NAMED_UNIT(*)
SI_UNIT(.KILO.,.GRAM.)
);
#837=DERIVED_UNIT((#834,#835));
#838=MEASURE_REPRESENTATION_ITEM('density measure',
POSITIVE_RATIO_MEASURE(7850.),#837);
#839=PROPERTY_DEFINITION_REPRESENTATION(#844,#841);
#840=PROPERTY_DEFINITION_REPRESENTATION(#845,#842);
#841=REPRESENTATION('material name',(#843),#1363);
#842=REPRESENTATION('density',(#838),#1363);
#843=DESCRIPTIVE_REPRESENTATION_ITEM('Steel','Steel');
#844=PROPERTY_DEFINITION('material property','material name',#1373);
#845=PROPERTY_DEFINITION('material property','density of part',#1373);
#846=AXIS2_PLACEMENT_3D('',#1127,#907,#908);
#847=AXIS2_PLACEMENT_3D('',#1128,#909,#910);
#848=AXIS2_PLACEMENT_3D('',#1130,#911,#912);
#849=AXIS2_PLACEMENT_3D('',#1133,#914,#915);
#850=AXIS2_PLACEMENT_3D('',#1134,#916,#917);
#851=AXIS2_PLACEMENT_3D('',#1136,#918,#919);
#852=AXIS2_PLACEMENT_3D('',#1137,#920,#921);
#853=AXIS2_PLACEMENT_3D('',#1139,#922,#923);
#854=AXIS2_PLACEMENT_3D('',#1141,#925,#926);
#855=AXIS2_PLACEMENT_3D('',#1143,#927,#928);
#856=AXIS2_PLACEMENT_3D('',#1145,#930,#931);
#857=AXIS2_PLACEMENT_3D('',#1147,#932,#933);
#858=AXIS2_PLACEMENT_3D('',#1148,#934,#935);
#859=AXIS2_PLACEMENT_3D('',#1150,#936,#937);
#860=AXIS2_PLACEMENT_3D('',#1152,#939,#940);
#861=AXIS2_PLACEMENT_3D('',#1154,#941,#942);
#862=AXIS2_PLACEMENT_3D('',#1155,#943,#944);
#863=AXIS2_PLACEMENT_3D('',#1158,#946,#947);
#864=AXIS2_PLACEMENT_3D('',#1159,#948,#949);
#865=AXIS2_PLACEMENT_3D('',#1161,#950,#951);
#866=AXIS2_PLACEMENT_3D('',#1162,#952,#953);
#867=AXIS2_PLACEMENT_3D('',#1164,#954,#955);
#868=AXIS2_PLACEMENT_3D('',#1166,#957,#958);
#869=AXIS2_PLACEMENT_3D('',#1167,#959,#960);
#870=AXIS2_PLACEMENT_3D('',#1176,#965,#966);
#871=AXIS2_PLACEMENT_3D('',#1206,#982,#983);
#872=AXIS2_PLACEMENT_3D('',#1210,#986,#987);
#873=AXIS2_PLACEMENT_3D('',#1214,#990,#991);
#874=AXIS2_PLACEMENT_3D('',#1223,#996,#997);
#875=AXIS2_PLACEMENT_3D('',#1253,#1013,#1014);
#876=AXIS2_PLACEMENT_3D('',#1257,#1017,#1018);
#877=AXIS2_PLACEMENT_3D('',#1261,#1021,#1022);
#878=AXIS2_PLACEMENT_3D('',#1267,#1026,#1027);
#879=AXIS2_PLACEMENT_3D('',#1271,#1030,#1031);
#880=AXIS2_PLACEMENT_3D('',#1292,#1043,#1044);
#881=AXIS2_PLACEMENT_3D('',#1294,#1046,#1047);
#882=AXIS2_PLACEMENT_3D('',#1296,#1049,#1050);
#883=AXIS2_PLACEMENT_3D('',#1302,#1054,#1055);
#884=AXIS2_PLACEMENT_3D('',#1306,#1058,#1059);
#885=AXIS2_PLACEMENT_3D('',#1310,#1062,#1063);
#886=AXIS2_PLACEMENT_3D('',#1313,#1066,#1067);
#887=AXIS2_PLACEMENT_3D('',#1315,#1069,#1070);
#888=AXIS2_PLACEMENT_3D('',#1317,#1072,#1073);
#889=AXIS2_PLACEMENT_3D('',#1323,#1077,#1078);
#890=AXIS2_PLACEMENT_3D('',#1324,#1079,#1080);
#891=AXIS2_PLACEMENT_3D('',#1326,#1082,#1083);
#892=AXIS2_PLACEMENT_3D('',#1330,#1086,#1087);
#893=AXIS2_PLACEMENT_3D('',#1331,#1088,#1089);
#894=AXIS2_PLACEMENT_3D('',#1335,#1092,#1093);
#895=AXIS2_PLACEMENT_3D('',#1337,#1095,#1096);
#896=AXIS2_PLACEMENT_3D('',#1341,#1099,#1100);
#897=AXIS2_PLACEMENT_3D('',#1345,#1103,#1104);
#898=AXIS2_PLACEMENT_3D('',#1347,#1106,#1107);
#899=AXIS2_PLACEMENT_3D('',#1349,#1108,#1109);
#900=AXIS2_PLACEMENT_3D('',#1351,#1111,#1112);
#901=AXIS2_PLACEMENT_3D('',#1352,#1113,#1114);
#902=AXIS2_PLACEMENT_3D('',#1356,#1117,#1118);
#903=AXIS2_PLACEMENT_3D('',#1357,#1119,#1120);
#904=AXIS2_PLACEMENT_3D('',#1358,#1121,#1122);
#905=AXIS2_PLACEMENT_3D('',#1359,#1123,#1124);
#906=AXIS2_PLACEMENT_3D('',#1360,#1125,#1126);
#907=DIRECTION('axis',(0.,0.,1.));
#908=DIRECTION('refdir',(1.,0.,0.));
#909=DIRECTION('center_axis',(0.,-1.,0.));
#910=DIRECTION('ref_axis',(1.,0.,0.));
#911=DIRECTION('center_axis',(0.,-1.,0.));
#912=DIRECTION('ref_axis',(1.,0.,0.));
#913=DIRECTION('',(0.,1.,0.));
#914=DIRECTION('center_axis',(0.,-1.,0.));
#915=DIRECTION('ref_axis',(1.,0.,0.));
#916=DIRECTION('center_axis',(0.,1.,0.));
#917=DIRECTION('ref_axis',(0.,0.,1.));
#918=DIRECTION('center_axis',(0.,-1.,0.));
#919=DIRECTION('ref_axis',(1.,0.,0.));
#920=DIRECTION('center_axis',(0.,-1.,0.));
#921=DIRECTION('ref_axis',(1.,0.,0.));
#922=DIRECTION('center_axis',(0.,-1.,0.));
#923=DIRECTION('ref_axis',(1.,0.,0.));
#924=DIRECTION('',(0.157432284526995,0.987529784760243,1.9279894332844E-17));
#925=DIRECTION('center_axis',(0.,-1.,0.));
#926=DIRECTION('ref_axis',(1.,0.,0.));
#927=DIRECTION('center_axis',(0.,-1.,0.));
#928=DIRECTION('ref_axis',(1.,0.,0.));
#929=DIRECTION('',(0.,1.,0.));
#930=DIRECTION('center_axis',(0.,-1.,0.));
#931=DIRECTION('ref_axis',(0.,0.,-1.));
#932=DIRECTION('center_axis',(0.,-1.,0.));
#933=DIRECTION('ref_axis',(1.,0.,0.));
#934=DIRECTION('center_axis',(0.,-1.,0.));
#935=DIRECTION('ref_axis',(1.,0.,0.));
#936=DIRECTION('center_axis',(0.,-1.,0.));
#937=DIRECTION('ref_axis',(1.,0.,0.));
#938=DIRECTION('',(0.,1.,0.));
#939=DIRECTION('center_axis',(0.,-1.,0.));
#940=DIRECTION('ref_axis',(0.,0.,-1.));
#941=DIRECTION('center_axis',(0.,-1.,0.));
#942=DIRECTION('ref_axis',(1.,0.,0.));
#943=DIRECTION('center_axis',(0.,-1.,0.));
#944=DIRECTION('ref_axis',(1.,0.,0.));
#945=DIRECTION('',(0.,1.,0.));
#946=DIRECTION('center_axis',(0.,-1.,0.));
#947=DIRECTION('ref_axis',(1.,0.,0.));
#948=DIRECTION('center_axis',(0.,-1.,0.));
#949=DIRECTION('ref_axis',(0.,0.,-1.));
#950=DIRECTION('center_axis',(0.,-1.,0.));
#951=DIRECTION('ref_axis',(1.,0.,0.));
#952=DIRECTION('center_axis',(0.,-1.,0.));
#953=DIRECTION('ref_axis',(1.,0.,0.));
#954=DIRECTION('center_axis',(0.,-1.,0.));
#955=DIRECTION('ref_axis',(1.,0.,0.));
#956=DIRECTION('',(0.,1.,0.));
#957=DIRECTION('center_axis',(0.,-1.,0.));
#958=DIRECTION('ref_axis',(0.,0.,-1.));
#959=DIRECTION('center_axis',(0.,-0.707106781186547,-0.707106781186548));
#960=DIRECTION('ref_axis',(-1.,0.,0.));
#961=DIRECTION('',(0.,0.707106781186548,-0.707106781186547));
#962=DIRECTION('',(1.,0.,0.));
#963=DIRECTION('',(0.,-0.707106781186548,0.707106781186547));
#964=DIRECTION('',(-1.,0.,0.));
#965=DIRECTION('center_axis',(1.,0.,0.));
#966=DIRECTION('ref_axis',(0.,0.,1.));
#967=DIRECTION('',(0.,1.,0.));
#968=DIRECTION('',(0.,-0.707106781186548,-0.707106781186548));
#969=DIRECTION('',(0.,0.,-1.));
#970=DIRECTION('',(0.,1.,0.));
#971=DIRECTION('',(0.,0.,1.));
#972=DIRECTION('',(0.,-0.707106781186548,0.707106781186548));
#973=DIRECTION('',(0.,1.,0.));
#974=DIRECTION('',(0.,-0.707106781186548,-0.707106781186547));
#975=DIRECTION('',(0.,0.,1.));
#976=DIRECTION('',(0.,1.,0.));
#977=DIRECTION('',(0.,-3.46944695195361E-17,1.));
#978=DIRECTION('',(0.,1.,0.));
#979=DIRECTION('',(0.,0.,-1.));
#980=DIRECTION('',(0.,1.,0.));
#981=DIRECTION('',(0.,0.,-1.));
#982=DIRECTION('center_axis',(0.,0.,-1.));
#983=DIRECTION('ref_axis',(1.,0.,0.));
#984=DIRECTION('',(0.,1.,0.));
#985=DIRECTION('',(-1.,0.,0.));
#986=DIRECTION('center_axis',(0.,0.707106781186548,-0.707106781186548));
#987=DIRECTION('ref_axis',(-1.,0.,0.));
#988=DIRECTION('',(0.,0.707106781186548,0.707106781186548));
#989=DIRECTION('',(1.,0.,0.));
#990=DIRECTION('center_axis',(0.,0.707106781186548,-0.707106781186548));
#991=DIRECTION('ref_axis',(-1.,0.,0.));
#992=DIRECTION('',(0.,-0.707106781186548,-0.707106781186548));
#993=DIRECTION('',(-1.,0.,0.));
#994=DIRECTION('',(0.,0.707106781186548,0.707106781186548));
#995=DIRECTION('',(1.,0.,0.));
#996=DIRECTION('center_axis',(-1.,0.,0.));
#997=DIRECTION('ref_axis',(0.,0.,-1.));
#998=DIRECTION('',(0.,1.,0.));
#999=DIRECTION('',(0.,0.707106781186548,-0.707106781186547));
#1000=DIRECTION('',(0.,0.,1.));
#1001=DIRECTION('',(0.,-1.,0.));
#1002=DIRECTION('',(0.,0.,1.));
#1003=DIRECTION('',(0.,-1.,0.));
#1004=DIRECTION('',(0.,3.46944695195361E-17,-1.));
#1005=DIRECTION('',(0.,-1.,0.));
#1006=DIRECTION('',(0.,0.,-1.));
#1007=DIRECTION('',(0.,0.707106781186548,0.707106781186547));
#1008=DIRECTION('',(0.,1.,0.));
#1009=DIRECTION('',(0.,0.707106781186548,-0.707106781186548));
#1010=DIRECTION('',(0.,0.,-1.));
#1011=DIRECTION('',(0.,1.,0.));
#1012=DIRECTION('',(0.,0.,1.));
#1013=DIRECTION('center_axis',(0.,0.,-1.));
#1014=DIRECTION('ref_axis',(1.,0.,0.));
#1015=DIRECTION('',(0.,1.,0.));
#1016=DIRECTION('',(1.,0.,0.));
#1017=DIRECTION('center_axis',(0.,-0.707106781186547,-0.707106781186548));
#1018=DIRECTION('ref_axis',(-1.,0.,0.));
#1019=DIRECTION('',(0.,-0.707106781186548,0.707106781186547));
#1020=DIRECTION('',(-1.,0.,0.));
#1021=DIRECTION('center_axis',(0.,-0.707106781186548,-0.707106781186548));
#1022=DIRECTION('ref_axis',(-1.,0.,0.));
#1023=DIRECTION('',(0.,0.707106781186548,-0.707106781186548));
#1024=DIRECTION('',(1.,0.,0.));
#1025=DIRECTION('',(-1.,0.,0.));
#1026=DIRECTION('center_axis',(0.,0.,-1.));
#1027=DIRECTION('ref_axis',(1.,0.,0.));
#1028=DIRECTION('',(0.,1.,0.));
#1029=DIRECTION('',(-1.,0.,0.));
#1030=DIRECTION('center_axis',(-1.,0.,0.));
#1031=DIRECTION('ref_axis',(0.,0.,-1.));
#1032=DIRECTION('',(0.,0.,1.));
#1033=DIRECTION('',(0.,-1.,0.));
#1034=DIRECTION('',(0.,0.,1.));
#1035=DIRECTION('',(0.,-1.,0.));
#1036=DIRECTION('',(0.,3.46944695195361E-17,-1.));
#1037=DIRECTION('',(0.,-1.,0.));
#1038=DIRECTION('',(0.,0.,-1.));
#1039=DIRECTION('',(0.,0.707106781186548,0.707106781186547));
#1040=DIRECTION('',(0.,0.,-1.));
#1041=DIRECTION('',(0.,-1.,0.));
#1042=DIRECTION('',(0.,0.,1.));
#1043=DIRECTION('center_axis',(0.,0.707106781186547,-0.707106781186548));
#1044=DIRECTION('ref_axis',(-1.,0.,0.));
#1045=DIRECTION('',(1.,0.,0.));
#1046=DIRECTION('center_axis',(0.,-1.,0.));
#1047=DIRECTION('ref_axis',(0.,0.,1.));
#1048=DIRECTION('',(-1.,0.,0.));
#1049=DIRECTION('center_axis',(0.,0.707106781186547,-0.707106781186548));
#1050=DIRECTION('ref_axis',(-1.,0.,0.));
#1051=DIRECTION('',(0.,-0.707106781186548,-0.707106781186547));
#1052=DIRECTION('',(-1.,0.,0.));
#1053=DIRECTION('',(1.,0.,0.));
#1054=DIRECTION('center_axis',(0.,0.,-1.));
#1055=DIRECTION('ref_axis',(1.,0.,0.));
#1056=DIRECTION('',(0.,1.,0.));
#1057=DIRECTION('',(1.,0.,0.));
#1058=DIRECTION('center_axis',(0.,-0.707106781186548,-0.707106781186548));
#1059=DIRECTION('ref_axis',(-1.,0.,0.));
#1060=DIRECTION('',(0.,-0.707106781186548,0.707106781186548));
#1061=DIRECTION('',(-1.,0.,0.));
#1062=DIRECTION('center_axis',(0.,1.,0.));
#1063=DIRECTION('ref_axis',(0.,0.,-1.));
#1064=DIRECTION('',(-1.,0.,0.));
#1065=DIRECTION('',(-1.,0.,0.));
#1066=DIRECTION('center_axis',(0.,0.,1.));
#1067=DIRECTION('ref_axis',(0.,1.,0.));
#1068=DIRECTION('',(-1.,0.,0.));
#1069=DIRECTION('center_axis',(0.,0.,1.));
#1070=DIRECTION('ref_axis',(0.,1.,0.));
#1071=DIRECTION('',(-1.,0.,0.));
#1072=DIRECTION('center_axis',(0.,0.,1.));
#1073=DIRECTION('ref_axis',(0.,1.,0.));
#1074=DIRECTION('',(-1.,0.,0.));
#1075=DIRECTION('',(0.,1.,0.));
#1076=DIRECTION('',(-1.,0.,0.));
#1077=DIRECTION('center_axis',(0.,1.,0.));
#1078=DIRECTION('ref_axis',(0.,0.,-1.));
#1079=DIRECTION('center_axis',(0.,-1.,-3.46944695195361E-17));
#1080=DIRECTION('ref_axis',(0.,-3.46944695195361E-17,1.));
#1081=DIRECTION('',(-1.,0.,0.));
#1082=DIRECTION('center_axis',(0.,-1.,-3.46944695195361E-17));
#1083=DIRECTION('ref_axis',(0.,-3.46944695195361E-17,1.));
#1084=DIRECTION('',(0.,-3.46944695195361E-17,1.));
#1085=DIRECTION('',(-1.,0.,0.));
#1086=DIRECTION('center_axis',(0.,0.,1.));
#1087=DIRECTION('ref_axis',(0.,1.,0.));
#1088=DIRECTION('center_axis',(0.,0.,1.));
#1089=DIRECTION('ref_axis',(0.,1.,0.));
#1090=DIRECTION('',(0.,1.,0.));
#1091=DIRECTION('',(-1.,0.,0.));
#1092=DIRECTION('center_axis',(0.,-1.,0.));
#1093=DIRECTION('ref_axis',(0.,0.,1.));
#1094=DIRECTION('',(0.,0.,1.));
#1095=DIRECTION('center_axis',(0.,1.,0.));
#1096=DIRECTION('ref_axis',(0.,0.,-1.));
#1097=DIRECTION('',(0.,0.,-1.));
#1098=DIRECTION('',(-1.,0.,0.));
#1099=DIRECTION('center_axis',(0.,0.,1.));
#1100=DIRECTION('ref_axis',(0.,1.,0.));
#1101=DIRECTION('',(0.,1.,0.));
#1102=DIRECTION('',(-1.,0.,0.));
#1103=DIRECTION('center_axis',(0.,1.,0.));
#1104=DIRECTION('ref_axis',(0.,0.,-1.));
#1105=DIRECTION('',(0.,0.,-1.));
#1106=DIRECTION('center_axis',(0.,1.,0.));
#1107=DIRECTION('ref_axis',(1.,0.,0.));
#1108=DIRECTION('center_axis',(0.,1.,0.));
#1109=DIRECTION('ref_axis',(1.,0.,0.));
#1110=DIRECTION('',(0.,0.,-1.));
#1111=DIRECTION('center_axis',(0.,-1.,0.));
#1112=DIRECTION('ref_axis',(1.,0.,0.));
#1113=DIRECTION('center_axis',(1.,0.,0.));
#1114=DIRECTION('ref_axis',(0.,0.,1.));
#1115=DIRECTION('',(0.,1.,0.));
#1116=DIRECTION('',(0.,0.,1.));
#1117=DIRECTION('center_axis',(0.,-1.,0.));
#1118=DIRECTION('ref_axis',(1.,0.,0.));
#1119=DIRECTION('center_axis',(0.,1.,0.));
#1120=DIRECTION('ref_axis',(1.,0.,0.));
#1121=DIRECTION('center_axis',(0.,-1.,0.));
#1122=DIRECTION('ref_axis',(1.,0.,0.));
#1123=DIRECTION('center_axis',(0.,-1.,0.));
#1124=DIRECTION('ref_axis',(1.,0.,0.));
#1125=DIRECTION('center_axis',(0.,1.,0.));
#1126=DIRECTION('ref_axis',(1.,0.,0.));
#1127=CARTESIAN_POINT('',(0.,0.,0.));
#1128=CARTESIAN_POINT('Origin',(0.,-13.8375001825392,12.5));
#1129=CARTESIAN_POINT('',(-2.1,-24.5000003650784,12.5));
#1130=CARTESIAN_POINT('Origin',(0.,-24.5000003650784,12.5));
#1131=CARTESIAN_POINT('',(-2.1,-3.175,12.5));
#1132=CARTESIAN_POINT('',(-2.1,-13.8375001825392,12.5));
#1133=CARTESIAN_POINT('Origin',(0.,-3.175,12.5));
#1134=CARTESIAN_POINT('Origin',(5.1,-3.175,12.5));
#1135=CARTESIAN_POINT('',(-5.1,-3.175,12.5));
#1136=CARTESIAN_POINT('Origin',(0.,-3.175,12.5));
#1137=CARTESIAN_POINT('Origin',(0.,-8.35,12.5));
#1138=CARTESIAN_POINT('',(-6.75,-13.525,12.5));
#1139=CARTESIAN_POINT('Origin',(0.,-13.525,12.5));
#1140=CARTESIAN_POINT('',(-5.925,-8.35,12.5));
#1141=CARTESIAN_POINT('Origin',(0.,-17.525,12.5));
#1142=CARTESIAN_POINT('',(-6.75,-21.525,12.5));
#1143=CARTESIAN_POINT('Origin',(0.,-21.525,12.5));
#1144=CARTESIAN_POINT('',(-6.75,-17.525,12.5));
#1145=CARTESIAN_POINT('Origin',(5.75,-21.525,12.5));
#1146=CARTESIAN_POINT('',(-5.75,-21.525,12.5));
#1147=CARTESIAN_POINT('Origin',(0.,-21.525,12.5));
#1148=CARTESIAN_POINT('Origin',(0.,-23.025,12.5));
#1149=CARTESIAN_POINT('',(-5.75,-24.525,12.5));
#1150=CARTESIAN_POINT('Origin',(0.,-24.525,12.5));
#1151=CARTESIAN_POINT('',(-5.75,-23.025,12.5));
#1152=CARTESIAN_POINT('Origin',(4.65,-24.525,12.5));
#1153=CARTESIAN_POINT('',(-4.65,-24.525,12.5));
#1154=CARTESIAN_POINT('Origin',(0.,-24.525,12.5));
#1155=CARTESIAN_POINT('Origin',(0.,-19.025,12.5));
#1156=CARTESIAN_POINT('',(-4.65,-13.525,12.5));
#1157=CARTESIAN_POINT('',(-4.65,-19.025,12.5));
#1158=CARTESIAN_POINT('Origin',(0.,-13.525,12.5));
#1159=CARTESIAN_POINT('Origin',(3.25,-13.525,12.5));
#1160=CARTESIAN_POINT('',(-3.25,-13.525,12.5));
#1161=CARTESIAN_POINT('Origin',(0.,-13.525,12.5));
#1162=CARTESIAN_POINT('Origin',(0.,-19.0125001825392,12.5));
#1163=CARTESIAN_POINT('',(-3.25,-24.5000003650784,12.5));
#1164=CARTESIAN_POINT('Origin',(0.,-24.5000003650784,12.5));
#1165=CARTESIAN_POINT('',(-3.25,-19.0125001825392,12.5));
#1166=CARTESIAN_POINT('Origin',(2.1,-24.5000003650784,12.5));
#1167=CARTESIAN_POINT('Origin',(0.,2.1125,-2.7875));
#1168=CARTESIAN_POINT('',(-3.,1.9,-2.575));
#1169=CARTESIAN_POINT('',(-3.,2.325,-3.));
#1170=CARTESIAN_POINT('',(-3.,-2.2375,1.5625));
#1171=CARTESIAN_POINT('',(-2.1,2.325,-3.));
#1172=CARTESIAN_POINT('',(0.,2.325,-3.));
#1173=CARTESIAN_POINT('',(-2.1,1.9,-2.575));
#1174=CARTESIAN_POINT('',(-2.1,1.6375,-2.3125));
#1175=CARTESIAN_POINT('',(0.,1.9,-2.575));
#1176=CARTESIAN_POINT('Origin',(-2.1,0.,-3.));
#1177=CARTESIAN_POINT('',(-2.1,2.75,-3.));
#1178=CARTESIAN_POINT('',(-2.1,0.,-3.));
#1179=CARTESIAN_POINT('',(-2.1,3.175,-2.575));
#1180=CARTESIAN_POINT('',(-2.1,2.16875,-3.58125));
#1181=CARTESIAN_POINT('',(-2.1,3.175,12.5));
#1182=CARTESIAN_POINT('',(-2.1,3.175,12.5));
#1183=CARTESIAN_POINT('',(-2.1,-3.175,12.5));
#1184=CARTESIAN_POINT('',(-2.1,0.,12.5));
#1185=CARTESIAN_POINT('',(-2.1,-3.175,-2.575));
#1186=CARTESIAN_POINT('',(-2.1,-3.175,12.5));
#1187=CARTESIAN_POINT('',(-2.1,-2.75,-3.));
#1188=CARTESIAN_POINT('',(-2.1,-2.16875,-3.58125));
#1189=CARTESIAN_POINT('',(-2.1,-2.325,-3.));
#1190=CARTESIAN_POINT('',(-2.1,0.,-3.));
#1191=CARTESIAN_POINT('',(-2.1,-1.9,-2.575));
#1192=CARTESIAN_POINT('',(-2.1,-1.6375,-2.3125));
#1193=CARTESIAN_POINT('',(-2.1,-1.9,0.));
#1194=CARTESIAN_POINT('',(-2.1,-1.9,-3.));
#1195=CARTESIAN_POINT('',(-2.1,-0.9,0.));
#1196=CARTESIAN_POINT('',(-2.1,-0.95,0.));
#1197=CARTESIAN_POINT('',(-2.1,-0.9,5.));
#1198=CARTESIAN_POINT('',(-2.1,-0.9,-1.5));
#1199=CARTESIAN_POINT('',(-2.1,0.9,5.));
#1200=CARTESIAN_POINT('',(-2.1,-0.45,5.));
#1201=CARTESIAN_POINT('',(-2.1,0.9,0.));
#1202=CARTESIAN_POINT('',(-2.1,0.9,1.));
#1203=CARTESIAN_POINT('',(-2.1,1.9,0.));
#1204=CARTESIAN_POINT('',(-2.1,0.45,0.));
#1205=CARTESIAN_POINT('',(-2.1,1.9,-1.5));
#1206=CARTESIAN_POINT('Origin',(-3.,0.,-3.));
#1207=CARTESIAN_POINT('',(-3.,2.75,-3.));
#1208=CARTESIAN_POINT('',(-3.,0.,-3.));
#1209=CARTESIAN_POINT('',(-1.5,2.75,-3.));
#1210=CARTESIAN_POINT('Origin',(-1.5,2.9625,-2.7875));
#1211=CARTESIAN_POINT('',(-3.,3.175,-2.575));
#1212=CARTESIAN_POINT('',(-3.,6.04375,0.293749999999999));
#1213=CARTESIAN_POINT('',(-1.5,3.175,-2.575));
#1214=CARTESIAN_POINT('Origin',(1.05,2.9625,-2.7875));
#1215=CARTESIAN_POINT('',(3.,3.175,-2.575));
#1216=CARTESIAN_POINT('',(3.,2.75,-3.));
#1217=CARTESIAN_POINT('',(3.,2.16875,-3.58125));
#1218=CARTESIAN_POINT('',(2.1,2.75,-3.));
#1219=CARTESIAN_POINT('',(1.05,2.75,-3.));
#1220=CARTESIAN_POINT('',(2.1,3.175,-2.575));
#1221=CARTESIAN_POINT('',(2.1,6.04375,0.293749999999999));
#1222=CARTESIAN_POINT('',(1.05,3.175,-2.575));
#1223=CARTESIAN_POINT('Origin',(2.1,0.,12.5));
#1224=CARTESIAN_POINT('',(2.1,2.325,-3.));
#1225=CARTESIAN_POINT('',(2.1,0.,-3.));
#1226=CARTESIAN_POINT('',(2.1,1.9,-2.575));
#1227=CARTESIAN_POINT('',(2.1,-2.2375,1.5625));
#1228=CARTESIAN_POINT('',(2.1,1.9,0.));
#1229=CARTESIAN_POINT('',(2.1,1.9,6.25));
#1230=CARTESIAN_POINT('',(2.1,0.9,0.));
#1231=CARTESIAN_POINT('',(2.1,0.45,0.));
#1232=CARTESIAN_POINT('',(2.1,0.9,5.));
#1233=CARTESIAN_POINT('',(2.1,0.9,8.75));
#1234=CARTESIAN_POINT('',(2.1,-0.9,5.));
#1235=CARTESIAN_POINT('',(2.1,-0.45,5.));
#1236=CARTESIAN_POINT('',(2.1,-0.9,0.));
#1237=CARTESIAN_POINT('',(2.1,-0.9,6.25));
#1238=CARTESIAN_POINT('',(2.1,-1.9,0.));
#1239=CARTESIAN_POINT('',(2.1,-0.95,0.));
#1240=CARTESIAN_POINT('',(2.1,-1.9,-2.575));
#1241=CARTESIAN_POINT('',(2.1,-1.9,4.75));
#1242=CARTESIAN_POINT('',(2.1,-2.325,-3.));
#1243=CARTESIAN_POINT('',(2.1,2.2375,1.5625));
#1244=CARTESIAN_POINT('',(2.1,-2.75,-3.));
#1245=CARTESIAN_POINT('',(2.1,0.,-3.));
#1246=CARTESIAN_POINT('',(2.1,-3.175,-2.575));
#1247=CARTESIAN_POINT('',(2.1,-6.04375,0.293749999999999));
#1248=CARTESIAN_POINT('',(2.1,-3.175,12.5));
#1249=CARTESIAN_POINT('',(2.1,-3.175,0.));
#1250=CARTESIAN_POINT('',(2.1,3.175,12.5));
#1251=CARTESIAN_POINT('',(2.1,0.,12.5));
#1252=CARTESIAN_POINT('',(2.1,3.175,0.));
#1253=CARTESIAN_POINT('Origin',(2.1,0.,-3.));
#1254=CARTESIAN_POINT('',(3.,2.325,-3.));
#1255=CARTESIAN_POINT('',(3.,0.,-3.));
#1256=CARTESIAN_POINT('',(2.55,2.325,-3.));
#1257=CARTESIAN_POINT('Origin',(2.55,2.1125,-2.7875));
#1258=CARTESIAN_POINT('',(3.,1.9,-2.575));
#1259=CARTESIAN_POINT('',(3.,1.6375,-2.3125));
#1260=CARTESIAN_POINT('',(2.55,1.9,-2.575));
#1261=CARTESIAN_POINT('Origin',(-1.5,-2.9625,-2.7875));
#1262=CARTESIAN_POINT('',(-3.,-3.175,-2.575));
#1263=CARTESIAN_POINT('',(-3.,-2.75,-3.));
#1264=CARTESIAN_POINT('',(-3.,-6.04375,0.293749999999999));
#1265=CARTESIAN_POINT('',(-1.5,-2.75,-3.));
#1266=CARTESIAN_POINT('',(-1.5,-3.175,-2.575));
#1267=CARTESIAN_POINT('Origin',(-3.,0.,-3.));
#1268=CARTESIAN_POINT('',(-3.,-2.325,-3.));
#1269=CARTESIAN_POINT('',(-3.,0.,-3.));
#1270=CARTESIAN_POINT('',(0.,-2.325,-3.));
#1271=CARTESIAN_POINT('Origin',(-3.,0.,12.5));
#1272=CARTESIAN_POINT('',(-3.,1.9,0.));
#1273=CARTESIAN_POINT('',(-3.,1.9,6.25));
#1274=CARTESIAN_POINT('',(-3.,0.9,0.));
#1275=CARTESIAN_POINT('',(-3.,0.45,0.));
#1276=CARTESIAN_POINT('',(-3.,0.9,5.));
#1277=CARTESIAN_POINT('',(-3.,0.9,8.75));
#1278=CARTESIAN_POINT('',(-3.,-0.9,5.));
#1279=CARTESIAN_POINT('',(-3.,-0.45,5.));
#1280=CARTESIAN_POINT('',(-3.,-0.9,0.));
#1281=CARTESIAN_POINT('',(-3.,-0.9,6.25));
#1282=CARTESIAN_POINT('',(-3.,-1.9,0.));
#1283=CARTESIAN_POINT('',(-3.,-0.95,0.));
#1284=CARTESIAN_POINT('',(-3.,-1.9,-2.575));
#1285=CARTESIAN_POINT('',(-3.,-1.9,4.75));
#1286=CARTESIAN_POINT('',(-3.,2.2375,1.5625));
#1287=CARTESIAN_POINT('',(-3.,-3.175,12.5));
#1288=CARTESIAN_POINT('',(-3.,-3.175,0.));
#1289=CARTESIAN_POINT('',(-3.,3.175,12.5));
#1290=CARTESIAN_POINT('',(-3.,0.,12.5));
#1291=CARTESIAN_POINT('',(-3.,3.175,0.));
#1292=CARTESIAN_POINT('Origin',(0.,-2.1125,-2.7875));
#1293=CARTESIAN_POINT('',(0.,-1.9,-2.575));
#1294=CARTESIAN_POINT('Origin',(3.,-1.9,-3.));
#1295=CARTESIAN_POINT('',(3.,-1.9,0.));
#1296=CARTESIAN_POINT('Origin',(2.55,-2.1125,-2.7875));
#1297=CARTESIAN_POINT('',(3.,-1.9,-2.575));
#1298=CARTESIAN_POINT('',(3.,-2.325,-3.));
#1299=CARTESIAN_POINT('',(3.,-1.6375,-2.3125));
#1300=CARTESIAN_POINT('',(2.55,-2.325,-3.));
#1301=CARTESIAN_POINT('',(2.55,-1.9,-2.575));
#1302=CARTESIAN_POINT('Origin',(2.1,0.,-3.));
#1303=CARTESIAN_POINT('',(3.,-2.75,-3.));
#1304=CARTESIAN_POINT('',(3.,0.,-3.));
#1305=CARTESIAN_POINT('',(1.05,-2.75,-3.));
#1306=CARTESIAN_POINT('Origin',(1.05,-2.9625,-2.7875));
#1307=CARTESIAN_POINT('',(3.,-3.175,-2.575));
#1308=CARTESIAN_POINT('',(3.,-2.16875,-3.58125));
#1309=CARTESIAN_POINT('',(1.05,-3.175,-2.575));
#1310=CARTESIAN_POINT('Origin',(3.,0.9,5.));
#1311=CARTESIAN_POINT('',(3.,0.9,5.));
#1312=CARTESIAN_POINT('',(3.,0.9,0.));
#1313=CARTESIAN_POINT('Origin',(3.,0.9,0.));
#1314=CARTESIAN_POINT('',(3.,1.9,0.));
#1315=CARTESIAN_POINT('Origin',(3.,-0.9,5.));
#1316=CARTESIAN_POINT('',(3.,-0.9,5.));
#1317=CARTESIAN_POINT('Origin',(3.,-0.9,5.));
#1318=CARTESIAN_POINT('',(3.,0.9,5.));
#1319=CARTESIAN_POINT('',(3.,0.9,5.));
#1320=CARTESIAN_POINT('',(3.,-0.9,5.));
#1321=CARTESIAN_POINT('',(3.,-0.45,5.));
#1322=CARTESIAN_POINT('',(3.,-0.9,5.));
#1323=CARTESIAN_POINT('Origin',(3.,1.9,0.));
#1324=CARTESIAN_POINT('Origin',(3.,-0.9,0.));
#1325=CARTESIAN_POINT('',(3.,-0.9,0.));
#1326=CARTESIAN_POINT('Origin',(3.,-0.9,0.));
#1327=CARTESIAN_POINT('',(3.,-0.9,0.));
#1328=CARTESIAN_POINT('',(3.,-0.9,-1.5));
#1329=CARTESIAN_POINT('',(3.,-0.9,0.));
#1330=CARTESIAN_POINT('Origin',(3.,-1.9,0.));
#1331=CARTESIAN_POINT('Origin',(3.,-1.9,0.));
#1332=CARTESIAN_POINT('',(3.,-1.9,0.));
#1333=CARTESIAN_POINT('',(3.,-0.95,0.));
#1334=CARTESIAN_POINT('',(3.,-1.9,0.));
#1335=CARTESIAN_POINT('Origin',(3.,-1.9,-3.));
#1336=CARTESIAN_POINT('',(3.,-1.9,-3.));
#1337=CARTESIAN_POINT('Origin',(3.,1.9,0.));
#1338=CARTESIAN_POINT('',(3.,1.9,0.));
#1339=CARTESIAN_POINT('',(3.,1.9,-1.5));
#1340=CARTESIAN_POINT('',(3.,1.9,0.));
#1341=CARTESIAN_POINT('Origin',(3.,0.9,0.));
#1342=CARTESIAN_POINT('',(3.,0.9,0.));
#1343=CARTESIAN_POINT('',(3.,0.45,0.));
#1344=CARTESIAN_POINT('',(3.,0.9,0.));
#1345=CARTESIAN_POINT('Origin',(3.,0.9,5.));
#1346=CARTESIAN_POINT('',(3.,0.9,1.));
#1347=CARTESIAN_POINT('Origin',(0.,3.175,6.25));
#1348=CARTESIAN_POINT('',(3.,3.175,12.5));
#1349=CARTESIAN_POINT('Origin',(0.,3.175,12.5));
#1350=CARTESIAN_POINT('',(3.,3.175,12.5));
#1351=CARTESIAN_POINT('Origin',(0.,3.175,12.5));
#1352=CARTESIAN_POINT('Origin',(3.,0.,-3.));
#1353=CARTESIAN_POINT('',(3.,-3.175,12.5));
#1354=CARTESIAN_POINT('',(3.,0.,12.5));
#1355=CARTESIAN_POINT('',(3.,-3.175,12.5));
#1356=CARTESIAN_POINT('Origin',(0.,0.,12.5));
#1357=CARTESIAN_POINT('Origin',(0.,-3.175,12.5));
#1358=CARTESIAN_POINT('Origin',(0.,0.,12.5));
#1359=CARTESIAN_POINT('Origin',(0.,-3.175,12.5));
#1360=CARTESIAN_POINT('Origin',(0.,-3.175,6.25));
#1361=UNCERTAINTY_MEASURE_WITH_UNIT(LENGTH_MEASURE(0.01),#1365,
'DISTANCE_ACCURACY_VALUE',
'Maximum model space distance between geometric entities at asserted c
onnectivities');
#1362=UNCERTAINTY_MEASURE_WITH_UNIT(LENGTH_MEASURE(0.01),#1365,
'DISTANCE_ACCURACY_VALUE',
'Maximum model space distance between geometric entities at asserted c
onnectivities');
#1363=(
GEOMETRIC_REPRESENTATION_CONTEXT(3)
GLOBAL_UNCERTAINTY_ASSIGNED_CONTEXT((#1361))
GLOBAL_UNIT_ASSIGNED_CONTEXT((#1365,#1367,#1368))
REPRESENTATION_CONTEXT('','3D')
);
#1364=(
GEOMETRIC_REPRESENTATION_CONTEXT(3)
GLOBAL_UNCERTAINTY_ASSIGNED_CONTEXT((#1362))
GLOBAL_UNIT_ASSIGNED_CONTEXT((#1365,#1367,#1368))
REPRESENTATION_CONTEXT('','3D')
);
#1365=(
LENGTH_UNIT()
NAMED_UNIT(*)
SI_UNIT(.MILLI.,.METRE.)
);
#1366=(
LENGTH_UNIT()
NAMED_UNIT(*)
SI_UNIT($,.METRE.)
);
#1367=(
NAMED_UNIT(*)
PLANE_ANGLE_UNIT()
SI_UNIT($,.RADIAN.)
);
#1368=(
NAMED_UNIT(*)
SI_UNIT($,.STERADIAN.)
SOLID_ANGLE_UNIT()
);
#1369=SHAPE_DEFINITION_REPRESENTATION(#1370,#1371);
#1370=PRODUCT_DEFINITION_SHAPE('',$,#1373);
#1371=SHAPE_REPRESENTATION('',(#846),#1363);
#1372=PRODUCT_DEFINITION_CONTEXT('part definition',#1377,'design');
#1373=PRODUCT_DEFINITION('2026-09-24-19-39-17-636',
'CalTest_CT3151-2_Banana_Red',#1374,#1372);
#1374=PRODUCT_DEFINITION_FORMATION('',$,#1379);
#1375=PRODUCT_RELATED_PRODUCT_CATEGORY('CalTest_CT3151-2_Banana_Red',
'CalTest_CT3151-2_Banana_Red',(#1379));
#1376=APPLICATION_PROTOCOL_DEFINITION('international standard',
'automotive_design',2009,#1377);
#1377=APPLICATION_CONTEXT(
'Core Data for Automotive Mechanical Design Process');
#1378=PRODUCT_CONTEXT('part definition',#1377,'mechanical');
#1379=PRODUCT('2026-09-24-19-39-17-636','CalTest_CT3151-2_Banana_Red',$,
(#1378));
#1380=PRESENTATION_STYLE_ASSIGNMENT((#1383));
#1381=PRESENTATION_STYLE_ASSIGNMENT((#1384));
#1382=PRESENTATION_STYLE_ASSIGNMENT((#1385));
#1383=SURFACE_STYLE_USAGE(.BOTH.,#1386);
#1384=SURFACE_STYLE_USAGE(.BOTH.,#1387);
#1385=SURFACE_STYLE_USAGE(.BOTH.,#1388);
#1386=SURFACE_SIDE_STYLE('',(#1389));
#1387=SURFACE_SIDE_STYLE('',(#1390));
#1388=SURFACE_SIDE_STYLE('',(#1391));
#1389=SURFACE_STYLE_FILL_AREA(#1392);
#1390=SURFACE_STYLE_FILL_AREA(#1393);
#1391=SURFACE_STYLE_FILL_AREA(#1394);
#1392=FILL_AREA_STYLE('Steel - Satin',(#1395));
#1393=FILL_AREA_STYLE('Electronics Black',(#1396));
#1394=FILL_AREA_STYLE('Aluminum - Satin',(#1397));
#1395=FILL_AREA_STYLE_COLOUR('Steel - Satin',#1398);
#1396=FILL_AREA_STYLE_COLOUR('Electronics Black',#1399);
#1397=FILL_AREA_STYLE_COLOUR('Aluminum - Satin',#1400);
#1398=COLOUR_RGB('Steel - Satin',0.627450980392157,0.627450980392157,0.627450980392157);
#1399=COLOUR_RGB('Electronics Black',0.745098039215686,0.156862745098039,
0.156862745098039);
#1400=COLOUR_RGB('Aluminum - Satin',0.96078431372549,0.96078431372549,0.964705882352941);
ENDSEC;
END-ISO-10303-21;
