ISO-10303-21;
HEADER;
/* Generated by software containing ST-Developer
 * from STEP Tools, Inc. (www.steptools.com) 
 */

FILE_DESCRIPTION(
/* description */ ('STEP AP214'),
/* implementation_level */ '2;1');

FILE_NAME(
/* name */ 'CT3151-2.step',
/* time_stamp */ '2026-03-22T19:57:53+01:00',
/* author */ (''),
/* organization */ (''),
/* preprocessor_version */ 'ST-DEVELOPER v20.1',
/* originating_system */ 'Autodesk Translation Framework v14.24.0.0',
/* authorisation */ '');

FILE_SCHEMA (('AUTOMOTIVE_DESIGN { 1 0 10303 214 3 1 1 }'));
ENDSEC;

DATA;
#10=MECHANICAL_DESIGN_GEOMETRIC_PRESENTATION_REPRESENTATION('',(#13,#14,
#15),#1502);
#11=SHAPE_REPRESENTATION_RELATIONSHIP('SRR','None',#1509,#12);
#12=ADVANCED_BREP_SHAPE_REPRESENTATION('',(#16,#17,#18),#1501);
#13=STYLED_ITEM('',(#1519),#16);
#14=STYLED_ITEM('',(#1520),#17);
#15=STYLED_ITEM('',(#1520),#18);
#16=MANIFOLD_SOLID_BREP('K\X\F6rper1',#909);
#17=MANIFOLD_SOLID_BREP('K\X\F6rper2',#910);
#18=MANIFOLD_SOLID_BREP('K\X\F6rper3',#911);
#19=FACE_BOUND('',#127,.T.);
#20=FACE_BOUND('',#129,.T.);
#21=FACE_BOUND('',#131,.T.);
#22=FACE_BOUND('',#133,.T.);
#23=FACE_BOUND('',#135,.T.);
#24=FACE_BOUND('',#137,.T.);
#25=FACE_BOUND('',#141,.T.);
#26=FACE_BOUND('',#143,.T.);
#27=PLANE('',#945);
#28=PLANE('',#946);
#29=PLANE('',#947);
#30=PLANE('',#948);
#31=PLANE('',#949);
#32=PLANE('',#950);
#33=PLANE('',#957);
#34=PLANE('',#958);
#35=PLANE('',#959);
#36=PLANE('',#962);
#37=PLANE('',#966);
#38=PLANE('',#967);
#39=PLANE('',#969);
#40=PLANE('',#970);
#41=PLANE('',#971);
#42=PLANE('',#972);
#43=PLANE('',#973);
#44=PLANE('',#974);
#45=PLANE('',#975);
#46=PLANE('',#976);
#47=PLANE('',#977);
#48=PLANE('',#978);
#49=PLANE('',#979);
#50=PLANE('',#980);
#51=PLANE('',#981);
#52=PLANE('',#982);
#53=PLANE('',#983);
#54=PLANE('',#984);
#55=PLANE('',#985);
#56=PLANE('',#986);
#57=PLANE('',#987);
#58=PLANE('',#988);
#59=PLANE('',#989);
#60=PLANE('',#990);
#61=PLANE('',#991);
#62=PLANE('',#992);
#63=PLANE('',#993);
#64=PLANE('',#994);
#65=PLANE('',#995);
#66=PLANE('',#996);
#67=CONICAL_SURFACE('',#940,5.11072104264105,0.15707963267949);
#68=FACE_OUTER_BOUND('',#119,.T.);
#69=FACE_OUTER_BOUND('',#120,.T.);
#70=FACE_OUTER_BOUND('',#121,.T.);
#71=FACE_OUTER_BOUND('',#122,.T.);
#72=FACE_OUTER_BOUND('',#123,.T.);
#73=FACE_OUTER_BOUND('',#124,.T.);
#74=FACE_OUTER_BOUND('',#125,.T.);
#75=FACE_OUTER_BOUND('',#126,.T.);
#76=FACE_OUTER_BOUND('',#128,.T.);
#77=FACE_OUTER_BOUND('',#130,.T.);
#78=FACE_OUTER_BOUND('',#132,.T.);
#79=FACE_OUTER_BOUND('',#134,.T.);
#80=FACE_OUTER_BOUND('',#136,.T.);
#81=FACE_OUTER_BOUND('',#138,.T.);
#82=FACE_OUTER_BOUND('',#139,.T.);
#83=FACE_OUTER_BOUND('',#140,.T.);
#84=FACE_OUTER_BOUND('',#142,.T.);
#85=FACE_OUTER_BOUND('',#144,.T.);
#86=FACE_OUTER_BOUND('',#145,.T.);
#87=FACE_OUTER_BOUND('',#146,.T.);
#88=FACE_OUTER_BOUND('',#147,.T.);
#89=FACE_OUTER_BOUND('',#148,.T.);
#90=FACE_OUTER_BOUND('',#149,.T.);
#91=FACE_OUTER_BOUND('',#150,.T.);
#92=FACE_OUTER_BOUND('',#151,.T.);
#93=FACE_OUTER_BOUND('',#152,.T.);
#94=FACE_OUTER_BOUND('',#153,.T.);
#95=FACE_OUTER_BOUND('',#154,.T.);
#96=FACE_OUTER_BOUND('',#155,.T.);
#97=FACE_OUTER_BOUND('',#156,.T.);
#98=FACE_OUTER_BOUND('',#157,.T.);
#99=FACE_OUTER_BOUND('',#158,.T.);
#100=FACE_OUTER_BOUND('',#159,.T.);
#101=FACE_OUTER_BOUND('',#160,.T.);
#102=FACE_OUTER_BOUND('',#161,.T.);
#103=FACE_OUTER_BOUND('',#162,.T.);
#104=FACE_OUTER_BOUND('',#163,.T.);
#105=FACE_OUTER_BOUND('',#164,.T.);
#106=FACE_OUTER_BOUND('',#165,.T.);
#107=FACE_OUTER_BOUND('',#166,.T.);
#108=FACE_OUTER_BOUND('',#167,.T.);
#109=FACE_OUTER_BOUND('',#168,.T.);
#110=FACE_OUTER_BOUND('',#169,.T.);
#111=FACE_OUTER_BOUND('',#170,.T.);
#112=FACE_OUTER_BOUND('',#171,.T.);
#113=FACE_OUTER_BOUND('',#172,.T.);
#114=FACE_OUTER_BOUND('',#173,.T.);
#115=FACE_OUTER_BOUND('',#174,.T.);
#116=FACE_OUTER_BOUND('',#175,.T.);
#117=FACE_OUTER_BOUND('',#176,.T.);
#118=FACE_OUTER_BOUND('',#177,.T.);
#119=EDGE_LOOP('',(#604,#605,#606,#607));
#120=EDGE_LOOP('',(#608,#609,#610,#611));
#121=EDGE_LOOP('',(#612,#613,#614,#615));
#122=EDGE_LOOP('',(#616,#617,#618,#619));
#123=EDGE_LOOP('',(#620,#621,#622,#623));
#124=EDGE_LOOP('',(#624,#625,#626,#627));
#125=EDGE_LOOP('',(#628,#629,#630,#631));
#126=EDGE_LOOP('',(#632));
#127=EDGE_LOOP('',(#633));
#128=EDGE_LOOP('',(#634));
#129=EDGE_LOOP('',(#635));
#130=EDGE_LOOP('',(#636));
#131=EDGE_LOOP('',(#637));
#132=EDGE_LOOP('',(#638));
#133=EDGE_LOOP('',(#639));
#134=EDGE_LOOP('',(#640));
#135=EDGE_LOOP('',(#641));
#136=EDGE_LOOP('',(#642));
#137=EDGE_LOOP('',(#643));
#138=EDGE_LOOP('',(#644,#645,#646,#647));
#139=EDGE_LOOP('',(#648,#649,#650,#651));
#140=EDGE_LOOP('',(#652));
#141=EDGE_LOOP('',(#653));
#142=EDGE_LOOP('',(#654));
#143=EDGE_LOOP('',(#655));
#144=EDGE_LOOP('',(#656,#657,#658,#659,#660,#661,#662,#663));
#145=EDGE_LOOP('',(#664,#665,#666,#667,#668,#669,#670,#671));
#146=EDGE_LOOP('',(#672,#673,#674,#675));
#147=EDGE_LOOP('',(#676,#677,#678,#679,#680,#681,#682,#683,#684,#685,#686,
#687,#688,#689,#690,#691));
#148=EDGE_LOOP('',(#692,#693,#694,#695,#696,#697,#698,#699,#700,#701,#702,
#703,#704,#705,#706,#707));
#149=EDGE_LOOP('',(#708,#709,#710,#711));
#150=EDGE_LOOP('',(#712,#713,#714,#715,#716,#717,#718,#719,#720,#721,#722,
#723,#724,#725,#726,#727));
#151=EDGE_LOOP('',(#728,#729,#730,#731,#732,#733,#734,#735,#736,#737,#738,
#739,#740,#741,#742,#743));
#152=EDGE_LOOP('',(#744,#745,#746,#747));
#153=EDGE_LOOP('',(#748,#749,#750,#751));
#154=EDGE_LOOP('',(#752,#753,#754,#755));
#155=EDGE_LOOP('',(#756,#757,#758,#759));
#156=EDGE_LOOP('',(#760,#761,#762,#763));
#157=EDGE_LOOP('',(#764,#765,#766,#767));
#158=EDGE_LOOP('',(#768,#769,#770,#771));
#159=EDGE_LOOP('',(#772,#773,#774,#775));
#160=EDGE_LOOP('',(#776,#777,#778,#779));
#161=EDGE_LOOP('',(#780,#781,#782,#783));
#162=EDGE_LOOP('',(#784,#785,#786,#787));
#163=EDGE_LOOP('',(#788,#789,#790,#791));
#164=EDGE_LOOP('',(#792,#793,#794,#795));
#165=EDGE_LOOP('',(#796,#797,#798,#799));
#166=EDGE_LOOP('',(#800,#801,#802,#803));
#167=EDGE_LOOP('',(#804,#805,#806,#807));
#168=EDGE_LOOP('',(#808,#809,#810,#811));
#169=EDGE_LOOP('',(#812,#813,#814,#815));
#170=EDGE_LOOP('',(#816,#817,#818,#819));
#171=EDGE_LOOP('',(#820,#821,#822,#823));
#172=EDGE_LOOP('',(#824,#825,#826,#827));
#173=EDGE_LOOP('',(#828,#829,#830,#831));
#174=EDGE_LOOP('',(#832,#833,#834,#835));
#175=EDGE_LOOP('',(#836,#837,#838,#839));
#176=EDGE_LOOP('',(#840,#841,#842,#843));
#177=EDGE_LOOP('',(#844,#845,#846,#847));
#178=LINE('',#1249,#279);
#179=LINE('',#1255,#280);
#180=LINE('',#1261,#281);
#181=LINE('',#1267,#282);
#182=LINE('',#1273,#283);
#183=LINE('',#1277,#284);
#184=LINE('',#1283,#285);
#185=LINE('',#1295,#286);
#186=LINE('',#1301,#287);
#187=LINE('',#1308,#288);
#188=LINE('',#1310,#289);
#189=LINE('',#1314,#290);
#190=LINE('',#1316,#291);
#191=LINE('',#1318,#292);
#192=LINE('',#1321,#293);
#193=LINE('',#1325,#294);
#194=LINE('',#1327,#295);
#195=LINE('',#1329,#296);
#196=LINE('',#1333,#297);
#197=LINE('',#1335,#298);
#198=LINE('',#1337,#299);
#199=LINE('',#1340,#300);
#200=LINE('',#1341,#301);
#201=LINE('',#1344,#302);
#202=LINE('',#1346,#303);
#203=LINE('',#1348,#304);
#204=LINE('',#1350,#305);
#205=LINE('',#1352,#306);
#206=LINE('',#1354,#307);
#207=LINE('',#1356,#308);
#208=LINE('',#1358,#309);
#209=LINE('',#1360,#310);
#210=LINE('',#1362,#311);
#211=LINE('',#1364,#312);
#212=LINE('',#1366,#313);
#213=LINE('',#1367,#314);
#214=LINE('',#1370,#315);
#215=LINE('',#1372,#316);
#216=LINE('',#1374,#317);
#217=LINE('',#1376,#318);
#218=LINE('',#1378,#319);
#219=LINE('',#1380,#320);
#220=LINE('',#1382,#321);
#221=LINE('',#1384,#322);
#222=LINE('',#1386,#323);
#223=LINE('',#1388,#324);
#224=LINE('',#1390,#325);
#225=LINE('',#1392,#326);
#226=LINE('',#1393,#327);
#227=LINE('',#1394,#328);
#228=LINE('',#1396,#329);
#229=LINE('',#1399,#330);
#230=LINE('',#1401,#331);
#231=LINE('',#1403,#332);
#232=LINE('',#1405,#333);
#233=LINE('',#1407,#334);
#234=LINE('',#1409,#335);
#235=LINE('',#1411,#336);
#236=LINE('',#1413,#337);
#237=LINE('',#1415,#338);
#238=LINE('',#1417,#339);
#239=LINE('',#1419,#340);
#240=LINE('',#1421,#341);
#241=LINE('',#1422,#342);
#242=LINE('',#1425,#343);
#243=LINE('',#1427,#344);
#244=LINE('',#1429,#345);
#245=LINE('',#1431,#346);
#246=LINE('',#1433,#347);
#247=LINE('',#1435,#348);
#248=LINE('',#1437,#349);
#249=LINE('',#1439,#350);
#250=LINE('',#1441,#351);
#251=LINE('',#1443,#352);
#252=LINE('',#1445,#353);
#253=LINE('',#1447,#354);
#254=LINE('',#1448,#355);
#255=LINE('',#1450,#356);
#256=LINE('',#1452,#357);
#257=LINE('',#1454,#358);
#258=LINE('',#1456,#359);
#259=LINE('',#1458,#360);
#260=LINE('',#1460,#361);
#261=LINE('',#1462,#362);
#262=LINE('',#1464,#363);
#263=LINE('',#1466,#364);
#264=LINE('',#1468,#365);
#265=LINE('',#1470,#366);
#266=LINE('',#1472,#367);
#267=LINE('',#1475,#368);
#268=LINE('',#1477,#369);
#269=LINE('',#1479,#370);
#270=LINE('',#1481,#371);
#271=LINE('',#1483,#372);
#272=LINE('',#1485,#373);
#273=LINE('',#1487,#374);
#274=LINE('',#1489,#375);
#275=LINE('',#1491,#376);
#276=LINE('',#1493,#377);
#277=LINE('',#1495,#378);
#278=LINE('',#1497,#379);
#279=VECTOR('',#1003,2.1);
#280=VECTOR('',#1010,3.25);
#281=VECTOR('',#1017,4.65);
#282=VECTOR('',#1024,5.75);
#283=VECTOR('',#1031,6.75);
#284=VECTOR('',#1036,5.11072104264105);
#285=VECTOR('',#1043,2.8);
#286=VECTOR('',#1062,2.1);
#287=VECTOR('',#1069,2.8);
#288=VECTOR('',#1078,1000.);
#289=VECTOR('',#1079,1000.);
#290=VECTOR('',#1082,1000.);
#291=VECTOR('',#1083,1000.);
#292=VECTOR('',#1084,1000.);
#293=VECTOR('',#1087,1000.);
#294=VECTOR('',#1090,1000.);
#295=VECTOR('',#1091,1000.);
#296=VECTOR('',#1092,1000.);
#297=VECTOR('',#1095,1000.);
#298=VECTOR('',#1096,1000.);
#299=VECTOR('',#1097,1000.);
#300=VECTOR('',#1102,1000.);
#301=VECTOR('',#1103,1000.);
#302=VECTOR('',#1106,1000.);
#303=VECTOR('',#1107,1000.);
#304=VECTOR('',#1108,1000.);
#305=VECTOR('',#1109,1000.);
#306=VECTOR('',#1110,1000.);
#307=VECTOR('',#1111,1000.);
#308=VECTOR('',#1112,1000.);
#309=VECTOR('',#1113,1000.);
#310=VECTOR('',#1114,1000.);
#311=VECTOR('',#1115,1000.);
#312=VECTOR('',#1116,1000.);
#313=VECTOR('',#1117,1000.);
#314=VECTOR('',#1118,1000.);
#315=VECTOR('',#1121,1000.);
#316=VECTOR('',#1122,1000.);
#317=VECTOR('',#1123,1000.);
#318=VECTOR('',#1124,1000.);
#319=VECTOR('',#1125,1000.);
#320=VECTOR('',#1126,1000.);
#321=VECTOR('',#1127,1000.);
#322=VECTOR('',#1128,1000.);
#323=VECTOR('',#1129,1000.);
#324=VECTOR('',#1130,1000.);
#325=VECTOR('',#1131,1000.);
#326=VECTOR('',#1132,1000.);
#327=VECTOR('',#1133,1000.);
#328=VECTOR('',#1134,1000.);
#329=VECTOR('',#1137,1000.);
#330=VECTOR('',#1140,1000.);
#331=VECTOR('',#1141,1000.);
#332=VECTOR('',#1142,1000.);
#333=VECTOR('',#1143,1000.);
#334=VECTOR('',#1144,1000.);
#335=VECTOR('',#1145,1000.);
#336=VECTOR('',#1146,1000.);
#337=VECTOR('',#1147,1000.);
#338=VECTOR('',#1148,1000.);
#339=VECTOR('',#1149,1000.);
#340=VECTOR('',#1150,1000.);
#341=VECTOR('',#1151,1000.);
#342=VECTOR('',#1152,1000.);
#343=VECTOR('',#1155,1000.);
#344=VECTOR('',#1156,1000.);
#345=VECTOR('',#1157,1000.);
#346=VECTOR('',#1158,1000.);
#347=VECTOR('',#1159,1000.);
#348=VECTOR('',#1160,1000.);
#349=VECTOR('',#1161,1000.);
#350=VECTOR('',#1162,1000.);
#351=VECTOR('',#1163,1000.);
#352=VECTOR('',#1164,1000.);
#353=VECTOR('',#1165,1000.);
#354=VECTOR('',#1166,1000.);
#355=VECTOR('',#1167,1000.);
#356=VECTOR('',#1170,1000.);
#357=VECTOR('',#1173,1000.);
#358=VECTOR('',#1176,1000.);
#359=VECTOR('',#1179,1000.);
#360=VECTOR('',#1182,1000.);
#361=VECTOR('',#1185,1000.);
#362=VECTOR('',#1188,1000.);
#363=VECTOR('',#1191,1000.);
#364=VECTOR('',#1194,1000.);
#365=VECTOR('',#1197,1000.);
#366=VECTOR('',#1200,1000.);
#367=VECTOR('',#1203,1000.);
#368=VECTOR('',#1208,1000.);
#369=VECTOR('',#1211,1000.);
#370=VECTOR('',#1214,1000.);
#371=VECTOR('',#1217,1000.);
#372=VECTOR('',#1220,1000.);
#373=VECTOR('',#1223,1000.);
#374=VECTOR('',#1226,1000.);
#375=VECTOR('',#1229,1000.);
#376=VECTOR('',#1232,1000.);
#377=VECTOR('',#1235,1000.);
#378=VECTOR('',#1238,1000.);
#379=VECTOR('',#1241,1000.);
#380=CIRCLE('',#926,2.1);
#381=CIRCLE('',#927,2.1);
#382=CIRCLE('',#929,3.25);
#383=CIRCLE('',#930,3.25);
#384=CIRCLE('',#932,4.65);
#385=CIRCLE('',#933,4.65);
#386=CIRCLE('',#935,5.75);
#387=CIRCLE('',#936,5.75);
#388=CIRCLE('',#938,6.75);
#389=CIRCLE('',#939,6.75);
#390=CIRCLE('',#941,5.11072104264105);
#391=CIRCLE('',#943,2.8);
#392=CIRCLE('',#944,2.8);
#393=CIRCLE('',#952,2.1);
#394=CIRCLE('',#953,2.1);
#395=CIRCLE('',#955,2.8);
#396=CIRCLE('',#956,2.8);
#397=CIRCLE('',#960,2.8);
#398=CIRCLE('',#961,2.1);
#399=CIRCLE('',#963,2.1);
#400=CIRCLE('',#964,2.8);
#401=VERTEX_POINT('',#1246);
#402=VERTEX_POINT('',#1248);
#403=VERTEX_POINT('',#1252);
#404=VERTEX_POINT('',#1254);
#405=VERTEX_POINT('',#1258);
#406=VERTEX_POINT('',#1260);
#407=VERTEX_POINT('',#1264);
#408=VERTEX_POINT('',#1266);
#409=VERTEX_POINT('',#1270);
#410=VERTEX_POINT('',#1272);
#411=VERTEX_POINT('',#1276);
#412=VERTEX_POINT('',#1280);
#413=VERTEX_POINT('',#1282);
#414=VERTEX_POINT('',#1292);
#415=VERTEX_POINT('',#1294);
#416=VERTEX_POINT('',#1298);
#417=VERTEX_POINT('',#1300);
#418=VERTEX_POINT('',#1306);
#419=VERTEX_POINT('',#1307);
#420=VERTEX_POINT('',#1309);
#421=VERTEX_POINT('',#1311);
#422=VERTEX_POINT('',#1313);
#423=VERTEX_POINT('',#1315);
#424=VERTEX_POINT('',#1317);
#425=VERTEX_POINT('',#1319);
#426=VERTEX_POINT('',#1323);
#427=VERTEX_POINT('',#1324);
#428=VERTEX_POINT('',#1326);
#429=VERTEX_POINT('',#1328);
#430=VERTEX_POINT('',#1330);
#431=VERTEX_POINT('',#1332);
#432=VERTEX_POINT('',#1334);
#433=VERTEX_POINT('',#1336);
#434=VERTEX_POINT('',#1343);
#435=VERTEX_POINT('',#1345);
#436=VERTEX_POINT('',#1347);
#437=VERTEX_POINT('',#1349);
#438=VERTEX_POINT('',#1351);
#439=VERTEX_POINT('',#1353);
#440=VERTEX_POINT('',#1355);
#441=VERTEX_POINT('',#1357);
#442=VERTEX_POINT('',#1359);
#443=VERTEX_POINT('',#1361);
#444=VERTEX_POINT('',#1363);
#445=VERTEX_POINT('',#1365);
#446=VERTEX_POINT('',#1369);
#447=VERTEX_POINT('',#1371);
#448=VERTEX_POINT('',#1373);
#449=VERTEX_POINT('',#1375);
#450=VERTEX_POINT('',#1377);
#451=VERTEX_POINT('',#1379);
#452=VERTEX_POINT('',#1381);
#453=VERTEX_POINT('',#1383);
#454=VERTEX_POINT('',#1385);
#455=VERTEX_POINT('',#1387);
#456=VERTEX_POINT('',#1389);
#457=VERTEX_POINT('',#1391);
#458=VERTEX_POINT('',#1398);
#459=VERTEX_POINT('',#1400);
#460=VERTEX_POINT('',#1402);
#461=VERTEX_POINT('',#1404);
#462=VERTEX_POINT('',#1406);
#463=VERTEX_POINT('',#1408);
#464=VERTEX_POINT('',#1410);
#465=VERTEX_POINT('',#1412);
#466=VERTEX_POINT('',#1414);
#467=VERTEX_POINT('',#1416);
#468=VERTEX_POINT('',#1418);
#469=VERTEX_POINT('',#1420);
#470=VERTEX_POINT('',#1424);
#471=VERTEX_POINT('',#1426);
#472=VERTEX_POINT('',#1428);
#473=VERTEX_POINT('',#1430);
#474=VERTEX_POINT('',#1432);
#475=VERTEX_POINT('',#1434);
#476=VERTEX_POINT('',#1436);
#477=VERTEX_POINT('',#1438);
#478=VERTEX_POINT('',#1440);
#479=VERTEX_POINT('',#1442);
#480=VERTEX_POINT('',#1444);
#481=VERTEX_POINT('',#1446);
#482=EDGE_CURVE('',#401,#401,#380,.T.);
#483=EDGE_CURVE('',#401,#402,#178,.T.);
#484=EDGE_CURVE('',#402,#402,#381,.T.);
#485=EDGE_CURVE('',#403,#403,#382,.T.);
#486=EDGE_CURVE('',#403,#404,#179,.T.);
#487=EDGE_CURVE('',#404,#404,#383,.T.);
#488=EDGE_CURVE('',#405,#405,#384,.T.);
#489=EDGE_CURVE('',#405,#406,#180,.T.);
#490=EDGE_CURVE('',#406,#406,#385,.T.);
#491=EDGE_CURVE('',#407,#407,#386,.T.);
#492=EDGE_CURVE('',#407,#408,#181,.T.);
#493=EDGE_CURVE('',#408,#408,#387,.T.);
#494=EDGE_CURVE('',#409,#409,#388,.T.);
#495=EDGE_CURVE('',#409,#410,#182,.T.);
#496=EDGE_CURVE('',#410,#410,#389,.T.);
#497=EDGE_CURVE('',#410,#411,#183,.T.);
#498=EDGE_CURVE('',#411,#411,#390,.T.);
#499=EDGE_CURVE('',#412,#412,#391,.T.);
#500=EDGE_CURVE('',#412,#413,#184,.T.);
#501=EDGE_CURVE('',#413,#413,#392,.T.);
#502=EDGE_CURVE('',#414,#414,#393,.T.);
#503=EDGE_CURVE('',#414,#415,#185,.T.);
#504=EDGE_CURVE('',#415,#415,#394,.T.);
#505=EDGE_CURVE('',#416,#416,#395,.T.);
#506=EDGE_CURVE('',#416,#417,#186,.T.);
#507=EDGE_CURVE('',#417,#417,#396,.T.);
#508=EDGE_CURVE('',#418,#419,#187,.T.);
#509=EDGE_CURVE('',#420,#418,#188,.T.);
#510=EDGE_CURVE('',#420,#421,#397,.T.);
#511=EDGE_CURVE('',#421,#422,#189,.T.);
#512=EDGE_CURVE('',#423,#422,#190,.T.);
#513=EDGE_CURVE('',#424,#423,#191,.T.);
#514=EDGE_CURVE('',#425,#424,#398,.T.);
#515=EDGE_CURVE('',#425,#419,#192,.T.);
#516=EDGE_CURVE('',#426,#427,#193,.T.);
#517=EDGE_CURVE('',#427,#428,#194,.T.);
#518=EDGE_CURVE('',#429,#428,#195,.T.);
#519=EDGE_CURVE('',#429,#430,#399,.T.);
#520=EDGE_CURVE('',#430,#431,#196,.T.);
#521=EDGE_CURVE('',#431,#432,#197,.T.);
#522=EDGE_CURVE('',#433,#432,#198,.T.);
#523=EDGE_CURVE('',#426,#433,#400,.T.);
#524=EDGE_CURVE('',#425,#429,#199,.T.);
#525=EDGE_CURVE('',#424,#430,#200,.T.);
#526=EDGE_CURVE('',#431,#434,#201,.T.);
#527=EDGE_CURVE('',#435,#423,#202,.T.);
#528=EDGE_CURVE('',#436,#435,#203,.T.);
#529=EDGE_CURVE('',#437,#436,#204,.T.);
#530=EDGE_CURVE('',#438,#437,#205,.T.);
#531=EDGE_CURVE('',#439,#438,#206,.T.);
#532=EDGE_CURVE('',#440,#439,#207,.T.);
#533=EDGE_CURVE('',#441,#440,#208,.T.);
#534=EDGE_CURVE('',#442,#441,#209,.T.);
#535=EDGE_CURVE('',#443,#442,#210,.T.);
#536=EDGE_CURVE('',#444,#443,#211,.T.);
#537=EDGE_CURVE('',#445,#444,#212,.T.);
#538=EDGE_CURVE('',#434,#445,#213,.T.);
#539=EDGE_CURVE('',#432,#446,#214,.T.);
#540=EDGE_CURVE('',#446,#447,#215,.T.);
#541=EDGE_CURVE('',#447,#448,#216,.T.);
#542=EDGE_CURVE('',#448,#449,#217,.T.);
#543=EDGE_CURVE('',#449,#450,#218,.T.);
#544=EDGE_CURVE('',#450,#451,#219,.T.);
#545=EDGE_CURVE('',#451,#452,#220,.T.);
#546=EDGE_CURVE('',#452,#453,#221,.T.);
#547=EDGE_CURVE('',#453,#454,#222,.T.);
#548=EDGE_CURVE('',#454,#455,#223,.T.);
#549=EDGE_CURVE('',#455,#456,#224,.T.);
#550=EDGE_CURVE('',#456,#457,#225,.T.);
#551=EDGE_CURVE('',#457,#422,#226,.T.);
#552=EDGE_CURVE('',#421,#433,#227,.T.);
#553=EDGE_CURVE('',#420,#426,#228,.T.);
#554=EDGE_CURVE('',#427,#458,#229,.T.);
#555=EDGE_CURVE('',#459,#418,#230,.T.);
#556=EDGE_CURVE('',#460,#459,#231,.T.);
#557=EDGE_CURVE('',#461,#460,#232,.T.);
#558=EDGE_CURVE('',#462,#461,#233,.T.);
#559=EDGE_CURVE('',#463,#462,#234,.T.);
#560=EDGE_CURVE('',#464,#463,#235,.T.);
#561=EDGE_CURVE('',#465,#464,#236,.T.);
#562=EDGE_CURVE('',#466,#465,#237,.T.);
#563=EDGE_CURVE('',#467,#466,#238,.T.);
#564=EDGE_CURVE('',#468,#467,#239,.T.);
#565=EDGE_CURVE('',#469,#468,#240,.T.);
#566=EDGE_CURVE('',#458,#469,#241,.T.);
#567=EDGE_CURVE('',#428,#470,#242,.T.);
#568=EDGE_CURVE('',#470,#471,#243,.T.);
#569=EDGE_CURVE('',#471,#472,#244,.T.);
#570=EDGE_CURVE('',#472,#473,#245,.T.);
#571=EDGE_CURVE('',#473,#474,#246,.T.);
#572=EDGE_CURVE('',#474,#475,#247,.T.);
#573=EDGE_CURVE('',#475,#476,#248,.T.);
#574=EDGE_CURVE('',#476,#477,#249,.T.);
#575=EDGE_CURVE('',#477,#478,#250,.T.);
#576=EDGE_CURVE('',#478,#479,#251,.T.);
#577=EDGE_CURVE('',#479,#480,#252,.T.);
#578=EDGE_CURVE('',#480,#481,#253,.T.);
#579=EDGE_CURVE('',#481,#419,#254,.T.);
#580=EDGE_CURVE('',#459,#481,#255,.T.);
#581=EDGE_CURVE('',#460,#480,#256,.T.);
#582=EDGE_CURVE('',#461,#479,#257,.T.);
#583=EDGE_CURVE('',#462,#478,#258,.T.);
#584=EDGE_CURVE('',#463,#477,#259,.T.);
#585=EDGE_CURVE('',#464,#476,#260,.T.);
#586=EDGE_CURVE('',#465,#475,#261,.T.);
#587=EDGE_CURVE('',#466,#474,#262,.T.);
#588=EDGE_CURVE('',#467,#473,#263,.T.);
#589=EDGE_CURVE('',#468,#472,#264,.T.);
#590=EDGE_CURVE('',#469,#471,#265,.T.);
#591=EDGE_CURVE('',#458,#470,#266,.T.);
#592=EDGE_CURVE('',#434,#446,#267,.T.);
#593=EDGE_CURVE('',#445,#447,#268,.T.);
#594=EDGE_CURVE('',#444,#448,#269,.T.);
#595=EDGE_CURVE('',#443,#449,#270,.T.);
#596=EDGE_CURVE('',#442,#450,#271,.T.);
#597=EDGE_CURVE('',#441,#451,#272,.T.);
#598=EDGE_CURVE('',#440,#452,#273,.T.);
#599=EDGE_CURVE('',#439,#453,#274,.T.);
#600=EDGE_CURVE('',#438,#454,#275,.T.);
#601=EDGE_CURVE('',#437,#455,#276,.T.);
#602=EDGE_CURVE('',#436,#456,#277,.T.);
#603=EDGE_CURVE('',#435,#457,#278,.T.);
#604=ORIENTED_EDGE('',*,*,#482,.F.);
#605=ORIENTED_EDGE('',*,*,#483,.T.);
#606=ORIENTED_EDGE('',*,*,#484,.T.);
#607=ORIENTED_EDGE('',*,*,#483,.F.);
#608=ORIENTED_EDGE('',*,*,#485,.F.);
#609=ORIENTED_EDGE('',*,*,#486,.T.);
#610=ORIENTED_EDGE('',*,*,#487,.T.);
#611=ORIENTED_EDGE('',*,*,#486,.F.);
#612=ORIENTED_EDGE('',*,*,#488,.F.);
#613=ORIENTED_EDGE('',*,*,#489,.T.);
#614=ORIENTED_EDGE('',*,*,#490,.T.);
#615=ORIENTED_EDGE('',*,*,#489,.F.);
#616=ORIENTED_EDGE('',*,*,#491,.F.);
#617=ORIENTED_EDGE('',*,*,#492,.T.);
#618=ORIENTED_EDGE('',*,*,#493,.T.);
#619=ORIENTED_EDGE('',*,*,#492,.F.);
#620=ORIENTED_EDGE('',*,*,#494,.F.);
#621=ORIENTED_EDGE('',*,*,#495,.T.);
#622=ORIENTED_EDGE('',*,*,#496,.T.);
#623=ORIENTED_EDGE('',*,*,#495,.F.);
#624=ORIENTED_EDGE('',*,*,#496,.F.);
#625=ORIENTED_EDGE('',*,*,#497,.T.);
#626=ORIENTED_EDGE('',*,*,#498,.T.);
#627=ORIENTED_EDGE('',*,*,#497,.F.);
#628=ORIENTED_EDGE('',*,*,#499,.F.);
#629=ORIENTED_EDGE('',*,*,#500,.T.);
#630=ORIENTED_EDGE('',*,*,#501,.T.);
#631=ORIENTED_EDGE('',*,*,#500,.F.);
#632=ORIENTED_EDGE('',*,*,#498,.F.);
#633=ORIENTED_EDGE('',*,*,#499,.T.);
#634=ORIENTED_EDGE('',*,*,#494,.T.);
#635=ORIENTED_EDGE('',*,*,#493,.F.);
#636=ORIENTED_EDGE('',*,*,#491,.T.);
#637=ORIENTED_EDGE('',*,*,#490,.F.);
#638=ORIENTED_EDGE('',*,*,#488,.T.);
#639=ORIENTED_EDGE('',*,*,#487,.F.);
#640=ORIENTED_EDGE('',*,*,#485,.T.);
#641=ORIENTED_EDGE('',*,*,#484,.F.);
#642=ORIENTED_EDGE('',*,*,#501,.F.);
#643=ORIENTED_EDGE('',*,*,#482,.T.);
#644=ORIENTED_EDGE('',*,*,#502,.F.);
#645=ORIENTED_EDGE('',*,*,#503,.T.);
#646=ORIENTED_EDGE('',*,*,#504,.T.);
#647=ORIENTED_EDGE('',*,*,#503,.F.);
#648=ORIENTED_EDGE('',*,*,#505,.F.);
#649=ORIENTED_EDGE('',*,*,#506,.T.);
#650=ORIENTED_EDGE('',*,*,#507,.T.);
#651=ORIENTED_EDGE('',*,*,#506,.F.);
#652=ORIENTED_EDGE('',*,*,#505,.T.);
#653=ORIENTED_EDGE('',*,*,#504,.F.);
#654=ORIENTED_EDGE('',*,*,#507,.F.);
#655=ORIENTED_EDGE('',*,*,#502,.T.);
#656=ORIENTED_EDGE('',*,*,#508,.F.);
#657=ORIENTED_EDGE('',*,*,#509,.F.);
#658=ORIENTED_EDGE('',*,*,#510,.T.);
#659=ORIENTED_EDGE('',*,*,#511,.T.);
#660=ORIENTED_EDGE('',*,*,#512,.F.);
#661=ORIENTED_EDGE('',*,*,#513,.F.);
#662=ORIENTED_EDGE('',*,*,#514,.F.);
#663=ORIENTED_EDGE('',*,*,#515,.T.);
#664=ORIENTED_EDGE('',*,*,#516,.T.);
#665=ORIENTED_EDGE('',*,*,#517,.T.);
#666=ORIENTED_EDGE('',*,*,#518,.F.);
#667=ORIENTED_EDGE('',*,*,#519,.T.);
#668=ORIENTED_EDGE('',*,*,#520,.T.);
#669=ORIENTED_EDGE('',*,*,#521,.T.);
#670=ORIENTED_EDGE('',*,*,#522,.F.);
#671=ORIENTED_EDGE('',*,*,#523,.F.);
#672=ORIENTED_EDGE('',*,*,#524,.F.);
#673=ORIENTED_EDGE('',*,*,#514,.T.);
#674=ORIENTED_EDGE('',*,*,#525,.T.);
#675=ORIENTED_EDGE('',*,*,#519,.F.);
#676=ORIENTED_EDGE('',*,*,#526,.F.);
#677=ORIENTED_EDGE('',*,*,#520,.F.);
#678=ORIENTED_EDGE('',*,*,#525,.F.);
#679=ORIENTED_EDGE('',*,*,#513,.T.);
#680=ORIENTED_EDGE('',*,*,#527,.F.);
#681=ORIENTED_EDGE('',*,*,#528,.F.);
#682=ORIENTED_EDGE('',*,*,#529,.F.);
#683=ORIENTED_EDGE('',*,*,#530,.F.);
#684=ORIENTED_EDGE('',*,*,#531,.F.);
#685=ORIENTED_EDGE('',*,*,#532,.F.);
#686=ORIENTED_EDGE('',*,*,#533,.F.);
#687=ORIENTED_EDGE('',*,*,#534,.F.);
#688=ORIENTED_EDGE('',*,*,#535,.F.);
#689=ORIENTED_EDGE('',*,*,#536,.F.);
#690=ORIENTED_EDGE('',*,*,#537,.F.);
#691=ORIENTED_EDGE('',*,*,#538,.F.);
#692=ORIENTED_EDGE('',*,*,#522,.T.);
#693=ORIENTED_EDGE('',*,*,#539,.T.);
#694=ORIENTED_EDGE('',*,*,#540,.T.);
#695=ORIENTED_EDGE('',*,*,#541,.T.);
#696=ORIENTED_EDGE('',*,*,#542,.T.);
#697=ORIENTED_EDGE('',*,*,#543,.T.);
#698=ORIENTED_EDGE('',*,*,#544,.T.);
#699=ORIENTED_EDGE('',*,*,#545,.T.);
#700=ORIENTED_EDGE('',*,*,#546,.T.);
#701=ORIENTED_EDGE('',*,*,#547,.T.);
#702=ORIENTED_EDGE('',*,*,#548,.T.);
#703=ORIENTED_EDGE('',*,*,#549,.T.);
#704=ORIENTED_EDGE('',*,*,#550,.T.);
#705=ORIENTED_EDGE('',*,*,#551,.T.);
#706=ORIENTED_EDGE('',*,*,#511,.F.);
#707=ORIENTED_EDGE('',*,*,#552,.T.);
#708=ORIENTED_EDGE('',*,*,#510,.F.);
#709=ORIENTED_EDGE('',*,*,#553,.T.);
#710=ORIENTED_EDGE('',*,*,#523,.T.);
#711=ORIENTED_EDGE('',*,*,#552,.F.);
#712=ORIENTED_EDGE('',*,*,#554,.F.);
#713=ORIENTED_EDGE('',*,*,#516,.F.);
#714=ORIENTED_EDGE('',*,*,#553,.F.);
#715=ORIENTED_EDGE('',*,*,#509,.T.);
#716=ORIENTED_EDGE('',*,*,#555,.F.);
#717=ORIENTED_EDGE('',*,*,#556,.F.);
#718=ORIENTED_EDGE('',*,*,#557,.F.);
#719=ORIENTED_EDGE('',*,*,#558,.F.);
#720=ORIENTED_EDGE('',*,*,#559,.F.);
#721=ORIENTED_EDGE('',*,*,#560,.F.);
#722=ORIENTED_EDGE('',*,*,#561,.F.);
#723=ORIENTED_EDGE('',*,*,#562,.F.);
#724=ORIENTED_EDGE('',*,*,#563,.F.);
#725=ORIENTED_EDGE('',*,*,#564,.F.);
#726=ORIENTED_EDGE('',*,*,#565,.F.);
#727=ORIENTED_EDGE('',*,*,#566,.F.);
#728=ORIENTED_EDGE('',*,*,#518,.T.);
#729=ORIENTED_EDGE('',*,*,#567,.T.);
#730=ORIENTED_EDGE('',*,*,#568,.T.);
#731=ORIENTED_EDGE('',*,*,#569,.T.);
#732=ORIENTED_EDGE('',*,*,#570,.T.);
#733=ORIENTED_EDGE('',*,*,#571,.T.);
#734=ORIENTED_EDGE('',*,*,#572,.T.);
#735=ORIENTED_EDGE('',*,*,#573,.T.);
#736=ORIENTED_EDGE('',*,*,#574,.T.);
#737=ORIENTED_EDGE('',*,*,#575,.T.);
#738=ORIENTED_EDGE('',*,*,#576,.T.);
#739=ORIENTED_EDGE('',*,*,#577,.T.);
#740=ORIENTED_EDGE('',*,*,#578,.T.);
#741=ORIENTED_EDGE('',*,*,#579,.T.);
#742=ORIENTED_EDGE('',*,*,#515,.F.);
#743=ORIENTED_EDGE('',*,*,#524,.T.);
#744=ORIENTED_EDGE('',*,*,#555,.T.);
#745=ORIENTED_EDGE('',*,*,#508,.T.);
#746=ORIENTED_EDGE('',*,*,#579,.F.);
#747=ORIENTED_EDGE('',*,*,#580,.F.);
#748=ORIENTED_EDGE('',*,*,#556,.T.);
#749=ORIENTED_EDGE('',*,*,#580,.T.);
#750=ORIENTED_EDGE('',*,*,#578,.F.);
#751=ORIENTED_EDGE('',*,*,#581,.F.);
#752=ORIENTED_EDGE('',*,*,#557,.T.);
#753=ORIENTED_EDGE('',*,*,#581,.T.);
#754=ORIENTED_EDGE('',*,*,#577,.F.);
#755=ORIENTED_EDGE('',*,*,#582,.F.);
#756=ORIENTED_EDGE('',*,*,#558,.T.);
#757=ORIENTED_EDGE('',*,*,#582,.T.);
#758=ORIENTED_EDGE('',*,*,#576,.F.);
#759=ORIENTED_EDGE('',*,*,#583,.F.);
#760=ORIENTED_EDGE('',*,*,#559,.T.);
#761=ORIENTED_EDGE('',*,*,#583,.T.);
#762=ORIENTED_EDGE('',*,*,#575,.F.);
#763=ORIENTED_EDGE('',*,*,#584,.F.);
#764=ORIENTED_EDGE('',*,*,#560,.T.);
#765=ORIENTED_EDGE('',*,*,#584,.T.);
#766=ORIENTED_EDGE('',*,*,#574,.F.);
#767=ORIENTED_EDGE('',*,*,#585,.F.);
#768=ORIENTED_EDGE('',*,*,#561,.T.);
#769=ORIENTED_EDGE('',*,*,#585,.T.);
#770=ORIENTED_EDGE('',*,*,#573,.F.);
#771=ORIENTED_EDGE('',*,*,#586,.F.);
#772=ORIENTED_EDGE('',*,*,#562,.T.);
#773=ORIENTED_EDGE('',*,*,#586,.T.);
#774=ORIENTED_EDGE('',*,*,#572,.F.);
#775=ORIENTED_EDGE('',*,*,#587,.F.);
#776=ORIENTED_EDGE('',*,*,#563,.T.);
#777=ORIENTED_EDGE('',*,*,#587,.T.);
#778=ORIENTED_EDGE('',*,*,#571,.F.);
#779=ORIENTED_EDGE('',*,*,#588,.F.);
#780=ORIENTED_EDGE('',*,*,#564,.T.);
#781=ORIENTED_EDGE('',*,*,#588,.T.);
#782=ORIENTED_EDGE('',*,*,#570,.F.);
#783=ORIENTED_EDGE('',*,*,#589,.F.);
#784=ORIENTED_EDGE('',*,*,#565,.T.);
#785=ORIENTED_EDGE('',*,*,#589,.T.);
#786=ORIENTED_EDGE('',*,*,#569,.F.);
#787=ORIENTED_EDGE('',*,*,#590,.F.);
#788=ORIENTED_EDGE('',*,*,#566,.T.);
#789=ORIENTED_EDGE('',*,*,#590,.T.);
#790=ORIENTED_EDGE('',*,*,#568,.F.);
#791=ORIENTED_EDGE('',*,*,#591,.F.);
#792=ORIENTED_EDGE('',*,*,#554,.T.);
#793=ORIENTED_EDGE('',*,*,#591,.T.);
#794=ORIENTED_EDGE('',*,*,#567,.F.);
#795=ORIENTED_EDGE('',*,*,#517,.F.);
#796=ORIENTED_EDGE('',*,*,#526,.T.);
#797=ORIENTED_EDGE('',*,*,#592,.T.);
#798=ORIENTED_EDGE('',*,*,#539,.F.);
#799=ORIENTED_EDGE('',*,*,#521,.F.);
#800=ORIENTED_EDGE('',*,*,#538,.T.);
#801=ORIENTED_EDGE('',*,*,#593,.T.);
#802=ORIENTED_EDGE('',*,*,#540,.F.);
#803=ORIENTED_EDGE('',*,*,#592,.F.);
#804=ORIENTED_EDGE('',*,*,#537,.T.);
#805=ORIENTED_EDGE('',*,*,#594,.T.);
#806=ORIENTED_EDGE('',*,*,#541,.F.);
#807=ORIENTED_EDGE('',*,*,#593,.F.);
#808=ORIENTED_EDGE('',*,*,#536,.T.);
#809=ORIENTED_EDGE('',*,*,#595,.T.);
#810=ORIENTED_EDGE('',*,*,#542,.F.);
#811=ORIENTED_EDGE('',*,*,#594,.F.);
#812=ORIENTED_EDGE('',*,*,#535,.T.);
#813=ORIENTED_EDGE('',*,*,#596,.T.);
#814=ORIENTED_EDGE('',*,*,#543,.F.);
#815=ORIENTED_EDGE('',*,*,#595,.F.);
#816=ORIENTED_EDGE('',*,*,#534,.T.);
#817=ORIENTED_EDGE('',*,*,#597,.T.);
#818=ORIENTED_EDGE('',*,*,#544,.F.);
#819=ORIENTED_EDGE('',*,*,#596,.F.);
#820=ORIENTED_EDGE('',*,*,#533,.T.);
#821=ORIENTED_EDGE('',*,*,#598,.T.);
#822=ORIENTED_EDGE('',*,*,#545,.F.);
#823=ORIENTED_EDGE('',*,*,#597,.F.);
#824=ORIENTED_EDGE('',*,*,#532,.T.);
#825=ORIENTED_EDGE('',*,*,#599,.T.);
#826=ORIENTED_EDGE('',*,*,#546,.F.);
#827=ORIENTED_EDGE('',*,*,#598,.F.);
#828=ORIENTED_EDGE('',*,*,#531,.T.);
#829=ORIENTED_EDGE('',*,*,#600,.T.);
#830=ORIENTED_EDGE('',*,*,#547,.F.);
#831=ORIENTED_EDGE('',*,*,#599,.F.);
#832=ORIENTED_EDGE('',*,*,#530,.T.);
#833=ORIENTED_EDGE('',*,*,#601,.T.);
#834=ORIENTED_EDGE('',*,*,#548,.F.);
#835=ORIENTED_EDGE('',*,*,#600,.F.);
#836=ORIENTED_EDGE('',*,*,#529,.T.);
#837=ORIENTED_EDGE('',*,*,#602,.T.);
#838=ORIENTED_EDGE('',*,*,#549,.F.);
#839=ORIENTED_EDGE('',*,*,#601,.F.);
#840=ORIENTED_EDGE('',*,*,#528,.T.);
#841=ORIENTED_EDGE('',*,*,#603,.T.);
#842=ORIENTED_EDGE('',*,*,#550,.F.);
#843=ORIENTED_EDGE('',*,*,#602,.F.);
#844=ORIENTED_EDGE('',*,*,#527,.T.);
#845=ORIENTED_EDGE('',*,*,#512,.T.);
#846=ORIENTED_EDGE('',*,*,#551,.F.);
#847=ORIENTED_EDGE('',*,*,#603,.F.);
#848=CYLINDRICAL_SURFACE('',#925,2.1);
#849=CYLINDRICAL_SURFACE('',#928,3.25);
#850=CYLINDRICAL_SURFACE('',#931,4.65);
#851=CYLINDRICAL_SURFACE('',#934,5.75);
#852=CYLINDRICAL_SURFACE('',#937,6.75);
#853=CYLINDRICAL_SURFACE('',#942,2.8);
#854=CYLINDRICAL_SURFACE('',#951,2.1);
#855=CYLINDRICAL_SURFACE('',#954,2.8);
#856=CYLINDRICAL_SURFACE('',#965,2.1);
#857=CYLINDRICAL_SURFACE('',#968,2.8);
#858=ADVANCED_FACE('',(#68),#848,.F.);
#859=ADVANCED_FACE('',(#69),#849,.T.);
#860=ADVANCED_FACE('',(#70),#850,.F.);
#861=ADVANCED_FACE('',(#71),#851,.T.);
#862=ADVANCED_FACE('',(#72),#852,.T.);
#863=ADVANCED_FACE('',(#73),#67,.T.);
#864=ADVANCED_FACE('',(#74),#853,.F.);
#865=ADVANCED_FACE('',(#75,#19),#27,.F.);
#866=ADVANCED_FACE('',(#76,#20),#28,.F.);
#867=ADVANCED_FACE('',(#77,#21),#29,.F.);
#868=ADVANCED_FACE('',(#78,#22),#30,.F.);
#869=ADVANCED_FACE('',(#79,#23),#31,.F.);
#870=ADVANCED_FACE('',(#80,#24),#32,.F.);
#871=ADVANCED_FACE('',(#81),#854,.F.);
#872=ADVANCED_FACE('',(#82),#855,.T.);
#873=ADVANCED_FACE('',(#83,#25),#33,.F.);
#874=ADVANCED_FACE('',(#84,#26),#34,.F.);
#875=ADVANCED_FACE('',(#85),#35,.T.);
#876=ADVANCED_FACE('',(#86),#36,.F.);
#877=ADVANCED_FACE('',(#87),#856,.F.);
#878=ADVANCED_FACE('',(#88),#37,.T.);
#879=ADVANCED_FACE('',(#89),#38,.F.);
#880=ADVANCED_FACE('',(#90),#857,.T.);
#881=ADVANCED_FACE('',(#91),#39,.T.);
#882=ADVANCED_FACE('',(#92),#40,.F.);
#883=ADVANCED_FACE('',(#93),#41,.F.);
#884=ADVANCED_FACE('',(#94),#42,.F.);
#885=ADVANCED_FACE('',(#95),#43,.F.);
#886=ADVANCED_FACE('',(#96),#44,.F.);
#887=ADVANCED_FACE('',(#97),#45,.F.);
#888=ADVANCED_FACE('',(#98),#46,.F.);
#889=ADVANCED_FACE('',(#99),#47,.F.);
#890=ADVANCED_FACE('',(#100),#48,.F.);
#891=ADVANCED_FACE('',(#101),#49,.F.);
#892=ADVANCED_FACE('',(#102),#50,.F.);
#893=ADVANCED_FACE('',(#103),#51,.F.);
#894=ADVANCED_FACE('',(#104),#52,.F.);
#895=ADVANCED_FACE('',(#105),#53,.F.);
#896=ADVANCED_FACE('',(#106),#54,.F.);
#897=ADVANCED_FACE('',(#107),#55,.F.);
#898=ADVANCED_FACE('',(#108),#56,.F.);
#899=ADVANCED_FACE('',(#109),#57,.F.);
#900=ADVANCED_FACE('',(#110),#58,.F.);
#901=ADVANCED_FACE('',(#111),#59,.F.);
#902=ADVANCED_FACE('',(#112),#60,.F.);
#903=ADVANCED_FACE('',(#113),#61,.F.);
#904=ADVANCED_FACE('',(#114),#62,.F.);
#905=ADVANCED_FACE('',(#115),#63,.F.);
#906=ADVANCED_FACE('',(#116),#64,.F.);
#907=ADVANCED_FACE('',(#117),#65,.F.);
#908=ADVANCED_FACE('',(#118),#66,.F.);
#909=CLOSED_SHELL('',(#858,#859,#860,#861,#862,#863,#864,#865,#866,#867,
#868,#869,#870));
#910=CLOSED_SHELL('',(#871,#872,#873,#874));
#911=CLOSED_SHELL('',(#875,#876,#877,#878,#879,#880,#881,#882,#883,#884,
#885,#886,#887,#888,#889,#890,#891,#892,#893,#894,#895,#896,#897,#898,#899,
#900,#901,#902,#903,#904,#905,#906,#907,#908));
#912=DERIVED_UNIT_ELEMENT(#914,1.);
#913=DERIVED_UNIT_ELEMENT(#1504,-3.);
#914=(
MASS_UNIT()
NAMED_UNIT(*)
SI_UNIT(.KILO.,.GRAM.)
);
#915=DERIVED_UNIT((#912,#913));
#916=MEASURE_REPRESENTATION_ITEM('density measure',
POSITIVE_RATIO_MEASURE(7850.),#915);
#917=PROPERTY_DEFINITION_REPRESENTATION(#922,#919);
#918=PROPERTY_DEFINITION_REPRESENTATION(#923,#920);
#919=REPRESENTATION('material name',(#921),#1501);
#920=REPRESENTATION('density',(#916),#1501);
#921=DESCRIPTIVE_REPRESENTATION_ITEM('Stahl','Stahl');
#922=PROPERTY_DEFINITION('material property','material name',#1511);
#923=PROPERTY_DEFINITION('material property','density of part',#1511);
#924=AXIS2_PLACEMENT_3D('',#1244,#997,#998);
#925=AXIS2_PLACEMENT_3D('',#1245,#999,#1000);
#926=AXIS2_PLACEMENT_3D('',#1247,#1001,#1002);
#927=AXIS2_PLACEMENT_3D('',#1250,#1004,#1005);
#928=AXIS2_PLACEMENT_3D('',#1251,#1006,#1007);
#929=AXIS2_PLACEMENT_3D('',#1253,#1008,#1009);
#930=AXIS2_PLACEMENT_3D('',#1256,#1011,#1012);
#931=AXIS2_PLACEMENT_3D('',#1257,#1013,#1014);
#932=AXIS2_PLACEMENT_3D('',#1259,#1015,#1016);
#933=AXIS2_PLACEMENT_3D('',#1262,#1018,#1019);
#934=AXIS2_PLACEMENT_3D('',#1263,#1020,#1021);
#935=AXIS2_PLACEMENT_3D('',#1265,#1022,#1023);
#936=AXIS2_PLACEMENT_3D('',#1268,#1025,#1026);
#937=AXIS2_PLACEMENT_3D('',#1269,#1027,#1028);
#938=AXIS2_PLACEMENT_3D('',#1271,#1029,#1030);
#939=AXIS2_PLACEMENT_3D('',#1274,#1032,#1033);
#940=AXIS2_PLACEMENT_3D('',#1275,#1034,#1035);
#941=AXIS2_PLACEMENT_3D('',#1278,#1037,#1038);
#942=AXIS2_PLACEMENT_3D('',#1279,#1039,#1040);
#943=AXIS2_PLACEMENT_3D('',#1281,#1041,#1042);
#944=AXIS2_PLACEMENT_3D('',#1284,#1044,#1045);
#945=AXIS2_PLACEMENT_3D('',#1285,#1046,#1047);
#946=AXIS2_PLACEMENT_3D('',#1286,#1048,#1049);
#947=AXIS2_PLACEMENT_3D('',#1287,#1050,#1051);
#948=AXIS2_PLACEMENT_3D('',#1288,#1052,#1053);
#949=AXIS2_PLACEMENT_3D('',#1289,#1054,#1055);
#950=AXIS2_PLACEMENT_3D('',#1290,#1056,#1057);
#951=AXIS2_PLACEMENT_3D('',#1291,#1058,#1059);
#952=AXIS2_PLACEMENT_3D('',#1293,#1060,#1061);
#953=AXIS2_PLACEMENT_3D('',#1296,#1063,#1064);
#954=AXIS2_PLACEMENT_3D('',#1297,#1065,#1066);
#955=AXIS2_PLACEMENT_3D('',#1299,#1067,#1068);
#956=AXIS2_PLACEMENT_3D('',#1302,#1070,#1071);
#957=AXIS2_PLACEMENT_3D('',#1303,#1072,#1073);
#958=AXIS2_PLACEMENT_3D('',#1304,#1074,#1075);
#959=AXIS2_PLACEMENT_3D('',#1305,#1076,#1077);
#960=AXIS2_PLACEMENT_3D('',#1312,#1080,#1081);
#961=AXIS2_PLACEMENT_3D('',#1320,#1085,#1086);
#962=AXIS2_PLACEMENT_3D('',#1322,#1088,#1089);
#963=AXIS2_PLACEMENT_3D('',#1331,#1093,#1094);
#964=AXIS2_PLACEMENT_3D('',#1338,#1098,#1099);
#965=AXIS2_PLACEMENT_3D('',#1339,#1100,#1101);
#966=AXIS2_PLACEMENT_3D('',#1342,#1104,#1105);
#967=AXIS2_PLACEMENT_3D('',#1368,#1119,#1120);
#968=AXIS2_PLACEMENT_3D('',#1395,#1135,#1136);
#969=AXIS2_PLACEMENT_3D('',#1397,#1138,#1139);
#970=AXIS2_PLACEMENT_3D('',#1423,#1153,#1154);
#971=AXIS2_PLACEMENT_3D('',#1449,#1168,#1169);
#972=AXIS2_PLACEMENT_3D('',#1451,#1171,#1172);
#973=AXIS2_PLACEMENT_3D('',#1453,#1174,#1175);
#974=AXIS2_PLACEMENT_3D('',#1455,#1177,#1178);
#975=AXIS2_PLACEMENT_3D('',#1457,#1180,#1181);
#976=AXIS2_PLACEMENT_3D('',#1459,#1183,#1184);
#977=AXIS2_PLACEMENT_3D('',#1461,#1186,#1187);
#978=AXIS2_PLACEMENT_3D('',#1463,#1189,#1190);
#979=AXIS2_PLACEMENT_3D('',#1465,#1192,#1193);
#980=AXIS2_PLACEMENT_3D('',#1467,#1195,#1196);
#981=AXIS2_PLACEMENT_3D('',#1469,#1198,#1199);
#982=AXIS2_PLACEMENT_3D('',#1471,#1201,#1202);
#983=AXIS2_PLACEMENT_3D('',#1473,#1204,#1205);
#984=AXIS2_PLACEMENT_3D('',#1474,#1206,#1207);
#985=AXIS2_PLACEMENT_3D('',#1476,#1209,#1210);
#986=AXIS2_PLACEMENT_3D('',#1478,#1212,#1213);
#987=AXIS2_PLACEMENT_3D('',#1480,#1215,#1216);
#988=AXIS2_PLACEMENT_3D('',#1482,#1218,#1219);
#989=AXIS2_PLACEMENT_3D('',#1484,#1221,#1222);
#990=AXIS2_PLACEMENT_3D('',#1486,#1224,#1225);
#991=AXIS2_PLACEMENT_3D('',#1488,#1227,#1228);
#992=AXIS2_PLACEMENT_3D('',#1490,#1230,#1231);
#993=AXIS2_PLACEMENT_3D('',#1492,#1233,#1234);
#994=AXIS2_PLACEMENT_3D('',#1494,#1236,#1237);
#995=AXIS2_PLACEMENT_3D('',#1496,#1239,#1240);
#996=AXIS2_PLACEMENT_3D('',#1498,#1242,#1243);
#997=DIRECTION('axis',(0.,0.,1.));
#998=DIRECTION('refdir',(1.,0.,0.));
#999=DIRECTION('center_axis',(-1.,0.,0.));
#1000=DIRECTION('ref_axis',(0.,0.,1.));
#1001=DIRECTION('center_axis',(-1.,0.,0.));
#1002=DIRECTION('ref_axis',(0.,0.,1.));
#1003=DIRECTION('',(-1.,0.,0.));
#1004=DIRECTION('center_axis',(-1.,0.,0.));
#1005=DIRECTION('ref_axis',(0.,0.,1.));
#1006=DIRECTION('center_axis',(-1.,0.,0.));
#1007=DIRECTION('ref_axis',(0.,0.,1.));
#1008=DIRECTION('center_axis',(-1.,0.,0.));
#1009=DIRECTION('ref_axis',(0.,0.,1.));
#1010=DIRECTION('',(1.,0.,0.));
#1011=DIRECTION('center_axis',(-1.,0.,0.));
#1012=DIRECTION('ref_axis',(0.,0.,1.));
#1013=DIRECTION('center_axis',(-1.,0.,0.));
#1014=DIRECTION('ref_axis',(0.,0.,1.));
#1015=DIRECTION('center_axis',(-1.,0.,0.));
#1016=DIRECTION('ref_axis',(0.,0.,1.));
#1017=DIRECTION('',(-1.,0.,0.));
#1018=DIRECTION('center_axis',(-1.,0.,0.));
#1019=DIRECTION('ref_axis',(0.,0.,1.));
#1020=DIRECTION('center_axis',(-1.,0.,0.));
#1021=DIRECTION('ref_axis',(0.,0.,1.));
#1022=DIRECTION('center_axis',(-1.,0.,0.));
#1023=DIRECTION('ref_axis',(0.,0.,1.));
#1024=DIRECTION('',(1.,0.,0.));
#1025=DIRECTION('center_axis',(-1.,0.,0.));
#1026=DIRECTION('ref_axis',(0.,0.,1.));
#1027=DIRECTION('center_axis',(-1.,0.,0.));
#1028=DIRECTION('ref_axis',(0.,0.,1.));
#1029=DIRECTION('center_axis',(-1.,0.,0.));
#1030=DIRECTION('ref_axis',(0.,0.,1.));
#1031=DIRECTION('',(1.,0.,0.));
#1032=DIRECTION('center_axis',(-1.,0.,0.));
#1033=DIRECTION('ref_axis',(0.,0.,1.));
#1034=DIRECTION('center_axis',(-1.,0.,0.));
#1035=DIRECTION('ref_axis',(0.,0.,1.));
#1036=DIRECTION('',(0.987688340595138,1.91576966887848E-17,0.156434465040231));
#1037=DIRECTION('center_axis',(-1.,0.,0.));
#1038=DIRECTION('ref_axis',(0.,0.,1.));
#1039=DIRECTION('center_axis',(-1.,0.,0.));
#1040=DIRECTION('ref_axis',(0.,0.,1.));
#1041=DIRECTION('center_axis',(-1.,0.,0.));
#1042=DIRECTION('ref_axis',(0.,0.,1.));
#1043=DIRECTION('',(-1.,0.,0.));
#1044=DIRECTION('center_axis',(-1.,0.,0.));
#1045=DIRECTION('ref_axis',(0.,0.,1.));
#1046=DIRECTION('center_axis',(-1.,0.,0.));
#1047=DIRECTION('ref_axis',(0.,0.,1.));
#1048=DIRECTION('center_axis',(1.,0.,0.));
#1049=DIRECTION('ref_axis',(0.,0.,-1.));
#1050=DIRECTION('center_axis',(1.,0.,0.));
#1051=DIRECTION('ref_axis',(0.,0.,-1.));
#1052=DIRECTION('center_axis',(1.,0.,0.));
#1053=DIRECTION('ref_axis',(0.,0.,-1.));
#1054=DIRECTION('center_axis',(1.,0.,0.));
#1055=DIRECTION('ref_axis',(0.,0.,-1.));
#1056=DIRECTION('center_axis',(-1.,0.,0.));
#1057=DIRECTION('ref_axis',(0.,0.,1.));
#1058=DIRECTION('center_axis',(-1.,0.,0.));
#1059=DIRECTION('ref_axis',(0.,0.,1.));
#1060=DIRECTION('center_axis',(-1.,0.,0.));
#1061=DIRECTION('ref_axis',(0.,0.,1.));
#1062=DIRECTION('',(-1.,0.,0.));
#1063=DIRECTION('center_axis',(-1.,0.,0.));
#1064=DIRECTION('ref_axis',(0.,0.,1.));
#1065=DIRECTION('center_axis',(-1.,0.,0.));
#1066=DIRECTION('ref_axis',(0.,0.,1.));
#1067=DIRECTION('center_axis',(-1.,0.,0.));
#1068=DIRECTION('ref_axis',(0.,0.,1.));
#1069=DIRECTION('',(1.,0.,0.));
#1070=DIRECTION('center_axis',(-1.,0.,0.));
#1071=DIRECTION('ref_axis',(0.,0.,1.));
#1072=DIRECTION('center_axis',(1.,0.,0.));
#1073=DIRECTION('ref_axis',(0.,0.,-1.));
#1074=DIRECTION('center_axis',(-1.,0.,0.));
#1075=DIRECTION('ref_axis',(0.,0.,1.));
#1076=DIRECTION('center_axis',(1.,0.,0.));
#1077=DIRECTION('ref_axis',(0.,0.,-1.));
#1078=DIRECTION('',(0.,0.,1.));
#1079=DIRECTION('',(0.,-1.,1.30104260698261E-16));
#1080=DIRECTION('center_axis',(1.,0.,0.));
#1081=DIRECTION('ref_axis',(0.,0.,-1.));
#1082=DIRECTION('',(0.,-1.,-1.30104260698261E-16));
#1083=DIRECTION('',(0.,0.,1.));
#1084=DIRECTION('',(0.,-1.,-1.30104260698261E-16));
#1085=DIRECTION('center_axis',(1.,0.,0.));
#1086=DIRECTION('ref_axis',(0.,0.,-1.));
#1087=DIRECTION('',(0.,-1.,1.30104260698261E-16));
#1088=DIRECTION('center_axis',(1.,0.,0.));
#1089=DIRECTION('ref_axis',(0.,0.,-1.));
#1090=DIRECTION('',(0.,-1.,1.30104260698261E-16));
#1091=DIRECTION('',(0.,0.,1.));
#1092=DIRECTION('',(0.,-1.,1.30104260698261E-16));
#1093=DIRECTION('center_axis',(1.,0.,0.));
#1094=DIRECTION('ref_axis',(0.,0.,-1.));
#1095=DIRECTION('',(0.,-1.,-1.30104260698261E-16));
#1096=DIRECTION('',(0.,0.,1.));
#1097=DIRECTION('',(0.,-1.,-1.30104260698261E-16));
#1098=DIRECTION('center_axis',(1.,0.,0.));
#1099=DIRECTION('ref_axis',(0.,0.,-1.));
#1100=DIRECTION('center_axis',(-1.,0.,0.));
#1101=DIRECTION('ref_axis',(0.,0.,1.));
#1102=DIRECTION('',(-1.,0.,0.));
#1103=DIRECTION('',(-1.,0.,0.));
#1104=DIRECTION('center_axis',(0.,1.30104260698261E-16,-1.));
#1105=DIRECTION('ref_axis',(0.,1.,1.30104260698261E-16));
#1106=DIRECTION('',(0.537299608346822,-0.843391445812887,-1.09728820536723E-16));
#1107=DIRECTION('',(0.537299608346822,0.843391445812887,1.09728820536723E-16));
#1108=DIRECTION('',(1.,0.,0.));
#1109=DIRECTION('',(0.53729960834682,-0.843391445812888,-1.09728820536723E-16));
#1110=DIRECTION('',(0.,-1.,-1.30104260698261E-16));
#1111=DIRECTION('',(1.,0.,0.));
#1112=DIRECTION('',(0.,-1.,-1.30104260698261E-16));
#1113=DIRECTION('',(1.,0.,0.));
#1114=DIRECTION('',(0.,1.,1.30104260698261E-16));
#1115=DIRECTION('',(1.,0.,0.));
#1116=DIRECTION('',(0.,1.,1.30104260698261E-16));
#1117=DIRECTION('',(0.53729960834682,0.843391445812888,1.09728820536723E-16));
#1118=DIRECTION('',(1.,0.,0.));
#1119=DIRECTION('center_axis',(0.,1.30104260698261E-16,-1.));
#1120=DIRECTION('ref_axis',(0.,1.,1.30104260698261E-16));
#1121=DIRECTION('',(0.537299608346822,-0.843391445812887,-1.09728820536723E-16));
#1122=DIRECTION('',(1.,0.,0.));
#1123=DIRECTION('',(0.53729960834682,0.843391445812888,1.09728820536723E-16));
#1124=DIRECTION('',(0.,1.,1.30104260698261E-16));
#1125=DIRECTION('',(1.,0.,0.));
#1126=DIRECTION('',(0.,1.,1.30104260698261E-16));
#1127=DIRECTION('',(1.,0.,0.));
#1128=DIRECTION('',(0.,-1.,-1.30104260698261E-16));
#1129=DIRECTION('',(1.,0.,0.));
#1130=DIRECTION('',(0.,-1.,-1.30104260698261E-16));
#1131=DIRECTION('',(0.53729960834682,-0.843391445812888,-1.09728820536723E-16));
#1132=DIRECTION('',(1.,0.,0.));
#1133=DIRECTION('',(0.537299608346822,0.843391445812887,1.09728820536723E-16));
#1134=DIRECTION('',(-1.,0.,0.));
#1135=DIRECTION('center_axis',(-1.,0.,0.));
#1136=DIRECTION('ref_axis',(0.,0.,1.));
#1137=DIRECTION('',(-1.,0.,0.));
#1138=DIRECTION('center_axis',(0.,-1.30104260698261E-16,-1.));
#1139=DIRECTION('ref_axis',(0.,1.,-1.30104260698261E-16));
#1140=DIRECTION('',(0.537299608346822,-0.843391445812887,1.09728820536723E-16));
#1141=DIRECTION('',(0.537299608346822,0.843391445812887,-1.09728820536723E-16));
#1142=DIRECTION('',(1.,0.,0.));
#1143=DIRECTION('',(0.53729960834682,-0.843391445812888,1.09728820536723E-16));
#1144=DIRECTION('',(0.,-1.,1.30104260698261E-16));
#1145=DIRECTION('',(1.,0.,0.));
#1146=DIRECTION('',(0.,-1.,1.30104260698261E-16));
#1147=DIRECTION('',(1.,0.,0.));
#1148=DIRECTION('',(0.,1.,-1.30104260698261E-16));
#1149=DIRECTION('',(1.,0.,0.));
#1150=DIRECTION('',(0.,1.,-1.30104260698261E-16));
#1151=DIRECTION('',(0.53729960834682,0.843391445812888,-1.09728820536723E-16));
#1152=DIRECTION('',(1.,0.,0.));
#1153=DIRECTION('center_axis',(0.,-1.30104260698261E-16,-1.));
#1154=DIRECTION('ref_axis',(0.,1.,-1.30104260698261E-16));
#1155=DIRECTION('',(0.537299608346822,-0.843391445812887,1.09728820536723E-16));
#1156=DIRECTION('',(1.,0.,0.));
#1157=DIRECTION('',(0.53729960834682,0.843391445812888,-1.09728820536723E-16));
#1158=DIRECTION('',(0.,1.,-1.30104260698261E-16));
#1159=DIRECTION('',(1.,0.,0.));
#1160=DIRECTION('',(0.,1.,-1.30104260698261E-16));
#1161=DIRECTION('',(1.,0.,0.));
#1162=DIRECTION('',(0.,-1.,1.30104260698261E-16));
#1163=DIRECTION('',(1.,0.,0.));
#1164=DIRECTION('',(0.,-1.,1.30104260698261E-16));
#1165=DIRECTION('',(0.53729960834682,-0.843391445812888,1.09728820536723E-16));
#1166=DIRECTION('',(1.,0.,0.));
#1167=DIRECTION('',(0.537299608346822,0.843391445812887,-1.09728820536723E-16));
#1168=DIRECTION('center_axis',(-0.843391445812887,0.537299608346822,0.));
#1169=DIRECTION('ref_axis',(-0.537299608346822,-0.843391445812887,0.));
#1170=DIRECTION('',(0.,0.,1.));
#1171=DIRECTION('center_axis',(0.,1.,0.));
#1172=DIRECTION('ref_axis',(0.,0.,1.));
#1173=DIRECTION('',(0.,0.,1.));
#1174=DIRECTION('center_axis',(0.843391445812888,0.53729960834682,0.));
#1175=DIRECTION('ref_axis',(-0.53729960834682,0.843391445812888,0.));
#1176=DIRECTION('',(0.,0.,1.));
#1177=DIRECTION('center_axis',(1.,0.,0.));
#1178=DIRECTION('ref_axis',(0.,0.,-1.));
#1179=DIRECTION('',(0.,0.,1.));
#1180=DIRECTION('center_axis',(0.,1.,0.));
#1181=DIRECTION('ref_axis',(0.,0.,1.));
#1182=DIRECTION('',(0.,0.,1.));
#1183=DIRECTION('center_axis',(1.,0.,0.));
#1184=DIRECTION('ref_axis',(0.,0.,-1.));
#1185=DIRECTION('',(0.,0.,1.));
#1186=DIRECTION('center_axis',(0.,1.,0.));
#1187=DIRECTION('ref_axis',(0.,0.,1.));
#1188=DIRECTION('',(0.,0.,1.));
#1189=DIRECTION('center_axis',(-1.,0.,0.));
#1190=DIRECTION('ref_axis',(0.,0.,1.));
#1191=DIRECTION('',(0.,0.,1.));
#1192=DIRECTION('center_axis',(0.,1.,0.));
#1193=DIRECTION('ref_axis',(0.,0.,1.));
#1194=DIRECTION('',(0.,0.,1.));
#1195=DIRECTION('center_axis',(-1.,0.,0.));
#1196=DIRECTION('ref_axis',(0.,0.,1.));
#1197=DIRECTION('',(0.,0.,1.));
#1198=DIRECTION('center_axis',(-0.843391445812888,0.53729960834682,0.));
#1199=DIRECTION('ref_axis',(-0.53729960834682,-0.843391445812888,0.));
#1200=DIRECTION('',(0.,0.,1.));
#1201=DIRECTION('center_axis',(0.,1.,0.));
#1202=DIRECTION('ref_axis',(0.,0.,1.));
#1203=DIRECTION('',(0.,0.,1.));
#1204=DIRECTION('center_axis',(0.843391445812887,0.537299608346822,0.));
#1205=DIRECTION('ref_axis',(-0.537299608346822,0.843391445812887,0.));
#1206=DIRECTION('center_axis',(0.843391445812887,0.537299608346822,0.));
#1207=DIRECTION('ref_axis',(-0.537299608346822,0.843391445812887,0.));
#1208=DIRECTION('',(0.,0.,1.));
#1209=DIRECTION('center_axis',(0.,1.,0.));
#1210=DIRECTION('ref_axis',(0.,0.,1.));
#1211=DIRECTION('',(0.,0.,1.));
#1212=DIRECTION('center_axis',(-0.843391445812888,0.53729960834682,0.));
#1213=DIRECTION('ref_axis',(-0.53729960834682,-0.843391445812888,0.));
#1214=DIRECTION('',(0.,0.,1.));
#1215=DIRECTION('center_axis',(-1.,0.,0.));
#1216=DIRECTION('ref_axis',(0.,0.,1.));
#1217=DIRECTION('',(0.,0.,1.));
#1218=DIRECTION('center_axis',(0.,1.,0.));
#1219=DIRECTION('ref_axis',(0.,0.,1.));
#1220=DIRECTION('',(0.,0.,1.));
#1221=DIRECTION('center_axis',(-1.,0.,0.));
#1222=DIRECTION('ref_axis',(0.,0.,1.));
#1223=DIRECTION('',(0.,0.,1.));
#1224=DIRECTION('center_axis',(0.,1.,0.));
#1225=DIRECTION('ref_axis',(0.,0.,1.));
#1226=DIRECTION('',(0.,0.,1.));
#1227=DIRECTION('center_axis',(1.,0.,0.));
#1228=DIRECTION('ref_axis',(0.,0.,-1.));
#1229=DIRECTION('',(0.,0.,1.));
#1230=DIRECTION('center_axis',(0.,1.,0.));
#1231=DIRECTION('ref_axis',(0.,0.,1.));
#1232=DIRECTION('',(0.,0.,1.));
#1233=DIRECTION('center_axis',(1.,0.,0.));
#1234=DIRECTION('ref_axis',(0.,0.,-1.));
#1235=DIRECTION('',(0.,0.,1.));
#1236=DIRECTION('center_axis',(0.843391445812888,0.53729960834682,0.));
#1237=DIRECTION('ref_axis',(-0.53729960834682,0.843391445812888,0.));
#1238=DIRECTION('',(0.,0.,1.));
#1239=DIRECTION('center_axis',(0.,1.,0.));
#1240=DIRECTION('ref_axis',(0.,0.,1.));
#1241=DIRECTION('',(0.,0.,1.));
#1242=DIRECTION('center_axis',(-0.843391445812887,0.537299608346822,0.));
#1243=DIRECTION('ref_axis',(-0.537299608346822,-0.843391445812887,0.));
#1244=CARTESIAN_POINT('',(0.,0.,0.));
#1245=CARTESIAN_POINT('Origin',(-22.941510352581,0.,0.));
#1246=CARTESIAN_POINT('',(-9.05,-2.57175827820944E-16,-2.1));
#1247=CARTESIAN_POINT('Origin',(-9.05,0.,0.));
#1248=CARTESIAN_POINT('',(-13.85,-2.57175827820944E-16,-2.1));
#1249=CARTESIAN_POINT('',(-22.941510352581,-2.57175827820944E-16,-2.1));
#1250=CARTESIAN_POINT('Origin',(-13.85,0.,0.));
#1251=CARTESIAN_POINT('Origin',(-22.941510352581,0.,0.));
#1252=CARTESIAN_POINT('',(-13.85,-3.9801020972289E-16,-3.25));
#1253=CARTESIAN_POINT('Origin',(-13.85,0.,0.));
#1254=CARTESIAN_POINT('',(4.8,-3.9801020972289E-16,-3.25));
#1255=CARTESIAN_POINT('',(-22.941510352581,-3.9801020972289E-16,-3.25));
#1256=CARTESIAN_POINT('Origin',(4.8,0.,0.));
#1257=CARTESIAN_POINT('Origin',(-22.941510352581,0.,0.));
#1258=CARTESIAN_POINT('',(4.8,-5.69460761603519E-16,-4.65));
#1259=CARTESIAN_POINT('Origin',(4.8,0.,0.));
#1260=CARTESIAN_POINT('',(-13.85,-5.69460761603519E-16,-4.65));
#1261=CARTESIAN_POINT('',(-22.941510352581,-5.69460761603519E-16,-4.65));
#1262=CARTESIAN_POINT('Origin',(-13.85,0.,0.));
#1263=CARTESIAN_POINT('Origin',(-22.941510352581,0.,0.));
#1264=CARTESIAN_POINT('',(-13.85,-7.04171909509729E-16,-5.75));
#1265=CARTESIAN_POINT('Origin',(-13.85,0.,0.));
#1266=CARTESIAN_POINT('',(-10.85,-7.04171909509729E-16,-5.75));
#1267=CARTESIAN_POINT('',(-22.941510352581,-7.04171909509729E-16,-5.75));
#1268=CARTESIAN_POINT('Origin',(-10.85,0.,0.));
#1269=CARTESIAN_POINT('Origin',(-22.941510352581,0.,0.));
#1270=CARTESIAN_POINT('',(-10.85,-8.26636589424464E-16,-6.75));
#1271=CARTESIAN_POINT('Origin',(-10.85,0.,0.));
#1272=CARTESIAN_POINT('',(-2.85,-8.26636589424464E-16,-6.75));
#1273=CARTESIAN_POINT('',(-22.941510352581,-8.26636589424464E-16,-6.75));
#1274=CARTESIAN_POINT('Origin',(-2.85,0.,0.));
#1275=CARTESIAN_POINT('Origin',(7.5,0.,0.));
#1276=CARTESIAN_POINT('',(7.5,-6.25882816620538E-16,-5.11072104264105));
#1277=CARTESIAN_POINT('',(7.5,-6.25882816620538E-16,-5.11072104264105));
#1278=CARTESIAN_POINT('Origin',(7.5,0.,0.));
#1279=CARTESIAN_POINT('Origin',(-22.941510352581,0.,0.));
#1280=CARTESIAN_POINT('',(7.5,-3.42901103761259E-16,-2.8));
#1281=CARTESIAN_POINT('Origin',(7.5,0.,0.));
#1282=CARTESIAN_POINT('',(-9.05,-3.42901103761259E-16,-2.8));
#1283=CARTESIAN_POINT('',(-22.941510352581,-3.42901103761259E-16,-2.8));
#1284=CARTESIAN_POINT('Origin',(-9.05,0.,0.));
#1285=CARTESIAN_POINT('Origin',(7.5,2.8,0.));
#1286=CARTESIAN_POINT('Origin',(-10.85,6.75,0.));
#1287=CARTESIAN_POINT('Origin',(-13.85,5.75,0.));
#1288=CARTESIAN_POINT('Origin',(4.8,4.65,0.));
#1289=CARTESIAN_POINT('Origin',(-13.85,3.25,0.));
#1290=CARTESIAN_POINT('Origin',(-9.05,2.1,0.));
#1291=CARTESIAN_POINT('Origin',(-22.941510352581,0.,0.));
#1292=CARTESIAN_POINT('',(7.5,-2.57175827820944E-16,-2.1));
#1293=CARTESIAN_POINT('Origin',(7.5,0.,0.));
#1294=CARTESIAN_POINT('',(-9.05,-2.57175827820944E-16,-2.1));
#1295=CARTESIAN_POINT('',(-22.941510352581,-2.57175827820944E-16,-2.1));
#1296=CARTESIAN_POINT('Origin',(-9.05,0.,0.));
#1297=CARTESIAN_POINT('Origin',(-22.941510352581,0.,0.));
#1298=CARTESIAN_POINT('',(-9.05,-3.42901103761259E-16,-2.8));
#1299=CARTESIAN_POINT('Origin',(-9.05,0.,0.));
#1300=CARTESIAN_POINT('',(7.5,-3.42901103761259E-16,-2.8));
#1301=CARTESIAN_POINT('',(-22.941510352581,-3.42901103761259E-16,-2.8));
#1302=CARTESIAN_POINT('Origin',(7.5,0.,0.));
#1303=CARTESIAN_POINT('Origin',(-9.05,2.1,0.));
#1304=CARTESIAN_POINT('Origin',(7.5,2.1,0.));
#1305=CARTESIAN_POINT('Origin',(13.85,5.75,0.));
#1306=CARTESIAN_POINT('',(13.85,-14.8603144228825,-2.8));
#1307=CARTESIAN_POINT('',(13.85,-14.8603144228825,-2.1));
#1308=CARTESIAN_POINT('',(13.85,-14.8603144228825,-13.85));
#1309=CARTESIAN_POINT('',(13.85,0.,-2.8));
#1310=CARTESIAN_POINT('',(13.85,0.,-2.8));
#1311=CARTESIAN_POINT('',(13.85,0.,2.8));
#1312=CARTESIAN_POINT('Origin',(13.85,0.,0.));
#1313=CARTESIAN_POINT('',(13.85,-14.8603144228825,2.8));
#1314=CARTESIAN_POINT('',(13.85,0.,2.8));
#1315=CARTESIAN_POINT('',(13.85,-14.8603144228825,2.1));
#1316=CARTESIAN_POINT('',(13.85,-14.8603144228825,-13.85));
#1317=CARTESIAN_POINT('',(13.85,2.57175827820944E-16,2.1));
#1318=CARTESIAN_POINT('',(13.85,0.,2.1));
#1319=CARTESIAN_POINT('',(13.85,0.,-2.1));
#1320=CARTESIAN_POINT('Origin',(13.85,0.,0.));
#1321=CARTESIAN_POINT('',(13.85,0.,-2.1));
#1322=CARTESIAN_POINT('Origin',(7.5,0.,0.));
#1323=CARTESIAN_POINT('',(7.5,0.,-2.8));
#1324=CARTESIAN_POINT('',(7.5,-14.8603144228825,-2.8));
#1325=CARTESIAN_POINT('',(7.5,0.,-2.8));
#1326=CARTESIAN_POINT('',(7.5,-14.8603144228825,-2.1));
#1327=CARTESIAN_POINT('',(7.5,-14.8603144228825,-13.85));
#1328=CARTESIAN_POINT('',(7.5,0.,-2.1));
#1329=CARTESIAN_POINT('',(7.5,0.,-2.1));
#1330=CARTESIAN_POINT('',(7.5,2.57175827820944E-16,2.1));
#1331=CARTESIAN_POINT('Origin',(7.5,0.,0.));
#1332=CARTESIAN_POINT('',(7.5,-14.8603144228825,2.1));
#1333=CARTESIAN_POINT('',(7.5,0.,2.1));
#1334=CARTESIAN_POINT('',(7.5,-14.8603144228825,2.8));
#1335=CARTESIAN_POINT('',(7.5,-14.8603144228825,-13.85));
#1336=CARTESIAN_POINT('',(7.5,0.,2.8));
#1337=CARTESIAN_POINT('',(7.5,0.,2.8));
#1338=CARTESIAN_POINT('Origin',(7.5,0.,0.));
#1339=CARTESIAN_POINT('Origin',(65.0276489453267,0.,0.));
#1340=CARTESIAN_POINT('',(65.0276489453267,0.,-2.1));
#1341=CARTESIAN_POINT('',(65.0276489453267,2.57175827820944E-16,2.1));
#1342=CARTESIAN_POINT('Origin',(65.0276489453267,0.,2.1));
#1343=CARTESIAN_POINT('',(8.00308519657016,-15.65,2.1));
#1344=CARTESIAN_POINT('',(17.373697633376,-30.3589151908119,2.1));
#1345=CARTESIAN_POINT('',(13.3469148034298,-15.65,2.1));
#1346=CARTESIAN_POINT('',(35.3585292936741,18.901313794407,2.1));
#1347=CARTESIAN_POINT('',(13.0969148034298,-15.65,2.1));
#1348=CARTESIAN_POINT('',(65.0276489453267,-15.65,2.1));
#1349=CARTESIAN_POINT('',(12.6,-14.87,2.1));
#1350=CARTESIAN_POINT('',(20.9969851438329,-28.0506264715444,2.1));
#1351=CARTESIAN_POINT('',(12.6,-12.5,2.1));
#1352=CARTESIAN_POINT('',(12.6,0.,2.1));
#1353=CARTESIAN_POINT('',(11.575,-12.5,2.1));
#1354=CARTESIAN_POINT('',(65.0276489453267,-12.5,2.1));
#1355=CARTESIAN_POINT('',(11.575,-7.4,2.1));
#1356=CARTESIAN_POINT('',(11.575,0.,2.1));
#1357=CARTESIAN_POINT('',(9.775,-7.4,2.1));
#1358=CARTESIAN_POINT('',(65.0276489453267,-7.4,2.1));
#1359=CARTESIAN_POINT('',(9.775,-12.5,2.1));
#1360=CARTESIAN_POINT('',(9.77500000000001,0.,2.1));
#1361=CARTESIAN_POINT('',(8.75,-12.5,2.1));
#1362=CARTESIAN_POINT('',(65.0276489453267,-12.5,2.1));
#1363=CARTESIAN_POINT('',(8.75,-14.87,2.1));
#1364=CARTESIAN_POINT('',(8.75,0.,2.1));
#1365=CARTESIAN_POINT('',(8.25308519657016,-15.65,2.1));
#1366=CARTESIAN_POINT('',(31.7352417832169,21.2096025136743,2.1));
#1367=CARTESIAN_POINT('',(65.0276489453267,-15.65,2.1));
#1368=CARTESIAN_POINT('Origin',(65.0276489453267,0.,2.8));
#1369=CARTESIAN_POINT('',(8.00308519657016,-15.65,2.8));
#1370=CARTESIAN_POINT('',(17.373697633376,-30.3589151908119,2.8));
#1371=CARTESIAN_POINT('',(8.25308519657016,-15.65,2.8));
#1372=CARTESIAN_POINT('',(65.0276489453267,-15.65,2.8));
#1373=CARTESIAN_POINT('',(8.75,-14.87,2.8));
#1374=CARTESIAN_POINT('',(31.7352417832169,21.2096025136743,2.8));
#1375=CARTESIAN_POINT('',(8.75,-12.5,2.8));
#1376=CARTESIAN_POINT('',(8.75,0.,2.8));
#1377=CARTESIAN_POINT('',(9.775,-12.5,2.8));
#1378=CARTESIAN_POINT('',(65.0276489453267,-12.5,2.8));
#1379=CARTESIAN_POINT('',(9.775,-7.4,2.8));
#1380=CARTESIAN_POINT('',(9.77500000000001,0.,2.8));
#1381=CARTESIAN_POINT('',(11.575,-7.4,2.8));
#1382=CARTESIAN_POINT('',(65.0276489453267,-7.4,2.8));
#1383=CARTESIAN_POINT('',(11.575,-12.5,2.8));
#1384=CARTESIAN_POINT('',(11.575,0.,2.8));
#1385=CARTESIAN_POINT('',(12.6,-12.5,2.8));
#1386=CARTESIAN_POINT('',(65.0276489453267,-12.5,2.8));
#1387=CARTESIAN_POINT('',(12.6,-14.87,2.8));
#1388=CARTESIAN_POINT('',(12.6,0.,2.8));
#1389=CARTESIAN_POINT('',(13.0969148034298,-15.65,2.8));
#1390=CARTESIAN_POINT('',(20.9969851438329,-28.0506264715444,2.8));
#1391=CARTESIAN_POINT('',(13.3469148034298,-15.65,2.8));
#1392=CARTESIAN_POINT('',(65.0276489453267,-15.65,2.8));
#1393=CARTESIAN_POINT('',(35.3585292936741,18.901313794407,2.8));
#1394=CARTESIAN_POINT('',(65.0276489453267,0.,2.8));
#1395=CARTESIAN_POINT('Origin',(65.0276489453267,0.,0.));
#1396=CARTESIAN_POINT('',(65.0276489453267,0.,-2.8));
#1397=CARTESIAN_POINT('Origin',(65.0276489453267,0.,-2.8));
#1398=CARTESIAN_POINT('',(8.00308519657016,-15.65,-2.8));
#1399=CARTESIAN_POINT('',(17.373697633376,-30.3589151908119,-2.8));
#1400=CARTESIAN_POINT('',(13.3469148034298,-15.65,-2.8));
#1401=CARTESIAN_POINT('',(35.3585292936741,18.901313794407,-2.8));
#1402=CARTESIAN_POINT('',(13.0969148034298,-15.65,-2.8));
#1403=CARTESIAN_POINT('',(65.0276489453267,-15.65,-2.8));
#1404=CARTESIAN_POINT('',(12.6,-14.87,-2.8));
#1405=CARTESIAN_POINT('',(20.9969851438329,-28.0506264715444,-2.8));
#1406=CARTESIAN_POINT('',(12.6,-12.5,-2.8));
#1407=CARTESIAN_POINT('',(12.6,0.,-2.8));
#1408=CARTESIAN_POINT('',(11.575,-12.5,-2.8));
#1409=CARTESIAN_POINT('',(65.0276489453267,-12.5,-2.8));
#1410=CARTESIAN_POINT('',(11.575,-7.4,-2.8));
#1411=CARTESIAN_POINT('',(11.575,0.,-2.8));
#1412=CARTESIAN_POINT('',(9.775,-7.4,-2.8));
#1413=CARTESIAN_POINT('',(65.0276489453267,-7.4,-2.8));
#1414=CARTESIAN_POINT('',(9.775,-12.5,-2.8));
#1415=CARTESIAN_POINT('',(9.77500000000001,0.,-2.8));
#1416=CARTESIAN_POINT('',(8.75,-12.5,-2.8));
#1417=CARTESIAN_POINT('',(65.0276489453267,-12.5,-2.8));
#1418=CARTESIAN_POINT('',(8.75,-14.87,-2.8));
#1419=CARTESIAN_POINT('',(8.75,0.,-2.8));
#1420=CARTESIAN_POINT('',(8.25308519657016,-15.65,-2.8));
#1421=CARTESIAN_POINT('',(31.7352417832169,21.2096025136743,-2.8));
#1422=CARTESIAN_POINT('',(65.0276489453267,-15.65,-2.8));
#1423=CARTESIAN_POINT('Origin',(65.0276489453267,0.,-2.1));
#1424=CARTESIAN_POINT('',(8.00308519657016,-15.65,-2.1));
#1425=CARTESIAN_POINT('',(17.373697633376,-30.3589151908119,-2.1));
#1426=CARTESIAN_POINT('',(8.25308519657016,-15.65,-2.1));
#1427=CARTESIAN_POINT('',(65.0276489453267,-15.65,-2.1));
#1428=CARTESIAN_POINT('',(8.75,-14.87,-2.1));
#1429=CARTESIAN_POINT('',(31.7352417832169,21.2096025136743,-2.1));
#1430=CARTESIAN_POINT('',(8.75,-12.5,-2.1));
#1431=CARTESIAN_POINT('',(8.75,0.,-2.1));
#1432=CARTESIAN_POINT('',(9.775,-12.5,-2.1));
#1433=CARTESIAN_POINT('',(65.0276489453267,-12.5,-2.1));
#1434=CARTESIAN_POINT('',(9.775,-7.4,-2.1));
#1435=CARTESIAN_POINT('',(9.77500000000001,0.,-2.1));
#1436=CARTESIAN_POINT('',(11.575,-7.4,-2.1));
#1437=CARTESIAN_POINT('',(65.0276489453267,-7.4,-2.1));
#1438=CARTESIAN_POINT('',(11.575,-12.5,-2.1));
#1439=CARTESIAN_POINT('',(11.575,0.,-2.1));
#1440=CARTESIAN_POINT('',(12.6,-12.5,-2.1));
#1441=CARTESIAN_POINT('',(65.0276489453267,-12.5,-2.1));
#1442=CARTESIAN_POINT('',(12.6,-14.87,-2.1));
#1443=CARTESIAN_POINT('',(12.6,0.,-2.1));
#1444=CARTESIAN_POINT('',(13.0969148034298,-15.65,-2.1));
#1445=CARTESIAN_POINT('',(20.9969851438329,-28.0506264715444,-2.1));
#1446=CARTESIAN_POINT('',(13.3469148034298,-15.65,-2.1));
#1447=CARTESIAN_POINT('',(65.0276489453267,-15.65,-2.1));
#1448=CARTESIAN_POINT('',(35.3585292936741,18.901313794407,-2.1));
#1449=CARTESIAN_POINT('Origin',(13.85,-14.8603144228825,-13.85));
#1450=CARTESIAN_POINT('',(13.3469148034298,-15.65,-13.85));
#1451=CARTESIAN_POINT('Origin',(13.3469148034298,-15.65,-13.85));
#1452=CARTESIAN_POINT('',(13.0969148034298,-15.65,-13.85));
#1453=CARTESIAN_POINT('Origin',(13.0969148034298,-15.65,-13.85));
#1454=CARTESIAN_POINT('',(12.6,-14.87,-13.85));
#1455=CARTESIAN_POINT('Origin',(12.6,-14.87,-13.85));
#1456=CARTESIAN_POINT('',(12.6,-12.5,-13.85));
#1457=CARTESIAN_POINT('Origin',(11.575,-12.5,-13.85));
#1458=CARTESIAN_POINT('',(11.575,-12.5,-13.85));
#1459=CARTESIAN_POINT('Origin',(11.575,-12.5,-13.85));
#1460=CARTESIAN_POINT('',(11.575,-7.4,-13.85));
#1461=CARTESIAN_POINT('Origin',(9.775,-7.4,-13.85));
#1462=CARTESIAN_POINT('',(9.775,-7.4,-13.85));
#1463=CARTESIAN_POINT('Origin',(9.775,-12.5,-13.85));
#1464=CARTESIAN_POINT('',(9.775,-12.5,-13.85));
#1465=CARTESIAN_POINT('Origin',(8.75,-12.5,-13.85));
#1466=CARTESIAN_POINT('',(8.75,-12.5,-13.85));
#1467=CARTESIAN_POINT('Origin',(8.75,-14.87,-13.85));
#1468=CARTESIAN_POINT('',(8.75,-14.87,-13.85));
#1469=CARTESIAN_POINT('Origin',(8.25308519657016,-15.65,-13.85));
#1470=CARTESIAN_POINT('',(8.25308519657016,-15.65,-13.85));
#1471=CARTESIAN_POINT('Origin',(8.00308519657016,-15.65,-13.85));
#1472=CARTESIAN_POINT('',(8.00308519657016,-15.65,-13.85));
#1473=CARTESIAN_POINT('Origin',(7.5,-14.8603144228825,-13.85));
#1474=CARTESIAN_POINT('Origin',(7.5,-14.8603144228825,-13.85));
#1475=CARTESIAN_POINT('',(8.00308519657016,-15.65,-13.85));
#1476=CARTESIAN_POINT('Origin',(8.00308519657016,-15.65,-13.85));
#1477=CARTESIAN_POINT('',(8.25308519657016,-15.65,-13.85));
#1478=CARTESIAN_POINT('Origin',(8.25308519657016,-15.65,-13.85));
#1479=CARTESIAN_POINT('',(8.75,-14.87,-13.85));
#1480=CARTESIAN_POINT('Origin',(8.75,-14.87,-13.85));
#1481=CARTESIAN_POINT('',(8.75,-12.5,-13.85));
#1482=CARTESIAN_POINT('Origin',(8.75,-12.5,-13.85));
#1483=CARTESIAN_POINT('',(9.775,-12.5,-13.85));
#1484=CARTESIAN_POINT('Origin',(9.775,-12.5,-13.85));
#1485=CARTESIAN_POINT('',(9.775,-7.4,-13.85));
#1486=CARTESIAN_POINT('Origin',(9.775,-7.4,-13.85));
#1487=CARTESIAN_POINT('',(11.575,-7.4,-13.85));
#1488=CARTESIAN_POINT('Origin',(11.575,-12.5,-13.85));
#1489=CARTESIAN_POINT('',(11.575,-12.5,-13.85));
#1490=CARTESIAN_POINT('Origin',(11.575,-12.5,-13.85));
#1491=CARTESIAN_POINT('',(12.6,-12.5,-13.85));
#1492=CARTESIAN_POINT('Origin',(12.6,-14.87,-13.85));
#1493=CARTESIAN_POINT('',(12.6,-14.87,-13.85));
#1494=CARTESIAN_POINT('Origin',(13.0969148034298,-15.65,-13.85));
#1495=CARTESIAN_POINT('',(13.0969148034298,-15.65,-13.85));
#1496=CARTESIAN_POINT('Origin',(13.3469148034298,-15.65,-13.85));
#1497=CARTESIAN_POINT('',(13.3469148034298,-15.65,-13.85));
#1498=CARTESIAN_POINT('Origin',(13.85,-14.8603144228825,-13.85));
#1499=UNCERTAINTY_MEASURE_WITH_UNIT(LENGTH_MEASURE(0.01),#1503,
'DISTANCE_ACCURACY_VALUE',
'Maximum model space distance between geometric entities at asserted c
onnectivities');
#1500=UNCERTAINTY_MEASURE_WITH_UNIT(LENGTH_MEASURE(0.01),#1503,
'DISTANCE_ACCURACY_VALUE',
'Maximum model space distance between geometric entities at asserted c
onnectivities');
#1501=(
GEOMETRIC_REPRESENTATION_CONTEXT(3)
GLOBAL_UNCERTAINTY_ASSIGNED_CONTEXT((#1499))
GLOBAL_UNIT_ASSIGNED_CONTEXT((#1503,#1505,#1506))
REPRESENTATION_CONTEXT('','3D')
);
#1502=(
GEOMETRIC_REPRESENTATION_CONTEXT(3)
GLOBAL_UNCERTAINTY_ASSIGNED_CONTEXT((#1500))
GLOBAL_UNIT_ASSIGNED_CONTEXT((#1503,#1505,#1506))
REPRESENTATION_CONTEXT('','3D')
);
#1503=(
LENGTH_UNIT()
NAMED_UNIT(*)
SI_UNIT(.MILLI.,.METRE.)
);
#1504=(
LENGTH_UNIT()
NAMED_UNIT(*)
SI_UNIT($,.METRE.)
);
#1505=(
NAMED_UNIT(*)
PLANE_ANGLE_UNIT()
SI_UNIT($,.RADIAN.)
);
#1506=(
NAMED_UNIT(*)
SI_UNIT($,.STERADIAN.)
SOLID_ANGLE_UNIT()
);
#1507=SHAPE_DEFINITION_REPRESENTATION(#1508,#1509);
#1508=PRODUCT_DEFINITION_SHAPE('',$,#1511);
#1509=SHAPE_REPRESENTATION('',(#924),#1501);
#1510=PRODUCT_DEFINITION_CONTEXT('part definition',#1515,'design');
#1511=PRODUCT_DEFINITION('CT3151-0','(Nicht gespeichert)',#1512,#1510);
#1512=PRODUCT_DEFINITION_FORMATION('',$,#1517);
#1513=PRODUCT_RELATED_PRODUCT_CATEGORY('(Nicht gespeichert)',
'(Nicht gespeichert)',(#1517));
#1514=APPLICATION_PROTOCOL_DEFINITION('international standard',
'automotive_design',2009,#1515);
#1515=APPLICATION_CONTEXT(
'Core Data for Automotive Mechanical Design Process');
#1516=PRODUCT_CONTEXT('part definition',#1515,'mechanical');
#1517=PRODUCT('CT3151-0','(Nicht gespeichert)','STEP AP214',(#1516));
#1518=PRESENTATION_STYLE_ASSIGNMENT((#1521));
#1519=PRESENTATION_STYLE_ASSIGNMENT((#1522));
#1520=PRESENTATION_STYLE_ASSIGNMENT((#1523));
#1521=SURFACE_STYLE_USAGE(.BOTH.,#1524);
#1522=SURFACE_STYLE_USAGE(.BOTH.,#1525);
#1523=SURFACE_STYLE_USAGE(.BOTH.,#1526);
#1524=SURFACE_SIDE_STYLE('',(#1527));
#1525=SURFACE_SIDE_STYLE('',(#1528));
#1526=SURFACE_SIDE_STYLE('',(#1529));
#1527=SURFACE_STYLE_FILL_AREA(#1530);
#1528=SURFACE_STYLE_FILL_AREA(#1531);
#1529=SURFACE_STYLE_FILL_AREA(#1532);
#1530=FILL_AREA_STYLE('Stahl - satiniert',(#1533));
#1531=FILL_AREA_STYLE('ABS (Rot)',(#1534));
#1532=FILL_AREA_STYLE('Opaque(202,209,238)',(#1535));
#1533=FILL_AREA_STYLE_COLOUR('Stahl - satiniert',#1536);
#1534=FILL_AREA_STYLE_COLOUR('ABS (Rot)',#1537);
#1535=FILL_AREA_STYLE_COLOUR('Opaque(202,209,238)',#1538);
#1536=COLOUR_RGB('Stahl - satiniert',0.627450980392157,0.627450980392157,
0.627450980392157);
#1537=COLOUR_RGB('ABS (Rot)',0.615686274509804,0.109803921568627,0.125490196078431);
#1538=COLOUR_RGB('Opaque(202,209,238)',0.792156862745098,0.819607843137255,
0.933333333333333);
ENDSEC;
END-ISO-10303-21;
