ISO-10303-21;
HEADER;
/* Generated by software containing ST-Developer
 * from STEP Tools, Inc. (www.steptools.com) 
 */

FILE_DESCRIPTION(
/* description */ (''),
/* implementation_level */ '2;1');

FILE_NAME(
/* name */ 'Daughter Board Casing Bottom Shell.step.step',
/* time_stamp */ '2026-08-27T23:54:24+02:00',
/* author */ (''),
/* organization */ (''),
/* preprocessor_version */ 'ST-DEVELOPER v20.1',
/* originating_system */ 'Autodesk Translation Framework v15.8.0.0',
/* authorisation */ '');

FILE_SCHEMA (('AUTOMOTIVE_DESIGN { 1 0 10303 214 3 1 1 }'));
ENDSEC;

DATA;
#10=MECHANICAL_DESIGN_GEOMETRIC_PRESENTATION_REPRESENTATION('',(#13),#1944);
#11=SHAPE_REPRESENTATION_RELATIONSHIP('SRR','None',#1950,#12);
#12=ADVANCED_BREP_SHAPE_REPRESENTATION('',(#14),#1943);
#13=STYLED_ITEM('',(#1960),#14);
#14=MANIFOLD_SOLID_BREP('Body23',#1135);
#15=CONICAL_SURFACE('',#1195,2.6,0.785398163397449);
#16=CONICAL_SURFACE('',#1198,2.6,0.785398163397452);
#17=CONICAL_SURFACE('',#1201,2.6,0.785398163397443);
#18=CONICAL_SURFACE('',#1204,2.6,0.785398163397443);
#19=TOROIDAL_SURFACE('',#1171,6.9026531809733,0.5);
#20=TOROIDAL_SURFACE('',#1175,6.90265318097329,0.5);
#21=TOROIDAL_SURFACE('',#1179,6.9026531809733,0.5);
#22=ELLIPSE('',#1170,0.707106781186543,0.5);
#23=B_SPLINE_CURVE_WITH_KNOTS('',3,(#1731,#1732,#1733,#1734,#1735,#1736,
#1737,#1738,#1739,#1740,#1741,#1742),.UNSPECIFIED.,.F.,.F.,(4,2,2,2,2,4),
(-0.0787894729516728,-0.0782275404957725,-0.0585953979195274,-0.0390620774540993,
-0.0195305842822365,0.),.UNSPECIFIED.);
#24=B_SPLINE_CURVE_WITH_KNOTS('',3,(#1750,#1751,#1752,#1753,#1754,#1755,
#1756,#1757,#1758,#1759,#1760,#1761),.UNSPECIFIED.,.F.,.F.,(4,2,2,2,2,4),
(-0.000561934702461234,0.,0.0196322210901752,0.0391656196829821,0.0586971909749171,
0.0782278533735934),.UNSPECIFIED.);
#25=B_SPLINE_CURVE_WITH_KNOTS('',3,(#1767,#1768,#1769,#1770,#1771,#1772,
#1773,#1774,#1775,#1776,#1777,#1778),.UNSPECIFIED.,.F.,.F.,(4,2,2,2,2,4),
(-0.078789472941939,-0.0782275404870364,-0.0585953979195203,-0.0390620774540935,
-0.0195305842822335,0.),.UNSPECIFIED.);
#26=B_SPLINE_CURVE_WITH_KNOTS('',3,(#1785,#1786,#1787,#1788,#1789,#1790,
#1791,#1792,#1793,#1794,#1795,#1796),.UNSPECIFIED.,.F.,.F.,(4,2,2,2,2,4),
(-0.000561934701945689,0.,0.0196322210461174,0.0391656195863658,0.0586971908257473,
0.0782278531718774),.UNSPECIFIED.);
#27=B_SPLINE_CURVE_WITH_KNOTS('',3,(#1802,#1803,#1804,#1805,#1806,#1807,
#1808,#1809,#1810,#1811,#1812,#1813),.UNSPECIFIED.,.F.,.F.,(4,2,2,2,2,4),
(-0.0787894729476455,-0.0782275404916742,-0.0585953979195238,-0.0390620774540977,
-0.0195305842822317,0.),.UNSPECIFIED.);
#28=B_SPLINE_CURVE_WITH_KNOTS('',3,(#1819,#1820,#1821,#1822,#1823,#1824,
#1825,#1826,#1827,#1828,#1829,#1830),.UNSPECIFIED.,.F.,.F.,(4,2,2,2,2,4),
(-0.000561934702699751,0.,0.0196322210651414,0.0391656196283485,0.0586971908906789,
0.0782278532597446),.UNSPECIFIED.);
#29=CYLINDRICAL_SURFACE('',#1151,3.999999);
#30=CYLINDRICAL_SURFACE('',#1155,3.999999);
#31=CYLINDRICAL_SURFACE('',#1169,0.5);
#32=CYLINDRICAL_SURFACE('',#1174,0.5);
#33=CYLINDRICAL_SURFACE('',#1178,0.5);
#34=CYLINDRICAL_SURFACE('',#1182,0.5);
#35=CYLINDRICAL_SURFACE('',#1184,7.4026531809733);
#36=CYLINDRICAL_SURFACE('',#1193,7.40265318097329);
#37=CYLINDRICAL_SURFACE('',#1194,7.4026531809733);
#38=CYLINDRICAL_SURFACE('',#1197,2.);
#39=CYLINDRICAL_SURFACE('',#1200,2.);
#40=CYLINDRICAL_SURFACE('',#1203,2.);
#41=CYLINDRICAL_SURFACE('',#1206,2.);
#42=CYLINDRICAL_SURFACE('',#1207,3.999999);
#43=CYLINDRICAL_SURFACE('',#1209,3.999999);
#44=CYLINDRICAL_SURFACE('',#1214,3.999999);
#45=CYLINDRICAL_SURFACE('',#1215,3.999999);
#46=CYLINDRICAL_SURFACE('',#1221,5.90265318097329);
#47=CYLINDRICAL_SURFACE('',#1225,5.90265318097329);
#48=CYLINDRICAL_SURFACE('',#1229,5.9026531809733);
#49=FACE_BOUND('',#120,.T.);
#50=FACE_BOUND('',#121,.T.);
#51=FACE_BOUND('',#122,.T.);
#52=FACE_BOUND('',#123,.T.);
#53=FACE_BOUND('',#124,.T.);
#54=FACE_BOUND('',#148,.T.);
#55=FACE_BOUND('',#149,.T.);
#56=FACE_BOUND('',#150,.T.);
#57=FACE_BOUND('',#151,.T.);
#58=FACE_BOUND('',#152,.T.);
#59=FACE_BOUND('',#153,.T.);
#60=FACE_OUTER_BOUND('',#119,.T.);
#61=FACE_OUTER_BOUND('',#125,.T.);
#62=FACE_OUTER_BOUND('',#126,.T.);
#63=FACE_OUTER_BOUND('',#127,.T.);
#64=FACE_OUTER_BOUND('',#128,.T.);
#65=FACE_OUTER_BOUND('',#129,.T.);
#66=FACE_OUTER_BOUND('',#130,.T.);
#67=FACE_OUTER_BOUND('',#131,.T.);
#68=FACE_OUTER_BOUND('',#132,.T.);
#69=FACE_OUTER_BOUND('',#133,.T.);
#70=FACE_OUTER_BOUND('',#134,.T.);
#71=FACE_OUTER_BOUND('',#135,.T.);
#72=FACE_OUTER_BOUND('',#136,.T.);
#73=FACE_OUTER_BOUND('',#137,.T.);
#74=FACE_OUTER_BOUND('',#138,.T.);
#75=FACE_OUTER_BOUND('',#139,.T.);
#76=FACE_OUTER_BOUND('',#140,.T.);
#77=FACE_OUTER_BOUND('',#141,.T.);
#78=FACE_OUTER_BOUND('',#142,.T.);
#79=FACE_OUTER_BOUND('',#143,.T.);
#80=FACE_OUTER_BOUND('',#144,.T.);
#81=FACE_OUTER_BOUND('',#145,.T.);
#82=FACE_OUTER_BOUND('',#146,.T.);
#83=FACE_OUTER_BOUND('',#147,.T.);
#84=FACE_OUTER_BOUND('',#154,.T.);
#85=FACE_OUTER_BOUND('',#155,.T.);
#86=FACE_OUTER_BOUND('',#156,.T.);
#87=FACE_OUTER_BOUND('',#157,.T.);
#88=FACE_OUTER_BOUND('',#158,.T.);
#89=FACE_OUTER_BOUND('',#159,.T.);
#90=FACE_OUTER_BOUND('',#160,.T.);
#91=FACE_OUTER_BOUND('',#161,.T.);
#92=FACE_OUTER_BOUND('',#162,.T.);
#93=FACE_OUTER_BOUND('',#163,.T.);
#94=FACE_OUTER_BOUND('',#164,.T.);
#95=FACE_OUTER_BOUND('',#165,.T.);
#96=FACE_OUTER_BOUND('',#166,.T.);
#97=FACE_OUTER_BOUND('',#167,.T.);
#98=FACE_OUTER_BOUND('',#168,.T.);
#99=FACE_OUTER_BOUND('',#169,.T.);
#100=FACE_OUTER_BOUND('',#170,.T.);
#101=FACE_OUTER_BOUND('',#171,.T.);
#102=FACE_OUTER_BOUND('',#172,.T.);
#103=FACE_OUTER_BOUND('',#173,.T.);
#104=FACE_OUTER_BOUND('',#174,.T.);
#105=FACE_OUTER_BOUND('',#175,.T.);
#106=FACE_OUTER_BOUND('',#176,.T.);
#107=FACE_OUTER_BOUND('',#177,.T.);
#108=FACE_OUTER_BOUND('',#178,.T.);
#109=FACE_OUTER_BOUND('',#179,.T.);
#110=FACE_OUTER_BOUND('',#180,.T.);
#111=FACE_OUTER_BOUND('',#181,.T.);
#112=FACE_OUTER_BOUND('',#182,.T.);
#113=FACE_OUTER_BOUND('',#183,.T.);
#114=FACE_OUTER_BOUND('',#184,.T.);
#115=FACE_OUTER_BOUND('',#185,.T.);
#116=FACE_OUTER_BOUND('',#186,.T.);
#117=FACE_OUTER_BOUND('',#187,.T.);
#118=FACE_OUTER_BOUND('',#188,.T.);
#119=EDGE_LOOP('',(#722,#723,#724,#725,#726,#727,#728,#729,#730,#731,#732,
#733,#734));
#120=EDGE_LOOP('',(#735));
#121=EDGE_LOOP('',(#736));
#122=EDGE_LOOP('',(#737));
#123=EDGE_LOOP('',(#738));
#124=EDGE_LOOP('',(#739,#740,#741,#742,#743,#744,#745,#746,#747,#748,#749));
#125=EDGE_LOOP('',(#750,#751,#752,#753));
#126=EDGE_LOOP('',(#754,#755,#756,#757,#758,#759,#760));
#127=EDGE_LOOP('',(#761,#762,#763,#764));
#128=EDGE_LOOP('',(#765,#766,#767,#768,#769,#770,#771));
#129=EDGE_LOOP('',(#772,#773,#774,#775));
#130=EDGE_LOOP('',(#776,#777,#778,#779));
#131=EDGE_LOOP('',(#780,#781,#782,#783));
#132=EDGE_LOOP('',(#784,#785,#786,#787,#788,#789,#790,#791,#792,#793,#794,
#795,#796,#797,#798,#799));
#133=EDGE_LOOP('',(#800,#801,#802,#803,#804,#805,#806,#807,#808,#809,#810,
#811));
#134=EDGE_LOOP('',(#812,#813,#814,#815));
#135=EDGE_LOOP('',(#816,#817,#818,#819));
#136=EDGE_LOOP('',(#820,#821,#822,#823));
#137=EDGE_LOOP('',(#824,#825,#826,#827));
#138=EDGE_LOOP('',(#828,#829,#830,#831));
#139=EDGE_LOOP('',(#832,#833,#834,#835));
#140=EDGE_LOOP('',(#836,#837,#838,#839));
#141=EDGE_LOOP('',(#840,#841,#842,#843));
#142=EDGE_LOOP('',(#844,#845,#846,#847));
#143=EDGE_LOOP('',(#848,#849,#850,#851));
#144=EDGE_LOOP('',(#852,#853,#854,#855));
#145=EDGE_LOOP('',(#856,#857,#858,#859));
#146=EDGE_LOOP('',(#860,#861,#862,#863));
#147=EDGE_LOOP('',(#864,#865,#866,#867,#868,#869,#870));
#148=EDGE_LOOP('',(#871));
#149=EDGE_LOOP('',(#872));
#150=EDGE_LOOP('',(#873,#874));
#151=EDGE_LOOP('',(#875,#876));
#152=EDGE_LOOP('',(#877));
#153=EDGE_LOOP('',(#878));
#154=EDGE_LOOP('',(#879,#880,#881,#882));
#155=EDGE_LOOP('',(#883,#884,#885,#886));
#156=EDGE_LOOP('',(#887,#888,#889,#890));
#157=EDGE_LOOP('',(#891,#892,#893,#894));
#158=EDGE_LOOP('',(#895,#896,#897,#898));
#159=EDGE_LOOP('',(#899,#900,#901,#902));
#160=EDGE_LOOP('',(#903,#904,#905,#906));
#161=EDGE_LOOP('',(#907,#908,#909,#910));
#162=EDGE_LOOP('',(#911,#912,#913,#914));
#163=EDGE_LOOP('',(#915,#916,#917,#918));
#164=EDGE_LOOP('',(#919,#920,#921,#922));
#165=EDGE_LOOP('',(#923,#924,#925,#926));
#166=EDGE_LOOP('',(#927,#928,#929,#930,#931,#932,#933,#934,#935,#936,#937,
#938,#939));
#167=EDGE_LOOP('',(#940,#941,#942,#943));
#168=EDGE_LOOP('',(#944,#945,#946,#947));
#169=EDGE_LOOP('',(#948,#949,#950,#951));
#170=EDGE_LOOP('',(#952,#953,#954,#955));
#171=EDGE_LOOP('',(#956,#957,#958,#959));
#172=EDGE_LOOP('',(#960,#961,#962,#963));
#173=EDGE_LOOP('',(#964,#965,#966,#967));
#174=EDGE_LOOP('',(#968,#969,#970,#971));
#175=EDGE_LOOP('',(#972,#973,#974,#975));
#176=EDGE_LOOP('',(#976,#977,#978,#979,#980,#981,#982,#983));
#177=EDGE_LOOP('',(#984,#985,#986,#987));
#178=EDGE_LOOP('',(#988,#989,#990,#991));
#179=EDGE_LOOP('',(#992,#993,#994,#995));
#180=EDGE_LOOP('',(#996,#997,#998,#999));
#181=EDGE_LOOP('',(#1000,#1001,#1002,#1003));
#182=EDGE_LOOP('',(#1004,#1005,#1006,#1007));
#183=EDGE_LOOP('',(#1008,#1009,#1010,#1011));
#184=EDGE_LOOP('',(#1012,#1013,#1014,#1015,#1016,#1017,#1018,#1019));
#185=EDGE_LOOP('',(#1020,#1021,#1022,#1023,#1024,#1025,#1026,#1027));
#186=EDGE_LOOP('',(#1028,#1029,#1030,#1031));
#187=EDGE_LOOP('',(#1032,#1033,#1034,#1035,#1036,#1037,#1038,#1039));
#188=EDGE_LOOP('',(#1040,#1041,#1042,#1043));
#189=CIRCLE('',#1138,5.90265318097329);
#190=CIRCLE('',#1139,5.90265318097329);
#191=CIRCLE('',#1140,5.9026531809733);
#192=CIRCLE('',#1141,2.);
#193=CIRCLE('',#1142,2.);
#194=CIRCLE('',#1143,2.);
#195=CIRCLE('',#1144,2.);
#196=CIRCLE('',#1145,3.999999);
#197=CIRCLE('',#1146,3.999999);
#198=CIRCLE('',#1147,3.999999);
#199=CIRCLE('',#1148,3.999999);
#200=CIRCLE('',#1152,3.999999);
#201=CIRCLE('',#1156,3.999999);
#202=CIRCLE('',#1159,5.9026531809733);
#203=CIRCLE('',#1160,5.90265318097329);
#204=CIRCLE('',#1161,7.40265318097329);
#205=CIRCLE('',#1162,7.4026531809733);
#206=CIRCLE('',#1164,7.4026531809733);
#207=CIRCLE('',#1165,5.90265318097329);
#208=CIRCLE('',#1172,6.9026531809733);
#209=CIRCLE('',#1173,7.4026531809733);
#210=CIRCLE('',#1176,7.40265318097329);
#211=CIRCLE('',#1177,6.90265318097329);
#212=CIRCLE('',#1180,7.4026531809733);
#213=CIRCLE('',#1181,6.9026531809733);
#214=CIRCLE('',#1187,3.2);
#215=CIRCLE('',#1188,3.2);
#216=CIRCLE('',#1189,3.999999);
#217=CIRCLE('',#1190,3.999999);
#218=CIRCLE('',#1191,3.2);
#219=CIRCLE('',#1192,3.2);
#220=CIRCLE('',#1196,2.);
#221=CIRCLE('',#1199,2.);
#222=CIRCLE('',#1202,2.);
#223=CIRCLE('',#1205,2.);
#224=CIRCLE('',#1208,3.999999);
#225=CIRCLE('',#1210,3.999999);
#226=CIRCLE('',#1212,3.999999);
#227=CIRCLE('',#1213,3.999999);
#228=LINE('',#1555,#343);
#229=LINE('',#1557,#344);
#230=LINE('',#1561,#345);
#231=LINE('',#1563,#346);
#232=LINE('',#1565,#347);
#233=LINE('',#1569,#348);
#234=LINE('',#1571,#349);
#235=LINE('',#1573,#350);
#236=LINE('',#1577,#351);
#237=LINE('',#1578,#352);
#238=LINE('',#1591,#353);
#239=LINE('',#1593,#354);
#240=LINE('',#1597,#355);
#241=LINE('',#1599,#356);
#242=LINE('',#1601,#357);
#243=LINE('',#1605,#358);
#244=LINE('',#1608,#359);
#245=LINE('',#1611,#360);
#246=LINE('',#1613,#361);
#247=LINE('',#1614,#362);
#248=LINE('',#1617,#363);
#249=LINE('',#1619,#364);
#250=LINE('',#1621,#365);
#251=LINE('',#1623,#366);
#252=LINE('',#1624,#367);
#253=LINE('',#1627,#368);
#254=LINE('',#1631,#369);
#255=LINE('',#1633,#370);
#256=LINE('',#1635,#371);
#257=LINE('',#1637,#372);
#258=LINE('',#1638,#373);
#259=LINE('',#1641,#374);
#260=LINE('',#1642,#375);
#261=LINE('',#1645,#376);
#262=LINE('',#1650,#377);
#263=LINE('',#1652,#378);
#264=LINE('',#1654,#379);
#265=LINE('',#1655,#380);
#266=LINE('',#1659,#381);
#267=LINE('',#1661,#382);
#268=LINE('',#1663,#383);
#269=LINE('',#1667,#384);
#270=LINE('',#1669,#385);
#271=LINE('',#1671,#386);
#272=LINE('',#1675,#387);
#273=LINE('',#1677,#388);
#274=LINE('',#1679,#389);
#275=LINE('',#1681,#390);
#276=LINE('',#1685,#391);
#277=LINE('',#1688,#392);
#278=LINE('',#1691,#393);
#279=LINE('',#1693,#394);
#280=LINE('',#1697,#395);
#281=LINE('',#1699,#396);
#282=LINE('',#1701,#397);
#283=LINE('',#1703,#398);
#284=LINE('',#1707,#399);
#285=LINE('',#1709,#400);
#286=LINE('',#1710,#401);
#287=LINE('',#1714,#402);
#288=LINE('',#1715,#403);
#289=LINE('',#1716,#404);
#290=LINE('',#1720,#405);
#291=LINE('',#1721,#406);
#292=LINE('',#1722,#407);
#293=LINE('',#1724,#408);
#294=LINE('',#1725,#409);
#295=LINE('',#1729,#410);
#296=LINE('',#1744,#411);
#297=LINE('',#1765,#412);
#298=LINE('',#1779,#413);
#299=LINE('',#1799,#414);
#300=LINE('',#1801,#415);
#301=LINE('',#1832,#416);
#302=LINE('',#1833,#417);
#303=LINE('',#1835,#418);
#304=LINE('',#1836,#419);
#305=LINE('',#1838,#420);
#306=LINE('',#1840,#421);
#307=LINE('',#1841,#422);
#308=LINE('',#1854,#423);
#309=LINE('',#1856,#424);
#310=LINE('',#1860,#425);
#311=LINE('',#1862,#426);
#312=LINE('',#1866,#427);
#313=LINE('',#1868,#428);
#314=LINE('',#1872,#429);
#315=LINE('',#1874,#430);
#316=LINE('',#1878,#431);
#317=LINE('',#1880,#432);
#318=LINE('',#1887,#433);
#319=LINE('',#1891,#434);
#320=LINE('',#1894,#435);
#321=LINE('',#1896,#436);
#322=LINE('',#1897,#437);
#323=LINE('',#1899,#438);
#324=LINE('',#1900,#439);
#325=LINE('',#1905,#440);
#326=LINE('',#1906,#441);
#327=LINE('',#1908,#442);
#328=LINE('',#1910,#443);
#329=LINE('',#1912,#444);
#330=LINE('',#1914,#445);
#331=LINE('',#1916,#446);
#332=LINE('',#1918,#447);
#333=LINE('',#1920,#448);
#334=LINE('',#1922,#449);
#335=LINE('',#1924,#450);
#336=LINE('',#1926,#451);
#337=LINE('',#1928,#452);
#338=LINE('',#1932,#453);
#339=LINE('',#1933,#454);
#340=LINE('',#1936,#455);
#341=LINE('',#1937,#456);
#342=LINE('',#1939,#457);
#343=VECTOR('',#1240,10.);
#344=VECTOR('',#1241,10.);
#345=VECTOR('',#1244,10.);
#346=VECTOR('',#1245,10.);
#347=VECTOR('',#1246,10.);
#348=VECTOR('',#1249,10.);
#349=VECTOR('',#1250,10.);
#350=VECTOR('',#1251,10.);
#351=VECTOR('',#1254,10.);
#352=VECTOR('',#1255,10.);
#353=VECTOR('',#1266,10.);
#354=VECTOR('',#1267,10.);
#355=VECTOR('',#1270,10.);
#356=VECTOR('',#1271,10.);
#357=VECTOR('',#1272,10.);
#358=VECTOR('',#1275,10.);
#359=VECTOR('',#1278,10.);
#360=VECTOR('',#1281,10.);
#361=VECTOR('',#1282,10.);
#362=VECTOR('',#1283,10.);
#363=VECTOR('',#1286,10.);
#364=VECTOR('',#1287,10.);
#365=VECTOR('',#1288,10.);
#366=VECTOR('',#1289,10.);
#367=VECTOR('',#1290,10.);
#368=VECTOR('',#1293,10.);
#369=VECTOR('',#1298,10.);
#370=VECTOR('',#1299,10.);
#371=VECTOR('',#1300,10.);
#372=VECTOR('',#1301,10.);
#373=VECTOR('',#1302,10.);
#374=VECTOR('',#1305,10.);
#375=VECTOR('',#1306,10.);
#376=VECTOR('',#1309,10.);
#377=VECTOR('',#1314,10.);
#378=VECTOR('',#1315,10.);
#379=VECTOR('',#1316,10.);
#380=VECTOR('',#1317,10.);
#381=VECTOR('',#1320,10.);
#382=VECTOR('',#1321,10.);
#383=VECTOR('',#1322,10.);
#384=VECTOR('',#1325,10.);
#385=VECTOR('',#1326,10.);
#386=VECTOR('',#1327,10.);
#387=VECTOR('',#1330,10.);
#388=VECTOR('',#1331,10.);
#389=VECTOR('',#1332,10.);
#390=VECTOR('',#1333,10.);
#391=VECTOR('',#1336,10.);
#392=VECTOR('',#1339,10.);
#393=VECTOR('',#1342,10.);
#394=VECTOR('',#1343,10.);
#395=VECTOR('',#1346,10.);
#396=VECTOR('',#1347,10.);
#397=VECTOR('',#1348,10.);
#398=VECTOR('',#1349,10.);
#399=VECTOR('',#1352,10.);
#400=VECTOR('',#1353,10.);
#401=VECTOR('',#1354,10.);
#402=VECTOR('',#1357,10.);
#403=VECTOR('',#1358,10.);
#404=VECTOR('',#1359,10.);
#405=VECTOR('',#1362,10.);
#406=VECTOR('',#1363,10.);
#407=VECTOR('',#1364,10.);
#408=VECTOR('',#1367,10.);
#409=VECTOR('',#1368,10.);
#410=VECTOR('',#1371,10.);
#411=VECTOR('',#1372,10.);
#412=VECTOR('',#1383,10.);
#413=VECTOR('',#1384,10.);
#414=VECTOR('',#1393,10.);
#415=VECTOR('',#1394,10.);
#416=VECTOR('',#1403,10.);
#417=VECTOR('',#1404,10.);
#418=VECTOR('',#1407,10.);
#419=VECTOR('',#1408,10.);
#420=VECTOR('',#1411,10.);
#421=VECTOR('',#1414,10.);
#422=VECTOR('',#1415,10.);
#423=VECTOR('',#1432,10.);
#424=VECTOR('',#1435,10.);
#425=VECTOR('',#1440,2.6);
#426=VECTOR('',#1443,2.);
#427=VECTOR('',#1448,2.6);
#428=VECTOR('',#1451,2.);
#429=VECTOR('',#1456,2.6);
#430=VECTOR('',#1459,2.);
#431=VECTOR('',#1464,2.6);
#432=VECTOR('',#1467,2.);
#433=VECTOR('',#1478,10.);
#434=VECTOR('',#1481,10.);
#435=VECTOR('',#1484,10.);
#436=VECTOR('',#1487,10.);
#437=VECTOR('',#1488,10.);
#438=VECTOR('',#1491,10.);
#439=VECTOR('',#1492,10.);
#440=VECTOR('',#1501,10.);
#441=VECTOR('',#1502,10.);
#442=VECTOR('',#1505,10.);
#443=VECTOR('',#1508,10.);
#444=VECTOR('',#1511,10.);
#445=VECTOR('',#1514,10.);
#446=VECTOR('',#1517,10.);
#447=VECTOR('',#1520,10.);
#448=VECTOR('',#1523,10.);
#449=VECTOR('',#1526,10.);
#450=VECTOR('',#1529,10.);
#451=VECTOR('',#1532,10.);
#452=VECTOR('',#1535,10.);
#453=VECTOR('',#1540,10.);
#454=VECTOR('',#1541,10.);
#455=VECTOR('',#1544,10.);
#456=VECTOR('',#1545,10.);
#457=VECTOR('',#1548,10.);
#458=VERTEX_POINT('',#1553);
#459=VERTEX_POINT('',#1554);
#460=VERTEX_POINT('',#1556);
#461=VERTEX_POINT('',#1558);
#462=VERTEX_POINT('',#1560);
#463=VERTEX_POINT('',#1562);
#464=VERTEX_POINT('',#1564);
#465=VERTEX_POINT('',#1566);
#466=VERTEX_POINT('',#1568);
#467=VERTEX_POINT('',#1570);
#468=VERTEX_POINT('',#1572);
#469=VERTEX_POINT('',#1574);
#470=VERTEX_POINT('',#1576);
#471=VERTEX_POINT('',#1579);
#472=VERTEX_POINT('',#1581);
#473=VERTEX_POINT('',#1583);
#474=VERTEX_POINT('',#1585);
#475=VERTEX_POINT('',#1587);
#476=VERTEX_POINT('',#1588);
#477=VERTEX_POINT('',#1590);
#478=VERTEX_POINT('',#1592);
#479=VERTEX_POINT('',#1594);
#480=VERTEX_POINT('',#1596);
#481=VERTEX_POINT('',#1598);
#482=VERTEX_POINT('',#1600);
#483=VERTEX_POINT('',#1602);
#484=VERTEX_POINT('',#1604);
#485=VERTEX_POINT('',#1606);
#486=VERTEX_POINT('',#1610);
#487=VERTEX_POINT('',#1612);
#488=VERTEX_POINT('',#1616);
#489=VERTEX_POINT('',#1618);
#490=VERTEX_POINT('',#1620);
#491=VERTEX_POINT('',#1622);
#492=VERTEX_POINT('',#1626);
#493=VERTEX_POINT('',#1630);
#494=VERTEX_POINT('',#1632);
#495=VERTEX_POINT('',#1634);
#496=VERTEX_POINT('',#1636);
#497=VERTEX_POINT('',#1640);
#498=VERTEX_POINT('',#1644);
#499=VERTEX_POINT('',#1648);
#500=VERTEX_POINT('',#1649);
#501=VERTEX_POINT('',#1651);
#502=VERTEX_POINT('',#1653);
#503=VERTEX_POINT('',#1657);
#504=VERTEX_POINT('',#1658);
#505=VERTEX_POINT('',#1660);
#506=VERTEX_POINT('',#1662);
#507=VERTEX_POINT('',#1664);
#508=VERTEX_POINT('',#1666);
#509=VERTEX_POINT('',#1668);
#510=VERTEX_POINT('',#1670);
#511=VERTEX_POINT('',#1672);
#512=VERTEX_POINT('',#1674);
#513=VERTEX_POINT('',#1676);
#514=VERTEX_POINT('',#1678);
#515=VERTEX_POINT('',#1680);
#516=VERTEX_POINT('',#1682);
#517=VERTEX_POINT('',#1684);
#518=VERTEX_POINT('',#1686);
#519=VERTEX_POINT('',#1690);
#520=VERTEX_POINT('',#1692);
#521=VERTEX_POINT('',#1694);
#522=VERTEX_POINT('',#1696);
#523=VERTEX_POINT('',#1698);
#524=VERTEX_POINT('',#1700);
#525=VERTEX_POINT('',#1702);
#526=VERTEX_POINT('',#1704);
#527=VERTEX_POINT('',#1706);
#528=VERTEX_POINT('',#1708);
#529=VERTEX_POINT('',#1712);
#530=VERTEX_POINT('',#1713);
#531=VERTEX_POINT('',#1718);
#532=VERTEX_POINT('',#1719);
#533=VERTEX_POINT('',#1727);
#534=VERTEX_POINT('',#1728);
#535=VERTEX_POINT('',#1730);
#536=VERTEX_POINT('',#1743);
#537=VERTEX_POINT('',#1747);
#538=VERTEX_POINT('',#1749);
#539=VERTEX_POINT('',#1764);
#540=VERTEX_POINT('',#1766);
#541=VERTEX_POINT('',#1781);
#542=VERTEX_POINT('',#1783);
#543=VERTEX_POINT('',#1798);
#544=VERTEX_POINT('',#1800);
#545=VERTEX_POINT('',#1815);
#546=VERTEX_POINT('',#1817);
#547=VERTEX_POINT('',#1843);
#548=VERTEX_POINT('',#1845);
#549=VERTEX_POINT('',#1849);
#550=VERTEX_POINT('',#1851);
#551=VERTEX_POINT('',#1858);
#552=VERTEX_POINT('',#1864);
#553=VERTEX_POINT('',#1870);
#554=VERTEX_POINT('',#1876);
#555=VERTEX_POINT('',#1886);
#556=VERTEX_POINT('',#1888);
#557=VERTEX_POINT('',#1890);
#558=VERTEX_POINT('',#1892);
#559=VERTEX_POINT('',#1931);
#560=VERTEX_POINT('',#1935);
#561=EDGE_CURVE('',#458,#459,#228,.T.);
#562=EDGE_CURVE('',#460,#458,#229,.T.);
#563=EDGE_CURVE('',#461,#460,#189,.T.);
#564=EDGE_CURVE('',#462,#461,#230,.T.);
#565=EDGE_CURVE('',#463,#462,#231,.T.);
#566=EDGE_CURVE('',#464,#463,#232,.T.);
#567=EDGE_CURVE('',#465,#464,#190,.T.);
#568=EDGE_CURVE('',#466,#465,#233,.T.);
#569=EDGE_CURVE('',#467,#466,#234,.T.);
#570=EDGE_CURVE('',#468,#467,#235,.T.);
#571=EDGE_CURVE('',#469,#468,#191,.T.);
#572=EDGE_CURVE('',#470,#469,#236,.T.);
#573=EDGE_CURVE('',#459,#470,#237,.T.);
#574=EDGE_CURVE('',#471,#471,#192,.T.);
#575=EDGE_CURVE('',#472,#472,#193,.T.);
#576=EDGE_CURVE('',#473,#473,#194,.T.);
#577=EDGE_CURVE('',#474,#474,#195,.T.);
#578=EDGE_CURVE('',#475,#476,#196,.T.);
#579=EDGE_CURVE('',#477,#475,#238,.T.);
#580=EDGE_CURVE('',#478,#477,#239,.T.);
#581=EDGE_CURVE('',#479,#478,#197,.T.);
#582=EDGE_CURVE('',#480,#479,#240,.T.);
#583=EDGE_CURVE('',#481,#480,#241,.T.);
#584=EDGE_CURVE('',#482,#481,#242,.T.);
#585=EDGE_CURVE('',#483,#482,#198,.T.);
#586=EDGE_CURVE('',#484,#483,#243,.T.);
#587=EDGE_CURVE('',#485,#484,#199,.T.);
#588=EDGE_CURVE('',#476,#485,#244,.T.);
#589=EDGE_CURVE('',#480,#486,#245,.T.);
#590=EDGE_CURVE('',#486,#487,#246,.T.);
#591=EDGE_CURVE('',#481,#487,#247,.T.);
#592=EDGE_CURVE('',#479,#488,#248,.T.);
#593=EDGE_CURVE('',#489,#488,#249,.T.);
#594=EDGE_CURVE('',#489,#490,#250,.T.);
#595=EDGE_CURVE('',#491,#490,#251,.T.);
#596=EDGE_CURVE('',#491,#486,#252,.T.);
#597=EDGE_CURVE('',#478,#492,#253,.T.);
#598=EDGE_CURVE('',#492,#488,#200,.T.);
#599=EDGE_CURVE('',#493,#477,#254,.T.);
#600=EDGE_CURVE('',#493,#494,#255,.T.);
#601=EDGE_CURVE('',#494,#495,#256,.T.);
#602=EDGE_CURVE('',#495,#496,#257,.T.);
#603=EDGE_CURVE('',#492,#496,#258,.T.);
#604=EDGE_CURVE('',#475,#497,#259,.T.);
#605=EDGE_CURVE('',#497,#493,#260,.T.);
#606=EDGE_CURVE('',#498,#476,#261,.T.);
#607=EDGE_CURVE('',#498,#497,#201,.T.);
#608=EDGE_CURVE('',#499,#500,#262,.T.);
#609=EDGE_CURVE('',#501,#500,#263,.T.);
#610=EDGE_CURVE('',#501,#502,#264,.T.);
#611=EDGE_CURVE('',#502,#499,#265,.T.);
#612=EDGE_CURVE('',#503,#504,#266,.T.);
#613=EDGE_CURVE('',#503,#505,#267,.T.);
#614=EDGE_CURVE('',#505,#506,#268,.T.);
#615=EDGE_CURVE('',#506,#507,#202,.T.);
#616=EDGE_CURVE('',#507,#508,#269,.T.);
#617=EDGE_CURVE('',#508,#509,#270,.T.);
#618=EDGE_CURVE('',#509,#510,#271,.T.);
#619=EDGE_CURVE('',#510,#511,#203,.T.);
#620=EDGE_CURVE('',#511,#512,#272,.T.);
#621=EDGE_CURVE('',#512,#513,#273,.T.);
#622=EDGE_CURVE('',#513,#514,#274,.T.);
#623=EDGE_CURVE('',#514,#515,#275,.T.);
#624=EDGE_CURVE('',#515,#516,#204,.T.);
#625=EDGE_CURVE('',#516,#517,#276,.T.);
#626=EDGE_CURVE('',#517,#518,#205,.T.);
#627=EDGE_CURVE('',#518,#504,#277,.T.);
#628=EDGE_CURVE('',#500,#519,#278,.T.);
#629=EDGE_CURVE('',#519,#520,#279,.T.);
#630=EDGE_CURVE('',#520,#521,#206,.T.);
#631=EDGE_CURVE('',#521,#522,#280,.T.);
#632=EDGE_CURVE('',#522,#523,#281,.T.);
#633=EDGE_CURVE('',#523,#524,#282,.T.);
#634=EDGE_CURVE('',#524,#525,#283,.T.);
#635=EDGE_CURVE('',#525,#526,#207,.T.);
#636=EDGE_CURVE('',#526,#527,#284,.T.);
#637=EDGE_CURVE('',#527,#528,#285,.T.);
#638=EDGE_CURVE('',#528,#501,#286,.T.);
#639=EDGE_CURVE('',#529,#530,#287,.T.);
#640=EDGE_CURVE('',#529,#523,#288,.T.);
#641=EDGE_CURVE('',#522,#530,#289,.T.);
#642=EDGE_CURVE('',#531,#532,#290,.T.);
#643=EDGE_CURVE('',#532,#529,#291,.T.);
#644=EDGE_CURVE('',#530,#531,#292,.T.);
#645=EDGE_CURVE('',#513,#532,#293,.T.);
#646=EDGE_CURVE('',#531,#514,#294,.T.);
#647=EDGE_CURVE('',#533,#534,#295,.T.);
#648=EDGE_CURVE('',#534,#535,#23,.T.);
#649=EDGE_CURVE('',#535,#536,#296,.T.);
#650=EDGE_CURVE('',#536,#533,#22,.T.);
#651=EDGE_CURVE('',#534,#537,#208,.T.);
#652=EDGE_CURVE('',#537,#538,#24,.T.);
#653=EDGE_CURVE('',#538,#535,#209,.T.);
#654=EDGE_CURVE('',#537,#539,#297,.T.);
#655=EDGE_CURVE('',#539,#540,#25,.T.);
#656=EDGE_CURVE('',#540,#538,#298,.T.);
#657=EDGE_CURVE('',#541,#540,#210,.T.);
#658=EDGE_CURVE('',#539,#542,#211,.T.);
#659=EDGE_CURVE('',#542,#541,#26,.T.);
#660=EDGE_CURVE('',#543,#541,#299,.T.);
#661=EDGE_CURVE('',#542,#544,#300,.T.);
#662=EDGE_CURVE('',#544,#543,#27,.T.);
#663=EDGE_CURVE('',#545,#543,#212,.T.);
#664=EDGE_CURVE('',#544,#546,#213,.T.);
#665=EDGE_CURVE('',#546,#545,#28,.T.);
#666=EDGE_CURVE('',#536,#545,#301,.T.);
#667=EDGE_CURVE('',#546,#533,#302,.T.);
#668=EDGE_CURVE('',#543,#517,#303,.T.);
#669=EDGE_CURVE('',#541,#516,#304,.T.);
#670=EDGE_CURVE('',#545,#518,#305,.T.);
#671=EDGE_CURVE('',#535,#520,#306,.T.);
#672=EDGE_CURVE('',#536,#519,#307,.T.);
#673=EDGE_CURVE('',#547,#547,#214,.T.);
#674=EDGE_CURVE('',#548,#548,#215,.T.);
#675=EDGE_CURVE('',#495,#496,#216,.T.);
#676=EDGE_CURVE('',#489,#490,#217,.T.);
#677=EDGE_CURVE('',#549,#549,#218,.T.);
#678=EDGE_CURVE('',#550,#550,#219,.T.);
#679=EDGE_CURVE('',#540,#515,#308,.T.);
#680=EDGE_CURVE('',#538,#521,#309,.T.);
#681=EDGE_CURVE('',#551,#551,#220,.T.);
#682=EDGE_CURVE('',#551,#550,#310,.T.);
#683=EDGE_CURVE('',#551,#474,#311,.T.);
#684=EDGE_CURVE('',#552,#552,#221,.T.);
#685=EDGE_CURVE('',#552,#547,#312,.T.);
#686=EDGE_CURVE('',#552,#472,#313,.T.);
#687=EDGE_CURVE('',#553,#553,#222,.T.);
#688=EDGE_CURVE('',#553,#549,#314,.T.);
#689=EDGE_CURVE('',#553,#473,#315,.T.);
#690=EDGE_CURVE('',#554,#554,#223,.T.);
#691=EDGE_CURVE('',#554,#548,#316,.T.);
#692=EDGE_CURVE('',#554,#471,#317,.T.);
#693=EDGE_CURVE('',#491,#488,#224,.T.);
#694=EDGE_CURVE('',#492,#494,#225,.T.);
#695=EDGE_CURVE('',#555,#498,#318,.T.);
#696=EDGE_CURVE('',#556,#555,#226,.T.);
#697=EDGE_CURVE('',#557,#556,#319,.T.);
#698=EDGE_CURVE('',#558,#557,#227,.T.);
#699=EDGE_CURVE('',#487,#558,#320,.T.);
#700=EDGE_CURVE('',#558,#482,#321,.T.);
#701=EDGE_CURVE('',#483,#557,#322,.T.);
#702=EDGE_CURVE('',#556,#484,#323,.T.);
#703=EDGE_CURVE('',#485,#555,#324,.T.);
#704=EDGE_CURVE('',#459,#528,#325,.T.);
#705=EDGE_CURVE('',#527,#458,#326,.T.);
#706=EDGE_CURVE('',#526,#460,#327,.T.);
#707=EDGE_CURVE('',#525,#461,#328,.T.);
#708=EDGE_CURVE('',#524,#462,#329,.T.);
#709=EDGE_CURVE('',#512,#463,#330,.T.);
#710=EDGE_CURVE('',#511,#464,#331,.T.);
#711=EDGE_CURVE('',#510,#465,#332,.T.);
#712=EDGE_CURVE('',#509,#466,#333,.T.);
#713=EDGE_CURVE('',#508,#467,#334,.T.);
#714=EDGE_CURVE('',#507,#468,#335,.T.);
#715=EDGE_CURVE('',#506,#469,#336,.T.);
#716=EDGE_CURVE('',#505,#470,#337,.T.);
#717=EDGE_CURVE('',#559,#503,#338,.T.);
#718=EDGE_CURVE('',#559,#502,#339,.T.);
#719=EDGE_CURVE('',#560,#559,#340,.T.);
#720=EDGE_CURVE('',#499,#560,#341,.T.);
#721=EDGE_CURVE('',#504,#560,#342,.T.);
#722=ORIENTED_EDGE('',*,*,#561,.F.);
#723=ORIENTED_EDGE('',*,*,#562,.F.);
#724=ORIENTED_EDGE('',*,*,#563,.F.);
#725=ORIENTED_EDGE('',*,*,#564,.F.);
#726=ORIENTED_EDGE('',*,*,#565,.F.);
#727=ORIENTED_EDGE('',*,*,#566,.F.);
#728=ORIENTED_EDGE('',*,*,#567,.F.);
#729=ORIENTED_EDGE('',*,*,#568,.F.);
#730=ORIENTED_EDGE('',*,*,#569,.F.);
#731=ORIENTED_EDGE('',*,*,#570,.F.);
#732=ORIENTED_EDGE('',*,*,#571,.F.);
#733=ORIENTED_EDGE('',*,*,#572,.F.);
#734=ORIENTED_EDGE('',*,*,#573,.F.);
#735=ORIENTED_EDGE('',*,*,#574,.F.);
#736=ORIENTED_EDGE('',*,*,#575,.F.);
#737=ORIENTED_EDGE('',*,*,#576,.F.);
#738=ORIENTED_EDGE('',*,*,#577,.F.);
#739=ORIENTED_EDGE('',*,*,#578,.F.);
#740=ORIENTED_EDGE('',*,*,#579,.F.);
#741=ORIENTED_EDGE('',*,*,#580,.F.);
#742=ORIENTED_EDGE('',*,*,#581,.F.);
#743=ORIENTED_EDGE('',*,*,#582,.F.);
#744=ORIENTED_EDGE('',*,*,#583,.F.);
#745=ORIENTED_EDGE('',*,*,#584,.F.);
#746=ORIENTED_EDGE('',*,*,#585,.F.);
#747=ORIENTED_EDGE('',*,*,#586,.F.);
#748=ORIENTED_EDGE('',*,*,#587,.F.);
#749=ORIENTED_EDGE('',*,*,#588,.F.);
#750=ORIENTED_EDGE('',*,*,#583,.T.);
#751=ORIENTED_EDGE('',*,*,#589,.T.);
#752=ORIENTED_EDGE('',*,*,#590,.T.);
#753=ORIENTED_EDGE('',*,*,#591,.F.);
#754=ORIENTED_EDGE('',*,*,#582,.T.);
#755=ORIENTED_EDGE('',*,*,#592,.T.);
#756=ORIENTED_EDGE('',*,*,#593,.F.);
#757=ORIENTED_EDGE('',*,*,#594,.T.);
#758=ORIENTED_EDGE('',*,*,#595,.F.);
#759=ORIENTED_EDGE('',*,*,#596,.T.);
#760=ORIENTED_EDGE('',*,*,#589,.F.);
#761=ORIENTED_EDGE('',*,*,#581,.T.);
#762=ORIENTED_EDGE('',*,*,#597,.T.);
#763=ORIENTED_EDGE('',*,*,#598,.T.);
#764=ORIENTED_EDGE('',*,*,#592,.F.);
#765=ORIENTED_EDGE('',*,*,#580,.T.);
#766=ORIENTED_EDGE('',*,*,#599,.F.);
#767=ORIENTED_EDGE('',*,*,#600,.T.);
#768=ORIENTED_EDGE('',*,*,#601,.T.);
#769=ORIENTED_EDGE('',*,*,#602,.T.);
#770=ORIENTED_EDGE('',*,*,#603,.F.);
#771=ORIENTED_EDGE('',*,*,#597,.F.);
#772=ORIENTED_EDGE('',*,*,#579,.T.);
#773=ORIENTED_EDGE('',*,*,#604,.T.);
#774=ORIENTED_EDGE('',*,*,#605,.T.);
#775=ORIENTED_EDGE('',*,*,#599,.T.);
#776=ORIENTED_EDGE('',*,*,#578,.T.);
#777=ORIENTED_EDGE('',*,*,#606,.F.);
#778=ORIENTED_EDGE('',*,*,#607,.T.);
#779=ORIENTED_EDGE('',*,*,#604,.F.);
#780=ORIENTED_EDGE('',*,*,#608,.T.);
#781=ORIENTED_EDGE('',*,*,#609,.F.);
#782=ORIENTED_EDGE('',*,*,#610,.T.);
#783=ORIENTED_EDGE('',*,*,#611,.T.);
#784=ORIENTED_EDGE('',*,*,#612,.F.);
#785=ORIENTED_EDGE('',*,*,#613,.T.);
#786=ORIENTED_EDGE('',*,*,#614,.T.);
#787=ORIENTED_EDGE('',*,*,#615,.T.);
#788=ORIENTED_EDGE('',*,*,#616,.T.);
#789=ORIENTED_EDGE('',*,*,#617,.T.);
#790=ORIENTED_EDGE('',*,*,#618,.T.);
#791=ORIENTED_EDGE('',*,*,#619,.T.);
#792=ORIENTED_EDGE('',*,*,#620,.T.);
#793=ORIENTED_EDGE('',*,*,#621,.T.);
#794=ORIENTED_EDGE('',*,*,#622,.T.);
#795=ORIENTED_EDGE('',*,*,#623,.T.);
#796=ORIENTED_EDGE('',*,*,#624,.T.);
#797=ORIENTED_EDGE('',*,*,#625,.T.);
#798=ORIENTED_EDGE('',*,*,#626,.T.);
#799=ORIENTED_EDGE('',*,*,#627,.T.);
#800=ORIENTED_EDGE('',*,*,#609,.T.);
#801=ORIENTED_EDGE('',*,*,#628,.T.);
#802=ORIENTED_EDGE('',*,*,#629,.T.);
#803=ORIENTED_EDGE('',*,*,#630,.T.);
#804=ORIENTED_EDGE('',*,*,#631,.T.);
#805=ORIENTED_EDGE('',*,*,#632,.T.);
#806=ORIENTED_EDGE('',*,*,#633,.T.);
#807=ORIENTED_EDGE('',*,*,#634,.T.);
#808=ORIENTED_EDGE('',*,*,#635,.T.);
#809=ORIENTED_EDGE('',*,*,#636,.T.);
#810=ORIENTED_EDGE('',*,*,#637,.T.);
#811=ORIENTED_EDGE('',*,*,#638,.T.);
#812=ORIENTED_EDGE('',*,*,#639,.F.);
#813=ORIENTED_EDGE('',*,*,#640,.T.);
#814=ORIENTED_EDGE('',*,*,#632,.F.);
#815=ORIENTED_EDGE('',*,*,#641,.T.);
#816=ORIENTED_EDGE('',*,*,#642,.T.);
#817=ORIENTED_EDGE('',*,*,#643,.T.);
#818=ORIENTED_EDGE('',*,*,#639,.T.);
#819=ORIENTED_EDGE('',*,*,#644,.T.);
#820=ORIENTED_EDGE('',*,*,#622,.F.);
#821=ORIENTED_EDGE('',*,*,#645,.T.);
#822=ORIENTED_EDGE('',*,*,#642,.F.);
#823=ORIENTED_EDGE('',*,*,#646,.T.);
#824=ORIENTED_EDGE('',*,*,#647,.T.);
#825=ORIENTED_EDGE('',*,*,#648,.T.);
#826=ORIENTED_EDGE('',*,*,#649,.T.);
#827=ORIENTED_EDGE('',*,*,#650,.T.);
#828=ORIENTED_EDGE('',*,*,#651,.T.);
#829=ORIENTED_EDGE('',*,*,#652,.T.);
#830=ORIENTED_EDGE('',*,*,#653,.T.);
#831=ORIENTED_EDGE('',*,*,#648,.F.);
#832=ORIENTED_EDGE('',*,*,#654,.T.);
#833=ORIENTED_EDGE('',*,*,#655,.T.);
#834=ORIENTED_EDGE('',*,*,#656,.T.);
#835=ORIENTED_EDGE('',*,*,#652,.F.);
#836=ORIENTED_EDGE('',*,*,#657,.T.);
#837=ORIENTED_EDGE('',*,*,#655,.F.);
#838=ORIENTED_EDGE('',*,*,#658,.T.);
#839=ORIENTED_EDGE('',*,*,#659,.T.);
#840=ORIENTED_EDGE('',*,*,#660,.T.);
#841=ORIENTED_EDGE('',*,*,#659,.F.);
#842=ORIENTED_EDGE('',*,*,#661,.T.);
#843=ORIENTED_EDGE('',*,*,#662,.T.);
#844=ORIENTED_EDGE('',*,*,#663,.T.);
#845=ORIENTED_EDGE('',*,*,#662,.F.);
#846=ORIENTED_EDGE('',*,*,#664,.T.);
#847=ORIENTED_EDGE('',*,*,#665,.T.);
#848=ORIENTED_EDGE('',*,*,#666,.T.);
#849=ORIENTED_EDGE('',*,*,#665,.F.);
#850=ORIENTED_EDGE('',*,*,#667,.T.);
#851=ORIENTED_EDGE('',*,*,#650,.F.);
#852=ORIENTED_EDGE('',*,*,#660,.F.);
#853=ORIENTED_EDGE('',*,*,#668,.T.);
#854=ORIENTED_EDGE('',*,*,#625,.F.);
#855=ORIENTED_EDGE('',*,*,#669,.F.);
#856=ORIENTED_EDGE('',*,*,#663,.F.);
#857=ORIENTED_EDGE('',*,*,#670,.T.);
#858=ORIENTED_EDGE('',*,*,#626,.F.);
#859=ORIENTED_EDGE('',*,*,#668,.F.);
#860=ORIENTED_EDGE('',*,*,#649,.F.);
#861=ORIENTED_EDGE('',*,*,#671,.T.);
#862=ORIENTED_EDGE('',*,*,#629,.F.);
#863=ORIENTED_EDGE('',*,*,#672,.F.);
#864=ORIENTED_EDGE('',*,*,#647,.F.);
#865=ORIENTED_EDGE('',*,*,#667,.F.);
#866=ORIENTED_EDGE('',*,*,#664,.F.);
#867=ORIENTED_EDGE('',*,*,#661,.F.);
#868=ORIENTED_EDGE('',*,*,#658,.F.);
#869=ORIENTED_EDGE('',*,*,#654,.F.);
#870=ORIENTED_EDGE('',*,*,#651,.F.);
#871=ORIENTED_EDGE('',*,*,#673,.F.);
#872=ORIENTED_EDGE('',*,*,#674,.F.);
#873=ORIENTED_EDGE('',*,*,#675,.T.);
#874=ORIENTED_EDGE('',*,*,#602,.F.);
#875=ORIENTED_EDGE('',*,*,#676,.T.);
#876=ORIENTED_EDGE('',*,*,#594,.F.);
#877=ORIENTED_EDGE('',*,*,#677,.F.);
#878=ORIENTED_EDGE('',*,*,#678,.F.);
#879=ORIENTED_EDGE('',*,*,#657,.F.);
#880=ORIENTED_EDGE('',*,*,#669,.T.);
#881=ORIENTED_EDGE('',*,*,#624,.F.);
#882=ORIENTED_EDGE('',*,*,#679,.F.);
#883=ORIENTED_EDGE('',*,*,#653,.F.);
#884=ORIENTED_EDGE('',*,*,#680,.T.);
#885=ORIENTED_EDGE('',*,*,#630,.F.);
#886=ORIENTED_EDGE('',*,*,#671,.F.);
#887=ORIENTED_EDGE('',*,*,#681,.T.);
#888=ORIENTED_EDGE('',*,*,#682,.T.);
#889=ORIENTED_EDGE('',*,*,#678,.T.);
#890=ORIENTED_EDGE('',*,*,#682,.F.);
#891=ORIENTED_EDGE('',*,*,#681,.F.);
#892=ORIENTED_EDGE('',*,*,#683,.T.);
#893=ORIENTED_EDGE('',*,*,#577,.T.);
#894=ORIENTED_EDGE('',*,*,#683,.F.);
#895=ORIENTED_EDGE('',*,*,#684,.T.);
#896=ORIENTED_EDGE('',*,*,#685,.T.);
#897=ORIENTED_EDGE('',*,*,#673,.T.);
#898=ORIENTED_EDGE('',*,*,#685,.F.);
#899=ORIENTED_EDGE('',*,*,#684,.F.);
#900=ORIENTED_EDGE('',*,*,#686,.T.);
#901=ORIENTED_EDGE('',*,*,#575,.T.);
#902=ORIENTED_EDGE('',*,*,#686,.F.);
#903=ORIENTED_EDGE('',*,*,#687,.T.);
#904=ORIENTED_EDGE('',*,*,#688,.T.);
#905=ORIENTED_EDGE('',*,*,#677,.T.);
#906=ORIENTED_EDGE('',*,*,#688,.F.);
#907=ORIENTED_EDGE('',*,*,#687,.F.);
#908=ORIENTED_EDGE('',*,*,#689,.T.);
#909=ORIENTED_EDGE('',*,*,#576,.T.);
#910=ORIENTED_EDGE('',*,*,#689,.F.);
#911=ORIENTED_EDGE('',*,*,#690,.T.);
#912=ORIENTED_EDGE('',*,*,#691,.T.);
#913=ORIENTED_EDGE('',*,*,#674,.T.);
#914=ORIENTED_EDGE('',*,*,#691,.F.);
#915=ORIENTED_EDGE('',*,*,#690,.F.);
#916=ORIENTED_EDGE('',*,*,#692,.T.);
#917=ORIENTED_EDGE('',*,*,#574,.T.);
#918=ORIENTED_EDGE('',*,*,#692,.F.);
#919=ORIENTED_EDGE('',*,*,#593,.T.);
#920=ORIENTED_EDGE('',*,*,#693,.F.);
#921=ORIENTED_EDGE('',*,*,#595,.T.);
#922=ORIENTED_EDGE('',*,*,#676,.F.);
#923=ORIENTED_EDGE('',*,*,#603,.T.);
#924=ORIENTED_EDGE('',*,*,#675,.F.);
#925=ORIENTED_EDGE('',*,*,#601,.F.);
#926=ORIENTED_EDGE('',*,*,#694,.F.);
#927=ORIENTED_EDGE('',*,*,#596,.F.);
#928=ORIENTED_EDGE('',*,*,#693,.T.);
#929=ORIENTED_EDGE('',*,*,#598,.F.);
#930=ORIENTED_EDGE('',*,*,#694,.T.);
#931=ORIENTED_EDGE('',*,*,#600,.F.);
#932=ORIENTED_EDGE('',*,*,#605,.F.);
#933=ORIENTED_EDGE('',*,*,#607,.F.);
#934=ORIENTED_EDGE('',*,*,#695,.F.);
#935=ORIENTED_EDGE('',*,*,#696,.F.);
#936=ORIENTED_EDGE('',*,*,#697,.F.);
#937=ORIENTED_EDGE('',*,*,#698,.F.);
#938=ORIENTED_EDGE('',*,*,#699,.F.);
#939=ORIENTED_EDGE('',*,*,#590,.F.);
#940=ORIENTED_EDGE('',*,*,#585,.T.);
#941=ORIENTED_EDGE('',*,*,#700,.F.);
#942=ORIENTED_EDGE('',*,*,#698,.T.);
#943=ORIENTED_EDGE('',*,*,#701,.F.);
#944=ORIENTED_EDGE('',*,*,#587,.T.);
#945=ORIENTED_EDGE('',*,*,#702,.F.);
#946=ORIENTED_EDGE('',*,*,#696,.T.);
#947=ORIENTED_EDGE('',*,*,#703,.F.);
#948=ORIENTED_EDGE('',*,*,#586,.T.);
#949=ORIENTED_EDGE('',*,*,#701,.T.);
#950=ORIENTED_EDGE('',*,*,#697,.T.);
#951=ORIENTED_EDGE('',*,*,#702,.T.);
#952=ORIENTED_EDGE('',*,*,#588,.T.);
#953=ORIENTED_EDGE('',*,*,#703,.T.);
#954=ORIENTED_EDGE('',*,*,#695,.T.);
#955=ORIENTED_EDGE('',*,*,#606,.T.);
#956=ORIENTED_EDGE('',*,*,#584,.T.);
#957=ORIENTED_EDGE('',*,*,#591,.T.);
#958=ORIENTED_EDGE('',*,*,#699,.T.);
#959=ORIENTED_EDGE('',*,*,#700,.T.);
#960=ORIENTED_EDGE('',*,*,#704,.T.);
#961=ORIENTED_EDGE('',*,*,#637,.F.);
#962=ORIENTED_EDGE('',*,*,#705,.T.);
#963=ORIENTED_EDGE('',*,*,#561,.T.);
#964=ORIENTED_EDGE('',*,*,#705,.F.);
#965=ORIENTED_EDGE('',*,*,#636,.F.);
#966=ORIENTED_EDGE('',*,*,#706,.T.);
#967=ORIENTED_EDGE('',*,*,#562,.T.);
#968=ORIENTED_EDGE('',*,*,#706,.F.);
#969=ORIENTED_EDGE('',*,*,#635,.F.);
#970=ORIENTED_EDGE('',*,*,#707,.T.);
#971=ORIENTED_EDGE('',*,*,#563,.T.);
#972=ORIENTED_EDGE('',*,*,#707,.F.);
#973=ORIENTED_EDGE('',*,*,#634,.F.);
#974=ORIENTED_EDGE('',*,*,#708,.T.);
#975=ORIENTED_EDGE('',*,*,#564,.T.);
#976=ORIENTED_EDGE('',*,*,#708,.F.);
#977=ORIENTED_EDGE('',*,*,#633,.F.);
#978=ORIENTED_EDGE('',*,*,#640,.F.);
#979=ORIENTED_EDGE('',*,*,#643,.F.);
#980=ORIENTED_EDGE('',*,*,#645,.F.);
#981=ORIENTED_EDGE('',*,*,#621,.F.);
#982=ORIENTED_EDGE('',*,*,#709,.T.);
#983=ORIENTED_EDGE('',*,*,#565,.T.);
#984=ORIENTED_EDGE('',*,*,#709,.F.);
#985=ORIENTED_EDGE('',*,*,#620,.F.);
#986=ORIENTED_EDGE('',*,*,#710,.T.);
#987=ORIENTED_EDGE('',*,*,#566,.T.);
#988=ORIENTED_EDGE('',*,*,#710,.F.);
#989=ORIENTED_EDGE('',*,*,#619,.F.);
#990=ORIENTED_EDGE('',*,*,#711,.T.);
#991=ORIENTED_EDGE('',*,*,#567,.T.);
#992=ORIENTED_EDGE('',*,*,#711,.F.);
#993=ORIENTED_EDGE('',*,*,#618,.F.);
#994=ORIENTED_EDGE('',*,*,#712,.T.);
#995=ORIENTED_EDGE('',*,*,#568,.T.);
#996=ORIENTED_EDGE('',*,*,#712,.F.);
#997=ORIENTED_EDGE('',*,*,#617,.F.);
#998=ORIENTED_EDGE('',*,*,#713,.T.);
#999=ORIENTED_EDGE('',*,*,#569,.T.);
#1000=ORIENTED_EDGE('',*,*,#713,.F.);
#1001=ORIENTED_EDGE('',*,*,#616,.F.);
#1002=ORIENTED_EDGE('',*,*,#714,.T.);
#1003=ORIENTED_EDGE('',*,*,#570,.T.);
#1004=ORIENTED_EDGE('',*,*,#714,.F.);
#1005=ORIENTED_EDGE('',*,*,#615,.F.);
#1006=ORIENTED_EDGE('',*,*,#715,.T.);
#1007=ORIENTED_EDGE('',*,*,#571,.T.);
#1008=ORIENTED_EDGE('',*,*,#715,.F.);
#1009=ORIENTED_EDGE('',*,*,#614,.F.);
#1010=ORIENTED_EDGE('',*,*,#716,.T.);
#1011=ORIENTED_EDGE('',*,*,#572,.T.);
#1012=ORIENTED_EDGE('',*,*,#656,.F.);
#1013=ORIENTED_EDGE('',*,*,#679,.T.);
#1014=ORIENTED_EDGE('',*,*,#623,.F.);
#1015=ORIENTED_EDGE('',*,*,#646,.F.);
#1016=ORIENTED_EDGE('',*,*,#644,.F.);
#1017=ORIENTED_EDGE('',*,*,#641,.F.);
#1018=ORIENTED_EDGE('',*,*,#631,.F.);
#1019=ORIENTED_EDGE('',*,*,#680,.F.);
#1020=ORIENTED_EDGE('',*,*,#717,.F.);
#1021=ORIENTED_EDGE('',*,*,#718,.T.);
#1022=ORIENTED_EDGE('',*,*,#610,.F.);
#1023=ORIENTED_EDGE('',*,*,#638,.F.);
#1024=ORIENTED_EDGE('',*,*,#704,.F.);
#1025=ORIENTED_EDGE('',*,*,#573,.T.);
#1026=ORIENTED_EDGE('',*,*,#716,.F.);
#1027=ORIENTED_EDGE('',*,*,#613,.F.);
#1028=ORIENTED_EDGE('',*,*,#719,.F.);
#1029=ORIENTED_EDGE('',*,*,#720,.F.);
#1030=ORIENTED_EDGE('',*,*,#611,.F.);
#1031=ORIENTED_EDGE('',*,*,#718,.F.);
#1032=ORIENTED_EDGE('',*,*,#721,.F.);
#1033=ORIENTED_EDGE('',*,*,#627,.F.);
#1034=ORIENTED_EDGE('',*,*,#670,.F.);
#1035=ORIENTED_EDGE('',*,*,#666,.F.);
#1036=ORIENTED_EDGE('',*,*,#672,.T.);
#1037=ORIENTED_EDGE('',*,*,#628,.F.);
#1038=ORIENTED_EDGE('',*,*,#608,.F.);
#1039=ORIENTED_EDGE('',*,*,#720,.T.);
#1040=ORIENTED_EDGE('',*,*,#717,.T.);
#1041=ORIENTED_EDGE('',*,*,#612,.T.);
#1042=ORIENTED_EDGE('',*,*,#721,.T.);
#1043=ORIENTED_EDGE('',*,*,#719,.T.);
#1044=PLANE('',#1137);
#1045=PLANE('',#1149);
#1046=PLANE('',#1150);
#1047=PLANE('',#1153);
#1048=PLANE('',#1154);
#1049=PLANE('',#1157);
#1050=PLANE('',#1158);
#1051=PLANE('',#1163);
#1052=PLANE('',#1166);
#1053=PLANE('',#1167);
#1054=PLANE('',#1168);
#1055=PLANE('',#1183);
#1056=PLANE('',#1185);
#1057=PLANE('',#1186);
#1058=PLANE('',#1211);
#1059=PLANE('',#1216);
#1060=PLANE('',#1217);
#1061=PLANE('',#1218);
#1062=PLANE('',#1219);
#1063=PLANE('',#1220);
#1064=PLANE('',#1222);
#1065=PLANE('',#1223);
#1066=PLANE('',#1224);
#1067=PLANE('',#1226);
#1068=PLANE('',#1227);
#1069=PLANE('',#1228);
#1070=PLANE('',#1230);
#1071=PLANE('',#1231);
#1072=PLANE('',#1232);
#1073=PLANE('',#1233);
#1074=PLANE('',#1234);
#1075=PLANE('',#1235);
#1076=ADVANCED_FACE('',(#60,#49,#50,#51,#52,#53),#1044,.F.);
#1077=ADVANCED_FACE('',(#61),#1045,.T.);
#1078=ADVANCED_FACE('',(#62),#1046,.T.);
#1079=ADVANCED_FACE('',(#63),#29,.T.);
#1080=ADVANCED_FACE('',(#64),#1047,.T.);
#1081=ADVANCED_FACE('',(#65),#1048,.T.);
#1082=ADVANCED_FACE('',(#66),#30,.T.);
#1083=ADVANCED_FACE('',(#67),#1049,.F.);
#1084=ADVANCED_FACE('',(#68),#1050,.F.);
#1085=ADVANCED_FACE('',(#69),#1051,.F.);
#1086=ADVANCED_FACE('',(#70),#1052,.T.);
#1087=ADVANCED_FACE('',(#71),#1053,.T.);
#1088=ADVANCED_FACE('',(#72),#1054,.T.);
#1089=ADVANCED_FACE('',(#73),#31,.T.);
#1090=ADVANCED_FACE('',(#74),#19,.T.);
#1091=ADVANCED_FACE('',(#75),#32,.T.);
#1092=ADVANCED_FACE('',(#76),#20,.T.);
#1093=ADVANCED_FACE('',(#77),#33,.T.);
#1094=ADVANCED_FACE('',(#78),#21,.T.);
#1095=ADVANCED_FACE('',(#79),#34,.T.);
#1096=ADVANCED_FACE('',(#80),#1055,.T.);
#1097=ADVANCED_FACE('',(#81),#35,.T.);
#1098=ADVANCED_FACE('',(#82),#1056,.T.);
#1099=ADVANCED_FACE('',(#83,#54,#55,#56,#57,#58,#59),#1057,.T.);
#1100=ADVANCED_FACE('',(#84),#36,.T.);
#1101=ADVANCED_FACE('',(#85),#37,.T.);
#1102=ADVANCED_FACE('',(#86),#15,.F.);
#1103=ADVANCED_FACE('',(#87),#38,.F.);
#1104=ADVANCED_FACE('',(#88),#16,.F.);
#1105=ADVANCED_FACE('',(#89),#39,.F.);
#1106=ADVANCED_FACE('',(#90),#17,.F.);
#1107=ADVANCED_FACE('',(#91),#40,.F.);
#1108=ADVANCED_FACE('',(#92),#18,.F.);
#1109=ADVANCED_FACE('',(#93),#41,.F.);
#1110=ADVANCED_FACE('',(#94),#42,.F.);
#1111=ADVANCED_FACE('',(#95),#43,.F.);
#1112=ADVANCED_FACE('',(#96),#1058,.F.);
#1113=ADVANCED_FACE('',(#97),#44,.T.);
#1114=ADVANCED_FACE('',(#98),#45,.T.);
#1115=ADVANCED_FACE('',(#99),#1059,.T.);
#1116=ADVANCED_FACE('',(#100),#1060,.T.);
#1117=ADVANCED_FACE('',(#101),#1061,.T.);
#1118=ADVANCED_FACE('',(#102),#1062,.T.);
#1119=ADVANCED_FACE('',(#103),#1063,.T.);
#1120=ADVANCED_FACE('',(#104),#46,.F.);
#1121=ADVANCED_FACE('',(#105),#1064,.T.);
#1122=ADVANCED_FACE('',(#106),#1065,.T.);
#1123=ADVANCED_FACE('',(#107),#1066,.T.);
#1124=ADVANCED_FACE('',(#108),#47,.F.);
#1125=ADVANCED_FACE('',(#109),#1067,.T.);
#1126=ADVANCED_FACE('',(#110),#1068,.T.);
#1127=ADVANCED_FACE('',(#111),#1069,.T.);
#1128=ADVANCED_FACE('',(#112),#48,.F.);
#1129=ADVANCED_FACE('',(#113),#1070,.T.);
#1130=ADVANCED_FACE('',(#114),#1071,.T.);
#1131=ADVANCED_FACE('',(#115),#1072,.T.);
#1132=ADVANCED_FACE('',(#116),#1073,.T.);
#1133=ADVANCED_FACE('',(#117),#1074,.T.);
#1134=ADVANCED_FACE('',(#118),#1075,.F.);
#1135=CLOSED_SHELL('',(#1076,#1077,#1078,#1079,#1080,#1081,#1082,#1083,
#1084,#1085,#1086,#1087,#1088,#1089,#1090,#1091,#1092,#1093,#1094,#1095,
#1096,#1097,#1098,#1099,#1100,#1101,#1102,#1103,#1104,#1105,#1106,#1107,
#1108,#1109,#1110,#1111,#1112,#1113,#1114,#1115,#1116,#1117,#1118,#1119,
#1120,#1121,#1122,#1123,#1124,#1125,#1126,#1127,#1128,#1129,#1130,#1131,
#1132,#1133,#1134));
#1136=AXIS2_PLACEMENT_3D('',#1551,#1236,#1237);
#1137=AXIS2_PLACEMENT_3D('',#1552,#1238,#1239);
#1138=AXIS2_PLACEMENT_3D('',#1559,#1242,#1243);
#1139=AXIS2_PLACEMENT_3D('',#1567,#1247,#1248);
#1140=AXIS2_PLACEMENT_3D('',#1575,#1252,#1253);
#1141=AXIS2_PLACEMENT_3D('',#1580,#1256,#1257);
#1142=AXIS2_PLACEMENT_3D('',#1582,#1258,#1259);
#1143=AXIS2_PLACEMENT_3D('',#1584,#1260,#1261);
#1144=AXIS2_PLACEMENT_3D('',#1586,#1262,#1263);
#1145=AXIS2_PLACEMENT_3D('',#1589,#1264,#1265);
#1146=AXIS2_PLACEMENT_3D('',#1595,#1268,#1269);
#1147=AXIS2_PLACEMENT_3D('',#1603,#1273,#1274);
#1148=AXIS2_PLACEMENT_3D('',#1607,#1276,#1277);
#1149=AXIS2_PLACEMENT_3D('',#1609,#1279,#1280);
#1150=AXIS2_PLACEMENT_3D('',#1615,#1284,#1285);
#1151=AXIS2_PLACEMENT_3D('',#1625,#1291,#1292);
#1152=AXIS2_PLACEMENT_3D('',#1628,#1294,#1295);
#1153=AXIS2_PLACEMENT_3D('',#1629,#1296,#1297);
#1154=AXIS2_PLACEMENT_3D('',#1639,#1303,#1304);
#1155=AXIS2_PLACEMENT_3D('',#1643,#1307,#1308);
#1156=AXIS2_PLACEMENT_3D('',#1646,#1310,#1311);
#1157=AXIS2_PLACEMENT_3D('',#1647,#1312,#1313);
#1158=AXIS2_PLACEMENT_3D('',#1656,#1318,#1319);
#1159=AXIS2_PLACEMENT_3D('',#1665,#1323,#1324);
#1160=AXIS2_PLACEMENT_3D('',#1673,#1328,#1329);
#1161=AXIS2_PLACEMENT_3D('',#1683,#1334,#1335);
#1162=AXIS2_PLACEMENT_3D('',#1687,#1337,#1338);
#1163=AXIS2_PLACEMENT_3D('',#1689,#1340,#1341);
#1164=AXIS2_PLACEMENT_3D('',#1695,#1344,#1345);
#1165=AXIS2_PLACEMENT_3D('',#1705,#1350,#1351);
#1166=AXIS2_PLACEMENT_3D('',#1711,#1355,#1356);
#1167=AXIS2_PLACEMENT_3D('',#1717,#1360,#1361);
#1168=AXIS2_PLACEMENT_3D('',#1723,#1365,#1366);
#1169=AXIS2_PLACEMENT_3D('',#1726,#1369,#1370);
#1170=AXIS2_PLACEMENT_3D('',#1745,#1373,#1374);
#1171=AXIS2_PLACEMENT_3D('',#1746,#1375,#1376);
#1172=AXIS2_PLACEMENT_3D('',#1748,#1377,#1378);
#1173=AXIS2_PLACEMENT_3D('',#1762,#1379,#1380);
#1174=AXIS2_PLACEMENT_3D('',#1763,#1381,#1382);
#1175=AXIS2_PLACEMENT_3D('',#1780,#1385,#1386);
#1176=AXIS2_PLACEMENT_3D('',#1782,#1387,#1388);
#1177=AXIS2_PLACEMENT_3D('',#1784,#1389,#1390);
#1178=AXIS2_PLACEMENT_3D('',#1797,#1391,#1392);
#1179=AXIS2_PLACEMENT_3D('',#1814,#1395,#1396);
#1180=AXIS2_PLACEMENT_3D('',#1816,#1397,#1398);
#1181=AXIS2_PLACEMENT_3D('',#1818,#1399,#1400);
#1182=AXIS2_PLACEMENT_3D('',#1831,#1401,#1402);
#1183=AXIS2_PLACEMENT_3D('',#1834,#1405,#1406);
#1184=AXIS2_PLACEMENT_3D('',#1837,#1409,#1410);
#1185=AXIS2_PLACEMENT_3D('',#1839,#1412,#1413);
#1186=AXIS2_PLACEMENT_3D('',#1842,#1416,#1417);
#1187=AXIS2_PLACEMENT_3D('',#1844,#1418,#1419);
#1188=AXIS2_PLACEMENT_3D('',#1846,#1420,#1421);
#1189=AXIS2_PLACEMENT_3D('',#1847,#1422,#1423);
#1190=AXIS2_PLACEMENT_3D('',#1848,#1424,#1425);
#1191=AXIS2_PLACEMENT_3D('',#1850,#1426,#1427);
#1192=AXIS2_PLACEMENT_3D('',#1852,#1428,#1429);
#1193=AXIS2_PLACEMENT_3D('',#1853,#1430,#1431);
#1194=AXIS2_PLACEMENT_3D('',#1855,#1433,#1434);
#1195=AXIS2_PLACEMENT_3D('',#1857,#1436,#1437);
#1196=AXIS2_PLACEMENT_3D('',#1859,#1438,#1439);
#1197=AXIS2_PLACEMENT_3D('',#1861,#1441,#1442);
#1198=AXIS2_PLACEMENT_3D('',#1863,#1444,#1445);
#1199=AXIS2_PLACEMENT_3D('',#1865,#1446,#1447);
#1200=AXIS2_PLACEMENT_3D('',#1867,#1449,#1450);
#1201=AXIS2_PLACEMENT_3D('',#1869,#1452,#1453);
#1202=AXIS2_PLACEMENT_3D('',#1871,#1454,#1455);
#1203=AXIS2_PLACEMENT_3D('',#1873,#1457,#1458);
#1204=AXIS2_PLACEMENT_3D('',#1875,#1460,#1461);
#1205=AXIS2_PLACEMENT_3D('',#1877,#1462,#1463);
#1206=AXIS2_PLACEMENT_3D('',#1879,#1465,#1466);
#1207=AXIS2_PLACEMENT_3D('',#1881,#1468,#1469);
#1208=AXIS2_PLACEMENT_3D('',#1882,#1470,#1471);
#1209=AXIS2_PLACEMENT_3D('',#1883,#1472,#1473);
#1210=AXIS2_PLACEMENT_3D('',#1884,#1474,#1475);
#1211=AXIS2_PLACEMENT_3D('',#1885,#1476,#1477);
#1212=AXIS2_PLACEMENT_3D('',#1889,#1479,#1480);
#1213=AXIS2_PLACEMENT_3D('',#1893,#1482,#1483);
#1214=AXIS2_PLACEMENT_3D('',#1895,#1485,#1486);
#1215=AXIS2_PLACEMENT_3D('',#1898,#1489,#1490);
#1216=AXIS2_PLACEMENT_3D('',#1901,#1493,#1494);
#1217=AXIS2_PLACEMENT_3D('',#1902,#1495,#1496);
#1218=AXIS2_PLACEMENT_3D('',#1903,#1497,#1498);
#1219=AXIS2_PLACEMENT_3D('',#1904,#1499,#1500);
#1220=AXIS2_PLACEMENT_3D('',#1907,#1503,#1504);
#1221=AXIS2_PLACEMENT_3D('',#1909,#1506,#1507);
#1222=AXIS2_PLACEMENT_3D('',#1911,#1509,#1510);
#1223=AXIS2_PLACEMENT_3D('',#1913,#1512,#1513);
#1224=AXIS2_PLACEMENT_3D('',#1915,#1515,#1516);
#1225=AXIS2_PLACEMENT_3D('',#1917,#1518,#1519);
#1226=AXIS2_PLACEMENT_3D('',#1919,#1521,#1522);
#1227=AXIS2_PLACEMENT_3D('',#1921,#1524,#1525);
#1228=AXIS2_PLACEMENT_3D('',#1923,#1527,#1528);
#1229=AXIS2_PLACEMENT_3D('',#1925,#1530,#1531);
#1230=AXIS2_PLACEMENT_3D('',#1927,#1533,#1534);
#1231=AXIS2_PLACEMENT_3D('',#1929,#1536,#1537);
#1232=AXIS2_PLACEMENT_3D('',#1930,#1538,#1539);
#1233=AXIS2_PLACEMENT_3D('',#1934,#1542,#1543);
#1234=AXIS2_PLACEMENT_3D('',#1938,#1546,#1547);
#1235=AXIS2_PLACEMENT_3D('',#1940,#1549,#1550);
#1236=DIRECTION('axis',(0.,0.,1.));
#1237=DIRECTION('refdir',(1.,0.,0.));
#1238=DIRECTION('center_axis',(-3.61334689079101E-37,-1.,-1.66533453693773E-16));
#1239=DIRECTION('ref_axis',(1.,-3.61334689079101E-37,-6.01743137117085E-53));
#1240=DIRECTION('',(2.64696471328223E-15,1.66533453693773E-16,-1.));
#1241=DIRECTION('',(-0.0122660055180722,1.66520925336175E-16,-0.999924769724518));
#1242=DIRECTION('center_axis',(-3.61334689079101E-37,-1.,-1.66533453693773E-16));
#1243=DIRECTION('ref_axis',(-0.0440518173884787,0.,0.99902924751219));
#1244=DIRECTION('',(-0.999924769724524,2.04270026187114E-18,-0.01226600551759));
#1245=DIRECTION('',(-1.,-7.10689861407254E-32,4.26757182410322E-16));
#1246=DIRECTION('',(-0.999924769724518,-2.0427002619578E-18,0.0122660055181103));
#1247=DIRECTION('center_axis',(-3.61334689079101E-37,-1.,-1.66533453693773E-16));
#1248=DIRECTION('ref_axis',(0.999029247512187,0.,0.0440518173885333));
#1249=DIRECTION('',(-0.0122660055186873,-1.66520925336174E-16,0.999924769724511));
#1250=DIRECTION('',(1.66846109609711E-15,-1.66533453693773E-16,1.));
#1251=DIRECTION('',(0.0122660055179959,-1.66520925336175E-16,0.999924769724519));
#1252=DIRECTION('center_axis',(-3.61334689079101E-37,-1.,-1.66533453693773E-16));
#1253=DIRECTION('ref_axis',(0.0440518173884952,0.,-0.999029247512189));
#1254=DIRECTION('',(0.999924769724535,-2.04270026172533E-18,0.0122660055167145));
#1255=DIRECTION('',(1.,3.98580620013192E-32,-2.3934184064483E-16));
#1256=DIRECTION('center_axis',(3.61334689079101E-37,1.,1.66533453693773E-16));
#1257=DIRECTION('ref_axis',(1.,0.,0.));
#1258=DIRECTION('center_axis',(3.61334689079101E-37,1.,1.66533453693773E-16));
#1259=DIRECTION('ref_axis',(1.,0.,0.));
#1260=DIRECTION('center_axis',(3.61334689079101E-37,1.,1.66533453693773E-16));
#1261=DIRECTION('ref_axis',(1.,0.,0.));
#1262=DIRECTION('center_axis',(3.61334689079101E-37,1.,1.66533453693773E-16));
#1263=DIRECTION('ref_axis',(1.,0.,0.));
#1264=DIRECTION('center_axis',(-3.61334689079101E-37,-1.,-1.66533453693773E-16));
#1265=DIRECTION('ref_axis',(1.,0.,0.));
#1266=DIRECTION('',(0.,-1.66533453693773E-16,1.));
#1267=DIRECTION('',(-1.,4.60864004389433E-31,-2.76739377483994E-15));
#1268=DIRECTION('center_axis',(-3.61334689079101E-37,-1.,-1.66533453693773E-16));
#1269=DIRECTION('ref_axis',(1.,0.,0.));
#1270=DIRECTION('',(1.,-4.30139761519118E-31,2.58290085651729E-15));
#1271=DIRECTION('',(0.,-1.66533453693773E-16,1.));
#1272=DIRECTION('',(-1.,4.31332506814429E-32,-2.59004352519272E-16));
#1273=DIRECTION('center_axis',(-3.61334689079101E-37,-1.,-1.66533453693773E-16));
#1274=DIRECTION('ref_axis',(1.,0.,0.));
#1275=DIRECTION('',(-1.02936354882586E-5,1.6653345368495E-16,-0.99999999994702));
#1276=DIRECTION('center_axis',(-3.61334689079101E-37,-1.,-1.66533453693773E-16));
#1277=DIRECTION('ref_axis',(1.,0.,0.));
#1278=DIRECTION('',(1.,-3.61334689079101E-37,0.));
#1279=DIRECTION('center_axis',(1.,0.,0.));
#1280=DIRECTION('ref_axis',(0.,-1.66533453693773E-16,1.));
#1281=DIRECTION('',(0.,-1.,0.));
#1282=DIRECTION('',(0.,1.66533453693773E-16,-1.));
#1283=DIRECTION('',(0.,-1.,0.));
#1284=DIRECTION('center_axis',(2.58290085651729E-15,0.,-1.));
#1285=DIRECTION('ref_axis',(1.,-4.30139400184429E-31,2.58290085651729E-15));
#1286=DIRECTION('',(0.,-1.,0.));
#1287=DIRECTION('',(0.,1.,0.));
#1288=DIRECTION('',(-1.,4.30139400184429E-31,-2.58290085651729E-15));
#1289=DIRECTION('',(0.,-1.,0.));
#1290=DIRECTION('',(-1.,4.30139761519118E-31,-2.58290085651729E-15));
#1291=DIRECTION('center_axis',(0.,-1.,0.));
#1292=DIRECTION('ref_axis',(1.,0.,0.));
#1293=DIRECTION('',(0.,-1.,0.));
#1294=DIRECTION('center_axis',(3.61334689079101E-37,1.,1.66533453693773E-16));
#1295=DIRECTION('ref_axis',(1.,0.,0.));
#1296=DIRECTION('center_axis',(-2.76739377483994E-15,0.,1.));
#1297=DIRECTION('ref_axis',(-1.,4.60863643054744E-31,-2.76739377483994E-15));
#1298=DIRECTION('',(0.,1.,0.));
#1299=DIRECTION('',(1.,-4.60864004389433E-31,2.76739377483994E-15));
#1300=DIRECTION('',(0.,-1.,0.));
#1301=DIRECTION('',(1.,-4.60863643054744E-31,2.76739377483994E-15));
#1302=DIRECTION('',(0.,-1.,0.));
#1303=DIRECTION('center_axis',(1.,0.,0.));
#1304=DIRECTION('ref_axis',(0.,-1.66533453693773E-16,1.));
#1305=DIRECTION('',(0.,-1.,0.));
#1306=DIRECTION('',(0.,1.66533453693773E-16,-1.));
#1307=DIRECTION('center_axis',(0.,-1.,0.));
#1308=DIRECTION('ref_axis',(1.,0.,0.));
#1309=DIRECTION('',(0.,1.,0.));
#1310=DIRECTION('center_axis',(3.61334689079101E-37,1.,1.66533453693773E-16));
#1311=DIRECTION('ref_axis',(1.,0.,0.));
#1312=DIRECTION('center_axis',(1.,0.,0.));
#1313=DIRECTION('ref_axis',(0.,0.,-1.));
#1314=DIRECTION('',(0.,-1.,0.));
#1315=DIRECTION('',(0.,1.66533453693773E-16,-1.));
#1316=DIRECTION('',(0.,1.,0.));
#1317=DIRECTION('',(0.,0.,-1.));
#1318=DIRECTION('center_axis',(-3.61334689079101E-37,-1.,-1.66533453693773E-16));
#1319=DIRECTION('ref_axis',(1.,-3.61334689079101E-37,-6.01743137117085E-53));
#1320=DIRECTION('',(0.,1.66533453693773E-16,-1.));
#1321=DIRECTION('',(1.,3.98583689064559E-32,-2.3934184064483E-16));
#1322=DIRECTION('',(0.999924769724535,-2.04270026172533E-18,0.0122660055167145));
#1323=DIRECTION('center_axis',(-4.26083573089302E-37,-1.,-1.66533453693773E-16));
#1324=DIRECTION('ref_axis',(0.0440518173884952,1.66371790929296E-16,-0.999029247512189));
#1325=DIRECTION('',(0.0122660055179959,-1.66520925336175E-16,0.999924769724519));
#1326=DIRECTION('',(1.66846109609711E-15,-1.66533453693773E-16,1.));
#1327=DIRECTION('',(-0.0122660055186873,-1.66520925336174E-16,0.999924769724511));
#1328=DIRECTION('center_axis',(0.,-1.,-1.66533453693773E-16));
#1329=DIRECTION('ref_axis',(0.999029247512187,-7.33610129119987E-18,0.0440518173885333));
#1330=DIRECTION('',(-0.999924769724518,-2.0427002619578E-18,0.0122660055181103));
#1331=DIRECTION('',(-1.,-7.10693474754145E-32,4.26757182410322E-16));
#1332=DIRECTION('',(0.,-1.66533453693773E-16,1.));
#1333=DIRECTION('',(1.,4.73516565609792E-32,-2.84337203791202E-16));
#1334=DIRECTION('center_axis',(0.,1.,1.66533453693773E-16));
#1335=DIRECTION('ref_axis',(0.999173420768658,-6.76969290186184E-18,0.0406506485736503));
#1336=DIRECTION('',(-1.45039980598353E-16,1.66533453693773E-16,-1.));
#1337=DIRECTION('center_axis',(3.61334689079103E-37,1.,1.66533453693773E-16));
#1338=DIRECTION('ref_axis',(0.0406506485736739,1.66395800599626E-16,-0.999173420768657));
#1339=DIRECTION('',(-1.,-7.66015271873017E-32,4.59976812395658E-16));
#1340=DIRECTION('center_axis',(-3.61334689079101E-37,-1.,-1.66533453693773E-16));
#1341=DIRECTION('ref_axis',(1.,-3.61334689079101E-37,-6.01743137117085E-53));
#1342=DIRECTION('',(-1.,-7.66015271873017E-32,4.59976812395658E-16));
#1343=DIRECTION('',(2.65346578809046E-15,-1.66533453693773E-16,1.));
#1344=DIRECTION('center_axis',(0.,1.,1.66533453693773E-16));
#1345=DIRECTION('ref_axis',(-0.0406506485736821,-1.66395800599626E-16,0.999173420768657));
#1346=DIRECTION('',(1.,4.73516565609792E-32,-2.84337203791202E-16));
#1347=DIRECTION('',(0.,1.66533453693773E-16,-1.));
#1348=DIRECTION('',(-1.,-7.10693474754145E-32,4.26757182410322E-16));
#1349=DIRECTION('',(-0.999924769724524,2.04270026187114E-18,-0.01226600551759));
#1350=DIRECTION('center_axis',(0.,-1.,-1.66533453693773E-16));
#1351=DIRECTION('ref_axis',(-0.0440518173884787,-1.66371790929296E-16,0.99902924751219));
#1352=DIRECTION('',(-0.0122660055180722,1.66520925336175E-16,-0.999924769724518));
#1353=DIRECTION('',(2.64696471328223E-15,1.66533453693773E-16,-1.));
#1354=DIRECTION('',(1.,3.98583689064559E-32,-2.3934184064483E-16));
#1355=DIRECTION('center_axis',(-1.,0.,0.));
#1356=DIRECTION('ref_axis',(0.,0.,1.));
#1357=DIRECTION('',(0.,0.,1.));
#1358=DIRECTION('',(0.,-1.,0.));
#1359=DIRECTION('',(0.,1.,0.));
#1360=DIRECTION('center_axis',(0.,1.,0.));
#1361=DIRECTION('ref_axis',(0.,0.,1.));
#1362=DIRECTION('',(0.,0.,-1.));
#1363=DIRECTION('',(-1.,0.,4.26757182410322E-16));
#1364=DIRECTION('',(1.,0.,-2.84337203791202E-16));
#1365=DIRECTION('center_axis',(1.,0.,0.));
#1366=DIRECTION('ref_axis',(0.,0.,-1.));
#1367=DIRECTION('',(0.,1.,0.));
#1368=DIRECTION('',(0.,-1.,0.));
#1369=DIRECTION('center_axis',(2.65346578809046E-15,-1.66533453693773E-16,
1.));
#1370=DIRECTION('ref_axis',(-0.707106781186546,-0.707106781186549,0.));
#1371=DIRECTION('',(2.65346578809046E-15,-1.66533453693773E-16,1.));
#1372=DIRECTION('',(-2.65346578809046E-15,1.66533453693773E-16,-1.));
#1373=DIRECTION('center_axis',(-0.707106781186541,1.25607396694703E-14,
0.707106781186554));
#1374=DIRECTION('ref_axis',(-0.707106781186554,1.27962535382731E-14,-0.707106781186541));
#1375=DIRECTION('center_axis',(0.,1.,1.66533453693773E-16));
#1376=DIRECTION('ref_axis',(0.,-1.19981092992843E-16,1.));
#1377=DIRECTION('center_axis',(0.,1.,1.66533453693773E-16));
#1378=DIRECTION('ref_axis',(-0.707106781186202,-1.1775693440134E-16,0.707106781186893));
#1379=DIRECTION('center_axis',(0.,-1.,-1.66533453693773E-16));
#1380=DIRECTION('ref_axis',(-0.707106781186202,-1.21855797570857E-16,0.707106781186893));
#1381=DIRECTION('center_axis',(1.,4.73516565609791E-32,-2.84337203791202E-16));
#1382=DIRECTION('ref_axis',(0.,-0.707106781186549,0.707106781186546));
#1383=DIRECTION('',(1.,4.73516565609791E-32,-2.84337203791202E-16));
#1384=DIRECTION('',(-1.,-4.73516565609791E-32,2.84337203791202E-16));
#1385=DIRECTION('center_axis',(0.,1.,1.66533453693773E-16));
#1386=DIRECTION('ref_axis',(0.,-1.19981092992844E-16,1.));
#1387=DIRECTION('center_axis',(0.,-1.,-1.66533453693773E-16));
#1388=DIRECTION('ref_axis',(0.707106781186217,-1.21855797570857E-16,0.707106781186878));
#1389=DIRECTION('center_axis',(0.,1.,1.66533453693773E-16));
#1390=DIRECTION('ref_axis',(0.707106781186217,-1.17756934401338E-16,0.707106781186878));
#1391=DIRECTION('center_axis',(-1.45039980598353E-16,1.66533453693773E-16,
-1.));
#1392=DIRECTION('ref_axis',(0.707106781186546,-0.707106781186549,0.));
#1393=DIRECTION('',(1.45039980598353E-16,-1.66533453693773E-16,1.));
#1394=DIRECTION('',(-1.45039980598353E-16,1.66533453693773E-16,-1.));
#1395=DIRECTION('center_axis',(0.,1.,1.66533453693773E-16));
#1396=DIRECTION('ref_axis',(0.,-1.19981092992843E-16,1.));
#1397=DIRECTION('center_axis',(0.,-1.,-1.66533453693773E-16));
#1398=DIRECTION('ref_axis',(0.707106781186173,1.21855797570857E-16,-0.707106781186922));
#1399=DIRECTION('center_axis',(0.,1.,1.66533453693773E-16));
#1400=DIRECTION('ref_axis',(0.707106781186173,1.17756934401345E-16,-0.707106781186923));
#1401=DIRECTION('center_axis',(-1.,-7.66015271873017E-32,4.59976812395658E-16));
#1402=DIRECTION('ref_axis',(0.,-0.707106781186543,-0.707106781186552));
#1403=DIRECTION('',(1.,7.66015271873017E-32,-4.59976812395658E-16));
#1404=DIRECTION('',(-1.,-7.66015271873017E-32,4.59976812395658E-16));
#1405=DIRECTION('center_axis',(1.,0.,-1.45039980598353E-16));
#1406=DIRECTION('ref_axis',(1.45039980598353E-16,-1.66533453693773E-16,
1.));
#1407=DIRECTION('',(0.,1.,0.));
#1408=DIRECTION('',(0.,1.,0.));
#1409=DIRECTION('center_axis',(0.,-1.,0.));
#1410=DIRECTION('ref_axis',(0.0406506485736739,0.,-0.999173420768657));
#1411=DIRECTION('',(0.,1.,0.));
#1412=DIRECTION('center_axis',(-1.,0.,2.65346578809046E-15));
#1413=DIRECTION('ref_axis',(-2.65346578809046E-15,1.66533453693773E-16,
-1.));
#1414=DIRECTION('',(0.,1.,0.));
#1415=DIRECTION('',(0.,1.,0.));
#1416=DIRECTION('center_axis',(0.,-1.,-1.66533453693773E-16));
#1417=DIRECTION('ref_axis',(1.,0.,0.));
#1418=DIRECTION('center_axis',(0.,-1.,-1.66533453693773E-16));
#1419=DIRECTION('ref_axis',(1.,0.,0.));
#1420=DIRECTION('center_axis',(0.,-1.,-1.66533453693773E-16));
#1421=DIRECTION('ref_axis',(1.,0.,0.));
#1422=DIRECTION('center_axis',(0.,1.,1.66533453693773E-16));
#1423=DIRECTION('ref_axis',(1.,0.,0.));
#1424=DIRECTION('center_axis',(0.,1.,1.66533453693773E-16));
#1425=DIRECTION('ref_axis',(1.,0.,0.));
#1426=DIRECTION('center_axis',(0.,-1.,-1.66533453693773E-16));
#1427=DIRECTION('ref_axis',(1.,0.,0.));
#1428=DIRECTION('center_axis',(0.,-1.,-1.66533453693773E-16));
#1429=DIRECTION('ref_axis',(1.,0.,0.));
#1430=DIRECTION('center_axis',(0.,-1.,0.));
#1431=DIRECTION('ref_axis',(0.999173420768658,0.,0.0406506485736503));
#1432=DIRECTION('',(0.,1.,0.));
#1433=DIRECTION('center_axis',(0.,-1.,0.));
#1434=DIRECTION('ref_axis',(-0.0406506485736821,0.,0.999173420768657));
#1435=DIRECTION('',(0.,1.,0.));
#1436=DIRECTION('center_axis',(0.,-1.,0.));
#1437=DIRECTION('ref_axis',(1.,0.,0.));
#1438=DIRECTION('center_axis',(0.,1.,1.66533453693773E-16));
#1439=DIRECTION('ref_axis',(1.,0.,0.));
#1440=DIRECTION('',(-0.707106781186548,-0.707106781186547,8.65956056235494E-17));
#1441=DIRECTION('center_axis',(0.,-1.,0.));
#1442=DIRECTION('ref_axis',(1.,0.,0.));
#1443=DIRECTION('',(0.,1.,0.));
#1444=DIRECTION('center_axis',(0.,-1.,0.));
#1445=DIRECTION('ref_axis',(1.,0.,0.));
#1446=DIRECTION('center_axis',(0.,1.,1.66533453693773E-16));
#1447=DIRECTION('ref_axis',(1.,0.,0.));
#1448=DIRECTION('',(-0.70710678118655,-0.707106781186545,8.65956056235497E-17));
#1449=DIRECTION('center_axis',(0.,-1.,0.));
#1450=DIRECTION('ref_axis',(1.,0.,0.));
#1451=DIRECTION('',(0.,1.,0.));
#1452=DIRECTION('center_axis',(0.,-1.,0.));
#1453=DIRECTION('ref_axis',(1.,0.,0.));
#1454=DIRECTION('center_axis',(0.,1.,1.66533453693773E-16));
#1455=DIRECTION('ref_axis',(1.,0.,0.));
#1456=DIRECTION('',(-0.707106781186544,-0.707106781186551,8.65956056235489E-17));
#1457=DIRECTION('center_axis',(0.,-1.,0.));
#1458=DIRECTION('ref_axis',(1.,0.,0.));
#1459=DIRECTION('',(0.,1.,0.));
#1460=DIRECTION('center_axis',(0.,-1.,0.));
#1461=DIRECTION('ref_axis',(1.,0.,0.));
#1462=DIRECTION('center_axis',(0.,1.,1.66533453693773E-16));
#1463=DIRECTION('ref_axis',(1.,0.,0.));
#1464=DIRECTION('',(-0.707106781186544,-0.707106781186551,8.65956056235489E-17));
#1465=DIRECTION('center_axis',(0.,-1.,0.));
#1466=DIRECTION('ref_axis',(1.,0.,0.));
#1467=DIRECTION('',(0.,1.,0.));
#1468=DIRECTION('center_axis',(0.,-1.,0.));
#1469=DIRECTION('ref_axis',(1.,0.,0.));
#1470=DIRECTION('center_axis',(0.,-1.,-1.66533453693773E-16));
#1471=DIRECTION('ref_axis',(1.,0.,0.));
#1472=DIRECTION('center_axis',(0.,-1.,0.));
#1473=DIRECTION('ref_axis',(1.,0.,0.));
#1474=DIRECTION('center_axis',(0.,-1.,-1.66533453693773E-16));
#1475=DIRECTION('ref_axis',(1.,0.,0.));
#1476=DIRECTION('center_axis',(0.,-1.,-1.66533453693773E-16));
#1477=DIRECTION('ref_axis',(1.,0.,0.));
#1478=DIRECTION('',(-1.,3.61334689079101E-37,0.));
#1479=DIRECTION('center_axis',(3.61334689079101E-37,1.,1.66533453693773E-16));
#1480=DIRECTION('ref_axis',(1.,0.,0.));
#1481=DIRECTION('',(1.02936354882586E-5,-1.6653345368495E-16,0.99999999994702));
#1482=DIRECTION('center_axis',(3.61334689079101E-37,1.,1.66533453693773E-16));
#1483=DIRECTION('ref_axis',(1.,0.,0.));
#1484=DIRECTION('',(1.,-4.31332506814429E-32,2.59004352519272E-16));
#1485=DIRECTION('center_axis',(0.,-1.,0.));
#1486=DIRECTION('ref_axis',(-0.707191218947228,0.,0.707022333341694));
#1487=DIRECTION('',(0.,1.,0.));
#1488=DIRECTION('',(0.,-1.,0.));
#1489=DIRECTION('center_axis',(0.,-1.,0.));
#1490=DIRECTION('ref_axis',(-0.707110406163681,0.,-0.70710315619083));
#1491=DIRECTION('',(0.,1.,0.));
#1492=DIRECTION('',(0.,-1.,0.));
#1493=DIRECTION('center_axis',(-0.999999999947021,0.,1.02936354882586E-5));
#1494=DIRECTION('ref_axis',(-1.02936354882586E-5,1.6653345368495E-16,-0.99999999994702));
#1495=DIRECTION('center_axis',(0.,0.,-1.));
#1496=DIRECTION('ref_axis',(1.,0.,0.));
#1497=DIRECTION('center_axis',(-2.59004352519272E-16,0.,1.));
#1498=DIRECTION('ref_axis',(-1.,4.31328893467538E-32,-2.59004352519272E-16));
#1499=DIRECTION('center_axis',(1.,0.,2.64696471328223E-15));
#1500=DIRECTION('ref_axis',(2.64696471328223E-15,1.66533453693773E-16,-1.));
#1501=DIRECTION('',(0.,1.,0.));
#1502=DIRECTION('',(0.,-1.,0.));
#1503=DIRECTION('center_axis',(0.999924769724518,0.,-0.0122660055180722));
#1504=DIRECTION('ref_axis',(-0.0122660055180722,1.66520925336175E-16,-0.999924769724518));
#1505=DIRECTION('',(0.,-1.,0.));
#1506=DIRECTION('center_axis',(0.,1.,0.));
#1507=DIRECTION('ref_axis',(-0.0440518173884787,0.,0.99902924751219));
#1508=DIRECTION('',(0.,-1.,0.));
#1509=DIRECTION('center_axis',(0.01226600551759,0.,-0.999924769724524));
#1510=DIRECTION('ref_axis',(-0.999924769724524,2.04270026187114E-18,-0.01226600551759));
#1511=DIRECTION('',(0.,-1.,0.));
#1512=DIRECTION('center_axis',(-4.26757182410322E-16,0.,-1.));
#1513=DIRECTION('ref_axis',(-1.,-7.10693474754145E-32,4.26757182410322E-16));
#1514=DIRECTION('',(0.,-1.,0.));
#1515=DIRECTION('center_axis',(-0.0122660055181103,0.,-0.999924769724518));
#1516=DIRECTION('ref_axis',(-0.999924769724518,-2.0427002619578E-18,0.0122660055181103));
#1517=DIRECTION('',(0.,-1.,0.));
#1518=DIRECTION('center_axis',(0.,1.,0.));
#1519=DIRECTION('ref_axis',(0.999029247512187,0.,0.0440518173885333));
#1520=DIRECTION('',(0.,-1.,0.));
#1521=DIRECTION('center_axis',(-0.999924769724511,0.,-0.0122660055186873));
#1522=DIRECTION('ref_axis',(-0.0122660055186873,-1.66520925336174E-16,0.999924769724511));
#1523=DIRECTION('',(0.,-1.,0.));
#1524=DIRECTION('center_axis',(-1.,0.,1.66846109609711E-15));
#1525=DIRECTION('ref_axis',(1.66846109609711E-15,-1.66533453693773E-16,
1.));
#1526=DIRECTION('',(0.,-1.,0.));
#1527=DIRECTION('center_axis',(-0.999924769724519,0.,0.0122660055179959));
#1528=DIRECTION('ref_axis',(0.0122660055179959,-1.66520925336175E-16,0.999924769724519));
#1529=DIRECTION('',(0.,-1.,0.));
#1530=DIRECTION('center_axis',(0.,1.,0.));
#1531=DIRECTION('ref_axis',(0.0440518173884952,0.,-0.999029247512189));
#1532=DIRECTION('',(0.,-1.,0.));
#1533=DIRECTION('center_axis',(-0.0122660055167145,0.,0.999924769724535));
#1534=DIRECTION('ref_axis',(0.999924769724535,-2.04270026172533E-18,0.0122660055167145));
#1535=DIRECTION('',(0.,-1.,0.));
#1536=DIRECTION('center_axis',(2.84337203791202E-16,0.,1.));
#1537=DIRECTION('ref_axis',(-1.,-4.73516565609792E-32,2.84337203791202E-16));
#1538=DIRECTION('center_axis',(0.,0.,1.));
#1539=DIRECTION('ref_axis',(0.,-1.,0.));
#1540=DIRECTION('',(0.,-1.,0.));
#1541=DIRECTION('',(-1.,0.,0.));
#1542=DIRECTION('center_axis',(0.,1.,0.));
#1543=DIRECTION('ref_axis',(0.,0.,1.));
#1544=DIRECTION('',(0.,0.,1.));
#1545=DIRECTION('',(1.,0.,0.));
#1546=DIRECTION('center_axis',(0.,0.,-1.));
#1547=DIRECTION('ref_axis',(0.,1.,0.));
#1548=DIRECTION('',(0.,1.,0.));
#1549=DIRECTION('center_axis',(-1.,0.,0.));
#1550=DIRECTION('ref_axis',(0.,0.,1.));
#1551=CARTESIAN_POINT('',(0.,0.,0.));
#1552=CARTESIAN_POINT('Origin',(-8.88178419700125E-14,-0.549999999999987,
-4.00000000000002));
#1553=CARTESIAN_POINT('',(-21.5000000000002,-0.549999999999992,26.6091998501774));
#1554=CARTESIAN_POINT('',(-21.5,-0.549999999999981,-40.5));
#1555=CARTESIAN_POINT('',(-21.5000000000001,-0.54999999999999,11.3045999250887));
#1556=CARTESIAN_POINT('',(-21.4969231751797,-0.549999999999993,26.8600226095131));
#1557=CARTESIAN_POINT('',(-21.684556381939,-0.54999999999999,11.564163596164));
#1558=CARTESIAN_POINT('',(-15.8600226095028,-0.549999999999993,32.4969231751802));
#1559=CARTESIAN_POINT('Origin',(-15.600000009467,-0.549999999999987,26.600000009467));
#1560=CARTESIAN_POINT('',(-15.6091998502078,-0.549999999999993,32.5));
#1561=CARTESIAN_POINT('',(-8.02961192539052,-0.549999999999993,32.5929782620872));
#1562=CARTESIAN_POINT('',(15.609199850192,-0.549999999999993,32.5));
#1563=CARTESIAN_POINT('',(7.80459992509598,-0.549999999999993,32.5));
#1564=CARTESIAN_POINT('',(15.8600226095133,-0.549999999999993,32.4969231751797));
#1565=CARTESIAN_POINT('',(8.15502330505274,-0.549999999999993,32.5914398496807));
#1566=CARTESIAN_POINT('',(21.4969231751802,-0.549999999999993,26.8600226095031));
#1567=CARTESIAN_POINT('Origin',(15.600000009467,-0.549999999999987,26.600000009467));
#1568=CARTESIAN_POINT('',(21.4999999999999,-0.549999999999992,26.6091998502378));
#1569=CARTESIAN_POINT('',(21.6860947943585,-0.54999999999999,11.4387522165332));
#1570=CARTESIAN_POINT('',(21.4999999999998,-0.549999999999982,-34.6091998502067));
#1571=CARTESIAN_POINT('',(21.4999999999998,-0.549999999999985,-19.3045999251034));
#1572=CARTESIAN_POINT('',(21.4969231751797,-0.549999999999982,-34.8600226095133));
#1573=CARTESIAN_POINT('',(21.6845563819378,-0.549999999999985,-19.5641635961633));
#1574=CARTESIAN_POINT('',(15.8600226095029,-0.549999999999981,-40.4969231751802));
#1575=CARTESIAN_POINT('Origin',(15.600000009467,-0.549999999999987,-34.600000009467));
#1576=CARTESIAN_POINT('',(15.6091998501897,-0.549999999999981,-40.5));
#1577=CARTESIAN_POINT('',(8.0296119253652,-0.549999999999981,-40.5929782620806));
#1578=CARTESIAN_POINT('',(-10.75,-0.549999999999981,-40.5));
#1579=CARTESIAN_POINT('',(-17.600000009467,-0.549999999999992,26.600000009467));
#1580=CARTESIAN_POINT('Origin',(-15.600000009467,-0.549999999999987,26.600000009467));
#1581=CARTESIAN_POINT('',(13.600000009467,-0.549999999999982,-34.600000009467));
#1582=CARTESIAN_POINT('Origin',(15.600000009467,-0.549999999999987,-34.600000009467));
#1583=CARTESIAN_POINT('',(13.600000009467,-0.549999999999992,26.600000009467));
#1584=CARTESIAN_POINT('Origin',(15.600000009467,-0.549999999999987,26.600000009467));
#1585=CARTESIAN_POINT('',(-17.6,-0.549999999999986,-13.4));
#1586=CARTESIAN_POINT('Origin',(-15.6,-0.549999999999987,-13.4));
#1587=CARTESIAN_POINT('',(-18.7,-0.549999999999992,24.0721566504229));
#1588=CARTESIAN_POINT('',(-13.0721566504229,-0.549999999999993,29.7));
#1589=CARTESIAN_POINT('Origin',(-15.6,-0.549999999999987,26.6));
#1590=CARTESIAN_POINT('',(-18.7,-0.549999999999986,-9.40173303508687));
#1591=CARTESIAN_POINT('',(-18.7,-0.549999999999985,-20.85));
#1592=CARTESIAN_POINT('',(-15.4823000540137,-0.549999999999986,-9.40173303508686));
#1593=CARTESIAN_POINT('',(-7.74115002700689,-0.549999999999986,-9.40173303508684));
#1594=CARTESIAN_POINT('',(-15.4823000540137,-0.549999999999985,-17.3982669649132));
#1595=CARTESIAN_POINT('Origin',(-15.6,-0.549999999999987,-13.4));
#1596=CARTESIAN_POINT('',(-18.7,-0.549999999999985,-17.3982669649132));
#1597=CARTESIAN_POINT('',(-9.35000000000003,-0.549999999999985,-17.3982669649132));
#1598=CARTESIAN_POINT('',(-18.7,-0.549999999999982,-37.7));
#1599=CARTESIAN_POINT('',(-18.7,-0.549999999999985,-20.85));
#1600=CARTESIAN_POINT('',(13.0721566504229,-0.549999999999982,-37.7));
#1601=CARTESIAN_POINT('',(7.79601339825046,-0.549999999999982,-37.7));
#1602=CARTESIAN_POINT('',(18.6993961606861,-0.549999999999983,-32.0714163175554));
#1603=CARTESIAN_POINT('Origin',(15.6,-0.549999999999987,-34.6));
#1604=CARTESIAN_POINT('',(18.6999740818341,-0.549999999999992,24.072124866225));
#1605=CARTESIAN_POINT('',(18.6998425682003,-0.54999999999999,11.2959163078512));
#1606=CARTESIAN_POINT('',(13.0721566504229,-0.549999999999993,29.7));
#1607=CARTESIAN_POINT('Origin',(15.6,-0.549999999999987,26.6));
#1608=CARTESIAN_POINT('',(-7.79601339825053,-0.549999999999993,29.7));
#1609=CARTESIAN_POINT('Origin',(-18.7,-0.0499999999999818,-37.7));
#1610=CARTESIAN_POINT('',(-18.7,-3.44999999999999,-17.3982669649132));
#1611=CARTESIAN_POINT('',(-18.7,-0.0499999999999834,-17.3982669649132));
#1612=CARTESIAN_POINT('',(-18.7,-3.44999999999998,-37.7));
#1613=CARTESIAN_POINT('',(-18.7,-3.44999999999998,-20.85));
#1614=CARTESIAN_POINT('',(-18.7,-0.0499999999999818,-37.7));
#1615=CARTESIAN_POINT('Origin',(-18.7,-0.0499999999999851,-17.3982669649132));
#1616=CARTESIAN_POINT('',(-15.4823000540137,-3.44999999999999,-17.3982669649132));
#1617=CARTESIAN_POINT('',(-15.4823000540137,-0.0499999999999851,-17.3982669649132));
#1618=CARTESIAN_POINT('',(-15.4823000540137,-5.44999999999999,-17.3982669649132));
#1619=CARTESIAN_POINT('',(-15.4823000540137,-3.44999999999999,-17.3982669649132));
#1620=CARTESIAN_POINT('',(-15.7176999459862,-5.44999999999999,-17.3982669649132));
#1621=CARTESIAN_POINT('',(-9.35000000000003,-5.44999999999999,-17.3982669649132));
#1622=CARTESIAN_POINT('',(-15.7176999459862,-3.44999999999999,-17.3982669649132));
#1623=CARTESIAN_POINT('',(-15.7176999459862,-3.44999999999999,-17.3982669649132));
#1624=CARTESIAN_POINT('',(-9.34999999480783,-3.44999999999999,-17.3982669649132));
#1625=CARTESIAN_POINT('Origin',(-15.6,-0.0499999999999858,-13.4));
#1626=CARTESIAN_POINT('',(-15.4823000540137,-3.44999999999999,-9.40173303508686));
#1627=CARTESIAN_POINT('',(-15.4823000540137,-0.0499999999999865,-9.40173303508686));
#1628=CARTESIAN_POINT('Origin',(-15.6,-3.44999999999999,-13.4));
#1629=CARTESIAN_POINT('Origin',(-15.4823000540137,-0.0499999999999865,-9.40173303508686));
#1630=CARTESIAN_POINT('',(-18.7,-3.44999999999999,-9.40173303508687));
#1631=CARTESIAN_POINT('',(-18.7,-0.0499999999999841,-9.40173303508687));
#1632=CARTESIAN_POINT('',(-15.7176999459863,-3.44999999999999,-9.40173303508686));
#1633=CARTESIAN_POINT('',(-7.7411500218147,-3.44999999999999,-9.40173303508684));
#1634=CARTESIAN_POINT('',(-15.7176999459863,-5.44999999999999,-9.40173303508686));
#1635=CARTESIAN_POINT('',(-15.7176999459863,-3.44999999999999,-9.40173303508686));
#1636=CARTESIAN_POINT('',(-15.4823000540137,-5.44999999999999,-9.40173303508686));
#1637=CARTESIAN_POINT('',(-7.74115002700689,-5.44999999999999,-9.40173303508684));
#1638=CARTESIAN_POINT('',(-15.4823000540138,-3.44999999999999,-9.40173303508686));
#1639=CARTESIAN_POINT('Origin',(-18.7,-0.0499999999999818,-37.7));
#1640=CARTESIAN_POINT('',(-18.7,-3.44999999999999,24.0721566504229));
#1641=CARTESIAN_POINT('',(-18.7,-0.0499999999999925,24.0721566504229));
#1642=CARTESIAN_POINT('',(-18.7,-3.44999999999998,-20.85));
#1643=CARTESIAN_POINT('Origin',(-15.6,-0.0499999999999925,26.6));
#1644=CARTESIAN_POINT('',(-13.0721566504229,-3.44999999999999,29.7));
#1645=CARTESIAN_POINT('',(-13.0721566504229,-0.0499999999999925,29.7));
#1646=CARTESIAN_POINT('Origin',(-15.6,-3.44999999999999,26.6));
#1647=CARTESIAN_POINT('Origin',(-20.,2.45000000000001,-41.25));
#1648=CARTESIAN_POINT('',(-20.,2.95000000000001,-42.));
#1649=CARTESIAN_POINT('',(-20.,1.95000000000001,-42.));
#1650=CARTESIAN_POINT('',(-20.,2.70000000000001,-42.));
#1651=CARTESIAN_POINT('',(-20.,1.95000000000001,-40.5));
#1652=CARTESIAN_POINT('',(-20.,1.95000000000002,-22.625));
#1653=CARTESIAN_POINT('',(-20.,2.95000000000001,-40.5));
#1654=CARTESIAN_POINT('',(-20.,2.20000000000001,-40.5));
#1655=CARTESIAN_POINT('',(-20.,2.95000000000001,-40.875));
#1656=CARTESIAN_POINT('Origin',(-8.88178419700125E-14,1.95000000000001,
-4.00000000000002));
#1657=CARTESIAN_POINT('',(11.0000001639128,1.95000000000001,-40.5));
#1658=CARTESIAN_POINT('',(11.0000001639128,1.95000000000001,-42.));
#1659=CARTESIAN_POINT('',(11.0000001639128,1.95000000000002,-40.875));
#1660=CARTESIAN_POINT('',(15.6091998501897,1.95000000000002,-40.5));
#1661=CARTESIAN_POINT('',(-21.5,1.95000000000002,-40.5));
#1662=CARTESIAN_POINT('',(15.8600226095029,1.95000000000002,-40.4969231751802));
#1663=CARTESIAN_POINT('',(15.6091998501897,1.95000000000002,-40.5));
#1664=CARTESIAN_POINT('',(21.4969231751797,1.95000000000002,-34.8600226095132));
#1665=CARTESIAN_POINT('Origin',(15.600000009467,1.95000000000002,-34.600000009467));
#1666=CARTESIAN_POINT('',(21.4999999999998,1.95000000000002,-34.6091998502067));
#1667=CARTESIAN_POINT('',(21.4969231751797,1.95000000000002,-34.8600226095132));
#1668=CARTESIAN_POINT('',(21.4999999999999,1.95000000000001,26.6091998502378));
#1669=CARTESIAN_POINT('',(21.4999999999998,1.95000000000002,-34.6091998502067));
#1670=CARTESIAN_POINT('',(21.4969231751802,1.95000000000001,26.8600226095031));
#1671=CARTESIAN_POINT('',(21.4999999999999,1.95000000000001,26.6091998502378));
#1672=CARTESIAN_POINT('',(15.8600226095133,1.95000000000001,32.4969231751797));
#1673=CARTESIAN_POINT('Origin',(15.600000009467,1.95000000000001,26.600000009467));
#1674=CARTESIAN_POINT('',(15.609199850192,1.95000000000001,32.5));
#1675=CARTESIAN_POINT('',(15.8600226095133,1.95000000000001,32.4969231751797));
#1676=CARTESIAN_POINT('',(-2.14999995194376,1.95000000000001,32.5));
#1677=CARTESIAN_POINT('',(15.609199850192,1.95000000000001,32.5));
#1678=CARTESIAN_POINT('',(-2.14999995194376,1.95000000000001,34.));
#1679=CARTESIAN_POINT('',(-2.14999995194376,1.95000000000001,14.5));
#1680=CARTESIAN_POINT('',(15.7981773489527,1.95000000000001,34.));
#1681=CARTESIAN_POINT('',(15.6183997003843,1.95000000000001,34.));
#1682=CARTESIAN_POINT('',(22.9999999999998,1.95000000000001,26.7981773489595));
#1683=CARTESIAN_POINT('Origin',(15.600000009467,1.95000000000001,26.600000009467));
#1684=CARTESIAN_POINT('',(22.9999999999998,1.95000000000002,-34.7981773489601));
#1685=CARTESIAN_POINT('',(22.9999999999998,1.95000000000002,-34.6183997003989));
#1686=CARTESIAN_POINT('',(15.7981773489523,1.95000000000002,-42.));
#1687=CARTESIAN_POINT('Origin',(15.600000009467,1.95000000000002,-34.600000009467));
#1688=CARTESIAN_POINT('',(-23.,1.95000000000002,-42.));
#1689=CARTESIAN_POINT('Origin',(-8.88178419700125E-14,1.95000000000001,
-4.00000000000002));
#1690=CARTESIAN_POINT('',(-23.,1.95000000000002,-42.));
#1691=CARTESIAN_POINT('',(-23.,1.95000000000002,-42.));
#1692=CARTESIAN_POINT('',(-22.9999999999998,1.95000000000001,26.7981773489597));
#1693=CARTESIAN_POINT('',(-22.9999999999998,1.95000000000001,26.618399700399));
#1694=CARTESIAN_POINT('',(-15.7981773489526,1.95000000000001,34.));
#1695=CARTESIAN_POINT('Origin',(-15.600000009467,1.95000000000001,26.600000009467));
#1696=CARTESIAN_POINT('',(-9.64081511021313,1.95000000000001,34.));
#1697=CARTESIAN_POINT('',(15.6183997003843,1.95000000000001,34.));
#1698=CARTESIAN_POINT('',(-9.64081511021313,1.95000000000001,32.5));
#1699=CARTESIAN_POINT('',(-9.64081511021313,1.95000000000001,14.75));
#1700=CARTESIAN_POINT('',(-15.6091998502078,1.95000000000001,32.5));
#1701=CARTESIAN_POINT('',(15.609199850192,1.95000000000001,32.5));
#1702=CARTESIAN_POINT('',(-15.8600226095028,1.95000000000001,32.4969231751802));
#1703=CARTESIAN_POINT('',(-15.6091998502078,1.95000000000001,32.5));
#1704=CARTESIAN_POINT('',(-21.4969231751797,1.95000000000001,26.8600226095131));
#1705=CARTESIAN_POINT('Origin',(-15.600000009467,1.95000000000001,26.600000009467));
#1706=CARTESIAN_POINT('',(-21.5000000000002,1.95000000000001,26.6091998501774));
#1707=CARTESIAN_POINT('',(-21.4969231751797,1.95000000000001,26.8600226095131));
#1708=CARTESIAN_POINT('',(-21.5,1.95000000000002,-40.5));
#1709=CARTESIAN_POINT('',(-21.5000000000002,1.95000000000001,26.6091998501774));
#1710=CARTESIAN_POINT('',(-21.5,1.95000000000002,-40.5));
#1711=CARTESIAN_POINT('Origin',(-9.64081511021313,1.95000000000001,32.5));
#1712=CARTESIAN_POINT('',(-9.64081511021313,3.55000000000001,32.5));
#1713=CARTESIAN_POINT('',(-9.64081511021313,3.55000000000001,34.));
#1714=CARTESIAN_POINT('',(-9.64081511021313,3.55000000000001,32.5));
#1715=CARTESIAN_POINT('',(-9.64081511021313,2.35000000000001,32.5));
#1716=CARTESIAN_POINT('',(-9.64081511021313,3.15000000000001,34.));
#1717=CARTESIAN_POINT('Origin',(-5.89540753107844,3.55000000000001,33.25));
#1718=CARTESIAN_POINT('',(-2.14999995194376,3.55000000000001,34.));
#1719=CARTESIAN_POINT('',(-2.14999995194376,3.55000000000001,32.5));
#1720=CARTESIAN_POINT('',(-2.14999995194376,3.55000000000001,33.));
#1721=CARTESIAN_POINT('',(-7.76811132064578,3.55000000000001,32.5));
#1722=CARTESIAN_POINT('',(-4.0227037415111,3.55000000000001,34.));
#1723=CARTESIAN_POINT('Origin',(-2.14999995194376,1.95000000000001,34.));
#1724=CARTESIAN_POINT('',(-2.14999995194376,3.15000000000001,32.5));
#1725=CARTESIAN_POINT('',(-2.14999995194376,2.35000000000001,34.));
#1726=CARTESIAN_POINT('Origin',(-22.4999999999999,-4.94999999999999,11.3091998501995));
#1727=CARTESIAN_POINT('',(-22.5,-5.44999999999998,-41.5));
#1728=CARTESIAN_POINT('',(-22.4999999999998,-5.44999999999999,26.7913663268994));
#1729=CARTESIAN_POINT('',(-22.4999999999999,-5.44999999999999,11.3091998501995));
#1730=CARTESIAN_POINT('',(-22.9999999999998,-4.94999999999999,26.7981773489597));
#1731=CARTESIAN_POINT('Ctrl Pts',(-22.4999999999998,-5.44999999999999,26.7913663268994));
#1732=CARTESIAN_POINT('Ctrl Pts',(-22.5018729356708,-5.44999999999999,26.791392294139));
#1733=CARTESIAN_POINT('Ctrl Pts',(-22.5037458566482,-5.44998947633588,26.7914182558683));
#1734=CARTESIAN_POINT('Ctrl Pts',(-22.5710489966514,-5.4492331197422,26.792350998059));
#1735=CARTESIAN_POINT('Ctrl Pts',(-22.6357036441755,-5.43566071275904,26.7932403782997));
#1736=CARTESIAN_POINT('Ctrl Pts',(-22.7558077434233,-5.38451260888897,26.7948824135966));
#1737=CARTESIAN_POINT('Ctrl Pts',(-22.8101541110013,-5.34754686850422,26.795620165911));
#1738=CARTESIAN_POINT('Ctrl Pts',(-22.9016150949232,-5.25486654077423,26.7968567399898));
#1739=CARTESIAN_POINT('Ctrl Pts',(-22.9378569264986,-5.20003972619023,26.7973439050123));
#1740=CARTESIAN_POINT('Ctrl Pts',(-22.987285215668,-5.07958115942591,26.798007328593));
#1741=CARTESIAN_POINT('Ctrl Pts',(-22.9999999999998,-5.01510194760745,26.7981773489594));
#1742=CARTESIAN_POINT('Ctrl Pts',(-22.9999999999998,-4.94999999999999,26.7981773489596));
#1743=CARTESIAN_POINT('',(-23.,-4.94999999999998,-42.));
#1744=CARTESIAN_POINT('',(-22.9999999999999,-4.94999999999999,11.3091998501995));
#1745=CARTESIAN_POINT('Origin',(-22.5,-4.94999999999998,-41.5));
#1746=CARTESIAN_POINT('Origin',(-15.600000009467,-4.94999999999999,26.600000009467));
#1747=CARTESIAN_POINT('',(-15.7913663268932,-5.44999999999999,33.5));
#1748=CARTESIAN_POINT('Origin',(-15.600000009467,-5.44999999999999,26.600000009467));
#1749=CARTESIAN_POINT('',(-15.7981773489526,-4.94999999999999,34.));
#1750=CARTESIAN_POINT('Ctrl Pts',(-15.7913663268932,-5.44999999999999,33.5));
#1751=CARTESIAN_POINT('Ctrl Pts',(-15.7913922941328,-5.44999999999999,33.5018729356727));
#1752=CARTESIAN_POINT('Ctrl Pts',(-15.791418255861,-5.4499894763359,33.5037458566468));
#1753=CARTESIAN_POINT('Ctrl Pts',(-15.7923509980631,-5.44923311974054,33.571048996798));
#1754=CARTESIAN_POINT('Ctrl Pts',(-15.7932403782927,-5.43566071274761,33.6357036442026));
#1755=CARTESIAN_POINT('Ctrl Pts',(-15.7948824135896,-5.38451260888896,33.7558077434235));
#1756=CARTESIAN_POINT('Ctrl Pts',(-15.7956201659039,-5.3475468685042,33.8101541110015));
#1757=CARTESIAN_POINT('Ctrl Pts',(-15.7968567399826,-5.25486654077424,33.9016150949234));
#1758=CARTESIAN_POINT('Ctrl Pts',(-15.7973439050051,-5.20003972619024,33.9378569264988));
#1759=CARTESIAN_POINT('Ctrl Pts',(-15.7980073285857,-5.07958115942589,33.9872852156682));
#1760=CARTESIAN_POINT('Ctrl Pts',(-15.7981773489524,-5.01510194760744,34.));
#1761=CARTESIAN_POINT('Ctrl Pts',(-15.7981773489524,-4.94999999999999,34.));
#1762=CARTESIAN_POINT('Origin',(-15.600000009467,-4.94999999999999,26.600000009467));
#1763=CARTESIAN_POINT('Origin',(7.80919337065069,-4.94999999999999,33.5));
#1764=CARTESIAN_POINT('',(15.7913663268931,-5.45,33.5));
#1765=CARTESIAN_POINT('',(7.80919337065069,-5.44999999999999,33.5));
#1766=CARTESIAN_POINT('',(15.7981773489527,-4.94999999999999,34.));
#1767=CARTESIAN_POINT('Ctrl Pts',(15.791366326893,-5.44999999999999,33.5));
#1768=CARTESIAN_POINT('Ctrl Pts',(15.7913922941327,-5.44999999999999,33.5018729356727));
#1769=CARTESIAN_POINT('Ctrl Pts',(15.7914182558611,-5.4499894763359,33.5037458566468));
#1770=CARTESIAN_POINT('Ctrl Pts',(15.7923509980621,-5.44923311974054,33.571048996798));
#1771=CARTESIAN_POINT('Ctrl Pts',(15.793240378293,-5.43566071274761,33.6357036442026));
#1772=CARTESIAN_POINT('Ctrl Pts',(15.7948824135896,-5.38451260888896,33.7558077434234));
#1773=CARTESIAN_POINT('Ctrl Pts',(15.7956201659041,-5.34754686850421,33.8101541110015));
#1774=CARTESIAN_POINT('Ctrl Pts',(15.7968567399829,-5.25486654077421,33.9016150949234));
#1775=CARTESIAN_POINT('Ctrl Pts',(15.7973439050055,-5.20003972619021,33.9378569264988));
#1776=CARTESIAN_POINT('Ctrl Pts',(15.798007328586,-5.0795811594259,33.9872852156682));
#1777=CARTESIAN_POINT('Ctrl Pts',(15.7981773489527,-5.01510194760744,34.));
#1778=CARTESIAN_POINT('Ctrl Pts',(15.7981773489527,-4.94999999999999,34.));
#1779=CARTESIAN_POINT('',(7.80919337065069,-4.94999999999999,34.));
#1780=CARTESIAN_POINT('Origin',(15.600000009467,-4.94999999999999,26.600000009467));
#1781=CARTESIAN_POINT('',(22.9999999999998,-4.94999999999999,26.7981773489595));
#1782=CARTESIAN_POINT('Origin',(15.600000009467,-4.94999999999999,26.600000009467));
#1783=CARTESIAN_POINT('',(22.4999999999998,-5.44999999999999,26.7913663269002));
#1784=CARTESIAN_POINT('Origin',(15.600000009467,-5.44999999999999,26.600000009467));
#1785=CARTESIAN_POINT('Ctrl Pts',(22.4999999999998,-5.44999999999999,26.7913663269002));
#1786=CARTESIAN_POINT('Ctrl Pts',(22.5018729356708,-5.44999999999999,26.7913922941398));
#1787=CARTESIAN_POINT('Ctrl Pts',(22.5037458566482,-5.44998947633588,26.7914182558678));
#1788=CARTESIAN_POINT('Ctrl Pts',(22.5710489966508,-5.4492331197422,26.7923509980708));
#1789=CARTESIAN_POINT('Ctrl Pts',(22.6357036441755,-5.43566071275906,26.7932403782991));
#1790=CARTESIAN_POINT('Ctrl Pts',(22.7558077434233,-5.38451260888893,26.7948824135964));
#1791=CARTESIAN_POINT('Ctrl Pts',(22.8101541110013,-5.34754686850418,26.7956201659108));
#1792=CARTESIAN_POINT('Ctrl Pts',(22.9016150949232,-5.25486654077423,26.7968567399897));
#1793=CARTESIAN_POINT('Ctrl Pts',(22.9378569264986,-5.20003972619022,26.7973439050121));
#1794=CARTESIAN_POINT('Ctrl Pts',(22.987285215668,-5.07958115942588,26.7980073285926));
#1795=CARTESIAN_POINT('Ctrl Pts',(22.9999999999998,-5.01510194760743,26.7981773489593));
#1796=CARTESIAN_POINT('Ctrl Pts',(22.9999999999998,-4.94999999999999,26.7981773489593));
#1797=CARTESIAN_POINT('Origin',(22.4999999999998,-4.94999999999999,-19.3091998501994));
#1798=CARTESIAN_POINT('',(22.9999999999998,-4.94999999999998,-34.7981773489601));
#1799=CARTESIAN_POINT('',(22.9999999999998,-4.94999999999999,-19.3091998501994));
#1800=CARTESIAN_POINT('',(22.4999999999998,-5.44999999999998,-34.7913663269006));
#1801=CARTESIAN_POINT('',(22.4999999999998,-5.44999999999999,-19.3091998501994));
#1802=CARTESIAN_POINT('Ctrl Pts',(22.4999999999998,-5.44999999999999,-34.7913663269006));
#1803=CARTESIAN_POINT('Ctrl Pts',(22.5018729356733,-5.44999999999999,-34.7913922941402));
#1804=CARTESIAN_POINT('Ctrl Pts',(22.5037458566474,-5.44998947633588,-34.7914182559113));
#1805=CARTESIAN_POINT('Ctrl Pts',(22.5710489967238,-5.44923311974112,-34.7923509977261));
#1806=CARTESIAN_POINT('Ctrl Pts',(22.6357036441883,-5.4356607127536,-34.7932403783015));
#1807=CARTESIAN_POINT('Ctrl Pts',(22.7558077434233,-5.38451260888894,-34.7948824135978));
#1808=CARTESIAN_POINT('Ctrl Pts',(22.8101541110013,-5.34754686850417,-34.7956201659121));
#1809=CARTESIAN_POINT('Ctrl Pts',(22.9016150949232,-5.25486654077419,-34.7968567399907));
#1810=CARTESIAN_POINT('Ctrl Pts',(22.9378569264986,-5.20003972619018,-34.7973439050132));
#1811=CARTESIAN_POINT('Ctrl Pts',(22.987285215668,-5.07958115942588,-34.7980073285937));
#1812=CARTESIAN_POINT('Ctrl Pts',(22.9999999999998,-5.01510194760743,-34.7981773489603));
#1813=CARTESIAN_POINT('Ctrl Pts',(22.9999999999998,-4.94999999999999,-34.7981773489603));
#1814=CARTESIAN_POINT('Origin',(15.600000009467,-4.94999999999999,-34.600000009467));
#1815=CARTESIAN_POINT('',(15.7981773489523,-4.94999999999999,-42.));
#1816=CARTESIAN_POINT('Origin',(15.600000009467,-4.94999999999999,-34.600000009467));
#1817=CARTESIAN_POINT('',(15.7913663268931,-5.44999999999998,-41.5));
#1818=CARTESIAN_POINT('Origin',(15.600000009467,-5.44999999999998,-34.600000009467));
#1819=CARTESIAN_POINT('Ctrl Pts',(15.7913663268931,-5.44999999999999,-41.5));
#1820=CARTESIAN_POINT('Ctrl Pts',(15.7913922941328,-5.44999999999999,-41.5018729356735));
#1821=CARTESIAN_POINT('Ctrl Pts',(15.7914182559031,-5.44998947633588,-41.5037458566478));
#1822=CARTESIAN_POINT('Ctrl Pts',(15.7923509977238,-5.44923311974113,-41.5710489967216));
#1823=CARTESIAN_POINT('Ctrl Pts',(15.7932403782939,-5.4356607127538,-41.635703644188));
#1824=CARTESIAN_POINT('Ctrl Pts',(15.79488241359,-5.384512608889,-41.7558077434234));
#1825=CARTESIAN_POINT('Ctrl Pts',(15.7956201659044,-5.34754686850423,-41.8101541110015));
#1826=CARTESIAN_POINT('Ctrl Pts',(15.7968567399828,-5.25486654077423,-41.9016150949234));
#1827=CARTESIAN_POINT('Ctrl Pts',(15.7973439050055,-5.20003972619022,-41.9378569264988));
#1828=CARTESIAN_POINT('Ctrl Pts',(15.7980073285858,-5.07958115942588,-41.9872852156682));
#1829=CARTESIAN_POINT('Ctrl Pts',(15.7981773489524,-5.01510194760743,-42.));
#1830=CARTESIAN_POINT('Ctrl Pts',(15.7981773489523,-4.94999999999999,-42.));
#1831=CARTESIAN_POINT('Origin',(-11.5000064795415,-4.94999999999998,-41.5));
#1832=CARTESIAN_POINT('',(-11.5000064795415,-4.94999999999998,-42.));
#1833=CARTESIAN_POINT('',(-11.5000064795415,-5.44999999999998,-41.5));
#1834=CARTESIAN_POINT('Origin',(22.9999999999998,-0.0499999999999823,-34.6183997003989));
#1835=CARTESIAN_POINT('',(22.9999999999998,-0.0499999999999823,-34.7981773489601));
#1836=CARTESIAN_POINT('',(22.9999999999998,-0.0499999999999925,26.7981773489595));
#1837=CARTESIAN_POINT('Origin',(15.600000009467,-0.0499999999999823,-34.600000009467));
#1838=CARTESIAN_POINT('',(15.7981773489523,-0.0499999999999823,-42.));
#1839=CARTESIAN_POINT('Origin',(-22.9999999999998,-0.0499999999999925,26.618399700399));
#1840=CARTESIAN_POINT('',(-22.9999999999998,-0.0499999999999925,26.7981773489597));
#1841=CARTESIAN_POINT('',(-23.,-0.049999999999981,-42.));
#1842=CARTESIAN_POINT('Origin',(-1.29590829511805E-5,-5.44999999999999,
-4.00000000000001));
#1843=CARTESIAN_POINT('',(12.400000009467,-5.44999999999998,-34.600000009467));
#1844=CARTESIAN_POINT('Origin',(15.600000009467,-5.44999999999998,-34.600000009467));
#1845=CARTESIAN_POINT('',(-18.800000009467,-5.44999999999999,26.600000009467));
#1846=CARTESIAN_POINT('Origin',(-15.600000009467,-5.44999999999999,26.600000009467));
#1847=CARTESIAN_POINT('Origin',(-15.6,-5.44999999999999,-13.4));
#1848=CARTESIAN_POINT('Origin',(-15.6,-5.44999999999999,-13.4));
#1849=CARTESIAN_POINT('',(12.400000009467,-5.44999999999999,26.600000009467));
#1850=CARTESIAN_POINT('Origin',(15.600000009467,-5.44999999999999,26.600000009467));
#1851=CARTESIAN_POINT('',(-18.8,-5.44999999999999,-13.4));
#1852=CARTESIAN_POINT('Origin',(-15.6,-5.44999999999999,-13.4));
#1853=CARTESIAN_POINT('Origin',(15.600000009467,-0.0499999999999925,26.600000009467));
#1854=CARTESIAN_POINT('',(15.7981773489527,-0.0499999999999925,34.));
#1855=CARTESIAN_POINT('Origin',(-15.600000009467,-0.0499999999999925,26.600000009467));
#1856=CARTESIAN_POINT('',(-15.7981773489526,-0.0499999999999925,34.));
#1857=CARTESIAN_POINT('Origin',(-15.6,-4.84999999999999,-13.4));
#1858=CARTESIAN_POINT('',(-17.6,-4.24999999999999,-13.4));
#1859=CARTESIAN_POINT('Origin',(-15.6,-4.24999999999999,-13.4));
#1860=CARTESIAN_POINT('',(-18.2,-4.84999999999999,-13.4));
#1861=CARTESIAN_POINT('Origin',(-15.6,-0.0499999999999858,-13.4));
#1862=CARTESIAN_POINT('',(-17.6,-0.0499999999999858,-13.4));
#1863=CARTESIAN_POINT('Origin',(15.600000009467,-4.84999999999999,-34.600000009467));
#1864=CARTESIAN_POINT('',(13.600000009467,-4.24999999999999,-34.600000009467));
#1865=CARTESIAN_POINT('Origin',(15.600000009467,-4.24999999999999,-34.600000009467));
#1866=CARTESIAN_POINT('',(13.000000009467,-4.84999999999999,-34.600000009467));
#1867=CARTESIAN_POINT('Origin',(15.600000009467,-0.0499999999999823,-34.600000009467));
#1868=CARTESIAN_POINT('',(13.600000009467,-0.0499999999999823,-34.600000009467));
#1869=CARTESIAN_POINT('Origin',(15.600000009467,-4.84999999999999,26.600000009467));
#1870=CARTESIAN_POINT('',(13.600000009467,-4.24999999999998,26.600000009467));
#1871=CARTESIAN_POINT('Origin',(15.600000009467,-4.24999999999998,26.600000009467));
#1872=CARTESIAN_POINT('',(13.000000009467,-4.84999999999999,26.600000009467));
#1873=CARTESIAN_POINT('Origin',(15.600000009467,-0.0499999999999925,26.600000009467));
#1874=CARTESIAN_POINT('',(13.600000009467,-0.0499999999999925,26.600000009467));
#1875=CARTESIAN_POINT('Origin',(-15.600000009467,-4.84999999999999,26.600000009467));
#1876=CARTESIAN_POINT('',(-17.600000009467,-4.24999999999998,26.600000009467));
#1877=CARTESIAN_POINT('Origin',(-15.600000009467,-4.24999999999998,26.600000009467));
#1878=CARTESIAN_POINT('',(-18.200000009467,-4.84999999999999,26.600000009467));
#1879=CARTESIAN_POINT('Origin',(-15.600000009467,-0.0499999999999925,26.600000009467));
#1880=CARTESIAN_POINT('',(-17.600000009467,-0.0499999999999925,26.600000009467));
#1881=CARTESIAN_POINT('Origin',(-15.6,-3.44999999999999,-13.4));
#1882=CARTESIAN_POINT('Origin',(-15.6,-3.44999999999999,-13.4));
#1883=CARTESIAN_POINT('Origin',(-15.6,-3.44999999999999,-13.4));
#1884=CARTESIAN_POINT('Origin',(-15.6,-3.44999999999999,-13.4));
#1885=CARTESIAN_POINT('Origin',(-1.29590829511805E-5,-3.44999999999999,
-4.00000000000001));
#1886=CARTESIAN_POINT('',(13.0721566504229,-3.44999999999999,29.7));
#1887=CARTESIAN_POINT('',(-7.79601339825049,-3.44999999999999,29.7));
#1888=CARTESIAN_POINT('',(18.6999740818341,-3.44999999999999,24.072124866225));
#1889=CARTESIAN_POINT('Origin',(15.6,-3.44999999999999,26.6));
#1890=CARTESIAN_POINT('',(18.6993961606861,-3.44999999999998,-32.0714163175554));
#1891=CARTESIAN_POINT('',(18.6998425682003,-3.44999999999999,11.2959163078512));
#1892=CARTESIAN_POINT('',(13.0721566504229,-3.44999999999998,-37.7));
#1893=CARTESIAN_POINT('Origin',(15.6,-3.44999999999999,-34.6));
#1894=CARTESIAN_POINT('',(7.79601339825051,-3.44999999999998,-37.7));
#1895=CARTESIAN_POINT('Origin',(15.6,-0.0499999999999823,-34.6));
#1896=CARTESIAN_POINT('',(13.0721566504229,-0.0499999999999823,-37.7));
#1897=CARTESIAN_POINT('',(18.6993961606861,-0.0499999999999823,-32.0714163175554));
#1898=CARTESIAN_POINT('Origin',(15.6,-0.0499999999999925,26.6));
#1899=CARTESIAN_POINT('',(18.6999740818341,-0.0499999999999925,24.072124866225));
#1900=CARTESIAN_POINT('',(13.0721566504229,-0.0499999999999925,29.7));
#1901=CARTESIAN_POINT('Origin',(18.7000000207686,-0.0499999999999925,26.5920251034447));
#1902=CARTESIAN_POINT('Origin',(-15.592026796501,-0.049999999999993,29.7));
#1903=CARTESIAN_POINT('Origin',(15.592026796501,-0.0499999999999818,-37.7));
#1904=CARTESIAN_POINT('Origin',(-21.5000000000002,-0.0499999999999925,26.6091998501774));
#1905=CARTESIAN_POINT('',(-21.5,-0.0499999999999813,-40.5));
#1906=CARTESIAN_POINT('',(-21.5000000000002,-0.0499999999999925,26.6091998501774));
#1907=CARTESIAN_POINT('Origin',(-21.4969231751797,-0.0499999999999925,26.8600226095131));
#1908=CARTESIAN_POINT('',(-21.4969231751797,-0.0499999999999925,26.8600226095131));
#1909=CARTESIAN_POINT('Origin',(-15.600000009467,-0.0499999999999925,26.600000009467));
#1910=CARTESIAN_POINT('',(-15.8600226095028,-0.0499999999999934,32.4969231751802));
#1911=CARTESIAN_POINT('Origin',(-15.6091998502078,-0.0499999999999934,32.5));
#1912=CARTESIAN_POINT('',(-15.6091998502078,-0.0499999999999934,32.5));
#1913=CARTESIAN_POINT('Origin',(15.609199850192,-0.0499999999999934,32.5));
#1914=CARTESIAN_POINT('',(15.609199850192,-0.0499999999999934,32.5));
#1915=CARTESIAN_POINT('Origin',(15.8600226095133,-0.0499999999999934,32.4969231751797));
#1916=CARTESIAN_POINT('',(15.8600226095133,-0.0499999999999934,32.4969231751797));
#1917=CARTESIAN_POINT('Origin',(15.600000009467,-0.0499999999999925,26.600000009467));
#1918=CARTESIAN_POINT('',(21.4969231751802,-0.0499999999999925,26.8600226095031));
#1919=CARTESIAN_POINT('Origin',(21.4999999999999,-0.0499999999999925,26.6091998502378));
#1920=CARTESIAN_POINT('',(21.4999999999999,-0.0499999999999925,26.6091998502378));
#1921=CARTESIAN_POINT('Origin',(21.4999999999998,-0.0499999999999823,-34.6091998502067));
#1922=CARTESIAN_POINT('',(21.4999999999998,-0.0499999999999823,-34.6091998502067));
#1923=CARTESIAN_POINT('Origin',(21.4969231751797,-0.0499999999999822,-34.8600226095132));
#1924=CARTESIAN_POINT('',(21.4969231751797,-0.0499999999999822,-34.8600226095132));
#1925=CARTESIAN_POINT('Origin',(15.600000009467,-0.0499999999999823,-34.600000009467));
#1926=CARTESIAN_POINT('',(15.8600226095029,-0.0499999999999813,-40.4969231751802));
#1927=CARTESIAN_POINT('Origin',(15.6091998501897,-0.0499999999999813,-40.5));
#1928=CARTESIAN_POINT('',(15.6091998501897,-0.0499999999999813,-40.5));
#1929=CARTESIAN_POINT('Origin',(15.6183997003843,-0.0499999999999937,34.));
#1930=CARTESIAN_POINT('Origin',(9.00000013411045,2.95000000000001,-40.5));
#1931=CARTESIAN_POINT('',(11.0000001639128,2.95000000000001,-40.5));
#1932=CARTESIAN_POINT('',(11.0000001639128,2.70000000000001,-40.5));
#1933=CARTESIAN_POINT('',(-18.7673903818208,2.95000000000001,-40.5));
#1934=CARTESIAN_POINT('Origin',(9.00000013411045,2.95000000000001,-42.));
#1935=CARTESIAN_POINT('',(11.0000001639128,2.95000000000001,-42.));
#1936=CARTESIAN_POINT('',(11.0000001639128,2.95000000000001,-41.625));
#1937=CARTESIAN_POINT('',(9.00000013411045,2.95000000000001,-42.));
#1938=CARTESIAN_POINT('Origin',(9.00000013411045,1.95000000000001,-42.));
#1939=CARTESIAN_POINT('',(11.0000001639128,2.20000000000001,-42.));
#1940=CARTESIAN_POINT('Origin',(11.0000001639128,2.45000000000001,-41.25));
#1941=UNCERTAINTY_MEASURE_WITH_UNIT(LENGTH_MEASURE(0.01),#1945,
'DISTANCE_ACCURACY_VALUE',
'Maximum model space distance between geometric entities at asserted c
onnectivities');
#1942=UNCERTAINTY_MEASURE_WITH_UNIT(LENGTH_MEASURE(0.01),#1945,
'DISTANCE_ACCURACY_VALUE',
'Maximum model space distance between geometric entities at asserted c
onnectivities');
#1943=(
GEOMETRIC_REPRESENTATION_CONTEXT(3)
GLOBAL_UNCERTAINTY_ASSIGNED_CONTEXT((#1941))
GLOBAL_UNIT_ASSIGNED_CONTEXT((#1945,#1946,#1947))
REPRESENTATION_CONTEXT('','3D')
);
#1944=(
GEOMETRIC_REPRESENTATION_CONTEXT(3)
GLOBAL_UNCERTAINTY_ASSIGNED_CONTEXT((#1942))
GLOBAL_UNIT_ASSIGNED_CONTEXT((#1945,#1946,#1947))
REPRESENTATION_CONTEXT('','3D')
);
#1945=(
LENGTH_UNIT()
NAMED_UNIT(*)
SI_UNIT(.MILLI.,.METRE.)
);
#1946=(
NAMED_UNIT(*)
PLANE_ANGLE_UNIT()
SI_UNIT($,.RADIAN.)
);
#1947=(
NAMED_UNIT(*)
SI_UNIT($,.STERADIAN.)
SOLID_ANGLE_UNIT()
);
#1948=SHAPE_DEFINITION_REPRESENTATION(#1949,#1950);
#1949=PRODUCT_DEFINITION_SHAPE('',$,#1952);
#1950=SHAPE_REPRESENTATION('',(#1136),#1943);
#1951=PRODUCT_DEFINITION_CONTEXT('part definition',#1956,'design');
#1952=PRODUCT_DEFINITION('2026-06-14-12-09-22-851','daughter_casing_3',
#1953,#1951);
#1953=PRODUCT_DEFINITION_FORMATION('',$,#1958);
#1954=PRODUCT_RELATED_PRODUCT_CATEGORY('daughter_casing_3',
'daughter_casing_3',(#1958));
#1955=APPLICATION_PROTOCOL_DEFINITION('international standard',
'automotive_design',2009,#1956);
#1956=APPLICATION_CONTEXT(
'Core Data for Automotive Mechanical Design Process');
#1957=PRODUCT_CONTEXT('part definition',#1956,'mechanical');
#1958=PRODUCT('2026-06-14-12-09-22-851','daughter_casing_3',$,(#1957));
#1959=PRESENTATION_STYLE_ASSIGNMENT((#1961));
#1960=PRESENTATION_STYLE_ASSIGNMENT((#1962));
#1961=SURFACE_STYLE_USAGE(.BOTH.,#1963);
#1962=SURFACE_STYLE_USAGE(.BOTH.,#1964);
#1963=SURFACE_SIDE_STYLE('',(#1965));
#1964=SURFACE_SIDE_STYLE('',(#1966));
#1965=SURFACE_STYLE_FILL_AREA(#1967);
#1966=SURFACE_STYLE_FILL_AREA(#1968);
#1967=FILL_AREA_STYLE('Acrylic (Clear)',(#1969));
#1968=FILL_AREA_STYLE('ABS (White)',(#1970));
#1969=FILL_AREA_STYLE_COLOUR('Acrylic (Clear)',#1971);
#1970=FILL_AREA_STYLE_COLOUR('ABS (White)',#1972);
#1971=COLOUR_RGB('Acrylic (Clear)',0.964705882352941,0.964705882352941,
0.952941176470588);
#1972=COLOUR_RGB('ABS (White)',0.933333333333333,0.133333333333333,0.133333333333333);
ENDSEC;
END-ISO-10303-21;
