ISO-10303-21;
HEADER;
/* Generated by software containing ST-Developer
 * from STEP Tools, Inc. (www.steptools.com) 
 */

FILE_DESCRIPTION(
/* description */ (''),
/* implementation_level */ '2;1');

FILE_NAME(
/* name */ 'Daughter Board Casing Bottom Shell.step',
/* time_stamp */ '2026-07-12T11:44:23+02:00',
/* author */ (''),
/* organization */ (''),
/* preprocessor_version */ 'ST-DEVELOPER v20.1',
/* originating_system */ 'Autodesk Translation Framework v15.8.0.0',
/* authorisation */ '');

FILE_SCHEMA (('AUTOMOTIVE_DESIGN { 1 0 10303 214 3 1 1 }'));
ENDSEC;

DATA;
#10=MECHANICAL_DESIGN_GEOMETRIC_PRESENTATION_REPRESENTATION('',(#13),#1944);
#11=SHAPE_REPRESENTATION_RELATIONSHIP('SRR','None',#1950,#12);
#12=ADVANCED_BREP_SHAPE_REPRESENTATION('',(#14),#1943);
#13=STYLED_ITEM('',(#1960),#14);
#14=MANIFOLD_SOLID_BREP('Body23',#1135);
#15=CONICAL_SURFACE('',#1175,2.6,0.785398163397449);
#16=CONICAL_SURFACE('',#1179,2.6,0.785398163397452);
#17=CONICAL_SURFACE('',#1183,2.6,0.785398163397443);
#18=CONICAL_SURFACE('',#1187,2.6,0.785398163397443);
#19=FACE_BOUND('',#175,.T.);
#20=FACE_BOUND('',#176,.T.);
#21=FACE_BOUND('',#177,.T.);
#22=FACE_BOUND('',#178,.T.);
#23=FACE_BOUND('',#179,.T.);
#24=FACE_BOUND('',#180,.T.);
#25=FACE_BOUND('',#219,.T.);
#26=FACE_BOUND('',#220,.T.);
#27=FACE_BOUND('',#221,.T.);
#28=FACE_BOUND('',#222,.T.);
#29=FACE_BOUND('',#223,.T.);
#30=TOROIDAL_SURFACE('',#1151,6.9026531809733,0.5);
#31=TOROIDAL_SURFACE('',#1155,6.90265318097329,0.5);
#32=TOROIDAL_SURFACE('',#1159,6.9026531809733,0.5);
#33=ELLIPSE('',#1150,0.707106781186543,0.5);
#34=B_SPLINE_CURVE_WITH_KNOTS('',3,(#1636,#1637,#1638,#1639,#1640,#1641,
#1642,#1643,#1644,#1645,#1646,#1647),.UNSPECIFIED.,.F.,.F.,(4,2,2,2,2,4),
(-0.0787894729516729,-0.0782275404957726,-0.0585953979195275,-0.0390620774540993,
-0.0195305842822365,0.),.UNSPECIFIED.);
#35=B_SPLINE_CURVE_WITH_KNOTS('',3,(#1655,#1656,#1657,#1658,#1659,#1660,
#1661,#1662,#1663,#1664,#1665,#1666),.UNSPECIFIED.,.F.,.F.,(4,2,2,2,2,4),
(-0.000561934702461234,0.,0.0196322210901752,0.0391656196829821,0.0586971909749171,
0.0782278533735934),.UNSPECIFIED.);
#36=B_SPLINE_CURVE_WITH_KNOTS('',3,(#1672,#1673,#1674,#1675,#1676,#1677,
#1678,#1679,#1680,#1681,#1682,#1683),.UNSPECIFIED.,.F.,.F.,(4,2,2,2,2,4),
(-0.078789472941939,-0.0782275404870364,-0.0585953979195203,-0.0390620774540935,
-0.0195305842822335,0.),.UNSPECIFIED.);
#37=B_SPLINE_CURVE_WITH_KNOTS('',3,(#1690,#1691,#1692,#1693,#1694,#1695,
#1696,#1697,#1698,#1699,#1700,#1701),.UNSPECIFIED.,.F.,.F.,(4,2,2,2,2,4),
(-0.000561934701969232,0.,0.0196322210469428,0.0391656195881662,0.0586971908285209,
0.0782278531756245),.UNSPECIFIED.);
#38=B_SPLINE_CURVE_WITH_KNOTS('',3,(#1707,#1708,#1709,#1710,#1711,#1712,
#1713,#1714,#1715,#1716,#1717,#1718),.UNSPECIFIED.,.F.,.F.,(4,2,2,2,2,4),
(-0.0787894729476455,-0.0782275404916742,-0.0585953979195238,-0.0390620774540977,
-0.0195305842822317,0.),.UNSPECIFIED.);
#39=B_SPLINE_CURVE_WITH_KNOTS('',3,(#1724,#1725,#1726,#1727,#1728,#1729,
#1730,#1731,#1732,#1733,#1734,#1735),.UNSPECIFIED.,.F.,.F.,(4,2,2,2,2,4),
(-0.000561934702700224,0.,0.0196322210651596,0.0391656196283866,0.0586971908907372,
0.0782278532598228),.UNSPECIFIED.);
#40=CYLINDRICAL_SURFACE('',#1149,0.5);
#41=CYLINDRICAL_SURFACE('',#1154,0.5);
#42=CYLINDRICAL_SURFACE('',#1158,0.5);
#43=CYLINDRICAL_SURFACE('',#1162,0.5);
#44=CYLINDRICAL_SURFACE('',#1164,7.4026531809733);
#45=CYLINDRICAL_SURFACE('',#1173,7.40265318097329);
#46=CYLINDRICAL_SURFACE('',#1174,7.4026531809733);
#47=CYLINDRICAL_SURFACE('',#1177,2.);
#48=CYLINDRICAL_SURFACE('',#1181,2.);
#49=CYLINDRICAL_SURFACE('',#1185,2.);
#50=CYLINDRICAL_SURFACE('',#1189,2.);
#51=CYLINDRICAL_SURFACE('',#1191,3.999999);
#52=CYLINDRICAL_SURFACE('',#1193,3.999999);
#53=CYLINDRICAL_SURFACE('',#1200,3.999999);
#54=CYLINDRICAL_SURFACE('',#1202,3.999999);
#55=CYLINDRICAL_SURFACE('',#1204,3.999999);
#56=CYLINDRICAL_SURFACE('',#1207,3.999999);
#57=CYLINDRICAL_SURFACE('',#1217,5.90265318097329);
#58=CYLINDRICAL_SURFACE('',#1222,5.90265318097329);
#59=CYLINDRICAL_SURFACE('',#1227,5.9026531809733);
#60=CIRCLE('',#1139,5.9026531809733);
#61=CIRCLE('',#1140,5.90265318097329);
#62=CIRCLE('',#1141,7.40265318097329);
#63=CIRCLE('',#1142,7.4026531809733);
#64=CIRCLE('',#1144,7.4026531809733);
#65=CIRCLE('',#1145,5.90265318097329);
#66=CIRCLE('',#1152,6.9026531809733);
#67=CIRCLE('',#1153,7.4026531809733);
#68=CIRCLE('',#1156,7.40265318097329);
#69=CIRCLE('',#1157,6.90265318097329);
#70=CIRCLE('',#1160,7.4026531809733);
#71=CIRCLE('',#1161,6.9026531809733);
#72=CIRCLE('',#1167,3.2);
#73=CIRCLE('',#1168,3.2);
#74=CIRCLE('',#1169,3.999999);
#75=CIRCLE('',#1170,3.999999);
#76=CIRCLE('',#1171,3.2);
#77=CIRCLE('',#1172,3.2);
#78=CIRCLE('',#1176,2.);
#79=CIRCLE('',#1178,2.);
#80=CIRCLE('',#1180,2.);
#81=CIRCLE('',#1182,2.);
#82=CIRCLE('',#1184,2.);
#83=CIRCLE('',#1186,2.);
#84=CIRCLE('',#1188,2.);
#85=CIRCLE('',#1190,2.);
#86=CIRCLE('',#1192,3.999999);
#87=CIRCLE('',#1194,3.999999);
#88=CIRCLE('',#1196,3.999999);
#89=CIRCLE('',#1197,3.999999);
#90=CIRCLE('',#1198,3.999999);
#91=CIRCLE('',#1199,3.999999);
#92=CIRCLE('',#1201,3.999999);
#93=CIRCLE('',#1203,3.999999);
#94=CIRCLE('',#1205,3.999999);
#95=CIRCLE('',#1208,3.999999);
#96=CIRCLE('',#1218,5.90265318097329);
#97=CIRCLE('',#1223,5.90265318097329);
#98=CIRCLE('',#1228,5.9026531809733);
#99=FACE_OUTER_BOUND('',#158,.T.);
#100=FACE_OUTER_BOUND('',#159,.T.);
#101=FACE_OUTER_BOUND('',#160,.T.);
#102=FACE_OUTER_BOUND('',#161,.T.);
#103=FACE_OUTER_BOUND('',#162,.T.);
#104=FACE_OUTER_BOUND('',#163,.T.);
#105=FACE_OUTER_BOUND('',#164,.T.);
#106=FACE_OUTER_BOUND('',#165,.T.);
#107=FACE_OUTER_BOUND('',#166,.T.);
#108=FACE_OUTER_BOUND('',#167,.T.);
#109=FACE_OUTER_BOUND('',#168,.T.);
#110=FACE_OUTER_BOUND('',#169,.T.);
#111=FACE_OUTER_BOUND('',#170,.T.);
#112=FACE_OUTER_BOUND('',#171,.T.);
#113=FACE_OUTER_BOUND('',#172,.T.);
#114=FACE_OUTER_BOUND('',#173,.T.);
#115=FACE_OUTER_BOUND('',#174,.T.);
#116=FACE_OUTER_BOUND('',#181,.T.);
#117=FACE_OUTER_BOUND('',#182,.T.);
#118=FACE_OUTER_BOUND('',#183,.T.);
#119=FACE_OUTER_BOUND('',#184,.T.);
#120=FACE_OUTER_BOUND('',#185,.T.);
#121=FACE_OUTER_BOUND('',#186,.T.);
#122=FACE_OUTER_BOUND('',#187,.T.);
#123=FACE_OUTER_BOUND('',#188,.T.);
#124=FACE_OUTER_BOUND('',#189,.T.);
#125=FACE_OUTER_BOUND('',#190,.T.);
#126=FACE_OUTER_BOUND('',#191,.T.);
#127=FACE_OUTER_BOUND('',#192,.T.);
#128=FACE_OUTER_BOUND('',#193,.T.);
#129=FACE_OUTER_BOUND('',#194,.T.);
#130=FACE_OUTER_BOUND('',#195,.T.);
#131=FACE_OUTER_BOUND('',#196,.T.);
#132=FACE_OUTER_BOUND('',#197,.T.);
#133=FACE_OUTER_BOUND('',#198,.T.);
#134=FACE_OUTER_BOUND('',#199,.T.);
#135=FACE_OUTER_BOUND('',#200,.T.);
#136=FACE_OUTER_BOUND('',#201,.T.);
#137=FACE_OUTER_BOUND('',#202,.T.);
#138=FACE_OUTER_BOUND('',#203,.T.);
#139=FACE_OUTER_BOUND('',#204,.T.);
#140=FACE_OUTER_BOUND('',#205,.T.);
#141=FACE_OUTER_BOUND('',#206,.T.);
#142=FACE_OUTER_BOUND('',#207,.T.);
#143=FACE_OUTER_BOUND('',#208,.T.);
#144=FACE_OUTER_BOUND('',#209,.T.);
#145=FACE_OUTER_BOUND('',#210,.T.);
#146=FACE_OUTER_BOUND('',#211,.T.);
#147=FACE_OUTER_BOUND('',#212,.T.);
#148=FACE_OUTER_BOUND('',#213,.T.);
#149=FACE_OUTER_BOUND('',#214,.T.);
#150=FACE_OUTER_BOUND('',#215,.T.);
#151=FACE_OUTER_BOUND('',#216,.T.);
#152=FACE_OUTER_BOUND('',#217,.T.);
#153=FACE_OUTER_BOUND('',#218,.T.);
#154=FACE_OUTER_BOUND('',#224,.T.);
#155=FACE_OUTER_BOUND('',#225,.T.);
#156=FACE_OUTER_BOUND('',#226,.T.);
#157=FACE_OUTER_BOUND('',#227,.T.);
#158=EDGE_LOOP('',(#722,#723,#724,#725));
#159=EDGE_LOOP('',(#726,#727,#728,#729,#730,#731,#732,#733,#734,#735,#736,
#737,#738,#739,#740,#741));
#160=EDGE_LOOP('',(#742,#743,#744,#745,#746,#747,#748,#749,#750,#751,#752,
#753));
#161=EDGE_LOOP('',(#754,#755,#756,#757));
#162=EDGE_LOOP('',(#758,#759,#760,#761));
#163=EDGE_LOOP('',(#762,#763,#764,#765));
#164=EDGE_LOOP('',(#766,#767,#768,#769));
#165=EDGE_LOOP('',(#770,#771,#772,#773));
#166=EDGE_LOOP('',(#774,#775,#776,#777));
#167=EDGE_LOOP('',(#778,#779,#780,#781));
#168=EDGE_LOOP('',(#782,#783,#784,#785));
#169=EDGE_LOOP('',(#786,#787,#788,#789));
#170=EDGE_LOOP('',(#790,#791,#792,#793));
#171=EDGE_LOOP('',(#794,#795,#796,#797));
#172=EDGE_LOOP('',(#798,#799,#800,#801));
#173=EDGE_LOOP('',(#802,#803,#804,#805));
#174=EDGE_LOOP('',(#806,#807,#808,#809,#810,#811,#812));
#175=EDGE_LOOP('',(#813));
#176=EDGE_LOOP('',(#814));
#177=EDGE_LOOP('',(#815,#816));
#178=EDGE_LOOP('',(#817,#818));
#179=EDGE_LOOP('',(#819));
#180=EDGE_LOOP('',(#820));
#181=EDGE_LOOP('',(#821,#822,#823,#824));
#182=EDGE_LOOP('',(#825,#826,#827,#828));
#183=EDGE_LOOP('',(#829,#830,#831,#832));
#184=EDGE_LOOP('',(#833,#834,#835,#836));
#185=EDGE_LOOP('',(#837,#838,#839,#840));
#186=EDGE_LOOP('',(#841,#842,#843,#844));
#187=EDGE_LOOP('',(#845,#846,#847,#848));
#188=EDGE_LOOP('',(#849,#850,#851,#852));
#189=EDGE_LOOP('',(#853,#854,#855,#856));
#190=EDGE_LOOP('',(#857,#858,#859,#860));
#191=EDGE_LOOP('',(#861,#862,#863,#864));
#192=EDGE_LOOP('',(#865,#866,#867,#868));
#193=EDGE_LOOP('',(#869,#870,#871,#872,#873,#874,#875,#876,#877,#878,#879,
#880,#881));
#194=EDGE_LOOP('',(#882,#883,#884,#885));
#195=EDGE_LOOP('',(#886,#887,#888,#889));
#196=EDGE_LOOP('',(#890,#891,#892,#893));
#197=EDGE_LOOP('',(#894,#895,#896,#897,#898,#899,#900));
#198=EDGE_LOOP('',(#901,#902,#903,#904));
#199=EDGE_LOOP('',(#905,#906,#907,#908,#909,#910,#911));
#200=EDGE_LOOP('',(#912,#913,#914,#915));
#201=EDGE_LOOP('',(#916,#917,#918,#919));
#202=EDGE_LOOP('',(#920,#921,#922,#923));
#203=EDGE_LOOP('',(#924,#925,#926,#927));
#204=EDGE_LOOP('',(#928,#929,#930,#931));
#205=EDGE_LOOP('',(#932,#933,#934,#935));
#206=EDGE_LOOP('',(#936,#937,#938,#939));
#207=EDGE_LOOP('',(#940,#941,#942,#943));
#208=EDGE_LOOP('',(#944,#945,#946,#947));
#209=EDGE_LOOP('',(#948,#949,#950,#951,#952,#953,#954,#955));
#210=EDGE_LOOP('',(#956,#957,#958,#959));
#211=EDGE_LOOP('',(#960,#961,#962,#963));
#212=EDGE_LOOP('',(#964,#965,#966,#967));
#213=EDGE_LOOP('',(#968,#969,#970,#971));
#214=EDGE_LOOP('',(#972,#973,#974,#975));
#215=EDGE_LOOP('',(#976,#977,#978,#979));
#216=EDGE_LOOP('',(#980,#981,#982,#983));
#217=EDGE_LOOP('',(#984,#985,#986,#987,#988,#989,#990,#991));
#218=EDGE_LOOP('',(#992,#993,#994,#995,#996,#997,#998,#999,#1000,#1001,
#1002,#1003,#1004));
#219=EDGE_LOOP('',(#1005));
#220=EDGE_LOOP('',(#1006));
#221=EDGE_LOOP('',(#1007));
#222=EDGE_LOOP('',(#1008));
#223=EDGE_LOOP('',(#1009,#1010,#1011,#1012,#1013,#1014,#1015,#1016,#1017,
#1018,#1019));
#224=EDGE_LOOP('',(#1020,#1021,#1022,#1023,#1024,#1025,#1026,#1027));
#225=EDGE_LOOP('',(#1028,#1029,#1030,#1031));
#226=EDGE_LOOP('',(#1032,#1033,#1034,#1035,#1036,#1037,#1038,#1039));
#227=EDGE_LOOP('',(#1040,#1041,#1042,#1043));
#228=LINE('',#1555,#343);
#229=LINE('',#1557,#344);
#230=LINE('',#1559,#345);
#231=LINE('',#1560,#346);
#232=LINE('',#1564,#347);
#233=LINE('',#1566,#348);
#234=LINE('',#1568,#349);
#235=LINE('',#1572,#350);
#236=LINE('',#1574,#351);
#237=LINE('',#1576,#352);
#238=LINE('',#1580,#353);
#239=LINE('',#1582,#354);
#240=LINE('',#1584,#355);
#241=LINE('',#1586,#356);
#242=LINE('',#1590,#357);
#243=LINE('',#1593,#358);
#244=LINE('',#1596,#359);
#245=LINE('',#1598,#360);
#246=LINE('',#1602,#361);
#247=LINE('',#1604,#362);
#248=LINE('',#1606,#363);
#249=LINE('',#1608,#364);
#250=LINE('',#1612,#365);
#251=LINE('',#1614,#366);
#252=LINE('',#1615,#367);
#253=LINE('',#1619,#368);
#254=LINE('',#1620,#369);
#255=LINE('',#1621,#370);
#256=LINE('',#1625,#371);
#257=LINE('',#1626,#372);
#258=LINE('',#1627,#373);
#259=LINE('',#1629,#374);
#260=LINE('',#1630,#375);
#261=LINE('',#1634,#376);
#262=LINE('',#1649,#377);
#263=LINE('',#1670,#378);
#264=LINE('',#1684,#379);
#265=LINE('',#1704,#380);
#266=LINE('',#1706,#381);
#267=LINE('',#1737,#382);
#268=LINE('',#1738,#383);
#269=LINE('',#1740,#384);
#270=LINE('',#1741,#385);
#271=LINE('',#1743,#386);
#272=LINE('',#1745,#387);
#273=LINE('',#1746,#388);
#274=LINE('',#1755,#389);
#275=LINE('',#1759,#390);
#276=LINE('',#1765,#391);
#277=LINE('',#1767,#392);
#278=LINE('',#1771,#393);
#279=LINE('',#1774,#394);
#280=LINE('',#1779,#395);
#281=LINE('',#1782,#396);
#282=LINE('',#1787,#397);
#283=LINE('',#1790,#398);
#284=LINE('',#1795,#399);
#285=LINE('',#1798,#400);
#286=LINE('',#1802,#401);
#287=LINE('',#1805,#402);
#288=LINE('',#1808,#403);
#289=LINE('',#1810,#404);
#290=LINE('',#1814,#405);
#291=LINE('',#1817,#406);
#292=LINE('',#1819,#407);
#293=LINE('',#1823,#408);
#294=LINE('',#1827,#409);
#295=LINE('',#1831,#410);
#296=LINE('',#1832,#411);
#297=LINE('',#1835,#412);
#298=LINE('',#1838,#413);
#299=LINE('',#1841,#414);
#300=LINE('',#1844,#415);
#301=LINE('',#1847,#416);
#302=LINE('',#1850,#417);
#303=LINE('',#1853,#418);
#304=LINE('',#1855,#419);
#305=LINE('',#1856,#420);
#306=LINE('',#1859,#421);
#307=LINE('',#1863,#422);
#308=LINE('',#1864,#423);
#309=LINE('',#1867,#424);
#310=LINE('',#1868,#425);
#311=LINE('',#1870,#426);
#312=LINE('',#1872,#427);
#313=LINE('',#1874,#428);
#314=LINE('',#1876,#429);
#315=LINE('',#1880,#430);
#316=LINE('',#1881,#431);
#317=LINE('',#1882,#432);
#318=LINE('',#1885,#433);
#319=LINE('',#1886,#434);
#320=LINE('',#1890,#435);
#321=LINE('',#1893,#436);
#322=LINE('',#1894,#437);
#323=LINE('',#1897,#438);
#324=LINE('',#1898,#439);
#325=LINE('',#1901,#440);
#326=LINE('',#1902,#441);
#327=LINE('',#1906,#442);
#328=LINE('',#1909,#443);
#329=LINE('',#1910,#444);
#330=LINE('',#1913,#445);
#331=LINE('',#1914,#446);
#332=LINE('',#1917,#447);
#333=LINE('',#1918,#448);
#334=LINE('',#1922,#449);
#335=LINE('',#1925,#450);
#336=LINE('',#1926,#451);
#337=LINE('',#1929,#452);
#338=LINE('',#1932,#453);
#339=LINE('',#1933,#454);
#340=LINE('',#1936,#455);
#341=LINE('',#1937,#456);
#342=LINE('',#1939,#457);
#343=VECTOR('',#1240,10.);
#344=VECTOR('',#1241,10.);
#345=VECTOR('',#1242,10.);
#346=VECTOR('',#1243,10.);
#347=VECTOR('',#1246,10.);
#348=VECTOR('',#1247,10.);
#349=VECTOR('',#1248,10.);
#350=VECTOR('',#1251,10.);
#351=VECTOR('',#1252,10.);
#352=VECTOR('',#1253,10.);
#353=VECTOR('',#1256,10.);
#354=VECTOR('',#1257,10.);
#355=VECTOR('',#1258,10.);
#356=VECTOR('',#1259,10.);
#357=VECTOR('',#1262,10.);
#358=VECTOR('',#1265,10.);
#359=VECTOR('',#1268,10.);
#360=VECTOR('',#1269,10.);
#361=VECTOR('',#1272,10.);
#362=VECTOR('',#1273,10.);
#363=VECTOR('',#1274,10.);
#364=VECTOR('',#1275,10.);
#365=VECTOR('',#1278,10.);
#366=VECTOR('',#1279,10.);
#367=VECTOR('',#1280,10.);
#368=VECTOR('',#1283,10.);
#369=VECTOR('',#1284,10.);
#370=VECTOR('',#1285,10.);
#371=VECTOR('',#1288,10.);
#372=VECTOR('',#1289,10.);
#373=VECTOR('',#1290,10.);
#374=VECTOR('',#1293,10.);
#375=VECTOR('',#1294,10.);
#376=VECTOR('',#1297,10.);
#377=VECTOR('',#1298,10.);
#378=VECTOR('',#1309,10.);
#379=VECTOR('',#1310,10.);
#380=VECTOR('',#1319,10.);
#381=VECTOR('',#1320,10.);
#382=VECTOR('',#1329,10.);
#383=VECTOR('',#1330,10.);
#384=VECTOR('',#1333,10.);
#385=VECTOR('',#1334,10.);
#386=VECTOR('',#1337,10.);
#387=VECTOR('',#1340,10.);
#388=VECTOR('',#1341,10.);
#389=VECTOR('',#1350,10.);
#390=VECTOR('',#1353,10.);
#391=VECTOR('',#1360,10.);
#392=VECTOR('',#1363,10.);
#393=VECTOR('',#1368,2.6);
#394=VECTOR('',#1371,2.);
#395=VECTOR('',#1378,2.6);
#396=VECTOR('',#1381,2.);
#397=VECTOR('',#1388,2.6);
#398=VECTOR('',#1391,2.);
#399=VECTOR('',#1398,2.6);
#400=VECTOR('',#1401,2.);
#401=VECTOR('',#1406,10.);
#402=VECTOR('',#1409,10.);
#403=VECTOR('',#1412,10.);
#404=VECTOR('',#1413,10.);
#405=VECTOR('',#1418,10.);
#406=VECTOR('',#1421,10.);
#407=VECTOR('',#1422,10.);
#408=VECTOR('',#1425,10.);
#409=VECTOR('',#1428,10.);
#410=VECTOR('',#1431,10.);
#411=VECTOR('',#1432,10.);
#412=VECTOR('',#1435,10.);
#413=VECTOR('',#1438,10.);
#414=VECTOR('',#1441,10.);
#415=VECTOR('',#1444,10.);
#416=VECTOR('',#1447,10.);
#417=VECTOR('',#1450,10.);
#418=VECTOR('',#1453,10.);
#419=VECTOR('',#1454,10.);
#420=VECTOR('',#1455,10.);
#421=VECTOR('',#1458,10.);
#422=VECTOR('',#1463,10.);
#423=VECTOR('',#1464,10.);
#424=VECTOR('',#1467,10.);
#425=VECTOR('',#1468,10.);
#426=VECTOR('',#1471,10.);
#427=VECTOR('',#1474,10.);
#428=VECTOR('',#1477,10.);
#429=VECTOR('',#1480,10.);
#430=VECTOR('',#1483,10.);
#431=VECTOR('',#1484,10.);
#432=VECTOR('',#1485,10.);
#433=VECTOR('',#1488,10.);
#434=VECTOR('',#1489,10.);
#435=VECTOR('',#1494,10.);
#436=VECTOR('',#1497,10.);
#437=VECTOR('',#1498,10.);
#438=VECTOR('',#1501,10.);
#439=VECTOR('',#1502,10.);
#440=VECTOR('',#1505,10.);
#441=VECTOR('',#1506,10.);
#442=VECTOR('',#1511,10.);
#443=VECTOR('',#1514,10.);
#444=VECTOR('',#1515,10.);
#445=VECTOR('',#1518,10.);
#446=VECTOR('',#1519,10.);
#447=VECTOR('',#1522,10.);
#448=VECTOR('',#1523,10.);
#449=VECTOR('',#1528,10.);
#450=VECTOR('',#1531,10.);
#451=VECTOR('',#1532,10.);
#452=VECTOR('',#1537,10.);
#453=VECTOR('',#1540,10.);
#454=VECTOR('',#1541,10.);
#455=VECTOR('',#1544,10.);
#456=VECTOR('',#1545,10.);
#457=VECTOR('',#1548,10.);
#458=VERTEX_POINT('',#1553);
#459=VERTEX_POINT('',#1554);
#460=VERTEX_POINT('',#1556);
#461=VERTEX_POINT('',#1558);
#462=VERTEX_POINT('',#1562);
#463=VERTEX_POINT('',#1563);
#464=VERTEX_POINT('',#1565);
#465=VERTEX_POINT('',#1567);
#466=VERTEX_POINT('',#1569);
#467=VERTEX_POINT('',#1571);
#468=VERTEX_POINT('',#1573);
#469=VERTEX_POINT('',#1575);
#470=VERTEX_POINT('',#1577);
#471=VERTEX_POINT('',#1579);
#472=VERTEX_POINT('',#1581);
#473=VERTEX_POINT('',#1583);
#474=VERTEX_POINT('',#1585);
#475=VERTEX_POINT('',#1587);
#476=VERTEX_POINT('',#1589);
#477=VERTEX_POINT('',#1591);
#478=VERTEX_POINT('',#1595);
#479=VERTEX_POINT('',#1597);
#480=VERTEX_POINT('',#1599);
#481=VERTEX_POINT('',#1601);
#482=VERTEX_POINT('',#1603);
#483=VERTEX_POINT('',#1605);
#484=VERTEX_POINT('',#1607);
#485=VERTEX_POINT('',#1609);
#486=VERTEX_POINT('',#1611);
#487=VERTEX_POINT('',#1613);
#488=VERTEX_POINT('',#1617);
#489=VERTEX_POINT('',#1618);
#490=VERTEX_POINT('',#1623);
#491=VERTEX_POINT('',#1624);
#492=VERTEX_POINT('',#1632);
#493=VERTEX_POINT('',#1633);
#494=VERTEX_POINT('',#1635);
#495=VERTEX_POINT('',#1648);
#496=VERTEX_POINT('',#1652);
#497=VERTEX_POINT('',#1654);
#498=VERTEX_POINT('',#1669);
#499=VERTEX_POINT('',#1671);
#500=VERTEX_POINT('',#1686);
#501=VERTEX_POINT('',#1688);
#502=VERTEX_POINT('',#1703);
#503=VERTEX_POINT('',#1705);
#504=VERTEX_POINT('',#1720);
#505=VERTEX_POINT('',#1722);
#506=VERTEX_POINT('',#1748);
#507=VERTEX_POINT('',#1750);
#508=VERTEX_POINT('',#1752);
#509=VERTEX_POINT('',#1753);
#510=VERTEX_POINT('',#1756);
#511=VERTEX_POINT('',#1757);
#512=VERTEX_POINT('',#1760);
#513=VERTEX_POINT('',#1762);
#514=VERTEX_POINT('',#1769);
#515=VERTEX_POINT('',#1773);
#516=VERTEX_POINT('',#1777);
#517=VERTEX_POINT('',#1781);
#518=VERTEX_POINT('',#1785);
#519=VERTEX_POINT('',#1789);
#520=VERTEX_POINT('',#1793);
#521=VERTEX_POINT('',#1797);
#522=VERTEX_POINT('',#1801);
#523=VERTEX_POINT('',#1803);
#524=VERTEX_POINT('',#1807);
#525=VERTEX_POINT('',#1809);
#526=VERTEX_POINT('',#1813);
#527=VERTEX_POINT('',#1816);
#528=VERTEX_POINT('',#1818);
#529=VERTEX_POINT('',#1820);
#530=VERTEX_POINT('',#1822);
#531=VERTEX_POINT('',#1824);
#532=VERTEX_POINT('',#1826);
#533=VERTEX_POINT('',#1828);
#534=VERTEX_POINT('',#1830);
#535=VERTEX_POINT('',#1834);
#536=VERTEX_POINT('',#1836);
#537=VERTEX_POINT('',#1840);
#538=VERTEX_POINT('',#1842);
#539=VERTEX_POINT('',#1846);
#540=VERTEX_POINT('',#1848);
#541=VERTEX_POINT('',#1852);
#542=VERTEX_POINT('',#1854);
#543=VERTEX_POINT('',#1858);
#544=VERTEX_POINT('',#1862);
#545=VERTEX_POINT('',#1866);
#546=VERTEX_POINT('',#1878);
#547=VERTEX_POINT('',#1879);
#548=VERTEX_POINT('',#1884);
#549=VERTEX_POINT('',#1888);
#550=VERTEX_POINT('',#1892);
#551=VERTEX_POINT('',#1896);
#552=VERTEX_POINT('',#1900);
#553=VERTEX_POINT('',#1904);
#554=VERTEX_POINT('',#1908);
#555=VERTEX_POINT('',#1912);
#556=VERTEX_POINT('',#1916);
#557=VERTEX_POINT('',#1920);
#558=VERTEX_POINT('',#1924);
#559=VERTEX_POINT('',#1931);
#560=VERTEX_POINT('',#1935);
#561=EDGE_CURVE('',#458,#459,#228,.T.);
#562=EDGE_CURVE('',#460,#459,#229,.T.);
#563=EDGE_CURVE('',#460,#461,#230,.T.);
#564=EDGE_CURVE('',#461,#458,#231,.T.);
#565=EDGE_CURVE('',#462,#463,#232,.T.);
#566=EDGE_CURVE('',#462,#464,#233,.T.);
#567=EDGE_CURVE('',#464,#465,#234,.T.);
#568=EDGE_CURVE('',#465,#466,#60,.T.);
#569=EDGE_CURVE('',#466,#467,#235,.T.);
#570=EDGE_CURVE('',#467,#468,#236,.T.);
#571=EDGE_CURVE('',#468,#469,#237,.T.);
#572=EDGE_CURVE('',#469,#470,#61,.T.);
#573=EDGE_CURVE('',#470,#471,#238,.T.);
#574=EDGE_CURVE('',#471,#472,#239,.T.);
#575=EDGE_CURVE('',#472,#473,#240,.T.);
#576=EDGE_CURVE('',#473,#474,#241,.T.);
#577=EDGE_CURVE('',#474,#475,#62,.T.);
#578=EDGE_CURVE('',#475,#476,#242,.T.);
#579=EDGE_CURVE('',#476,#477,#63,.T.);
#580=EDGE_CURVE('',#477,#463,#243,.T.);
#581=EDGE_CURVE('',#459,#478,#244,.T.);
#582=EDGE_CURVE('',#478,#479,#245,.T.);
#583=EDGE_CURVE('',#479,#480,#64,.T.);
#584=EDGE_CURVE('',#480,#481,#246,.T.);
#585=EDGE_CURVE('',#481,#482,#247,.T.);
#586=EDGE_CURVE('',#482,#483,#248,.T.);
#587=EDGE_CURVE('',#483,#484,#249,.T.);
#588=EDGE_CURVE('',#484,#485,#65,.T.);
#589=EDGE_CURVE('',#485,#486,#250,.T.);
#590=EDGE_CURVE('',#486,#487,#251,.T.);
#591=EDGE_CURVE('',#487,#460,#252,.T.);
#592=EDGE_CURVE('',#488,#489,#253,.T.);
#593=EDGE_CURVE('',#488,#482,#254,.T.);
#594=EDGE_CURVE('',#481,#489,#255,.T.);
#595=EDGE_CURVE('',#490,#491,#256,.T.);
#596=EDGE_CURVE('',#491,#488,#257,.T.);
#597=EDGE_CURVE('',#489,#490,#258,.T.);
#598=EDGE_CURVE('',#472,#491,#259,.T.);
#599=EDGE_CURVE('',#490,#473,#260,.T.);
#600=EDGE_CURVE('',#492,#493,#261,.T.);
#601=EDGE_CURVE('',#493,#494,#34,.T.);
#602=EDGE_CURVE('',#494,#495,#262,.T.);
#603=EDGE_CURVE('',#495,#492,#33,.T.);
#604=EDGE_CURVE('',#493,#496,#66,.T.);
#605=EDGE_CURVE('',#496,#497,#35,.T.);
#606=EDGE_CURVE('',#497,#494,#67,.T.);
#607=EDGE_CURVE('',#496,#498,#263,.T.);
#608=EDGE_CURVE('',#498,#499,#36,.T.);
#609=EDGE_CURVE('',#499,#497,#264,.T.);
#610=EDGE_CURVE('',#500,#499,#68,.T.);
#611=EDGE_CURVE('',#498,#501,#69,.T.);
#612=EDGE_CURVE('',#501,#500,#37,.T.);
#613=EDGE_CURVE('',#502,#500,#265,.T.);
#614=EDGE_CURVE('',#501,#503,#266,.T.);
#615=EDGE_CURVE('',#503,#502,#38,.T.);
#616=EDGE_CURVE('',#504,#502,#70,.T.);
#617=EDGE_CURVE('',#503,#505,#71,.T.);
#618=EDGE_CURVE('',#505,#504,#39,.T.);
#619=EDGE_CURVE('',#495,#504,#267,.T.);
#620=EDGE_CURVE('',#505,#492,#268,.T.);
#621=EDGE_CURVE('',#502,#476,#269,.T.);
#622=EDGE_CURVE('',#500,#475,#270,.T.);
#623=EDGE_CURVE('',#504,#477,#271,.T.);
#624=EDGE_CURVE('',#494,#479,#272,.T.);
#625=EDGE_CURVE('',#495,#478,#273,.T.);
#626=EDGE_CURVE('',#506,#506,#72,.T.);
#627=EDGE_CURVE('',#507,#507,#73,.T.);
#628=EDGE_CURVE('',#508,#509,#74,.T.);
#629=EDGE_CURVE('',#508,#509,#274,.T.);
#630=EDGE_CURVE('',#510,#511,#75,.T.);
#631=EDGE_CURVE('',#510,#511,#275,.T.);
#632=EDGE_CURVE('',#512,#512,#76,.T.);
#633=EDGE_CURVE('',#513,#513,#77,.T.);
#634=EDGE_CURVE('',#499,#474,#276,.T.);
#635=EDGE_CURVE('',#497,#480,#277,.T.);
#636=EDGE_CURVE('',#514,#514,#78,.T.);
#637=EDGE_CURVE('',#514,#513,#278,.T.);
#638=EDGE_CURVE('',#514,#515,#279,.T.);
#639=EDGE_CURVE('',#515,#515,#79,.T.);
#640=EDGE_CURVE('',#516,#516,#80,.T.);
#641=EDGE_CURVE('',#516,#506,#280,.T.);
#642=EDGE_CURVE('',#516,#517,#281,.T.);
#643=EDGE_CURVE('',#517,#517,#81,.T.);
#644=EDGE_CURVE('',#518,#518,#82,.T.);
#645=EDGE_CURVE('',#518,#512,#282,.T.);
#646=EDGE_CURVE('',#518,#519,#283,.T.);
#647=EDGE_CURVE('',#519,#519,#83,.T.);
#648=EDGE_CURVE('',#520,#520,#84,.T.);
#649=EDGE_CURVE('',#520,#507,#284,.T.);
#650=EDGE_CURVE('',#520,#521,#285,.T.);
#651=EDGE_CURVE('',#521,#521,#85,.T.);
#652=EDGE_CURVE('',#510,#522,#286,.T.);
#653=EDGE_CURVE('',#523,#522,#86,.T.);
#654=EDGE_CURVE('',#523,#511,#287,.T.);
#655=EDGE_CURVE('',#524,#509,#288,.T.);
#656=EDGE_CURVE('',#525,#508,#289,.T.);
#657=EDGE_CURVE('',#524,#525,#87,.T.);
#658=EDGE_CURVE('',#523,#526,#290,.T.);
#659=EDGE_CURVE('',#524,#522,#88,.T.);
#660=EDGE_CURVE('',#527,#525,#291,.T.);
#661=EDGE_CURVE('',#528,#527,#292,.T.);
#662=EDGE_CURVE('',#529,#528,#89,.T.);
#663=EDGE_CURVE('',#530,#529,#293,.T.);
#664=EDGE_CURVE('',#531,#530,#90,.T.);
#665=EDGE_CURVE('',#532,#531,#294,.T.);
#666=EDGE_CURVE('',#533,#532,#91,.T.);
#667=EDGE_CURVE('',#534,#533,#295,.T.);
#668=EDGE_CURVE('',#526,#534,#296,.T.);
#669=EDGE_CURVE('',#535,#528,#297,.T.);
#670=EDGE_CURVE('',#535,#536,#92,.T.);
#671=EDGE_CURVE('',#529,#536,#298,.T.);
#672=EDGE_CURVE('',#537,#532,#299,.T.);
#673=EDGE_CURVE('',#537,#538,#93,.T.);
#674=EDGE_CURVE('',#533,#538,#300,.T.);
#675=EDGE_CURVE('',#539,#530,#301,.T.);
#676=EDGE_CURVE('',#539,#540,#94,.T.);
#677=EDGE_CURVE('',#531,#540,#302,.T.);
#678=EDGE_CURVE('',#541,#524,#303,.T.);
#679=EDGE_CURVE('',#541,#542,#304,.T.);
#680=EDGE_CURVE('',#527,#542,#305,.T.);
#681=EDGE_CURVE('',#543,#522,#306,.T.);
#682=EDGE_CURVE('',#543,#541,#95,.T.);
#683=EDGE_CURVE('',#544,#526,#307,.T.);
#684=EDGE_CURVE('',#543,#544,#308,.T.);
#685=EDGE_CURVE('',#545,#534,#309,.T.);
#686=EDGE_CURVE('',#545,#544,#310,.T.);
#687=EDGE_CURVE('',#542,#535,#311,.T.);
#688=EDGE_CURVE('',#540,#537,#312,.T.);
#689=EDGE_CURVE('',#536,#539,#313,.T.);
#690=EDGE_CURVE('',#538,#545,#314,.T.);
#691=EDGE_CURVE('',#546,#547,#315,.T.);
#692=EDGE_CURVE('',#546,#487,#316,.T.);
#693=EDGE_CURVE('',#547,#486,#317,.T.);
#694=EDGE_CURVE('',#547,#548,#318,.T.);
#695=EDGE_CURVE('',#548,#485,#319,.T.);
#696=EDGE_CURVE('',#548,#549,#96,.T.);
#697=EDGE_CURVE('',#549,#484,#320,.T.);
#698=EDGE_CURVE('',#549,#550,#321,.T.);
#699=EDGE_CURVE('',#550,#483,#322,.T.);
#700=EDGE_CURVE('',#550,#551,#323,.T.);
#701=EDGE_CURVE('',#551,#471,#324,.T.);
#702=EDGE_CURVE('',#551,#552,#325,.T.);
#703=EDGE_CURVE('',#552,#470,#326,.T.);
#704=EDGE_CURVE('',#552,#553,#97,.T.);
#705=EDGE_CURVE('',#553,#469,#327,.T.);
#706=EDGE_CURVE('',#553,#554,#328,.T.);
#707=EDGE_CURVE('',#554,#468,#329,.T.);
#708=EDGE_CURVE('',#554,#555,#330,.T.);
#709=EDGE_CURVE('',#555,#467,#331,.T.);
#710=EDGE_CURVE('',#555,#556,#332,.T.);
#711=EDGE_CURVE('',#556,#466,#333,.T.);
#712=EDGE_CURVE('',#556,#557,#98,.T.);
#713=EDGE_CURVE('',#557,#465,#334,.T.);
#714=EDGE_CURVE('',#557,#558,#335,.T.);
#715=EDGE_CURVE('',#558,#464,#336,.T.);
#716=EDGE_CURVE('',#558,#546,#337,.T.);
#717=EDGE_CURVE('',#559,#462,#338,.T.);
#718=EDGE_CURVE('',#559,#461,#339,.T.);
#719=EDGE_CURVE('',#560,#559,#340,.T.);
#720=EDGE_CURVE('',#458,#560,#341,.T.);
#721=EDGE_CURVE('',#463,#560,#342,.T.);
#722=ORIENTED_EDGE('',*,*,#561,.T.);
#723=ORIENTED_EDGE('',*,*,#562,.F.);
#724=ORIENTED_EDGE('',*,*,#563,.T.);
#725=ORIENTED_EDGE('',*,*,#564,.T.);
#726=ORIENTED_EDGE('',*,*,#565,.F.);
#727=ORIENTED_EDGE('',*,*,#566,.T.);
#728=ORIENTED_EDGE('',*,*,#567,.T.);
#729=ORIENTED_EDGE('',*,*,#568,.T.);
#730=ORIENTED_EDGE('',*,*,#569,.T.);
#731=ORIENTED_EDGE('',*,*,#570,.T.);
#732=ORIENTED_EDGE('',*,*,#571,.T.);
#733=ORIENTED_EDGE('',*,*,#572,.T.);
#734=ORIENTED_EDGE('',*,*,#573,.T.);
#735=ORIENTED_EDGE('',*,*,#574,.T.);
#736=ORIENTED_EDGE('',*,*,#575,.T.);
#737=ORIENTED_EDGE('',*,*,#576,.T.);
#738=ORIENTED_EDGE('',*,*,#577,.T.);
#739=ORIENTED_EDGE('',*,*,#578,.T.);
#740=ORIENTED_EDGE('',*,*,#579,.T.);
#741=ORIENTED_EDGE('',*,*,#580,.T.);
#742=ORIENTED_EDGE('',*,*,#562,.T.);
#743=ORIENTED_EDGE('',*,*,#581,.T.);
#744=ORIENTED_EDGE('',*,*,#582,.T.);
#745=ORIENTED_EDGE('',*,*,#583,.T.);
#746=ORIENTED_EDGE('',*,*,#584,.T.);
#747=ORIENTED_EDGE('',*,*,#585,.T.);
#748=ORIENTED_EDGE('',*,*,#586,.T.);
#749=ORIENTED_EDGE('',*,*,#587,.T.);
#750=ORIENTED_EDGE('',*,*,#588,.T.);
#751=ORIENTED_EDGE('',*,*,#589,.T.);
#752=ORIENTED_EDGE('',*,*,#590,.T.);
#753=ORIENTED_EDGE('',*,*,#591,.T.);
#754=ORIENTED_EDGE('',*,*,#592,.F.);
#755=ORIENTED_EDGE('',*,*,#593,.T.);
#756=ORIENTED_EDGE('',*,*,#585,.F.);
#757=ORIENTED_EDGE('',*,*,#594,.T.);
#758=ORIENTED_EDGE('',*,*,#595,.T.);
#759=ORIENTED_EDGE('',*,*,#596,.T.);
#760=ORIENTED_EDGE('',*,*,#592,.T.);
#761=ORIENTED_EDGE('',*,*,#597,.T.);
#762=ORIENTED_EDGE('',*,*,#575,.F.);
#763=ORIENTED_EDGE('',*,*,#598,.T.);
#764=ORIENTED_EDGE('',*,*,#595,.F.);
#765=ORIENTED_EDGE('',*,*,#599,.T.);
#766=ORIENTED_EDGE('',*,*,#600,.T.);
#767=ORIENTED_EDGE('',*,*,#601,.T.);
#768=ORIENTED_EDGE('',*,*,#602,.T.);
#769=ORIENTED_EDGE('',*,*,#603,.T.);
#770=ORIENTED_EDGE('',*,*,#604,.T.);
#771=ORIENTED_EDGE('',*,*,#605,.T.);
#772=ORIENTED_EDGE('',*,*,#606,.T.);
#773=ORIENTED_EDGE('',*,*,#601,.F.);
#774=ORIENTED_EDGE('',*,*,#607,.T.);
#775=ORIENTED_EDGE('',*,*,#608,.T.);
#776=ORIENTED_EDGE('',*,*,#609,.T.);
#777=ORIENTED_EDGE('',*,*,#605,.F.);
#778=ORIENTED_EDGE('',*,*,#610,.T.);
#779=ORIENTED_EDGE('',*,*,#608,.F.);
#780=ORIENTED_EDGE('',*,*,#611,.T.);
#781=ORIENTED_EDGE('',*,*,#612,.T.);
#782=ORIENTED_EDGE('',*,*,#613,.T.);
#783=ORIENTED_EDGE('',*,*,#612,.F.);
#784=ORIENTED_EDGE('',*,*,#614,.T.);
#785=ORIENTED_EDGE('',*,*,#615,.T.);
#786=ORIENTED_EDGE('',*,*,#616,.T.);
#787=ORIENTED_EDGE('',*,*,#615,.F.);
#788=ORIENTED_EDGE('',*,*,#617,.T.);
#789=ORIENTED_EDGE('',*,*,#618,.T.);
#790=ORIENTED_EDGE('',*,*,#619,.T.);
#791=ORIENTED_EDGE('',*,*,#618,.F.);
#792=ORIENTED_EDGE('',*,*,#620,.T.);
#793=ORIENTED_EDGE('',*,*,#603,.F.);
#794=ORIENTED_EDGE('',*,*,#613,.F.);
#795=ORIENTED_EDGE('',*,*,#621,.T.);
#796=ORIENTED_EDGE('',*,*,#578,.F.);
#797=ORIENTED_EDGE('',*,*,#622,.F.);
#798=ORIENTED_EDGE('',*,*,#616,.F.);
#799=ORIENTED_EDGE('',*,*,#623,.T.);
#800=ORIENTED_EDGE('',*,*,#579,.F.);
#801=ORIENTED_EDGE('',*,*,#621,.F.);
#802=ORIENTED_EDGE('',*,*,#602,.F.);
#803=ORIENTED_EDGE('',*,*,#624,.T.);
#804=ORIENTED_EDGE('',*,*,#582,.F.);
#805=ORIENTED_EDGE('',*,*,#625,.F.);
#806=ORIENTED_EDGE('',*,*,#600,.F.);
#807=ORIENTED_EDGE('',*,*,#620,.F.);
#808=ORIENTED_EDGE('',*,*,#617,.F.);
#809=ORIENTED_EDGE('',*,*,#614,.F.);
#810=ORIENTED_EDGE('',*,*,#611,.F.);
#811=ORIENTED_EDGE('',*,*,#607,.F.);
#812=ORIENTED_EDGE('',*,*,#604,.F.);
#813=ORIENTED_EDGE('',*,*,#626,.F.);
#814=ORIENTED_EDGE('',*,*,#627,.F.);
#815=ORIENTED_EDGE('',*,*,#628,.T.);
#816=ORIENTED_EDGE('',*,*,#629,.F.);
#817=ORIENTED_EDGE('',*,*,#630,.T.);
#818=ORIENTED_EDGE('',*,*,#631,.F.);
#819=ORIENTED_EDGE('',*,*,#632,.F.);
#820=ORIENTED_EDGE('',*,*,#633,.F.);
#821=ORIENTED_EDGE('',*,*,#610,.F.);
#822=ORIENTED_EDGE('',*,*,#622,.T.);
#823=ORIENTED_EDGE('',*,*,#577,.F.);
#824=ORIENTED_EDGE('',*,*,#634,.F.);
#825=ORIENTED_EDGE('',*,*,#606,.F.);
#826=ORIENTED_EDGE('',*,*,#635,.T.);
#827=ORIENTED_EDGE('',*,*,#583,.F.);
#828=ORIENTED_EDGE('',*,*,#624,.F.);
#829=ORIENTED_EDGE('',*,*,#636,.T.);
#830=ORIENTED_EDGE('',*,*,#637,.T.);
#831=ORIENTED_EDGE('',*,*,#633,.T.);
#832=ORIENTED_EDGE('',*,*,#637,.F.);
#833=ORIENTED_EDGE('',*,*,#636,.F.);
#834=ORIENTED_EDGE('',*,*,#638,.T.);
#835=ORIENTED_EDGE('',*,*,#639,.T.);
#836=ORIENTED_EDGE('',*,*,#638,.F.);
#837=ORIENTED_EDGE('',*,*,#640,.T.);
#838=ORIENTED_EDGE('',*,*,#641,.T.);
#839=ORIENTED_EDGE('',*,*,#626,.T.);
#840=ORIENTED_EDGE('',*,*,#641,.F.);
#841=ORIENTED_EDGE('',*,*,#640,.F.);
#842=ORIENTED_EDGE('',*,*,#642,.T.);
#843=ORIENTED_EDGE('',*,*,#643,.T.);
#844=ORIENTED_EDGE('',*,*,#642,.F.);
#845=ORIENTED_EDGE('',*,*,#644,.T.);
#846=ORIENTED_EDGE('',*,*,#645,.T.);
#847=ORIENTED_EDGE('',*,*,#632,.T.);
#848=ORIENTED_EDGE('',*,*,#645,.F.);
#849=ORIENTED_EDGE('',*,*,#644,.F.);
#850=ORIENTED_EDGE('',*,*,#646,.T.);
#851=ORIENTED_EDGE('',*,*,#647,.T.);
#852=ORIENTED_EDGE('',*,*,#646,.F.);
#853=ORIENTED_EDGE('',*,*,#648,.T.);
#854=ORIENTED_EDGE('',*,*,#649,.T.);
#855=ORIENTED_EDGE('',*,*,#627,.T.);
#856=ORIENTED_EDGE('',*,*,#649,.F.);
#857=ORIENTED_EDGE('',*,*,#648,.F.);
#858=ORIENTED_EDGE('',*,*,#650,.T.);
#859=ORIENTED_EDGE('',*,*,#651,.T.);
#860=ORIENTED_EDGE('',*,*,#650,.F.);
#861=ORIENTED_EDGE('',*,*,#652,.T.);
#862=ORIENTED_EDGE('',*,*,#653,.F.);
#863=ORIENTED_EDGE('',*,*,#654,.T.);
#864=ORIENTED_EDGE('',*,*,#630,.F.);
#865=ORIENTED_EDGE('',*,*,#655,.T.);
#866=ORIENTED_EDGE('',*,*,#628,.F.);
#867=ORIENTED_EDGE('',*,*,#656,.F.);
#868=ORIENTED_EDGE('',*,*,#657,.F.);
#869=ORIENTED_EDGE('',*,*,#658,.F.);
#870=ORIENTED_EDGE('',*,*,#653,.T.);
#871=ORIENTED_EDGE('',*,*,#659,.F.);
#872=ORIENTED_EDGE('',*,*,#657,.T.);
#873=ORIENTED_EDGE('',*,*,#660,.F.);
#874=ORIENTED_EDGE('',*,*,#661,.F.);
#875=ORIENTED_EDGE('',*,*,#662,.F.);
#876=ORIENTED_EDGE('',*,*,#663,.F.);
#877=ORIENTED_EDGE('',*,*,#664,.F.);
#878=ORIENTED_EDGE('',*,*,#665,.F.);
#879=ORIENTED_EDGE('',*,*,#666,.F.);
#880=ORIENTED_EDGE('',*,*,#667,.F.);
#881=ORIENTED_EDGE('',*,*,#668,.F.);
#882=ORIENTED_EDGE('',*,*,#662,.T.);
#883=ORIENTED_EDGE('',*,*,#669,.F.);
#884=ORIENTED_EDGE('',*,*,#670,.T.);
#885=ORIENTED_EDGE('',*,*,#671,.F.);
#886=ORIENTED_EDGE('',*,*,#666,.T.);
#887=ORIENTED_EDGE('',*,*,#672,.F.);
#888=ORIENTED_EDGE('',*,*,#673,.T.);
#889=ORIENTED_EDGE('',*,*,#674,.F.);
#890=ORIENTED_EDGE('',*,*,#664,.T.);
#891=ORIENTED_EDGE('',*,*,#675,.F.);
#892=ORIENTED_EDGE('',*,*,#676,.T.);
#893=ORIENTED_EDGE('',*,*,#677,.F.);
#894=ORIENTED_EDGE('',*,*,#660,.T.);
#895=ORIENTED_EDGE('',*,*,#656,.T.);
#896=ORIENTED_EDGE('',*,*,#629,.T.);
#897=ORIENTED_EDGE('',*,*,#655,.F.);
#898=ORIENTED_EDGE('',*,*,#678,.F.);
#899=ORIENTED_EDGE('',*,*,#679,.T.);
#900=ORIENTED_EDGE('',*,*,#680,.F.);
#901=ORIENTED_EDGE('',*,*,#659,.T.);
#902=ORIENTED_EDGE('',*,*,#681,.F.);
#903=ORIENTED_EDGE('',*,*,#682,.T.);
#904=ORIENTED_EDGE('',*,*,#678,.T.);
#905=ORIENTED_EDGE('',*,*,#658,.T.);
#906=ORIENTED_EDGE('',*,*,#683,.F.);
#907=ORIENTED_EDGE('',*,*,#684,.F.);
#908=ORIENTED_EDGE('',*,*,#681,.T.);
#909=ORIENTED_EDGE('',*,*,#652,.F.);
#910=ORIENTED_EDGE('',*,*,#631,.T.);
#911=ORIENTED_EDGE('',*,*,#654,.F.);
#912=ORIENTED_EDGE('',*,*,#683,.T.);
#913=ORIENTED_EDGE('',*,*,#668,.T.);
#914=ORIENTED_EDGE('',*,*,#685,.F.);
#915=ORIENTED_EDGE('',*,*,#686,.T.);
#916=ORIENTED_EDGE('',*,*,#669,.T.);
#917=ORIENTED_EDGE('',*,*,#661,.T.);
#918=ORIENTED_EDGE('',*,*,#680,.T.);
#919=ORIENTED_EDGE('',*,*,#687,.T.);
#920=ORIENTED_EDGE('',*,*,#672,.T.);
#921=ORIENTED_EDGE('',*,*,#665,.T.);
#922=ORIENTED_EDGE('',*,*,#677,.T.);
#923=ORIENTED_EDGE('',*,*,#688,.T.);
#924=ORIENTED_EDGE('',*,*,#671,.T.);
#925=ORIENTED_EDGE('',*,*,#689,.T.);
#926=ORIENTED_EDGE('',*,*,#675,.T.);
#927=ORIENTED_EDGE('',*,*,#663,.T.);
#928=ORIENTED_EDGE('',*,*,#674,.T.);
#929=ORIENTED_EDGE('',*,*,#690,.T.);
#930=ORIENTED_EDGE('',*,*,#685,.T.);
#931=ORIENTED_EDGE('',*,*,#667,.T.);
#932=ORIENTED_EDGE('',*,*,#691,.F.);
#933=ORIENTED_EDGE('',*,*,#692,.T.);
#934=ORIENTED_EDGE('',*,*,#590,.F.);
#935=ORIENTED_EDGE('',*,*,#693,.F.);
#936=ORIENTED_EDGE('',*,*,#694,.F.);
#937=ORIENTED_EDGE('',*,*,#693,.T.);
#938=ORIENTED_EDGE('',*,*,#589,.F.);
#939=ORIENTED_EDGE('',*,*,#695,.F.);
#940=ORIENTED_EDGE('',*,*,#696,.F.);
#941=ORIENTED_EDGE('',*,*,#695,.T.);
#942=ORIENTED_EDGE('',*,*,#588,.F.);
#943=ORIENTED_EDGE('',*,*,#697,.F.);
#944=ORIENTED_EDGE('',*,*,#698,.F.);
#945=ORIENTED_EDGE('',*,*,#697,.T.);
#946=ORIENTED_EDGE('',*,*,#587,.F.);
#947=ORIENTED_EDGE('',*,*,#699,.F.);
#948=ORIENTED_EDGE('',*,*,#700,.F.);
#949=ORIENTED_EDGE('',*,*,#699,.T.);
#950=ORIENTED_EDGE('',*,*,#586,.F.);
#951=ORIENTED_EDGE('',*,*,#593,.F.);
#952=ORIENTED_EDGE('',*,*,#596,.F.);
#953=ORIENTED_EDGE('',*,*,#598,.F.);
#954=ORIENTED_EDGE('',*,*,#574,.F.);
#955=ORIENTED_EDGE('',*,*,#701,.F.);
#956=ORIENTED_EDGE('',*,*,#702,.F.);
#957=ORIENTED_EDGE('',*,*,#701,.T.);
#958=ORIENTED_EDGE('',*,*,#573,.F.);
#959=ORIENTED_EDGE('',*,*,#703,.F.);
#960=ORIENTED_EDGE('',*,*,#704,.F.);
#961=ORIENTED_EDGE('',*,*,#703,.T.);
#962=ORIENTED_EDGE('',*,*,#572,.F.);
#963=ORIENTED_EDGE('',*,*,#705,.F.);
#964=ORIENTED_EDGE('',*,*,#706,.F.);
#965=ORIENTED_EDGE('',*,*,#705,.T.);
#966=ORIENTED_EDGE('',*,*,#571,.F.);
#967=ORIENTED_EDGE('',*,*,#707,.F.);
#968=ORIENTED_EDGE('',*,*,#708,.F.);
#969=ORIENTED_EDGE('',*,*,#707,.T.);
#970=ORIENTED_EDGE('',*,*,#570,.F.);
#971=ORIENTED_EDGE('',*,*,#709,.F.);
#972=ORIENTED_EDGE('',*,*,#710,.F.);
#973=ORIENTED_EDGE('',*,*,#709,.T.);
#974=ORIENTED_EDGE('',*,*,#569,.F.);
#975=ORIENTED_EDGE('',*,*,#711,.F.);
#976=ORIENTED_EDGE('',*,*,#712,.F.);
#977=ORIENTED_EDGE('',*,*,#711,.T.);
#978=ORIENTED_EDGE('',*,*,#568,.F.);
#979=ORIENTED_EDGE('',*,*,#713,.F.);
#980=ORIENTED_EDGE('',*,*,#714,.F.);
#981=ORIENTED_EDGE('',*,*,#713,.T.);
#982=ORIENTED_EDGE('',*,*,#567,.F.);
#983=ORIENTED_EDGE('',*,*,#715,.F.);
#984=ORIENTED_EDGE('',*,*,#609,.F.);
#985=ORIENTED_EDGE('',*,*,#634,.T.);
#986=ORIENTED_EDGE('',*,*,#576,.F.);
#987=ORIENTED_EDGE('',*,*,#599,.F.);
#988=ORIENTED_EDGE('',*,*,#597,.F.);
#989=ORIENTED_EDGE('',*,*,#594,.F.);
#990=ORIENTED_EDGE('',*,*,#584,.F.);
#991=ORIENTED_EDGE('',*,*,#635,.F.);
#992=ORIENTED_EDGE('',*,*,#691,.T.);
#993=ORIENTED_EDGE('',*,*,#694,.T.);
#994=ORIENTED_EDGE('',*,*,#696,.T.);
#995=ORIENTED_EDGE('',*,*,#698,.T.);
#996=ORIENTED_EDGE('',*,*,#700,.T.);
#997=ORIENTED_EDGE('',*,*,#702,.T.);
#998=ORIENTED_EDGE('',*,*,#704,.T.);
#999=ORIENTED_EDGE('',*,*,#706,.T.);
#1000=ORIENTED_EDGE('',*,*,#708,.T.);
#1001=ORIENTED_EDGE('',*,*,#710,.T.);
#1002=ORIENTED_EDGE('',*,*,#712,.T.);
#1003=ORIENTED_EDGE('',*,*,#714,.T.);
#1004=ORIENTED_EDGE('',*,*,#716,.T.);
#1005=ORIENTED_EDGE('',*,*,#651,.F.);
#1006=ORIENTED_EDGE('',*,*,#643,.F.);
#1007=ORIENTED_EDGE('',*,*,#647,.F.);
#1008=ORIENTED_EDGE('',*,*,#639,.F.);
#1009=ORIENTED_EDGE('',*,*,#670,.F.);
#1010=ORIENTED_EDGE('',*,*,#687,.F.);
#1011=ORIENTED_EDGE('',*,*,#679,.F.);
#1012=ORIENTED_EDGE('',*,*,#682,.F.);
#1013=ORIENTED_EDGE('',*,*,#684,.T.);
#1014=ORIENTED_EDGE('',*,*,#686,.F.);
#1015=ORIENTED_EDGE('',*,*,#690,.F.);
#1016=ORIENTED_EDGE('',*,*,#673,.F.);
#1017=ORIENTED_EDGE('',*,*,#688,.F.);
#1018=ORIENTED_EDGE('',*,*,#676,.F.);
#1019=ORIENTED_EDGE('',*,*,#689,.F.);
#1020=ORIENTED_EDGE('',*,*,#717,.F.);
#1021=ORIENTED_EDGE('',*,*,#718,.T.);
#1022=ORIENTED_EDGE('',*,*,#563,.F.);
#1023=ORIENTED_EDGE('',*,*,#591,.F.);
#1024=ORIENTED_EDGE('',*,*,#692,.F.);
#1025=ORIENTED_EDGE('',*,*,#716,.F.);
#1026=ORIENTED_EDGE('',*,*,#715,.T.);
#1027=ORIENTED_EDGE('',*,*,#566,.F.);
#1028=ORIENTED_EDGE('',*,*,#719,.F.);
#1029=ORIENTED_EDGE('',*,*,#720,.F.);
#1030=ORIENTED_EDGE('',*,*,#564,.F.);
#1031=ORIENTED_EDGE('',*,*,#718,.F.);
#1032=ORIENTED_EDGE('',*,*,#721,.F.);
#1033=ORIENTED_EDGE('',*,*,#580,.F.);
#1034=ORIENTED_EDGE('',*,*,#623,.F.);
#1035=ORIENTED_EDGE('',*,*,#619,.F.);
#1036=ORIENTED_EDGE('',*,*,#625,.T.);
#1037=ORIENTED_EDGE('',*,*,#581,.F.);
#1038=ORIENTED_EDGE('',*,*,#561,.F.);
#1039=ORIENTED_EDGE('',*,*,#720,.T.);
#1040=ORIENTED_EDGE('',*,*,#717,.T.);
#1041=ORIENTED_EDGE('',*,*,#565,.T.);
#1042=ORIENTED_EDGE('',*,*,#721,.T.);
#1043=ORIENTED_EDGE('',*,*,#719,.T.);
#1044=PLANE('',#1137);
#1045=PLANE('',#1138);
#1046=PLANE('',#1143);
#1047=PLANE('',#1146);
#1048=PLANE('',#1147);
#1049=PLANE('',#1148);
#1050=PLANE('',#1163);
#1051=PLANE('',#1165);
#1052=PLANE('',#1166);
#1053=PLANE('',#1195);
#1054=PLANE('',#1206);
#1055=PLANE('',#1209);
#1056=PLANE('',#1210);
#1057=PLANE('',#1211);
#1058=PLANE('',#1212);
#1059=PLANE('',#1213);
#1060=PLANE('',#1214);
#1061=PLANE('',#1215);
#1062=PLANE('',#1216);
#1063=PLANE('',#1219);
#1064=PLANE('',#1220);
#1065=PLANE('',#1221);
#1066=PLANE('',#1224);
#1067=PLANE('',#1225);
#1068=PLANE('',#1226);
#1069=PLANE('',#1229);
#1070=PLANE('',#1230);
#1071=PLANE('',#1231);
#1072=PLANE('',#1232);
#1073=PLANE('',#1233);
#1074=PLANE('',#1234);
#1075=PLANE('',#1235);
#1076=ADVANCED_FACE('',(#99),#1044,.F.);
#1077=ADVANCED_FACE('',(#100),#1045,.F.);
#1078=ADVANCED_FACE('',(#101),#1046,.F.);
#1079=ADVANCED_FACE('',(#102),#1047,.T.);
#1080=ADVANCED_FACE('',(#103),#1048,.T.);
#1081=ADVANCED_FACE('',(#104),#1049,.T.);
#1082=ADVANCED_FACE('',(#105),#40,.T.);
#1083=ADVANCED_FACE('',(#106),#30,.T.);
#1084=ADVANCED_FACE('',(#107),#41,.T.);
#1085=ADVANCED_FACE('',(#108),#31,.T.);
#1086=ADVANCED_FACE('',(#109),#42,.T.);
#1087=ADVANCED_FACE('',(#110),#32,.T.);
#1088=ADVANCED_FACE('',(#111),#43,.T.);
#1089=ADVANCED_FACE('',(#112),#1050,.T.);
#1090=ADVANCED_FACE('',(#113),#44,.T.);
#1091=ADVANCED_FACE('',(#114),#1051,.T.);
#1092=ADVANCED_FACE('',(#115,#19,#20,#21,#22,#23,#24),#1052,.T.);
#1093=ADVANCED_FACE('',(#116),#45,.T.);
#1094=ADVANCED_FACE('',(#117),#46,.T.);
#1095=ADVANCED_FACE('',(#118),#15,.F.);
#1096=ADVANCED_FACE('',(#119),#47,.F.);
#1097=ADVANCED_FACE('',(#120),#16,.F.);
#1098=ADVANCED_FACE('',(#121),#48,.F.);
#1099=ADVANCED_FACE('',(#122),#17,.F.);
#1100=ADVANCED_FACE('',(#123),#49,.F.);
#1101=ADVANCED_FACE('',(#124),#18,.F.);
#1102=ADVANCED_FACE('',(#125),#50,.F.);
#1103=ADVANCED_FACE('',(#126),#51,.F.);
#1104=ADVANCED_FACE('',(#127),#52,.F.);
#1105=ADVANCED_FACE('',(#128),#1053,.F.);
#1106=ADVANCED_FACE('',(#129),#53,.T.);
#1107=ADVANCED_FACE('',(#130),#54,.T.);
#1108=ADVANCED_FACE('',(#131),#55,.T.);
#1109=ADVANCED_FACE('',(#132),#1054,.T.);
#1110=ADVANCED_FACE('',(#133),#56,.T.);
#1111=ADVANCED_FACE('',(#134),#1055,.T.);
#1112=ADVANCED_FACE('',(#135),#1056,.T.);
#1113=ADVANCED_FACE('',(#136),#1057,.T.);
#1114=ADVANCED_FACE('',(#137),#1058,.T.);
#1115=ADVANCED_FACE('',(#138),#1059,.T.);
#1116=ADVANCED_FACE('',(#139),#1060,.T.);
#1117=ADVANCED_FACE('',(#140),#1061,.T.);
#1118=ADVANCED_FACE('',(#141),#1062,.T.);
#1119=ADVANCED_FACE('',(#142),#57,.F.);
#1120=ADVANCED_FACE('',(#143),#1063,.T.);
#1121=ADVANCED_FACE('',(#144),#1064,.T.);
#1122=ADVANCED_FACE('',(#145),#1065,.T.);
#1123=ADVANCED_FACE('',(#146),#58,.F.);
#1124=ADVANCED_FACE('',(#147),#1066,.T.);
#1125=ADVANCED_FACE('',(#148),#1067,.T.);
#1126=ADVANCED_FACE('',(#149),#1068,.T.);
#1127=ADVANCED_FACE('',(#150),#59,.F.);
#1128=ADVANCED_FACE('',(#151),#1069,.T.);
#1129=ADVANCED_FACE('',(#152),#1070,.T.);
#1130=ADVANCED_FACE('',(#153,#25,#26,#27,#28,#29),#1071,.F.);
#1131=ADVANCED_FACE('',(#154),#1072,.T.);
#1132=ADVANCED_FACE('',(#155),#1073,.T.);
#1133=ADVANCED_FACE('',(#156),#1074,.T.);
#1134=ADVANCED_FACE('',(#157),#1075,.F.);
#1135=CLOSED_SHELL('',(#1076,#1077,#1078,#1079,#1080,#1081,#1082,#1083,
#1084,#1085,#1086,#1087,#1088,#1089,#1090,#1091,#1092,#1093,#1094,#1095,
#1096,#1097,#1098,#1099,#1100,#1101,#1102,#1103,#1104,#1105,#1106,#1107,
#1108,#1109,#1110,#1111,#1112,#1113,#1114,#1115,#1116,#1117,#1118,#1119,
#1120,#1121,#1122,#1123,#1124,#1125,#1126,#1127,#1128,#1129,#1130,#1131,
#1132,#1133,#1134));
#1136=AXIS2_PLACEMENT_3D('',#1551,#1236,#1237);
#1137=AXIS2_PLACEMENT_3D('',#1552,#1238,#1239);
#1138=AXIS2_PLACEMENT_3D('',#1561,#1244,#1245);
#1139=AXIS2_PLACEMENT_3D('',#1570,#1249,#1250);
#1140=AXIS2_PLACEMENT_3D('',#1578,#1254,#1255);
#1141=AXIS2_PLACEMENT_3D('',#1588,#1260,#1261);
#1142=AXIS2_PLACEMENT_3D('',#1592,#1263,#1264);
#1143=AXIS2_PLACEMENT_3D('',#1594,#1266,#1267);
#1144=AXIS2_PLACEMENT_3D('',#1600,#1270,#1271);
#1145=AXIS2_PLACEMENT_3D('',#1610,#1276,#1277);
#1146=AXIS2_PLACEMENT_3D('',#1616,#1281,#1282);
#1147=AXIS2_PLACEMENT_3D('',#1622,#1286,#1287);
#1148=AXIS2_PLACEMENT_3D('',#1628,#1291,#1292);
#1149=AXIS2_PLACEMENT_3D('',#1631,#1295,#1296);
#1150=AXIS2_PLACEMENT_3D('',#1650,#1299,#1300);
#1151=AXIS2_PLACEMENT_3D('',#1651,#1301,#1302);
#1152=AXIS2_PLACEMENT_3D('',#1653,#1303,#1304);
#1153=AXIS2_PLACEMENT_3D('',#1667,#1305,#1306);
#1154=AXIS2_PLACEMENT_3D('',#1668,#1307,#1308);
#1155=AXIS2_PLACEMENT_3D('',#1685,#1311,#1312);
#1156=AXIS2_PLACEMENT_3D('',#1687,#1313,#1314);
#1157=AXIS2_PLACEMENT_3D('',#1689,#1315,#1316);
#1158=AXIS2_PLACEMENT_3D('',#1702,#1317,#1318);
#1159=AXIS2_PLACEMENT_3D('',#1719,#1321,#1322);
#1160=AXIS2_PLACEMENT_3D('',#1721,#1323,#1324);
#1161=AXIS2_PLACEMENT_3D('',#1723,#1325,#1326);
#1162=AXIS2_PLACEMENT_3D('',#1736,#1327,#1328);
#1163=AXIS2_PLACEMENT_3D('',#1739,#1331,#1332);
#1164=AXIS2_PLACEMENT_3D('',#1742,#1335,#1336);
#1165=AXIS2_PLACEMENT_3D('',#1744,#1338,#1339);
#1166=AXIS2_PLACEMENT_3D('',#1747,#1342,#1343);
#1167=AXIS2_PLACEMENT_3D('',#1749,#1344,#1345);
#1168=AXIS2_PLACEMENT_3D('',#1751,#1346,#1347);
#1169=AXIS2_PLACEMENT_3D('',#1754,#1348,#1349);
#1170=AXIS2_PLACEMENT_3D('',#1758,#1351,#1352);
#1171=AXIS2_PLACEMENT_3D('',#1761,#1354,#1355);
#1172=AXIS2_PLACEMENT_3D('',#1763,#1356,#1357);
#1173=AXIS2_PLACEMENT_3D('',#1764,#1358,#1359);
#1174=AXIS2_PLACEMENT_3D('',#1766,#1361,#1362);
#1175=AXIS2_PLACEMENT_3D('',#1768,#1364,#1365);
#1176=AXIS2_PLACEMENT_3D('',#1770,#1366,#1367);
#1177=AXIS2_PLACEMENT_3D('',#1772,#1369,#1370);
#1178=AXIS2_PLACEMENT_3D('',#1775,#1372,#1373);
#1179=AXIS2_PLACEMENT_3D('',#1776,#1374,#1375);
#1180=AXIS2_PLACEMENT_3D('',#1778,#1376,#1377);
#1181=AXIS2_PLACEMENT_3D('',#1780,#1379,#1380);
#1182=AXIS2_PLACEMENT_3D('',#1783,#1382,#1383);
#1183=AXIS2_PLACEMENT_3D('',#1784,#1384,#1385);
#1184=AXIS2_PLACEMENT_3D('',#1786,#1386,#1387);
#1185=AXIS2_PLACEMENT_3D('',#1788,#1389,#1390);
#1186=AXIS2_PLACEMENT_3D('',#1791,#1392,#1393);
#1187=AXIS2_PLACEMENT_3D('',#1792,#1394,#1395);
#1188=AXIS2_PLACEMENT_3D('',#1794,#1396,#1397);
#1189=AXIS2_PLACEMENT_3D('',#1796,#1399,#1400);
#1190=AXIS2_PLACEMENT_3D('',#1799,#1402,#1403);
#1191=AXIS2_PLACEMENT_3D('',#1800,#1404,#1405);
#1192=AXIS2_PLACEMENT_3D('',#1804,#1407,#1408);
#1193=AXIS2_PLACEMENT_3D('',#1806,#1410,#1411);
#1194=AXIS2_PLACEMENT_3D('',#1811,#1414,#1415);
#1195=AXIS2_PLACEMENT_3D('',#1812,#1416,#1417);
#1196=AXIS2_PLACEMENT_3D('',#1815,#1419,#1420);
#1197=AXIS2_PLACEMENT_3D('',#1821,#1423,#1424);
#1198=AXIS2_PLACEMENT_3D('',#1825,#1426,#1427);
#1199=AXIS2_PLACEMENT_3D('',#1829,#1429,#1430);
#1200=AXIS2_PLACEMENT_3D('',#1833,#1433,#1434);
#1201=AXIS2_PLACEMENT_3D('',#1837,#1436,#1437);
#1202=AXIS2_PLACEMENT_3D('',#1839,#1439,#1440);
#1203=AXIS2_PLACEMENT_3D('',#1843,#1442,#1443);
#1204=AXIS2_PLACEMENT_3D('',#1845,#1445,#1446);
#1205=AXIS2_PLACEMENT_3D('',#1849,#1448,#1449);
#1206=AXIS2_PLACEMENT_3D('',#1851,#1451,#1452);
#1207=AXIS2_PLACEMENT_3D('',#1857,#1456,#1457);
#1208=AXIS2_PLACEMENT_3D('',#1860,#1459,#1460);
#1209=AXIS2_PLACEMENT_3D('',#1861,#1461,#1462);
#1210=AXIS2_PLACEMENT_3D('',#1865,#1465,#1466);
#1211=AXIS2_PLACEMENT_3D('',#1869,#1469,#1470);
#1212=AXIS2_PLACEMENT_3D('',#1871,#1472,#1473);
#1213=AXIS2_PLACEMENT_3D('',#1873,#1475,#1476);
#1214=AXIS2_PLACEMENT_3D('',#1875,#1478,#1479);
#1215=AXIS2_PLACEMENT_3D('',#1877,#1481,#1482);
#1216=AXIS2_PLACEMENT_3D('',#1883,#1486,#1487);
#1217=AXIS2_PLACEMENT_3D('',#1887,#1490,#1491);
#1218=AXIS2_PLACEMENT_3D('',#1889,#1492,#1493);
#1219=AXIS2_PLACEMENT_3D('',#1891,#1495,#1496);
#1220=AXIS2_PLACEMENT_3D('',#1895,#1499,#1500);
#1221=AXIS2_PLACEMENT_3D('',#1899,#1503,#1504);
#1222=AXIS2_PLACEMENT_3D('',#1903,#1507,#1508);
#1223=AXIS2_PLACEMENT_3D('',#1905,#1509,#1510);
#1224=AXIS2_PLACEMENT_3D('',#1907,#1512,#1513);
#1225=AXIS2_PLACEMENT_3D('',#1911,#1516,#1517);
#1226=AXIS2_PLACEMENT_3D('',#1915,#1520,#1521);
#1227=AXIS2_PLACEMENT_3D('',#1919,#1524,#1525);
#1228=AXIS2_PLACEMENT_3D('',#1921,#1526,#1527);
#1229=AXIS2_PLACEMENT_3D('',#1923,#1529,#1530);
#1230=AXIS2_PLACEMENT_3D('',#1927,#1533,#1534);
#1231=AXIS2_PLACEMENT_3D('',#1928,#1535,#1536);
#1232=AXIS2_PLACEMENT_3D('',#1930,#1538,#1539);
#1233=AXIS2_PLACEMENT_3D('',#1934,#1542,#1543);
#1234=AXIS2_PLACEMENT_3D('',#1938,#1546,#1547);
#1235=AXIS2_PLACEMENT_3D('',#1940,#1549,#1550);
#1236=DIRECTION('axis',(0.,0.,1.));
#1237=DIRECTION('refdir',(1.,0.,0.));
#1238=DIRECTION('center_axis',(1.,0.,0.));
#1239=DIRECTION('ref_axis',(0.,0.,-1.));
#1240=DIRECTION('',(0.,-1.,0.));
#1241=DIRECTION('',(0.,1.66533453693773E-16,-1.));
#1242=DIRECTION('',(0.,1.,0.));
#1243=DIRECTION('',(0.,0.,-1.));
#1244=DIRECTION('center_axis',(-3.61334689079101E-37,-1.,-1.66533453693773E-16));
#1245=DIRECTION('ref_axis',(1.,-3.61334689079101E-37,-6.01743137117085E-53));
#1246=DIRECTION('',(0.,1.66533453693773E-16,-1.));
#1247=DIRECTION('',(1.,3.98583689064559E-32,-2.3934184064483E-16));
#1248=DIRECTION('',(0.999924769724535,-2.04270026172533E-18,0.0122660055167145));
#1249=DIRECTION('center_axis',(-4.26083573089302E-37,-1.,-1.66533453693773E-16));
#1250=DIRECTION('ref_axis',(0.0440518173884952,1.66371790929296E-16,-0.999029247512189));
#1251=DIRECTION('',(0.0122660055179959,-1.66520925336175E-16,0.999924769724519));
#1252=DIRECTION('',(1.66846109609711E-15,-1.66533453693773E-16,1.));
#1253=DIRECTION('',(-0.0122660055186873,-1.66520925336174E-16,0.999924769724511));
#1254=DIRECTION('center_axis',(0.,-1.,-1.66533453693773E-16));
#1255=DIRECTION('ref_axis',(0.999029247512187,-7.33610129119987E-18,0.0440518173885333));
#1256=DIRECTION('',(-0.999924769724518,-2.0427002619578E-18,0.0122660055181103));
#1257=DIRECTION('',(-1.,-7.10693474754145E-32,4.26757182410322E-16));
#1258=DIRECTION('',(0.,-1.66533453693773E-16,1.));
#1259=DIRECTION('',(1.,4.73516565609792E-32,-2.84337203791202E-16));
#1260=DIRECTION('center_axis',(0.,1.,1.66533453693773E-16));
#1261=DIRECTION('ref_axis',(0.999173420768658,-6.76969290186184E-18,0.0406506485736503));
#1262=DIRECTION('',(-1.45039980598353E-16,1.66533453693773E-16,-1.));
#1263=DIRECTION('center_axis',(3.61334689079103E-37,1.,1.66533453693773E-16));
#1264=DIRECTION('ref_axis',(0.0406506485736739,1.66395800599626E-16,-0.999173420768657));
#1265=DIRECTION('',(-1.,-7.66015271873017E-32,4.59976812395658E-16));
#1266=DIRECTION('center_axis',(-3.61334689079101E-37,-1.,-1.66533453693773E-16));
#1267=DIRECTION('ref_axis',(1.,-3.61334689079101E-37,-6.01743137117085E-53));
#1268=DIRECTION('',(-1.,-7.66015271873017E-32,4.59976812395658E-16));
#1269=DIRECTION('',(2.65346578809046E-15,-1.66533453693773E-16,1.));
#1270=DIRECTION('center_axis',(0.,1.,1.66533453693773E-16));
#1271=DIRECTION('ref_axis',(-0.0406506485736821,-1.66395800599626E-16,0.999173420768657));
#1272=DIRECTION('',(1.,4.73516565609792E-32,-2.84337203791202E-16));
#1273=DIRECTION('',(0.,1.66533453693773E-16,-1.));
#1274=DIRECTION('',(-1.,-7.10693474754145E-32,4.26757182410322E-16));
#1275=DIRECTION('',(-0.999924769724524,2.04270026187114E-18,-0.01226600551759));
#1276=DIRECTION('center_axis',(0.,-1.,-1.66533453693773E-16));
#1277=DIRECTION('ref_axis',(-0.0440518173884787,-1.66371790929296E-16,0.99902924751219));
#1278=DIRECTION('',(-0.0122660055180722,1.66520925336175E-16,-0.999924769724518));
#1279=DIRECTION('',(2.64696471328223E-15,1.66533453693773E-16,-1.));
#1280=DIRECTION('',(1.,3.98583689064559E-32,-2.3934184064483E-16));
#1281=DIRECTION('center_axis',(-1.,0.,0.));
#1282=DIRECTION('ref_axis',(0.,0.,1.));
#1283=DIRECTION('',(0.,0.,1.));
#1284=DIRECTION('',(0.,-1.,0.));
#1285=DIRECTION('',(0.,1.,0.));
#1286=DIRECTION('center_axis',(0.,1.,0.));
#1287=DIRECTION('ref_axis',(0.,0.,1.));
#1288=DIRECTION('',(0.,0.,-1.));
#1289=DIRECTION('',(-1.,0.,4.26757182410322E-16));
#1290=DIRECTION('',(1.,0.,-2.84337203791202E-16));
#1291=DIRECTION('center_axis',(1.,0.,0.));
#1292=DIRECTION('ref_axis',(0.,0.,-1.));
#1293=DIRECTION('',(0.,1.,0.));
#1294=DIRECTION('',(0.,-1.,0.));
#1295=DIRECTION('center_axis',(2.65346578809046E-15,-1.66533453693773E-16,
1.));
#1296=DIRECTION('ref_axis',(-0.707106781186546,-0.707106781186549,0.));
#1297=DIRECTION('',(2.65346578809046E-15,-1.66533453693773E-16,1.));
#1298=DIRECTION('',(-2.65346578809046E-15,1.66533453693773E-16,-1.));
#1299=DIRECTION('center_axis',(-0.707106781186541,1.25607396694703E-14,
0.707106781186554));
#1300=DIRECTION('ref_axis',(-0.707106781186554,1.27962535382731E-14,-0.707106781186541));
#1301=DIRECTION('center_axis',(0.,1.,1.66533453693773E-16));
#1302=DIRECTION('ref_axis',(0.,-1.19981092992843E-16,1.));
#1303=DIRECTION('center_axis',(0.,1.,1.66533453693773E-16));
#1304=DIRECTION('ref_axis',(-0.707106781186202,-1.1775693440134E-16,0.707106781186893));
#1305=DIRECTION('center_axis',(0.,-1.,-1.66533453693773E-16));
#1306=DIRECTION('ref_axis',(-0.707106781186202,-1.21855797570857E-16,0.707106781186893));
#1307=DIRECTION('center_axis',(1.,4.73516565609791E-32,-2.84337203791202E-16));
#1308=DIRECTION('ref_axis',(0.,-0.707106781186549,0.707106781186546));
#1309=DIRECTION('',(1.,4.73516565609791E-32,-2.84337203791202E-16));
#1310=DIRECTION('',(-1.,-4.73516565609791E-32,2.84337203791202E-16));
#1311=DIRECTION('center_axis',(0.,1.,1.66533453693773E-16));
#1312=DIRECTION('ref_axis',(0.,-1.19981092992844E-16,1.));
#1313=DIRECTION('center_axis',(0.,-1.,-1.66533453693773E-16));
#1314=DIRECTION('ref_axis',(0.707106781186217,-1.21855797570857E-16,0.707106781186878));
#1315=DIRECTION('center_axis',(0.,1.,1.66533453693773E-16));
#1316=DIRECTION('ref_axis',(0.707106781186217,-1.17756934401338E-16,0.707106781186878));
#1317=DIRECTION('center_axis',(-1.45039980598353E-16,1.66533453693773E-16,
-1.));
#1318=DIRECTION('ref_axis',(0.707106781186546,-0.707106781186549,0.));
#1319=DIRECTION('',(1.45039980598353E-16,-1.66533453693773E-16,1.));
#1320=DIRECTION('',(-1.45039980598353E-16,1.66533453693773E-16,-1.));
#1321=DIRECTION('center_axis',(0.,1.,1.66533453693773E-16));
#1322=DIRECTION('ref_axis',(0.,-1.19981092992843E-16,1.));
#1323=DIRECTION('center_axis',(0.,-1.,-1.66533453693773E-16));
#1324=DIRECTION('ref_axis',(0.707106781186173,1.21855797570857E-16,-0.707106781186922));
#1325=DIRECTION('center_axis',(0.,1.,1.66533453693773E-16));
#1326=DIRECTION('ref_axis',(0.707106781186173,1.17756934401345E-16,-0.707106781186923));
#1327=DIRECTION('center_axis',(-1.,-7.66015271873017E-32,4.59976812395658E-16));
#1328=DIRECTION('ref_axis',(0.,-0.707106781186543,-0.707106781186552));
#1329=DIRECTION('',(1.,7.66015271873017E-32,-4.59976812395658E-16));
#1330=DIRECTION('',(-1.,-7.66015271873017E-32,4.59976812395658E-16));
#1331=DIRECTION('center_axis',(1.,0.,-1.45039980598353E-16));
#1332=DIRECTION('ref_axis',(1.45039980598353E-16,-1.66533453693773E-16,
1.));
#1333=DIRECTION('',(0.,1.,0.));
#1334=DIRECTION('',(0.,1.,0.));
#1335=DIRECTION('center_axis',(0.,-1.,0.));
#1336=DIRECTION('ref_axis',(0.0406506485736739,0.,-0.999173420768657));
#1337=DIRECTION('',(0.,1.,0.));
#1338=DIRECTION('center_axis',(-1.,0.,2.65346578809046E-15));
#1339=DIRECTION('ref_axis',(-2.65346578809046E-15,1.66533453693773E-16,
-1.));
#1340=DIRECTION('',(0.,1.,0.));
#1341=DIRECTION('',(0.,1.,0.));
#1342=DIRECTION('center_axis',(0.,-1.,-1.66533453693773E-16));
#1343=DIRECTION('ref_axis',(1.,0.,0.));
#1344=DIRECTION('center_axis',(0.,-1.,-1.66533453693773E-16));
#1345=DIRECTION('ref_axis',(1.,0.,0.));
#1346=DIRECTION('center_axis',(0.,-1.,-1.66533453693773E-16));
#1347=DIRECTION('ref_axis',(1.,0.,0.));
#1348=DIRECTION('center_axis',(0.,1.,1.66533453693773E-16));
#1349=DIRECTION('ref_axis',(1.,0.,0.));
#1350=DIRECTION('',(1.,-4.60863643054744E-31,2.76739377483994E-15));
#1351=DIRECTION('center_axis',(0.,1.,1.66533453693773E-16));
#1352=DIRECTION('ref_axis',(1.,0.,0.));
#1353=DIRECTION('',(-1.,4.30139400184429E-31,-2.58290085651729E-15));
#1354=DIRECTION('center_axis',(0.,-1.,-1.66533453693773E-16));
#1355=DIRECTION('ref_axis',(1.,0.,0.));
#1356=DIRECTION('center_axis',(0.,-1.,-1.66533453693773E-16));
#1357=DIRECTION('ref_axis',(1.,0.,0.));
#1358=DIRECTION('center_axis',(0.,-1.,0.));
#1359=DIRECTION('ref_axis',(0.999173420768658,0.,0.0406506485736503));
#1360=DIRECTION('',(0.,1.,0.));
#1361=DIRECTION('center_axis',(0.,-1.,0.));
#1362=DIRECTION('ref_axis',(-0.0406506485736821,0.,0.999173420768657));
#1363=DIRECTION('',(0.,1.,0.));
#1364=DIRECTION('center_axis',(0.,-1.,0.));
#1365=DIRECTION('ref_axis',(1.,0.,0.));
#1366=DIRECTION('center_axis',(0.,1.,1.66533453693773E-16));
#1367=DIRECTION('ref_axis',(1.,0.,0.));
#1368=DIRECTION('',(-0.707106781186548,-0.707106781186547,8.65956056235494E-17));
#1369=DIRECTION('center_axis',(0.,-1.,0.));
#1370=DIRECTION('ref_axis',(1.,0.,0.));
#1371=DIRECTION('',(0.,1.,0.));
#1372=DIRECTION('center_axis',(0.,1.,1.66533453693773E-16));
#1373=DIRECTION('ref_axis',(1.,0.,0.));
#1374=DIRECTION('center_axis',(0.,-1.,0.));
#1375=DIRECTION('ref_axis',(1.,0.,0.));
#1376=DIRECTION('center_axis',(0.,1.,1.66533453693773E-16));
#1377=DIRECTION('ref_axis',(1.,0.,0.));
#1378=DIRECTION('',(-0.70710678118655,-0.707106781186545,8.65956056235497E-17));
#1379=DIRECTION('center_axis',(0.,-1.,0.));
#1380=DIRECTION('ref_axis',(1.,0.,0.));
#1381=DIRECTION('',(0.,1.,0.));
#1382=DIRECTION('center_axis',(0.,1.,1.66533453693773E-16));
#1383=DIRECTION('ref_axis',(1.,0.,0.));
#1384=DIRECTION('center_axis',(0.,-1.,0.));
#1385=DIRECTION('ref_axis',(1.,0.,0.));
#1386=DIRECTION('center_axis',(0.,1.,1.66533453693773E-16));
#1387=DIRECTION('ref_axis',(1.,0.,0.));
#1388=DIRECTION('',(-0.707106781186544,-0.707106781186551,8.65956056235489E-17));
#1389=DIRECTION('center_axis',(0.,-1.,0.));
#1390=DIRECTION('ref_axis',(1.,0.,0.));
#1391=DIRECTION('',(0.,1.,0.));
#1392=DIRECTION('center_axis',(0.,1.,1.66533453693773E-16));
#1393=DIRECTION('ref_axis',(1.,0.,0.));
#1394=DIRECTION('center_axis',(0.,-1.,0.));
#1395=DIRECTION('ref_axis',(1.,0.,0.));
#1396=DIRECTION('center_axis',(0.,1.,1.66533453693773E-16));
#1397=DIRECTION('ref_axis',(1.,0.,0.));
#1398=DIRECTION('',(-0.707106781186544,-0.707106781186551,8.65956056235489E-17));
#1399=DIRECTION('center_axis',(0.,-1.,0.));
#1400=DIRECTION('ref_axis',(1.,0.,0.));
#1401=DIRECTION('',(0.,1.,0.));
#1402=DIRECTION('center_axis',(0.,1.,1.66533453693773E-16));
#1403=DIRECTION('ref_axis',(1.,0.,0.));
#1404=DIRECTION('center_axis',(0.,-1.,0.));
#1405=DIRECTION('ref_axis',(1.,0.,0.));
#1406=DIRECTION('',(0.,1.,0.));
#1407=DIRECTION('center_axis',(0.,-1.,-1.66533453693773E-16));
#1408=DIRECTION('ref_axis',(1.,0.,0.));
#1409=DIRECTION('',(0.,-1.,0.));
#1410=DIRECTION('center_axis',(0.,-1.,0.));
#1411=DIRECTION('ref_axis',(1.,0.,0.));
#1412=DIRECTION('',(0.,-1.,0.));
#1413=DIRECTION('',(0.,-1.,0.));
#1414=DIRECTION('center_axis',(0.,-1.,-1.66533453693773E-16));
#1415=DIRECTION('ref_axis',(1.,0.,0.));
#1416=DIRECTION('center_axis',(0.,-1.,-1.66533453693773E-16));
#1417=DIRECTION('ref_axis',(1.,0.,0.));
#1418=DIRECTION('',(-1.,4.30139761519118E-31,-2.58290085651729E-15));
#1419=DIRECTION('center_axis',(3.61334689079101E-37,1.,1.66533453693773E-16));
#1420=DIRECTION('ref_axis',(1.,0.,0.));
#1421=DIRECTION('',(1.,-4.60864004389433E-31,2.76739377483994E-15));
#1422=DIRECTION('',(0.,1.66533453693773E-16,-1.));
#1423=DIRECTION('center_axis',(3.61334689079101E-37,1.,1.66533453693773E-16));
#1424=DIRECTION('ref_axis',(1.,0.,0.));
#1425=DIRECTION('',(-1.,3.61334689079101E-37,0.));
#1426=DIRECTION('center_axis',(3.61334689079101E-37,1.,1.66533453693773E-16));
#1427=DIRECTION('ref_axis',(1.,0.,0.));
#1428=DIRECTION('',(1.02936354882586E-5,-1.6653345368495E-16,0.99999999994702));
#1429=DIRECTION('center_axis',(3.61334689079101E-37,1.,1.66533453693773E-16));
#1430=DIRECTION('ref_axis',(1.,0.,0.));
#1431=DIRECTION('',(1.,-4.31332506814429E-32,2.59004352519272E-16));
#1432=DIRECTION('',(0.,1.66533453693773E-16,-1.));
#1433=DIRECTION('center_axis',(0.,-1.,0.));
#1434=DIRECTION('ref_axis',(1.,0.,0.));
#1435=DIRECTION('',(0.,-1.,0.));
#1436=DIRECTION('center_axis',(0.,-1.,-1.66533453693773E-16));
#1437=DIRECTION('ref_axis',(1.,0.,0.));
#1438=DIRECTION('',(0.,1.,0.));
#1439=DIRECTION('center_axis',(0.,-1.,0.));
#1440=DIRECTION('ref_axis',(-0.707191218947228,0.,0.707022333341694));
#1441=DIRECTION('',(0.,-1.,0.));
#1442=DIRECTION('center_axis',(0.,-1.,-1.66533453693773E-16));
#1443=DIRECTION('ref_axis',(1.,0.,0.));
#1444=DIRECTION('',(0.,1.,0.));
#1445=DIRECTION('center_axis',(0.,-1.,0.));
#1446=DIRECTION('ref_axis',(-0.707110406163681,0.,-0.70710315619083));
#1447=DIRECTION('',(0.,-1.,0.));
#1448=DIRECTION('center_axis',(0.,-1.,-1.66533453693773E-16));
#1449=DIRECTION('ref_axis',(1.,0.,0.));
#1450=DIRECTION('',(0.,1.,0.));
#1451=DIRECTION('center_axis',(-2.76739377483994E-15,0.,1.));
#1452=DIRECTION('ref_axis',(-1.,4.60863643054744E-31,-2.76739377483994E-15));
#1453=DIRECTION('',(0.,-1.,0.));
#1454=DIRECTION('',(-1.,4.60863643054744E-31,-2.76739377483994E-15));
#1455=DIRECTION('',(0.,1.,0.));
#1456=DIRECTION('center_axis',(0.,-1.,0.));
#1457=DIRECTION('ref_axis',(1.,0.,0.));
#1458=DIRECTION('',(0.,-1.,0.));
#1459=DIRECTION('center_axis',(0.,-1.,-1.66533453693773E-16));
#1460=DIRECTION('ref_axis',(1.,0.,0.));
#1461=DIRECTION('center_axis',(2.58290085651729E-15,0.,-1.));
#1462=DIRECTION('ref_axis',(1.,-4.30139400184429E-31,2.58290085651729E-15));
#1463=DIRECTION('',(0.,-1.,0.));
#1464=DIRECTION('',(-1.,4.30139400184429E-31,-2.58290085651729E-15));
#1465=DIRECTION('center_axis',(1.,0.,0.));
#1466=DIRECTION('ref_axis',(0.,-1.66533453693773E-16,1.));
#1467=DIRECTION('',(0.,-1.,0.));
#1468=DIRECTION('',(0.,-1.66533453693773E-16,1.));
#1469=DIRECTION('center_axis',(1.,0.,0.));
#1470=DIRECTION('ref_axis',(0.,-1.66533453693773E-16,1.));
#1471=DIRECTION('',(0.,-1.66533453693773E-16,1.));
#1472=DIRECTION('center_axis',(-0.999999999947021,0.,1.02936354882586E-5));
#1473=DIRECTION('ref_axis',(-1.02936354882586E-5,1.6653345368495E-16,-0.99999999994702));
#1474=DIRECTION('',(-1.02936354882586E-5,1.6653345368495E-16,-0.99999999994702));
#1475=DIRECTION('center_axis',(0.,0.,-1.));
#1476=DIRECTION('ref_axis',(1.,0.,0.));
#1477=DIRECTION('',(1.,0.,0.));
#1478=DIRECTION('center_axis',(-2.59004352519272E-16,0.,1.));
#1479=DIRECTION('ref_axis',(-1.,4.31328893467538E-32,-2.59004352519272E-16));
#1480=DIRECTION('',(-1.,4.31328893467538E-32,-2.59004352519272E-16));
#1481=DIRECTION('center_axis',(1.,0.,2.64696471328223E-15));
#1482=DIRECTION('ref_axis',(2.64696471328223E-15,1.66533453693773E-16,-1.));
#1483=DIRECTION('',(-2.64696471328223E-15,-1.66533453693773E-16,1.));
#1484=DIRECTION('',(0.,1.,0.));
#1485=DIRECTION('',(0.,1.,0.));
#1486=DIRECTION('center_axis',(0.999924769724518,0.,-0.0122660055180722));
#1487=DIRECTION('ref_axis',(-0.0122660055180722,1.66520925336175E-16,-0.999924769724518));
#1488=DIRECTION('',(0.0122660055180722,-1.66520925336175E-16,0.999924769724518));
#1489=DIRECTION('',(0.,1.,0.));
#1490=DIRECTION('center_axis',(0.,1.,0.));
#1491=DIRECTION('ref_axis',(-0.0440518173884787,0.,0.99902924751219));
#1492=DIRECTION('center_axis',(3.61334689079101E-37,1.,1.66533453693773E-16));
#1493=DIRECTION('ref_axis',(-0.0440518173884787,0.,0.99902924751219));
#1494=DIRECTION('',(0.,1.,0.));
#1495=DIRECTION('center_axis',(0.01226600551759,0.,-0.999924769724524));
#1496=DIRECTION('ref_axis',(-0.999924769724524,2.04270026187114E-18,-0.01226600551759));
#1497=DIRECTION('',(0.999924769724524,-2.04270026187114E-18,0.01226600551759));
#1498=DIRECTION('',(0.,1.,0.));
#1499=DIRECTION('center_axis',(-4.26757182410322E-16,0.,-1.));
#1500=DIRECTION('ref_axis',(-1.,-7.10693474754145E-32,4.26757182410322E-16));
#1501=DIRECTION('',(1.,7.10689861407254E-32,-4.26757182410322E-16));
#1502=DIRECTION('',(0.,1.,0.));
#1503=DIRECTION('center_axis',(-0.0122660055181103,0.,-0.999924769724518));
#1504=DIRECTION('ref_axis',(-0.999924769724518,-2.0427002619578E-18,0.0122660055181103));
#1505=DIRECTION('',(0.999924769724518,2.0427002619578E-18,-0.0122660055181103));
#1506=DIRECTION('',(0.,1.,0.));
#1507=DIRECTION('center_axis',(0.,1.,0.));
#1508=DIRECTION('ref_axis',(0.999029247512187,0.,0.0440518173885333));
#1509=DIRECTION('center_axis',(3.61334689079101E-37,1.,1.66533453693773E-16));
#1510=DIRECTION('ref_axis',(0.999029247512187,0.,0.0440518173885333));
#1511=DIRECTION('',(0.,1.,0.));
#1512=DIRECTION('center_axis',(-0.999924769724511,0.,-0.0122660055186873));
#1513=DIRECTION('ref_axis',(-0.0122660055186873,-1.66520925336174E-16,0.999924769724511));
#1514=DIRECTION('',(0.0122660055186873,1.66520925336174E-16,-0.999924769724511));
#1515=DIRECTION('',(0.,1.,0.));
#1516=DIRECTION('center_axis',(-1.,0.,1.66846109609711E-15));
#1517=DIRECTION('ref_axis',(1.66846109609711E-15,-1.66533453693773E-16,
1.));
#1518=DIRECTION('',(-1.66846109609711E-15,1.66533453693773E-16,-1.));
#1519=DIRECTION('',(0.,1.,0.));
#1520=DIRECTION('center_axis',(-0.999924769724519,0.,0.0122660055179959));
#1521=DIRECTION('ref_axis',(0.0122660055179959,-1.66520925336175E-16,0.999924769724519));
#1522=DIRECTION('',(-0.0122660055179959,1.66520925336175E-16,-0.999924769724519));
#1523=DIRECTION('',(0.,1.,0.));
#1524=DIRECTION('center_axis',(0.,1.,0.));
#1525=DIRECTION('ref_axis',(0.0440518173884952,0.,-0.999029247512189));
#1526=DIRECTION('center_axis',(3.61334689079101E-37,1.,1.66533453693773E-16));
#1527=DIRECTION('ref_axis',(0.0440518173884952,0.,-0.999029247512189));
#1528=DIRECTION('',(0.,1.,0.));
#1529=DIRECTION('center_axis',(-0.0122660055167145,0.,0.999924769724535));
#1530=DIRECTION('ref_axis',(0.999924769724535,-2.04270026172533E-18,0.0122660055167145));
#1531=DIRECTION('',(-0.999924769724535,2.04270026172533E-18,-0.0122660055167145));
#1532=DIRECTION('',(0.,1.,0.));
#1533=DIRECTION('center_axis',(2.84337203791202E-16,0.,1.));
#1534=DIRECTION('ref_axis',(-1.,-4.73516565609792E-32,2.84337203791202E-16));
#1535=DIRECTION('center_axis',(-3.61334689079101E-37,-1.,-1.66533453693773E-16));
#1536=DIRECTION('ref_axis',(1.,-3.61334689079101E-37,-6.01743137117085E-53));
#1537=DIRECTION('',(-1.,-3.98580620013192E-32,2.3934184064483E-16));
#1538=DIRECTION('center_axis',(0.,0.,1.));
#1539=DIRECTION('ref_axis',(0.,-1.,0.));
#1540=DIRECTION('',(0.,-1.,0.));
#1541=DIRECTION('',(-1.,0.,0.));
#1542=DIRECTION('center_axis',(0.,1.,0.));
#1543=DIRECTION('ref_axis',(0.,0.,1.));
#1544=DIRECTION('',(0.,0.,1.));
#1545=DIRECTION('',(1.,0.,0.));
#1546=DIRECTION('center_axis',(0.,0.,-1.));
#1547=DIRECTION('ref_axis',(0.,1.,0.));
#1548=DIRECTION('',(0.,1.,0.));
#1549=DIRECTION('center_axis',(-1.,0.,0.));
#1550=DIRECTION('ref_axis',(0.,0.,1.));
#1551=CARTESIAN_POINT('',(0.,0.,0.));
#1552=CARTESIAN_POINT('Origin',(-20.,2.45000000000001,-41.25));
#1553=CARTESIAN_POINT('',(-20.,2.95000000000001,-42.));
#1554=CARTESIAN_POINT('',(-20.,1.95000000000001,-42.));
#1555=CARTESIAN_POINT('',(-20.,2.70000000000001,-42.));
#1556=CARTESIAN_POINT('',(-20.,1.95000000000001,-40.5));
#1557=CARTESIAN_POINT('',(-20.,1.95000000000002,-22.625));
#1558=CARTESIAN_POINT('',(-20.,2.95000000000001,-40.5));
#1559=CARTESIAN_POINT('',(-20.,2.20000000000001,-40.5));
#1560=CARTESIAN_POINT('',(-20.,2.95000000000001,-40.875));
#1561=CARTESIAN_POINT('Origin',(-8.88178419700125E-14,1.95000000000001,
-4.00000000000002));
#1562=CARTESIAN_POINT('',(11.0000001639128,1.95000000000001,-40.5));
#1563=CARTESIAN_POINT('',(11.0000001639128,1.95000000000001,-42.));
#1564=CARTESIAN_POINT('',(11.0000001639128,1.95000000000002,-40.875));
#1565=CARTESIAN_POINT('',(15.6091998501897,1.95000000000002,-40.5));
#1566=CARTESIAN_POINT('',(-21.5,1.95000000000002,-40.5));
#1567=CARTESIAN_POINT('',(15.8600226095029,1.95000000000002,-40.4969231751802));
#1568=CARTESIAN_POINT('',(15.6091998501897,1.95000000000002,-40.5));
#1569=CARTESIAN_POINT('',(21.4969231751797,1.95000000000002,-34.8600226095132));
#1570=CARTESIAN_POINT('Origin',(15.600000009467,1.95000000000002,-34.600000009467));
#1571=CARTESIAN_POINT('',(21.4999999999998,1.95000000000002,-34.6091998502067));
#1572=CARTESIAN_POINT('',(21.4969231751797,1.95000000000002,-34.8600226095132));
#1573=CARTESIAN_POINT('',(21.4999999999999,1.95000000000001,26.6091998502378));
#1574=CARTESIAN_POINT('',(21.4999999999998,1.95000000000002,-34.6091998502067));
#1575=CARTESIAN_POINT('',(21.4969231751802,1.95000000000001,26.8600226095031));
#1576=CARTESIAN_POINT('',(21.4999999999999,1.95000000000001,26.6091998502378));
#1577=CARTESIAN_POINT('',(15.8600226095133,1.95000000000001,32.4969231751797));
#1578=CARTESIAN_POINT('Origin',(15.600000009467,1.95000000000001,26.600000009467));
#1579=CARTESIAN_POINT('',(15.609199850192,1.95000000000001,32.5));
#1580=CARTESIAN_POINT('',(15.8600226095133,1.95000000000001,32.4969231751797));
#1581=CARTESIAN_POINT('',(-2.14999995194376,1.95000000000001,32.5));
#1582=CARTESIAN_POINT('',(15.609199850192,1.95000000000001,32.5));
#1583=CARTESIAN_POINT('',(-2.14999995194376,1.95000000000001,34.));
#1584=CARTESIAN_POINT('',(-2.14999995194376,1.95000000000001,14.5));
#1585=CARTESIAN_POINT('',(15.7981773489527,1.95000000000001,34.));
#1586=CARTESIAN_POINT('',(15.6183997003843,1.95000000000001,34.));
#1587=CARTESIAN_POINT('',(22.9999999999998,1.95000000000001,26.7981773489595));
#1588=CARTESIAN_POINT('Origin',(15.600000009467,1.95000000000001,26.600000009467));
#1589=CARTESIAN_POINT('',(22.9999999999998,1.95000000000002,-34.7981773489601));
#1590=CARTESIAN_POINT('',(22.9999999999998,1.95000000000002,-34.6183997003989));
#1591=CARTESIAN_POINT('',(15.7981773489523,1.95000000000002,-42.));
#1592=CARTESIAN_POINT('Origin',(15.600000009467,1.95000000000002,-34.600000009467));
#1593=CARTESIAN_POINT('',(-23.,1.95000000000002,-42.));
#1594=CARTESIAN_POINT('Origin',(-8.88178419700125E-14,1.95000000000001,
-4.00000000000002));
#1595=CARTESIAN_POINT('',(-23.,1.95000000000002,-42.));
#1596=CARTESIAN_POINT('',(-23.,1.95000000000002,-42.));
#1597=CARTESIAN_POINT('',(-22.9999999999998,1.95000000000001,26.7981773489597));
#1598=CARTESIAN_POINT('',(-22.9999999999998,1.95000000000001,26.618399700399));
#1599=CARTESIAN_POINT('',(-15.7981773489526,1.95000000000001,34.));
#1600=CARTESIAN_POINT('Origin',(-15.600000009467,1.95000000000001,26.600000009467));
#1601=CARTESIAN_POINT('',(-9.64081511021313,1.95000000000001,34.));
#1602=CARTESIAN_POINT('',(15.6183997003843,1.95000000000001,34.));
#1603=CARTESIAN_POINT('',(-9.64081511021313,1.95000000000001,32.5));
#1604=CARTESIAN_POINT('',(-9.64081511021313,1.95000000000001,14.75));
#1605=CARTESIAN_POINT('',(-15.6091998502078,1.95000000000001,32.5));
#1606=CARTESIAN_POINT('',(15.609199850192,1.95000000000001,32.5));
#1607=CARTESIAN_POINT('',(-15.8600226095028,1.95000000000001,32.4969231751802));
#1608=CARTESIAN_POINT('',(-15.6091998502078,1.95000000000001,32.5));
#1609=CARTESIAN_POINT('',(-21.4969231751797,1.95000000000001,26.8600226095131));
#1610=CARTESIAN_POINT('Origin',(-15.600000009467,1.95000000000001,26.600000009467));
#1611=CARTESIAN_POINT('',(-21.5000000000002,1.95000000000001,26.6091998501774));
#1612=CARTESIAN_POINT('',(-21.4969231751797,1.95000000000001,26.8600226095131));
#1613=CARTESIAN_POINT('',(-21.5,1.95000000000002,-40.5));
#1614=CARTESIAN_POINT('',(-21.5000000000002,1.95000000000001,26.6091998501774));
#1615=CARTESIAN_POINT('',(-21.5,1.95000000000002,-40.5));
#1616=CARTESIAN_POINT('Origin',(-9.64081511021313,1.95000000000001,32.5));
#1617=CARTESIAN_POINT('',(-9.64081511021313,3.55000000000001,32.5));
#1618=CARTESIAN_POINT('',(-9.64081511021313,3.55000000000001,34.));
#1619=CARTESIAN_POINT('',(-9.64081511021313,3.55000000000001,32.5));
#1620=CARTESIAN_POINT('',(-9.64081511021313,2.35000000000001,32.5));
#1621=CARTESIAN_POINT('',(-9.64081511021313,3.15000000000001,34.));
#1622=CARTESIAN_POINT('Origin',(-5.89540753107844,3.55000000000001,33.25));
#1623=CARTESIAN_POINT('',(-2.14999995194376,3.55000000000001,34.));
#1624=CARTESIAN_POINT('',(-2.14999995194376,3.55000000000001,32.5));
#1625=CARTESIAN_POINT('',(-2.14999995194376,3.55000000000001,33.));
#1626=CARTESIAN_POINT('',(-7.76811132064578,3.55000000000001,32.5));
#1627=CARTESIAN_POINT('',(-4.0227037415111,3.55000000000001,34.));
#1628=CARTESIAN_POINT('Origin',(-2.14999995194376,1.95000000000001,34.));
#1629=CARTESIAN_POINT('',(-2.14999995194376,3.15000000000001,32.5));
#1630=CARTESIAN_POINT('',(-2.14999995194376,2.35000000000001,34.));
#1631=CARTESIAN_POINT('Origin',(-22.4999999999999,-4.94999999999999,11.3091998501995));
#1632=CARTESIAN_POINT('',(-22.5,-5.44999999999998,-41.5));
#1633=CARTESIAN_POINT('',(-22.4999999999998,-5.44999999999999,26.7913663268994));
#1634=CARTESIAN_POINT('',(-22.4999999999999,-5.44999999999999,11.3091998501995));
#1635=CARTESIAN_POINT('',(-22.9999999999998,-4.94999999999999,26.7981773489597));
#1636=CARTESIAN_POINT('Ctrl Pts',(-22.4999999999998,-5.44999999999999,26.7913663268994));
#1637=CARTESIAN_POINT('Ctrl Pts',(-22.5018729356708,-5.44999999999999,26.791392294139));
#1638=CARTESIAN_POINT('Ctrl Pts',(-22.5037458566482,-5.44998947633588,26.7914182558683));
#1639=CARTESIAN_POINT('Ctrl Pts',(-22.5710489966514,-5.4492331197422,26.792350998059));
#1640=CARTESIAN_POINT('Ctrl Pts',(-22.6357036441755,-5.43566071275904,26.7932403782997));
#1641=CARTESIAN_POINT('Ctrl Pts',(-22.7558077434233,-5.38451260888897,26.7948824135966));
#1642=CARTESIAN_POINT('Ctrl Pts',(-22.8101541110013,-5.34754686850422,26.795620165911));
#1643=CARTESIAN_POINT('Ctrl Pts',(-22.9016150949232,-5.25486654077423,26.7968567399898));
#1644=CARTESIAN_POINT('Ctrl Pts',(-22.9378569264986,-5.20003972619023,26.7973439050123));
#1645=CARTESIAN_POINT('Ctrl Pts',(-22.987285215668,-5.07958115942591,26.798007328593));
#1646=CARTESIAN_POINT('Ctrl Pts',(-22.9999999999998,-5.01510194760745,26.7981773489594));
#1647=CARTESIAN_POINT('Ctrl Pts',(-22.9999999999998,-4.94999999999999,26.7981773489596));
#1648=CARTESIAN_POINT('',(-23.,-4.94999999999998,-42.));
#1649=CARTESIAN_POINT('',(-22.9999999999999,-4.94999999999999,11.3091998501995));
#1650=CARTESIAN_POINT('Origin',(-22.5,-4.94999999999998,-41.5));
#1651=CARTESIAN_POINT('Origin',(-15.600000009467,-4.94999999999999,26.600000009467));
#1652=CARTESIAN_POINT('',(-15.7913663268932,-5.44999999999999,33.5));
#1653=CARTESIAN_POINT('Origin',(-15.600000009467,-5.44999999999999,26.600000009467));
#1654=CARTESIAN_POINT('',(-15.7981773489526,-4.94999999999999,34.));
#1655=CARTESIAN_POINT('Ctrl Pts',(-15.7913663268932,-5.44999999999999,33.5));
#1656=CARTESIAN_POINT('Ctrl Pts',(-15.7913922941328,-5.44999999999999,33.5018729356727));
#1657=CARTESIAN_POINT('Ctrl Pts',(-15.791418255861,-5.4499894763359,33.5037458566468));
#1658=CARTESIAN_POINT('Ctrl Pts',(-15.7923509980631,-5.44923311974054,33.571048996798));
#1659=CARTESIAN_POINT('Ctrl Pts',(-15.7932403782927,-5.43566071274761,33.6357036442026));
#1660=CARTESIAN_POINT('Ctrl Pts',(-15.7948824135896,-5.38451260888896,33.7558077434235));
#1661=CARTESIAN_POINT('Ctrl Pts',(-15.7956201659039,-5.3475468685042,33.8101541110015));
#1662=CARTESIAN_POINT('Ctrl Pts',(-15.7968567399826,-5.25486654077424,33.9016150949234));
#1663=CARTESIAN_POINT('Ctrl Pts',(-15.7973439050051,-5.20003972619024,33.9378569264988));
#1664=CARTESIAN_POINT('Ctrl Pts',(-15.7980073285857,-5.07958115942589,33.9872852156682));
#1665=CARTESIAN_POINT('Ctrl Pts',(-15.7981773489524,-5.01510194760744,34.));
#1666=CARTESIAN_POINT('Ctrl Pts',(-15.7981773489524,-4.94999999999999,34.));
#1667=CARTESIAN_POINT('Origin',(-15.600000009467,-4.94999999999999,26.600000009467));
#1668=CARTESIAN_POINT('Origin',(7.80919337065069,-4.94999999999999,33.5));
#1669=CARTESIAN_POINT('',(15.7913663268931,-5.45,33.5));
#1670=CARTESIAN_POINT('',(7.80919337065069,-5.44999999999999,33.5));
#1671=CARTESIAN_POINT('',(15.7981773489527,-4.94999999999999,34.));
#1672=CARTESIAN_POINT('Ctrl Pts',(15.791366326893,-5.44999999999999,33.5));
#1673=CARTESIAN_POINT('Ctrl Pts',(15.7913922941327,-5.44999999999999,33.5018729356727));
#1674=CARTESIAN_POINT('Ctrl Pts',(15.7914182558611,-5.4499894763359,33.5037458566468));
#1675=CARTESIAN_POINT('Ctrl Pts',(15.7923509980621,-5.44923311974054,33.571048996798));
#1676=CARTESIAN_POINT('Ctrl Pts',(15.793240378293,-5.43566071274761,33.6357036442026));
#1677=CARTESIAN_POINT('Ctrl Pts',(15.7948824135896,-5.38451260888896,33.7558077434234));
#1678=CARTESIAN_POINT('Ctrl Pts',(15.7956201659041,-5.34754686850421,33.8101541110015));
#1679=CARTESIAN_POINT('Ctrl Pts',(15.7968567399829,-5.25486654077421,33.9016150949234));
#1680=CARTESIAN_POINT('Ctrl Pts',(15.7973439050055,-5.20003972619021,33.9378569264988));
#1681=CARTESIAN_POINT('Ctrl Pts',(15.798007328586,-5.0795811594259,33.9872852156682));
#1682=CARTESIAN_POINT('Ctrl Pts',(15.7981773489527,-5.01510194760744,34.));
#1683=CARTESIAN_POINT('Ctrl Pts',(15.7981773489527,-4.94999999999999,34.));
#1684=CARTESIAN_POINT('',(7.80919337065069,-4.94999999999999,34.));
#1685=CARTESIAN_POINT('Origin',(15.600000009467,-4.94999999999999,26.600000009467));
#1686=CARTESIAN_POINT('',(22.9999999999998,-4.94999999999999,26.7981773489595));
#1687=CARTESIAN_POINT('Origin',(15.600000009467,-4.94999999999999,26.600000009467));
#1688=CARTESIAN_POINT('',(22.4999999999998,-5.44999999999999,26.7913663269001));
#1689=CARTESIAN_POINT('Origin',(15.600000009467,-5.44999999999999,26.600000009467));
#1690=CARTESIAN_POINT('Ctrl Pts',(22.4999999999998,-5.44999999999999,26.7913663269001));
#1691=CARTESIAN_POINT('Ctrl Pts',(22.5018729356708,-5.44999999999999,26.7913922941397));
#1692=CARTESIAN_POINT('Ctrl Pts',(22.503745856648,-5.44998947633588,26.7914182558723));
#1693=CARTESIAN_POINT('Ctrl Pts',(22.571048996654,-5.44923311974217,26.7923509980341));
#1694=CARTESIAN_POINT('Ctrl Pts',(22.635703644176,-5.43566071275886,26.7932403782991));
#1695=CARTESIAN_POINT('Ctrl Pts',(22.7558077434233,-5.38451260888894,26.7948824135964));
#1696=CARTESIAN_POINT('Ctrl Pts',(22.8101541110013,-5.34754686850419,26.7956201659109));
#1697=CARTESIAN_POINT('Ctrl Pts',(22.9016150949232,-5.25486654077422,26.7968567399897));
#1698=CARTESIAN_POINT('Ctrl Pts',(22.9378569264986,-5.20003972619022,26.7973439050121));
#1699=CARTESIAN_POINT('Ctrl Pts',(22.987285215668,-5.07958115942588,26.7980073285926));
#1700=CARTESIAN_POINT('Ctrl Pts',(22.9999999999998,-5.01510194760743,26.7981773489593));
#1701=CARTESIAN_POINT('Ctrl Pts',(22.9999999999998,-4.94999999999999,26.7981773489593));
#1702=CARTESIAN_POINT('Origin',(22.4999999999998,-4.94999999999999,-19.3091998501994));
#1703=CARTESIAN_POINT('',(22.9999999999998,-4.94999999999998,-34.7981773489601));
#1704=CARTESIAN_POINT('',(22.9999999999998,-4.94999999999999,-19.3091998501994));
#1705=CARTESIAN_POINT('',(22.4999999999998,-5.44999999999998,-34.7913663269006));
#1706=CARTESIAN_POINT('',(22.4999999999998,-5.44999999999999,-19.3091998501994));
#1707=CARTESIAN_POINT('Ctrl Pts',(22.4999999999998,-5.44999999999999,-34.7913663269006));
#1708=CARTESIAN_POINT('Ctrl Pts',(22.5018729356733,-5.44999999999999,-34.7913922941402));
#1709=CARTESIAN_POINT('Ctrl Pts',(22.5037458566474,-5.44998947633588,-34.7914182559113));
#1710=CARTESIAN_POINT('Ctrl Pts',(22.5710489967238,-5.44923311974112,-34.7923509977261));
#1711=CARTESIAN_POINT('Ctrl Pts',(22.6357036441883,-5.4356607127536,-34.7932403783015));
#1712=CARTESIAN_POINT('Ctrl Pts',(22.7558077434233,-5.38451260888894,-34.7948824135978));
#1713=CARTESIAN_POINT('Ctrl Pts',(22.8101541110013,-5.34754686850417,-34.7956201659121));
#1714=CARTESIAN_POINT('Ctrl Pts',(22.9016150949232,-5.25486654077419,-34.7968567399907));
#1715=CARTESIAN_POINT('Ctrl Pts',(22.9378569264986,-5.20003972619018,-34.7973439050132));
#1716=CARTESIAN_POINT('Ctrl Pts',(22.987285215668,-5.07958115942588,-34.7980073285937));
#1717=CARTESIAN_POINT('Ctrl Pts',(22.9999999999998,-5.01510194760743,-34.7981773489603));
#1718=CARTESIAN_POINT('Ctrl Pts',(22.9999999999998,-4.94999999999999,-34.7981773489603));
#1719=CARTESIAN_POINT('Origin',(15.600000009467,-4.94999999999999,-34.600000009467));
#1720=CARTESIAN_POINT('',(15.7981773489523,-4.94999999999999,-42.));
#1721=CARTESIAN_POINT('Origin',(15.600000009467,-4.94999999999999,-34.600000009467));
#1722=CARTESIAN_POINT('',(15.791366326893,-5.44999999999998,-41.5));
#1723=CARTESIAN_POINT('Origin',(15.600000009467,-5.44999999999998,-34.600000009467));
#1724=CARTESIAN_POINT('Ctrl Pts',(15.791366326893,-5.44999999999999,-41.5));
#1725=CARTESIAN_POINT('Ctrl Pts',(15.7913922941326,-5.44999999999999,-41.5018729356735));
#1726=CARTESIAN_POINT('Ctrl Pts',(15.7914182559034,-5.44998947633588,-41.5037458566478));
#1727=CARTESIAN_POINT('Ctrl Pts',(15.7923509977197,-5.44923311974113,-41.5710489967217));
#1728=CARTESIAN_POINT('Ctrl Pts',(15.7932403782939,-5.4356607127538,-41.635703644188));
#1729=CARTESIAN_POINT('Ctrl Pts',(15.79488241359,-5.384512608889,-41.7558077434234));
#1730=CARTESIAN_POINT('Ctrl Pts',(15.7956201659044,-5.34754686850423,-41.8101541110015));
#1731=CARTESIAN_POINT('Ctrl Pts',(15.7968567399828,-5.25486654077423,-41.9016150949234));
#1732=CARTESIAN_POINT('Ctrl Pts',(15.7973439050055,-5.20003972619022,-41.9378569264988));
#1733=CARTESIAN_POINT('Ctrl Pts',(15.7980073285858,-5.07958115942588,-41.9872852156682));
#1734=CARTESIAN_POINT('Ctrl Pts',(15.7981773489524,-5.01510194760743,-42.));
#1735=CARTESIAN_POINT('Ctrl Pts',(15.7981773489523,-4.94999999999999,-42.));
#1736=CARTESIAN_POINT('Origin',(-11.5000064795415,-4.94999999999998,-41.5));
#1737=CARTESIAN_POINT('',(-11.5000064795415,-4.94999999999998,-42.));
#1738=CARTESIAN_POINT('',(-11.5000064795415,-5.44999999999998,-41.5));
#1739=CARTESIAN_POINT('Origin',(22.9999999999998,-0.0499999999999823,-34.6183997003989));
#1740=CARTESIAN_POINT('',(22.9999999999998,-0.0499999999999823,-34.7981773489601));
#1741=CARTESIAN_POINT('',(22.9999999999998,-0.0499999999999925,26.7981773489595));
#1742=CARTESIAN_POINT('Origin',(15.600000009467,-0.0499999999999823,-34.600000009467));
#1743=CARTESIAN_POINT('',(15.7981773489523,-0.0499999999999823,-42.));
#1744=CARTESIAN_POINT('Origin',(-22.9999999999998,-0.0499999999999925,26.618399700399));
#1745=CARTESIAN_POINT('',(-22.9999999999998,-0.0499999999999925,26.7981773489597));
#1746=CARTESIAN_POINT('',(-23.,-0.049999999999981,-42.));
#1747=CARTESIAN_POINT('Origin',(-1.29590829511805E-5,-5.44999999999999,
-4.00000000000001));
#1748=CARTESIAN_POINT('',(12.400000009467,-5.44999999999998,-34.600000009467));
#1749=CARTESIAN_POINT('Origin',(15.600000009467,-5.44999999999998,-34.600000009467));
#1750=CARTESIAN_POINT('',(-18.800000009467,-5.44999999999999,26.600000009467));
#1751=CARTESIAN_POINT('Origin',(-15.600000009467,-5.44999999999999,26.600000009467));
#1752=CARTESIAN_POINT('',(-15.7176999459863,-5.44999999999999,-9.40173303508686));
#1753=CARTESIAN_POINT('',(-15.4823000540137,-5.44999999999999,-9.40173303508686));
#1754=CARTESIAN_POINT('Origin',(-15.6,-5.44999999999999,-13.4));
#1755=CARTESIAN_POINT('',(-7.74115002700689,-5.44999999999999,-9.40173303508684));
#1756=CARTESIAN_POINT('',(-15.4823000540137,-5.44999999999999,-17.3982669649132));
#1757=CARTESIAN_POINT('',(-15.7176999459862,-5.44999999999999,-17.3982669649132));
#1758=CARTESIAN_POINT('Origin',(-15.6,-5.44999999999999,-13.4));
#1759=CARTESIAN_POINT('',(-9.35000000000003,-5.44999999999999,-17.3982669649132));
#1760=CARTESIAN_POINT('',(12.400000009467,-5.44999999999999,26.600000009467));
#1761=CARTESIAN_POINT('Origin',(15.600000009467,-5.44999999999999,26.600000009467));
#1762=CARTESIAN_POINT('',(-18.8,-5.44999999999999,-13.4));
#1763=CARTESIAN_POINT('Origin',(-15.6,-5.44999999999999,-13.4));
#1764=CARTESIAN_POINT('Origin',(15.600000009467,-0.0499999999999925,26.600000009467));
#1765=CARTESIAN_POINT('',(15.7981773489527,-0.0499999999999925,34.));
#1766=CARTESIAN_POINT('Origin',(-15.600000009467,-0.0499999999999925,26.600000009467));
#1767=CARTESIAN_POINT('',(-15.7981773489526,-0.0499999999999925,34.));
#1768=CARTESIAN_POINT('Origin',(-15.6,-4.84999999999999,-13.4));
#1769=CARTESIAN_POINT('',(-17.6,-4.24999999999999,-13.4));
#1770=CARTESIAN_POINT('Origin',(-15.6,-4.24999999999999,-13.4));
#1771=CARTESIAN_POINT('',(-18.2,-4.84999999999999,-13.4));
#1772=CARTESIAN_POINT('Origin',(-15.6,-0.0499999999999858,-13.4));
#1773=CARTESIAN_POINT('',(-17.6,-0.0499999999999858,-13.4));
#1774=CARTESIAN_POINT('',(-17.6,-0.0499999999999858,-13.4));
#1775=CARTESIAN_POINT('Origin',(-15.6,-0.0499999999999858,-13.4));
#1776=CARTESIAN_POINT('Origin',(15.600000009467,-4.84999999999999,-34.600000009467));
#1777=CARTESIAN_POINT('',(13.600000009467,-4.24999999999999,-34.600000009467));
#1778=CARTESIAN_POINT('Origin',(15.600000009467,-4.24999999999999,-34.600000009467));
#1779=CARTESIAN_POINT('',(13.000000009467,-4.84999999999999,-34.600000009467));
#1780=CARTESIAN_POINT('Origin',(15.600000009467,-0.0499999999999823,-34.600000009467));
#1781=CARTESIAN_POINT('',(13.600000009467,-0.0499999999999823,-34.600000009467));
#1782=CARTESIAN_POINT('',(13.600000009467,-0.0499999999999823,-34.600000009467));
#1783=CARTESIAN_POINT('Origin',(15.600000009467,-0.0499999999999823,-34.600000009467));
#1784=CARTESIAN_POINT('Origin',(15.600000009467,-4.84999999999999,26.600000009467));
#1785=CARTESIAN_POINT('',(13.600000009467,-4.24999999999998,26.600000009467));
#1786=CARTESIAN_POINT('Origin',(15.600000009467,-4.24999999999998,26.600000009467));
#1787=CARTESIAN_POINT('',(13.000000009467,-4.84999999999999,26.600000009467));
#1788=CARTESIAN_POINT('Origin',(15.600000009467,-0.0499999999999925,26.600000009467));
#1789=CARTESIAN_POINT('',(13.600000009467,-0.0499999999999925,26.600000009467));
#1790=CARTESIAN_POINT('',(13.600000009467,-0.0499999999999925,26.600000009467));
#1791=CARTESIAN_POINT('Origin',(15.600000009467,-0.0499999999999925,26.600000009467));
#1792=CARTESIAN_POINT('Origin',(-15.600000009467,-4.84999999999999,26.600000009467));
#1793=CARTESIAN_POINT('',(-17.600000009467,-4.24999999999998,26.600000009467));
#1794=CARTESIAN_POINT('Origin',(-15.600000009467,-4.24999999999998,26.600000009467));
#1795=CARTESIAN_POINT('',(-18.200000009467,-4.84999999999999,26.600000009467));
#1796=CARTESIAN_POINT('Origin',(-15.600000009467,-0.0499999999999925,26.600000009467));
#1797=CARTESIAN_POINT('',(-17.600000009467,-0.0499999999999925,26.600000009467));
#1798=CARTESIAN_POINT('',(-17.600000009467,-0.0499999999999925,26.600000009467));
#1799=CARTESIAN_POINT('Origin',(-15.600000009467,-0.0499999999999925,26.600000009467));
#1800=CARTESIAN_POINT('Origin',(-15.6,-3.44999999999999,-13.4));
#1801=CARTESIAN_POINT('',(-15.4823000540137,-3.44999999999999,-17.3982669649132));
#1802=CARTESIAN_POINT('',(-15.4823000540137,-3.44999999999999,-17.3982669649132));
#1803=CARTESIAN_POINT('',(-15.7176999459862,-3.44999999999999,-17.3982669649132));
#1804=CARTESIAN_POINT('Origin',(-15.6,-3.44999999999999,-13.4));
#1805=CARTESIAN_POINT('',(-15.7176999459862,-3.44999999999999,-17.3982669649132));
#1806=CARTESIAN_POINT('Origin',(-15.6,-3.44999999999999,-13.4));
#1807=CARTESIAN_POINT('',(-15.4823000540137,-3.44999999999999,-9.40173303508686));
#1808=CARTESIAN_POINT('',(-15.4823000540138,-3.44999999999999,-9.40173303508686));
#1809=CARTESIAN_POINT('',(-15.7176999459863,-3.44999999999999,-9.40173303508686));
#1810=CARTESIAN_POINT('',(-15.7176999459863,-3.44999999999999,-9.40173303508686));
#1811=CARTESIAN_POINT('Origin',(-15.6,-3.44999999999999,-13.4));
#1812=CARTESIAN_POINT('Origin',(-1.29590829511805E-5,-3.44999999999999,
-4.00000000000001));
#1813=CARTESIAN_POINT('',(-18.7,-3.44999999999999,-17.3982669649132));
#1814=CARTESIAN_POINT('',(-9.34999999480783,-3.44999999999999,-17.3982669649132));
#1815=CARTESIAN_POINT('Origin',(-15.6,-3.44999999999999,-13.4));
#1816=CARTESIAN_POINT('',(-18.7,-3.44999999999999,-9.40173303508687));
#1817=CARTESIAN_POINT('',(-7.7411500218147,-3.44999999999999,-9.40173303508684));
#1818=CARTESIAN_POINT('',(-18.7,-3.44999999999999,24.0721566504229));
#1819=CARTESIAN_POINT('',(-18.7,-3.44999999999998,-20.85));
#1820=CARTESIAN_POINT('',(-13.0721566504229,-3.44999999999999,29.7));
#1821=CARTESIAN_POINT('Origin',(-15.6,-3.44999999999999,26.6));
#1822=CARTESIAN_POINT('',(13.0721566504229,-3.44999999999999,29.7));
#1823=CARTESIAN_POINT('',(-7.79601339825049,-3.44999999999999,29.7));
#1824=CARTESIAN_POINT('',(18.6999740818341,-3.44999999999999,24.072124866225));
#1825=CARTESIAN_POINT('Origin',(15.6,-3.44999999999999,26.6));
#1826=CARTESIAN_POINT('',(18.6993961606861,-3.44999999999998,-32.0714163175554));
#1827=CARTESIAN_POINT('',(18.6998425682003,-3.44999999999999,11.2959163078512));
#1828=CARTESIAN_POINT('',(13.0721566504229,-3.44999999999998,-37.7));
#1829=CARTESIAN_POINT('Origin',(15.6,-3.44999999999999,-34.6));
#1830=CARTESIAN_POINT('',(-18.7,-3.44999999999998,-37.7));
#1831=CARTESIAN_POINT('',(7.79601339825051,-3.44999999999998,-37.7));
#1832=CARTESIAN_POINT('',(-18.7,-3.44999999999998,-20.85));
#1833=CARTESIAN_POINT('Origin',(-15.6,-0.0499999999999925,26.6));
#1834=CARTESIAN_POINT('',(-18.7,-0.049999999999992,24.0721566504229));
#1835=CARTESIAN_POINT('',(-18.7,-0.0499999999999925,24.0721566504229));
#1836=CARTESIAN_POINT('',(-13.0721566504229,-0.049999999999993,29.7));
#1837=CARTESIAN_POINT('Origin',(-15.6,-0.0499999999999925,26.6));
#1838=CARTESIAN_POINT('',(-13.0721566504229,-0.0499999999999925,29.7));
#1839=CARTESIAN_POINT('Origin',(15.6,-0.0499999999999823,-34.6));
#1840=CARTESIAN_POINT('',(18.6993961606861,-0.0499999999999827,-32.0714163175554));
#1841=CARTESIAN_POINT('',(18.6993961606861,-0.0499999999999823,-32.0714163175554));
#1842=CARTESIAN_POINT('',(13.0721566504229,-0.0499999999999818,-37.7));
#1843=CARTESIAN_POINT('Origin',(15.6,-0.0499999999999823,-34.6));
#1844=CARTESIAN_POINT('',(13.0721566504229,-0.0499999999999823,-37.7));
#1845=CARTESIAN_POINT('Origin',(15.6,-0.0499999999999925,26.6));
#1846=CARTESIAN_POINT('',(13.0721566504229,-0.049999999999993,29.7));
#1847=CARTESIAN_POINT('',(13.0721566504229,-0.0499999999999925,29.7));
#1848=CARTESIAN_POINT('',(18.6999740818341,-0.049999999999992,24.072124866225));
#1849=CARTESIAN_POINT('Origin',(15.6,-0.0499999999999925,26.6));
#1850=CARTESIAN_POINT('',(18.6999740818341,-0.0499999999999925,24.072124866225));
#1851=CARTESIAN_POINT('Origin',(-15.4823000540137,-0.0499999999999865,-9.40173303508686));
#1852=CARTESIAN_POINT('',(-15.4823000540137,-0.0499999999999865,-9.40173303508686));
#1853=CARTESIAN_POINT('',(-15.4823000540137,-0.0499999999999865,-9.40173303508686));
#1854=CARTESIAN_POINT('',(-18.7,-0.0499999999999865,-9.40173303508687));
#1855=CARTESIAN_POINT('',(-15.4823000540137,-0.0499999999999865,-9.40173303508686));
#1856=CARTESIAN_POINT('',(-18.7,-0.0499999999999841,-9.40173303508687));
#1857=CARTESIAN_POINT('Origin',(-15.6,-0.0499999999999858,-13.4));
#1858=CARTESIAN_POINT('',(-15.4823000540137,-0.0499999999999851,-17.3982669649132));
#1859=CARTESIAN_POINT('',(-15.4823000540137,-0.0499999999999851,-17.3982669649132));
#1860=CARTESIAN_POINT('Origin',(-15.6,-0.0499999999999858,-13.4));
#1861=CARTESIAN_POINT('Origin',(-18.7,-0.0499999999999851,-17.3982669649132));
#1862=CARTESIAN_POINT('',(-18.7,-0.0499999999999851,-17.3982669649132));
#1863=CARTESIAN_POINT('',(-18.7,-0.0499999999999834,-17.3982669649132));
#1864=CARTESIAN_POINT('',(-15.4823000540137,-0.0499999999999851,-17.3982669649132));
#1865=CARTESIAN_POINT('Origin',(-18.7,-0.0499999999999818,-37.7));
#1866=CARTESIAN_POINT('',(-18.7,-0.0499999999999818,-37.7));
#1867=CARTESIAN_POINT('',(-18.7,-0.0499999999999818,-37.7));
#1868=CARTESIAN_POINT('',(-18.7,-0.0499999999999925,26.5920267965002));
#1869=CARTESIAN_POINT('Origin',(-18.7,-0.0499999999999818,-37.7));
#1870=CARTESIAN_POINT('',(-18.7,-0.0499999999999925,26.5920267965002));
#1871=CARTESIAN_POINT('Origin',(18.7000000207686,-0.0499999999999925,26.5920251034447));
#1872=CARTESIAN_POINT('',(18.6993696840283,-0.0499999999999823,-34.6435549816587));
#1873=CARTESIAN_POINT('Origin',(-15.592026796501,-0.049999999999993,29.7));
#1874=CARTESIAN_POINT('',(15.5920267965003,-0.049999999999993,29.7));
#1875=CARTESIAN_POINT('Origin',(15.592026796501,-0.0499999999999818,-37.7));
#1876=CARTESIAN_POINT('',(-18.7,-0.0499999999999818,-37.7));
#1877=CARTESIAN_POINT('Origin',(-21.5000000000002,-0.0499999999999925,26.6091998501774));
#1878=CARTESIAN_POINT('',(-21.5,-0.0499999999999813,-40.5));
#1879=CARTESIAN_POINT('',(-21.5000000000002,-0.0499999999999925,26.6091998501774));
#1880=CARTESIAN_POINT('',(-21.5000000000001,-0.0499999999999899,11.3045999250887));
#1881=CARTESIAN_POINT('',(-21.5,-0.0499999999999813,-40.5));
#1882=CARTESIAN_POINT('',(-21.5000000000002,-0.0499999999999925,26.6091998501774));
#1883=CARTESIAN_POINT('Origin',(-21.4969231751797,-0.0499999999999925,26.8600226095131));
#1884=CARTESIAN_POINT('',(-21.4969231751797,-0.0499999999999925,26.8600226095131));
#1885=CARTESIAN_POINT('',(-21.684556381939,-0.04999999999999,11.564163596164));
#1886=CARTESIAN_POINT('',(-21.4969231751797,-0.0499999999999925,26.8600226095131));
#1887=CARTESIAN_POINT('Origin',(-15.600000009467,-0.0499999999999925,26.600000009467));
#1888=CARTESIAN_POINT('',(-15.8600226095028,-0.0499999999999934,32.4969231751802));
#1889=CARTESIAN_POINT('Origin',(-15.600000009467,-0.0499999999999874,26.600000009467));
#1890=CARTESIAN_POINT('',(-15.8600226095028,-0.0499999999999934,32.4969231751802));
#1891=CARTESIAN_POINT('Origin',(-15.6091998502078,-0.0499999999999934,32.5));
#1892=CARTESIAN_POINT('',(-15.6091998502078,-0.0499999999999934,32.5));
#1893=CARTESIAN_POINT('',(-8.02961192539052,-0.0499999999999935,32.5929782620872));
#1894=CARTESIAN_POINT('',(-15.6091998502078,-0.0499999999999934,32.5));
#1895=CARTESIAN_POINT('Origin',(15.609199850192,-0.0499999999999934,32.5));
#1896=CARTESIAN_POINT('',(15.609199850192,-0.0499999999999934,32.5));
#1897=CARTESIAN_POINT('',(7.80459992509598,-0.0499999999999934,32.5));
#1898=CARTESIAN_POINT('',(15.609199850192,-0.0499999999999934,32.5));
#1899=CARTESIAN_POINT('Origin',(15.8600226095133,-0.0499999999999934,32.4969231751797));
#1900=CARTESIAN_POINT('',(15.8600226095133,-0.0499999999999934,32.4969231751797));
#1901=CARTESIAN_POINT('',(8.15502330505274,-0.0499999999999935,32.5914398496807));
#1902=CARTESIAN_POINT('',(15.8600226095133,-0.0499999999999934,32.4969231751797));
#1903=CARTESIAN_POINT('Origin',(15.600000009467,-0.0499999999999925,26.600000009467));
#1904=CARTESIAN_POINT('',(21.4969231751802,-0.0499999999999925,26.8600226095031));
#1905=CARTESIAN_POINT('Origin',(15.600000009467,-0.0499999999999874,26.600000009467));
#1906=CARTESIAN_POINT('',(21.4969231751802,-0.0499999999999925,26.8600226095031));
#1907=CARTESIAN_POINT('Origin',(21.4999999999999,-0.0499999999999925,26.6091998502378));
#1908=CARTESIAN_POINT('',(21.4999999999999,-0.0499999999999925,26.6091998502378));
#1909=CARTESIAN_POINT('',(21.6860947943585,-0.0499999999999899,11.4387522165332));
#1910=CARTESIAN_POINT('',(21.4999999999999,-0.0499999999999925,26.6091998502378));
#1911=CARTESIAN_POINT('Origin',(21.4999999999998,-0.0499999999999823,-34.6091998502067));
#1912=CARTESIAN_POINT('',(21.4999999999998,-0.0499999999999823,-34.6091998502067));
#1913=CARTESIAN_POINT('',(21.4999999999998,-0.0499999999999848,-19.3045999251034));
#1914=CARTESIAN_POINT('',(21.4999999999998,-0.0499999999999823,-34.6091998502067));
#1915=CARTESIAN_POINT('Origin',(21.4969231751797,-0.0499999999999822,-34.8600226095132));
#1916=CARTESIAN_POINT('',(21.4969231751797,-0.0499999999999822,-34.8600226095132));
#1917=CARTESIAN_POINT('',(21.6845563819378,-0.0499999999999848,-19.5641635961633));
#1918=CARTESIAN_POINT('',(21.4969231751797,-0.0499999999999822,-34.8600226095132));
#1919=CARTESIAN_POINT('Origin',(15.600000009467,-0.0499999999999823,-34.600000009467));
#1920=CARTESIAN_POINT('',(15.8600226095029,-0.0499999999999813,-40.4969231751802));
#1921=CARTESIAN_POINT('Origin',(15.600000009467,-0.0499999999999874,-34.600000009467));
#1922=CARTESIAN_POINT('',(15.8600226095029,-0.0499999999999813,-40.4969231751802));
#1923=CARTESIAN_POINT('Origin',(15.6091998501897,-0.0499999999999813,-40.5));
#1924=CARTESIAN_POINT('',(15.6091998501897,-0.0499999999999813,-40.5));
#1925=CARTESIAN_POINT('',(8.0296119253652,-0.0499999999999813,-40.5929782620806));
#1926=CARTESIAN_POINT('',(15.6091998501897,-0.0499999999999813,-40.5));
#1927=CARTESIAN_POINT('Origin',(15.6183997003843,-0.0499999999999937,34.));
#1928=CARTESIAN_POINT('Origin',(-8.88178419700125E-14,-0.0499999999999874,
-4.00000000000002));
#1929=CARTESIAN_POINT('',(-10.75,-0.0499999999999813,-40.5));
#1930=CARTESIAN_POINT('Origin',(9.00000013411045,2.95000000000001,-40.5));
#1931=CARTESIAN_POINT('',(11.0000001639128,2.95000000000001,-40.5));
#1932=CARTESIAN_POINT('',(11.0000001639128,2.70000000000001,-40.5));
#1933=CARTESIAN_POINT('',(-18.7673903818208,2.95000000000001,-40.5));
#1934=CARTESIAN_POINT('Origin',(9.00000013411045,2.95000000000001,-42.));
#1935=CARTESIAN_POINT('',(11.0000001639128,2.95000000000001,-42.));
#1936=CARTESIAN_POINT('',(11.0000001639128,2.95000000000001,-41.625));
#1937=CARTESIAN_POINT('',(9.00000013411045,2.95000000000001,-42.));
#1938=CARTESIAN_POINT('Origin',(9.00000013411045,1.95000000000001,-42.));
#1939=CARTESIAN_POINT('',(11.0000001639128,2.20000000000001,-42.));
#1940=CARTESIAN_POINT('Origin',(11.0000001639128,2.45000000000001,-41.25));
#1941=UNCERTAINTY_MEASURE_WITH_UNIT(LENGTH_MEASURE(0.01),#1945,
'DISTANCE_ACCURACY_VALUE',
'Maximum model space distance between geometric entities at asserted c
onnectivities');
#1942=UNCERTAINTY_MEASURE_WITH_UNIT(LENGTH_MEASURE(0.01),#1945,
'DISTANCE_ACCURACY_VALUE',
'Maximum model space distance between geometric entities at asserted c
onnectivities');
#1943=(
GEOMETRIC_REPRESENTATION_CONTEXT(3)
GLOBAL_UNCERTAINTY_ASSIGNED_CONTEXT((#1941))
GLOBAL_UNIT_ASSIGNED_CONTEXT((#1945,#1946,#1947))
REPRESENTATION_CONTEXT('','3D')
);
#1944=(
GEOMETRIC_REPRESENTATION_CONTEXT(3)
GLOBAL_UNCERTAINTY_ASSIGNED_CONTEXT((#1942))
GLOBAL_UNIT_ASSIGNED_CONTEXT((#1945,#1946,#1947))
REPRESENTATION_CONTEXT('','3D')
);
#1945=(
LENGTH_UNIT()
NAMED_UNIT(*)
SI_UNIT(.MILLI.,.METRE.)
);
#1946=(
NAMED_UNIT(*)
PLANE_ANGLE_UNIT()
SI_UNIT($,.RADIAN.)
);
#1947=(
NAMED_UNIT(*)
SI_UNIT($,.STERADIAN.)
SOLID_ANGLE_UNIT()
);
#1948=SHAPE_DEFINITION_REPRESENTATION(#1949,#1950);
#1949=PRODUCT_DEFINITION_SHAPE('',$,#1952);
#1950=SHAPE_REPRESENTATION('',(#1136),#1943);
#1951=PRODUCT_DEFINITION_CONTEXT('part definition',#1956,'design');
#1952=PRODUCT_DEFINITION('2026-06-14-12-09-22-851','daughter_casing_3',
#1953,#1951);
#1953=PRODUCT_DEFINITION_FORMATION('',$,#1958);
#1954=PRODUCT_RELATED_PRODUCT_CATEGORY('daughter_casing_3',
'daughter_casing_3',(#1958));
#1955=APPLICATION_PROTOCOL_DEFINITION('international standard',
'automotive_design',2009,#1956);
#1956=APPLICATION_CONTEXT(
'Core Data for Automotive Mechanical Design Process');
#1957=PRODUCT_CONTEXT('part definition',#1956,'mechanical');
#1958=PRODUCT('2026-06-14-12-09-22-851','daughter_casing_3',$,(#1957));
#1959=PRESENTATION_STYLE_ASSIGNMENT((#1961));
#1960=PRESENTATION_STYLE_ASSIGNMENT((#1962));
#1961=SURFACE_STYLE_USAGE(.BOTH.,#1963);
#1962=SURFACE_STYLE_USAGE(.BOTH.,#1964);
#1963=SURFACE_SIDE_STYLE('',(#1965));
#1964=SURFACE_SIDE_STYLE('',(#1966));
#1965=SURFACE_STYLE_FILL_AREA(#1967);
#1966=SURFACE_STYLE_FILL_AREA(#1968);
#1967=FILL_AREA_STYLE('Steel - Satin',(#1969));
#1968=FILL_AREA_STYLE('ABS (White)',(#1970));
#1969=FILL_AREA_STYLE_COLOUR('Steel - Satin',#1971);
#1970=FILL_AREA_STYLE_COLOUR('ABS (White)',#1972);
#1971=COLOUR_RGB('Steel - Satin',0.627450980392157,0.627450980392157,0.627450980392157);
#1972=COLOUR_RGB('ABS (White)',0.933333333333333,0.133333333333333,0.133333333333333);
ENDSEC;
END-ISO-10303-21;
