%TF.GenerationSoftware,KiCad,Pcbnew,10.0.4*%
%TF.CreationDate,2026-09-02T14:08:11+02:00*%
%TF.ProjectId,TelemetryGroundstationMB,54656c65-6d65-4747-9279-47726f756e64,rev?*%
%TF.SameCoordinates,Original*%
%TF.FileFunction,Paste,Top*%
%TF.FilePolarity,Positive*%
%FSLAX46Y46*%
G04 Gerber Fmt 4.6, Leading zero omitted, Abs format (unit mm)*
G04 Created by KiCad (PCBNEW 10.0.4) date 2026-09-02 14:08:11*
%MOMM*%
%LPD*%
G01*
G04 APERTURE LIST*
G04 Aperture macros list*
%AMRoundRect*
0 Rectangle with rounded corners*
0 $1 Rounding radius*
0 $2 $3 $4 $5 $6 $7 $8 $9 X,Y pos of 4 corners*
0 Add a 4 corners polygon primitive as box body*
4,1,4,$2,$3,$4,$5,$6,$7,$8,$9,$2,$3,0*
0 Add four circle primitives for the rounded corners*
1,1,$1+$1,$2,$3*
1,1,$1+$1,$4,$5*
1,1,$1+$1,$6,$7*
1,1,$1+$1,$8,$9*
0 Add four rect primitives between the rounded corners*
20,1,$1+$1,$2,$3,$4,$5,0*
20,1,$1+$1,$4,$5,$6,$7,0*
20,1,$1+$1,$6,$7,$8,$9,0*
20,1,$1+$1,$8,$9,$2,$3,0*%
G04 Aperture macros list end*
%ADD10C,2.050000*%
%ADD11RoundRect,0.250000X0.450000X-0.350000X0.450000X0.350000X-0.450000X0.350000X-0.450000X-0.350000X0*%
%ADD12RoundRect,0.250000X0.337500X0.475000X-0.337500X0.475000X-0.337500X-0.475000X0.337500X-0.475000X0*%
%ADD13RoundRect,0.250000X0.450000X-0.262500X0.450000X0.262500X-0.450000X0.262500X-0.450000X-0.262500X0*%
%ADD14RoundRect,0.250000X-0.450000X0.262500X-0.450000X-0.262500X0.450000X-0.262500X0.450000X0.262500X0*%
%ADD15RoundRect,0.250000X-0.350000X-0.450000X0.350000X-0.450000X0.350000X0.450000X-0.350000X0.450000X0*%
%ADD16RoundRect,0.250000X0.350000X0.450000X-0.350000X0.450000X-0.350000X-0.450000X0.350000X-0.450000X0*%
%ADD17RoundRect,0.250000X-0.325000X-0.450000X0.325000X-0.450000X0.325000X0.450000X-0.325000X0.450000X0*%
%ADD18RoundRect,0.250000X-0.450000X0.350000X-0.450000X-0.350000X0.450000X-0.350000X0.450000X0.350000X0*%
%ADD19RoundRect,0.250000X-0.450000X0.325000X-0.450000X-0.325000X0.450000X-0.325000X0.450000X0.325000X0*%
%ADD20RoundRect,0.250000X0.262500X0.450000X-0.262500X0.450000X-0.262500X-0.450000X0.262500X-0.450000X0*%
%ADD21RoundRect,0.250000X0.450000X-0.325000X0.450000X0.325000X-0.450000X0.325000X-0.450000X-0.325000X0*%
%ADD22RoundRect,0.175000X-0.175000X-0.325000X0.175000X-0.325000X0.175000X0.325000X-0.175000X0.325000X0*%
%ADD23RoundRect,0.150000X-0.200000X-0.150000X0.200000X-0.150000X0.200000X0.150000X-0.200000X0.150000X0*%
%ADD24R,0.600000X1.150000*%
%ADD25R,0.300000X1.150000*%
%ADD26R,1.550000X1.250000*%
%ADD27R,1.550000X1.500000*%
%ADD28R,1.600000X2.600000*%
%ADD29RoundRect,0.250000X2.375000X-2.025000X2.375000X2.025000X-2.375000X2.025000X-2.375000X-2.025000X0*%
%ADD30RoundRect,0.250000X0.300000X-2.050000X0.300000X2.050000X-0.300000X2.050000X-0.300000X-2.050000X0*%
%ADD31RoundRect,0.250000X-0.450000X6.610000X-0.450000X-6.610000X0.450000X-6.610000X0.450000X6.610000X0*%
%ADD32RoundRect,0.210000X-0.490000X6.650000X-0.490000X-6.650000X0.490000X-6.650000X0.490000X6.650000X0*%
%ADD33RoundRect,0.075000X0.662500X0.075000X-0.662500X0.075000X-0.662500X-0.075000X0.662500X-0.075000X0*%
%ADD34RoundRect,0.075000X0.075000X0.662500X-0.075000X0.662500X-0.075000X-0.662500X0.075000X-0.662500X0*%
%ADD35RoundRect,0.165000X-0.740000X-0.495000X0.740000X-0.495000X0.740000X0.495000X-0.740000X0.495000X0*%
%ADD36RoundRect,0.250000X-0.337500X-0.475000X0.337500X-0.475000X0.337500X0.475000X-0.337500X0.475000X0*%
%ADD37RoundRect,0.250000X-0.262500X-0.450000X0.262500X-0.450000X0.262500X0.450000X-0.262500X0.450000X0*%
%ADD38R,0.355600X0.355600*%
%ADD39R,0.812800X0.254000*%
%ADD40R,0.254000X0.812800*%
%ADD41R,1.701800X1.701800*%
%ADD42R,1.150000X0.600000*%
%ADD43R,1.150000X0.300000*%
%ADD44R,1.250000X1.550000*%
%ADD45R,1.500000X1.550000*%
%ADD46RoundRect,0.150000X-0.150000X0.512500X-0.150000X-0.512500X0.150000X-0.512500X0.150000X0.512500X0*%
%ADD47RoundRect,0.225000X0.225000X0.375000X-0.225000X0.375000X-0.225000X-0.375000X0.225000X-0.375000X0*%
G04 APERTURE END LIST*
%TO.C,M3*%
D10*
X186025000Y-135500000D02*
G75*
G02*
X183975000Y-135500000I-1025000J0D01*
G01*
X183975000Y-135500000D02*
G75*
G02*
X186025000Y-135500000I1025000J0D01*
G01*
%TO.C,M2*%
X211525000Y-80500000D02*
G75*
G02*
X209475000Y-80500000I-1025000J0D01*
G01*
X209475000Y-80500000D02*
G75*
G02*
X211525000Y-80500000I1025000J0D01*
G01*
%TO.C,M4*%
X87275000Y-135500000D02*
G75*
G02*
X85225000Y-135500000I-1025000J0D01*
G01*
X85225000Y-135500000D02*
G75*
G02*
X87275000Y-135500000I1025000J0D01*
G01*
%TO.C,M1*%
X87525000Y-80500000D02*
G75*
G02*
X85475000Y-80500000I-1025000J0D01*
G01*
X85475000Y-80500000D02*
G75*
G02*
X87525000Y-80500000I1025000J0D01*
G01*
%TD*%
D11*
%TO.C,R52*%
X156000000Y-133403400D03*
X156000000Y-131403400D03*
%TD*%
D12*
%TO.C,C6*%
X200000189Y-92000189D03*
X197925189Y-92000189D03*
%TD*%
D13*
%TO.C,R27*%
X205750000Y-89825189D03*
X205750000Y-88000189D03*
%TD*%
D14*
%TO.C,R22*%
X205750000Y-95000189D03*
X205750000Y-96825189D03*
%TD*%
D15*
%TO.C,R35*%
X108500000Y-98000000D03*
X110500000Y-98000000D03*
%TD*%
D12*
%TO.C,C1*%
X200000189Y-110000189D03*
X197925189Y-110000189D03*
%TD*%
D15*
%TO.C,R32*%
X120500000Y-98000000D03*
X122500000Y-98000000D03*
%TD*%
D16*
%TO.C,R37*%
X102500000Y-98000000D03*
X100500000Y-98000000D03*
%TD*%
D17*
%TO.C,D15*%
X206725000Y-99912689D03*
X208775000Y-99912689D03*
%TD*%
D12*
%TO.C,C4*%
X200000189Y-126000189D03*
X197925189Y-126000189D03*
%TD*%
D18*
%TO.C,R38*%
X96500000Y-101500000D03*
X96500000Y-103500000D03*
%TD*%
D19*
%TO.C,D12*%
X181500000Y-107975000D03*
X181500000Y-110025000D03*
%TD*%
D13*
%TO.C,R14*%
X205750000Y-125825189D03*
X205750000Y-124000189D03*
%TD*%
D20*
%TO.C,R9*%
X197162500Y-106000189D03*
X195337500Y-106000189D03*
%TD*%
D14*
%TO.C,R5*%
X132705600Y-126503400D03*
X132705600Y-128328400D03*
%TD*%
D21*
%TO.C,D1*%
X142155600Y-138428400D03*
X142155600Y-136378400D03*
%TD*%
D11*
%TO.C,R20*%
X178000000Y-115000000D03*
X178000000Y-113000000D03*
%TD*%
D22*
%TO.C,D5*%
X202250000Y-109662689D03*
D23*
X202250000Y-111362689D03*
X204250000Y-111362689D03*
X204250000Y-109462689D03*
%TD*%
D12*
%TO.C,C2*%
X200000189Y-108000189D03*
X197925189Y-108000189D03*
%TD*%
D15*
%TO.C,R41*%
X174642500Y-130000000D03*
X176642500Y-130000000D03*
%TD*%
D11*
%TO.C,R54*%
X151000000Y-133403400D03*
X151000000Y-131403400D03*
%TD*%
D24*
%TO.C,J12*%
X169692500Y-132825000D03*
X170492500Y-132825000D03*
D25*
X171642500Y-132825000D03*
X172642500Y-132825000D03*
X173142500Y-132825000D03*
X174142500Y-132825000D03*
D24*
X176092500Y-132825000D03*
X175292500Y-132825000D03*
D25*
X174642500Y-132825000D03*
X173642500Y-132825000D03*
X172142500Y-132825000D03*
X171142500Y-132825000D03*
D26*
X167797500Y-133475000D03*
X177987500Y-133475000D03*
D27*
X167797500Y-137400000D03*
X177987500Y-137400000D03*
%TD*%
D21*
%TO.C,D32*%
X151000000Y-138428400D03*
X151000000Y-136378400D03*
%TD*%
%TO.C,D31*%
X153500000Y-138428400D03*
X153500000Y-136378400D03*
%TD*%
D16*
%TO.C,R40*%
X171642500Y-130000000D03*
X169642500Y-130000000D03*
%TD*%
D14*
%TO.C,R3*%
X137955600Y-126490900D03*
X137955600Y-128315900D03*
%TD*%
D11*
%TO.C,R48*%
X161000000Y-133403400D03*
X161000000Y-131403400D03*
%TD*%
D28*
%TO.C,*%
X132705600Y-132965900D03*
%TD*%
D14*
%TO.C,R1*%
X142155600Y-126490900D03*
X142155600Y-128315900D03*
%TD*%
D22*
%TO.C,D14*%
X202250000Y-91662689D03*
D23*
X202250000Y-93362689D03*
X204250000Y-93362689D03*
X204250000Y-91462689D03*
%TD*%
D21*
%TO.C,D2*%
X140055600Y-138428400D03*
X140055600Y-136378400D03*
%TD*%
D20*
%TO.C,R11*%
X203162500Y-117912689D03*
X201337500Y-117912689D03*
%TD*%
D22*
%TO.C,D8*%
X202250000Y-127662689D03*
D23*
X202250000Y-129362689D03*
X204250000Y-129362689D03*
X204250000Y-127462689D03*
%TD*%
D14*
%TO.C,R6*%
X130605600Y-126503400D03*
X130605600Y-128328400D03*
%TD*%
D20*
%TO.C,R12*%
X203162500Y-120912689D03*
X201337500Y-120912689D03*
%TD*%
D16*
%TO.C,R28*%
X130500000Y-98000000D03*
X128500000Y-98000000D03*
%TD*%
D29*
%TO.C,U6*%
X162200000Y-108250000D03*
X167750000Y-108250000D03*
X162200000Y-103400000D03*
X167750000Y-103400000D03*
D30*
X162435000Y-114975000D03*
X164975000Y-114975000D03*
X167515000Y-114975000D03*
D31*
X157800000Y-106460000D03*
D32*
X172150000Y-106460000D03*
%TD*%
D33*
%TO.C,U5*%
X138750000Y-88750000D03*
X138750000Y-88250000D03*
X138750000Y-87750000D03*
X138750000Y-87250000D03*
X138750000Y-86750000D03*
X138750000Y-86250000D03*
X138750000Y-85750000D03*
X138750000Y-85250000D03*
X138750000Y-84750000D03*
X138750000Y-84250000D03*
X138750000Y-83750000D03*
X138750000Y-83250000D03*
X138750000Y-82750000D03*
X138750000Y-82250000D03*
X138750000Y-81750000D03*
X138750000Y-81250000D03*
D34*
X136837500Y-79337500D03*
X136337500Y-79337500D03*
X135837500Y-79337500D03*
X135337500Y-79337500D03*
X134837500Y-79337500D03*
X134337500Y-79337500D03*
X133837500Y-79337500D03*
X133337500Y-79337500D03*
X132837500Y-79337500D03*
X132337500Y-79337500D03*
X131837500Y-79337500D03*
X131337500Y-79337500D03*
X130837500Y-79337500D03*
X130337500Y-79337500D03*
X129837500Y-79337500D03*
X129337500Y-79337500D03*
D33*
X127425000Y-81250000D03*
X127425000Y-81750000D03*
X127425000Y-82250000D03*
X127425000Y-82750000D03*
X127425000Y-83250000D03*
X127425000Y-83750000D03*
X127425000Y-84250000D03*
X127425000Y-84750000D03*
X127425000Y-85250000D03*
X127425000Y-85750000D03*
X127425000Y-86250000D03*
X127425000Y-86750000D03*
X127425000Y-87250000D03*
X127425000Y-87750000D03*
X127425000Y-88250000D03*
X127425000Y-88750000D03*
D34*
X129337500Y-90662500D03*
X129837500Y-90662500D03*
X130337500Y-90662500D03*
X130837500Y-90662500D03*
X131337500Y-90662500D03*
X131837500Y-90662500D03*
X132337500Y-90662500D03*
X132837500Y-90662500D03*
X133337500Y-90662500D03*
X133837500Y-90662500D03*
X134337500Y-90662500D03*
X134837500Y-90662500D03*
X135337500Y-90662500D03*
X135837500Y-90662500D03*
X136337500Y-90662500D03*
X136837500Y-90662500D03*
%TD*%
D28*
%TO.C,*%
X132705600Y-137865900D03*
%TD*%
D21*
%TO.C,D30*%
X156000000Y-138428400D03*
X156000000Y-136378400D03*
%TD*%
D11*
%TO.C,R39*%
X96500000Y-98750000D03*
X96500000Y-96750000D03*
%TD*%
D12*
%TO.C,C9*%
X124037500Y-80500000D03*
X121962500Y-80500000D03*
%TD*%
D21*
%TO.C,D28*%
X161000000Y-138428400D03*
X161000000Y-136378400D03*
%TD*%
D17*
%TO.C,D7*%
X206725000Y-120912689D03*
X208775000Y-120912689D03*
%TD*%
D35*
%TO.C,C7*%
X168500000Y-118750000D03*
X171100000Y-118750000D03*
%TD*%
D20*
%TO.C,R16*%
X202162500Y-124000189D03*
X200337500Y-124000189D03*
%TD*%
%TO.C,R25*%
X203162500Y-99912689D03*
X201337500Y-99912689D03*
%TD*%
D15*
%TO.C,R34*%
X112500000Y-98000000D03*
X114500000Y-98000000D03*
%TD*%
D20*
%TO.C,R17*%
X203162500Y-137412689D03*
X201337500Y-137412689D03*
%TD*%
D36*
%TO.C,C10*%
X139300000Y-90250000D03*
X141375000Y-90250000D03*
%TD*%
D37*
%TO.C,R19*%
X192525000Y-135000189D03*
X194350000Y-135000189D03*
%TD*%
D14*
%TO.C,R7*%
X205750000Y-113000189D03*
X205750000Y-114825189D03*
%TD*%
D20*
%TO.C,R23*%
X202162500Y-88000189D03*
X200337500Y-88000189D03*
%TD*%
D14*
%TO.C,R2*%
X140055600Y-126490900D03*
X140055600Y-128315900D03*
%TD*%
D38*
%TO.C,U2*%
X200500000Y-132662750D03*
D39*
X200647000Y-132162878D03*
X200647000Y-131662752D03*
X200647000Y-131162626D03*
X200647000Y-130662500D03*
D38*
X200500000Y-130162628D03*
D40*
X200000189Y-130015689D03*
X199500063Y-130015689D03*
X198999937Y-130015689D03*
X198499811Y-130015689D03*
D38*
X198000000Y-130162628D03*
D39*
X197853000Y-130662500D03*
X197853000Y-131162626D03*
X197853000Y-131662752D03*
X197853000Y-132162878D03*
D38*
X198000000Y-132662750D03*
D40*
X198499811Y-132809689D03*
X198999937Y-132809689D03*
X199500063Y-132809689D03*
X200000189Y-132809689D03*
D41*
X199250000Y-131412689D03*
%TD*%
D20*
%TO.C,R15*%
X197162500Y-124000189D03*
X195337500Y-124000189D03*
%TD*%
D42*
%TO.C,J1*%
X207937500Y-113612689D03*
X207937500Y-112812689D03*
D43*
X207937500Y-111662689D03*
X207937500Y-110662689D03*
X207937500Y-110162689D03*
X207937500Y-109162689D03*
D42*
X207937500Y-107212689D03*
X207937500Y-108012689D03*
D43*
X207937500Y-108662689D03*
X207937500Y-109662689D03*
X207937500Y-111162689D03*
X207937500Y-112162689D03*
D44*
X208587500Y-115507689D03*
X208587500Y-105317689D03*
D45*
X212512500Y-115507689D03*
X212512500Y-105317689D03*
%TD*%
D12*
%TO.C,C3*%
X200000189Y-128000189D03*
X197925189Y-128000189D03*
%TD*%
D38*
%TO.C,U1*%
X200500000Y-114662750D03*
D39*
X200647000Y-114162878D03*
X200647000Y-113662752D03*
X200647000Y-113162626D03*
X200647000Y-112662500D03*
D38*
X200500000Y-112162628D03*
D40*
X200000189Y-112015689D03*
X199500063Y-112015689D03*
X198999937Y-112015689D03*
X198499811Y-112015689D03*
D38*
X198000000Y-112162628D03*
D39*
X197853000Y-112662500D03*
X197853000Y-113162626D03*
X197853000Y-113662752D03*
X197853000Y-114162878D03*
D38*
X198000000Y-114662750D03*
D40*
X198499811Y-114809689D03*
X198999937Y-114809689D03*
X199500063Y-114809689D03*
X200000189Y-114809689D03*
D41*
X199250000Y-113412689D03*
%TD*%
D42*
%TO.C,J4*%
X207937500Y-95612689D03*
X207937500Y-94812689D03*
D43*
X207937500Y-93662689D03*
X207937500Y-92662689D03*
X207937500Y-92162689D03*
X207937500Y-91162689D03*
D42*
X207937500Y-89212689D03*
X207937500Y-90012689D03*
D43*
X207937500Y-90662689D03*
X207937500Y-91662689D03*
X207937500Y-93162689D03*
X207937500Y-94162689D03*
D44*
X208587500Y-97507689D03*
X208587500Y-87317689D03*
D45*
X212512500Y-97507689D03*
X212512500Y-87317689D03*
%TD*%
D17*
%TO.C,D16*%
X206725000Y-102912689D03*
X208775000Y-102912689D03*
%TD*%
D12*
%TO.C,C5*%
X200000189Y-90000189D03*
X197925189Y-90000189D03*
%TD*%
D17*
%TO.C,D9*%
X206725000Y-137412689D03*
X208775000Y-137412689D03*
%TD*%
D36*
%TO.C,C11*%
X125925000Y-78000000D03*
X128000000Y-78000000D03*
%TD*%
D11*
%TO.C,R21*%
X181500000Y-115000000D03*
X181500000Y-113000000D03*
%TD*%
D20*
%TO.C,R26*%
X203162500Y-102912689D03*
X201337500Y-102912689D03*
%TD*%
D21*
%TO.C,D33*%
X148500000Y-138428400D03*
X148500000Y-136378400D03*
%TD*%
D14*
%TO.C,R13*%
X205750000Y-131000189D03*
X205750000Y-132825189D03*
%TD*%
D21*
%TO.C,D34*%
X146000000Y-138428400D03*
X146000000Y-136378400D03*
%TD*%
D13*
%TO.C,R8*%
X205750000Y-107825189D03*
X205750000Y-106000189D03*
%TD*%
D16*
%TO.C,R31*%
X115580000Y-88250000D03*
X113580000Y-88250000D03*
%TD*%
D19*
%TO.C,D11*%
X178000000Y-107950000D03*
X178000000Y-110000000D03*
%TD*%
D15*
%TO.C,R33*%
X116500000Y-98000000D03*
X118500000Y-98000000D03*
%TD*%
D11*
%TO.C,R56*%
X146000000Y-133403400D03*
X146000000Y-131403400D03*
%TD*%
D14*
%TO.C,R4*%
X134805600Y-126503400D03*
X134805600Y-128328400D03*
%TD*%
D28*
%TO.C,D4*%
X134805600Y-132965900D03*
X132705600Y-132965900D03*
X130605600Y-132965900D03*
X130605600Y-137865900D03*
X132705600Y-137865900D03*
X134805600Y-137865900D03*
%TD*%
D20*
%TO.C,R24*%
X197162500Y-88000189D03*
X195337500Y-88000189D03*
%TD*%
D17*
%TO.C,D6*%
X206725000Y-117912689D03*
X208775000Y-117912689D03*
%TD*%
D11*
%TO.C,R47*%
X163500000Y-133403400D03*
X163500000Y-131403400D03*
%TD*%
D46*
%TO.C,D13*%
X180700000Y-118362500D03*
X178800000Y-118362500D03*
X179750000Y-120637500D03*
%TD*%
D15*
%TO.C,R30*%
X118080000Y-88250000D03*
X120080000Y-88250000D03*
%TD*%
D21*
%TO.C,D29*%
X158500000Y-138428400D03*
X158500000Y-136378400D03*
%TD*%
D47*
%TO.C,D10*%
X194350000Y-137912689D03*
X191050000Y-137912689D03*
%TD*%
D11*
%TO.C,R53*%
X153500000Y-133403400D03*
X153500000Y-131403400D03*
%TD*%
D42*
%TO.C,J2*%
X207937500Y-131612689D03*
X207937500Y-130812689D03*
D43*
X207937500Y-129662689D03*
X207937500Y-128662689D03*
X207937500Y-128162689D03*
X207937500Y-127162689D03*
D42*
X207937500Y-125212689D03*
X207937500Y-126012689D03*
D43*
X207937500Y-126662689D03*
X207937500Y-127662689D03*
X207937500Y-129162689D03*
X207937500Y-130162689D03*
D44*
X208587500Y-133507689D03*
X208587500Y-123317689D03*
D45*
X212512500Y-133507689D03*
X212512500Y-123317689D03*
%TD*%
D38*
%TO.C,U3*%
X200500000Y-96662750D03*
D39*
X200647000Y-96162878D03*
X200647000Y-95662752D03*
X200647000Y-95162626D03*
X200647000Y-94662500D03*
D38*
X200500000Y-94162628D03*
D40*
X200000189Y-94015689D03*
X199500063Y-94015689D03*
X198999937Y-94015689D03*
X198499811Y-94015689D03*
D38*
X198000000Y-94162628D03*
D39*
X197853000Y-94662500D03*
X197853000Y-95162626D03*
X197853000Y-95662752D03*
X197853000Y-96162878D03*
D38*
X198000000Y-96662750D03*
D40*
X198499811Y-96809689D03*
X198999937Y-96809689D03*
X199500063Y-96809689D03*
X200000189Y-96809689D03*
D41*
X199250000Y-95412689D03*
%TD*%
D11*
%TO.C,R51*%
X158500000Y-133403400D03*
X158500000Y-131403400D03*
%TD*%
D21*
%TO.C,D27*%
X163500000Y-138428400D03*
X163500000Y-136378400D03*
%TD*%
D11*
%TO.C,R55*%
X148500000Y-133403400D03*
X148500000Y-131403400D03*
%TD*%
D21*
%TO.C,D3*%
X137955600Y-138428400D03*
X137955600Y-136378400D03*
%TD*%
D13*
%TO.C,R18*%
X197750000Y-136825189D03*
X197750000Y-135000189D03*
%TD*%
D15*
%TO.C,R36*%
X104500000Y-98000000D03*
X106500000Y-98000000D03*
%TD*%
D12*
%TO.C,C12*%
X144662500Y-86500000D03*
X142587500Y-86500000D03*
%TD*%
D20*
%TO.C,R10*%
X202162500Y-106000189D03*
X200337500Y-106000189D03*
%TD*%
D15*
%TO.C,R29*%
X124500000Y-98000000D03*
X126500000Y-98000000D03*
%TD*%
M02*
