M48
; DRILL file {KiCad 9.0.1} date 2026-03-19T19:45:42+0100
; FORMAT={-:-/ absolute / metric / decimal}
; #@! TF.CreationDate,2026-03-19T19:45:42+01:00
; #@! TF.GenerationSoftware,Kicad,Pcbnew,9.0.1
; #@! TF.FileFunction,Plated,1,2,PTH
FMAT,2
METRIC
; #@! TA.AperFunction,Plated,PTH,ViaDrill
T1C0.300
; #@! TA.AperFunction,Plated,PTH,ViaDrill
T2C0.400
; #@! TA.AperFunction,Plated,PTH,ComponentDrill
T3C0.800
; #@! TA.AperFunction,Plated,PTH,ComponentDrill
T4C0.900
; #@! TA.AperFunction,Plated,PTH,ComponentDrill
T5C1.000
; #@! TA.AperFunction,Plated,PTH,ComponentDrill
T6C1.700
; #@! TA.AperFunction,Plated,PTH,ComponentDrill
T7C3.200
; #@! TA.AperFunction,Plated,PTH,ComponentDrill
T8C4.100
%
G90
G05
T1
X196.25Y-93.663
X196.25Y-111.663
X196.25Y-129.663
X199.25Y-95.413
X199.25Y-113.413
X199.25Y-131.413
X201.0Y-93.163
X201.0Y-111.163
X201.0Y-129.163
X202.5Y-96.913
X202.5Y-114.913
X202.5Y-132.913
X202.688Y-89.913
X202.688Y-107.913
X202.688Y-125.913
X203.5Y-95.163
X203.5Y-113.163
X203.5Y-131.163
X204.25Y-92.413
X204.25Y-110.413
X204.25Y-128.413
X209.688Y-101.413
X209.688Y-119.413
X209.688Y-137.413
T2
X113.75Y-89.75
X116.0Y-81.5
X116.0Y-87.0
X118.5Y-81.5
X118.5Y-87.0
X121.25Y-88.25
X127.888Y-95.638
X128.762Y-87.5
X129.0Y-130.0
X130.088Y-88.5
X130.613Y-93.913
X131.0Y-96.25
X131.588Y-88.5
X131.725Y-78.001
X133.088Y-88.5
X133.1Y-92.3
X134.588Y-81.0
X134.588Y-82.5
X134.588Y-84.0
X134.588Y-85.5
X134.588Y-87.0
X134.588Y-88.5
X135.062Y-78.0
X136.588Y-81.0
X141.588Y-86.25
X144.5Y-122.0
X144.5Y-123.5
X144.5Y-125.0
X144.5Y-126.5
X144.5Y-128.0
X146.0Y-129.0
X148.5Y-129.0
X151.0Y-129.0
X153.5Y-129.0
X156.0Y-129.0
X158.5Y-129.0
X161.0Y-129.0
X163.5Y-129.0
X165.0Y-96.0
X165.0Y-118.5
X175.642Y-131.5
X179.75Y-105.25
X182.744Y-97.244
T3
X154.75Y-119.75
X157.25Y-119.75
T4
X90.08Y-97.39
X90.08Y-100.13
X90.08Y-102.87
X90.08Y-105.61
X92.055Y-71.5
X92.92Y-96.02
X92.92Y-98.76
X92.92Y-101.5
X92.92Y-104.24
X92.92Y-106.98
X93.195Y-68.96
X93.195Y-74.04
X94.335Y-71.5
X95.475Y-68.96
X95.475Y-74.04
X96.615Y-71.5
X97.755Y-68.96
X97.755Y-74.04
X98.895Y-71.5
X100.035Y-68.96
X100.035Y-74.04
X101.175Y-71.5
X102.315Y-68.96
X102.315Y-74.04
X126.055Y-71.5
X127.195Y-68.96
X127.195Y-74.04
X128.335Y-71.5
X129.475Y-68.96
X129.475Y-74.04
X130.615Y-71.5
X131.755Y-68.96
X131.755Y-74.04
X132.895Y-71.5
X134.035Y-68.96
X134.035Y-74.04
X135.175Y-71.5
X136.315Y-68.96
X136.315Y-74.04
X160.055Y-71.5
X161.195Y-68.96
X161.195Y-74.04
X162.335Y-71.5
X163.475Y-68.96
X163.475Y-74.04
X164.615Y-71.5
X165.755Y-68.96
X165.755Y-74.04
X166.895Y-71.5
X168.035Y-68.96
X168.035Y-74.04
X169.175Y-71.5
X170.315Y-68.96
X170.315Y-74.04
X194.055Y-71.5
X195.195Y-68.96
X195.195Y-74.04
X196.335Y-71.5
X197.475Y-68.96
X197.475Y-74.04
X198.615Y-71.5
X199.755Y-68.96
X199.755Y-74.04
X200.895Y-71.5
X202.035Y-68.96
X202.035Y-74.04
X203.175Y-71.5
X204.315Y-68.96
X204.315Y-74.04
T5
X100.5Y-102.46
X100.5Y-105.0
X104.5Y-102.46
X104.5Y-105.0
X108.5Y-102.5
X108.5Y-105.04
X110.46Y-92.25
X112.5Y-102.5
X112.5Y-105.04
X113.0Y-92.25
X115.54Y-92.25
X116.5Y-102.5
X116.5Y-105.04
X118.08Y-92.25
X120.5Y-102.5
X120.5Y-105.04
X124.5Y-102.5
X124.5Y-105.04
X128.5Y-102.5
X128.5Y-105.04
X190.188Y-98.913
X190.188Y-101.913
X190.188Y-116.913
X190.188Y-119.913
X190.188Y-131.413
T6
X102.2Y-113.2
X102.2Y-118.3
X107.3Y-113.2
X107.3Y-118.3
X118.45Y-113.2
X118.45Y-118.3
X123.55Y-113.2
X123.55Y-118.3
T7
X85.005Y-71.5
X91.5Y-89.005
X91.5Y-113.995
X109.995Y-71.5
X119.005Y-71.5
X143.995Y-71.5
X153.005Y-71.5
X177.995Y-71.5
X187.005Y-71.5
X211.995Y-71.5
T8
X86.25Y-135.5
X86.5Y-80.5
X185.0Y-135.5
X210.5Y-80.5
M30
