ISO-10303-21;
HEADER;
/* Generated by software containing ST-Developer
 * from STEP Tools, Inc. (www.steptools.com) 
 */

FILE_DESCRIPTION(
/* description */ (''),
/* implementation_level */ '2;1');

FILE_NAME(
/* name */ 'Cone Top.step',
/* time_stamp */ '2026-03-20T15:10:35+01:00',
/* author */ (''),
/* organization */ (''),
/* preprocessor_version */ 'ST-DEVELOPER v20.1',
/* originating_system */ 'Autodesk Translation Framework v14.24.0.0',
/* authorisation */ '');

FILE_SCHEMA (('AUTOMOTIVE_DESIGN { 1 0 10303 214 3 1 1 }'));
ENDSEC;

DATA;
#10=MECHANICAL_DESIGN_GEOMETRIC_PRESENTATION_REPRESENTATION('',(#13),#831);
#11=SHAPE_REPRESENTATION_RELATIONSHIP('SRR','None',#838,#12);
#12=ADVANCED_BREP_SHAPE_REPRESENTATION('',(#14),#830);
#13=STYLED_ITEM('',(#848),#14);
#14=MANIFOLD_SOLID_BREP('Cone Top',#437);
#15=CYLINDRICAL_SURFACE('',#479,100.);
#16=CYLINDRICAL_SURFACE('',#482,15.2);
#17=CYLINDRICAL_SURFACE('',#484,20.);
#18=CYLINDRICAL_SURFACE('',#487,4.2);
#19=CYLINDRICAL_SURFACE('',#489,4.2);
#20=CYLINDRICAL_SURFACE('',#491,4.2);
#21=CYLINDRICAL_SURFACE('',#493,4.2);
#22=CYLINDRICAL_SURFACE('',#495,4.2);
#23=CYLINDRICAL_SURFACE('',#497,4.2);
#24=CYLINDRICAL_SURFACE('',#499,4.2);
#25=CYLINDRICAL_SURFACE('',#501,75.);
#26=CYLINDRICAL_SURFACE('',#503,4.2);
#27=FACE_BOUND('',#119,.T.);
#28=FACE_BOUND('',#122,.T.);
#29=FACE_BOUND('',#123,.T.);
#30=FACE_BOUND('',#124,.T.);
#31=FACE_BOUND('',#125,.T.);
#32=FACE_BOUND('',#126,.T.);
#33=FACE_BOUND('',#127,.T.);
#34=FACE_BOUND('',#128,.T.);
#35=FACE_BOUND('',#129,.T.);
#36=FACE_BOUND('',#130,.T.);
#37=FACE_BOUND('',#147,.T.);
#38=FACE_BOUND('',#148,.T.);
#39=FACE_BOUND('',#149,.T.);
#40=FACE_BOUND('',#150,.T.);
#41=FACE_BOUND('',#151,.T.);
#42=FACE_BOUND('',#152,.T.);
#43=FACE_BOUND('',#153,.T.);
#44=FACE_BOUND('',#154,.T.);
#45=FACE_BOUND('',#155,.T.);
#46=FACE_BOUND('',#156,.T.);
#47=PLANE('',#461);
#48=PLANE('',#466);
#49=PLANE('',#481);
#50=PLANE('',#486);
#51=PLANE('',#505);
#52=(
BOUNDED_CURVE()
B_SPLINE_CURVE(2,(#669,#670,#671),.UNSPECIFIED.,.F.,.F.)
B_SPLINE_CURVE_WITH_KNOTS((3,3),(0.659241514385113,3.65549095751864),
 .UNSPECIFIED.)
CURVE()
GEOMETRIC_REPRESENTATION_ITEM()
RATIONAL_B_SPLINE_CURVE((1.02596108153951,1.08147605414305,1.10534403140316))
REPRESENTATION_ITEM('')
);
#53=(
BOUNDED_CURVE()
B_SPLINE_CURVE(2,(#708,#709,#710),.UNSPECIFIED.,.F.,.F.)
B_SPLINE_CURVE_WITH_KNOTS((3,3),(8.1749982787192,11.1712477218515),
 .UNSPECIFIED.)
CURVE()
GEOMETRIC_REPRESENTATION_ITEM()
RATIONAL_B_SPLINE_CURVE((1.10534403140316,1.08147605414306,1.02596108153955))
REPRESENTATION_ITEM('')
);
#54=LINE('',#667,#73);
#55=LINE('',#749,#74);
#56=LINE('',#750,#75);
#57=LINE('',#773,#76);
#58=LINE('',#777,#77);
#59=LINE('',#779,#78);
#60=LINE('',#780,#79);
#61=LINE('',#783,#80);
#62=LINE('',#787,#81);
#63=LINE('',#791,#82);
#64=LINE('',#792,#83);
#65=LINE('',#795,#84);
#66=LINE('',#799,#85);
#67=LINE('',#803,#86);
#68=LINE('',#807,#87);
#69=LINE('',#811,#88);
#70=LINE('',#815,#89);
#71=LINE('',#819,#90);
#72=LINE('',#825,#91);
#73=VECTOR('',#520,50.);
#74=VECTOR('',#543,10.);
#75=VECTOR('',#544,10.);
#76=VECTOR('',#569,100.);
#77=VECTOR('',#574,10.);
#78=VECTOR('',#575,10.);
#79=VECTOR('',#576,10.);
#80=VECTOR('',#579,15.2);
#81=VECTOR('',#584,10.);
#82=VECTOR('',#589,10.);
#83=VECTOR('',#590,10.);
#84=VECTOR('',#593,4.2);
#85=VECTOR('',#598,4.2);
#86=VECTOR('',#603,4.2);
#87=VECTOR('',#608,4.2);
#88=VECTOR('',#613,4.2);
#89=VECTOR('',#618,4.2);
#90=VECTOR('',#623,4.2);
#91=VECTOR('',#632,4.2);
#92=CONICAL_SURFACE('',#455,50.,0.507098504392337);
#93=FACE_OUTER_BOUND('',#115,.T.);
#94=FACE_OUTER_BOUND('',#116,.T.);
#95=FACE_OUTER_BOUND('',#117,.T.);
#96=FACE_OUTER_BOUND('',#118,.T.);
#97=FACE_OUTER_BOUND('',#120,.T.);
#98=FACE_OUTER_BOUND('',#121,.T.);
#99=FACE_OUTER_BOUND('',#131,.T.);
#100=FACE_OUTER_BOUND('',#132,.T.);
#101=FACE_OUTER_BOUND('',#133,.T.);
#102=FACE_OUTER_BOUND('',#134,.T.);
#103=FACE_OUTER_BOUND('',#135,.T.);
#104=FACE_OUTER_BOUND('',#136,.T.);
#105=FACE_OUTER_BOUND('',#137,.T.);
#106=FACE_OUTER_BOUND('',#138,.T.);
#107=FACE_OUTER_BOUND('',#139,.T.);
#108=FACE_OUTER_BOUND('',#140,.T.);
#109=FACE_OUTER_BOUND('',#141,.T.);
#110=FACE_OUTER_BOUND('',#142,.T.);
#111=FACE_OUTER_BOUND('',#143,.T.);
#112=FACE_OUTER_BOUND('',#144,.T.);
#113=FACE_OUTER_BOUND('',#145,.T.);
#114=FACE_OUTER_BOUND('',#146,.T.);
#115=EDGE_LOOP('',(#293,#294,#295,#296,#297));
#116=EDGE_LOOP('',(#298,#299,#300,#301,#302,#303,#304,#305,#306));
#117=EDGE_LOOP('',(#307,#308,#309,#310,#311));
#118=EDGE_LOOP('',(#312));
#119=EDGE_LOOP('',(#313));
#120=EDGE_LOOP('',(#314,#315,#316,#317));
#121=EDGE_LOOP('',(#318));
#122=EDGE_LOOP('',(#319,#320,#321,#322));
#123=EDGE_LOOP('',(#323));
#124=EDGE_LOOP('',(#324));
#125=EDGE_LOOP('',(#325));
#126=EDGE_LOOP('',(#326));
#127=EDGE_LOOP('',(#327));
#128=EDGE_LOOP('',(#328));
#129=EDGE_LOOP('',(#329));
#130=EDGE_LOOP('',(#330));
#131=EDGE_LOOP('',(#331,#332,#333,#334));
#132=EDGE_LOOP('',(#335,#336,#337,#338));
#133=EDGE_LOOP('',(#339,#340,#341,#342,#343,#344,#345));
#134=EDGE_LOOP('',(#346,#347,#348,#349));
#135=EDGE_LOOP('',(#350,#351,#352,#353));
#136=EDGE_LOOP('',(#354,#355,#356,#357,#358,#359,#360));
#137=EDGE_LOOP('',(#361,#362,#363,#364));
#138=EDGE_LOOP('',(#365,#366,#367,#368));
#139=EDGE_LOOP('',(#369,#370,#371,#372));
#140=EDGE_LOOP('',(#373,#374,#375,#376));
#141=EDGE_LOOP('',(#377,#378,#379,#380));
#142=EDGE_LOOP('',(#381,#382,#383,#384));
#143=EDGE_LOOP('',(#385,#386,#387,#388));
#144=EDGE_LOOP('',(#389,#390,#391,#392));
#145=EDGE_LOOP('',(#393,#394,#395,#396));
#146=EDGE_LOOP('',(#397));
#147=EDGE_LOOP('',(#398));
#148=EDGE_LOOP('',(#399));
#149=EDGE_LOOP('',(#400,#401,#402,#403));
#150=EDGE_LOOP('',(#404));
#151=EDGE_LOOP('',(#405));
#152=EDGE_LOOP('',(#406));
#153=EDGE_LOOP('',(#407));
#154=EDGE_LOOP('',(#408));
#155=EDGE_LOOP('',(#409));
#156=EDGE_LOOP('',(#410));
#157=CIRCLE('',#452,74.428492145754);
#158=CIRCLE('',#453,74.428492145754);
#159=CIRCLE('',#454,76.1768066979971);
#160=CIRCLE('',#456,25.571507854246);
#161=CIRCLE('',#457,25.571507854246);
#162=CIRCLE('',#459,2.);
#163=CIRCLE('',#460,23.8231933020029);
#164=CIRCLE('',#462,15.2);
#165=CIRCLE('',#464,75.);
#166=CIRCLE('',#465,77.);
#167=CIRCLE('',#467,98.);
#168=CIRCLE('',#468,4.2);
#169=CIRCLE('',#469,4.2);
#170=CIRCLE('',#470,4.2);
#171=CIRCLE('',#471,4.2);
#172=CIRCLE('',#472,4.2);
#173=CIRCLE('',#473,4.2);
#174=CIRCLE('',#474,4.2);
#175=CIRCLE('',#475,4.2);
#176=CIRCLE('',#477,2.);
#177=CIRCLE('',#478,100.);
#178=CIRCLE('',#480,100.);
#179=CIRCLE('',#483,15.2);
#180=CIRCLE('',#485,20.);
#181=CIRCLE('',#488,4.2);
#182=CIRCLE('',#490,4.2);
#183=CIRCLE('',#492,4.2);
#184=CIRCLE('',#494,4.2);
#185=CIRCLE('',#496,4.2);
#186=CIRCLE('',#498,4.2);
#187=CIRCLE('',#500,4.2);
#188=CIRCLE('',#502,75.);
#189=CIRCLE('',#504,4.2);
#190=B_SPLINE_CURVE_WITH_KNOTS('',3,(#641,#642,#643,#644,#645,#646,#647,
#648),.UNSPECIFIED.,.F.,.F.,(4,2,2,4),(0.301475048077697,0.379127966464522,
0.455433889841259,0.50691202258847),.UNSPECIFIED.);
#191=B_SPLINE_CURVE_WITH_KNOTS('',3,(#654,#655,#656,#657,#658,#659,#660,
#661),.UNSPECIFIED.,.F.,.F.,(4,2,2,4),(0.69950223452191,0.75098036726952,
0.827286290646257,0.904939209033082),.UNSPECIFIED.);
#192=B_SPLINE_CURVE_WITH_KNOTS('',3,(#673,#674,#675,#676,#677,#678,#679,
#680,#681,#682,#683,#684,#685,#686,#687,#688,#689,#690,#691,#692,#693,#694,
#695,#696,#697,#698,#699,#700,#701,#702,#703,#704,#705,#706,#707),
 .UNSPECIFIED.,.F.,.F.,(4,2,2,2,2,2,2,2,2,2,2,2,2,2,3,2,4),(-8.81843701659564,
-8.10447724660559,-7.22056542322337,-5.95636772469417,-5.32426887542957,
-4.69217002616497,-4.15122636888833,-3.88075454025001,-3.61028271161168,
-3.33981088297336,-3.06933905433504,-2.5283953970584,-1.8962965477938,-1.2641976985292,
0.,0.883911823382217,1.59787159320178),.UNSPECIFIED.);
#193=B_SPLINE_CURVE_WITH_KNOTS('',3,(#722,#723,#724,#725,#726,#727,#728,
#729,#730,#731),.UNSPECIFIED.,.F.,.F.,(4,2,2,2,4),(0.602963382811735,0.676154768977863,
0.750743463677387,0.826997852503923,0.904569179424335),.UNSPECIFIED.);
#194=B_SPLINE_CURVE_WITH_KNOTS('',3,(#735,#736,#737,#738,#739,#740,#741,
#742,#743,#744),.UNSPECIFIED.,.F.,.F.,(4,2,2,2,4),(0.301357586199135,0.378928913119547,
0.455183301946083,0.529771996645607,0.602963382811735),.UNSPECIFIED.);
#195=VERTEX_POINT('',#639);
#196=VERTEX_POINT('',#640);
#197=VERTEX_POINT('',#649);
#198=VERTEX_POINT('',#651);
#199=VERTEX_POINT('',#653);
#200=VERTEX_POINT('',#664);
#201=VERTEX_POINT('',#665);
#202=VERTEX_POINT('',#668);
#203=VERTEX_POINT('',#672);
#204=VERTEX_POINT('',#713);
#205=VERTEX_POINT('',#717);
#206=VERTEX_POINT('',#720);
#207=VERTEX_POINT('',#721);
#208=VERTEX_POINT('',#732);
#209=VERTEX_POINT('',#734);
#210=VERTEX_POINT('',#747);
#211=VERTEX_POINT('',#751);
#212=VERTEX_POINT('',#753);
#213=VERTEX_POINT('',#755);
#214=VERTEX_POINT('',#757);
#215=VERTEX_POINT('',#759);
#216=VERTEX_POINT('',#761);
#217=VERTEX_POINT('',#763);
#218=VERTEX_POINT('',#765);
#219=VERTEX_POINT('',#768);
#220=VERTEX_POINT('',#772);
#221=VERTEX_POINT('',#776);
#222=VERTEX_POINT('',#778);
#223=VERTEX_POINT('',#782);
#224=VERTEX_POINT('',#786);
#225=VERTEX_POINT('',#790);
#226=VERTEX_POINT('',#794);
#227=VERTEX_POINT('',#798);
#228=VERTEX_POINT('',#802);
#229=VERTEX_POINT('',#806);
#230=VERTEX_POINT('',#810);
#231=VERTEX_POINT('',#814);
#232=VERTEX_POINT('',#818);
#233=VERTEX_POINT('',#824);
#234=EDGE_CURVE('',#195,#196,#190,.T.);
#235=EDGE_CURVE('',#196,#197,#157,.T.);
#236=EDGE_CURVE('',#197,#198,#158,.T.);
#237=EDGE_CURVE('',#198,#199,#191,.T.);
#238=EDGE_CURVE('',#199,#195,#159,.T.);
#239=EDGE_CURVE('',#200,#201,#160,.T.);
#240=EDGE_CURVE('',#200,#197,#54,.T.);
#241=EDGE_CURVE('',#196,#202,#52,.T.);
#242=EDGE_CURVE('',#203,#202,#192,.T.);
#243=EDGE_CURVE('',#203,#198,#53,.T.);
#244=EDGE_CURVE('',#201,#200,#161,.T.);
#245=EDGE_CURVE('',#201,#204,#162,.T.);
#246=EDGE_CURVE('',#204,#204,#163,.T.);
#247=EDGE_CURVE('',#205,#205,#164,.T.);
#248=EDGE_CURVE('',#206,#207,#193,.F.);
#249=EDGE_CURVE('',#207,#208,#165,.T.);
#250=EDGE_CURVE('',#209,#208,#194,.T.);
#251=EDGE_CURVE('',#209,#206,#166,.T.);
#252=EDGE_CURVE('',#210,#210,#167,.T.);
#253=EDGE_CURVE('',#206,#199,#55,.T.);
#254=EDGE_CURVE('',#195,#209,#56,.T.);
#255=EDGE_CURVE('',#211,#211,#168,.T.);
#256=EDGE_CURVE('',#212,#212,#169,.T.);
#257=EDGE_CURVE('',#213,#213,#170,.T.);
#258=EDGE_CURVE('',#214,#214,#171,.T.);
#259=EDGE_CURVE('',#215,#215,#172,.T.);
#260=EDGE_CURVE('',#216,#216,#173,.T.);
#261=EDGE_CURVE('',#217,#217,#174,.T.);
#262=EDGE_CURVE('',#218,#218,#175,.T.);
#263=EDGE_CURVE('',#210,#219,#176,.T.);
#264=EDGE_CURVE('',#219,#219,#177,.T.);
#265=EDGE_CURVE('',#219,#220,#57,.T.);
#266=EDGE_CURVE('',#220,#220,#178,.T.);
#267=EDGE_CURVE('',#221,#203,#58,.T.);
#268=EDGE_CURVE('',#221,#222,#59,.T.);
#269=EDGE_CURVE('',#207,#222,#60,.T.);
#270=EDGE_CURVE('',#205,#223,#61,.T.);
#271=EDGE_CURVE('',#223,#223,#179,.T.);
#272=EDGE_CURVE('',#224,#202,#62,.T.);
#273=EDGE_CURVE('',#221,#224,#180,.T.);
#274=EDGE_CURVE('',#225,#208,#63,.T.);
#275=EDGE_CURVE('',#224,#225,#64,.T.);
#276=EDGE_CURVE('',#218,#226,#65,.T.);
#277=EDGE_CURVE('',#226,#226,#181,.T.);
#278=EDGE_CURVE('',#217,#227,#66,.T.);
#279=EDGE_CURVE('',#227,#227,#182,.T.);
#280=EDGE_CURVE('',#216,#228,#67,.T.);
#281=EDGE_CURVE('',#228,#228,#183,.T.);
#282=EDGE_CURVE('',#215,#229,#68,.T.);
#283=EDGE_CURVE('',#229,#229,#184,.T.);
#284=EDGE_CURVE('',#214,#230,#69,.T.);
#285=EDGE_CURVE('',#230,#230,#185,.T.);
#286=EDGE_CURVE('',#213,#231,#70,.T.);
#287=EDGE_CURVE('',#231,#231,#186,.T.);
#288=EDGE_CURVE('',#212,#232,#71,.T.);
#289=EDGE_CURVE('',#232,#232,#187,.T.);
#290=EDGE_CURVE('',#222,#225,#188,.T.);
#291=EDGE_CURVE('',#211,#233,#72,.T.);
#292=EDGE_CURVE('',#233,#233,#189,.T.);
#293=ORIENTED_EDGE('',*,*,#234,.T.);
#294=ORIENTED_EDGE('',*,*,#235,.T.);
#295=ORIENTED_EDGE('',*,*,#236,.T.);
#296=ORIENTED_EDGE('',*,*,#237,.T.);
#297=ORIENTED_EDGE('',*,*,#238,.T.);
#298=ORIENTED_EDGE('',*,*,#239,.F.);
#299=ORIENTED_EDGE('',*,*,#240,.T.);
#300=ORIENTED_EDGE('',*,*,#235,.F.);
#301=ORIENTED_EDGE('',*,*,#241,.T.);
#302=ORIENTED_EDGE('',*,*,#242,.F.);
#303=ORIENTED_EDGE('',*,*,#243,.T.);
#304=ORIENTED_EDGE('',*,*,#236,.F.);
#305=ORIENTED_EDGE('',*,*,#240,.F.);
#306=ORIENTED_EDGE('',*,*,#244,.F.);
#307=ORIENTED_EDGE('',*,*,#239,.T.);
#308=ORIENTED_EDGE('',*,*,#245,.T.);
#309=ORIENTED_EDGE('',*,*,#246,.T.);
#310=ORIENTED_EDGE('',*,*,#245,.F.);
#311=ORIENTED_EDGE('',*,*,#244,.T.);
#312=ORIENTED_EDGE('',*,*,#246,.F.);
#313=ORIENTED_EDGE('',*,*,#247,.T.);
#314=ORIENTED_EDGE('',*,*,#248,.T.);
#315=ORIENTED_EDGE('',*,*,#249,.T.);
#316=ORIENTED_EDGE('',*,*,#250,.F.);
#317=ORIENTED_EDGE('',*,*,#251,.T.);
#318=ORIENTED_EDGE('',*,*,#252,.F.);
#319=ORIENTED_EDGE('',*,*,#238,.F.);
#320=ORIENTED_EDGE('',*,*,#253,.F.);
#321=ORIENTED_EDGE('',*,*,#251,.F.);
#322=ORIENTED_EDGE('',*,*,#254,.F.);
#323=ORIENTED_EDGE('',*,*,#255,.T.);
#324=ORIENTED_EDGE('',*,*,#256,.T.);
#325=ORIENTED_EDGE('',*,*,#257,.T.);
#326=ORIENTED_EDGE('',*,*,#258,.T.);
#327=ORIENTED_EDGE('',*,*,#259,.T.);
#328=ORIENTED_EDGE('',*,*,#260,.T.);
#329=ORIENTED_EDGE('',*,*,#261,.T.);
#330=ORIENTED_EDGE('',*,*,#262,.T.);
#331=ORIENTED_EDGE('',*,*,#252,.T.);
#332=ORIENTED_EDGE('',*,*,#263,.T.);
#333=ORIENTED_EDGE('',*,*,#264,.T.);
#334=ORIENTED_EDGE('',*,*,#263,.F.);
#335=ORIENTED_EDGE('',*,*,#264,.F.);
#336=ORIENTED_EDGE('',*,*,#265,.T.);
#337=ORIENTED_EDGE('',*,*,#266,.T.);
#338=ORIENTED_EDGE('',*,*,#265,.F.);
#339=ORIENTED_EDGE('',*,*,#243,.F.);
#340=ORIENTED_EDGE('',*,*,#267,.F.);
#341=ORIENTED_EDGE('',*,*,#268,.T.);
#342=ORIENTED_EDGE('',*,*,#269,.F.);
#343=ORIENTED_EDGE('',*,*,#248,.F.);
#344=ORIENTED_EDGE('',*,*,#253,.T.);
#345=ORIENTED_EDGE('',*,*,#237,.F.);
#346=ORIENTED_EDGE('',*,*,#247,.F.);
#347=ORIENTED_EDGE('',*,*,#270,.T.);
#348=ORIENTED_EDGE('',*,*,#271,.T.);
#349=ORIENTED_EDGE('',*,*,#270,.F.);
#350=ORIENTED_EDGE('',*,*,#242,.T.);
#351=ORIENTED_EDGE('',*,*,#272,.F.);
#352=ORIENTED_EDGE('',*,*,#273,.F.);
#353=ORIENTED_EDGE('',*,*,#267,.T.);
#354=ORIENTED_EDGE('',*,*,#254,.T.);
#355=ORIENTED_EDGE('',*,*,#250,.T.);
#356=ORIENTED_EDGE('',*,*,#274,.F.);
#357=ORIENTED_EDGE('',*,*,#275,.F.);
#358=ORIENTED_EDGE('',*,*,#272,.T.);
#359=ORIENTED_EDGE('',*,*,#241,.F.);
#360=ORIENTED_EDGE('',*,*,#234,.F.);
#361=ORIENTED_EDGE('',*,*,#262,.F.);
#362=ORIENTED_EDGE('',*,*,#276,.T.);
#363=ORIENTED_EDGE('',*,*,#277,.T.);
#364=ORIENTED_EDGE('',*,*,#276,.F.);
#365=ORIENTED_EDGE('',*,*,#261,.F.);
#366=ORIENTED_EDGE('',*,*,#278,.T.);
#367=ORIENTED_EDGE('',*,*,#279,.T.);
#368=ORIENTED_EDGE('',*,*,#278,.F.);
#369=ORIENTED_EDGE('',*,*,#260,.F.);
#370=ORIENTED_EDGE('',*,*,#280,.T.);
#371=ORIENTED_EDGE('',*,*,#281,.T.);
#372=ORIENTED_EDGE('',*,*,#280,.F.);
#373=ORIENTED_EDGE('',*,*,#259,.F.);
#374=ORIENTED_EDGE('',*,*,#282,.T.);
#375=ORIENTED_EDGE('',*,*,#283,.T.);
#376=ORIENTED_EDGE('',*,*,#282,.F.);
#377=ORIENTED_EDGE('',*,*,#258,.F.);
#378=ORIENTED_EDGE('',*,*,#284,.T.);
#379=ORIENTED_EDGE('',*,*,#285,.T.);
#380=ORIENTED_EDGE('',*,*,#284,.F.);
#381=ORIENTED_EDGE('',*,*,#257,.F.);
#382=ORIENTED_EDGE('',*,*,#286,.T.);
#383=ORIENTED_EDGE('',*,*,#287,.T.);
#384=ORIENTED_EDGE('',*,*,#286,.F.);
#385=ORIENTED_EDGE('',*,*,#256,.F.);
#386=ORIENTED_EDGE('',*,*,#288,.T.);
#387=ORIENTED_EDGE('',*,*,#289,.T.);
#388=ORIENTED_EDGE('',*,*,#288,.F.);
#389=ORIENTED_EDGE('',*,*,#249,.F.);
#390=ORIENTED_EDGE('',*,*,#269,.T.);
#391=ORIENTED_EDGE('',*,*,#290,.T.);
#392=ORIENTED_EDGE('',*,*,#274,.T.);
#393=ORIENTED_EDGE('',*,*,#255,.F.);
#394=ORIENTED_EDGE('',*,*,#291,.T.);
#395=ORIENTED_EDGE('',*,*,#292,.T.);
#396=ORIENTED_EDGE('',*,*,#291,.F.);
#397=ORIENTED_EDGE('',*,*,#266,.F.);
#398=ORIENTED_EDGE('',*,*,#271,.F.);
#399=ORIENTED_EDGE('',*,*,#292,.F.);
#400=ORIENTED_EDGE('',*,*,#290,.F.);
#401=ORIENTED_EDGE('',*,*,#268,.F.);
#402=ORIENTED_EDGE('',*,*,#273,.T.);
#403=ORIENTED_EDGE('',*,*,#275,.T.);
#404=ORIENTED_EDGE('',*,*,#289,.F.);
#405=ORIENTED_EDGE('',*,*,#287,.F.);
#406=ORIENTED_EDGE('',*,*,#285,.F.);
#407=ORIENTED_EDGE('',*,*,#283,.F.);
#408=ORIENTED_EDGE('',*,*,#281,.F.);
#409=ORIENTED_EDGE('',*,*,#279,.F.);
#410=ORIENTED_EDGE('',*,*,#277,.F.);
#411=TOROIDAL_SURFACE('',#451,76.1768066979971,2.);
#412=TOROIDAL_SURFACE('',#458,23.8231933020029,2.);
#413=TOROIDAL_SURFACE('',#463,77.,2.);
#414=TOROIDAL_SURFACE('',#476,98.,2.);
#415=ADVANCED_FACE('',(#93),#411,.F.);
#416=ADVANCED_FACE('',(#94),#92,.T.);
#417=ADVANCED_FACE('',(#95),#412,.T.);
#418=ADVANCED_FACE('',(#96,#27),#47,.T.);
#419=ADVANCED_FACE('',(#97),#413,.T.);
#420=ADVANCED_FACE('',(#98,#28,#29,#30,#31,#32,#33,#34,#35,#36),#48,.T.);
#421=ADVANCED_FACE('',(#99),#414,.T.);
#422=ADVANCED_FACE('',(#100),#15,.T.);
#423=ADVANCED_FACE('',(#101),#49,.T.);
#424=ADVANCED_FACE('',(#102),#16,.F.);
#425=ADVANCED_FACE('',(#103),#17,.F.);
#426=ADVANCED_FACE('',(#104),#50,.T.);
#427=ADVANCED_FACE('',(#105),#18,.F.);
#428=ADVANCED_FACE('',(#106),#19,.F.);
#429=ADVANCED_FACE('',(#107),#20,.F.);
#430=ADVANCED_FACE('',(#108),#21,.F.);
#431=ADVANCED_FACE('',(#109),#22,.F.);
#432=ADVANCED_FACE('',(#110),#23,.F.);
#433=ADVANCED_FACE('',(#111),#24,.F.);
#434=ADVANCED_FACE('',(#112),#25,.F.);
#435=ADVANCED_FACE('',(#113),#26,.F.);
#436=ADVANCED_FACE('',(#114,#37,#38,#39,#40,#41,#42,#43,#44,#45,#46),#51,
 .F.);
#437=CLOSED_SHELL('',(#415,#416,#417,#418,#419,#420,#421,#422,#423,#424,
#425,#426,#427,#428,#429,#430,#431,#432,#433,#434,#435,#436));
#438=DERIVED_UNIT_ELEMENT(#440,1.);
#439=DERIVED_UNIT_ELEMENT(#833,-3.);
#440=(
MASS_UNIT()
NAMED_UNIT(*)
SI_UNIT(.KILO.,.GRAM.)
);
#441=DERIVED_UNIT((#438,#439));
#442=MEASURE_REPRESENTATION_ITEM('density measure',
POSITIVE_RATIO_MEASURE(7850.),#441);
#443=PROPERTY_DEFINITION_REPRESENTATION(#448,#445);
#444=PROPERTY_DEFINITION_REPRESENTATION(#449,#446);
#445=REPRESENTATION('material name',(#447),#830);
#446=REPRESENTATION('density',(#442),#830);
#447=DESCRIPTIVE_REPRESENTATION_ITEM('Stahl','Stahl');
#448=PROPERTY_DEFINITION('material property','material name',#840);
#449=PROPERTY_DEFINITION('material property','density of part',#840);
#450=AXIS2_PLACEMENT_3D('',#637,#506,#507);
#451=AXIS2_PLACEMENT_3D('',#638,#508,#509);
#452=AXIS2_PLACEMENT_3D('',#650,#510,#511);
#453=AXIS2_PLACEMENT_3D('',#652,#512,#513);
#454=AXIS2_PLACEMENT_3D('',#662,#514,#515);
#455=AXIS2_PLACEMENT_3D('',#663,#516,#517);
#456=AXIS2_PLACEMENT_3D('',#666,#518,#519);
#457=AXIS2_PLACEMENT_3D('',#711,#521,#522);
#458=AXIS2_PLACEMENT_3D('',#712,#523,#524);
#459=AXIS2_PLACEMENT_3D('',#714,#525,#526);
#460=AXIS2_PLACEMENT_3D('',#715,#527,#528);
#461=AXIS2_PLACEMENT_3D('',#716,#529,#530);
#462=AXIS2_PLACEMENT_3D('',#718,#531,#532);
#463=AXIS2_PLACEMENT_3D('',#719,#533,#534);
#464=AXIS2_PLACEMENT_3D('',#733,#535,#536);
#465=AXIS2_PLACEMENT_3D('',#745,#537,#538);
#466=AXIS2_PLACEMENT_3D('',#746,#539,#540);
#467=AXIS2_PLACEMENT_3D('',#748,#541,#542);
#468=AXIS2_PLACEMENT_3D('',#752,#545,#546);
#469=AXIS2_PLACEMENT_3D('',#754,#547,#548);
#470=AXIS2_PLACEMENT_3D('',#756,#549,#550);
#471=AXIS2_PLACEMENT_3D('',#758,#551,#552);
#472=AXIS2_PLACEMENT_3D('',#760,#553,#554);
#473=AXIS2_PLACEMENT_3D('',#762,#555,#556);
#474=AXIS2_PLACEMENT_3D('',#764,#557,#558);
#475=AXIS2_PLACEMENT_3D('',#766,#559,#560);
#476=AXIS2_PLACEMENT_3D('',#767,#561,#562);
#477=AXIS2_PLACEMENT_3D('',#769,#563,#564);
#478=AXIS2_PLACEMENT_3D('',#770,#565,#566);
#479=AXIS2_PLACEMENT_3D('',#771,#567,#568);
#480=AXIS2_PLACEMENT_3D('',#774,#570,#571);
#481=AXIS2_PLACEMENT_3D('',#775,#572,#573);
#482=AXIS2_PLACEMENT_3D('',#781,#577,#578);
#483=AXIS2_PLACEMENT_3D('',#784,#580,#581);
#484=AXIS2_PLACEMENT_3D('',#785,#582,#583);
#485=AXIS2_PLACEMENT_3D('',#788,#585,#586);
#486=AXIS2_PLACEMENT_3D('',#789,#587,#588);
#487=AXIS2_PLACEMENT_3D('',#793,#591,#592);
#488=AXIS2_PLACEMENT_3D('',#796,#594,#595);
#489=AXIS2_PLACEMENT_3D('',#797,#596,#597);
#490=AXIS2_PLACEMENT_3D('',#800,#599,#600);
#491=AXIS2_PLACEMENT_3D('',#801,#601,#602);
#492=AXIS2_PLACEMENT_3D('',#804,#604,#605);
#493=AXIS2_PLACEMENT_3D('',#805,#606,#607);
#494=AXIS2_PLACEMENT_3D('',#808,#609,#610);
#495=AXIS2_PLACEMENT_3D('',#809,#611,#612);
#496=AXIS2_PLACEMENT_3D('',#812,#614,#615);
#497=AXIS2_PLACEMENT_3D('',#813,#616,#617);
#498=AXIS2_PLACEMENT_3D('',#816,#619,#620);
#499=AXIS2_PLACEMENT_3D('',#817,#621,#622);
#500=AXIS2_PLACEMENT_3D('',#820,#624,#625);
#501=AXIS2_PLACEMENT_3D('',#821,#626,#627);
#502=AXIS2_PLACEMENT_3D('',#822,#628,#629);
#503=AXIS2_PLACEMENT_3D('',#823,#630,#631);
#504=AXIS2_PLACEMENT_3D('',#826,#633,#634);
#505=AXIS2_PLACEMENT_3D('',#827,#635,#636);
#506=DIRECTION('axis',(0.,0.,1.));
#507=DIRECTION('refdir',(1.,0.,0.));
#508=DIRECTION('center_axis',(0.,0.,-1.));
#509=DIRECTION('ref_axis',(-6.12323399573677E-17,1.,0.));
#510=DIRECTION('center_axis',(0.,0.,-1.));
#511=DIRECTION('ref_axis',(1.11022302462516E-16,1.,0.));
#512=DIRECTION('center_axis',(0.,0.,-1.));
#513=DIRECTION('ref_axis',(1.11022302462516E-16,1.,0.));
#514=DIRECTION('center_axis',(0.,0.,1.));
#515=DIRECTION('ref_axis',(6.12323399573676E-17,1.,0.));
#516=DIRECTION('center_axis',(0.,0.,-1.));
#517=DIRECTION('ref_axis',(1.,0.,0.));
#518=DIRECTION('center_axis',(0.,0.,1.));
#519=DIRECTION('ref_axis',(1.,6.12323399573677E-17,0.));
#520=DIRECTION('',(-0.485642931178632,-5.9474106119645E-17,-0.874157276121538));
#521=DIRECTION('center_axis',(0.,0.,1.));
#522=DIRECTION('ref_axis',(1.,6.12323399573677E-17,0.));
#523=DIRECTION('center_axis',(0.,0.,-1.));
#524=DIRECTION('ref_axis',(-1.,0.,0.));
#525=DIRECTION('center_axis',(-1.22464679914735E-16,-1.,0.));
#526=DIRECTION('ref_axis',(1.,-1.22464679914735E-16,0.));
#527=DIRECTION('center_axis',(0.,0.,-1.));
#528=DIRECTION('ref_axis',(1.,0.,0.));
#529=DIRECTION('center_axis',(0.,0.,1.));
#530=DIRECTION('ref_axis',(1.,0.,0.));
#531=DIRECTION('center_axis',(0.,0.,-1.));
#532=DIRECTION('ref_axis',(1.,0.,0.));
#533=DIRECTION('center_axis',(0.,0.,-1.));
#534=DIRECTION('ref_axis',(-1.,0.,0.));
#535=DIRECTION('center_axis',(0.,0.,-1.));
#536=DIRECTION('ref_axis',(6.12323399573677E-17,-1.,0.));
#537=DIRECTION('center_axis',(0.,0.,1.));
#538=DIRECTION('ref_axis',(6.12323399573677E-17,-1.,0.));
#539=DIRECTION('center_axis',(0.,0.,1.));
#540=DIRECTION('ref_axis',(1.,0.,0.));
#541=DIRECTION('center_axis',(0.,0.,-1.));
#542=DIRECTION('ref_axis',(1.,0.,0.));
#543=DIRECTION('',(0.,1.,0.));
#544=DIRECTION('',(0.,-1.,0.));
#545=DIRECTION('center_axis',(0.,0.,-1.));
#546=DIRECTION('ref_axis',(1.,0.,0.));
#547=DIRECTION('center_axis',(0.,0.,-1.));
#548=DIRECTION('ref_axis',(1.,0.,0.));
#549=DIRECTION('center_axis',(0.,0.,-1.));
#550=DIRECTION('ref_axis',(1.,0.,0.));
#551=DIRECTION('center_axis',(0.,0.,-1.));
#552=DIRECTION('ref_axis',(1.,0.,0.));
#553=DIRECTION('center_axis',(0.,0.,-1.));
#554=DIRECTION('ref_axis',(1.,0.,0.));
#555=DIRECTION('center_axis',(0.,0.,-1.));
#556=DIRECTION('ref_axis',(1.,0.,0.));
#557=DIRECTION('center_axis',(0.,0.,-1.));
#558=DIRECTION('ref_axis',(1.,0.,0.));
#559=DIRECTION('center_axis',(0.,0.,-1.));
#560=DIRECTION('ref_axis',(1.,0.,0.));
#561=DIRECTION('center_axis',(0.,0.,1.));
#562=DIRECTION('ref_axis',(1.,0.,0.));
#563=DIRECTION('center_axis',(1.22464679914735E-16,-1.,0.));
#564=DIRECTION('ref_axis',(-1.,-1.22464679914735E-16,0.));
#565=DIRECTION('center_axis',(0.,0.,1.));
#566=DIRECTION('ref_axis',(1.,0.,0.));
#567=DIRECTION('center_axis',(0.,0.,1.));
#568=DIRECTION('ref_axis',(1.,0.,0.));
#569=DIRECTION('',(0.,0.,-1.));
#570=DIRECTION('center_axis',(0.,0.,1.));
#571=DIRECTION('ref_axis',(1.,0.,0.));
#572=DIRECTION('center_axis',(-1.,0.,0.));
#573=DIRECTION('ref_axis',(0.,-1.,0.));
#574=DIRECTION('',(0.,0.,1.));
#575=DIRECTION('',(0.,-1.,0.));
#576=DIRECTION('',(0.,0.,-1.));
#577=DIRECTION('center_axis',(0.,0.,1.));
#578=DIRECTION('ref_axis',(1.,0.,0.));
#579=DIRECTION('',(0.,0.,-1.));
#580=DIRECTION('center_axis',(0.,0.,-1.));
#581=DIRECTION('ref_axis',(1.,0.,0.));
#582=DIRECTION('center_axis',(0.,0.,1.));
#583=DIRECTION('ref_axis',(6.12323399573677E-17,1.,0.));
#584=DIRECTION('',(0.,0.,1.));
#585=DIRECTION('center_axis',(0.,0.,1.));
#586=DIRECTION('ref_axis',(1.,0.,0.));
#587=DIRECTION('center_axis',(1.,0.,0.));
#588=DIRECTION('ref_axis',(0.,1.,0.));
#589=DIRECTION('',(0.,0.,1.));
#590=DIRECTION('',(0.,-1.,0.));
#591=DIRECTION('center_axis',(0.,0.,1.));
#592=DIRECTION('ref_axis',(1.,0.,0.));
#593=DIRECTION('',(0.,0.,-1.));
#594=DIRECTION('center_axis',(0.,0.,-1.));
#595=DIRECTION('ref_axis',(1.,0.,0.));
#596=DIRECTION('center_axis',(0.,0.,1.));
#597=DIRECTION('ref_axis',(1.,0.,0.));
#598=DIRECTION('',(0.,0.,-1.));
#599=DIRECTION('center_axis',(0.,0.,-1.));
#600=DIRECTION('ref_axis',(1.,0.,0.));
#601=DIRECTION('center_axis',(0.,0.,1.));
#602=DIRECTION('ref_axis',(1.,0.,0.));
#603=DIRECTION('',(0.,0.,-1.));
#604=DIRECTION('center_axis',(0.,0.,-1.));
#605=DIRECTION('ref_axis',(1.,0.,0.));
#606=DIRECTION('center_axis',(0.,0.,1.));
#607=DIRECTION('ref_axis',(1.,0.,0.));
#608=DIRECTION('',(0.,0.,-1.));
#609=DIRECTION('center_axis',(0.,0.,-1.));
#610=DIRECTION('ref_axis',(1.,0.,0.));
#611=DIRECTION('center_axis',(0.,0.,1.));
#612=DIRECTION('ref_axis',(1.,0.,0.));
#613=DIRECTION('',(0.,0.,-1.));
#614=DIRECTION('center_axis',(0.,0.,-1.));
#615=DIRECTION('ref_axis',(1.,0.,0.));
#616=DIRECTION('center_axis',(0.,0.,1.));
#617=DIRECTION('ref_axis',(1.,0.,0.));
#618=DIRECTION('',(0.,0.,-1.));
#619=DIRECTION('center_axis',(0.,0.,-1.));
#620=DIRECTION('ref_axis',(1.,0.,0.));
#621=DIRECTION('center_axis',(0.,0.,1.));
#622=DIRECTION('ref_axis',(1.,0.,0.));
#623=DIRECTION('',(0.,0.,-1.));
#624=DIRECTION('center_axis',(0.,0.,-1.));
#625=DIRECTION('ref_axis',(1.,0.,0.));
#626=DIRECTION('center_axis',(0.,0.,1.));
#627=DIRECTION('ref_axis',(1.,0.,0.));
#628=DIRECTION('center_axis',(0.,0.,-1.));
#629=DIRECTION('ref_axis',(1.,0.,0.));
#630=DIRECTION('center_axis',(0.,0.,1.));
#631=DIRECTION('ref_axis',(1.,0.,0.));
#632=DIRECTION('',(0.,0.,-1.));
#633=DIRECTION('center_axis',(0.,0.,-1.));
#634=DIRECTION('ref_axis',(1.,0.,0.));
#635=DIRECTION('center_axis',(0.,0.,1.));
#636=DIRECTION('ref_axis',(1.,0.,0.));
#637=CARTESIAN_POINT('',(0.,0.,0.));
#638=CARTESIAN_POINT('Origin',(0.,0.,12.));
#639=CARTESIAN_POINT('',(-20.0000002980232,-73.5044615433859,10.));
#640=CARTESIAN_POINT('',(-20.0000002980232,-71.6910066268402,11.0287141376427));
#641=CARTESIAN_POINT('Ctrl Pts',(-20.0000002980232,-73.5044615433859,10.));
#642=CARTESIAN_POINT('Ctrl Pts',(-20.0000002980232,-73.2456184820964,10.));
#643=CARTESIAN_POINT('Ctrl Pts',(-20.0000002980232,-72.9406788252771,10.0590882174615));
#644=CARTESIAN_POINT('Ctrl Pts',(-20.0000002980232,-72.4650777540026,10.2518935553142));
#645=CARTESIAN_POINT('Ctrl Pts',(-20.0000002980232,-72.209151078556,10.4182156520808));
#646=CARTESIAN_POINT('Ctrl Pts',(-20.0000002980232,-71.9045591499669,10.7159646726584));
#647=CARTESIAN_POINT('Ctrl Pts',(-20.0000002980232,-71.7833259131966,10.8686513406894));
#648=CARTESIAN_POINT('Ctrl Pts',(-20.0000002980232,-71.6910066268423,11.028714137639));
#649=CARTESIAN_POINT('',(-74.4284921457586,-9.11486146716672E-15,11.0287141376346));
#650=CARTESIAN_POINT('Origin',(-3.7057918332518E-15,0.,11.0287141376427));
#651=CARTESIAN_POINT('',(20.0000002980232,-71.6910066268402,11.0287141376427));
#652=CARTESIAN_POINT('Origin',(-3.7057918332518E-15,0.,11.0287141376427));
#653=CARTESIAN_POINT('',(20.0000002980232,-73.5044615433859,10.));
#654=CARTESIAN_POINT('Ctrl Pts',(20.0000002980232,-71.6910066268402,11.0287141376427));
#655=CARTESIAN_POINT('Ctrl Pts',(20.0000002980232,-71.7833259131947,10.8686513406918));
#656=CARTESIAN_POINT('Ctrl Pts',(20.0000002980232,-71.9045591499659,10.7159646726594));
#657=CARTESIAN_POINT('Ctrl Pts',(20.0000002980232,-72.209151078556,10.4182156520808));
#658=CARTESIAN_POINT('Ctrl Pts',(20.0000002980232,-72.4650777540026,10.2518935553142));
#659=CARTESIAN_POINT('Ctrl Pts',(20.0000002980232,-72.9406788252771,10.0590882174615));
#660=CARTESIAN_POINT('Ctrl Pts',(20.0000002980232,-73.2456184820964,10.));
#661=CARTESIAN_POINT('Ctrl Pts',(20.0000002980232,-73.5044615433859,10.));
#662=CARTESIAN_POINT('Origin',(0.,0.,10.));
#663=CARTESIAN_POINT('Origin',(0.,0.,55.));
#664=CARTESIAN_POINT('',(-25.571507854246,-6.26321304861474E-15,98.9712858623573));
#665=CARTESIAN_POINT('',(25.571507854246,-3.13160652430737E-15,98.9712858623573));
#666=CARTESIAN_POINT('Origin',(0.,-1.56580326215369E-15,98.9712858623573));
#667=CARTESIAN_POINT('',(-50.,-6.12323399573677E-15,55.));
#668=CARTESIAN_POINT('',(-20.0000002980232,-49.42,49.0355796421204));
#669=CARTESIAN_POINT('Ctrl Pts',(-20.0000002980232,-71.6910066268449,11.0287141376346));
#670=CARTESIAN_POINT('Ctrl Pts',(-20.0000002980232,-58.7148775849826,33.5266730154869));
#671=CARTESIAN_POINT('Ctrl Pts',(-20.0000002980232,-49.42,49.0355796421204));
#672=CARTESIAN_POINT('',(20.0000002980232,-49.42,49.0355796421204));
#673=CARTESIAN_POINT('Ctrl Pts',(20.,-49.4200000887354,49.0355796953018));
#674=CARTESIAN_POINT('Ctrl Pts',(20.0000000058563,-48.100063800648,51.2379506753643));
#675=CARTESIAN_POINT('Ctrl Pts',(19.8689463205555,-46.8141372080446,53.460344760974));
#676=CARTESIAN_POINT('Ctrl Pts',(19.3321497790774,-44.0657890128244,58.386180084536));
#677=CARTESIAN_POINT('Ctrl Pts',(18.8681105787007,-42.634586575014,61.078417768055));
#678=CARTESIAN_POINT('Ctrl Pts',(17.4608338962323,-39.4546889745926,67.3377029963378));
#679=CARTESIAN_POINT('Ctrl Pts',(16.2596106438486,-37.5420547156949,71.3734333896461));
#680=CARTESIAN_POINT('Ctrl Pts',(13.8774569150715,-34.9707307161595,77.28152960021));
#681=CARTESIAN_POINT('Ctrl Pts',(12.9888065761902,-34.1615641127249,79.2258543046498));
#682=CARTESIAN_POINT('Ctrl Pts',(11.0103463145254,-32.6778005728308,82.9429662602386));
#683=CARTESIAN_POINT('Ctrl Pts',(9.92365885069283,-32.0026760171168,84.7172040368939));
#684=CARTESIAN_POINT('Ctrl Pts',(7.65574547884489,-30.9067958134322,87.7079938223658));
#685=CARTESIAN_POINT('Ctrl Pts',(6.38075989752512,-30.4051792014583,89.1340012151048));
#686=CARTESIAN_POINT('Ctrl Pts',(4.18655371301237,-29.848537488689,90.7610140484271));
#687=CARTESIAN_POINT('Ctrl Pts',(3.40797173884234,-29.6950953070153,91.2176800095803));
#688=CARTESIAN_POINT('Ctrl Pts',(1.76551564401015,-29.4808778123256,91.8592781207235));
#689=CARTESIAN_POINT('Ctrl Pts',(0.901572762127744,-29.42,92.044));
#690=CARTESIAN_POINT('Ctrl Pts',(-0.901572762127733,-29.42,92.044));
#691=CARTESIAN_POINT('Ctrl Pts',(-1.76551564401014,-29.4808778123256,91.8592781207235));
#692=CARTESIAN_POINT('Ctrl Pts',(-3.40797173884234,-29.6950953070153,91.2176800095803));
#693=CARTESIAN_POINT('Ctrl Pts',(-4.18655371301237,-29.848537488689,90.7610140484271));
#694=CARTESIAN_POINT('Ctrl Pts',(-6.38075989752511,-30.4051792014583,89.1340012151048));
#695=CARTESIAN_POINT('Ctrl Pts',(-7.6557454788449,-30.9067958134322,87.7079938223658));
#696=CARTESIAN_POINT('Ctrl Pts',(-9.92365885069283,-32.0026760171168,84.7172040368939));
#697=CARTESIAN_POINT('Ctrl Pts',(-11.0103463145254,-32.6778005728308,82.9429662602386));
#698=CARTESIAN_POINT('Ctrl Pts',(-12.9888065761902,-34.1615641127249,79.2258543046498));
#699=CARTESIAN_POINT('Ctrl Pts',(-13.8774569150715,-34.9707307161595,77.28152960021));
#700=CARTESIAN_POINT('Ctrl Pts',(-16.2596106438486,-37.5420547156949,71.3734333896461));
#701=CARTESIAN_POINT('Ctrl Pts',(-17.4608338962323,-39.4546889745926,67.3377029963378));
#702=CARTESIAN_POINT('Ctrl Pts',(-18.2890393136113,-41.3261108862809,63.6540109409198));
#703=CARTESIAN_POINT('Ctrl Pts',(-18.8681105787007,-42.634586575014,61.078417768055));
#704=CARTESIAN_POINT('Ctrl Pts',(-19.3321497790774,-44.0657890128244,58.386180084536));
#705=CARTESIAN_POINT('Ctrl Pts',(-19.8689463204983,-46.8141372077513,53.4603447614995));
#706=CARTESIAN_POINT('Ctrl Pts',(-20.0000000058563,-48.1000638016553,51.2379506736836));
#707=CARTESIAN_POINT('Ctrl Pts',(-20.,-49.4200000887354,49.0355796953018));
#708=CARTESIAN_POINT('Ctrl Pts',(20.0000002980232,-49.42,49.0355796421204));
#709=CARTESIAN_POINT('Ctrl Pts',(20.0000002980232,-58.7148775849698,33.5266730155083));
#710=CARTESIAN_POINT('Ctrl Pts',(20.0000002980232,-71.6910066268331,11.028714137655));
#711=CARTESIAN_POINT('Origin',(0.,-1.56580326215369E-15,98.9712858623573));
#712=CARTESIAN_POINT('Origin',(0.,0.,98.));
#713=CARTESIAN_POINT('',(23.8231933020029,-2.91749974227665E-15,100.));
#714=CARTESIAN_POINT('Origin',(23.8231933020029,-2.91749974227665E-15,98.));
#715=CARTESIAN_POINT('Origin',(0.,0.,100.));
#716=CARTESIAN_POINT('Origin',(0.,1.35791930422699,100.));
#717=CARTESIAN_POINT('',(-15.2,-1.86146313470398E-15,100.));
#718=CARTESIAN_POINT('Origin',(0.,0.,100.));
#719=CARTESIAN_POINT('Origin',(0.,0.,8.));
#720=CARTESIAN_POINT('',(20.0000002980232,-74.3572456999254,10.));
#721=CARTESIAN_POINT('',(20.0000002980232,-72.284161391546,8.));
#722=CARTESIAN_POINT('Ctrl Pts',(20.0000002980232,-72.284161391546,8.));
#723=CARTESIAN_POINT('Ctrl Pts',(20.0000002980232,-72.284161391546,8.24397128722043));
#724=CARTESIAN_POINT('Ctrl Pts',(20.0000002980232,-72.3428037754421,8.53080352905125));
#725=CARTESIAN_POINT('Ctrl Pts',(20.0000002980232,-72.5347994711738,8.98444730822533));
#726=CARTESIAN_POINT('Ctrl Pts',(20.0000002980232,-72.7037313314754,9.23036924829313));
#727=CARTESIAN_POINT('Ctrl Pts',(20.0000002980232,-73.0631977136119,9.58194014611987));
#728=CARTESIAN_POINT('Ctrl Pts',(20.0000002980232,-73.3189042746898,9.74822262765849));
#729=CARTESIAN_POINT('Ctrl Pts',(20.0000002980232,-73.7940617006275,9.94094115230949));
#730=CARTESIAN_POINT('Ctrl Pts',(20.0000002980232,-74.0986746101907,10.));
#731=CARTESIAN_POINT('Ctrl Pts',(20.0000002980232,-74.3572456999254,10.));
#732=CARTESIAN_POINT('',(-20.0000002980232,-72.284161391546,8.));
#733=CARTESIAN_POINT('Origin',(0.,0.,8.));
#734=CARTESIAN_POINT('',(-20.0000002980232,-74.3572456999254,10.));
#735=CARTESIAN_POINT('Ctrl Pts',(-20.0000002980232,-74.3572456999254,10.));
#736=CARTESIAN_POINT('Ctrl Pts',(-20.0000002980232,-74.0986746101907,10.));
#737=CARTESIAN_POINT('Ctrl Pts',(-20.0000002980232,-73.7940617006275,9.94094115230949));
#738=CARTESIAN_POINT('Ctrl Pts',(-20.0000002980232,-73.3189042746898,9.74822262765849));
#739=CARTESIAN_POINT('Ctrl Pts',(-20.0000002980232,-73.0631977136119,9.58194014611987));
#740=CARTESIAN_POINT('Ctrl Pts',(-20.0000002980232,-72.7037313314754,9.23036924829313));
#741=CARTESIAN_POINT('Ctrl Pts',(-20.0000002980232,-72.5347994711738,8.98444730822533));
#742=CARTESIAN_POINT('Ctrl Pts',(-20.0000002980232,-72.3428037754421,8.53080352905125));
#743=CARTESIAN_POINT('Ctrl Pts',(-20.0000002980232,-72.284161391546,8.24397128722043));
#744=CARTESIAN_POINT('Ctrl Pts',(-20.0000002980232,-72.284161391546,8.));
#745=CARTESIAN_POINT('Origin',(0.,0.,10.));
#746=CARTESIAN_POINT('Origin',(0.,0.,10.));
#747=CARTESIAN_POINT('',(-98.,1.20015386316441E-14,10.));
#748=CARTESIAN_POINT('Origin',(0.,0.,10.));
#749=CARTESIAN_POINT('',(20.0000002980232,-24.71,10.));
#750=CARTESIAN_POINT('',(-20.0000002980232,-36.142080695773,10.));
#751=CARTESIAN_POINT('',(57.6718433538229,-61.8718433538229,10.));
#752=CARTESIAN_POINT('Origin',(61.8718433538229,-61.8718433538229,10.));
#753=CARTESIAN_POINT('',(-66.0718433538229,61.8718433538229,10.));
#754=CARTESIAN_POINT('Origin',(-61.8718433538229,61.8718433538229,10.));
#755=CARTESIAN_POINT('',(-91.7,-1.77635683940025E-14,10.));
#756=CARTESIAN_POINT('Origin',(-87.5,-1.94289029309402E-14,10.));
#757=CARTESIAN_POINT('',(-4.20000000000001,-87.5,10.));
#758=CARTESIAN_POINT('Origin',(-1.07156594925393E-14,-87.5,10.));
#759=CARTESIAN_POINT('',(83.3,-1.77635683940025E-14,10.));
#760=CARTESIAN_POINT('Origin',(87.5,-1.94289029309402E-14,10.));
#761=CARTESIAN_POINT('',(-66.0718433538229,-61.8718433538229,10.));
#762=CARTESIAN_POINT('Origin',(-61.8718433538229,-61.8718433538229,10.));
#763=CARTESIAN_POINT('',(-4.2,87.5,10.));
#764=CARTESIAN_POINT('Origin',(0.,87.5,10.));
#765=CARTESIAN_POINT('',(57.6718433538229,61.8718433538229,10.));
#766=CARTESIAN_POINT('Origin',(61.8718433538229,61.8718433538229,10.));
#767=CARTESIAN_POINT('Origin',(0.,0.,8.));
#768=CARTESIAN_POINT('',(-100.,-1.22464679914735E-14,8.));
#769=CARTESIAN_POINT('Origin',(-98.,-1.20015386316441E-14,8.));
#770=CARTESIAN_POINT('Origin',(0.,0.,8.));
#771=CARTESIAN_POINT('Origin',(0.,0.,0.));
#772=CARTESIAN_POINT('',(-100.,-1.22464679914735E-14,0.));
#773=CARTESIAN_POINT('',(-100.,-1.22464679914735E-14,0.));
#774=CARTESIAN_POINT('Origin',(0.,0.,0.));
#775=CARTESIAN_POINT('Origin',(20.0000002980232,-49.42,0.));
#776=CARTESIAN_POINT('',(20.0000002980232,-49.42,0.));
#777=CARTESIAN_POINT('',(20.0000002980232,-49.42,0.));
#778=CARTESIAN_POINT('',(20.0000002980232,-72.284161391546,0.));
#779=CARTESIAN_POINT('',(20.0000002980232,-49.42,0.));
#780=CARTESIAN_POINT('',(20.0000002980232,-72.284161391546,0.));
#781=CARTESIAN_POINT('Origin',(0.,0.,0.));
#782=CARTESIAN_POINT('',(-15.2,-1.86146313470398E-15,0.));
#783=CARTESIAN_POINT('',(-15.2,-1.86146313470398E-15,0.));
#784=CARTESIAN_POINT('Origin',(0.,0.,0.));
#785=CARTESIAN_POINT('Origin',(0.,-49.42,0.));
#786=CARTESIAN_POINT('',(-20.0000002980232,-49.42,0.));
#787=CARTESIAN_POINT('',(-20.0000002980232,-49.42,0.));
#788=CARTESIAN_POINT('Origin',(0.,-49.42,0.));
#789=CARTESIAN_POINT('Origin',(-20.0000002980232,-72.284161391546,0.));
#790=CARTESIAN_POINT('',(-20.0000002980232,-72.284161391546,0.));
#791=CARTESIAN_POINT('',(-20.0000002980232,-72.284161391546,0.));
#792=CARTESIAN_POINT('',(-20.0000002980232,-49.42,0.));
#793=CARTESIAN_POINT('Origin',(61.8718433538229,61.8718433538229,0.));
#794=CARTESIAN_POINT('',(57.6718433538229,61.8718433538229,0.));
#795=CARTESIAN_POINT('',(57.6718433538229,61.8718433538229,0.));
#796=CARTESIAN_POINT('Origin',(61.8718433538229,61.8718433538229,0.));
#797=CARTESIAN_POINT('Origin',(0.,87.5,0.));
#798=CARTESIAN_POINT('',(-4.2,87.5,0.));
#799=CARTESIAN_POINT('',(-4.2,87.5,0.));
#800=CARTESIAN_POINT('Origin',(0.,87.5,0.));
#801=CARTESIAN_POINT('Origin',(-61.8718433538229,-61.8718433538229,0.));
#802=CARTESIAN_POINT('',(-66.0718433538229,-61.8718433538229,0.));
#803=CARTESIAN_POINT('',(-66.0718433538229,-61.8718433538229,0.));
#804=CARTESIAN_POINT('Origin',(-61.8718433538229,-61.8718433538229,0.));
#805=CARTESIAN_POINT('Origin',(87.5,-1.94289029309402E-14,0.));
#806=CARTESIAN_POINT('',(83.3,-1.99432545865821E-14,0.));
#807=CARTESIAN_POINT('',(83.3,-1.99432545865821E-14,0.));
#808=CARTESIAN_POINT('Origin',(87.5,-1.94289029309402E-14,0.));
#809=CARTESIAN_POINT('Origin',(-1.07156594925393E-14,-87.5,0.));
#810=CARTESIAN_POINT('',(-4.20000000000001,-87.5,0.));
#811=CARTESIAN_POINT('',(-4.20000000000001,-87.5,0.));
#812=CARTESIAN_POINT('Origin',(-1.07156594925393E-14,-87.5,0.));
#813=CARTESIAN_POINT('Origin',(-87.5,-1.94289029309402E-14,0.));
#814=CARTESIAN_POINT('',(-91.7,-1.99432545865821E-14,0.));
#815=CARTESIAN_POINT('',(-91.7,-1.99432545865821E-14,0.));
#816=CARTESIAN_POINT('Origin',(-87.5,-1.94289029309402E-14,0.));
#817=CARTESIAN_POINT('Origin',(-61.8718433538229,61.8718433538229,0.));
#818=CARTESIAN_POINT('',(-66.0718433538229,61.8718433538229,0.));
#819=CARTESIAN_POINT('',(-66.0718433538229,61.8718433538229,0.));
#820=CARTESIAN_POINT('Origin',(-61.8718433538229,61.8718433538229,0.));
#821=CARTESIAN_POINT('Origin',(0.,0.,0.));
#822=CARTESIAN_POINT('Origin',(0.,0.,0.));
#823=CARTESIAN_POINT('Origin',(61.8718433538229,-61.8718433538229,0.));
#824=CARTESIAN_POINT('',(57.6718433538229,-61.8718433538229,0.));
#825=CARTESIAN_POINT('',(57.6718433538229,-61.8718433538229,0.));
#826=CARTESIAN_POINT('Origin',(61.8718433538229,-61.8718433538229,0.));
#827=CARTESIAN_POINT('Origin',(0.,0.,0.));
#828=UNCERTAINTY_MEASURE_WITH_UNIT(LENGTH_MEASURE(0.01),#832,
'DISTANCE_ACCURACY_VALUE',
'Maximum model space distance between geometric entities at asserted c
onnectivities');
#829=UNCERTAINTY_MEASURE_WITH_UNIT(LENGTH_MEASURE(0.01),#832,
'DISTANCE_ACCURACY_VALUE',
'Maximum model space distance between geometric entities at asserted c
onnectivities');
#830=(
GEOMETRIC_REPRESENTATION_CONTEXT(3)
GLOBAL_UNCERTAINTY_ASSIGNED_CONTEXT((#828))
GLOBAL_UNIT_ASSIGNED_CONTEXT((#832,#834,#835))
REPRESENTATION_CONTEXT('','3D')
);
#831=(
GEOMETRIC_REPRESENTATION_CONTEXT(3)
GLOBAL_UNCERTAINTY_ASSIGNED_CONTEXT((#829))
GLOBAL_UNIT_ASSIGNED_CONTEXT((#832,#834,#835))
REPRESENTATION_CONTEXT('','3D')
);
#832=(
LENGTH_UNIT()
NAMED_UNIT(*)
SI_UNIT(.MILLI.,.METRE.)
);
#833=(
LENGTH_UNIT()
NAMED_UNIT(*)
SI_UNIT($,.METRE.)
);
#834=(
NAMED_UNIT(*)
PLANE_ANGLE_UNIT()
SI_UNIT($,.RADIAN.)
);
#835=(
NAMED_UNIT(*)
SI_UNIT($,.STERADIAN.)
SOLID_ANGLE_UNIT()
);
#836=SHAPE_DEFINITION_REPRESENTATION(#837,#838);
#837=PRODUCT_DEFINITION_SHAPE('',$,#840);
#838=SHAPE_REPRESENTATION('',(#450),#830);
#839=PRODUCT_DEFINITION_CONTEXT('part definition',#844,'design');
#840=PRODUCT_DEFINITION('2026-03-20-12-15-06-011','Cone Top',#841,#839);
#841=PRODUCT_DEFINITION_FORMATION('',$,#846);
#842=PRODUCT_RELATED_PRODUCT_CATEGORY('Cone Top','Cone Top',(#846));
#843=APPLICATION_PROTOCOL_DEFINITION('international standard',
'automotive_design',2009,#844);
#844=APPLICATION_CONTEXT(
'Core Data for Automotive Mechanical Design Process');
#845=PRODUCT_CONTEXT('part definition',#844,'mechanical');
#846=PRODUCT('2026-03-20-12-15-06-011','Cone Top',$,(#845));
#847=PRESENTATION_STYLE_ASSIGNMENT((#849));
#848=PRESENTATION_STYLE_ASSIGNMENT((#850));
#849=SURFACE_STYLE_USAGE(.BOTH.,#851);
#850=SURFACE_STYLE_USAGE(.BOTH.,#852);
#851=SURFACE_SIDE_STYLE('',(#853));
#852=SURFACE_SIDE_STYLE('',(#854));
#853=SURFACE_STYLE_FILL_AREA(#855);
#854=SURFACE_STYLE_FILL_AREA(#856);
#855=FILL_AREA_STYLE('Stahl - satiniert',(#857));
#856=FILL_AREA_STYLE('ABS (Schwarz)',(#858));
#857=FILL_AREA_STYLE_COLOUR('Stahl - satiniert',#859);
#858=FILL_AREA_STYLE_COLOUR('ABS (Schwarz)',#860);
#859=COLOUR_RGB('Stahl - satiniert',0.627450980392157,0.627450980392157,
0.627450980392157);
#860=COLOUR_RGB('ABS (Schwarz)',0.0627450980392157,0.0627450980392157,0.0627450980392157);
ENDSEC;
END-ISO-10303-21;
