ISO-10303-21;
HEADER;
/* Generated by software containing ST-Developer
 * from STEP Tools, Inc. (www.steptools.com) 
 */

FILE_DESCRIPTION(
/* description */ (''),
/* implementation_level */ '2;1');

FILE_NAME(
/* name */ 'Pacifier.step',
/* time_stamp */ '2026-07-12T12:43:35+02:00',
/* author */ (''),
/* organization */ (''),
/* preprocessor_version */ 'ST-DEVELOPER v20.1',
/* originating_system */ 'Autodesk Translation Framework v15.8.0.0',
/* authorisation */ '');

FILE_SCHEMA (('AUTOMOTIVE_DESIGN { 1 0 10303 214 3 1 1 }'));
ENDSEC;

DATA;
#10=MECHANICAL_DESIGN_GEOMETRIC_PRESENTATION_REPRESENTATION('',(#13),#1175);
#11=SHAPE_REPRESENTATION_RELATIONSHIP('SRR','None',#1182,#12);
#12=ADVANCED_BREP_SHAPE_REPRESENTATION('',(#14),#1174);
#13=STYLED_ITEM('',(#1192),#14);
#14=MANIFOLD_SOLID_BREP('Pacifier',#400);
#15=TOROIDAL_SURFACE('',#418,21.,1.);
#16=TOROIDAL_SURFACE('',#422,18.7,1.);
#17=TOROIDAL_SURFACE('',#426,21.,1.);
#18=TOROIDAL_SURFACE('',#439,21.,1.);
#19=TOROIDAL_SURFACE('',#442,18.7,1.);
#20=TOROIDAL_SURFACE('',#445,21.,1.);
#21=CIRCLE('',#417,1.00000000000001);
#22=CIRCLE('',#419,1.);
#23=CIRCLE('',#420,21.);
#24=CIRCLE('',#421,20.);
#25=CIRCLE('',#423,1.);
#26=CIRCLE('',#424,18.7);
#27=CIRCLE('',#425,19.7);
#28=CIRCLE('',#427,1.);
#29=CIRCLE('',#428,21.);
#30=CIRCLE('',#429,20.);
#31=CIRCLE('',#432,20.);
#32=CIRCLE('',#434,19.7);
#33=CIRCLE('',#436,20.);
#34=CIRCLE('',#438,0.999999999999999);
#35=CIRCLE('',#440,0.999999999999999);
#36=CIRCLE('',#441,21.);
#37=CIRCLE('',#443,1.);
#38=CIRCLE('',#444,18.7);
#39=CIRCLE('',#446,1.);
#40=CIRCLE('',#447,21.);
#41=CIRCLE('',#450,15.7);
#42=CIRCLE('',#452,15.7);
#43=CYLINDRICAL_SURFACE('',#416,1.);
#44=CYLINDRICAL_SURFACE('',#430,1.);
#45=CYLINDRICAL_SURFACE('',#431,20.);
#46=CYLINDRICAL_SURFACE('',#433,19.7);
#47=CYLINDRICAL_SURFACE('',#435,20.);
#48=CYLINDRICAL_SURFACE('',#437,1.);
#49=CYLINDRICAL_SURFACE('',#448,1.);
#50=CYLINDRICAL_SURFACE('',#453,15.7);
#51=FACE_BOUND('',#87,.T.);
#52=FACE_BOUND('',#91,.T.);
#53=FACE_BOUND('',#109,.T.);
#54=FACE_BOUND('',#111,.T.);
#55=PLANE('',#414);
#56=PLANE('',#415);
#57=PLANE('',#449);
#58=PLANE('',#451);
#59=FACE_OUTER_BOUND('',#84,.T.);
#60=FACE_OUTER_BOUND('',#85,.T.);
#61=FACE_OUTER_BOUND('',#86,.T.);
#62=FACE_OUTER_BOUND('',#88,.T.);
#63=FACE_OUTER_BOUND('',#89,.T.);
#64=FACE_OUTER_BOUND('',#90,.T.);
#65=FACE_OUTER_BOUND('',#92,.T.);
#66=FACE_OUTER_BOUND('',#93,.T.);
#67=FACE_OUTER_BOUND('',#94,.T.);
#68=FACE_OUTER_BOUND('',#95,.T.);
#69=FACE_OUTER_BOUND('',#96,.T.);
#70=FACE_OUTER_BOUND('',#97,.T.);
#71=FACE_OUTER_BOUND('',#98,.T.);
#72=FACE_OUTER_BOUND('',#99,.T.);
#73=FACE_OUTER_BOUND('',#100,.T.);
#74=FACE_OUTER_BOUND('',#101,.T.);
#75=FACE_OUTER_BOUND('',#102,.T.);
#76=FACE_OUTER_BOUND('',#103,.T.);
#77=FACE_OUTER_BOUND('',#104,.T.);
#78=FACE_OUTER_BOUND('',#105,.T.);
#79=FACE_OUTER_BOUND('',#106,.T.);
#80=FACE_OUTER_BOUND('',#107,.T.);
#81=FACE_OUTER_BOUND('',#108,.T.);
#82=FACE_OUTER_BOUND('',#110,.T.);
#83=FACE_OUTER_BOUND('',#112,.T.);
#84=EDGE_LOOP('',(#254,#255,#256,#257));
#85=EDGE_LOOP('',(#258,#259,#260,#261));
#86=EDGE_LOOP('',(#262,#263,#264,#265,#266));
#87=EDGE_LOOP('',(#267));
#88=EDGE_LOOP('',(#268,#269,#270,#271));
#89=EDGE_LOOP('',(#272,#273,#274,#275));
#90=EDGE_LOOP('',(#276,#277,#278,#279,#280));
#91=EDGE_LOOP('',(#281));
#92=EDGE_LOOP('',(#282,#283,#284,#285,#286));
#93=EDGE_LOOP('',(#287,#288,#289,#290));
#94=EDGE_LOOP('',(#291,#292,#293,#294));
#95=EDGE_LOOP('',(#295,#296,#297,#298));
#96=EDGE_LOOP('',(#299,#300,#301,#302));
#97=EDGE_LOOP('',(#303,#304,#305,#306));
#98=EDGE_LOOP('',(#307,#308,#309,#310));
#99=EDGE_LOOP('',(#311,#312,#313,#314));
#100=EDGE_LOOP('',(#315,#316,#317,#318,#319));
#101=EDGE_LOOP('',(#320,#321,#322,#323));
#102=EDGE_LOOP('',(#324,#325,#326,#327));
#103=EDGE_LOOP('',(#328,#329,#330,#331));
#104=EDGE_LOOP('',(#332,#333,#334,#335));
#105=EDGE_LOOP('',(#336,#337,#338,#339));
#106=EDGE_LOOP('',(#340,#341,#342,#343,#344));
#107=EDGE_LOOP('',(#345,#346,#347,#348,#349));
#108=EDGE_LOOP('',(#350,#351,#352,#353,#354,#355));
#109=EDGE_LOOP('',(#356));
#110=EDGE_LOOP('',(#357,#358,#359,#360,#361,#362));
#111=EDGE_LOOP('',(#363));
#112=EDGE_LOOP('',(#364,#365,#366,#367));
#113=LINE('',#621,#128);
#114=LINE('',#695,#129);
#115=LINE('',#697,#130);
#116=LINE('',#698,#131);
#117=LINE('',#798,#132);
#118=LINE('',#876,#133);
#119=LINE('',#878,#134);
#120=LINE('',#879,#135);
#121=LINE('',#924,#136);
#122=LINE('',#947,#137);
#123=LINE('',#950,#138);
#124=LINE('',#954,#139);
#125=LINE('',#962,#140);
#126=LINE('',#980,#141);
#127=LINE('',#1171,#142);
#128=VECTOR('',#456,10.);
#129=VECTOR('',#459,10.);
#130=VECTOR('',#460,10.);
#131=VECTOR('',#461,10.);
#132=VECTOR('',#462,10.);
#133=VECTOR('',#465,10.);
#134=VECTOR('',#466,10.);
#135=VECTOR('',#467,10.);
#136=VECTOR('',#472,10.);
#137=VECTOR('',#499,10.);
#138=VECTOR('',#502,10.);
#139=VECTOR('',#507,10.);
#140=VECTOR('',#518,10.);
#141=VECTOR('',#539,10.);
#142=VECTOR('',#550,15.7);
#143=B_SPLINE_CURVE_WITH_KNOTS('',3,(#590,#591,#592,#593,#594,#595,#596,
#597,#598,#599,#600,#601,#602,#603,#604,#605,#606,#607,#608,#609),
 .UNSPECIFIED.,.F.,.F.,(4,2,2,2,2,2,2,2,2,4),(0.,0.00883058635330842,0.0585436435611761,
0.0943166919560048,0.124742959957145,0.154725161726312,0.185311263011806,
0.190588652818662,0.193114718629379,0.194666504688961),.UNSPECIFIED.);
#144=B_SPLINE_CURVE_WITH_KNOTS('',3,(#611,#612,#613,#614,#615,#616,#617,
#618,#619),.UNSPECIFIED.,.F.,.F.,(4,1,1,1,1,1,4),(-1.8868403523027,-1.68168358483654,
-1.40042304814442,-0.837901974760184,-0.556641438068065,-0.275380901375945,
0.00587963531617468),.UNSPECIFIED.);
#145=B_SPLINE_CURVE_WITH_KNOTS('',3,(#622,#623,#624,#625,#626,#627,#628,
#629,#630),.UNSPECIFIED.,.F.,.F.,(4,1,1,1,1,1,4),(-0.00587963531617468,
0.275380901375945,0.556641438068065,0.837901974760184,1.40042304814442,
1.68168358483654,1.96294412152866),.UNSPECIFIED.);
#146=B_SPLINE_CURVE_WITH_KNOTS('',3,(#656,#657,#658,#659,#660,#661),
 .UNSPECIFIED.,.F.,.F.,(4,1,1,4),(-1.35783695605979,-1.00421566822719,-0.650594380394595,
-0.154078209787343),.UNSPECIFIED.);
#147=B_SPLINE_CURVE_WITH_KNOTS('',3,(#663,#664,#665,#666,#667,#668,#669,
#670,#671,#672,#673,#674,#675,#676,#677,#678,#679,#680,#681,#682,#683,#684,
#685,#686),.UNSPECIFIED.,.F.,.F.,(4,2,2,2,2,2,2,2,2,2,2,4),(0.246536061994637,
0.247212722720677,0.251193924162363,0.257112862771649,0.271020468136339,
0.300210914003145,0.325866730540134,0.341247498143398,0.354398130192351,
0.370844718837727,0.398786757427856,0.460470638427871),.UNSPECIFIED.);
#148=B_SPLINE_CURVE_WITH_KNOTS('',3,(#687,#688,#689,#690,#691,#692),
 .UNSPECIFIED.,.F.,.F.,(4,1,1,4),(0.120162448645698,0.650594380394595,1.00421566822719,
1.35783695605979),.UNSPECIFIED.);
#149=B_SPLINE_CURVE_WITH_KNOTS('',3,(#700,#701,#702,#703,#704,#705,#706,
#707,#708,#709,#710,#711,#712,#713,#714,#715,#716,#717,#718,#719,#720,#721,
#722,#723,#724,#725,#726,#727,#728,#729,#730,#731,#732,#733,#734,#735,#736,
#737,#738),.UNSPECIFIED.,.T.,.F.,(4,2,2,2,2,2,2,2,2,2,2,2,2,2,2,2,3,2,4),
(0.196586810422168,0.288983626217065,0.434848933378455,0.583147602599598,
0.733673345435351,0.885066295352253,1.035316254809,1.18282737934852,1.32752875967167,
1.47114675032923,1.61623730253549,1.76457048180032,1.91584300622754,2.06778249747243,
2.21781945371711,2.30066985324368,2.38369370221416,2.52830045449919,2.58028051263633),
 .UNSPECIFIED.);
#150=B_SPLINE_CURVE_WITH_KNOTS('',3,(#769,#770,#771,#772,#773,#774,#775,
#776,#777,#778,#779,#780,#781,#782,#783,#784,#785,#786,#787,#788),
 .UNSPECIFIED.,.F.,.F.,(4,2,2,2,2,2,2,2,2,4),(0.,0.00991808484417171,0.0557577373798,
0.086903552956481,0.113496966879076,0.139654412301334,0.165389094078982,
0.170258406054495,0.172740764049071,0.174192884656474),.UNSPECIFIED.);
#151=B_SPLINE_CURVE_WITH_KNOTS('',3,(#790,#791,#792,#793,#794,#795,#796),
 .UNSPECIFIED.,.F.,.F.,(4,1,1,1,4),(-1.45668722010985,-1.09070732390339,
-0.648712188010495,-0.427714620064048,0.0142805158288453),.UNSPECIFIED.);
#152=B_SPLINE_CURVE_WITH_KNOTS('',3,(#799,#800,#801,#802,#803,#804,#805),
 .UNSPECIFIED.,.F.,.F.,(4,1,1,1,4),(-0.0142805158288453,0.427714620064048,
0.648712188010495,1.09070732390339,1.53270245979628),.UNSPECIFIED.);
#153=B_SPLINE_CURVE_WITH_KNOTS('',3,(#835,#836,#837,#838,#839,#840,#841),
 .UNSPECIFIED.,.F.,.F.,(4,1,1,1,4),(-1.7803769223343,-1.30602838936948,
-1.06885412288707,-0.594505589922261,-0.154054242635536),.UNSPECIFIED.);
#154=B_SPLINE_CURVE_WITH_KNOTS('',3,(#843,#844,#845,#846,#847,#848,#849,
#850,#851,#852,#853,#854,#855,#856,#857,#858,#859,#860,#861,#862,#863,#864,
#865,#866),.UNSPECIFIED.,.F.,.F.,(4,2,2,2,2,2,2,2,2,2,2,4),(0.236904411294936,
0.237785833522773,0.240898072232167,0.245822761127052,0.257919721035692,
0.284417055744565,0.305032162080961,0.317751417663953,0.328932320509267,
0.343210706706098,0.367910887228809,0.418729559350672),.UNSPECIFIED.);
#155=B_SPLINE_CURVE_WITH_KNOTS('',3,(#867,#868,#869,#870,#871,#872,#873),
 .UNSPECIFIED.,.F.,.F.,(4,1,1,1,4),(0.120157056957447,0.594505589922261,
1.06885412288707,1.30602838936948,1.7803769223343),.UNSPECIFIED.);
#156=B_SPLINE_CURVE_WITH_KNOTS('',3,(#881,#882,#883,#884,#885,#886,#887,
#888,#889,#890,#891,#892,#893,#894,#895,#896,#897,#898,#899,#900,#901,#902,
#903,#904,#905,#906,#907,#908,#909,#910,#911,#912,#913,#914,#915,#916,#917,
#918,#919),.UNSPECIFIED.,.T.,.F.,(4,3,2,2,2,2,2,2,2,2,2,2,2,2,2,2,2,2,4),
(2.33481601536533,2.38449757159667,2.53386877152106,2.68502950811755,2.83625763119006,
2.98556305961568,3.13187553404191,3.27590253524416,3.41987955259171,3.56622910968259,
3.71596649847727,3.86787357503202,4.01931476635269,4.16817902332013,4.31417118505889,
4.45857051406043,4.60325411961598,4.68618298001329,4.71931358696201),
 .UNSPECIFIED.);
#157=B_SPLINE_CURVE_WITH_KNOTS('',3,(#925,#926,#927,#928),.UNSPECIFIED.,
 .F.,.F.,(4,4),(-0.00203092752093058,0.),.UNSPECIFIED.);
#158=B_SPLINE_CURVE_WITH_KNOTS('',3,(#963,#964,#965,#966),.UNSPECIFIED.,
 .F.,.F.,(4,4),(-0.00202279715546632,0.),.UNSPECIFIED.);
#159=B_SPLINE_CURVE_WITH_KNOTS('',3,(#1029,#1030,#1031,#1032),
 .UNSPECIFIED.,.F.,.F.,(4,4),(2.9976501438002,3.28997128803864),
 .UNSPECIFIED.);
#160=B_SPLINE_CURVE_WITH_KNOTS('',3,(#1061,#1062,#1063,#1064),
 .UNSPECIFIED.,.F.,.F.,(4,4),(3.02160924537921,3.26874457503506),
 .UNSPECIFIED.);
#161=B_SPLINE_CURVE_WITH_KNOTS('',3,(#1065,#1066,#1067,#1068,#1069,#1070,
#1071,#1072,#1073,#1074,#1075,#1076,#1077,#1078,#1079,#1080,#1081,#1082,
#1083,#1084,#1085,#1086,#1087,#1088,#1089,#1090,#1091,#1092,#1093,#1094,
#1095,#1096,#1097,#1098,#1099,#1100,#1101),.UNSPECIFIED.,.F.,.F.,(4,3,3,
3,3,3,3,3,3,3,3,3,4),(0.227776958061031,0.31366323795044,0.419626268741137,
0.526032681001924,0.629514870584314,0.73193596000867,0.832777772918066,
0.845251917784285,0.979426898758566,1.11691788461545,1.25584807477584,1.39626338879396,
1.51294710784594),.UNSPECIFIED.);
#162=B_SPLINE_CURVE_WITH_KNOTS('',3,(#1130,#1131,#1132,#1133,#1134,#1135,
#1136,#1137,#1138,#1139,#1140,#1141,#1142,#1143,#1144,#1145,#1146,#1147,
#1148,#1149,#1150,#1151,#1152,#1153,#1154,#1155,#1156,#1157,#1158,#1159,
#1160,#1161,#1162,#1163),.UNSPECIFIED.,.F.,.F.,(4,3,3,3,3,3,3,3,3,3,3,4),
(0.227001209631063,0.333647933186694,0.439449068618069,0.54359773572111,
0.646729165353819,0.748045120299523,0.847173022935244,0.983728196771179,
1.12479835676203,1.26842798807165,1.41618332248944,1.51602512747467),
 .UNSPECIFIED.);
#163=VERTEX_POINT('',#588);
#164=VERTEX_POINT('',#589);
#165=VERTEX_POINT('',#610);
#166=VERTEX_POINT('',#620);
#167=VERTEX_POINT('',#655);
#168=VERTEX_POINT('',#662);
#169=VERTEX_POINT('',#694);
#170=VERTEX_POINT('',#696);
#171=VERTEX_POINT('',#699);
#172=VERTEX_POINT('',#767);
#173=VERTEX_POINT('',#768);
#174=VERTEX_POINT('',#789);
#175=VERTEX_POINT('',#797);
#176=VERTEX_POINT('',#834);
#177=VERTEX_POINT('',#842);
#178=VERTEX_POINT('',#875);
#179=VERTEX_POINT('',#877);
#180=VERTEX_POINT('',#880);
#181=VERTEX_POINT('',#921);
#182=VERTEX_POINT('',#923);
#183=VERTEX_POINT('',#930);
#184=VERTEX_POINT('',#931);
#185=VERTEX_POINT('',#936);
#186=VERTEX_POINT('',#937);
#187=VERTEX_POINT('',#942);
#188=VERTEX_POINT('',#949);
#189=VERTEX_POINT('',#953);
#190=VERTEX_POINT('',#959);
#191=VERTEX_POINT('',#961);
#192=VERTEX_POINT('',#968);
#193=VERTEX_POINT('',#972);
#194=VERTEX_POINT('',#976);
#195=VERTEX_POINT('',#1165);
#196=VERTEX_POINT('',#1168);
#197=EDGE_CURVE('',#163,#164,#143,.F.);
#198=EDGE_CURVE('',#164,#165,#144,.T.);
#199=EDGE_CURVE('',#165,#166,#113,.T.);
#200=EDGE_CURVE('',#166,#163,#145,.T.);
#201=EDGE_CURVE('',#165,#167,#146,.T.);
#202=EDGE_CURVE('',#167,#168,#147,.F.);
#203=EDGE_CURVE('',#168,#166,#148,.T.);
#204=EDGE_CURVE('',#163,#169,#114,.T.);
#205=EDGE_CURVE('',#170,#168,#115,.T.);
#206=EDGE_CURVE('',#169,#170,#116,.T.);
#207=EDGE_CURVE('',#171,#171,#149,.T.);
#208=EDGE_CURVE('',#172,#173,#150,.F.);
#209=EDGE_CURVE('',#173,#174,#151,.T.);
#210=EDGE_CURVE('',#174,#175,#117,.T.);
#211=EDGE_CURVE('',#175,#172,#152,.T.);
#212=EDGE_CURVE('',#174,#176,#153,.T.);
#213=EDGE_CURVE('',#176,#177,#154,.F.);
#214=EDGE_CURVE('',#177,#175,#155,.T.);
#215=EDGE_CURVE('',#172,#178,#118,.T.);
#216=EDGE_CURVE('',#179,#177,#119,.T.);
#217=EDGE_CURVE('',#179,#178,#120,.T.);
#218=EDGE_CURVE('',#180,#180,#156,.T.);
#219=EDGE_CURVE('',#169,#181,#21,.T.);
#220=EDGE_CURVE('',#181,#182,#121,.T.);
#221=EDGE_CURVE('',#182,#164,#157,.F.);
#222=EDGE_CURVE('',#183,#184,#22,.T.);
#223=EDGE_CURVE('',#184,#181,#23,.T.);
#224=EDGE_CURVE('',#169,#183,#24,.T.);
#225=EDGE_CURVE('',#185,#186,#25,.T.);
#226=EDGE_CURVE('',#186,#184,#26,.T.);
#227=EDGE_CURVE('',#183,#185,#27,.T.);
#228=EDGE_CURVE('',#179,#187,#28,.T.);
#229=EDGE_CURVE('',#187,#186,#29,.T.);
#230=EDGE_CURVE('',#185,#179,#30,.T.);
#231=EDGE_CURVE('',#176,#187,#122,.T.);
#232=EDGE_CURVE('',#185,#188,#123,.T.);
#233=EDGE_CURVE('',#178,#188,#31,.T.);
#234=EDGE_CURVE('',#183,#189,#124,.T.);
#235=EDGE_CURVE('',#188,#189,#32,.T.);
#236=EDGE_CURVE('',#189,#170,#33,.T.);
#237=EDGE_CURVE('',#178,#190,#34,.T.);
#238=EDGE_CURVE('',#190,#191,#125,.T.);
#239=EDGE_CURVE('',#191,#173,#158,.F.);
#240=EDGE_CURVE('',#188,#192,#35,.T.);
#241=EDGE_CURVE('',#192,#190,#36,.T.);
#242=EDGE_CURVE('',#189,#193,#37,.T.);
#243=EDGE_CURVE('',#193,#192,#38,.T.);
#244=EDGE_CURVE('',#170,#194,#39,.T.);
#245=EDGE_CURVE('',#194,#193,#40,.T.);
#246=EDGE_CURVE('',#167,#194,#126,.T.);
#247=EDGE_CURVE('',#171,#180,#159,.T.);
#248=EDGE_CURVE('',#165,#174,#160,.T.);
#249=EDGE_CURVE('',#167,#191,#161,.T.);
#250=EDGE_CURVE('',#176,#182,#162,.T.);
#251=EDGE_CURVE('',#195,#195,#41,.T.);
#252=EDGE_CURVE('',#196,#196,#42,.T.);
#253=EDGE_CURVE('',#195,#196,#127,.T.);
#254=ORIENTED_EDGE('',*,*,#197,.T.);
#255=ORIENTED_EDGE('',*,*,#198,.T.);
#256=ORIENTED_EDGE('',*,*,#199,.T.);
#257=ORIENTED_EDGE('',*,*,#200,.T.);
#258=ORIENTED_EDGE('',*,*,#199,.F.);
#259=ORIENTED_EDGE('',*,*,#201,.T.);
#260=ORIENTED_EDGE('',*,*,#202,.T.);
#261=ORIENTED_EDGE('',*,*,#203,.T.);
#262=ORIENTED_EDGE('',*,*,#204,.F.);
#263=ORIENTED_EDGE('',*,*,#200,.F.);
#264=ORIENTED_EDGE('',*,*,#203,.F.);
#265=ORIENTED_EDGE('',*,*,#205,.F.);
#266=ORIENTED_EDGE('',*,*,#206,.F.);
#267=ORIENTED_EDGE('',*,*,#207,.T.);
#268=ORIENTED_EDGE('',*,*,#208,.T.);
#269=ORIENTED_EDGE('',*,*,#209,.T.);
#270=ORIENTED_EDGE('',*,*,#210,.T.);
#271=ORIENTED_EDGE('',*,*,#211,.T.);
#272=ORIENTED_EDGE('',*,*,#210,.F.);
#273=ORIENTED_EDGE('',*,*,#212,.T.);
#274=ORIENTED_EDGE('',*,*,#213,.T.);
#275=ORIENTED_EDGE('',*,*,#214,.T.);
#276=ORIENTED_EDGE('',*,*,#215,.F.);
#277=ORIENTED_EDGE('',*,*,#211,.F.);
#278=ORIENTED_EDGE('',*,*,#214,.F.);
#279=ORIENTED_EDGE('',*,*,#216,.F.);
#280=ORIENTED_EDGE('',*,*,#217,.T.);
#281=ORIENTED_EDGE('',*,*,#218,.T.);
#282=ORIENTED_EDGE('',*,*,#219,.T.);
#283=ORIENTED_EDGE('',*,*,#220,.T.);
#284=ORIENTED_EDGE('',*,*,#221,.T.);
#285=ORIENTED_EDGE('',*,*,#197,.F.);
#286=ORIENTED_EDGE('',*,*,#204,.T.);
#287=ORIENTED_EDGE('',*,*,#222,.T.);
#288=ORIENTED_EDGE('',*,*,#223,.T.);
#289=ORIENTED_EDGE('',*,*,#219,.F.);
#290=ORIENTED_EDGE('',*,*,#224,.T.);
#291=ORIENTED_EDGE('',*,*,#225,.T.);
#292=ORIENTED_EDGE('',*,*,#226,.T.);
#293=ORIENTED_EDGE('',*,*,#222,.F.);
#294=ORIENTED_EDGE('',*,*,#227,.T.);
#295=ORIENTED_EDGE('',*,*,#228,.T.);
#296=ORIENTED_EDGE('',*,*,#229,.T.);
#297=ORIENTED_EDGE('',*,*,#225,.F.);
#298=ORIENTED_EDGE('',*,*,#230,.T.);
#299=ORIENTED_EDGE('',*,*,#231,.T.);
#300=ORIENTED_EDGE('',*,*,#228,.F.);
#301=ORIENTED_EDGE('',*,*,#216,.T.);
#302=ORIENTED_EDGE('',*,*,#213,.F.);
#303=ORIENTED_EDGE('',*,*,#230,.F.);
#304=ORIENTED_EDGE('',*,*,#232,.T.);
#305=ORIENTED_EDGE('',*,*,#233,.F.);
#306=ORIENTED_EDGE('',*,*,#217,.F.);
#307=ORIENTED_EDGE('',*,*,#227,.F.);
#308=ORIENTED_EDGE('',*,*,#234,.T.);
#309=ORIENTED_EDGE('',*,*,#235,.F.);
#310=ORIENTED_EDGE('',*,*,#232,.F.);
#311=ORIENTED_EDGE('',*,*,#224,.F.);
#312=ORIENTED_EDGE('',*,*,#206,.T.);
#313=ORIENTED_EDGE('',*,*,#236,.F.);
#314=ORIENTED_EDGE('',*,*,#234,.F.);
#315=ORIENTED_EDGE('',*,*,#237,.T.);
#316=ORIENTED_EDGE('',*,*,#238,.T.);
#317=ORIENTED_EDGE('',*,*,#239,.T.);
#318=ORIENTED_EDGE('',*,*,#208,.F.);
#319=ORIENTED_EDGE('',*,*,#215,.T.);
#320=ORIENTED_EDGE('',*,*,#240,.T.);
#321=ORIENTED_EDGE('',*,*,#241,.T.);
#322=ORIENTED_EDGE('',*,*,#237,.F.);
#323=ORIENTED_EDGE('',*,*,#233,.T.);
#324=ORIENTED_EDGE('',*,*,#242,.T.);
#325=ORIENTED_EDGE('',*,*,#243,.T.);
#326=ORIENTED_EDGE('',*,*,#240,.F.);
#327=ORIENTED_EDGE('',*,*,#235,.T.);
#328=ORIENTED_EDGE('',*,*,#244,.T.);
#329=ORIENTED_EDGE('',*,*,#245,.T.);
#330=ORIENTED_EDGE('',*,*,#242,.F.);
#331=ORIENTED_EDGE('',*,*,#236,.T.);
#332=ORIENTED_EDGE('',*,*,#246,.T.);
#333=ORIENTED_EDGE('',*,*,#244,.F.);
#334=ORIENTED_EDGE('',*,*,#205,.T.);
#335=ORIENTED_EDGE('',*,*,#202,.F.);
#336=ORIENTED_EDGE('',*,*,#218,.F.);
#337=ORIENTED_EDGE('',*,*,#247,.F.);
#338=ORIENTED_EDGE('',*,*,#207,.F.);
#339=ORIENTED_EDGE('',*,*,#247,.T.);
#340=ORIENTED_EDGE('',*,*,#201,.F.);
#341=ORIENTED_EDGE('',*,*,#248,.T.);
#342=ORIENTED_EDGE('',*,*,#209,.F.);
#343=ORIENTED_EDGE('',*,*,#239,.F.);
#344=ORIENTED_EDGE('',*,*,#249,.F.);
#345=ORIENTED_EDGE('',*,*,#198,.F.);
#346=ORIENTED_EDGE('',*,*,#221,.F.);
#347=ORIENTED_EDGE('',*,*,#250,.F.);
#348=ORIENTED_EDGE('',*,*,#212,.F.);
#349=ORIENTED_EDGE('',*,*,#248,.F.);
#350=ORIENTED_EDGE('',*,*,#231,.F.);
#351=ORIENTED_EDGE('',*,*,#250,.T.);
#352=ORIENTED_EDGE('',*,*,#220,.F.);
#353=ORIENTED_EDGE('',*,*,#223,.F.);
#354=ORIENTED_EDGE('',*,*,#226,.F.);
#355=ORIENTED_EDGE('',*,*,#229,.F.);
#356=ORIENTED_EDGE('',*,*,#251,.T.);
#357=ORIENTED_EDGE('',*,*,#246,.F.);
#358=ORIENTED_EDGE('',*,*,#249,.T.);
#359=ORIENTED_EDGE('',*,*,#238,.F.);
#360=ORIENTED_EDGE('',*,*,#241,.F.);
#361=ORIENTED_EDGE('',*,*,#243,.F.);
#362=ORIENTED_EDGE('',*,*,#245,.F.);
#363=ORIENTED_EDGE('',*,*,#252,.T.);
#364=ORIENTED_EDGE('',*,*,#251,.F.);
#365=ORIENTED_EDGE('',*,*,#253,.T.);
#366=ORIENTED_EDGE('',*,*,#252,.F.);
#367=ORIENTED_EDGE('',*,*,#253,.F.);
#368=B_SPLINE_SURFACE_WITH_KNOTS('',3,3,((#552,#553,#554,#555,#556,#557,
#558,#559,#560),(#561,#562,#563,#564,#565,#566,#567,#568,#569),(#570,#571,
#572,#573,#574,#575,#576,#577,#578),(#579,#580,#581,#582,#583,#584,#585,
#586,#587)),.UNSPECIFIED.,.F.,.F.,.F.,(4,4),(4,1,1,1,1,1,4),(0.,1.),(-0.00587963531617468,
0.275380901375945,0.556641438068065,0.837901974760184,1.40042304814442,
1.68168358483654,1.96294412152866),.UNSPECIFIED.);
#369=B_SPLINE_SURFACE_WITH_KNOTS('',3,3,((#631,#632,#633,#634,#635,#636),
(#637,#638,#639,#640,#641,#642),(#643,#644,#645,#646,#647,#648),(#649,#650,
#651,#652,#653,#654)),.UNSPECIFIED.,.F.,.F.,.F.,(4,4),(4,1,1,4),(0.,1.),
(0.120162448645698,0.650594380394595,1.00421566822719,1.35783695605979),
 .UNSPECIFIED.);
#370=B_SPLINE_SURFACE_WITH_KNOTS('',3,3,((#739,#740,#741,#742,#743,#744,
#745),(#746,#747,#748,#749,#750,#751,#752),(#753,#754,#755,#756,#757,#758,
#759),(#760,#761,#762,#763,#764,#765,#766)),.UNSPECIFIED.,.F.,.F.,.F.,(4,
4),(4,1,1,1,4),(0.,1.),(-0.0142805158288453,0.427714620064048,0.648712188010495,
1.09070732390339,1.53270245979628),.UNSPECIFIED.);
#371=B_SPLINE_SURFACE_WITH_KNOTS('',3,3,((#806,#807,#808,#809,#810,#811,
#812),(#813,#814,#815,#816,#817,#818,#819),(#820,#821,#822,#823,#824,#825,
#826),(#827,#828,#829,#830,#831,#832,#833)),.UNSPECIFIED.,.F.,.F.,.F.,(4,
4),(4,1,1,1,4),(0.,1.),(0.120157056957447,0.594505589922261,1.06885412288707,
1.30602838936948,1.7803769223343),.UNSPECIFIED.);
#372=B_SPLINE_SURFACE_WITH_KNOTS('',3,3,((#981,#982,#983,#984),(#985,#986,
#987,#988),(#989,#990,#991,#992),(#993,#994,#995,#996),(#997,#998,#999,
#1000),(#1001,#1002,#1003,#1004),(#1005,#1006,#1007,#1008),(#1009,#1010,
#1011,#1012),(#1013,#1014,#1015,#1016),(#1017,#1018,#1019,#1020),(#1021,
#1022,#1023,#1024),(#1025,#1026,#1027,#1028)),.UNSPECIFIED.,.T.,.F.,.F.,
(4,1,1,1,1,1,1,1,1,4),(4,4),(-3.14159265358979,-2.69279370307697,-2.24399475256414,
-1.34639685153848,-0.448798950512828,0.448798950512828,1.34639685153848,
2.24399475256414,2.69279370307697,3.14159265358979),(2.97239346340196,3.31081257048514),
 .UNSPECIFIED.);
#373=B_SPLINE_SURFACE_WITH_KNOTS('',3,3,((#1033,#1034,#1035,#1036),(#1037,
#1038,#1039,#1040),(#1041,#1042,#1043,#1044),(#1045,#1046,#1047,#1048),
(#1049,#1050,#1051,#1052),(#1053,#1054,#1055,#1056),(#1057,#1058,#1059,
#1060)),.UNSPECIFIED.,.F.,.F.,.F.,(4,1,1,1,4),(4,4),(0.931345824858944,
1.24709537182089,1.87859446574477,2.51009355966866,3.14159265359254),(3.00531673707479,
3.3017318429852),.UNSPECIFIED.);
#374=B_SPLINE_SURFACE_WITH_KNOTS('',3,3,((#1102,#1103,#1104,#1105),(#1106,
#1107,#1108,#1109),(#1110,#1111,#1112,#1113),(#1114,#1115,#1116,#1117),
(#1118,#1119,#1120,#1121),(#1122,#1123,#1124,#1125),(#1126,#1127,#1128,
#1129)),.UNSPECIFIED.,.F.,.F.,.F.,(4,1,1,1,4),(4,4),(-3.14159265359,-2.73200162550706,
-1.9128195693412,-1.09363751317533,-0.27445545700947),(2.98142808356256,
3.27787899315228),.UNSPECIFIED.);
#375=ADVANCED_FACE('',(#59),#368,.T.);
#376=ADVANCED_FACE('',(#60),#369,.T.);
#377=ADVANCED_FACE('',(#61,#51),#55,.T.);
#378=ADVANCED_FACE('',(#62),#370,.T.);
#379=ADVANCED_FACE('',(#63),#371,.T.);
#380=ADVANCED_FACE('',(#64,#52),#56,.T.);
#381=ADVANCED_FACE('',(#65),#43,.T.);
#382=ADVANCED_FACE('',(#66),#15,.T.);
#383=ADVANCED_FACE('',(#67),#16,.T.);
#384=ADVANCED_FACE('',(#68),#17,.T.);
#385=ADVANCED_FACE('',(#69),#44,.T.);
#386=ADVANCED_FACE('',(#70),#45,.F.);
#387=ADVANCED_FACE('',(#71),#46,.T.);
#388=ADVANCED_FACE('',(#72),#47,.F.);
#389=ADVANCED_FACE('',(#73),#48,.T.);
#390=ADVANCED_FACE('',(#74),#18,.T.);
#391=ADVANCED_FACE('',(#75),#19,.T.);
#392=ADVANCED_FACE('',(#76),#20,.T.);
#393=ADVANCED_FACE('',(#77),#49,.T.);
#394=ADVANCED_FACE('',(#78),#372,.F.);
#395=ADVANCED_FACE('',(#79),#373,.T.);
#396=ADVANCED_FACE('',(#80),#374,.T.);
#397=ADVANCED_FACE('',(#81,#53),#57,.F.);
#398=ADVANCED_FACE('',(#82,#54),#58,.T.);
#399=ADVANCED_FACE('',(#83),#50,.F.);
#400=CLOSED_SHELL('',(#375,#376,#377,#378,#379,#380,#381,#382,#383,#384,
#385,#386,#387,#388,#389,#390,#391,#392,#393,#394,#395,#396,#397,#398,#399));
#401=DERIVED_UNIT_ELEMENT(#403,1.);
#402=DERIVED_UNIT_ELEMENT(#1177,-3.);
#403=(
MASS_UNIT()
NAMED_UNIT(*)
SI_UNIT(.KILO.,.GRAM.)
);
#404=DERIVED_UNIT((#401,#402));
#405=MEASURE_REPRESENTATION_ITEM('density measure',
POSITIVE_RATIO_MEASURE(7850.),#404);
#406=PROPERTY_DEFINITION_REPRESENTATION(#411,#408);
#407=PROPERTY_DEFINITION_REPRESENTATION(#412,#409);
#408=REPRESENTATION('material name',(#410),#1174);
#409=REPRESENTATION('density',(#405),#1174);
#410=DESCRIPTIVE_REPRESENTATION_ITEM('Stahl','Stahl');
#411=PROPERTY_DEFINITION('material property','material name',#1184);
#412=PROPERTY_DEFINITION('material property','density of part',#1184);
#413=AXIS2_PLACEMENT_3D('',#551,#454,#455);
#414=AXIS2_PLACEMENT_3D('',#693,#457,#458);
#415=AXIS2_PLACEMENT_3D('',#874,#463,#464);
#416=AXIS2_PLACEMENT_3D('',#920,#468,#469);
#417=AXIS2_PLACEMENT_3D('',#922,#470,#471);
#418=AXIS2_PLACEMENT_3D('',#929,#473,#474);
#419=AXIS2_PLACEMENT_3D('',#932,#475,#476);
#420=AXIS2_PLACEMENT_3D('',#933,#477,#478);
#421=AXIS2_PLACEMENT_3D('',#934,#479,#480);
#422=AXIS2_PLACEMENT_3D('',#935,#481,#482);
#423=AXIS2_PLACEMENT_3D('',#938,#483,#484);
#424=AXIS2_PLACEMENT_3D('',#939,#485,#486);
#425=AXIS2_PLACEMENT_3D('',#940,#487,#488);
#426=AXIS2_PLACEMENT_3D('',#941,#489,#490);
#427=AXIS2_PLACEMENT_3D('',#943,#491,#492);
#428=AXIS2_PLACEMENT_3D('',#944,#493,#494);
#429=AXIS2_PLACEMENT_3D('',#945,#495,#496);
#430=AXIS2_PLACEMENT_3D('',#946,#497,#498);
#431=AXIS2_PLACEMENT_3D('',#948,#500,#501);
#432=AXIS2_PLACEMENT_3D('',#951,#503,#504);
#433=AXIS2_PLACEMENT_3D('',#952,#505,#506);
#434=AXIS2_PLACEMENT_3D('',#955,#508,#509);
#435=AXIS2_PLACEMENT_3D('',#956,#510,#511);
#436=AXIS2_PLACEMENT_3D('',#957,#512,#513);
#437=AXIS2_PLACEMENT_3D('',#958,#514,#515);
#438=AXIS2_PLACEMENT_3D('',#960,#516,#517);
#439=AXIS2_PLACEMENT_3D('',#967,#519,#520);
#440=AXIS2_PLACEMENT_3D('',#969,#521,#522);
#441=AXIS2_PLACEMENT_3D('',#970,#523,#524);
#442=AXIS2_PLACEMENT_3D('',#971,#525,#526);
#443=AXIS2_PLACEMENT_3D('',#973,#527,#528);
#444=AXIS2_PLACEMENT_3D('',#974,#529,#530);
#445=AXIS2_PLACEMENT_3D('',#975,#531,#532);
#446=AXIS2_PLACEMENT_3D('',#977,#533,#534);
#447=AXIS2_PLACEMENT_3D('',#978,#535,#536);
#448=AXIS2_PLACEMENT_3D('',#979,#537,#538);
#449=AXIS2_PLACEMENT_3D('',#1164,#540,#541);
#450=AXIS2_PLACEMENT_3D('',#1166,#542,#543);
#451=AXIS2_PLACEMENT_3D('',#1167,#544,#545);
#452=AXIS2_PLACEMENT_3D('',#1169,#546,#547);
#453=AXIS2_PLACEMENT_3D('',#1170,#548,#549);
#454=DIRECTION('axis',(0.,0.,1.));
#455=DIRECTION('refdir',(1.,0.,0.));
#456=DIRECTION('',(0.719342087107221,0.650738751165732,-0.243076200907228));
#457=DIRECTION('center_axis',(1.58603289232165E-16,1.,0.));
#458=DIRECTION('ref_axis',(1.,-1.58603289232165E-16,0.));
#459=DIRECTION('',(1.,-1.58603289232165E-16,0.));
#460=DIRECTION('',(-1.,1.58603289232165E-16,0.));
#461=DIRECTION('',(0.,0.,1.));
#462=DIRECTION('',(0.701371510527691,-0.673416532684051,-0.233641130214474));
#463=DIRECTION('center_axis',(1.26882631385732E-16,-1.,0.));
#464=DIRECTION('ref_axis',(-1.,-1.26882631385732E-16,0.));
#465=DIRECTION('',(1.,1.26882631385732E-16,0.));
#466=DIRECTION('',(-1.,-1.26882631385732E-16,0.));
#467=DIRECTION('',(0.,0.,1.));
#468=DIRECTION('center_axis',(1.,-1.58603289232165E-16,0.));
#469=DIRECTION('ref_axis',(0.,0.707106781186548,-0.707106781186548));
#470=DIRECTION('center_axis',(-1.,0.,0.));
#471=DIRECTION('ref_axis',(0.,1.,0.));
#472=DIRECTION('',(-1.,1.58603289232165E-16,0.));
#473=DIRECTION('center_axis',(0.,0.,1.));
#474=DIRECTION('ref_axis',(1.,0.,0.));
#475=DIRECTION('center_axis',(-0.717884130982366,-0.696162606352634,0.));
#476=DIRECTION('ref_axis',(-0.696162606352634,0.717884130982366,0.));
#477=DIRECTION('center_axis',(0.,0.,-1.));
#478=DIRECTION('ref_axis',(0.375576802410394,-0.926791273961502,0.));
#479=DIRECTION('center_axis',(0.,0.,1.));
#480=DIRECTION('ref_axis',(0.375576802410394,-0.926791273961502,0.));
#481=DIRECTION('center_axis',(0.,0.,-1.));
#482=DIRECTION('ref_axis',(1.,-1.22464679914735E-16,0.));
#483=DIRECTION('center_axis',(0.717884130982369,-0.696162606352631,0.));
#484=DIRECTION('ref_axis',(-0.696162606352631,-0.71788413098237,0.));
#485=DIRECTION('center_axis',(0.,0.,1.));
#486=DIRECTION('ref_axis',(1.,-1.69069496135811E-16,0.));
#487=DIRECTION('center_axis',(0.,0.,-1.));
#488=DIRECTION('ref_axis',(1.,-1.69069496135811E-16,0.));
#489=DIRECTION('center_axis',(0.,0.,1.));
#490=DIRECTION('ref_axis',(1.,0.,0.));
#491=DIRECTION('center_axis',(1.,4.44089209850062E-15,0.));
#492=DIRECTION('ref_axis',(4.44089209850062E-15,-1.,0.));
#493=DIRECTION('center_axis',(0.,0.,-1.));
#494=DIRECTION('ref_axis',(0.375576802410394,0.926791273961502,0.));
#495=DIRECTION('center_axis',(0.,0.,1.));
#496=DIRECTION('ref_axis',(0.375576802410394,0.926791273961502,0.));
#497=DIRECTION('center_axis',(-1.,-1.26882631385732E-16,0.));
#498=DIRECTION('ref_axis',(0.,-0.707106781186547,-0.707106781186548));
#499=DIRECTION('',(1.,1.26882631385732E-16,0.));
#500=DIRECTION('center_axis',(0.,0.,-1.));
#501=DIRECTION('ref_axis',(0.696162606352633,0.717884130982367,0.));
#502=DIRECTION('',(0.,0.,1.));
#503=DIRECTION('center_axis',(0.,0.,-1.));
#504=DIRECTION('ref_axis',(0.375576802410394,0.926791273961502,0.));
#505=DIRECTION('center_axis',(0.,0.,-1.));
#506=DIRECTION('ref_axis',(1.,5.63564987119369E-17,0.));
#507=DIRECTION('',(0.,0.,1.));
#508=DIRECTION('center_axis',(0.,0.,1.));
#509=DIRECTION('ref_axis',(1.,-1.69069496135811E-16,0.));
#510=DIRECTION('center_axis',(0.,0.,-1.));
#511=DIRECTION('ref_axis',(8.88178419700124E-16,-1.,0.));
#512=DIRECTION('center_axis',(0.,0.,-1.));
#513=DIRECTION('ref_axis',(0.375576802410394,-0.926791273961502,0.));
#514=DIRECTION('center_axis',(1.,1.26882631385732E-16,0.));
#515=DIRECTION('ref_axis',(0.,-0.707106781186548,0.707106781186547));
#516=DIRECTION('center_axis',(-1.,0.,0.));
#517=DIRECTION('ref_axis',(0.,-1.,0.));
#518=DIRECTION('',(-1.,-1.26882631385732E-16,0.));
#519=DIRECTION('center_axis',(0.,0.,-1.));
#520=DIRECTION('ref_axis',(-1.,0.,0.));
#521=DIRECTION('center_axis',(-0.71788413098237,0.696162606352631,0.));
#522=DIRECTION('ref_axis',(-0.696162606352631,-0.71788413098237,0.));
#523=DIRECTION('center_axis',(0.,0.,1.));
#524=DIRECTION('ref_axis',(0.375576802410394,0.926791273961502,0.));
#525=DIRECTION('center_axis',(0.,0.,1.));
#526=DIRECTION('ref_axis',(1.,0.,0.));
#527=DIRECTION('center_axis',(0.717884130982364,0.696162606352637,0.));
#528=DIRECTION('ref_axis',(-0.696162606352637,0.717884130982364,0.));
#529=DIRECTION('center_axis',(0.,0.,-1.));
#530=DIRECTION('ref_axis',(1.,-1.69069496135811E-16,0.));
#531=DIRECTION('center_axis',(0.,0.,-1.));
#532=DIRECTION('ref_axis',(-1.,0.,0.));
#533=DIRECTION('center_axis',(1.,0.,0.));
#534=DIRECTION('ref_axis',(0.,1.,0.));
#535=DIRECTION('center_axis',(0.,0.,1.));
#536=DIRECTION('ref_axis',(0.375576802410394,-0.926791273961502,0.));
#537=DIRECTION('center_axis',(-1.,1.58603289232165E-16,0.));
#538=DIRECTION('ref_axis',(0.,0.707106781186549,0.707106781186546));
#539=DIRECTION('',(1.,-1.58603289232165E-16,0.));
#540=DIRECTION('center_axis',(0.,0.,1.));
#541=DIRECTION('ref_axis',(1.,0.,0.));
#542=DIRECTION('center_axis',(0.,0.,1.));
#543=DIRECTION('ref_axis',(1.,0.,0.));
#544=DIRECTION('center_axis',(0.,0.,1.));
#545=DIRECTION('ref_axis',(1.,0.,0.));
#546=DIRECTION('center_axis',(0.,0.,-1.));
#547=DIRECTION('ref_axis',(1.,0.,0.));
#548=DIRECTION('center_axis',(0.,0.,-1.));
#549=DIRECTION('ref_axis',(1.,0.,0.));
#550=DIRECTION('',(0.,0.,1.));
#551=CARTESIAN_POINT('',(0.,0.,0.));
#552=CARTESIAN_POINT('Ctrl Pts',(-60.5853575019727,7.51178591473296,19.4356700129529));
#553=CARTESIAN_POINT('Ctrl Pts',(-60.8852465352534,7.51059621724569,18.5242092617716));
#554=CARTESIAN_POINT('Ctrl Pts',(-61.0697045330583,7.50699236073421,16.571413348816));
#555=CARTESIAN_POINT('Ctrl Pts',(-60.0892584011208,7.5015584210547,13.8324423375338));
#556=CARTESIAN_POINT('Ctrl Pts',(-57.4139476397667,7.4980631732611,11.0549404694205));
#557=CARTESIAN_POINT('Ctrl Pts',(-53.4555285894852,7.50664701330997,10.3731072623907));
#558=CARTESIAN_POINT('Ctrl Pts',(-50.1053474007669,7.51832235121161,12.0294012880786));
#559=CARTESIAN_POINT('Ctrl Pts',(-48.9261291247236,7.52012947042319,13.4454269175652));
#560=CARTESIAN_POINT('Ctrl Pts',(-48.507600613501,7.51964303023584,14.2503687220561));
#561=CARTESIAN_POINT('Ctrl Pts',(-60.2212257202957,7.84119060982197,19.3126245639154));
#562=CARTESIAN_POINT('Ctrl Pts',(-60.5056153358384,7.8403974781638,18.4550286281567));
#563=CARTESIAN_POINT('Ctrl Pts',(-60.6867907390571,7.83799490715614,16.6157693116708));
#564=CARTESIAN_POINT('Ctrl Pts',(-59.775717594215,7.83437228070313,14.0215662002878));
#565=CARTESIAN_POINT('Ctrl Pts',(-57.2589091348653,7.8320421155074,11.3671957420242));
#566=CARTESIAN_POINT('Ctrl Pts',(-53.4891981551937,7.83776467553998,10.6822074915701));
#567=CARTESIAN_POINT('Ctrl Pts',(-50.2754696114853,7.84554823414108,12.249273683916));
#568=CARTESIAN_POINT('Ctrl Pts',(-49.1450805279571,7.84675298028212,13.6028591484411));
#569=CARTESIAN_POINT('Ctrl Pts',(-48.7453436756478,7.84642868682389,14.3731791482035));
#570=CARTESIAN_POINT('Ctrl Pts',(-59.8570939386187,8.17059530491099,19.189579114878));
#571=CARTESIAN_POINT('Ctrl Pts',(-60.1259841364233,8.1701987390819,18.3858479945418));
#572=CARTESIAN_POINT('Ctrl Pts',(-60.3038769450558,8.16899745357807,16.6601252745256));
#573=CARTESIAN_POINT('Ctrl Pts',(-59.4621767873093,8.16718614035157,14.2106900630418));
#574=CARTESIAN_POINT('Ctrl Pts',(-57.103870629964,8.1660210577537,11.679451014628));
#575=CARTESIAN_POINT('Ctrl Pts',(-53.5228677209023,8.16888233776999,10.9913077207495));
#576=CARTESIAN_POINT('Ctrl Pts',(-50.4455918222039,8.17277411707054,12.4691460797534));
#577=CARTESIAN_POINT('Ctrl Pts',(-49.3640319311907,8.17337649014106,13.760291379317));
#578=CARTESIAN_POINT('Ctrl Pts',(-48.9830867377946,8.17321434341195,14.4959895743509));
#579=CARTESIAN_POINT('Ctrl Pts',(-59.4929621569417,8.5,19.0665336658406));
#580=CARTESIAN_POINT('Ctrl Pts',(-59.7463529370082,8.5,18.3166673609269));
#581=CARTESIAN_POINT('Ctrl Pts',(-59.9209631510545,8.5,16.7044812373805));
#582=CARTESIAN_POINT('Ctrl Pts',(-59.1486359804035,8.5,14.3998139257958));
#583=CARTESIAN_POINT('Ctrl Pts',(-56.9488321250627,8.5,11.9917062872318));
#584=CARTESIAN_POINT('Ctrl Pts',(-53.5565372866108,8.5,11.3004079499288));
#585=CARTESIAN_POINT('Ctrl Pts',(-50.6157140329223,8.5,12.6890184755909));
#586=CARTESIAN_POINT('Ctrl Pts',(-49.5829833344243,8.5,13.9177236101929));
#587=CARTESIAN_POINT('Ctrl Pts',(-49.2208297999414,8.5,14.6188000004982));
#588=CARTESIAN_POINT('',(-49.2208297999414,8.5,14.6188000004982));
#589=CARTESIAN_POINT('',(-48.8836143935178,7.51974259331633,13.6189949039892));
#590=CARTESIAN_POINT('Ctrl Pts',(-48.8836143935178,7.51974259331634,13.6189949039892));
#591=CARTESIAN_POINT('Ctrl Pts',(-48.9041602675967,7.54081698661128,13.6194110482736));
#592=CARTESIAN_POINT('Ctrl Pts',(-48.9245019898191,7.56210716021511,13.6204980548569));
#593=CARTESIAN_POINT('Ctrl Pts',(-49.0574793919231,7.70442565862397,13.6324339594017));
#594=CARTESIAN_POINT('Ctrl Pts',(-49.1541715738628,7.82321976237201,13.6643745696127));
#595=CARTESIAN_POINT('Ctrl Pts',(-49.2811844337989,8.01536513365761,13.7571895881513));
#596=CARTESIAN_POINT('Ctrl Pts',(-49.3243725582713,8.0950010778248,13.8088789632212));
#597=CARTESIAN_POINT('Ctrl Pts',(-49.3755837772472,8.23248414029196,13.9327242607474));
#598=CARTESIAN_POINT('Ctrl Pts',(-49.3869317079278,8.28920931218774,13.9983793063536));
#599=CARTESIAN_POINT('Ctrl Pts',(-49.3846400592398,8.38488701121874,14.1449615124129));
#600=CARTESIAN_POINT('Ctrl Pts',(-49.3714496821385,8.42192907486691,14.2224387554039));
#601=CARTESIAN_POINT('Ctrl Pts',(-49.3262664372738,8.47566636468053,14.3833903920008));
#602=CARTESIAN_POINT('Ctrl Pts',(-49.2943518629039,8.49145019414036,14.4654959716745));
#603=CARTESIAN_POINT('Ctrl Pts',(-49.2503180530165,8.49834268399513,14.5595997525225));
#604=CARTESIAN_POINT('Ctrl Pts',(-49.243669622503,8.49906281657166,14.5733908094842));
#605=CARTESIAN_POINT('Ctrl Pts',(-49.2336117137557,8.49970610009664,14.5936822226841));
#606=CARTESIAN_POINT('Ctrl Pts',(-49.2303205035736,8.4998490346371,14.6002354532322));
#607=CARTESIAN_POINT('Ctrl Pts',(-49.2249529431599,8.49997596462907,14.6107876889879));
#608=CARTESIAN_POINT('Ctrl Pts',(-49.2228975869647,8.500000000002,14.6147970665962));
#609=CARTESIAN_POINT('Ctrl Pts',(-49.2208297999414,8.5,14.6188000004982));
#610=CARTESIAN_POINT('',(-60.5853575019727,7.51178591473295,19.4356700129529));
#611=CARTESIAN_POINT('Ctrl Pts',(-48.8839814828184,7.51974016669222,13.6192437736403));
#612=CARTESIAN_POINT('Ctrl Pts',(-49.254279446607,7.51956672495457,13.073037477601));
#613=CARTESIAN_POINT('Ctrl Pts',(-50.3319712803999,7.51753256993643,11.9173608470486));
#614=CARTESIAN_POINT('Ctrl Pts',(-53.4555285894852,7.50664701330997,10.3731072623907));
#615=CARTESIAN_POINT('Ctrl Pts',(-57.4139476397667,7.4980631732611,11.0549404694205));
#616=CARTESIAN_POINT('Ctrl Pts',(-60.0892584011208,7.5015584210547,13.8324423375338));
#617=CARTESIAN_POINT('Ctrl Pts',(-61.0697045330583,7.50699236073421,16.571413348816));
#618=CARTESIAN_POINT('Ctrl Pts',(-60.8852465352534,7.51059621724569,18.5242092617716));
#619=CARTESIAN_POINT('Ctrl Pts',(-60.5853575019727,7.51178591473296,19.4356700129529));
#620=CARTESIAN_POINT('',(-59.4929621569417,8.5,19.0665336658406));
#621=CARTESIAN_POINT('',(-60.5853575019727,7.51178591473295,19.4356700129529));
#622=CARTESIAN_POINT('Ctrl Pts',(-59.4929621569417,8.5,19.0665336658406));
#623=CARTESIAN_POINT('Ctrl Pts',(-59.7463529370082,8.5,18.3166673609269));
#624=CARTESIAN_POINT('Ctrl Pts',(-59.9209631510545,8.5,16.7044812373805));
#625=CARTESIAN_POINT('Ctrl Pts',(-59.1486359804035,8.5,14.3998139257958));
#626=CARTESIAN_POINT('Ctrl Pts',(-56.9488321250627,8.5,11.9917062872318));
#627=CARTESIAN_POINT('Ctrl Pts',(-53.5565372866108,8.5,11.3004079499288));
#628=CARTESIAN_POINT('Ctrl Pts',(-50.6157140329223,8.5,12.6890184755909));
#629=CARTESIAN_POINT('Ctrl Pts',(-49.5829833344243,8.5,13.9177236101929));
#630=CARTESIAN_POINT('Ctrl Pts',(-49.2208297999414,8.5,14.6188000004982));
#631=CARTESIAN_POINT('Ctrl Pts',(-50.3096808766954,7.50001714370319,22.4147391817928));
#632=CARTESIAN_POINT('Ctrl Pts',(-51.6918572236677,7.49971596280118,23.5133565720876));
#633=CARTESIAN_POINT('Ctrl Pts',(-54.7768063037297,7.50674718172892,24.3945896219819));
#634=CARTESIAN_POINT('Ctrl Pts',(-58.7990399829709,7.51438548979427,22.6482391460484));
#635=CARTESIAN_POINT('Ctrl Pts',(-60.2085807730986,7.51328063537244,20.5808175916098));
#636=CARTESIAN_POINT('Ctrl Pts',(-60.5853575019727,7.51178591473295,19.4356700129529));
#637=CARTESIAN_POINT('Ctrl Pts',(-50.5082323148686,7.83334476246879,22.1494261203709));
#638=CARTESIAN_POINT('Ctrl Pts',(-51.8312709676127,7.83314397520079,23.1823725832867));
#639=CARTESIAN_POINT('Ctrl Pts',(-54.7575107421789,7.83783145448595,23.9898347606178));
#640=CARTESIAN_POINT('Ctrl Pts',(-58.5369737324044,7.84292365986285,22.3326396643773));
#641=CARTESIAN_POINT('Ctrl Pts',(-59.8639222607536,7.8421870902483,20.3900970804526));
#642=CARTESIAN_POINT('Ctrl Pts',(-60.2212257202957,7.84119060982197,19.3126245639154));
#643=CARTESIAN_POINT('Ctrl Pts',(-50.7067837530417,8.1666723812344,21.8841130589489));
#644=CARTESIAN_POINT('Ctrl Pts',(-51.9706847115577,8.1665719876004,22.8513885944859));
#645=CARTESIAN_POINT('Ctrl Pts',(-54.7382151806281,8.16891572724298,23.5850798992537));
#646=CARTESIAN_POINT('Ctrl Pts',(-58.274907481838,8.17146182993143,22.0170401827063));
#647=CARTESIAN_POINT('Ctrl Pts',(-59.5192637484087,8.17109354512415,20.1993765692955));
#648=CARTESIAN_POINT('Ctrl Pts',(-59.8570939386187,8.17059530491099,19.189579114878));
#649=CARTESIAN_POINT('Ctrl Pts',(-50.9053351912149,8.5,21.618799997527));
#650=CARTESIAN_POINT('Ctrl Pts',(-52.1100984555027,8.5,22.5204046056851));
#651=CARTESIAN_POINT('Ctrl Pts',(-54.7189196190772,8.5,23.1803250378896));
#652=CARTESIAN_POINT('Ctrl Pts',(-58.0128412312715,8.50000000000001,21.7014407010352));
#653=CARTESIAN_POINT('Ctrl Pts',(-59.1746052360637,8.5,20.0086560581383));
#654=CARTESIAN_POINT('Ctrl Pts',(-59.4929621569417,8.5,19.0665336658406));
#655=CARTESIAN_POINT('',(-50.5801567476148,7.49999999999999,22.6188));
#656=CARTESIAN_POINT('Ctrl Pts',(-60.5853575019727,7.51178591473295,19.4356700129529));
#657=CARTESIAN_POINT('Ctrl Pts',(-60.2085807730986,7.51328063537244,20.5808175916098));
#658=CARTESIAN_POINT('Ctrl Pts',(-58.7990399829709,7.51438548979427,22.6482391460484));
#659=CARTESIAN_POINT('Ctrl Pts',(-54.8870268147799,7.5069564928445,24.3467347091946));
#660=CARTESIAN_POINT('Ctrl Pts',(-51.9282468923779,7.50025313477654,23.5778388145523));
#661=CARTESIAN_POINT('Ctrl Pts',(-50.5804167269926,7.50001347790917,22.6184347623048));
#662=CARTESIAN_POINT('',(-50.9053351912149,8.5,21.618799997527));
#663=CARTESIAN_POINT('Ctrl Pts',(-50.9053351912149,8.5,21.618799997527));
#664=CARTESIAN_POINT('Ctrl Pts',(-50.9071087981396,8.50000000000328,21.6201273057367));
#665=CARTESIAN_POINT('Ctrl Pts',(-50.9088815476314,8.4999973573808,21.6214556551883));
#666=CARTESIAN_POINT('Ctrl Pts',(-50.9210782588693,8.49996089043568,21.6306065598737));
#667=CARTESIAN_POINT('Ctrl Pts',(-50.9314776682501,8.49983778764449,21.6384679129607));
#668=CARTESIAN_POINT('Ctrl Pts',(-50.9572514963137,8.49929616947106,21.6581084439336));
#669=CARTESIAN_POINT('Ctrl Pts',(-50.9726016856159,8.49876262803892,21.6699457690316));
#670=CARTESIAN_POINT('Ctrl Pts',(-51.0237037748143,8.49623926184529,21.7098771695607));
#671=CARTESIAN_POINT('Ctrl Pts',(-51.059278677579,8.49324194750664,21.7385408439672));
#672=CARTESIAN_POINT('Ctrl Pts',(-51.1668024299,8.47965517132504,21.8287930287236));
#673=CARTESIAN_POINT('Ctrl Pts',(-51.2397244304678,8.46378169292343,21.8951453163332));
#674=CARTESIAN_POINT('Ctrl Pts',(-51.3560081205219,8.41694231238067,22.022861969571));
#675=CARTESIAN_POINT('Ctrl Pts',(-51.4061918005048,8.38625086501595,22.0886016685222));
#676=CARTESIAN_POINT('Ctrl Pts',(-51.4530994473683,8.31899055820496,22.1945311162443));
#677=CARTESIAN_POINT('Ctrl Pts',(-51.4628595604293,8.29017982791434,22.2337286223063));
#678=CARTESIAN_POINT('Ctrl Pts',(-51.4617091900212,8.22935934478075,22.3042765879527));
#679=CARTESIAN_POINT('Ctrl Pts',(-51.4536230750684,8.2001422512647,22.3339480398772));
#680=CARTESIAN_POINT('Ctrl Pts',(-51.4212070603223,8.13257554164381,22.3949487261816));
#681=CARTESIAN_POINT('Ctrl Pts',(-51.3939389421687,8.09506954925311,22.4236425408602));
#682=CARTESIAN_POINT('Ctrl Pts',(-51.308523789821,7.99806566250167,22.4890614901124));
#683=CARTESIAN_POINT('Ctrl Pts',(-51.2390424756333,7.93796035271804,22.5197141830844));
#684=CARTESIAN_POINT('Ctrl Pts',(-51.0154472139391,7.76383518728478,22.5920581884646));
#685=CARTESIAN_POINT('Ctrl Pts',(-50.8100178888417,7.6333178820654,22.6187989522363));
#686=CARTESIAN_POINT('Ctrl Pts',(-50.5801568415926,7.50000785936994,22.6187999999691));
#687=CARTESIAN_POINT('Ctrl Pts',(-50.9053351912149,8.5,21.618799997527));
#688=CARTESIAN_POINT('Ctrl Pts',(-52.1100984555027,8.5,22.5204046056851));
#689=CARTESIAN_POINT('Ctrl Pts',(-54.7189196190772,8.5,23.1803250378896));
#690=CARTESIAN_POINT('Ctrl Pts',(-58.0128412312715,8.50000000000001,21.7014407010352));
#691=CARTESIAN_POINT('Ctrl Pts',(-59.1746052360637,8.5,20.0086560581383));
#692=CARTESIAN_POINT('Ctrl Pts',(-59.4929621569417,8.5,19.0665336658406));
#693=CARTESIAN_POINT('Origin',(-54.2106643475248,8.5,18.1188));
#694=CARTESIAN_POINT('',(-27.6376554721995,8.50000000000001,14.6188));
#695=CARTESIAN_POINT('',(-35.8985821737624,8.5,14.6188));
#696=CARTESIAN_POINT('',(-27.6376554721995,8.50000000000001,21.6188));
#697=CARTESIAN_POINT('',(-35.8985821737624,8.5,21.6188));
#698=CARTESIAN_POINT('',(-27.6376554721995,8.50000000000001,18.1188));
#699=CARTESIAN_POINT('',(-57.8176677457126,8.49999999999942,18.4386080344725));
#700=CARTESIAN_POINT('Ctrl Pts',(-57.8176677457124,8.5,18.4386080344724));
#701=CARTESIAN_POINT('Ctrl Pts',(-57.9130324018783,8.5,18.1472420388133));
#702=CARTESIAN_POINT('Ctrl Pts',(-57.9720968560689,8.50000000000063,17.8445327149473));
#703=CARTESIAN_POINT('Ctrl Pts',(-58.0268172696764,8.50000000000063,17.0521122904808));
#704=CARTESIAN_POINT('Ctrl Pts',(-57.965366504643,8.50000000000548,16.5652014548129));
#705=CARTESIAN_POINT('Ctrl Pts',(-57.6597560457252,8.50000000000548,15.6331111174967));
#706=CARTESIAN_POINT('Ctrl Pts',(-57.415485615827,8.50000000001753,15.1975826648796));
#707=CARTESIAN_POINT('Ctrl Pts',(-56.7713794160816,8.50000000001753,14.4370135949806));
#708=CARTESIAN_POINT('Ctrl Pts',(-56.3750319358014,8.5000000000302,14.1205323329492));
#709=CARTESIAN_POINT('Ctrl Pts',(-55.4819976680332,8.5000000000302,13.6551262856341));
#710=CARTESIAN_POINT('Ctrl Pts',(-54.9925458116174,8.50000000002703,13.5112421921368));
#711=CARTESIAN_POINT('Ctrl Pts',(-53.9906428911133,8.50000000002703,13.4211637475935));
#712=CARTESIAN_POINT('Ctrl Pts',(-53.487448486483,8.50000000001131,13.4743194148658));
#713=CARTESIAN_POINT('Ctrl Pts',(-52.540233200048,8.50000000001131,13.7713802185018));
#714=CARTESIAN_POINT('Ctrl Pts',(-52.1045442495287,8.50000000000867,14.0089293055238));
#715=CARTESIAN_POINT('Ctrl Pts',(-51.3583785124013,8.50000000000867,14.6349065802024));
#716=CARTESIAN_POINT('Ctrl Pts',(-51.0534844816352,8.50000000000168,15.0138607838164));
#717=CARTESIAN_POINT('Ctrl Pts',(-50.6086832040171,8.50000000000168,15.8656541266837));
#718=CARTESIAN_POINT('Ctrl Pts',(-50.4722902909347,8.49999999999999,16.3286785212992));
#719=CARTESIAN_POINT('Ctrl Pts',(-50.3819623882527,8.49999999999999,17.2868069167106));
#720=CARTESIAN_POINT('Ctrl Pts',(-50.4308017559397,8.50000000001018,17.7724098403126));
#721=CARTESIAN_POINT('Ctrl Pts',(-50.710848962372,8.50000000001018,18.7098236879564));
#722=CARTESIAN_POINT('Ctrl Pts',(-50.9434719611981,8.50000000003151,19.1519157280232));
#723=CARTESIAN_POINT('Ctrl Pts',(-51.5679455077647,8.50000000003151,19.9319294735219));
#724=CARTESIAN_POINT('Ctrl Pts',(-51.9574705591408,8.4999999999968,20.2608929760956));
#725=CARTESIAN_POINT('Ctrl Pts',(-52.8413631786655,8.4999999999968,20.7522195425633));
#726=CARTESIAN_POINT('Ctrl Pts',(-53.3285333804503,8.49999999997417,20.90958818299));
#727=CARTESIAN_POINT('Ctrl Pts',(-54.3288570056084,8.49999999997417,21.0250811936956));
#728=CARTESIAN_POINT('Ctrl Pts',(-54.8322994445646,8.49999999998981,20.9845790696937));
#729=CARTESIAN_POINT('Ctrl Pts',(-55.5785734057881,8.49999999998981,20.7705573787107));
#730=CARTESIAN_POINT('Ctrl Pts',(-55.8348109883361,8.49999999999999,20.6653849237435));
#731=CARTESIAN_POINT('Ctrl Pts',(-56.3198693376168,8.49999999999999,20.3999568367147));
#732=CARTESIAN_POINT('Ctrl Pts',(-56.5470148941058,8.50000000000001,20.2404688935033));
#733=CARTESIAN_POINT('Ctrl Pts',(-56.7542876311649,8.50000000000001,20.0570937279621));
#734=CARTESIAN_POINT('Ctrl Pts',(-57.115304829416,8.50000000000001,19.7377001143502));
#735=CARTESIAN_POINT('Ctrl Pts',(-57.4101216622945,8.49999999999999,19.3510654365197));
#736=CARTESIAN_POINT('Ctrl Pts',(-57.6988811440026,8.49999999999999,18.7628483933016));
#737=CARTESIAN_POINT('Ctrl Pts',(-57.7640180573646,8.5,18.6025230056027));
#738=CARTESIAN_POINT('Ctrl Pts',(-57.8176677457124,8.5,18.4386080344724));
#739=CARTESIAN_POINT('Ctrl Pts',(-60.5275377991153,-7.5043357920257,21.0183357585022));
#740=CARTESIAN_POINT('Ctrl Pts',(-60.0281350119829,-7.50164158742551,22.4262556500412));
#741=CARTESIAN_POINT('Ctrl Pts',(-58.5467886611922,-7.49882010117735,24.2379823764335));
#742=CARTESIAN_POINT('Ctrl Pts',(-55.1287387665129,-7.50220266193484,25.6730410100029));
#743=CARTESIAN_POINT('Ctrl Pts',(-51.3459681533263,-7.51396763818037,25.3125448020627));
#744=CARTESIAN_POINT('Ctrl Pts',(-49.1609707323679,-7.52033161580485,23.2520607719971));
#745=CARTESIAN_POINT('Ctrl Pts',(-48.5033696388468,-7.51955984578976,21.9874222642223));
#746=CARTESIAN_POINT('Ctrl Pts',(-60.1818723376799,-7.83622386135047,20.9031875554833));
#747=CARTESIAN_POINT('Ctrl Pts',(-59.7173286616665,-7.83442772495034,22.2368786932159));
#748=CARTESIAN_POINT('Ctrl Pts',(-58.3269081651338,-7.83254673411823,23.9651856221901));
#749=CARTESIAN_POINT('Ctrl Pts',(-55.0848291251663,-7.83480177462323,25.3575906906848));
#750=CARTESIAN_POINT('Ctrl Pts',(-51.4682360781932,-7.84264509212025,25.0415602617675));
#751=CARTESIAN_POINT('Ctrl Pts',(-49.3692896504955,-7.8468877438699,23.0747813296334));
#752=CARTESIAN_POINT('Ctrl Pts',(-48.7412351126338,-7.84637323052651,21.8645481756115));
#753=CARTESIAN_POINT('Ctrl Pts',(-59.8362068762446,-8.16811193067524,20.7880393524645));
#754=CARTESIAN_POINT('Ctrl Pts',(-59.40652231135,-8.16721386247517,22.0475017363907));
#755=CARTESIAN_POINT('Ctrl Pts',(-58.1070276690754,-8.16627336705912,23.6923888679468));
#756=CARTESIAN_POINT('Ctrl Pts',(-55.0409194838198,-8.16740088731162,25.0421403713667));
#757=CARTESIAN_POINT('Ctrl Pts',(-51.5905040030601,-8.17132254606013,24.7705757214723));
#758=CARTESIAN_POINT('Ctrl Pts',(-49.577608568623,-8.17344387193495,22.8975018872698));
#759=CARTESIAN_POINT('Ctrl Pts',(-48.9791005864208,-8.17318661526326,21.7416740870007));
#760=CARTESIAN_POINT('Ctrl Pts',(-59.4905414148092,-8.5,20.6728911494457));
#761=CARTESIAN_POINT('Ctrl Pts',(-59.0957159610336,-8.5,21.8581247795654));
#762=CARTESIAN_POINT('Ctrl Pts',(-57.887147173017,-8.5,23.4195921137034));
#763=CARTESIAN_POINT('Ctrl Pts',(-54.9970098424732,-8.50000000000001,24.7266900520486));
#764=CARTESIAN_POINT('Ctrl Pts',(-51.7127719279271,-8.5,24.4995911811772));
#765=CARTESIAN_POINT('Ctrl Pts',(-49.7859274867506,-8.5,22.7202224449062));
#766=CARTESIAN_POINT('Ctrl Pts',(-49.2169660602077,-8.5,21.61879999839));
#767=CARTESIAN_POINT('',(-49.2169660602077,-8.5,21.61879999839));
#768=CARTESIAN_POINT('',(-48.8792815655588,-7.51966511244664,22.6186066229789));
#769=CARTESIAN_POINT('Ctrl Pts',(-48.8792815655588,-7.51966511244664,22.6186066229789));
#770=CARTESIAN_POINT('Ctrl Pts',(-48.9023630225344,-7.54332968499451,22.6181411664902));
#771=CARTESIAN_POINT('Ctrl Pts',(-48.9251896624155,-7.56726884262641,22.6168297776425));
#772=CARTESIAN_POINT('Ctrl Pts',(-49.0514464829368,-7.70308156511426,22.6043606093927));
#773=CARTESIAN_POINT('Ctrl Pts',(-49.149921340051,-7.82220731022014,22.5745061712654));
#774=CARTESIAN_POINT('Ctrl Pts',(-49.279758762743,-8.01995654833488,22.477625867809));
#775=CARTESIAN_POINT('Ctrl Pts',(-49.3222737545309,-8.09907714062811,22.4256679874761));
#776=CARTESIAN_POINT('Ctrl Pts',(-49.3724530852174,-8.23574356314592,22.3013835288275));
#777=CARTESIAN_POINT('Ctrl Pts',(-49.3833446990777,-8.29213449029861,22.2354695253984));
#778=CARTESIAN_POINT('Ctrl Pts',(-49.3802288383844,-8.386952202973,22.0887168547855));
#779=CARTESIAN_POINT('Ctrl Pts',(-49.3667313420447,-8.42354323720282,22.0113223660026));
#780=CARTESIAN_POINT('Ctrl Pts',(-49.3219629995851,-8.47552142980827,21.8536174307489));
#781=CARTESIAN_POINT('Ctrl Pts',(-49.2913883636056,-8.49081143336468,21.7746839432444));
#782=CARTESIAN_POINT('Ctrl Pts',(-49.2487437830735,-8.49805772299839,21.6827987731675));
#783=CARTESIAN_POINT('Ctrl Pts',(-49.2417686677904,-8.49888220482523,21.6682404764475));
#784=CARTESIAN_POINT('Ctrl Pts',(-49.2309777362674,-8.4996470721316,21.6463737872165));
#785=CARTESIAN_POINT('Ctrl Pts',(-49.2272891297719,-8.49982274210467,21.6390094186931));
#786=CARTESIAN_POINT('Ctrl Pts',(-49.2213750805972,-8.49997250463347,21.6273701113993));
#787=CARTESIAN_POINT('Ctrl Pts',(-49.2191776855092,-8.5000000000069,21.623081367266));
#788=CARTESIAN_POINT('Ctrl Pts',(-49.2169660602077,-8.5,21.6187999983899));
#789=CARTESIAN_POINT('',(-60.5275377991153,-7.50433579202571,21.0183357585022));
#790=CARTESIAN_POINT('Ctrl Pts',(-48.8801039525315,-7.51962344276782,22.6180476521749));
#791=CARTESIAN_POINT('Ctrl Pts',(-49.5429714774982,-7.51921458740706,23.593323462697));
#792=CARTESIAN_POINT('Ctrl Pts',(-51.6061956458839,-7.5131582921794,25.3373443561096));
#793=CARTESIAN_POINT('Ctrl Pts',(-55.1287387665129,-7.50220266193484,25.6730410100029));
#794=CARTESIAN_POINT('Ctrl Pts',(-58.5467886611922,-7.49882010117735,24.2379823764335));
#795=CARTESIAN_POINT('Ctrl Pts',(-60.0281350119829,-7.50164158742551,22.4262556500412));
#796=CARTESIAN_POINT('Ctrl Pts',(-60.5275377991153,-7.5043357920257,21.0183357585022));
#797=CARTESIAN_POINT('',(-59.4905414148092,-8.5,20.6728911494457));
#798=CARTESIAN_POINT('',(-60.5275377991153,-7.50433579202571,21.0183357585022));
#799=CARTESIAN_POINT('Ctrl Pts',(-59.4905414148092,-8.5,20.6728911494457));
#800=CARTESIAN_POINT('Ctrl Pts',(-59.0957159610336,-8.5,21.8581247795654));
#801=CARTESIAN_POINT('Ctrl Pts',(-57.887147173017,-8.5,23.4195921137034));
#802=CARTESIAN_POINT('Ctrl Pts',(-54.9970098424732,-8.50000000000001,24.7266900520486));
#803=CARTESIAN_POINT('Ctrl Pts',(-51.7127719279271,-8.5,24.4995911811772));
#804=CARTESIAN_POINT('Ctrl Pts',(-49.7859274867506,-8.5,22.7202224449062));
#805=CARTESIAN_POINT('Ctrl Pts',(-49.2169660602077,-8.5,21.61879999839));
#806=CARTESIAN_POINT('Ctrl Pts',(-50.3052999720918,-7.50001677410204,13.8228222327082));
#807=CARTESIAN_POINT('Ctrl Pts',(-51.5413676523066,-7.4997507510859,12.8403847536784));
#808=CARTESIAN_POINT('Ctrl Pts',(-54.7666179429748,-7.50659887213067,11.7609300473629));
#809=CARTESIAN_POINT('Ctrl Pts',(-58.7114764268993,-7.51439426444542,13.4990571254416));
#810=CARTESIAN_POINT('Ctrl Pts',(-60.9928615810279,-7.51247691659865,16.9344877318435));
#811=CARTESIAN_POINT('Ctrl Pts',(-61.0630735294526,-7.50722492854119,19.5085496163356));
#812=CARTESIAN_POINT('Ctrl Pts',(-60.5275377991153,-7.5043357920257,21.0183357585022));
#813=CARTESIAN_POINT('Ctrl Pts',(-50.5038695311814,-7.83334451606803,14.0881481551388));
#814=CARTESIAN_POINT('Ctrl Pts',(-51.6870284650454,-7.8331671673906,13.1644295465523));
#815=CARTESIAN_POINT('Ctrl Pts',(-54.7492219186655,-7.83773258142045,12.1706281640568));
#816=CARTESIAN_POINT('Ctrl Pts',(-58.4541164085068,-7.84292950963028,13.8198836083448));
#817=CARTESIAN_POINT('Ctrl Pts',(-60.602455076695,-7.84165127773243,17.0486142119922));
#818=CARTESIAN_POINT('Ctrl Pts',(-60.6800268198285,-7.8381499523608,19.4730007886226));
#819=CARTESIAN_POINT('Ctrl Pts',(-60.1818723376799,-7.83622386135047,20.9031875554833));
#820=CARTESIAN_POINT('Ctrl Pts',(-50.7024390902711,-8.16667225803402,14.3534740775694));
#821=CARTESIAN_POINT('Ctrl Pts',(-51.8326892777842,-8.1665835836953,13.4884743394263));
#822=CARTESIAN_POINT('Ctrl Pts',(-54.7318258943561,-8.16886629071023,12.5803262807507));
#823=CARTESIAN_POINT('Ctrl Pts',(-58.1967563901143,-8.17146475481514,14.140710091248));
#824=CARTESIAN_POINT('Ctrl Pts',(-60.2120485723622,-8.17082563886622,17.1627406921409));
#825=CARTESIAN_POINT('Ctrl Pts',(-60.2969801102043,-8.1690749761804,19.4374519609097));
#826=CARTESIAN_POINT('Ctrl Pts',(-59.8362068762446,-8.16811193067524,20.7880393524645));
#827=CARTESIAN_POINT('Ctrl Pts',(-50.9010086493607,-8.5,14.6188));
#828=CARTESIAN_POINT('Ctrl Pts',(-51.9783500905231,-8.5,13.8125191323002));
#829=CARTESIAN_POINT('Ctrl Pts',(-54.7144298700468,-8.5,12.9900243974445));
#830=CARTESIAN_POINT('Ctrl Pts',(-57.9393963717217,-8.50000000000001,14.4615365741512));
#831=CARTESIAN_POINT('Ctrl Pts',(-59.8216420680293,-8.50000000000001,17.2768671722897));
#832=CARTESIAN_POINT('Ctrl Pts',(-59.9139334005801,-8.5,19.4019031331967));
#833=CARTESIAN_POINT('Ctrl Pts',(-59.4905414148092,-8.5,20.6728911494457));
#834=CARTESIAN_POINT('',(-50.5757355370102,-7.49999999999999,13.6188));
#835=CARTESIAN_POINT('Ctrl Pts',(-60.5275377991153,-7.5043357920257,21.0183357585022));
#836=CARTESIAN_POINT('Ctrl Pts',(-61.0630735294526,-7.50722492854119,19.5085496163356));
#837=CARTESIAN_POINT('Ctrl Pts',(-60.9928615810279,-7.51247691659865,16.9344877318435));
#838=CARTESIAN_POINT('Ctrl Pts',(-58.7114764268993,-7.51439426444542,13.4990571254416));
#839=CARTESIAN_POINT('Ctrl Pts',(-54.879378574629,-7.50682169719904,11.8106130228152));
#840=CARTESIAN_POINT('Ctrl Pts',(-51.7717571136187,-7.50023934020935,12.7663996474398));
#841=CARTESIAN_POINT('Ctrl Pts',(-50.5759150814902,-7.50001487266603,13.619051813781));
#842=CARTESIAN_POINT('',(-50.9010086493607,-8.5,14.6188));
#843=CARTESIAN_POINT('Ctrl Pts',(-50.9010086493607,-8.5,14.6188));
#844=CARTESIAN_POINT('Ctrl Pts',(-50.9037382992561,-8.5,14.6167571337349));
#845=CARTESIAN_POINT('Ctrl Pts',(-50.906465972602,-8.49999374001516,14.6147117599781));
#846=CARTESIAN_POINT('Ctrl Pts',(-50.9188152123936,-8.49993680488838,14.6054331775577));
#847=CARTESIAN_POINT('Ctrl Pts',(-50.9284167657718,-8.49981379119574,14.5981684676261));
#848=CARTESIAN_POINT('Ctrl Pts',(-50.9531350690676,-8.4992873805349,14.5793268410582));
#849=CARTESIAN_POINT('Ctrl Pts',(-50.9682240235037,-8.49876203487923,14.5676897972024));
#850=CARTESIAN_POINT('Ctrl Pts',(-51.0200630248866,-8.49621233658987,14.5271878915671));
#851=CARTESIAN_POINT('Ctrl Pts',(-51.0566241655405,-8.4931041445901,14.4977096707397));
#852=CARTESIAN_POINT('Ctrl Pts',(-51.1702690269387,-8.47849701987809,14.4021171274968));
#853=CARTESIAN_POINT('Ctrl Pts',(-51.2488036433439,-8.46068442512731,14.3301206215484));
#854=CARTESIAN_POINT('Ctrl Pts',(-51.3636472805098,-8.40974756223461,14.199106451299));
#855=CARTESIAN_POINT('Ctrl Pts',(-51.4090969187879,-8.37924816763167,14.1365526091261));
#856=CARTESIAN_POINT('Ctrl Pts',(-51.4511274598567,-8.31304172820452,14.0347536821468));
#857=CARTESIAN_POINT('Ctrl Pts',(-51.4593785726434,-8.28441691901042,13.9966327857162));
#858=CARTESIAN_POINT('Ctrl Pts',(-51.4562087772428,-8.22372586424563,13.9273689190451));
#859=CARTESIAN_POINT('Ctrl Pts',(-51.4471375799084,-8.19424426244532,13.8979321713344));
#860=CARTESIAN_POINT('Ctrl Pts',(-51.4124139616183,-8.12560697983277,13.8369644470809));
#861=CARTESIAN_POINT('Ctrl Pts',(-51.3834667461576,-8.08721837627052,13.8081823043719));
#862=CARTESIAN_POINT('Ctrl Pts',(-51.2928801608689,-7.98719496009417,13.7422122199225));
#863=CARTESIAN_POINT('Ctrl Pts',(-51.2190430234624,-7.92481346139314,13.7115055090777));
#864=CARTESIAN_POINT('Ctrl Pts',(-50.9940870191851,-7.75311423652758,13.643411568046));
#865=CARTESIAN_POINT('Ctrl Pts',(-50.7962913529144,-7.62791253584209,13.6188010297346));
#866=CARTESIAN_POINT('Ctrl Pts',(-50.5757356329284,-7.50000805055547,13.6188000000324));
#867=CARTESIAN_POINT('Ctrl Pts',(-50.9010086493607,-8.5,14.6188));
#868=CARTESIAN_POINT('Ctrl Pts',(-51.9783500905231,-8.5,13.8125191323002));
#869=CARTESIAN_POINT('Ctrl Pts',(-54.7144298700468,-8.5,12.9900243974445));
#870=CARTESIAN_POINT('Ctrl Pts',(-57.9393963717217,-8.50000000000001,14.4615365741512));
#871=CARTESIAN_POINT('Ctrl Pts',(-59.8216420680293,-8.50000000000001,17.2768671722897));
#872=CARTESIAN_POINT('Ctrl Pts',(-59.9139334005801,-8.5,19.4019031331967));
#873=CARTESIAN_POINT('Ctrl Pts',(-59.4905414148092,-8.5,20.6728911494457));
#874=CARTESIAN_POINT('Origin',(-27.6376554721995,-8.5,18.1188));
#875=CARTESIAN_POINT('',(-27.6376554721995,-8.5,21.6188));
#876=CARTESIAN_POINT('',(-22.6120777360998,-8.5,21.6188));
#877=CARTESIAN_POINT('',(-27.6376554721995,-8.5,14.6188));
#878=CARTESIAN_POINT('',(-22.6120777360998,-8.5,14.6188));
#879=CARTESIAN_POINT('',(-27.6376554721995,-8.5,18.1188));
#880=CARTESIAN_POINT('',(-57.7759780870179,-8.4999999999782,20.2320011869969));
#881=CARTESIAN_POINT('Ctrl Pts',(-57.7759780870136,-8.5,20.2320011869954));
#882=CARTESIAN_POINT('Ctrl Pts',(-57.7202266210885,-8.5,20.3876910163541));
#883=CARTESIAN_POINT('Ctrl Pts',(-57.6543508233775,-8.5,20.5397000244126));
#884=CARTESIAN_POINT('Ctrl Pts',(-57.5787861040393,-8.5,20.6870603016166));
#885=CARTESIAN_POINT('Ctrl Pts',(-57.3515952981206,-8.5,21.1301096562839));
#886=CARTESIAN_POINT('Ctrl Pts',(-57.0400557010868,-8.50000000002379,21.5248772808721));
#887=CARTESIAN_POINT('Ctrl Pts',(-56.2805830248622,-8.50000000002379,22.1784136174253));
#888=CARTESIAN_POINT('Ctrl Pts',(-55.8377466977478,-8.50000000003229,22.4297427614335));
#889=CARTESIAN_POINT('Ctrl Pts',(-54.8813378880902,-8.50000000003229,22.7484853535747));
#890=CARTESIAN_POINT('Ctrl Pts',(-54.3761389528051,-8.50000000002128,22.8130109748675));
#891=CARTESIAN_POINT('Ctrl Pts',(-53.3768942956113,-8.50000000002128,22.7425841207738));
#892=CARTESIAN_POINT('Ctrl Pts',(-52.8920844682006,-8.50000000000971,22.610783485692));
#893=CARTESIAN_POINT('Ctrl Pts',(-52.0113990437007,-8.50000000000971,22.1694773204514));
#894=CARTESIAN_POINT('Ctrl Pts',(-51.6228155205636,-8.50000000000668,21.8679966647211));
#895=CARTESIAN_POINT('Ctrl Pts',(-50.9901731946954,-8.50000000000668,21.1362265101352));
#896=CARTESIAN_POINT('Ctrl Pts',(-50.7506743783228,-8.50000000000014,20.7157744276871));
#897=CARTESIAN_POINT('Ctrl Pts',(-50.4460257610426,-8.50000000000014,19.8058171773502));
#898=CARTESIAN_POINT('Ctrl Pts',(-50.3840041621783,-8.50000000000078,19.3259422695334));
#899=CARTESIAN_POINT('Ctrl Pts',(-50.4446008044457,-8.50000000000078,18.3602785000808));
#900=CARTESIAN_POINT('Ctrl Pts',(-50.5696474813882,-8.50000000002062,17.8840411126503));
#901=CARTESIAN_POINT('Ctrl Pts',(-50.9960799504729,-8.50000000002062,16.9938622090228));
#902=CARTESIAN_POINT('Ctrl Pts',(-51.2976340669042,-8.50000000001982,16.5895966242334));
#903=CARTESIAN_POINT('Ctrl Pts',(-52.0416827566769,-8.50000000001982,15.9128674463892));
#904=CARTESIAN_POINT('Ctrl Pts',(-52.4798012085026,-8.49999999997882,15.6481786826579));
#905=CARTESIAN_POINT('Ctrl Pts',(-53.4306180280997,-8.49999999997882,15.3033245495023));
#906=CARTESIAN_POINT('Ctrl Pts',(-53.9346498001695,-8.49999999997831,15.2256603316726));
#907=CARTESIAN_POINT('Ctrl Pts',(-54.9346653809906,-8.49999999997831,15.2712379189422));
#908=CARTESIAN_POINT('Ctrl Pts',(-55.4210223835739,-8.4999999999952,15.390675274518));
#909=CARTESIAN_POINT('Ctrl Pts',(-56.3101959416204,-8.4999999999952,15.8089238856944));
#910=CARTESIAN_POINT('Ctrl Pts',(-56.7053547717099,-8.49999999999982,16.0999929105959));
#911=CARTESIAN_POINT('Ctrl Pts',(-57.3569981357714,-8.49999999999982,16.8152789861548));
#912=CARTESIAN_POINT('Ctrl Pts',(-57.6081629164972,-8.50000000000002,17.230582655228));
#913=CARTESIAN_POINT('Ctrl Pts',(-57.9380616287526,-8.50000000000002,18.1356316136917));
#914=CARTESIAN_POINT('Ctrl Pts',(-58.0130962946691,-8.50000000000131,18.616237649259));
#915=CARTESIAN_POINT('Ctrl Pts',(-57.9848336618794,-8.50000000000131,19.3743363218872));
#916=CARTESIAN_POINT('Ctrl Pts',(-57.9440751353523,-8.50000000000006,19.6485531806628));
#917=CARTESIAN_POINT('Ctrl Pts',(-57.8458326696706,-8.50000000000006,20.0227179484738));
#918=CARTESIAN_POINT('Ctrl Pts',(-57.8131564695864,-8.5,20.1281779790754));
#919=CARTESIAN_POINT('Ctrl Pts',(-57.7759780870136,-8.5,20.2320011869954));
#920=CARTESIAN_POINT('Origin',(-35.8985821737624,7.5,14.6188));
#921=CARTESIAN_POINT('',(-27.6376554721995,7.5,13.6188));
#922=CARTESIAN_POINT('Origin',(-27.6376554721995,7.5,14.6188));
#923=CARTESIAN_POINT('',(-48.8883417943756,7.49999999999998,13.6188));
#924=CARTESIAN_POINT('',(-35.8985821737624,7.5,13.6188));
#925=CARTESIAN_POINT('Ctrl Pts',(-48.8836143935178,7.51974259331629,13.6189949039892));
#926=CARTESIAN_POINT('Ctrl Pts',(-48.8852320618955,7.51317487964966,13.6188652209381));
#927=CARTESIAN_POINT('Ctrl Pts',(-48.8868081375461,7.50659378920999,13.6188000090629));
#928=CARTESIAN_POINT('Ctrl Pts',(-48.8883418064577,7.50000000899958,13.6188000235388));
#929=CARTESIAN_POINT('Origin',(-27.6376554721995,28.5,14.6188));
#930=CARTESIAN_POINT('',(-13.7144033451469,14.1423173803526,14.6188));
#931=CARTESIAN_POINT('',(-13.0182407387942,13.4244332493703,13.6188));
#932=CARTESIAN_POINT('Origin',(-13.0182407387942,13.4244332493703,14.6188));
#933=CARTESIAN_POINT('Origin',(-27.6376554721995,28.5,13.6188));
#934=CARTESIAN_POINT('Origin',(-27.6376554721995,28.5,14.6188));
#935=CARTESIAN_POINT('Origin',(0.,0.,14.6188));
#936=CARTESIAN_POINT('',(-13.7144033451469,-14.1423173803526,14.6188));
#937=CARTESIAN_POINT('',(-13.0182407387942,-13.4244332493703,13.6188));
#938=CARTESIAN_POINT('Origin',(-13.0182407387942,-13.4244332493703,14.6188));
#939=CARTESIAN_POINT('Origin',(0.,0.,13.6188));
#940=CARTESIAN_POINT('Origin',(0.,0.,14.6188));
#941=CARTESIAN_POINT('Origin',(-27.6376554721995,-28.5,14.6188));
#942=CARTESIAN_POINT('',(-27.6376554721995,-7.5,13.6188));
#943=CARTESIAN_POINT('Origin',(-27.6376554721995,-7.5,14.6188));
#944=CARTESIAN_POINT('Origin',(-27.6376554721995,-28.5,13.6188));
#945=CARTESIAN_POINT('Origin',(-27.6376554721995,-28.5,14.6188));
#946=CARTESIAN_POINT('Origin',(-22.6120777360998,-7.5,14.6188));
#947=CARTESIAN_POINT('',(-22.6120777360998,-7.5,13.6188));
#948=CARTESIAN_POINT('Origin',(-27.6376554721995,-28.5,18.1188));
#949=CARTESIAN_POINT('',(-13.7144033451469,-14.1423173803526,21.6188));
#950=CARTESIAN_POINT('',(-13.7144033451469,-14.1423173803526,18.1188));
#951=CARTESIAN_POINT('Origin',(-27.6376554721995,-28.5,21.6188));
#952=CARTESIAN_POINT('Origin',(0.,0.,18.1188));
#953=CARTESIAN_POINT('',(-13.7144033451469,14.1423173803526,21.6188));
#954=CARTESIAN_POINT('',(-13.7144033451469,14.1423173803526,18.1188));
#955=CARTESIAN_POINT('Origin',(0.,0.,21.6188));
#956=CARTESIAN_POINT('Origin',(-27.6376554721995,28.5,18.1188));
#957=CARTESIAN_POINT('Origin',(-27.6376554721995,28.5,21.6188));
#958=CARTESIAN_POINT('Origin',(-22.6120777360998,-7.5,21.6188));
#959=CARTESIAN_POINT('',(-27.6376554721995,-7.5,22.6188));
#960=CARTESIAN_POINT('Origin',(-27.6376554721995,-7.5,21.6188));
#961=CARTESIAN_POINT('',(-48.8839836187873,-7.49999999999998,22.6188));
#962=CARTESIAN_POINT('',(-22.6120777360998,-7.5,22.6188));
#963=CARTESIAN_POINT('Ctrl Pts',(-48.8792815655588,-7.51966511244664,22.6186066229789));
#964=CARTESIAN_POINT('Ctrl Pts',(-48.8808904427883,-7.51312310949161,22.6187352911727));
#965=CARTESIAN_POINT('Ctrl Pts',(-48.8824580571515,-7.50656784381512,22.6188000029205));
#966=CARTESIAN_POINT('Ctrl Pts',(-48.8839836093266,-7.49999999526843,22.6188000077955));
#967=CARTESIAN_POINT('Origin',(-27.6376554721995,-28.5,21.6188));
#968=CARTESIAN_POINT('',(-13.0182407387942,-13.4244332493703,22.6188));
#969=CARTESIAN_POINT('Origin',(-13.0182407387942,-13.4244332493703,21.6188));
#970=CARTESIAN_POINT('Origin',(-27.6376554721995,-28.5,22.6188));
#971=CARTESIAN_POINT('Origin',(0.,0.,21.6188));
#972=CARTESIAN_POINT('',(-13.0182407387942,13.4244332493703,22.6188));
#973=CARTESIAN_POINT('Origin',(-13.0182407387942,13.4244332493703,21.6188));
#974=CARTESIAN_POINT('Origin',(0.,0.,22.6188));
#975=CARTESIAN_POINT('Origin',(-27.6376554721995,28.5,21.6188));
#976=CARTESIAN_POINT('',(-27.6376554721995,7.50000000000001,22.6188));
#977=CARTESIAN_POINT('Origin',(-27.6376554721995,7.50000000000001,21.6188));
#978=CARTESIAN_POINT('Origin',(-27.6376554721995,28.5,22.6188));
#979=CARTESIAN_POINT('Origin',(-35.8985821737624,7.5,21.6188));
#980=CARTESIAN_POINT('',(-35.8985821737624,7.5,22.6188));
#981=CARTESIAN_POINT('Ctrl Pts',(-57.5884891733558,9.95787392372896,18.283440374022));
#982=CARTESIAN_POINT('Ctrl Pts',(-58.695396270142,3.45858390089432,18.9765672324929));
#983=CARTESIAN_POINT('Ctrl Pts',(-58.6872430117246,-3.21176026783395,19.6681445344489));
#984=CARTESIAN_POINT('Ctrl Pts',(-57.5847690683441,-9.70085751182217,20.3597778658875));
#985=CARTESIAN_POINT('Ctrl Pts',(-57.7669838415576,9.93163466167122,17.7522429694292));
#986=CARTESIAN_POINT('Ctrl Pts',(-58.8772675959363,3.41263094727252,18.4474784057199));
#987=CARTESIAN_POINT('Ctrl Pts',(-58.8692895437638,-3.27654380327568,19.1410187321574));
#988=CARTESIAN_POINT('Ctrl Pts',(-57.7631281174087,-9.78712303758596,19.8349294717988));
#989=CARTESIAN_POINT('Ctrl Pts',(-57.8813599875405,9.82986789757534,16.6151320238692));
#990=CARTESIAN_POINT('Ctrl Pts',(-58.9933318014594,3.30119022212117,17.311402731417));
#991=CARTESIAN_POINT('Ctrl Pts',(-58.9858004394152,-3.40281919942469,18.0064956934869));
#992=CARTESIAN_POINT('Ctrl Pts',(-57.8771947560378,-9.92731211602633,18.7018824719817));
#993=CARTESIAN_POINT('Ctrl Pts',(-57.1287799507931,9.47226802860483,14.4635098181941));
#994=CARTESIAN_POINT('Ctrl Pts',(-58.2257589909001,3.03206980185001,15.150319601288));
#995=CARTESIAN_POINT('Ctrl Pts',(-58.2193345623383,-3.58588536746895,15.8364270442097));
#996=CARTESIAN_POINT('Ctrl Pts',(-57.1239596048124,-10.0315972849901,16.523467014718));
#997=CARTESIAN_POINT('Ctrl Pts',(-54.5313909868591,8.86211553215644,12.8900885576558));
#998=CARTESIAN_POINT('Ctrl Pts',(-55.5778112581301,2.71909549876107,13.5451181519711));
#999=CARTESIAN_POINT('Ctrl Pts',(-55.5727497581773,-3.60862705823842,14.2009340993231));
#1000=CARTESIAN_POINT('Ctrl Pts',(-54.5259448163901,-9.76778587184578,14.8576060783143));
#1001=CARTESIAN_POINT('Ctrl Pts',(-51.0712429136411,8.41281114044094,14.2032792145248));
#1002=CARTESIAN_POINT('Ctrl Pts',(-52.0515177488684,2.65787978178187,14.8168045647328));
#1003=CARTESIAN_POINT('Ctrl Pts',(-52.046837429784,-3.2811004138447,15.4320430635687));
#1004=CARTESIAN_POINT('Ctrl Pts',(-51.0659155809302,-9.05300427251893,16.047670690562));
#1005=CARTESIAN_POINT('Ctrl Pts',(-49.8870630713526,8.58708680463054,17.7292335683718));
#1006=CARTESIAN_POINT('Ctrl Pts',(-50.8455706136954,2.95921999855258,18.3291680317311));
#1007=CARTESIAN_POINT('Ctrl Pts',(-50.8397277508292,-2.84738881772436,18.9305907315182));
#1008=CARTESIAN_POINT('Ctrl Pts',(-49.8826359889035,-8.48049893007196,19.5315040751237));
#1009=CARTESIAN_POINT('Ctrl Pts',(-51.8674318970917,9.25380798944595,20.818762174353));
#1010=CARTESIAN_POINT('Ctrl Pts',(-52.8650011535338,3.39594930377417,21.4432907653356));
#1011=CARTESIAN_POINT('Ctrl Pts',(-52.8573281670303,-2.63258746335311,22.0678773101124));
#1012=CARTESIAN_POINT('Ctrl Pts',(-51.8640100018648,-8.48022629835725,22.6915233437121));
#1013=CARTESIAN_POINT('Ctrl Pts',(-54.9054492697611,9.79887075990153,21.0779164087234));
#1014=CARTESIAN_POINT('Ctrl Pts',(-55.961592844295,3.59704528611487,21.7392297238116));
#1015=CARTESIAN_POINT('Ctrl Pts',(-55.9529856536438,-2.7719807878408,22.399355230187));
#1016=CARTESIAN_POINT('Ctrl Pts',(-54.9023175842718,-8.95730693114681,23.0587902794352));
#1017=CARTESIAN_POINT('Ctrl Pts',(-56.812958443986,9.98691209136807,19.7945464502155));
#1018=CARTESIAN_POINT('Ctrl Pts',(-57.9053750376755,3.57238520017309,20.478607530909));
#1019=CARTESIAN_POINT('Ctrl Pts',(-57.8967989264151,-3.01118700899733,21.1611281686848));
#1020=CARTESIAN_POINT('Ctrl Pts',(-56.8096049403743,-9.41097341405162,21.8432941231136));
#1021=CARTESIAN_POINT('Ctrl Pts',(-57.409994505154,9.9841131857867,18.8146377786148));
#1022=CARTESIAN_POINT('Ctrl Pts',(-58.5136688537053,3.50369139763531,19.5057464735548));
#1023=CARTESIAN_POINT('Ctrl Pts',(-58.5053361350598,-3.14615366132932,20.1951831076891));
#1024=CARTESIAN_POINT('Ctrl Pts',(-57.4064100192795,-9.61459198605838,20.8846262599761));
#1025=CARTESIAN_POINT('Ctrl Pts',(-57.5884891733558,9.95787392372896,18.283440374022));
#1026=CARTESIAN_POINT('Ctrl Pts',(-58.695396270142,3.45858390089432,18.9765672324929));
#1027=CARTESIAN_POINT('Ctrl Pts',(-58.6872430117246,-3.21176026783395,19.6681445344489));
#1028=CARTESIAN_POINT('Ctrl Pts',(-57.5847690683441,-9.70085751182217,20.3597778658875));
#1029=CARTESIAN_POINT('Ctrl Pts',(-57.817695635876,8.50000945052991,18.4386021628264));
#1030=CARTESIAN_POINT('Ctrl Pts',(-58.6301588505332,2.86566495837848,19.0371222672066));
#1031=CARTESIAN_POINT('Ctrl Pts',(-58.6118042204046,-2.87668944043519,19.6345756168776));
#1032=CARTESIAN_POINT('Ctrl Pts',(-57.7759982519018,-8.4999992911002,20.2319969956752));
#1033=CARTESIAN_POINT('Ctrl Pts',(-49.0567962453947,7.12843398274734,21.0734751018719));
#1034=CARTESIAN_POINT('Ctrl Pts',(-49.7183067821879,2.27361515363398,21.5882467629953));
#1035=CARTESIAN_POINT('Ctrl Pts',(-49.6550967331336,-2.68782656804609,22.1038827438199));
#1036=CARTESIAN_POINT('Ctrl Pts',(-48.8792815645774,-7.51966511731084,22.6186066232009));
#1037=CARTESIAN_POINT('Ctrl Pts',(-49.4411623693794,7.23969103606172,21.6283716898921));
#1038=CARTESIAN_POINT('Ctrl Pts',(-50.1079256837244,2.34612451828727,22.1472739455403));
#1039=CARTESIAN_POINT('Ctrl Pts',(-50.0440658758403,-2.65244623597743,22.6667893302009));
#1040=CARTESIAN_POINT('Ctrl Pts',(-49.2624105702734,-7.52085826128764,23.1853838404368));
#1041=CARTESIAN_POINT('Ctrl Pts',(-50.8575296306908,7.58991890222,23.1099482301021));
#1042=CARTESIAN_POINT('Ctrl Pts',(-51.5434434172259,2.55528751273753,23.6438887189479));
#1043=CARTESIAN_POINT('Ctrl Pts',(-51.4773181296641,-2.58205522055709,24.1779067166804));
#1044=CARTESIAN_POINT('Ctrl Pts',(-50.674116222874,-7.58519412345108,24.7107601444694));
#1045=CARTESIAN_POINT('Ctrl Pts',(-54.2184718731299,8.16825938690371,24.2434272136071));
#1046=CARTESIAN_POINT('Ctrl Pts',(-54.9496370791971,2.80119746928222,24.8128082208714));
#1047=CARTESIAN_POINT('Ctrl Pts',(-54.8788158301112,-2.66369670734798,25.3810532326456));
#1048=CARTESIAN_POINT('Ctrl Pts',(-54.0235615418466,-7.99139347723644,25.9482589200163));
#1049=CARTESIAN_POINT('Ctrl Pts',(-58.3108441074694,8.58722691800135,22.9349509300232));
#1050=CARTESIAN_POINT('Ctrl Pts',(-59.0966523459586,2.81975057053169,23.5470221945163));
#1051=CARTESIAN_POINT('Ctrl Pts',(-59.0208350772329,-3.0455423139376,24.157107523439));
#1052=CARTESIAN_POINT('Ctrl Pts',(-58.101443584661,-8.77214030455072,24.766536906284));
#1053=CARTESIAN_POINT('Ctrl Pts',(-60.021758042877,8.57538496555597,20.6252341384619));
#1054=CARTESIAN_POINT('Ctrl Pts',(-60.830235033339,2.64246381211566,21.2549456269941));
#1055=CARTESIAN_POINT('Ctrl Pts',(-60.7528240873643,-3.38944827262723,21.8824397771291));
#1056=CARTESIAN_POINT('Ctrl Pts',(-59.8059774949861,-9.28614979158712,22.5098763692917));
#1057=CARTESIAN_POINT('Ctrl Pts',(-60.4592108017324,8.49771826498841,19.3311299472563));
#1058=CARTESIAN_POINT('Ctrl Pts',(-61.2733216895042,2.5239509788376,19.9651971038163));
#1059=CARTESIAN_POINT('Ctrl Pts',(-61.1956858932514,-3.55159175283011,20.5972513118402));
#1060=CARTESIAN_POINT('Ctrl Pts',(-60.2416704421499,-9.49245133415102,21.2293631832485));
#1061=CARTESIAN_POINT('Ctrl Pts',(-60.5853742405711,7.51178758711615,19.4356668842534));
#1062=CARTESIAN_POINT('Ctrl Pts',(-61.1824435192187,2.52244199989645,19.9641394604));
#1063=CARTESIAN_POINT('Ctrl Pts',(-61.1602158276863,-2.52861657889527,20.4912918804127));
#1064=CARTESIAN_POINT('Ctrl Pts',(-60.527597386083,-7.50434459469075,21.0183242022412));
#1065=CARTESIAN_POINT('Ctrl Pts',(-50.5791641213031,7.49998938774756,22.6199752428781));
#1066=CARTESIAN_POINT('Ctrl Pts',(-50.5755644905898,7.20096303020552,22.6200360949552));
#1067=CARTESIAN_POINT('Ctrl Pts',(-50.5705465185125,6.8992763733881,22.6200574730789));
#1068=CARTESIAN_POINT('Ctrl Pts',(-50.5639341162511,6.59467055486566,22.6200562011043));
#1069=CARTESIAN_POINT('Ctrl Pts',(-50.5557760008299,6.21886017201197,22.6200546317933));
#1070=CARTESIAN_POINT('Ctrl Pts',(-50.5451921357781,5.83860557200005,22.620019128789));
#1071=CARTESIAN_POINT('Ctrl Pts',(-50.5318031565125,5.45343997864095,22.6199798870806));
#1072=CARTESIAN_POINT('Ctrl Pts',(-50.5183581536954,5.06666273557971,22.619940481173));
#1073=CARTESIAN_POINT('Ctrl Pts',(-50.5020846516421,4.67493311842877,22.6198972067056));
#1074=CARTESIAN_POINT('Ctrl Pts',(-50.4825537278902,4.27780245868716,22.6198634651232));
#1075=CARTESIAN_POINT('Ctrl Pts',(-50.4635595459469,3.89158560063127,22.6198306508149));
#1076=CARTESIAN_POINT('Ctrl Pts',(-50.4414844327883,3.50026040014112,22.6198066983048));
#1077=CARTESIAN_POINT('Ctrl Pts',(-50.4158916035779,3.10343864791934,22.6197897179422));
#1078=CARTESIAN_POINT('Ctrl Pts',(-50.3905612017014,2.71068588211632,22.6197729116952));
#1079=CARTESIAN_POINT('Ctrl Pts',(-50.3617848953067,2.31254854380781,22.6197628435244));
#1080=CARTESIAN_POINT('Ctrl Pts',(-50.3290973758524,1.90867646982292,22.6197452985123));
#1081=CARTESIAN_POINT('Ctrl Pts',(-50.2969138798575,1.51103187969978,22.6197280240347));
#1082=CARTESIAN_POINT('Ctrl Pts',(-50.2609388644574,1.10782788898568,22.6197034156274));
#1083=CARTESIAN_POINT('Ctrl Pts',(-50.2206871738584,0.698758163297726,22.6196471623011));
#1084=CARTESIAN_POINT('Ctrl Pts',(-50.2157080346982,0.648156187079778,22.6196402037576));
#1085=CARTESIAN_POINT('Ctrl Pts',(-50.2106634026519,0.597464492330839,22.6196327482272));
#1086=CARTESIAN_POINT('Ctrl Pts',(-50.2055523147606,0.54668253137556,22.6196247390014));
#1087=CARTESIAN_POINT('Ctrl Pts',(-50.1505761919139,0.000459225643140937,
22.6195385897918));
#1088=CARTESIAN_POINT('Ctrl Pts',(-50.0891332741402,-0.544126921133172,
22.6193970280523));
#1089=CARTESIAN_POINT('Ctrl Pts',(-50.0210772979425,-1.08721107517407,22.6192620677484));
#1090=CARTESIAN_POINT('Ctrl Pts',(-49.9513393841159,-1.64371702881864,22.6191237720311));
#1091=CARTESIAN_POINT('Ctrl Pts',(-49.8746574124642,-2.1986460169104,22.6189922206517));
#1092=CARTESIAN_POINT('Ctrl Pts',(-49.790846419595,-2.75211200657552,22.6188983181967));
#1093=CARTESIAN_POINT('Ctrl Pts',(-49.706158124546,-3.3113714715671,22.6188034328058));
#1094=CARTESIAN_POINT('Ctrl Pts',(-49.6141906486189,-3.8691372873936,22.6187467401815));
#1095=CARTESIAN_POINT('Ctrl Pts',(-49.5147271146717,-4.42549293946772,22.618727451492));
#1096=CARTESIAN_POINT('Ctrl Pts',(-49.4142003440942,-4.98779587377991,22.618707956612));
#1097=CARTESIAN_POINT('Ctrl Pts',(-49.3060162917206,-5.54865850237376,22.6187264482663));
#1098=CARTESIAN_POINT('Ctrl Pts',(-49.1899263793089,-6.10813005151722,22.6187524775618));
#1099=CARTESIAN_POINT('Ctrl Pts',(-49.0934568252625,-6.57304530320701,22.6187741076456));
#1100=CARTESIAN_POINT('Ctrl Pts',(-48.9915274522351,-7.03699932975242,22.6188003514625));
#1101=CARTESIAN_POINT('Ctrl Pts',(-48.8839836093266,-7.49999999526845,22.6188000077955));
#1102=CARTESIAN_POINT('Ctrl Pts',(-60.2449489749993,9.93990910730059,19.1777971708898));
#1103=CARTESIAN_POINT('Ctrl Pts',(-61.2034160877947,3.98349059173508,19.8121940942799));
#1104=CARTESIAN_POINT('Ctrl Pts',(-61.2676256165727,-2.09403413858358,20.4446307525552));
#1105=CARTESIAN_POINT('Ctrl Pts',(-60.4549152043319,-8.05575554292599,21.076770035875));
#1106=CARTESIAN_POINT('Ctrl Pts',(-60.5277150841466,9.89597592515052,18.3377520621936));
#1107=CARTESIAN_POINT('Ctrl Pts',(-61.4903236706858,3.91402077661273,18.974878179689));
#1108=CARTESIAN_POINT('Ctrl Pts',(-61.5550790473543,-2.19318828212812,19.610428722826));
#1109=CARTESIAN_POINT('Ctrl Pts',(-60.7385492525677,-8.18261238546975,20.2454929161358));
#1110=CARTESIAN_POINT('Ctrl Pts',(-60.8769046244784,9.66556658349242,15.6458253785095));
#1111=CARTESIAN_POINT('Ctrl Pts',(-61.844727717031,3.65184488632678,16.2863475455536));
#1112=CARTESIAN_POINT('Ctrl Pts',(-61.910581736091,-2.48596094628674,16.9251006970642));
#1113=CARTESIAN_POINT('Ctrl Pts',(-61.0885464353175,-8.51476330042878,17.5643236167648));
#1114=CARTESIAN_POINT('Ctrl Pts',(-58.6365578239994,8.85870954923498,11.4536868692954));
#1115=CARTESIAN_POINT('Ctrl Pts',(-59.5676046714728,3.07450873671462,12.0696867190303));
#1116=CARTESIAN_POINT('Ctrl Pts',(-59.6326769219065,-2.84540711938004,12.6856121448801));
#1117=CARTESIAN_POINT('Ctrl Pts',(-58.8395909234198,-8.66028283366485,13.3022559833814));
#1118=CARTESIAN_POINT('Ctrl Pts',(-53.1057005538853,7.82051614034469,10.0623277228408));
#1119=CARTESIAN_POINT('Ctrl Pts',(-53.9486763283796,2.5839213425674,10.619815168079));
#1120=CARTESIAN_POINT('Ctrl Pts',(-54.0089818462543,-2.7906274408683,11.1785880866586));
#1121=CARTESIAN_POINT('Ctrl Pts',(-53.2889112071153,-8.06937958407134,11.7386396596993));
#1122=CARTESIAN_POINT('Ctrl Pts',(-49.8775654648541,7.52313707122324,12.1485187662327));
#1123=CARTESIAN_POINT('Ctrl Pts',(-50.6694236486563,2.60369584026918,12.6721161185006));
#1124=CARTESIAN_POINT('Ctrl Pts',(-50.7261280635,-2.45746212030062,13.1980520936525));
#1125=CARTESIAN_POINT('Ctrl Pts',(-50.0496693318499,-7.41708006607836,13.7244143059441));
#1126=CARTESIAN_POINT('Ctrl Pts',(-48.8836143934997,7.51974259335009,13.6189949040043));
#1127=CARTESIAN_POINT('Ctrl Pts',(-49.6601857331459,2.69494589222045,14.1324782831137));
#1128=CARTESIAN_POINT('Ctrl Pts',(-49.7154848272942,-2.26655680141125,14.6479674220935));
#1129=CARTESIAN_POINT('Ctrl Pts',(-49.052430679808,-7.12839708727858,15.1640071425153));
#1130=CARTESIAN_POINT('Ctrl Pts',(-50.5811910013004,-7.50025951770993,13.623365015704));
#1131=CARTESIAN_POINT('Ctrl Pts',(-50.5766476143761,-7.12929559851914,13.6233203266585));
#1132=CARTESIAN_POINT('Ctrl Pts',(-50.5699426254214,-6.75431553155941,13.6232961154259));
#1133=CARTESIAN_POINT('Ctrl Pts',(-50.5607354039951,-6.37484065489485,13.6232578331052));
#1134=CARTESIAN_POINT('Ctrl Pts',(-50.5516011854407,-5.99837458561286,13.6232198543202));
#1135=CARTESIAN_POINT('Ctrl Pts',(-50.5400042842471,-5.61748455062977,13.623168137417));
#1136=CARTESIAN_POINT('Ctrl Pts',(-50.5255686622955,-5.23172462659746,13.6230853934523));
#1137=CARTESIAN_POINT('Ctrl Pts',(-50.5113585049193,-4.8519897424119,13.6230039418347));
#1138=CARTESIAN_POINT('Ctrl Pts',(-50.4943975928428,-4.46753577552879,13.6228925340783));
#1139=CARTESIAN_POINT('Ctrl Pts',(-50.4742849587556,-4.07796024694277,13.6227490262744));
#1140=CARTESIAN_POINT('Ctrl Pts',(-50.4543687681333,-3.6921897677753,13.6226069201353));
#1141=CARTESIAN_POINT('Ctrl Pts',(-50.4313621575099,-3.30139712753019,13.6224334168313));
#1142=CARTESIAN_POINT('Ctrl Pts',(-50.4048337939325,-2.90521627272615,13.6222392496009));
#1143=CARTESIAN_POINT('Ctrl Pts',(-50.3787724225487,-2.51600958977191,13.6220485003944));
#1144=CARTESIAN_POINT('Ctrl Pts',(-50.3493121839616,-2.12160260109473,13.6218378881614));
#1145=CARTESIAN_POINT('Ctrl Pts',(-50.3160033084748,-1.72167427084335,13.6216288278754));
#1146=CARTESIAN_POINT('Ctrl Pts',(-50.2834137822947,-1.33038292286493,13.6214242825234));
#1147=CARTESIAN_POINT('Ctrl Pts',(-50.2471400208726,-0.933806039285301,
13.6212212950944));
#1148=CARTESIAN_POINT('Ctrl Pts',(-50.2067217508283,-0.53166968934889,13.6210496584074));
#1149=CARTESIAN_POINT('Ctrl Pts',(-50.1510429384526,0.0222994526505493,
13.6208132176374));
#1150=CARTESIAN_POINT('Ctrl Pts',(-50.088731808746,0.574584963533751,13.6206329633206));
#1151=CARTESIAN_POINT('Ctrl Pts',(-50.0196148835571,1.12531588739628,13.6204615666495));
#1152=CARTESIAN_POINT('Ctrl Pts',(-49.9482127138657,1.69425587962636,13.620284503012));
#1153=CARTESIAN_POINT('Ctrl Pts',(-49.8695471904321,2.26153687931867,13.6201170094656));
#1154=CARTESIAN_POINT('Ctrl Pts',(-49.7833951316081,2.82727120316697,13.6199421657744));
#1155=CARTESIAN_POINT('Ctrl Pts',(-49.6956799943581,3.40326978684193,13.6197641498503));
#1156=CARTESIAN_POINT('Ctrl Pts',(-49.6002040707636,3.97766506368323,13.6195787127754));
#1157=CARTESIAN_POINT('Ctrl Pts',(-49.4967009033571,4.55054438167358,13.6194013988952));
#1158=CARTESIAN_POINT('Ctrl Pts',(-49.3902246493,5.13987942653095,13.6192189917455));
#1159=CARTESIAN_POINT('Ctrl Pts',(-49.2752533195118,5.72761019515297,13.6190453236856));
#1160=CARTESIAN_POINT('Ctrl Pts',(-49.1514657098523,6.31379876831526,13.618929797006));
#1161=CARTESIAN_POINT('Ctrl Pts',(-49.0678194683686,6.70990037396526,13.6188517328721));
#1162=CARTESIAN_POINT('Ctrl Pts',(-48.9801470443533,7.10529711303566,13.6188008900641));
#1163=CARTESIAN_POINT('Ctrl Pts',(-48.8883418064577,7.50000000899955,13.6188000235388));
#1164=CARTESIAN_POINT('Origin',(-17.5865,0.,13.6188));
#1165=CARTESIAN_POINT('',(-15.7,-1.92269547466134E-15,13.6188));
#1166=CARTESIAN_POINT('Origin',(0.,0.,13.6188));
#1167=CARTESIAN_POINT('Origin',(-17.5865,0.,22.6188));
#1168=CARTESIAN_POINT('',(-15.7,-1.92269547466134E-15,22.6188));
#1169=CARTESIAN_POINT('Origin',(0.,0.,22.6188));
#1170=CARTESIAN_POINT('Origin',(0.,0.,18.1188));
#1171=CARTESIAN_POINT('',(-15.7,1.92269547466134E-15,18.1188));
#1172=UNCERTAINTY_MEASURE_WITH_UNIT(LENGTH_MEASURE(0.01),#1176,
'DISTANCE_ACCURACY_VALUE',
'Maximum model space distance between geometric entities at asserted c
onnectivities');
#1173=UNCERTAINTY_MEASURE_WITH_UNIT(LENGTH_MEASURE(0.01),#1176,
'DISTANCE_ACCURACY_VALUE',
'Maximum model space distance between geometric entities at asserted c
onnectivities');
#1174=(
GEOMETRIC_REPRESENTATION_CONTEXT(3)
GLOBAL_UNCERTAINTY_ASSIGNED_CONTEXT((#1172))
GLOBAL_UNIT_ASSIGNED_CONTEXT((#1176,#1178,#1179))
REPRESENTATION_CONTEXT('','3D')
);
#1175=(
GEOMETRIC_REPRESENTATION_CONTEXT(3)
GLOBAL_UNCERTAINTY_ASSIGNED_CONTEXT((#1173))
GLOBAL_UNIT_ASSIGNED_CONTEXT((#1176,#1178,#1179))
REPRESENTATION_CONTEXT('','3D')
);
#1176=(
LENGTH_UNIT()
NAMED_UNIT(*)
SI_UNIT(.MILLI.,.METRE.)
);
#1177=(
LENGTH_UNIT()
NAMED_UNIT(*)
SI_UNIT($,.METRE.)
);
#1178=(
NAMED_UNIT(*)
PLANE_ANGLE_UNIT()
SI_UNIT($,.RADIAN.)
);
#1179=(
NAMED_UNIT(*)
SI_UNIT($,.STERADIAN.)
SOLID_ANGLE_UNIT()
);
#1180=SHAPE_DEFINITION_REPRESENTATION(#1181,#1182);
#1181=PRODUCT_DEFINITION_SHAPE('',$,#1184);
#1182=SHAPE_REPRESENTATION('',(#413),#1174);
#1183=PRODUCT_DEFINITION_CONTEXT('part definition',#1188,'design');
#1184=PRODUCT_DEFINITION('2026-07-01-20-12-00-183','Pacifier',#1185,#1183);
#1185=PRODUCT_DEFINITION_FORMATION('',$,#1190);
#1186=PRODUCT_RELATED_PRODUCT_CATEGORY('Pacifier','Pacifier',(#1190));
#1187=APPLICATION_PROTOCOL_DEFINITION('international standard',
'automotive_design',2009,#1188);
#1188=APPLICATION_CONTEXT(
'Core Data for Automotive Mechanical Design Process');
#1189=PRODUCT_CONTEXT('part definition',#1188,'mechanical');
#1190=PRODUCT('2026-07-01-20-12-00-183','Pacifier',$,(#1189));
#1191=PRESENTATION_STYLE_ASSIGNMENT((#1193));
#1192=PRESENTATION_STYLE_ASSIGNMENT((#1194));
#1193=SURFACE_STYLE_USAGE(.BOTH.,#1195);
#1194=SURFACE_STYLE_USAGE(.BOTH.,#1196);
#1195=SURFACE_SIDE_STYLE('',(#1197));
#1196=SURFACE_SIDE_STYLE('',(#1198));
#1197=SURFACE_STYLE_FILL_AREA(#1199);
#1198=SURFACE_STYLE_FILL_AREA(#1200);
#1199=FILL_AREA_STYLE('Stahl - satiniert',(#1201));
#1200=FILL_AREA_STYLE('ABS (Rot)',(#1202));
#1201=FILL_AREA_STYLE_COLOUR('Stahl - satiniert',#1203);
#1202=FILL_AREA_STYLE_COLOUR('ABS (Rot)',#1204);
#1203=COLOUR_RGB('Stahl - satiniert',0.627450980392157,0.627450980392157,
0.627450980392157);
#1204=COLOUR_RGB('ABS (Rot)',0.615686274509804,0.109803921568627,0.125490196078431);
ENDSEC;
END-ISO-10303-21;
