ISO-10303-21;
HEADER;
/* Generated by software containing ST-Developer
 * from STEP Tools, Inc. (www.steptools.com) 
 */

FILE_DESCRIPTION(
/* description */ (''),
/* implementation_level */ '2;1');

FILE_NAME(
/* name */ 'Pacifier Fixture.step',
/* time_stamp */ '2026-07-12T12:29:18+02:00',
/* author */ (''),
/* organization */ (''),
/* preprocessor_version */ 'ST-DEVELOPER v20.1',
/* originating_system */ 'Autodesk Translation Framework v15.8.0.0',
/* authorisation */ '');

FILE_SCHEMA (('AUTOMOTIVE_DESIGN { 1 0 10303 214 3 1 1 }'));
ENDSEC;

DATA;
#10=MECHANICAL_DESIGN_GEOMETRIC_PRESENTATION_REPRESENTATION('',(#13),#1034);
#11=SHAPE_REPRESENTATION_RELATIONSHIP('SRR','None',#1041,#12);
#12=ADVANCED_BREP_SHAPE_REPRESENTATION('',(#14),#1033);
#13=STYLED_ITEM('',(#1051),#14);
#14=MANIFOLD_SOLID_BREP('Fixture',#550);
#15=SPHERICAL_SURFACE('',#592,5.);
#16=SPHERICAL_SURFACE('',#596,5.);
#17=PLANE('',#574);
#18=PLANE('',#589);
#19=PLANE('',#609);
#20=PLANE('',#612);
#21=PLANE('',#616);
#22=PLANE('',#617);
#23=PLANE('',#621);
#24=PLANE('',#623);
#25=PLANE('',#624);
#26=PLANE('',#625);
#27=PLANE('',#631);
#28=PLANE('',#632);
#29=LINE('',#852,#66);
#30=LINE('',#853,#67);
#31=LINE('',#856,#68);
#32=LINE('',#858,#69);
#33=LINE('',#859,#70);
#34=LINE('',#862,#71);
#35=LINE('',#866,#72);
#36=LINE('',#909,#73);
#37=LINE('',#910,#74);
#38=LINE('',#913,#75);
#39=LINE('',#917,#76);
#40=LINE('',#946,#77);
#41=LINE('',#947,#78);
#42=LINE('',#955,#79);
#43=LINE('',#956,#80);
#44=LINE('',#970,#81);
#45=LINE('',#971,#82);
#46=LINE('',#976,#83);
#47=LINE('',#977,#84);
#48=LINE('',#980,#85);
#49=LINE('',#981,#86);
#50=LINE('',#986,#87);
#51=LINE('',#990,#88);
#52=LINE('',#993,#89);
#53=LINE('',#996,#90);
#54=LINE('',#997,#91);
#55=LINE('',#1001,#92);
#56=LINE('',#1005,#93);
#57=LINE('',#1008,#94);
#58=LINE('',#1010,#95);
#59=LINE('',#1011,#96);
#60=LINE('',#1013,#97);
#61=LINE('',#1015,#98);
#62=LINE('',#1017,#99);
#63=LINE('',#1020,#100);
#64=LINE('',#1022,#101);
#65=LINE('',#1023,#102);
#66=VECTOR('',#655,10.);
#67=VECTOR('',#656,10.);
#68=VECTOR('',#659,10.);
#69=VECTOR('',#660,10.);
#70=VECTOR('',#661,10.);
#71=VECTOR('',#664,10.);
#72=VECTOR('',#669,10.);
#73=VECTOR('',#692,10.);
#74=VECTOR('',#693,10.);
#75=VECTOR('',#696,10.);
#76=VECTOR('',#699,10.);
#77=VECTOR('',#720,10.);
#78=VECTOR('',#721,10.);
#79=VECTOR('',#732,10.);
#80=VECTOR('',#733,10.);
#81=VECTOR('',#736,10.);
#82=VECTOR('',#737,10.);
#83=VECTOR('',#742,10.);
#84=VECTOR('',#743,10.);
#85=VECTOR('',#746,10.);
#86=VECTOR('',#747,10.);
#87=VECTOR('',#754,10.);
#88=VECTOR('',#759,10.);
#89=VECTOR('',#762,10.);
#90=VECTOR('',#765,10.);
#91=VECTOR('',#766,10.);
#92=VECTOR('',#771,10.);
#93=VECTOR('',#774,10.);
#94=VECTOR('',#777,10.);
#95=VECTOR('',#780,10.);
#96=VECTOR('',#781,10.);
#97=VECTOR('',#784,10.);
#98=VECTOR('',#787,10.);
#99=VECTOR('',#790,10.);
#100=VECTOR('',#793,10.);
#101=VECTOR('',#794,10.);
#102=VECTOR('',#795,10.);
#103=CYLINDRICAL_SURFACE('',#573,1.);
#104=CYLINDRICAL_SURFACE('',#575,20.);
#105=CYLINDRICAL_SURFACE('',#577,19.8);
#106=CYLINDRICAL_SURFACE('',#588,1.);
#107=CYLINDRICAL_SURFACE('',#600,5.);
#108=CYLINDRICAL_SURFACE('',#604,5.);
#109=CYLINDRICAL_SURFACE('',#606,5.);
#110=CYLINDRICAL_SURFACE('',#607,5.);
#111=CYLINDRICAL_SURFACE('',#610,19.7);
#112=CYLINDRICAL_SURFACE('',#614,20.);
#113=CYLINDRICAL_SURFACE('',#622,15.7);
#114=CYLINDRICAL_SURFACE('',#626,19.8);
#115=CYLINDRICAL_SURFACE('',#628,45.);
#116=FACE_OUTER_BOUND('',#148,.T.);
#117=FACE_OUTER_BOUND('',#149,.T.);
#118=FACE_OUTER_BOUND('',#150,.T.);
#119=FACE_OUTER_BOUND('',#151,.T.);
#120=FACE_OUTER_BOUND('',#152,.T.);
#121=FACE_OUTER_BOUND('',#153,.T.);
#122=FACE_OUTER_BOUND('',#154,.T.);
#123=FACE_OUTER_BOUND('',#155,.T.);
#124=FACE_OUTER_BOUND('',#156,.T.);
#125=FACE_OUTER_BOUND('',#157,.T.);
#126=FACE_OUTER_BOUND('',#158,.T.);
#127=FACE_OUTER_BOUND('',#159,.T.);
#128=FACE_OUTER_BOUND('',#160,.T.);
#129=FACE_OUTER_BOUND('',#161,.T.);
#130=FACE_OUTER_BOUND('',#162,.T.);
#131=FACE_OUTER_BOUND('',#163,.T.);
#132=FACE_OUTER_BOUND('',#164,.T.);
#133=FACE_OUTER_BOUND('',#165,.T.);
#134=FACE_OUTER_BOUND('',#166,.T.);
#135=FACE_OUTER_BOUND('',#167,.T.);
#136=FACE_OUTER_BOUND('',#168,.T.);
#137=FACE_OUTER_BOUND('',#169,.T.);
#138=FACE_OUTER_BOUND('',#170,.T.);
#139=FACE_OUTER_BOUND('',#171,.T.);
#140=FACE_OUTER_BOUND('',#172,.T.);
#141=FACE_OUTER_BOUND('',#173,.T.);
#142=FACE_OUTER_BOUND('',#174,.T.);
#143=FACE_OUTER_BOUND('',#175,.T.);
#144=FACE_OUTER_BOUND('',#176,.T.);
#145=FACE_OUTER_BOUND('',#177,.T.);
#146=FACE_OUTER_BOUND('',#178,.T.);
#147=FACE_OUTER_BOUND('',#179,.T.);
#148=EDGE_LOOP('',(#353,#354,#355,#356,#357));
#149=EDGE_LOOP('',(#358,#359,#360,#361));
#150=EDGE_LOOP('',(#362,#363,#364,#365));
#151=EDGE_LOOP('',(#366,#367,#368,#369));
#152=EDGE_LOOP('',(#370,#371,#372,#373));
#153=EDGE_LOOP('',(#374,#375,#376,#377));
#154=EDGE_LOOP('',(#378,#379,#380,#381,#382));
#155=EDGE_LOOP('',(#383,#384,#385,#386));
#156=EDGE_LOOP('',(#387,#388,#389,#390));
#157=EDGE_LOOP('',(#391,#392,#393,#394,#395,#396,#397));
#158=EDGE_LOOP('',(#398,#399,#400));
#159=EDGE_LOOP('',(#401,#402,#403));
#160=EDGE_LOOP('',(#404,#405,#406,#407));
#161=EDGE_LOOP('',(#408,#409,#410,#411));
#162=EDGE_LOOP('',(#412,#413,#414,#415));
#163=EDGE_LOOP('',(#416,#417,#418,#419));
#164=EDGE_LOOP('',(#420,#421,#422,#423));
#165=EDGE_LOOP('',(#424,#425,#426,#427));
#166=EDGE_LOOP('',(#428,#429,#430,#431));
#167=EDGE_LOOP('',(#432,#433,#434,#435,#436));
#168=EDGE_LOOP('',(#437,#438,#439,#440));
#169=EDGE_LOOP('',(#441,#442,#443,#444));
#170=EDGE_LOOP('',(#445,#446,#447,#448,#449,#450,#451,#452,#453,#454,#455,
#456,#457));
#171=EDGE_LOOP('',(#458,#459,#460,#461,#462,#463));
#172=EDGE_LOOP('',(#464,#465,#466,#467));
#173=EDGE_LOOP('',(#468,#469,#470,#471));
#174=EDGE_LOOP('',(#472,#473,#474,#475));
#175=EDGE_LOOP('',(#476,#477,#478,#479,#480,#481,#482,#483));
#176=EDGE_LOOP('',(#484,#485,#486,#487));
#177=EDGE_LOOP('',(#488,#489,#490,#491,#492,#493,#494,#495,#496,#497,#498,
#499,#500,#501,#502,#503));
#178=EDGE_LOOP('',(#504,#505,#506,#507));
#179=EDGE_LOOP('',(#508,#509,#510,#511,#512));
#180=CIRCLE('',#565,19.8);
#181=CIRCLE('',#566,0.999999999999997);
#182=CIRCLE('',#567,18.8);
#183=CIRCLE('',#568,1.);
#184=CIRCLE('',#570,0.999999999999989);
#185=CIRCLE('',#571,21.);
#186=CIRCLE('',#572,20.);
#187=CIRCLE('',#576,20.);
#188=CIRCLE('',#578,19.8);
#189=CIRCLE('',#580,1.);
#190=CIRCLE('',#581,18.8);
#191=CIRCLE('',#582,1.);
#192=CIRCLE('',#583,19.8);
#193=CIRCLE('',#585,1.);
#194=CIRCLE('',#586,20.);
#195=CIRCLE('',#587,21.);
#196=CIRCLE('',#590,15.7);
#197=CIRCLE('',#591,45.);
#198=CIRCLE('',#593,5.);
#199=CIRCLE('',#594,5.);
#200=CIRCLE('',#595,5.);
#201=CIRCLE('',#597,5.);
#202=CIRCLE('',#598,5.);
#203=CIRCLE('',#599,4.99999999999999);
#204=CIRCLE('',#602,24.7);
#205=CIRCLE('',#603,19.7);
#206=CIRCLE('',#605,5.);
#207=CIRCLE('',#608,5.);
#208=CIRCLE('',#611,19.7);
#209=CIRCLE('',#613,45.);
#210=CIRCLE('',#615,20.);
#211=CIRCLE('',#618,45.);
#212=CIRCLE('',#619,45.);
#213=CIRCLE('',#620,15.7);
#214=CIRCLE('',#627,19.8);
#215=CIRCLE('',#629,45.);
#216=CIRCLE('',#630,45.);
#217=B_SPLINE_CURVE_WITH_KNOTS('',3,(#814,#815,#816,#817,#818,#819,#820,
#821,#822,#823,#824,#825),.UNSPECIFIED.,.F.,.F.,(4,2,2,2,2,4),(0.,0.150888727369745,
0.179231794682177,0.191769639104678,0.195370266366104,0.19838515894007),
 .UNSPECIFIED.);
#218=B_SPLINE_CURVE_WITH_KNOTS('',3,(#842,#843,#844,#845,#846,#847,#848,
#849,#850,#851),.UNSPECIFIED.,.F.,.F.,(4,2,2,2,4),(0.303562114039811,0.341209908651306,
0.3788577032628,0.417163751899197,0.455469800535593),.UNSPECIFIED.);
#219=B_SPLINE_CURVE_WITH_KNOTS('',3,(#878,#879,#880,#881,#882,#883,#884,
#885,#886,#887,#888,#889),.UNSPECIFIED.,.F.,.F.,(4,2,2,2,2,4),(0.198385158940068,
0.201400051514034,0.20500067877546,0.217538523197961,0.245881590510393,
0.396770317880136),.UNSPECIFIED.);
#220=B_SPLINE_CURVE_WITH_KNOTS('',3,(#899,#900,#901,#902,#903,#904,#905,
#906,#907,#908),.UNSPECIFIED.,.F.,.F.,(4,2,2,2,4),(0.15165408222397,0.189960130860367,
0.228266179496764,0.265913974108258,0.303561768719753),.UNSPECIFIED.);
#221=B_SPLINE_CURVE_WITH_KNOTS('',3,(#936,#937,#938,#939,#940,#941,#942,
#943,#944,#945),.UNSPECIFIED.,.F.,.F.,(4,2,2,2,4),(1.51286623662568,1.70122513318841,
1.88958402975115,2.07841755785626,2.26725108596137),.UNSPECIFIED.);
#222=B_SPLINE_CURVE_WITH_KNOTS('',3,(#960,#961,#962,#963,#964,#965,#966,
#967,#968,#969),.UNSPECIFIED.,.F.,.F.,(4,2,2,2,4),(0.779086584272084,0.974463531405036,
1.16984047853799,1.35763558023303,1.54543068192808),.UNSPECIFIED.);
#223=VERTEX_POINT('',#812);
#224=VERTEX_POINT('',#813);
#225=VERTEX_POINT('',#826);
#226=VERTEX_POINT('',#828);
#227=VERTEX_POINT('',#830);
#228=VERTEX_POINT('',#834);
#229=VERTEX_POINT('',#835);
#230=VERTEX_POINT('',#840);
#231=VERTEX_POINT('',#841);
#232=VERTEX_POINT('',#855);
#233=VERTEX_POINT('',#857);
#234=VERTEX_POINT('',#861);
#235=VERTEX_POINT('',#865);
#236=VERTEX_POINT('',#869);
#237=VERTEX_POINT('',#870);
#238=VERTEX_POINT('',#872);
#239=VERTEX_POINT('',#874);
#240=VERTEX_POINT('',#876);
#241=VERTEX_POINT('',#891);
#242=VERTEX_POINT('',#892);
#243=VERTEX_POINT('',#897);
#244=VERTEX_POINT('',#898);
#245=VERTEX_POINT('',#912);
#246=VERTEX_POINT('',#914);
#247=VERTEX_POINT('',#916);
#248=VERTEX_POINT('',#920);
#249=VERTEX_POINT('',#921);
#250=VERTEX_POINT('',#923);
#251=VERTEX_POINT('',#927);
#252=VERTEX_POINT('',#928);
#253=VERTEX_POINT('',#930);
#254=VERTEX_POINT('',#934);
#255=VERTEX_POINT('',#935);
#256=VERTEX_POINT('',#952);
#257=VERTEX_POINT('',#953);
#258=VERTEX_POINT('',#958);
#259=VERTEX_POINT('',#959);
#260=VERTEX_POINT('',#973);
#261=VERTEX_POINT('',#974);
#262=VERTEX_POINT('',#979);
#263=VERTEX_POINT('',#985);
#264=VERTEX_POINT('',#989);
#265=VERTEX_POINT('',#991);
#266=VERTEX_POINT('',#995);
#267=VERTEX_POINT('',#1000);
#268=VERTEX_POINT('',#1002);
#269=VERTEX_POINT('',#1004);
#270=VERTEX_POINT('',#1006);
#271=VERTEX_POINT('',#1019);
#272=VERTEX_POINT('',#1021);
#273=EDGE_CURVE('',#223,#224,#217,.F.);
#274=EDGE_CURVE('',#223,#225,#180,.T.);
#275=EDGE_CURVE('',#225,#226,#181,.T.);
#276=EDGE_CURVE('',#226,#227,#182,.T.);
#277=EDGE_CURVE('',#227,#224,#183,.T.);
#278=EDGE_CURVE('',#228,#229,#184,.T.);
#279=EDGE_CURVE('',#229,#226,#185,.T.);
#280=EDGE_CURVE('',#225,#228,#186,.T.);
#281=EDGE_CURVE('',#230,#231,#218,.T.);
#282=EDGE_CURVE('',#231,#229,#29,.T.);
#283=EDGE_CURVE('',#228,#230,#30,.T.);
#284=EDGE_CURVE('',#232,#228,#31,.T.);
#285=EDGE_CURVE('',#233,#232,#32,.F.);
#286=EDGE_CURVE('',#230,#233,#33,.F.);
#287=EDGE_CURVE('',#225,#234,#34,.T.);
#288=EDGE_CURVE('',#234,#232,#187,.T.);
#289=EDGE_CURVE('',#223,#235,#35,.T.);
#290=EDGE_CURVE('',#234,#235,#188,.F.);
#291=EDGE_CURVE('',#236,#237,#189,.F.);
#292=EDGE_CURVE('',#236,#238,#190,.T.);
#293=EDGE_CURVE('',#238,#239,#191,.T.);
#294=EDGE_CURVE('',#239,#240,#192,.T.);
#295=EDGE_CURVE('',#240,#237,#219,.T.);
#296=EDGE_CURVE('',#241,#242,#193,.T.);
#297=EDGE_CURVE('',#242,#239,#194,.T.);
#298=EDGE_CURVE('',#238,#241,#195,.T.);
#299=EDGE_CURVE('',#243,#244,#220,.T.);
#300=EDGE_CURVE('',#244,#242,#36,.T.);
#301=EDGE_CURVE('',#241,#243,#37,.T.);
#302=EDGE_CURVE('',#245,#236,#38,.T.);
#303=EDGE_CURVE('',#245,#246,#196,.T.);
#304=EDGE_CURVE('',#247,#246,#39,.T.);
#305=EDGE_CURVE('',#243,#247,#197,.T.);
#306=EDGE_CURVE('',#248,#249,#198,.F.);
#307=EDGE_CURVE('',#250,#248,#199,.F.);
#308=EDGE_CURVE('',#249,#250,#200,.F.);
#309=EDGE_CURVE('',#251,#252,#201,.F.);
#310=EDGE_CURVE('',#253,#251,#202,.F.);
#311=EDGE_CURVE('',#252,#253,#203,.F.);
#312=EDGE_CURVE('',#254,#255,#221,.T.);
#313=EDGE_CURVE('',#255,#253,#40,.T.);
#314=EDGE_CURVE('',#251,#254,#41,.T.);
#315=EDGE_CURVE('',#253,#250,#204,.T.);
#316=EDGE_CURVE('',#248,#252,#205,.T.);
#317=EDGE_CURVE('',#256,#257,#206,.T.);
#318=EDGE_CURVE('',#257,#251,#42,.T.);
#319=EDGE_CURVE('',#252,#256,#43,.T.);
#320=EDGE_CURVE('',#258,#259,#222,.T.);
#321=EDGE_CURVE('',#259,#249,#44,.T.);
#322=EDGE_CURVE('',#250,#258,#45,.T.);
#323=EDGE_CURVE('',#260,#261,#207,.T.);
#324=EDGE_CURVE('',#261,#248,#46,.T.);
#325=EDGE_CURVE('',#249,#260,#47,.T.);
#326=EDGE_CURVE('',#262,#257,#48,.T.);
#327=EDGE_CURVE('',#254,#262,#49,.T.);
#328=EDGE_CURVE('',#256,#261,#208,.T.);
#329=EDGE_CURVE('',#235,#263,#50,.T.);
#330=EDGE_CURVE('',#263,#233,#209,.T.);
#331=EDGE_CURVE('',#242,#264,#51,.T.);
#332=EDGE_CURVE('',#264,#265,#210,.T.);
#333=EDGE_CURVE('',#265,#239,#52,.T.);
#334=EDGE_CURVE('',#266,#244,#53,.F.);
#335=EDGE_CURVE('',#264,#266,#54,.T.);
#336=EDGE_CURVE('',#231,#262,#211,.T.);
#337=EDGE_CURVE('',#260,#267,#55,.T.);
#338=EDGE_CURVE('',#267,#268,#212,.T.);
#339=EDGE_CURVE('',#268,#269,#56,.T.);
#340=EDGE_CURVE('',#269,#270,#213,.T.);
#341=EDGE_CURVE('',#270,#227,#57,.T.);
#342=EDGE_CURVE('',#237,#224,#58,.T.);
#343=EDGE_CURVE('',#245,#270,#59,.T.);
#344=EDGE_CURVE('',#246,#269,#60,.T.);
#345=EDGE_CURVE('',#247,#268,#61,.T.);
#346=EDGE_CURVE('',#259,#267,#62,.T.);
#347=EDGE_CURVE('',#271,#240,#63,.T.);
#348=EDGE_CURVE('',#271,#272,#64,.T.);
#349=EDGE_CURVE('',#272,#263,#65,.T.);
#350=EDGE_CURVE('',#271,#265,#214,.T.);
#351=EDGE_CURVE('',#272,#266,#215,.T.);
#352=EDGE_CURVE('',#255,#258,#216,.T.);
#353=ORIENTED_EDGE('',*,*,#273,.F.);
#354=ORIENTED_EDGE('',*,*,#274,.T.);
#355=ORIENTED_EDGE('',*,*,#275,.T.);
#356=ORIENTED_EDGE('',*,*,#276,.T.);
#357=ORIENTED_EDGE('',*,*,#277,.T.);
#358=ORIENTED_EDGE('',*,*,#278,.T.);
#359=ORIENTED_EDGE('',*,*,#279,.T.);
#360=ORIENTED_EDGE('',*,*,#275,.F.);
#361=ORIENTED_EDGE('',*,*,#280,.T.);
#362=ORIENTED_EDGE('',*,*,#281,.T.);
#363=ORIENTED_EDGE('',*,*,#282,.T.);
#364=ORIENTED_EDGE('',*,*,#278,.F.);
#365=ORIENTED_EDGE('',*,*,#283,.T.);
#366=ORIENTED_EDGE('',*,*,#283,.F.);
#367=ORIENTED_EDGE('',*,*,#284,.F.);
#368=ORIENTED_EDGE('',*,*,#285,.F.);
#369=ORIENTED_EDGE('',*,*,#286,.F.);
#370=ORIENTED_EDGE('',*,*,#280,.F.);
#371=ORIENTED_EDGE('',*,*,#287,.T.);
#372=ORIENTED_EDGE('',*,*,#288,.T.);
#373=ORIENTED_EDGE('',*,*,#284,.T.);
#374=ORIENTED_EDGE('',*,*,#274,.F.);
#375=ORIENTED_EDGE('',*,*,#289,.T.);
#376=ORIENTED_EDGE('',*,*,#290,.F.);
#377=ORIENTED_EDGE('',*,*,#287,.F.);
#378=ORIENTED_EDGE('',*,*,#291,.F.);
#379=ORIENTED_EDGE('',*,*,#292,.T.);
#380=ORIENTED_EDGE('',*,*,#293,.T.);
#381=ORIENTED_EDGE('',*,*,#294,.T.);
#382=ORIENTED_EDGE('',*,*,#295,.T.);
#383=ORIENTED_EDGE('',*,*,#296,.T.);
#384=ORIENTED_EDGE('',*,*,#297,.T.);
#385=ORIENTED_EDGE('',*,*,#293,.F.);
#386=ORIENTED_EDGE('',*,*,#298,.T.);
#387=ORIENTED_EDGE('',*,*,#299,.T.);
#388=ORIENTED_EDGE('',*,*,#300,.T.);
#389=ORIENTED_EDGE('',*,*,#296,.F.);
#390=ORIENTED_EDGE('',*,*,#301,.T.);
#391=ORIENTED_EDGE('',*,*,#301,.F.);
#392=ORIENTED_EDGE('',*,*,#298,.F.);
#393=ORIENTED_EDGE('',*,*,#292,.F.);
#394=ORIENTED_EDGE('',*,*,#302,.F.);
#395=ORIENTED_EDGE('',*,*,#303,.T.);
#396=ORIENTED_EDGE('',*,*,#304,.F.);
#397=ORIENTED_EDGE('',*,*,#305,.F.);
#398=ORIENTED_EDGE('',*,*,#306,.F.);
#399=ORIENTED_EDGE('',*,*,#307,.F.);
#400=ORIENTED_EDGE('',*,*,#308,.F.);
#401=ORIENTED_EDGE('',*,*,#309,.F.);
#402=ORIENTED_EDGE('',*,*,#310,.F.);
#403=ORIENTED_EDGE('',*,*,#311,.F.);
#404=ORIENTED_EDGE('',*,*,#312,.T.);
#405=ORIENTED_EDGE('',*,*,#313,.T.);
#406=ORIENTED_EDGE('',*,*,#310,.T.);
#407=ORIENTED_EDGE('',*,*,#314,.T.);
#408=ORIENTED_EDGE('',*,*,#311,.T.);
#409=ORIENTED_EDGE('',*,*,#315,.T.);
#410=ORIENTED_EDGE('',*,*,#307,.T.);
#411=ORIENTED_EDGE('',*,*,#316,.T.);
#412=ORIENTED_EDGE('',*,*,#317,.T.);
#413=ORIENTED_EDGE('',*,*,#318,.T.);
#414=ORIENTED_EDGE('',*,*,#309,.T.);
#415=ORIENTED_EDGE('',*,*,#319,.T.);
#416=ORIENTED_EDGE('',*,*,#320,.T.);
#417=ORIENTED_EDGE('',*,*,#321,.T.);
#418=ORIENTED_EDGE('',*,*,#308,.T.);
#419=ORIENTED_EDGE('',*,*,#322,.T.);
#420=ORIENTED_EDGE('',*,*,#323,.T.);
#421=ORIENTED_EDGE('',*,*,#324,.T.);
#422=ORIENTED_EDGE('',*,*,#306,.T.);
#423=ORIENTED_EDGE('',*,*,#325,.T.);
#424=ORIENTED_EDGE('',*,*,#314,.F.);
#425=ORIENTED_EDGE('',*,*,#318,.F.);
#426=ORIENTED_EDGE('',*,*,#326,.F.);
#427=ORIENTED_EDGE('',*,*,#327,.F.);
#428=ORIENTED_EDGE('',*,*,#319,.F.);
#429=ORIENTED_EDGE('',*,*,#316,.F.);
#430=ORIENTED_EDGE('',*,*,#324,.F.);
#431=ORIENTED_EDGE('',*,*,#328,.F.);
#432=ORIENTED_EDGE('',*,*,#288,.F.);
#433=ORIENTED_EDGE('',*,*,#290,.T.);
#434=ORIENTED_EDGE('',*,*,#329,.T.);
#435=ORIENTED_EDGE('',*,*,#330,.T.);
#436=ORIENTED_EDGE('',*,*,#285,.T.);
#437=ORIENTED_EDGE('',*,*,#297,.F.);
#438=ORIENTED_EDGE('',*,*,#331,.T.);
#439=ORIENTED_EDGE('',*,*,#332,.T.);
#440=ORIENTED_EDGE('',*,*,#333,.T.);
#441=ORIENTED_EDGE('',*,*,#300,.F.);
#442=ORIENTED_EDGE('',*,*,#334,.F.);
#443=ORIENTED_EDGE('',*,*,#335,.F.);
#444=ORIENTED_EDGE('',*,*,#331,.F.);
#445=ORIENTED_EDGE('',*,*,#282,.F.);
#446=ORIENTED_EDGE('',*,*,#336,.T.);
#447=ORIENTED_EDGE('',*,*,#326,.T.);
#448=ORIENTED_EDGE('',*,*,#317,.F.);
#449=ORIENTED_EDGE('',*,*,#328,.T.);
#450=ORIENTED_EDGE('',*,*,#323,.F.);
#451=ORIENTED_EDGE('',*,*,#337,.T.);
#452=ORIENTED_EDGE('',*,*,#338,.T.);
#453=ORIENTED_EDGE('',*,*,#339,.T.);
#454=ORIENTED_EDGE('',*,*,#340,.T.);
#455=ORIENTED_EDGE('',*,*,#341,.T.);
#456=ORIENTED_EDGE('',*,*,#276,.F.);
#457=ORIENTED_EDGE('',*,*,#279,.F.);
#458=ORIENTED_EDGE('',*,*,#302,.T.);
#459=ORIENTED_EDGE('',*,*,#291,.T.);
#460=ORIENTED_EDGE('',*,*,#342,.T.);
#461=ORIENTED_EDGE('',*,*,#277,.F.);
#462=ORIENTED_EDGE('',*,*,#341,.F.);
#463=ORIENTED_EDGE('',*,*,#343,.F.);
#464=ORIENTED_EDGE('',*,*,#303,.F.);
#465=ORIENTED_EDGE('',*,*,#343,.T.);
#466=ORIENTED_EDGE('',*,*,#340,.F.);
#467=ORIENTED_EDGE('',*,*,#344,.F.);
#468=ORIENTED_EDGE('',*,*,#304,.T.);
#469=ORIENTED_EDGE('',*,*,#344,.T.);
#470=ORIENTED_EDGE('',*,*,#339,.F.);
#471=ORIENTED_EDGE('',*,*,#345,.F.);
#472=ORIENTED_EDGE('',*,*,#321,.F.);
#473=ORIENTED_EDGE('',*,*,#346,.T.);
#474=ORIENTED_EDGE('',*,*,#337,.F.);
#475=ORIENTED_EDGE('',*,*,#325,.F.);
#476=ORIENTED_EDGE('',*,*,#347,.F.);
#477=ORIENTED_EDGE('',*,*,#348,.T.);
#478=ORIENTED_EDGE('',*,*,#349,.T.);
#479=ORIENTED_EDGE('',*,*,#329,.F.);
#480=ORIENTED_EDGE('',*,*,#289,.F.);
#481=ORIENTED_EDGE('',*,*,#273,.T.);
#482=ORIENTED_EDGE('',*,*,#342,.F.);
#483=ORIENTED_EDGE('',*,*,#295,.F.);
#484=ORIENTED_EDGE('',*,*,#294,.F.);
#485=ORIENTED_EDGE('',*,*,#333,.F.);
#486=ORIENTED_EDGE('',*,*,#350,.F.);
#487=ORIENTED_EDGE('',*,*,#347,.T.);
#488=ORIENTED_EDGE('',*,*,#349,.F.);
#489=ORIENTED_EDGE('',*,*,#351,.T.);
#490=ORIENTED_EDGE('',*,*,#334,.T.);
#491=ORIENTED_EDGE('',*,*,#299,.F.);
#492=ORIENTED_EDGE('',*,*,#305,.T.);
#493=ORIENTED_EDGE('',*,*,#345,.T.);
#494=ORIENTED_EDGE('',*,*,#338,.F.);
#495=ORIENTED_EDGE('',*,*,#346,.F.);
#496=ORIENTED_EDGE('',*,*,#320,.F.);
#497=ORIENTED_EDGE('',*,*,#352,.F.);
#498=ORIENTED_EDGE('',*,*,#312,.F.);
#499=ORIENTED_EDGE('',*,*,#327,.T.);
#500=ORIENTED_EDGE('',*,*,#336,.F.);
#501=ORIENTED_EDGE('',*,*,#281,.F.);
#502=ORIENTED_EDGE('',*,*,#286,.T.);
#503=ORIENTED_EDGE('',*,*,#330,.F.);
#504=ORIENTED_EDGE('',*,*,#313,.F.);
#505=ORIENTED_EDGE('',*,*,#352,.T.);
#506=ORIENTED_EDGE('',*,*,#322,.F.);
#507=ORIENTED_EDGE('',*,*,#315,.F.);
#508=ORIENTED_EDGE('',*,*,#332,.F.);
#509=ORIENTED_EDGE('',*,*,#335,.T.);
#510=ORIENTED_EDGE('',*,*,#351,.F.);
#511=ORIENTED_EDGE('',*,*,#348,.F.);
#512=ORIENTED_EDGE('',*,*,#350,.T.);
#513=TOROIDAL_SURFACE('',#564,18.8,1.);
#514=TOROIDAL_SURFACE('',#569,21.,1.);
#515=TOROIDAL_SURFACE('',#579,18.8,1.);
#516=TOROIDAL_SURFACE('',#584,21.,1.);
#517=TOROIDAL_SURFACE('',#601,24.7,5.);
#518=ADVANCED_FACE('',(#116),#513,.F.);
#519=ADVANCED_FACE('',(#117),#514,.F.);
#520=ADVANCED_FACE('',(#118),#103,.F.);
#521=ADVANCED_FACE('',(#119),#17,.T.);
#522=ADVANCED_FACE('',(#120),#104,.T.);
#523=ADVANCED_FACE('',(#121),#105,.F.);
#524=ADVANCED_FACE('',(#122),#515,.F.);
#525=ADVANCED_FACE('',(#123),#516,.F.);
#526=ADVANCED_FACE('',(#124),#106,.F.);
#527=ADVANCED_FACE('',(#125),#18,.F.);
#528=ADVANCED_FACE('',(#126),#15,.F.);
#529=ADVANCED_FACE('',(#127),#16,.F.);
#530=ADVANCED_FACE('',(#128),#107,.F.);
#531=ADVANCED_FACE('',(#129),#517,.F.);
#532=ADVANCED_FACE('',(#130),#108,.F.);
#533=ADVANCED_FACE('',(#131),#109,.F.);
#534=ADVANCED_FACE('',(#132),#110,.F.);
#535=ADVANCED_FACE('',(#133),#19,.T.);
#536=ADVANCED_FACE('',(#134),#111,.T.);
#537=ADVANCED_FACE('',(#135),#20,.T.);
#538=ADVANCED_FACE('',(#136),#112,.T.);
#539=ADVANCED_FACE('',(#137),#21,.T.);
#540=ADVANCED_FACE('',(#138),#22,.T.);
#541=ADVANCED_FACE('',(#139),#23,.T.);
#542=ADVANCED_FACE('',(#140),#113,.F.);
#543=ADVANCED_FACE('',(#141),#24,.T.);
#544=ADVANCED_FACE('',(#142),#25,.T.);
#545=ADVANCED_FACE('',(#143),#26,.T.);
#546=ADVANCED_FACE('',(#144),#114,.F.);
#547=ADVANCED_FACE('',(#145),#115,.T.);
#548=ADVANCED_FACE('',(#146),#27,.T.);
#549=ADVANCED_FACE('',(#147),#28,.F.);
#550=CLOSED_SHELL('',(#518,#519,#520,#521,#522,#523,#524,#525,#526,#527,
#528,#529,#530,#531,#532,#533,#534,#535,#536,#537,#538,#539,#540,#541,#542,
#543,#544,#545,#546,#547,#548,#549));
#551=DERIVED_UNIT_ELEMENT(#553,1.);
#552=DERIVED_UNIT_ELEMENT(#1036,-3.);
#553=(
MASS_UNIT()
NAMED_UNIT(*)
SI_UNIT(.KILO.,.GRAM.)
);
#554=DERIVED_UNIT((#551,#552));
#555=MEASURE_REPRESENTATION_ITEM('density measure',
POSITIVE_RATIO_MEASURE(7850.),#554);
#556=PROPERTY_DEFINITION_REPRESENTATION(#561,#558);
#557=PROPERTY_DEFINITION_REPRESENTATION(#562,#559);
#558=REPRESENTATION('material name',(#560),#1033);
#559=REPRESENTATION('density',(#555),#1033);
#560=DESCRIPTIVE_REPRESENTATION_ITEM('Stahl','Stahl');
#561=PROPERTY_DEFINITION('material property','material name',#1043);
#562=PROPERTY_DEFINITION('material property','density of part',#1043);
#563=AXIS2_PLACEMENT_3D('',#810,#633,#634);
#564=AXIS2_PLACEMENT_3D('',#811,#635,#636);
#565=AXIS2_PLACEMENT_3D('',#827,#637,#638);
#566=AXIS2_PLACEMENT_3D('',#829,#639,#640);
#567=AXIS2_PLACEMENT_3D('',#831,#641,#642);
#568=AXIS2_PLACEMENT_3D('',#832,#643,#644);
#569=AXIS2_PLACEMENT_3D('',#833,#645,#646);
#570=AXIS2_PLACEMENT_3D('',#836,#647,#648);
#571=AXIS2_PLACEMENT_3D('',#837,#649,#650);
#572=AXIS2_PLACEMENT_3D('',#838,#651,#652);
#573=AXIS2_PLACEMENT_3D('',#839,#653,#654);
#574=AXIS2_PLACEMENT_3D('',#854,#657,#658);
#575=AXIS2_PLACEMENT_3D('',#860,#662,#663);
#576=AXIS2_PLACEMENT_3D('',#863,#665,#666);
#577=AXIS2_PLACEMENT_3D('',#864,#667,#668);
#578=AXIS2_PLACEMENT_3D('',#867,#670,#671);
#579=AXIS2_PLACEMENT_3D('',#868,#672,#673);
#580=AXIS2_PLACEMENT_3D('',#871,#674,#675);
#581=AXIS2_PLACEMENT_3D('',#873,#676,#677);
#582=AXIS2_PLACEMENT_3D('',#875,#678,#679);
#583=AXIS2_PLACEMENT_3D('',#877,#680,#681);
#584=AXIS2_PLACEMENT_3D('',#890,#682,#683);
#585=AXIS2_PLACEMENT_3D('',#893,#684,#685);
#586=AXIS2_PLACEMENT_3D('',#894,#686,#687);
#587=AXIS2_PLACEMENT_3D('',#895,#688,#689);
#588=AXIS2_PLACEMENT_3D('',#896,#690,#691);
#589=AXIS2_PLACEMENT_3D('',#911,#694,#695);
#590=AXIS2_PLACEMENT_3D('',#915,#697,#698);
#591=AXIS2_PLACEMENT_3D('',#918,#700,#701);
#592=AXIS2_PLACEMENT_3D('',#919,#702,#703);
#593=AXIS2_PLACEMENT_3D('',#922,#704,#705);
#594=AXIS2_PLACEMENT_3D('',#924,#706,#707);
#595=AXIS2_PLACEMENT_3D('',#925,#708,#709);
#596=AXIS2_PLACEMENT_3D('',#926,#710,#711);
#597=AXIS2_PLACEMENT_3D('',#929,#712,#713);
#598=AXIS2_PLACEMENT_3D('',#931,#714,#715);
#599=AXIS2_PLACEMENT_3D('',#932,#716,#717);
#600=AXIS2_PLACEMENT_3D('',#933,#718,#719);
#601=AXIS2_PLACEMENT_3D('',#948,#722,#723);
#602=AXIS2_PLACEMENT_3D('',#949,#724,#725);
#603=AXIS2_PLACEMENT_3D('',#950,#726,#727);
#604=AXIS2_PLACEMENT_3D('',#951,#728,#729);
#605=AXIS2_PLACEMENT_3D('',#954,#730,#731);
#606=AXIS2_PLACEMENT_3D('',#957,#734,#735);
#607=AXIS2_PLACEMENT_3D('',#972,#738,#739);
#608=AXIS2_PLACEMENT_3D('',#975,#740,#741);
#609=AXIS2_PLACEMENT_3D('',#978,#744,#745);
#610=AXIS2_PLACEMENT_3D('',#982,#748,#749);
#611=AXIS2_PLACEMENT_3D('',#983,#750,#751);
#612=AXIS2_PLACEMENT_3D('',#984,#752,#753);
#613=AXIS2_PLACEMENT_3D('',#987,#755,#756);
#614=AXIS2_PLACEMENT_3D('',#988,#757,#758);
#615=AXIS2_PLACEMENT_3D('',#992,#760,#761);
#616=AXIS2_PLACEMENT_3D('',#994,#763,#764);
#617=AXIS2_PLACEMENT_3D('',#998,#767,#768);
#618=AXIS2_PLACEMENT_3D('',#999,#769,#770);
#619=AXIS2_PLACEMENT_3D('',#1003,#772,#773);
#620=AXIS2_PLACEMENT_3D('',#1007,#775,#776);
#621=AXIS2_PLACEMENT_3D('',#1009,#778,#779);
#622=AXIS2_PLACEMENT_3D('',#1012,#782,#783);
#623=AXIS2_PLACEMENT_3D('',#1014,#785,#786);
#624=AXIS2_PLACEMENT_3D('',#1016,#788,#789);
#625=AXIS2_PLACEMENT_3D('',#1018,#791,#792);
#626=AXIS2_PLACEMENT_3D('',#1024,#796,#797);
#627=AXIS2_PLACEMENT_3D('',#1025,#798,#799);
#628=AXIS2_PLACEMENT_3D('',#1026,#800,#801);
#629=AXIS2_PLACEMENT_3D('',#1027,#802,#803);
#630=AXIS2_PLACEMENT_3D('',#1028,#804,#805);
#631=AXIS2_PLACEMENT_3D('',#1029,#806,#807);
#632=AXIS2_PLACEMENT_3D('',#1030,#808,#809);
#633=DIRECTION('axis',(0.,0.,1.));
#634=DIRECTION('refdir',(1.,0.,0.));
#635=DIRECTION('center_axis',(0.,0.,1.));
#636=DIRECTION('ref_axis',(1.,0.,0.));
#637=DIRECTION('center_axis',(0.,0.,1.));
#638=DIRECTION('ref_axis',(0.906961569260065,0.421213380468048,0.));
#639=DIRECTION('center_axis',(-0.695430910231405,0.718592964824121,0.));
#640=DIRECTION('ref_axis',(0.718592964824121,0.695430910231405,0.));
#641=DIRECTION('center_axis',(0.,0.,-1.));
#642=DIRECTION('ref_axis',(0.906961569260065,0.421213380468048,0.));
#643=DIRECTION('center_axis',(0.,-1.,0.));
#644=DIRECTION('ref_axis',(1.,0.,0.));
#645=DIRECTION('center_axis',(0.,0.,1.));
#646=DIRECTION('ref_axis',(1.,0.,0.));
#647=DIRECTION('center_axis',(0.,1.,0.));
#648=DIRECTION('ref_axis',(1.,0.,0.));
#649=DIRECTION('center_axis',(0.,0.,1.));
#650=DIRECTION('ref_axis',(-0.926982460682003,-0.37510467550797,0.));
#651=DIRECTION('center_axis',(0.,0.,-1.));
#652=DIRECTION('ref_axis',(-0.926982460682003,-0.37510467550797,0.));
#653=DIRECTION('center_axis',(2.51238913482918E-17,1.,0.));
#654=DIRECTION('ref_axis',(0.707106781186548,0.,-0.707106781186547));
#655=DIRECTION('',(-2.51238913482918E-17,-1.,0.));
#656=DIRECTION('',(2.51238913482918E-17,1.,0.));
#657=DIRECTION('center_axis',(-1.,2.51238913482918E-17,0.));
#658=DIRECTION('ref_axis',(-2.51238913482918E-17,-1.,0.));
#659=DIRECTION('',(0.,0.,-1.));
#660=DIRECTION('',(2.51238913482918E-17,1.,0.));
#661=DIRECTION('',(0.,0.,-1.));
#662=DIRECTION('center_axis',(0.,0.,1.));
#663=DIRECTION('ref_axis',(-0.926982460682003,-0.37510467550797,0.));
#664=DIRECTION('',(0.,0.,1.));
#665=DIRECTION('center_axis',(0.,0.,-1.));
#666=DIRECTION('ref_axis',(-0.926982460682003,-0.37510467550797,0.));
#667=DIRECTION('center_axis',(0.,0.,1.));
#668=DIRECTION('ref_axis',(1.,0.,0.));
#669=DIRECTION('',(0.,0.,1.));
#670=DIRECTION('center_axis',(0.,0.,1.));
#671=DIRECTION('ref_axis',(1.,0.,0.));
#672=DIRECTION('center_axis',(0.,0.,1.));
#673=DIRECTION('ref_axis',(1.,0.,0.));
#674=DIRECTION('center_axis',(0.,-1.,0.));
#675=DIRECTION('ref_axis',(1.,0.,0.));
#676=DIRECTION('center_axis',(0.,0.,1.));
#677=DIRECTION('ref_axis',(0.343475838243918,0.939161513554851,0.));
#678=DIRECTION('center_axis',(-0.718592964824121,-0.695430910231405,0.));
#679=DIRECTION('ref_axis',(0.,0.,1.));
#680=DIRECTION('center_axis',(0.,0.,-1.));
#681=DIRECTION('ref_axis',(0.343475838243918,0.939161513554851,0.));
#682=DIRECTION('center_axis',(0.,0.,-1.));
#683=DIRECTION('ref_axis',(-1.,0.,0.));
#684=DIRECTION('center_axis',(-1.,0.,0.));
#685=DIRECTION('ref_axis',(0.,0.,1.));
#686=DIRECTION('center_axis',(0.,0.,1.));
#687=DIRECTION('ref_axis',(0.37510467550797,-0.926982460682003,0.));
#688=DIRECTION('center_axis',(0.,0.,-1.));
#689=DIRECTION('ref_axis',(0.37510467550797,-0.926982460682003,0.));
#690=DIRECTION('center_axis',(-1.,0.,0.));
#691=DIRECTION('ref_axis',(0.,0.707106781186547,0.707106781186548));
#692=DIRECTION('',(1.,0.,0.));
#693=DIRECTION('',(-1.,0.,0.));
#694=DIRECTION('center_axis',(0.,0.,1.));
#695=DIRECTION('ref_axis',(1.,0.,0.));
#696=DIRECTION('',(1.,0.,0.));
#697=DIRECTION('center_axis',(0.,0.,1.));
#698=DIRECTION('ref_axis',(1.,0.,0.));
#699=DIRECTION('',(1.,0.,0.));
#700=DIRECTION('center_axis',(0.,0.,1.));
#701=DIRECTION('ref_axis',(1.,0.,0.));
#702=DIRECTION('center_axis',(-0.910313162874017,-0.347588279871396,-0.224749489864489));
#703=DIRECTION('ref_axis',(0.413920216344049,-0.764432791474644,-0.49427984160795));
#704=DIRECTION('center_axis',(0.,0.,1.));
#705=DIRECTION('ref_axis',(0.837420791828204,-0.546558704453442,0.));
#706=DIRECTION('center_axis',(0.546558704453441,0.837420791828204,0.));
#707=DIRECTION('ref_axis',(0.,0.,-1.));
#708=DIRECTION('center_axis',(-1.,0.,-8.88178419700125E-16));
#709=DIRECTION('ref_axis',(0.,-1.,0.));
#710=DIRECTION('center_axis',(-0.420208882998412,0.342231607608262,-0.840417765996823));
#711=DIRECTION('ref_axis',(0.65164336070278,-0.530719277824989,-0.541939091224197));
#712=DIRECTION('center_axis',(0.,0.,1.));
#713=DIRECTION('ref_axis',(1.,0.,0.));
#714=DIRECTION('center_axis',(-8.88178419700125E-16,1.,0.));
#715=DIRECTION('ref_axis',(0.,0.,-1.));
#716=DIRECTION('center_axis',(-0.979296910702894,-0.202429149797571,-4.34895191282656E-16));
#717=DIRECTION('ref_axis',(0.202429149797571,-0.979296910702894,0.));
#718=DIRECTION('center_axis',(0.,1.,0.));
#719=DIRECTION('ref_axis',(0.707106781186547,0.,-0.707106781186547));
#720=DIRECTION('',(0.,-1.,0.));
#721=DIRECTION('',(0.,1.,0.));
#722=DIRECTION('center_axis',(0.,0.,-1.));
#723=DIRECTION('ref_axis',(-1.,0.,0.));
#724=DIRECTION('center_axis',(0.,0.,1.));
#725=DIRECTION('ref_axis',(-0.533164101746229,0.84601184424873,0.));
#726=DIRECTION('center_axis',(0.,0.,-1.));
#727=DIRECTION('ref_axis',(-0.533164101746229,0.84601184424873,0.));
#728=DIRECTION('center_axis',(0.,0.,1.));
#729=DIRECTION('ref_axis',(0.775380277604986,-0.631494596256543,0.));
#730=DIRECTION('center_axis',(0.,0.,1.));
#731=DIRECTION('ref_axis',(0.775380277604986,-0.631494596256543,0.));
#732=DIRECTION('',(0.,0.,-1.));
#733=DIRECTION('',(0.,0.,1.));
#734=DIRECTION('center_axis',(1.,0.,0.));
#735=DIRECTION('ref_axis',(0.,-0.707106781186547,-0.707106781186547));
#736=DIRECTION('',(1.,0.,0.));
#737=DIRECTION('',(-1.,0.,0.));
#738=DIRECTION('center_axis',(0.,0.,1.));
#739=DIRECTION('ref_axis',(0.476151916696004,-0.879363037787421,0.));
#740=DIRECTION('center_axis',(0.,0.,1.));
#741=DIRECTION('ref_axis',(0.476151916696004,-0.879363037787421,0.));
#742=DIRECTION('',(0.,0.,-1.));
#743=DIRECTION('',(0.,0.,1.));
#744=DIRECTION('center_axis',(-1.,0.,0.));
#745=DIRECTION('ref_axis',(0.,-1.,0.));
#746=DIRECTION('',(0.,-1.,0.));
#747=DIRECTION('',(0.,0.,1.));
#748=DIRECTION('center_axis',(0.,0.,1.));
#749=DIRECTION('ref_axis',(1.,0.,0.));
#750=DIRECTION('center_axis',(0.,0.,1.));
#751=DIRECTION('ref_axis',(1.,0.,0.));
#752=DIRECTION('center_axis',(0.,0.,1.));
#753=DIRECTION('ref_axis',(1.,0.,0.));
#754=DIRECTION('',(0.,1.,0.));
#755=DIRECTION('center_axis',(0.,0.,1.));
#756=DIRECTION('ref_axis',(1.,0.,0.));
#757=DIRECTION('center_axis',(0.,0.,1.));
#758=DIRECTION('ref_axis',(0.37510467550797,-0.926982460682003,0.));
#759=DIRECTION('',(0.,0.,-1.));
#760=DIRECTION('center_axis',(0.,0.,1.));
#761=DIRECTION('ref_axis',(0.37510467550797,-0.926982460682003,0.));
#762=DIRECTION('',(0.,0.,1.));
#763=DIRECTION('center_axis',(0.,-1.,0.));
#764=DIRECTION('ref_axis',(1.,0.,0.));
#765=DIRECTION('',(0.,0.,-1.));
#766=DIRECTION('',(-1.,0.,0.));
#767=DIRECTION('center_axis',(0.,0.,1.));
#768=DIRECTION('ref_axis',(1.,0.,0.));
#769=DIRECTION('center_axis',(0.,0.,1.));
#770=DIRECTION('ref_axis',(1.,0.,0.));
#771=DIRECTION('',(-1.,0.,0.));
#772=DIRECTION('center_axis',(0.,0.,1.));
#773=DIRECTION('ref_axis',(1.,0.,0.));
#774=DIRECTION('',(1.,0.,0.));
#775=DIRECTION('center_axis',(0.,0.,-1.));
#776=DIRECTION('ref_axis',(1.,0.,0.));
#777=DIRECTION('',(1.,0.,0.));
#778=DIRECTION('center_axis',(0.,-1.,0.));
#779=DIRECTION('ref_axis',(1.,0.,0.));
#780=DIRECTION('',(0.,0.,1.));
#781=DIRECTION('',(0.,0.,1.));
#782=DIRECTION('center_axis',(0.,0.,1.));
#783=DIRECTION('ref_axis',(1.,0.,0.));
#784=DIRECTION('',(0.,0.,1.));
#785=DIRECTION('center_axis',(0.,-1.,0.));
#786=DIRECTION('ref_axis',(1.,0.,0.));
#787=DIRECTION('',(0.,0.,1.));
#788=DIRECTION('center_axis',(0.,1.,0.));
#789=DIRECTION('ref_axis',(-1.,0.,0.));
#790=DIRECTION('',(0.,0.,1.));
#791=DIRECTION('center_axis',(1.,0.,0.));
#792=DIRECTION('ref_axis',(0.,1.,0.));
#793=DIRECTION('',(0.,0.,1.));
#794=DIRECTION('',(0.,1.,0.));
#795=DIRECTION('',(0.,0.,1.));
#796=DIRECTION('center_axis',(0.,0.,1.));
#797=DIRECTION('ref_axis',(1.,0.,0.));
#798=DIRECTION('center_axis',(0.,0.,1.));
#799=DIRECTION('ref_axis',(1.,0.,0.));
#800=DIRECTION('center_axis',(0.,0.,1.));
#801=DIRECTION('ref_axis',(1.,0.,0.));
#802=DIRECTION('center_axis',(0.,0.,1.));
#803=DIRECTION('ref_axis',(1.,0.,0.));
#804=DIRECTION('center_axis',(0.,0.,1.));
#805=DIRECTION('ref_axis',(1.,0.,0.));
#806=DIRECTION('center_axis',(0.,0.,1.));
#807=DIRECTION('ref_axis',(1.,0.,0.));
#808=DIRECTION('center_axis',(0.,0.,1.));
#809=DIRECTION('ref_axis',(1.,0.,0.));
#810=CARTESIAN_POINT('',(0.,0.,0.));
#811=CARTESIAN_POINT('Origin',(0.,0.,59.9158));
#812=CARTESIAN_POINT('',(19.7,1.98746069143515,59.9158));
#813=CARTESIAN_POINT('',(19.7,6.93889390390723E-17,59.4799101056459));
#814=CARTESIAN_POINT('Ctrl Pts',(19.7,-1.38777878078145E-16,59.4799101056459));
#815=CARTESIAN_POINT('Ctrl Pts',(19.7,0.502962424565817,59.4799101056459));
#816=CARTESIAN_POINT('Ctrl Pts',(19.7,1.10581095446895,59.5091022064579));
#817=CARTESIAN_POINT('Ctrl Pts',(19.7,1.67941828422603,59.6761601816707));
#818=CARTESIAN_POINT('Ctrl Pts',(19.7,1.78634273452804,59.7138488187175));
#819=CARTESIAN_POINT('Ctrl Pts',(19.7,1.90264896595389,59.7848579254978));
#820=CARTESIAN_POINT('Ctrl Pts',(19.7,1.94260775277092,59.8151639651651));
#821=CARTESIAN_POINT('Ctrl Pts',(19.7,1.97237761135489,59.8599707435565));
#822=CARTESIAN_POINT('Ctrl Pts',(19.7,1.97889185019338,59.8728158577703));
#823=CARTESIAN_POINT('Ctrl Pts',(19.7,1.98551953083103,59.893848041874));
#824=CARTESIAN_POINT('Ctrl Pts',(19.7,1.98746069143518,59.9057503580868));
#825=CARTESIAN_POINT('Ctrl Pts',(19.7,1.98746069143518,59.9158));
#826=CARTESIAN_POINT('',(14.2281407035176,13.7695320225818,59.9158));
#827=CARTESIAN_POINT('Origin',(0.,0.,59.9158));
#828=CARTESIAN_POINT('',(13.5095477386935,13.0741011123504,58.9158));
#829=CARTESIAN_POINT('Origin',(13.5095477386935,13.0741011123504,59.9158));
#830=CARTESIAN_POINT('',(18.8,0.,58.9158));
#831=CARTESIAN_POINT('Origin',(0.,0.,58.9158));
#832=CARTESIAN_POINT('Origin',(18.8,0.,59.9158));
#833=CARTESIAN_POINT('Origin',(28.6,27.6781502272099,59.9158));
#834=CARTESIAN_POINT('',(8.6,27.6781502272099,59.9158));
#835=CARTESIAN_POINT('',(7.60000000000001,27.6781502272099,58.9158));
#836=CARTESIAN_POINT('Origin',(7.60000000000001,27.6781502272099,59.9158));
#837=CARTESIAN_POINT('Origin',(28.6,27.6781502272099,58.9158));
#838=CARTESIAN_POINT('Origin',(28.6,27.6781502272099,59.9158));
#839=CARTESIAN_POINT('Origin',(7.6,33.344965657541,59.9158));
#840=CARTESIAN_POINT('',(8.6,44.1705784431221,59.9158));
#841=CARTESIAN_POINT('',(7.6,44.3535793369599,58.9158));
#842=CARTESIAN_POINT('Ctrl Pts',(8.6,44.1705784431221,59.9158));
#843=CARTESIAN_POINT('Ctrl Pts',(8.6,44.1705784431221,59.790307351295));
#844=CARTESIAN_POINT('Ctrl Pts',(8.57492242964386,44.1754838728853,59.6566233919061));
#845=CARTESIAN_POINT('Ctrl Pts',(8.47344796327052,44.1950602407842,59.4110872898039));
#846=CARTESIAN_POINT('Ctrl Pts',(8.39706577617442,44.2096962939568,59.2992262884223));
#847=CARTESIAN_POINT('Ctrl Pts',(8.22016284586223,44.2429334880708,59.1211799742285));
#848=CARTESIAN_POINT('Ctrl Pts',(8.10725687732875,44.2638470250461,59.0436773922302));
#849=CARTESIAN_POINT('Ctrl Pts',(7.86010323445321,44.3084026418821,58.9409904328251));
#850=CARTESIAN_POINT('Ctrl Pts',(7.72585261979851,44.3320144503202,58.9158));
#851=CARTESIAN_POINT('Ctrl Pts',(7.6,44.3535793369599,58.9158));
#852=CARTESIAN_POINT('',(7.6,33.344965657541,58.9158));
#853=CARTESIAN_POINT('',(8.6,33.344965657541,59.9158));
#854=CARTESIAN_POINT('Origin',(8.6,44.1899309798058,58.9158));
#855=CARTESIAN_POINT('',(8.6,27.6781502272099,63.4158));
#856=CARTESIAN_POINT('',(8.6,27.6781502272099,58.9158));
#857=CARTESIAN_POINT('',(8.59999999999948,44.170578443125,63.4158));
#858=CARTESIAN_POINT('',(8.6,33.1424482348543,63.4158));
#859=CARTESIAN_POINT('',(8.6,44.1705784431221,0.));
#860=CARTESIAN_POINT('Origin',(28.6,27.6781502272099,58.9158));
#861=CARTESIAN_POINT('',(14.2281407035176,13.7695320225818,63.4158));
#862=CARTESIAN_POINT('',(14.2281407035176,13.7695320225818,58.9158));
#863=CARTESIAN_POINT('Origin',(28.6,27.6781502272099,63.4158));
#864=CARTESIAN_POINT('Origin',(0.,0.,58.9158));
#865=CARTESIAN_POINT('',(19.7,1.98746069143515,63.4158));
#866=CARTESIAN_POINT('',(19.7,1.98746069143515,58.9158));
#867=CARTESIAN_POINT('Origin',(0.,0.,63.4158));
#868=CARTESIAN_POINT('Origin',(0.,0.,3.5));
#869=CARTESIAN_POINT('',(18.8,0.,4.5));
#870=CARTESIAN_POINT('',(19.7,3.46944695195361E-17,3.93588989435406));
#871=CARTESIAN_POINT('Origin',(18.8,0.,3.5));
#872=CARTESIAN_POINT('',(-13.0741011123504,13.5095477386935,4.5));
#873=CARTESIAN_POINT('Origin',(0.,0.,4.5));
#874=CARTESIAN_POINT('',(-13.7695320225818,14.2281407035176,3.5));
#875=CARTESIAN_POINT('Origin',(-13.0741011123504,13.5095477386935,3.5));
#876=CARTESIAN_POINT('',(19.7,1.98746069143515,3.5));
#877=CARTESIAN_POINT('Origin',(0.,0.,3.5));
#878=CARTESIAN_POINT('Ctrl Pts',(19.7,1.98746069143513,3.5));
#879=CARTESIAN_POINT('Ctrl Pts',(19.7,1.98746069143513,3.51004964191322));
#880=CARTESIAN_POINT('Ctrl Pts',(19.7,1.98551953083101,3.52195195812604));
#881=CARTESIAN_POINT('Ctrl Pts',(19.7,1.97889185019336,3.5429841422297));
#882=CARTESIAN_POINT('Ctrl Pts',(19.7,1.97237761135486,3.55582925644354));
#883=CARTESIAN_POINT('Ctrl Pts',(19.7,1.94260775277089,3.60063603483489));
#884=CARTESIAN_POINT('Ctrl Pts',(19.7,1.90264896595387,3.63094207450221));
#885=CARTESIAN_POINT('Ctrl Pts',(19.7,1.78634273452801,3.70195118128247));
#886=CARTESIAN_POINT('Ctrl Pts',(19.7,1.679418284226,3.73963981832928));
#887=CARTESIAN_POINT('Ctrl Pts',(19.7,1.10581095446893,3.90669779354214));
#888=CARTESIAN_POINT('Ctrl Pts',(19.7,0.502962424565808,3.93588989435406));
#889=CARTESIAN_POINT('Ctrl Pts',(19.7,0.,3.93588989435406));
#890=CARTESIAN_POINT('Origin',(-27.6781502272099,28.6,3.5));
#891=CARTESIAN_POINT('',(-27.6781502272099,7.60000000000001,4.5));
#892=CARTESIAN_POINT('',(-27.6781502272099,8.6,3.5));
#893=CARTESIAN_POINT('Origin',(-27.6781502272099,7.60000000000001,3.5));
#894=CARTESIAN_POINT('Origin',(-27.6781502272099,28.6,3.5));
#895=CARTESIAN_POINT('Origin',(-27.6781502272099,28.6,4.5));
#896=CARTESIAN_POINT('Origin',(-28.419965657541,7.6,3.5));
#897=CARTESIAN_POINT('',(-44.3535793369599,7.6,4.5));
#898=CARTESIAN_POINT('',(-44.1705784431221,8.6,3.5));
#899=CARTESIAN_POINT('Ctrl Pts',(-44.3535793369599,7.6,4.5));
#900=CARTESIAN_POINT('Ctrl Pts',(-44.3320144503202,7.72585261979851,4.5));
#901=CARTESIAN_POINT('Ctrl Pts',(-44.3084026418821,7.8601032344532,4.47480956717488));
#902=CARTESIAN_POINT('Ctrl Pts',(-44.2638470250461,8.10725687732875,4.37212260776983));
#903=CARTESIAN_POINT('Ctrl Pts',(-44.2429334880708,8.22016284586224,4.29462002577147));
#904=CARTESIAN_POINT('Ctrl Pts',(-44.2096962939568,8.39706577617443,4.11657371157766));
#905=CARTESIAN_POINT('Ctrl Pts',(-44.1950602407842,8.47344796327051,4.00471271019613));
#906=CARTESIAN_POINT('Ctrl Pts',(-44.1754838728853,8.57492242964386,3.75917660809387));
#907=CARTESIAN_POINT('Ctrl Pts',(-44.1705784431221,8.6,3.62549264870498));
#908=CARTESIAN_POINT('Ctrl Pts',(-44.1705784431221,8.6,3.5));
#909=CARTESIAN_POINT('',(-28.419965657541,8.6,3.5));
#910=CARTESIAN_POINT('',(-28.419965657541,7.6,4.5));
#911=CARTESIAN_POINT('Origin',(-12.6500003352761,22.5000003352761,4.5));
#912=CARTESIAN_POINT('',(15.7,0.,4.5));
#913=CARTESIAN_POINT('',(-45.0000006705523,0.,4.5));
#914=CARTESIAN_POINT('',(-15.7,0.,4.5));
#915=CARTESIAN_POINT('Origin',(0.,0.,4.5));
#916=CARTESIAN_POINT('',(-45.0000006705523,0.,4.5));
#917=CARTESIAN_POINT('',(-45.0000006705523,0.,4.5));
#918=CARTESIAN_POINT('Origin',(0.,0.,4.5));
#919=CARTESIAN_POINT('Origin',(-20.6842935581566,13.5,14.));
#920=CARTESIAN_POINT('',(-16.4971895990156,10.7672064777328,14.));
#921=CARTESIAN_POINT('',(-20.6842935581566,8.5,14.));
#922=CARTESIAN_POINT('Origin',(-20.6842935581566,13.5,14.));
#923=CARTESIAN_POINT('',(-20.6842935581566,13.5,9.));
#924=CARTESIAN_POINT('Origin',(-20.6842935581566,13.5,14.));
#925=CARTESIAN_POINT('Origin',(-20.6842935581566,13.5,14.));
#926=CARTESIAN_POINT('Origin',(-5.,24.1886336943615,14.));
#927=CARTESIAN_POINT('',(0.,24.1886336943615,14.));
#928=CARTESIAN_POINT('',(-3.98785425101215,19.292149140847,14.));
#929=CARTESIAN_POINT('Origin',(-5.,24.1886336943615,14.));
#930=CARTESIAN_POINT('',(-5.,24.1886336943615,9.));
#931=CARTESIAN_POINT('Origin',(-5.,24.1886336943615,14.));
#932=CARTESIAN_POINT('Origin',(-5.,24.1886336943615,14.));
#933=CARTESIAN_POINT('Origin',(-5.,33.7500003352761,14.));
#934=CARTESIAN_POINT('',(0.,45.0000006705523,14.));
#935=CARTESIAN_POINT('',(-5.,44.7213595499958,9.));
#936=CARTESIAN_POINT('Ctrl Pts',(-5.55111512312578E-16,45.,14.));
#937=CARTESIAN_POINT('Ctrl Pts',(-5.55111512312578E-16,45.,13.3721370114575));
#938=CARTESIAN_POINT('Ctrl Pts',(-0.125491976071371,45.000548440577,12.7024340330267));
#939=CARTESIAN_POINT('Ctrl Pts',(-0.635799900815481,44.9962316944821,11.470521125856));
#940=CARTESIAN_POINT('Ctrl Pts',(-1.0206175453136,44.990616246328,10.9083146428209));
#941=CARTESIAN_POINT('Ctrl Pts',(-1.90943306369256,44.9616755792884,10.019499124442));
#942=CARTESIAN_POINT('Ctrl Pts',(-2.47291371200704,44.9362469358517,9.63438639769919));
#943=CARTESIAN_POINT('Ctrl Pts',(-3.70546005332326,44.851434277196,9.1246627355077));
#944=CARTESIAN_POINT('Ctrl Pts',(-4.3744524366309,44.7912978937384,9.));
#945=CARTESIAN_POINT('Ctrl Pts',(-4.99999999999999,44.7213595499958,9.));
#946=CARTESIAN_POINT('',(-5.,33.7500003352761,9.));
#947=CARTESIAN_POINT('',(0.,33.7500003352761,14.));
#948=CARTESIAN_POINT('Origin',(0.,0.,14.));
#949=CARTESIAN_POINT('Origin',(0.,0.,9.));
#950=CARTESIAN_POINT('Origin',(0.,0.,14.));
#951=CARTESIAN_POINT('Origin',(-5.,24.1886336943615,4.5));
#952=CARTESIAN_POINT('',(-3.98785425101215,19.292149140847,58.9158));
#953=CARTESIAN_POINT('',(0.,24.1886336943615,58.9158));
#954=CARTESIAN_POINT('Origin',(-5.,24.1886336943615,58.9158));
#955=CARTESIAN_POINT('',(0.,24.1886336943615,4.5));
#956=CARTESIAN_POINT('',(-3.98785425101215,19.292149140847,4.5));
#957=CARTESIAN_POINT('Origin',(-15.0084267015607,13.5,14.));
#958=CARTESIAN_POINT('',(-42.9272640637625,13.5,9.));
#959=CARTESIAN_POINT('',(-44.1899309798058,8.5,14.));
#960=CARTESIAN_POINT('Ctrl Pts',(-42.9272640637625,13.5,9.));
#961=CARTESIAN_POINT('Ctrl Pts',(-43.1226410108955,12.878740903589,9.));
#962=CARTESIAN_POINT('Ctrl Pts',(-43.3168260884073,12.2092249747648,9.1230060450833));
#963=CARTESIAN_POINT('Ctrl Pts',(-43.6476596651697,10.96788048765,9.63656770097683));
#964=CARTESIAN_POINT('Ctrl Pts',(-43.7850452658014,10.3963816774892,10.0274451509012));
#965=CARTESIAN_POINT('Ctrl Pts',(-43.9859723697942,9.50961708913318,10.9244508906186));
#966=CARTESIAN_POINT('Ctrl Pts',(-44.0648927121362,9.12970570974386,11.4822076277202));
#967=CARTESIAN_POINT('Ctrl Pts',(-44.1664802419743,8.62486628263776,12.7070101748896));
#968=CARTESIAN_POINT('Ctrl Pts',(-44.1899309798058,8.5,13.3740163276832));
#969=CARTESIAN_POINT('Ctrl Pts',(-44.1899309798058,8.5,14.));
#970=CARTESIAN_POINT('',(-15.0084267015607,8.5,14.));
#971=CARTESIAN_POINT('',(-15.0084267015607,13.5,9.));
#972=CARTESIAN_POINT('Origin',(-20.6842935581566,13.5,4.5));
#973=CARTESIAN_POINT('',(-20.6842935581566,8.5,58.9158));
#974=CARTESIAN_POINT('',(-16.4971895990156,10.7672064777328,58.9158));
#975=CARTESIAN_POINT('Origin',(-20.6842935581566,13.5,58.9158));
#976=CARTESIAN_POINT('',(-16.4971895990156,10.7672064777328,4.5));
#977=CARTESIAN_POINT('',(-20.6842935581566,8.5,4.5));
#978=CARTESIAN_POINT('Origin',(0.,45.0000006705523,4.5));
#979=CARTESIAN_POINT('',(0.,45.0000006705523,58.9158));
#980=CARTESIAN_POINT('',(0.,0.,58.9158));
#981=CARTESIAN_POINT('',(0.,45.0000006705523,4.5));
#982=CARTESIAN_POINT('Origin',(0.,0.,4.5));
#983=CARTESIAN_POINT('Origin',(0.,0.,58.9158));
#984=CARTESIAN_POINT('Origin',(14.1,22.0949654899029,63.4158));
#985=CARTESIAN_POINT('',(19.7,40.4587444194701,63.4158));
#986=CARTESIAN_POINT('',(19.7,11.0474827449514,63.4158));
#987=CARTESIAN_POINT('Origin',(0.,0.,63.4158));
#988=CARTESIAN_POINT('Origin',(-27.6781502272099,28.6,0.));
#989=CARTESIAN_POINT('',(-27.6781502272099,8.6,0.));
#990=CARTESIAN_POINT('',(-27.6781502272099,8.6,0.));
#991=CARTESIAN_POINT('',(-13.7695320225818,14.2281407035176,0.));
#992=CARTESIAN_POINT('Origin',(-27.6781502272099,28.6,0.));
#993=CARTESIAN_POINT('',(-13.7695320225818,14.2281407035176,0.));
#994=CARTESIAN_POINT('Origin',(-44.1899309798058,8.6,0.));
#995=CARTESIAN_POINT('',(-44.170578443125,8.59999999999948,0.));
#996=CARTESIAN_POINT('',(-44.1705784431221,8.6,0.));
#997=CARTESIAN_POINT('',(-28.2174482348543,8.6,0.));
#998=CARTESIAN_POINT('Origin',(-12.6500003352761,22.5000003352761,58.9158));
#999=CARTESIAN_POINT('Origin',(0.,0.,58.9158));
#1000=CARTESIAN_POINT('',(-44.1899309798058,8.5,58.9158));
#1001=CARTESIAN_POINT('',(0.,8.5,58.9158));
#1002=CARTESIAN_POINT('',(-45.0000006705523,0.,58.9158));
#1003=CARTESIAN_POINT('Origin',(0.,0.,58.9158));
#1004=CARTESIAN_POINT('',(-15.7,0.,58.9158));
#1005=CARTESIAN_POINT('',(-45.0000006705523,0.,58.9158));
#1006=CARTESIAN_POINT('',(15.7,0.,58.9158));
#1007=CARTESIAN_POINT('Origin',(0.,0.,58.9158));
#1008=CARTESIAN_POINT('',(-45.0000006705523,0.,58.9158));
#1009=CARTESIAN_POINT('Origin',(15.7,0.,4.5));
#1010=CARTESIAN_POINT('',(19.7,0.,0.));
#1011=CARTESIAN_POINT('',(15.7,0.,4.5));
#1012=CARTESIAN_POINT('Origin',(0.,0.,4.5));
#1013=CARTESIAN_POINT('',(-15.7,0.,4.5));
#1014=CARTESIAN_POINT('Origin',(-45.0000006705523,0.,4.5));
#1015=CARTESIAN_POINT('',(-45.0000006705523,0.,4.5));
#1016=CARTESIAN_POINT('Origin',(-17.7718879132184,8.5,4.5));
#1017=CARTESIAN_POINT('',(-44.1899309798058,8.5,4.5));
#1018=CARTESIAN_POINT('Origin',(19.7,0.,0.));
#1019=CARTESIAN_POINT('',(19.7,1.98746069143515,0.));
#1020=CARTESIAN_POINT('',(19.7,1.98746069143515,0.));
#1021=CARTESIAN_POINT('',(19.7,40.4587444194701,0.));
#1022=CARTESIAN_POINT('',(19.7,0.,0.));
#1023=CARTESIAN_POINT('',(19.7,40.4587444194701,0.));
#1024=CARTESIAN_POINT('Origin',(0.,0.,0.));
#1025=CARTESIAN_POINT('Origin',(0.,0.,0.));
#1026=CARTESIAN_POINT('Origin',(0.,0.,0.));
#1027=CARTESIAN_POINT('Origin',(0.,0.,0.));
#1028=CARTESIAN_POINT('Origin',(0.,0.,9.));
#1029=CARTESIAN_POINT('Origin',(-12.2449654899029,22.5,9.));
#1030=CARTESIAN_POINT('Origin',(-12.2449654899029,22.5,0.));
#1031=UNCERTAINTY_MEASURE_WITH_UNIT(LENGTH_MEASURE(0.01),#1035,
'DISTANCE_ACCURACY_VALUE',
'Maximum model space distance between geometric entities at asserted c
onnectivities');
#1032=UNCERTAINTY_MEASURE_WITH_UNIT(LENGTH_MEASURE(0.01),#1035,
'DISTANCE_ACCURACY_VALUE',
'Maximum model space distance between geometric entities at asserted c
onnectivities');
#1033=(
GEOMETRIC_REPRESENTATION_CONTEXT(3)
GLOBAL_UNCERTAINTY_ASSIGNED_CONTEXT((#1031))
GLOBAL_UNIT_ASSIGNED_CONTEXT((#1035,#1037,#1038))
REPRESENTATION_CONTEXT('','3D')
);
#1034=(
GEOMETRIC_REPRESENTATION_CONTEXT(3)
GLOBAL_UNCERTAINTY_ASSIGNED_CONTEXT((#1032))
GLOBAL_UNIT_ASSIGNED_CONTEXT((#1035,#1037,#1038))
REPRESENTATION_CONTEXT('','3D')
);
#1035=(
LENGTH_UNIT()
NAMED_UNIT(*)
SI_UNIT(.MILLI.,.METRE.)
);
#1036=(
LENGTH_UNIT()
NAMED_UNIT(*)
SI_UNIT($,.METRE.)
);
#1037=(
NAMED_UNIT(*)
PLANE_ANGLE_UNIT()
SI_UNIT($,.RADIAN.)
);
#1038=(
NAMED_UNIT(*)
SI_UNIT($,.STERADIAN.)
SOLID_ANGLE_UNIT()
);
#1039=SHAPE_DEFINITION_REPRESENTATION(#1040,#1041);
#1040=PRODUCT_DEFINITION_SHAPE('',$,#1043);
#1041=SHAPE_REPRESENTATION('',(#563),#1033);
#1042=PRODUCT_DEFINITION_CONTEXT('part definition',#1047,'design');
#1043=PRODUCT_DEFINITION('2026-07-01-20-42-26-965','Pacifier Fixture',#1044,
#1042);
#1044=PRODUCT_DEFINITION_FORMATION('',$,#1049);
#1045=PRODUCT_RELATED_PRODUCT_CATEGORY('Pacifier Fixture',
'Pacifier Fixture',(#1049));
#1046=APPLICATION_PROTOCOL_DEFINITION('international standard',
'automotive_design',2009,#1047);
#1047=APPLICATION_CONTEXT(
'Core Data for Automotive Mechanical Design Process');
#1048=PRODUCT_CONTEXT('part definition',#1047,'mechanical');
#1049=PRODUCT('2026-07-01-20-42-26-965','Pacifier Fixture',$,(#1048));
#1050=PRESENTATION_STYLE_ASSIGNMENT((#1052));
#1051=PRESENTATION_STYLE_ASSIGNMENT((#1053));
#1052=SURFACE_STYLE_USAGE(.BOTH.,#1054);
#1053=SURFACE_STYLE_USAGE(.BOTH.,#1055);
#1054=SURFACE_SIDE_STYLE('',(#1056));
#1055=SURFACE_SIDE_STYLE('',(#1057));
#1056=SURFACE_STYLE_FILL_AREA(#1058);
#1057=SURFACE_STYLE_FILL_AREA(#1059);
#1058=FILL_AREA_STYLE('Stahl - satiniert',(#1060));
#1059=FILL_AREA_STYLE('ABS (Wei\X\DF)',(#1061));
#1060=FILL_AREA_STYLE_COLOUR('Stahl - satiniert',#1062);
#1061=FILL_AREA_STYLE_COLOUR('ABS (Wei\X\DF)',#1063);
#1062=COLOUR_RGB('Stahl - satiniert',0.627450980392157,0.627450980392157,
0.627450980392157);
#1063=COLOUR_RGB('ABS (Wei\X\DF)',0.964705882352941,0.964705882352941,0.952941176470588);
ENDSEC;
END-ISO-10303-21;
