ISO-10303-21;
HEADER;
/* Generated by software containing ST-Developer
 * from STEP Tools, Inc. (www.steptools.com) 
 */

FILE_DESCRIPTION(
/* description */ (''),
/* implementation_level */ '2;1');

FILE_NAME(
/* name */ 'Top Cone.step',
/* time_stamp */ '2026-07-12T12:44:39+02:00',
/* author */ (''),
/* organization */ (''),
/* preprocessor_version */ 'ST-DEVELOPER v20.1',
/* originating_system */ 'Autodesk Translation Framework v15.8.0.0',
/* authorisation */ '');

FILE_SCHEMA (('AUTOMOTIVE_DESIGN { 1 0 10303 214 3 1 1 }'));
ENDSEC;

DATA;
#10=MECHANICAL_DESIGN_GEOMETRIC_PRESENTATION_REPRESENTATION('',(#13),#731);
#11=SHAPE_REPRESENTATION_RELATIONSHIP('SRR','None',#738,#12);
#12=ADVANCED_BREP_SHAPE_REPRESENTATION('',(#14),#730);
#13=STYLED_ITEM('',(#748),#14);
#14=MANIFOLD_SOLID_BREP('Top Cone',#376);
#15=CYLINDRICAL_SURFACE('',#421,3.1);
#16=CYLINDRICAL_SURFACE('',#423,3.1);
#17=CYLINDRICAL_SURFACE('',#425,3.1);
#18=CYLINDRICAL_SURFACE('',#427,3.1);
#19=CYLINDRICAL_SURFACE('',#429,3.1);
#20=CYLINDRICAL_SURFACE('',#431,15.7);
#21=CYLINDRICAL_SURFACE('',#433,3.1);
#22=CYLINDRICAL_SURFACE('',#435,11.7785115547246);
#23=CYLINDRICAL_SURFACE('',#438,64.873);
#24=B_SPLINE_SURFACE_WITH_KNOTS('',3,3,((#599,#600,#601,#602,#603,#604),
(#605,#606,#607,#608,#609,#610),(#611,#612,#613,#614,#615,#616),(#617,#618,
#619,#620,#621,#622)),.UNSPECIFIED.,.F.,.F.,.F.,(4,4),(4,2,4),(0.,1.),(-0.734121346040735,
-0.732867238953004,-0.376613908418483),.UNSPECIFIED.);
#25=B_SPLINE_SURFACE_WITH_KNOTS('',3,3,((#624,#625,#626,#627,#628,#629),
(#630,#631,#632,#633,#634,#635),(#636,#637,#638,#639,#640,#641),(#642,#643,
#644,#645,#646,#647),(#648,#649,#650,#651,#652,#653)),.UNSPECIFIED.,.F.,
 .F.,.F.,(4,1,4),(4,2,4),(0.,0.5,1.),(-0.356253330308806,0.,0.00125410731499097),
 .UNSPECIFIED.);
#26=FACE_BOUND('',#103,.T.);
#27=FACE_BOUND('',#108,.T.);
#28=FACE_BOUND('',#109,.T.);
#29=FACE_BOUND('',#110,.T.);
#30=FACE_BOUND('',#111,.T.);
#31=FACE_BOUND('',#112,.T.);
#32=FACE_BOUND('',#113,.T.);
#33=FACE_BOUND('',#127,.T.);
#34=FACE_BOUND('',#128,.T.);
#35=FACE_BOUND('',#129,.T.);
#36=FACE_BOUND('',#130,.T.);
#37=FACE_BOUND('',#131,.T.);
#38=FACE_BOUND('',#132,.T.);
#39=FACE_BOUND('',#133,.T.);
#40=PLANE('',#398);
#41=PLANE('',#406);
#42=PLANE('',#420);
#43=PLANE('',#437);
#44=PLANE('',#440);
#45=B_SPLINE_CURVE_WITH_KNOTS('',3,(#576,#577,#578,#579,#580,#581),
 .UNSPECIFIED.,.F.,.F.,(4,2,4),(-0.734121346040735,-0.732867238953004,-0.376613908418483),
 .UNSPECIFIED.);
#46=B_SPLINE_CURVE_WITH_KNOTS('',3,(#583,#584,#585,#586,#587,#588),
 .UNSPECIFIED.,.F.,.F.,(4,2,4),(-0.356253330308806,0.,0.00125410731499097),
 .UNSPECIFIED.);
#47=LINE('',#572,#63);
#48=LINE('',#659,#64);
#49=LINE('',#663,#65);
#50=LINE('',#685,#66);
#51=LINE('',#687,#67);
#52=LINE('',#688,#68);
#53=LINE('',#691,#69);
#54=LINE('',#695,#70);
#55=LINE('',#699,#71);
#56=LINE('',#703,#72);
#57=LINE('',#707,#73);
#58=LINE('',#711,#74);
#59=LINE('',#715,#75);
#60=LINE('',#720,#76);
#61=LINE('',#723,#77);
#62=LINE('',#724,#78);
#63=VECTOR('',#455,32.373);
#64=VECTOR('',#480,10.);
#65=VECTOR('',#483,10.);
#66=VECTOR('',#508,10.);
#67=VECTOR('',#509,10.);
#68=VECTOR('',#510,10.);
#69=VECTOR('',#513,3.1);
#70=VECTOR('',#518,3.1);
#71=VECTOR('',#523,3.1);
#72=VECTOR('',#528,3.1);
#73=VECTOR('',#533,3.1);
#74=VECTOR('',#538,15.7);
#75=VECTOR('',#543,3.1);
#76=VECTOR('',#550,10.);
#77=VECTOR('',#553,10.);
#78=VECTOR('',#554,10.);
#79=CONICAL_SURFACE('',#395,32.373,0.394791119699762);
#80=FACE_OUTER_BOUND('',#100,.T.);
#81=FACE_OUTER_BOUND('',#101,.T.);
#82=FACE_OUTER_BOUND('',#102,.T.);
#83=FACE_OUTER_BOUND('',#104,.T.);
#84=FACE_OUTER_BOUND('',#105,.T.);
#85=FACE_OUTER_BOUND('',#106,.T.);
#86=FACE_OUTER_BOUND('',#107,.T.);
#87=FACE_OUTER_BOUND('',#114,.T.);
#88=FACE_OUTER_BOUND('',#115,.T.);
#89=FACE_OUTER_BOUND('',#116,.T.);
#90=FACE_OUTER_BOUND('',#117,.T.);
#91=FACE_OUTER_BOUND('',#118,.T.);
#92=FACE_OUTER_BOUND('',#119,.T.);
#93=FACE_OUTER_BOUND('',#120,.T.);
#94=FACE_OUTER_BOUND('',#121,.T.);
#95=FACE_OUTER_BOUND('',#122,.T.);
#96=FACE_OUTER_BOUND('',#123,.T.);
#97=FACE_OUTER_BOUND('',#124,.T.);
#98=FACE_OUTER_BOUND('',#125,.T.);
#99=FACE_OUTER_BOUND('',#126,.T.);
#100=EDGE_LOOP('',(#251,#252,#253,#254,#255));
#101=EDGE_LOOP('',(#256,#257,#258,#259,#260,#261,#262,#263));
#102=EDGE_LOOP('',(#264));
#103=EDGE_LOOP('',(#265));
#104=EDGE_LOOP('',(#266,#267,#268,#269,#270));
#105=EDGE_LOOP('',(#271,#272,#273));
#106=EDGE_LOOP('',(#274,#275,#276));
#107=EDGE_LOOP('',(#277,#278,#279,#280,#281,#282));
#108=EDGE_LOOP('',(#283));
#109=EDGE_LOOP('',(#284));
#110=EDGE_LOOP('',(#285));
#111=EDGE_LOOP('',(#286));
#112=EDGE_LOOP('',(#287));
#113=EDGE_LOOP('',(#288));
#114=EDGE_LOOP('',(#289,#290,#291,#292));
#115=EDGE_LOOP('',(#293,#294,#295,#296,#297));
#116=EDGE_LOOP('',(#298,#299,#300,#301));
#117=EDGE_LOOP('',(#302,#303,#304,#305));
#118=EDGE_LOOP('',(#306,#307,#308,#309));
#119=EDGE_LOOP('',(#310,#311,#312,#313));
#120=EDGE_LOOP('',(#314,#315,#316,#317));
#121=EDGE_LOOP('',(#318,#319,#320,#321));
#122=EDGE_LOOP('',(#322,#323,#324,#325));
#123=EDGE_LOOP('',(#326,#327,#328,#329,#330,#331,#332));
#124=EDGE_LOOP('',(#333,#334,#335,#336,#337));
#125=EDGE_LOOP('',(#338,#339,#340,#341));
#126=EDGE_LOOP('',(#342,#343,#344,#345));
#127=EDGE_LOOP('',(#346));
#128=EDGE_LOOP('',(#347));
#129=EDGE_LOOP('',(#348));
#130=EDGE_LOOP('',(#349));
#131=EDGE_LOOP('',(#350));
#132=EDGE_LOOP('',(#351));
#133=EDGE_LOOP('',(#352));
#134=CIRCLE('',#391,20.1294102564103);
#135=CIRCLE('',#392,1.);
#136=CIRCLE('',#393,19.2063333333333);
#137=CIRCLE('',#394,20.1294102564103);
#138=CIRCLE('',#396,44.6165897435897);
#139=CIRCLE('',#397,44.6165897435897);
#140=CIRCLE('',#399,15.7);
#141=CIRCLE('',#401,1.);
#142=CIRCLE('',#402,1.);
#143=CIRCLE('',#403,45.5396666666667);
#144=CIRCLE('',#404,11.7785115547246);
#145=CIRCLE('',#405,11.7785115547246);
#146=CIRCLE('',#407,11.7785115547246);
#147=CIRCLE('',#408,63.873);
#148=CIRCLE('',#409,11.7785115547246);
#149=CIRCLE('',#410,3.1);
#150=CIRCLE('',#411,3.1);
#151=CIRCLE('',#412,3.1);
#152=CIRCLE('',#413,3.1);
#153=CIRCLE('',#414,3.1);
#154=CIRCLE('',#415,3.1);
#155=CIRCLE('',#417,1.);
#156=CIRCLE('',#418,1.);
#157=CIRCLE('',#419,64.873);
#158=CIRCLE('',#422,3.1);
#159=CIRCLE('',#424,3.1);
#160=CIRCLE('',#426,3.1);
#161=CIRCLE('',#428,3.1);
#162=CIRCLE('',#430,3.1);
#163=CIRCLE('',#432,15.7);
#164=CIRCLE('',#434,3.1);
#165=CIRCLE('',#436,11.7785115547246);
#166=CIRCLE('',#439,64.873);
#167=VERTEX_POINT('',#563);
#168=VERTEX_POINT('',#564);
#169=VERTEX_POINT('',#566);
#170=VERTEX_POINT('',#571);
#171=VERTEX_POINT('',#573);
#172=VERTEX_POINT('',#575);
#173=VERTEX_POINT('',#582);
#174=VERTEX_POINT('',#591);
#175=VERTEX_POINT('',#594);
#176=VERTEX_POINT('',#596);
#177=VERTEX_POINT('',#656);
#178=VERTEX_POINT('',#658);
#179=VERTEX_POINT('',#660);
#180=VERTEX_POINT('',#662);
#181=VERTEX_POINT('',#665);
#182=VERTEX_POINT('',#667);
#183=VERTEX_POINT('',#669);
#184=VERTEX_POINT('',#671);
#185=VERTEX_POINT('',#673);
#186=VERTEX_POINT('',#675);
#187=VERTEX_POINT('',#678);
#188=VERTEX_POINT('',#680);
#189=VERTEX_POINT('',#684);
#190=VERTEX_POINT('',#686);
#191=VERTEX_POINT('',#690);
#192=VERTEX_POINT('',#694);
#193=VERTEX_POINT('',#698);
#194=VERTEX_POINT('',#702);
#195=VERTEX_POINT('',#706);
#196=VERTEX_POINT('',#710);
#197=VERTEX_POINT('',#714);
#198=VERTEX_POINT('',#718);
#199=VERTEX_POINT('',#722);
#200=EDGE_CURVE('',#167,#168,#134,.T.);
#201=EDGE_CURVE('',#168,#169,#135,.T.);
#202=EDGE_CURVE('',#169,#169,#136,.T.);
#203=EDGE_CURVE('',#168,#167,#137,.T.);
#204=EDGE_CURVE('',#167,#170,#47,.T.);
#205=EDGE_CURVE('',#171,#170,#138,.T.);
#206=EDGE_CURVE('',#172,#171,#45,.T.);
#207=EDGE_CURVE('',#173,#172,#46,.T.);
#208=EDGE_CURVE('',#170,#173,#139,.T.);
#209=EDGE_CURVE('',#174,#174,#140,.T.);
#210=EDGE_CURVE('',#175,#171,#141,.T.);
#211=EDGE_CURVE('',#173,#176,#142,.T.);
#212=EDGE_CURVE('',#176,#175,#143,.T.);
#213=EDGE_CURVE('',#175,#172,#144,.T.);
#214=EDGE_CURVE('',#172,#176,#145,.T.);
#215=EDGE_CURVE('',#176,#177,#146,.T.);
#216=EDGE_CURVE('',#177,#178,#48,.T.);
#217=EDGE_CURVE('',#179,#178,#147,.T.);
#218=EDGE_CURVE('',#179,#180,#49,.T.);
#219=EDGE_CURVE('',#180,#175,#148,.T.);
#220=EDGE_CURVE('',#181,#181,#149,.T.);
#221=EDGE_CURVE('',#182,#182,#150,.T.);
#222=EDGE_CURVE('',#183,#183,#151,.T.);
#223=EDGE_CURVE('',#184,#184,#152,.T.);
#224=EDGE_CURVE('',#185,#185,#153,.T.);
#225=EDGE_CURVE('',#186,#186,#154,.T.);
#226=EDGE_CURVE('',#187,#179,#155,.T.);
#227=EDGE_CURVE('',#178,#188,#156,.T.);
#228=EDGE_CURVE('',#188,#187,#157,.T.);
#229=EDGE_CURVE('',#189,#177,#50,.T.);
#230=EDGE_CURVE('',#189,#190,#51,.T.);
#231=EDGE_CURVE('',#190,#188,#52,.T.);
#232=EDGE_CURVE('',#181,#191,#53,.T.);
#233=EDGE_CURVE('',#191,#191,#158,.T.);
#234=EDGE_CURVE('',#182,#192,#54,.T.);
#235=EDGE_CURVE('',#192,#192,#159,.T.);
#236=EDGE_CURVE('',#183,#193,#55,.T.);
#237=EDGE_CURVE('',#193,#193,#160,.T.);
#238=EDGE_CURVE('',#184,#194,#56,.T.);
#239=EDGE_CURVE('',#194,#194,#161,.T.);
#240=EDGE_CURVE('',#185,#195,#57,.T.);
#241=EDGE_CURVE('',#195,#195,#162,.T.);
#242=EDGE_CURVE('',#174,#196,#58,.T.);
#243=EDGE_CURVE('',#196,#196,#163,.T.);
#244=EDGE_CURVE('',#186,#197,#59,.T.);
#245=EDGE_CURVE('',#197,#197,#164,.T.);
#246=EDGE_CURVE('',#189,#198,#165,.T.);
#247=EDGE_CURVE('',#198,#180,#60,.T.);
#248=EDGE_CURVE('',#199,#187,#61,.T.);
#249=EDGE_CURVE('',#198,#199,#62,.T.);
#250=EDGE_CURVE('',#190,#199,#166,.T.);
#251=ORIENTED_EDGE('',*,*,#200,.T.);
#252=ORIENTED_EDGE('',*,*,#201,.T.);
#253=ORIENTED_EDGE('',*,*,#202,.T.);
#254=ORIENTED_EDGE('',*,*,#201,.F.);
#255=ORIENTED_EDGE('',*,*,#203,.T.);
#256=ORIENTED_EDGE('',*,*,#200,.F.);
#257=ORIENTED_EDGE('',*,*,#204,.T.);
#258=ORIENTED_EDGE('',*,*,#205,.F.);
#259=ORIENTED_EDGE('',*,*,#206,.F.);
#260=ORIENTED_EDGE('',*,*,#207,.F.);
#261=ORIENTED_EDGE('',*,*,#208,.F.);
#262=ORIENTED_EDGE('',*,*,#204,.F.);
#263=ORIENTED_EDGE('',*,*,#203,.F.);
#264=ORIENTED_EDGE('',*,*,#202,.F.);
#265=ORIENTED_EDGE('',*,*,#209,.T.);
#266=ORIENTED_EDGE('',*,*,#210,.T.);
#267=ORIENTED_EDGE('',*,*,#205,.T.);
#268=ORIENTED_EDGE('',*,*,#208,.T.);
#269=ORIENTED_EDGE('',*,*,#211,.T.);
#270=ORIENTED_EDGE('',*,*,#212,.T.);
#271=ORIENTED_EDGE('',*,*,#210,.F.);
#272=ORIENTED_EDGE('',*,*,#213,.T.);
#273=ORIENTED_EDGE('',*,*,#206,.T.);
#274=ORIENTED_EDGE('',*,*,#211,.F.);
#275=ORIENTED_EDGE('',*,*,#207,.T.);
#276=ORIENTED_EDGE('',*,*,#214,.T.);
#277=ORIENTED_EDGE('',*,*,#212,.F.);
#278=ORIENTED_EDGE('',*,*,#215,.T.);
#279=ORIENTED_EDGE('',*,*,#216,.T.);
#280=ORIENTED_EDGE('',*,*,#217,.F.);
#281=ORIENTED_EDGE('',*,*,#218,.T.);
#282=ORIENTED_EDGE('',*,*,#219,.T.);
#283=ORIENTED_EDGE('',*,*,#220,.T.);
#284=ORIENTED_EDGE('',*,*,#221,.T.);
#285=ORIENTED_EDGE('',*,*,#222,.T.);
#286=ORIENTED_EDGE('',*,*,#223,.T.);
#287=ORIENTED_EDGE('',*,*,#224,.T.);
#288=ORIENTED_EDGE('',*,*,#225,.T.);
#289=ORIENTED_EDGE('',*,*,#226,.T.);
#290=ORIENTED_EDGE('',*,*,#217,.T.);
#291=ORIENTED_EDGE('',*,*,#227,.T.);
#292=ORIENTED_EDGE('',*,*,#228,.T.);
#293=ORIENTED_EDGE('',*,*,#227,.F.);
#294=ORIENTED_EDGE('',*,*,#216,.F.);
#295=ORIENTED_EDGE('',*,*,#229,.F.);
#296=ORIENTED_EDGE('',*,*,#230,.T.);
#297=ORIENTED_EDGE('',*,*,#231,.T.);
#298=ORIENTED_EDGE('',*,*,#220,.F.);
#299=ORIENTED_EDGE('',*,*,#232,.T.);
#300=ORIENTED_EDGE('',*,*,#233,.T.);
#301=ORIENTED_EDGE('',*,*,#232,.F.);
#302=ORIENTED_EDGE('',*,*,#221,.F.);
#303=ORIENTED_EDGE('',*,*,#234,.T.);
#304=ORIENTED_EDGE('',*,*,#235,.T.);
#305=ORIENTED_EDGE('',*,*,#234,.F.);
#306=ORIENTED_EDGE('',*,*,#222,.F.);
#307=ORIENTED_EDGE('',*,*,#236,.T.);
#308=ORIENTED_EDGE('',*,*,#237,.T.);
#309=ORIENTED_EDGE('',*,*,#236,.F.);
#310=ORIENTED_EDGE('',*,*,#223,.F.);
#311=ORIENTED_EDGE('',*,*,#238,.T.);
#312=ORIENTED_EDGE('',*,*,#239,.T.);
#313=ORIENTED_EDGE('',*,*,#238,.F.);
#314=ORIENTED_EDGE('',*,*,#224,.F.);
#315=ORIENTED_EDGE('',*,*,#240,.T.);
#316=ORIENTED_EDGE('',*,*,#241,.T.);
#317=ORIENTED_EDGE('',*,*,#240,.F.);
#318=ORIENTED_EDGE('',*,*,#209,.F.);
#319=ORIENTED_EDGE('',*,*,#242,.T.);
#320=ORIENTED_EDGE('',*,*,#243,.T.);
#321=ORIENTED_EDGE('',*,*,#242,.F.);
#322=ORIENTED_EDGE('',*,*,#225,.F.);
#323=ORIENTED_EDGE('',*,*,#244,.T.);
#324=ORIENTED_EDGE('',*,*,#245,.T.);
#325=ORIENTED_EDGE('',*,*,#244,.F.);
#326=ORIENTED_EDGE('',*,*,#246,.F.);
#327=ORIENTED_EDGE('',*,*,#229,.T.);
#328=ORIENTED_EDGE('',*,*,#215,.F.);
#329=ORIENTED_EDGE('',*,*,#214,.F.);
#330=ORIENTED_EDGE('',*,*,#213,.F.);
#331=ORIENTED_EDGE('',*,*,#219,.F.);
#332=ORIENTED_EDGE('',*,*,#247,.F.);
#333=ORIENTED_EDGE('',*,*,#226,.F.);
#334=ORIENTED_EDGE('',*,*,#248,.F.);
#335=ORIENTED_EDGE('',*,*,#249,.F.);
#336=ORIENTED_EDGE('',*,*,#247,.T.);
#337=ORIENTED_EDGE('',*,*,#218,.F.);
#338=ORIENTED_EDGE('',*,*,#228,.F.);
#339=ORIENTED_EDGE('',*,*,#231,.F.);
#340=ORIENTED_EDGE('',*,*,#250,.T.);
#341=ORIENTED_EDGE('',*,*,#248,.T.);
#342=ORIENTED_EDGE('',*,*,#230,.F.);
#343=ORIENTED_EDGE('',*,*,#246,.T.);
#344=ORIENTED_EDGE('',*,*,#249,.T.);
#345=ORIENTED_EDGE('',*,*,#250,.F.);
#346=ORIENTED_EDGE('',*,*,#245,.F.);
#347=ORIENTED_EDGE('',*,*,#243,.F.);
#348=ORIENTED_EDGE('',*,*,#241,.F.);
#349=ORIENTED_EDGE('',*,*,#239,.F.);
#350=ORIENTED_EDGE('',*,*,#237,.F.);
#351=ORIENTED_EDGE('',*,*,#235,.F.);
#352=ORIENTED_EDGE('',*,*,#233,.F.);
#353=TOROIDAL_SURFACE('',#390,19.2063333333333,1.);
#354=TOROIDAL_SURFACE('',#400,45.5396666666667,1.);
#355=TOROIDAL_SURFACE('',#416,63.873,1.);
#356=ADVANCED_FACE('',(#80),#353,.T.);
#357=ADVANCED_FACE('',(#81),#79,.T.);
#358=ADVANCED_FACE('',(#82,#26),#40,.T.);
#359=ADVANCED_FACE('',(#83),#354,.F.);
#360=ADVANCED_FACE('',(#84),#24,.T.);
#361=ADVANCED_FACE('',(#85),#25,.T.);
#362=ADVANCED_FACE('',(#86,#27,#28,#29,#30,#31,#32),#41,.T.);
#363=ADVANCED_FACE('',(#87),#355,.T.);
#364=ADVANCED_FACE('',(#88),#42,.T.);
#365=ADVANCED_FACE('',(#89),#15,.F.);
#366=ADVANCED_FACE('',(#90),#16,.F.);
#367=ADVANCED_FACE('',(#91),#17,.F.);
#368=ADVANCED_FACE('',(#92),#18,.F.);
#369=ADVANCED_FACE('',(#93),#19,.F.);
#370=ADVANCED_FACE('',(#94),#20,.F.);
#371=ADVANCED_FACE('',(#95),#21,.F.);
#372=ADVANCED_FACE('',(#96),#22,.F.);
#373=ADVANCED_FACE('',(#97),#43,.T.);
#374=ADVANCED_FACE('',(#98),#23,.T.);
#375=ADVANCED_FACE('',(#99,#33,#34,#35,#36,#37,#38,#39),#44,.F.);
#376=CLOSED_SHELL('',(#356,#357,#358,#359,#360,#361,#362,#363,#364,#365,
#366,#367,#368,#369,#370,#371,#372,#373,#374,#375));
#377=DERIVED_UNIT_ELEMENT(#379,1.);
#378=DERIVED_UNIT_ELEMENT(#733,-3.);
#379=(
MASS_UNIT()
NAMED_UNIT(*)
SI_UNIT(.KILO.,.GRAM.)
);
#380=DERIVED_UNIT((#377,#378));
#381=MEASURE_REPRESENTATION_ITEM('density measure',
POSITIVE_RATIO_MEASURE(7850.),#380);
#382=PROPERTY_DEFINITION_REPRESENTATION(#387,#384);
#383=PROPERTY_DEFINITION_REPRESENTATION(#388,#385);
#384=REPRESENTATION('material name',(#386),#730);
#385=REPRESENTATION('density',(#381),#730);
#386=DESCRIPTIVE_REPRESENTATION_ITEM('Stahl','Stahl');
#387=PROPERTY_DEFINITION('material property','material name',#740);
#388=PROPERTY_DEFINITION('material property','density of part',#740);
#389=AXIS2_PLACEMENT_3D('',#561,#441,#442);
#390=AXIS2_PLACEMENT_3D('',#562,#443,#444);
#391=AXIS2_PLACEMENT_3D('',#565,#445,#446);
#392=AXIS2_PLACEMENT_3D('',#567,#447,#448);
#393=AXIS2_PLACEMENT_3D('',#568,#449,#450);
#394=AXIS2_PLACEMENT_3D('',#569,#451,#452);
#395=AXIS2_PLACEMENT_3D('',#570,#453,#454);
#396=AXIS2_PLACEMENT_3D('',#574,#456,#457);
#397=AXIS2_PLACEMENT_3D('',#589,#458,#459);
#398=AXIS2_PLACEMENT_3D('',#590,#460,#461);
#399=AXIS2_PLACEMENT_3D('',#592,#462,#463);
#400=AXIS2_PLACEMENT_3D('',#593,#464,#465);
#401=AXIS2_PLACEMENT_3D('',#595,#466,#467);
#402=AXIS2_PLACEMENT_3D('',#597,#468,#469);
#403=AXIS2_PLACEMENT_3D('',#598,#470,#471);
#404=AXIS2_PLACEMENT_3D('',#623,#472,#473);
#405=AXIS2_PLACEMENT_3D('',#654,#474,#475);
#406=AXIS2_PLACEMENT_3D('',#655,#476,#477);
#407=AXIS2_PLACEMENT_3D('',#657,#478,#479);
#408=AXIS2_PLACEMENT_3D('',#661,#481,#482);
#409=AXIS2_PLACEMENT_3D('',#664,#484,#485);
#410=AXIS2_PLACEMENT_3D('',#666,#486,#487);
#411=AXIS2_PLACEMENT_3D('',#668,#488,#489);
#412=AXIS2_PLACEMENT_3D('',#670,#490,#491);
#413=AXIS2_PLACEMENT_3D('',#672,#492,#493);
#414=AXIS2_PLACEMENT_3D('',#674,#494,#495);
#415=AXIS2_PLACEMENT_3D('',#676,#496,#497);
#416=AXIS2_PLACEMENT_3D('',#677,#498,#499);
#417=AXIS2_PLACEMENT_3D('',#679,#500,#501);
#418=AXIS2_PLACEMENT_3D('',#681,#502,#503);
#419=AXIS2_PLACEMENT_3D('',#682,#504,#505);
#420=AXIS2_PLACEMENT_3D('',#683,#506,#507);
#421=AXIS2_PLACEMENT_3D('',#689,#511,#512);
#422=AXIS2_PLACEMENT_3D('',#692,#514,#515);
#423=AXIS2_PLACEMENT_3D('',#693,#516,#517);
#424=AXIS2_PLACEMENT_3D('',#696,#519,#520);
#425=AXIS2_PLACEMENT_3D('',#697,#521,#522);
#426=AXIS2_PLACEMENT_3D('',#700,#524,#525);
#427=AXIS2_PLACEMENT_3D('',#701,#526,#527);
#428=AXIS2_PLACEMENT_3D('',#704,#529,#530);
#429=AXIS2_PLACEMENT_3D('',#705,#531,#532);
#430=AXIS2_PLACEMENT_3D('',#708,#534,#535);
#431=AXIS2_PLACEMENT_3D('',#709,#536,#537);
#432=AXIS2_PLACEMENT_3D('',#712,#539,#540);
#433=AXIS2_PLACEMENT_3D('',#713,#541,#542);
#434=AXIS2_PLACEMENT_3D('',#716,#544,#545);
#435=AXIS2_PLACEMENT_3D('',#717,#546,#547);
#436=AXIS2_PLACEMENT_3D('',#719,#548,#549);
#437=AXIS2_PLACEMENT_3D('',#721,#551,#552);
#438=AXIS2_PLACEMENT_3D('',#725,#555,#556);
#439=AXIS2_PLACEMENT_3D('',#726,#557,#558);
#440=AXIS2_PLACEMENT_3D('',#727,#559,#560);
#441=DIRECTION('axis',(0.,0.,1.));
#442=DIRECTION('refdir',(1.,0.,0.));
#443=DIRECTION('center_axis',(0.,0.,-1.));
#444=DIRECTION('ref_axis',(-1.,0.,0.));
#445=DIRECTION('center_axis',(0.,0.,1.));
#446=DIRECTION('ref_axis',(1.,6.12323399573676E-17,0.));
#447=DIRECTION('center_axis',(-1.22464679914735E-16,-1.,0.));
#448=DIRECTION('ref_axis',(1.,-1.22464679914735E-16,0.));
#449=DIRECTION('center_axis',(0.,0.,-1.));
#450=DIRECTION('ref_axis',(1.,0.,0.));
#451=DIRECTION('center_axis',(0.,0.,1.));
#452=DIRECTION('ref_axis',(1.,6.12323399573676E-17,0.));
#453=DIRECTION('center_axis',(0.,0.,-1.));
#454=DIRECTION('ref_axis',(1.,0.,0.));
#455=DIRECTION('',(-0.384615384615385,-4.71017999672059E-17,-0.923076923076923));
#456=DIRECTION('center_axis',(0.,0.,-1.));
#457=DIRECTION('ref_axis',(-1.,0.,0.));
#458=DIRECTION('center_axis',(0.,0.,-1.));
#459=DIRECTION('ref_axis',(-1.,0.,0.));
#460=DIRECTION('center_axis',(0.,0.,1.));
#461=DIRECTION('ref_axis',(1.,0.,0.));
#462=DIRECTION('center_axis',(0.,0.,-1.));
#463=DIRECTION('ref_axis',(1.,0.,0.));
#464=DIRECTION('center_axis',(0.,0.,-1.));
#465=DIRECTION('ref_axis',(-1.,0.,0.));
#466=DIRECTION('center_axis',(0.0768526107566152,0.997042464602131,2.76734875182574E-15));
#467=DIRECTION('ref_axis',(0.,2.77555756156289E-15,-1.));
#468=DIRECTION('center_axis',(0.0768526107566184,-0.997042464602131,-4.98122775328634E-15));
#469=DIRECTION('ref_axis',(-0.920346890401969,-0.0709408714676459,-0.384615384615381));
#470=DIRECTION('center_axis',(0.,0.,1.));
#471=DIRECTION('ref_axis',(-1.,1.22464679914735E-16,0.));
#472=DIRECTION('center_axis',(0.,0.,-1.));
#473=DIRECTION('ref_axis',(1.,0.,0.));
#474=DIRECTION('center_axis',(0.,0.,-1.));
#475=DIRECTION('ref_axis',(1.,0.,0.));
#476=DIRECTION('center_axis',(0.,0.,1.));
#477=DIRECTION('ref_axis',(1.,0.,0.));
#478=DIRECTION('center_axis',(0.,0.,-1.));
#479=DIRECTION('ref_axis',(1.,0.,0.));
#480=DIRECTION('',(0.978147600733805,0.207911690817759,0.));
#481=DIRECTION('center_axis',(0.,0.,-1.));
#482=DIRECTION('ref_axis',(-1.,1.22464679914735E-16,0.));
#483=DIRECTION('',(-0.978147600733805,0.207911690817759,0.));
#484=DIRECTION('center_axis',(0.,0.,-1.));
#485=DIRECTION('ref_axis',(1.,0.,0.));
#486=DIRECTION('center_axis',(0.,0.,-1.));
#487=DIRECTION('ref_axis',(1.,0.,0.));
#488=DIRECTION('center_axis',(0.,0.,-1.));
#489=DIRECTION('ref_axis',(1.,0.,0.));
#490=DIRECTION('center_axis',(0.,0.,-1.));
#491=DIRECTION('ref_axis',(1.,0.,0.));
#492=DIRECTION('center_axis',(0.,0.,-1.));
#493=DIRECTION('ref_axis',(1.,0.,0.));
#494=DIRECTION('center_axis',(0.,0.,-1.));
#495=DIRECTION('ref_axis',(1.,0.,0.));
#496=DIRECTION('center_axis',(0.,0.,-1.));
#497=DIRECTION('ref_axis',(1.,0.,0.));
#498=DIRECTION('center_axis',(0.,0.,1.));
#499=DIRECTION('ref_axis',(-1.,-1.22464679914735E-16,0.));
#500=DIRECTION('center_axis',(-0.207911690817759,-0.978147600733806,0.));
#501=DIRECTION('ref_axis',(0.978147600733806,-0.207911690817759,0.));
#502=DIRECTION('center_axis',(-0.207911690817759,0.978147600733806,0.));
#503=DIRECTION('ref_axis',(0.978147600733806,0.207911690817759,0.));
#504=DIRECTION('center_axis',(0.,0.,1.));
#505=DIRECTION('ref_axis',(-1.,1.22464679914735E-16,0.));
#506=DIRECTION('center_axis',(0.207911690817759,-0.978147600733806,0.));
#507=DIRECTION('ref_axis',(0.978147600733806,0.207911690817759,0.));
#508=DIRECTION('',(0.,0.,1.));
#509=DIRECTION('',(0.978147600733805,0.207911690817759,0.));
#510=DIRECTION('',(0.,0.,1.));
#511=DIRECTION('center_axis',(0.,0.,1.));
#512=DIRECTION('ref_axis',(1.,0.,0.));
#513=DIRECTION('',(0.,0.,-1.));
#514=DIRECTION('center_axis',(0.,0.,-1.));
#515=DIRECTION('ref_axis',(1.,0.,0.));
#516=DIRECTION('center_axis',(0.,0.,1.));
#517=DIRECTION('ref_axis',(1.,0.,0.));
#518=DIRECTION('',(0.,0.,-1.));
#519=DIRECTION('center_axis',(0.,0.,-1.));
#520=DIRECTION('ref_axis',(1.,0.,0.));
#521=DIRECTION('center_axis',(0.,0.,1.));
#522=DIRECTION('ref_axis',(1.,0.,0.));
#523=DIRECTION('',(0.,0.,-1.));
#524=DIRECTION('center_axis',(0.,0.,-1.));
#525=DIRECTION('ref_axis',(1.,0.,0.));
#526=DIRECTION('center_axis',(0.,0.,1.));
#527=DIRECTION('ref_axis',(1.,0.,0.));
#528=DIRECTION('',(0.,0.,-1.));
#529=DIRECTION('center_axis',(0.,0.,-1.));
#530=DIRECTION('ref_axis',(1.,0.,0.));
#531=DIRECTION('center_axis',(0.,0.,1.));
#532=DIRECTION('ref_axis',(1.,0.,0.));
#533=DIRECTION('',(0.,0.,-1.));
#534=DIRECTION('center_axis',(0.,0.,-1.));
#535=DIRECTION('ref_axis',(1.,0.,0.));
#536=DIRECTION('center_axis',(0.,0.,1.));
#537=DIRECTION('ref_axis',(1.,0.,0.));
#538=DIRECTION('',(0.,0.,-1.));
#539=DIRECTION('center_axis',(0.,0.,-1.));
#540=DIRECTION('ref_axis',(1.,0.,0.));
#541=DIRECTION('center_axis',(0.,0.,1.));
#542=DIRECTION('ref_axis',(1.,0.,0.));
#543=DIRECTION('',(0.,0.,-1.));
#544=DIRECTION('center_axis',(0.,0.,-1.));
#545=DIRECTION('ref_axis',(1.,0.,0.));
#546=DIRECTION('center_axis',(0.,0.,1.));
#547=DIRECTION('ref_axis',(-0.999999999997555,2.21140446544497E-6,0.));
#548=DIRECTION('center_axis',(0.,0.,1.));
#549=DIRECTION('ref_axis',(1.,0.,0.));
#550=DIRECTION('',(0.,0.,1.));
#551=DIRECTION('center_axis',(0.207911690817759,0.978147600733806,0.));
#552=DIRECTION('ref_axis',(-0.978147600733806,0.207911690817759,0.));
#553=DIRECTION('',(0.,0.,1.));
#554=DIRECTION('',(0.978147600733805,-0.207911690817759,0.));
#555=DIRECTION('center_axis',(0.,0.,1.));
#556=DIRECTION('ref_axis',(-1.,1.22464679914735E-16,0.));
#557=DIRECTION('center_axis',(0.,0.,1.));
#558=DIRECTION('ref_axis',(1.,0.,0.));
#559=DIRECTION('center_axis',(0.,0.,1.));
#560=DIRECTION('ref_axis',(1.,0.,0.));
#561=CARTESIAN_POINT('',(0.,0.,0.));
#562=CARTESIAN_POINT('Origin',(0.,0.,65.));
#563=CARTESIAN_POINT('',(-20.1294102564103,-4.93028356784734E-15,65.3846153846154));
#564=CARTESIAN_POINT('',(20.1294102564103,-2.46514178392367E-15,65.3846153846154));
#565=CARTESIAN_POINT('Origin',(0.,-1.23257089196184E-15,65.3846153846154));
#566=CARTESIAN_POINT('',(19.2063333333333,-2.35209746400238E-15,66.));
#567=CARTESIAN_POINT('Origin',(19.2063333333333,-2.35209746400238E-15,65.));
#568=CARTESIAN_POINT('Origin',(0.,0.,66.));
#569=CARTESIAN_POINT('Origin',(0.,-1.23257089196184E-15,65.3846153846154));
#570=CARTESIAN_POINT('Origin',(0.,0.,36.));
#571=CARTESIAN_POINT('',(-44.6165897435897,-5.46395638183578E-15,6.61538461538462));
#572=CARTESIAN_POINT('',(-32.373,-3.96454908287973E-15,36.));
#573=CARTESIAN_POINT('',(44.4846346000909,-3.42890140485173,6.61538461538462));
#574=CARTESIAN_POINT('Origin',(0.,-5.46395638183578E-15,6.61538461538462));
#575=CARTESIAN_POINT('',(44.873,-1.75878935678107E-15,6.));
#576=CARTESIAN_POINT('Ctrl Pts',(44.873,-7.7799440182895E-16,6.));
#577=CARTESIAN_POINT('Ctrl Pts',(44.8725039694292,-0.00389629354250177,
6.00119047336999));
#578=CARTESIAN_POINT('Ctrl Pts',(44.8720066256997,-0.00779208452123148,
6.00238217637857));
#579=CARTESIAN_POINT('Ctrl Pts',(44.7310223812539,-1.11896313967034,6.34033502660042));
#580=CARTESIAN_POINT('Ctrl Pts',(44.5740480451866,-2.2689017537129,6.61538461538462));
#581=CARTESIAN_POINT('Ctrl Pts',(44.4846346000909,-3.42890140485173,6.61538461538462));
#582=CARTESIAN_POINT('',(44.4846346000909,3.42890140485172,6.61538461538462));
#583=CARTESIAN_POINT('Ctrl Pts',(44.4846346000909,3.42890140485173,6.61538461538462));
#584=CARTESIAN_POINT('Ctrl Pts',(44.5740480451299,2.26890175444785,6.61538461538461));
#585=CARTESIAN_POINT('Ctrl Pts',(44.7309066265673,1.11887247452773,6.34053732552674));
#586=CARTESIAN_POINT('Ctrl Pts',(44.8720069158119,0.00779231036217124,6.00238166770887));
#587=CARTESIAN_POINT('Ctrl Pts',(44.8725039693414,0.00389629422835114,6.00119047358075));
#588=CARTESIAN_POINT('Ctrl Pts',(44.873,-1.23662879206852E-15,6.));
#589=CARTESIAN_POINT('Origin',(0.,-5.46395638183578E-15,6.61538461538462));
#590=CARTESIAN_POINT('Origin',(0.,0.,66.));
#591=CARTESIAN_POINT('',(-15.7,-1.92269547466134E-15,66.));
#592=CARTESIAN_POINT('Origin',(0.,0.,66.));
#593=CARTESIAN_POINT('Origin',(0.,0.,7.));
#594=CARTESIAN_POINT('',(45.4049814904929,-3.49984227631938,6.));
#595=CARTESIAN_POINT('Origin',(45.4049814904929,-3.49984227631938,7.));
#596=CARTESIAN_POINT('',(45.4049814904929,3.49984227631937,6.));
#597=CARTESIAN_POINT('Origin',(45.4049814904929,3.49984227631937,7.));
#598=CARTESIAN_POINT('Origin',(0.,0.,6.));
#599=CARTESIAN_POINT('Ctrl Pts',(44.873,-7.7799440182895E-16,6.));
#600=CARTESIAN_POINT('Ctrl Pts',(44.873,-0.00431457512559488,6.));
#601=CARTESIAN_POINT('Ctrl Pts',(44.8730048985676,-0.00862237092095964,
6.));
#602=CARTESIAN_POINT('Ctrl Pts',(44.8733291030446,-1.24102558243123,6.));
#603=CARTESIAN_POINT('Ctrl Pts',(45.0771179241076,-2.44627266797816,6.));
#604=CARTESIAN_POINT('Ctrl Pts',(45.4049814904929,-3.49984227631937,6.));
#605=CARTESIAN_POINT('Ctrl Pts',(44.873,-7.7799440182895E-16,6.));
#606=CARTESIAN_POINT('Ctrl Pts',(44.8729670952433,-0.00395603467702386,
6.00049761319193));
#607=CARTESIAN_POINT('Ctrl Pts',(44.8725458242888,-0.0085520808447953,6.00069700523991));
#608=CARTESIAN_POINT('Ctrl Pts',(44.8296441553076,-1.19444345712991,6.11671534769571));
#609=CARTESIAN_POINT('Ctrl Pts',(44.8272400445649,-2.40197316331893,6.16356103723112));
#610=CARTESIAN_POINT('Ctrl Pts',(45.0141391138038,-3.46971591950983,6.));
#611=CARTESIAN_POINT('Ctrl Pts',(44.873,-7.7799440182895E-16,6.));
#612=CARTESIAN_POINT('Ctrl Pts',(44.8726740466393,-0.00397625195171631,
6.00082317621105));
#613=CARTESIAN_POINT('Ctrl Pts',(44.8723327680815,-0.00812710283029495,
6.00156046496148));
#614=CARTESIAN_POINT('Ctrl Pts',(44.7786417393209,-1.15726229815151,6.22724052574018));
#615=CARTESIAN_POINT('Ctrl Pts',(44.6673506286201,-2.33839180513423,6.38044699295715));
#616=CARTESIAN_POINT('Ctrl Pts',(44.6349585911251,-3.44048846516309,6.25353685935534));
#617=CARTESIAN_POINT('Ctrl Pts',(44.873,-7.7799440182895E-16,6.));
#618=CARTESIAN_POINT('Ctrl Pts',(44.8725039694292,-0.00389629354250177,
6.00119047336999));
#619=CARTESIAN_POINT('Ctrl Pts',(44.8720066256997,-0.00779208452123148,
6.00238217637857));
#620=CARTESIAN_POINT('Ctrl Pts',(44.7310223812539,-1.11896313967034,6.34033502660042));
#621=CARTESIAN_POINT('Ctrl Pts',(44.5740480451866,-2.2689017537129,6.61538461538462));
#622=CARTESIAN_POINT('Ctrl Pts',(44.4846346000909,-3.42890140485173,6.61538461538462));
#623=CARTESIAN_POINT('Origin',(56.6515115547246,-2.22044604925031E-15,6.));
#624=CARTESIAN_POINT('Ctrl Pts',(45.4049814904929,3.49984227631937,6.));
#625=CARTESIAN_POINT('Ctrl Pts',(45.0771179243153,2.44627266864568,6.));
#626=CARTESIAN_POINT('Ctrl Pts',(44.8736202366834,1.24031897560117,6.00000000000004));
#627=CARTESIAN_POINT('Ctrl Pts',(44.8730041800334,0.00862412847114371,6.));
#628=CARTESIAN_POINT('Ctrl Pts',(44.873,0.00431457588591738,6.));
#629=CARTESIAN_POINT('Ctrl Pts',(44.873,-7.77994401828949E-16,6.));
#630=CARTESIAN_POINT('Ctrl Pts',(45.2095603021483,3.4847790979146,6.));
#631=CARTESIAN_POINT('Ctrl Pts',(44.9500155560616,2.42841306204497,6.08089767905437));
#632=CARTESIAN_POINT('Ctrl Pts',(44.8503652368866,1.21889691608881,6.05748694776088));
#633=CARTESIAN_POINT('Ctrl Pts',(44.8728356380998,0.00848841298362889,6.00039471703374));
#634=CARTESIAN_POINT('Ctrl Pts',(44.8729173282236,0.00424486227632302,6.00019841226346));
#635=CARTESIAN_POINT('Ctrl Pts',(44.873,-8.54433466868878E-16,6.));
#636=CARTESIAN_POINT('Ctrl Pts',(44.8192088754572,3.4546905838153,6.11873470413912));
#637=CARTESIAN_POINT('Ctrl Pts',(44.7451910306301,2.37684672269925,6.27301888744511));
#638=CARTESIAN_POINT('Ctrl Pts',(44.8027226572221,1.17761160964393,6.1705054640448));
#639=CARTESIAN_POINT('Ctrl Pts',(44.8725023664179,0.00821312713571026,6.0011893881038));
#640=CARTESIAN_POINT('Ctrl Pts',(44.8727519846707,0.00410543505713424,6.00059523679038));
#641=CARTESIAN_POINT('Ctrl Pts',(44.873,-1.00731159694874E-15,6.));
#642=CARTESIAN_POINT('Ctrl Pts',(44.559796595608,3.43469493500741,6.43446073736999));
#643=CARTESIAN_POINT('Ctrl Pts',(44.621410676561,2.30516848883043,6.49773559615758));
#644=CARTESIAN_POINT('Ctrl Pts',(44.754710981004,1.1384306416451,6.2837940238013));
#645=CARTESIAN_POINT('Ctrl Pts',(44.8721720648638,0.00793263649017713,6.00198426796724));
#646=CARTESIAN_POINT('Ctrl Pts',(44.8725866411178,0.00396600783794553,6.0009920613173));
#647=CARTESIAN_POINT('Ctrl Pts',(44.873,-1.16018972702859E-15,6.));
#648=CARTESIAN_POINT('Ctrl Pts',(44.4846346000909,3.42890140485173,6.61538461538462));
#649=CARTESIAN_POINT('Ctrl Pts',(44.5740480451299,2.26890175444785,6.61538461538461));
#650=CARTESIAN_POINT('Ctrl Pts',(44.7309066265673,1.11887247452773,6.34053732552674));
#651=CARTESIAN_POINT('Ctrl Pts',(44.8720069158119,0.00779231036217124,6.00238166770887));
#652=CARTESIAN_POINT('Ctrl Pts',(44.8725039693414,0.00389629422835114,6.00119047358075));
#653=CARTESIAN_POINT('Ctrl Pts',(44.873,-1.23662879206852E-15,6.));
#654=CARTESIAN_POINT('Origin',(56.6515115547246,-2.22044604925031E-15,6.));
#655=CARTESIAN_POINT('Origin',(-0.708815348797911,0.,6.));
#656=CARTESIAN_POINT('',(54.2026213157799,11.5211228203844,6.));
#657=CARTESIAN_POINT('Origin',(56.6515115547246,-2.22044604925031E-15,6.));
#658=CARTESIAN_POINT('',(62.4772217016704,13.2799434276027,6.));
#659=CARTESIAN_POINT('',(0.,0.,6.));
#660=CARTESIAN_POINT('',(62.4772217016704,-13.2799434276027,6.));
#661=CARTESIAN_POINT('Origin',(0.,0.,6.));
#662=CARTESIAN_POINT('',(54.202570360079,-11.5211119892981,6.));
#663=CARTESIAN_POINT('',(0.,0.,6.));
#664=CARTESIAN_POINT('Origin',(56.6515115547246,-2.22044604925031E-15,6.));
#665=CARTESIAN_POINT('',(-41.9010704040494,-38.8010704040494,6.));
#666=CARTESIAN_POINT('Origin',(-38.8010704040494,-38.8010704040494,6.));
#667=CARTESIAN_POINT('',(35.7010704040494,-38.8010704040494,6.));
#668=CARTESIAN_POINT('Origin',(38.8010704040494,-38.8010704040494,6.));
#669=CARTESIAN_POINT('',(-3.09999999999999,-54.873,6.));
#670=CARTESIAN_POINT('Origin',(1.21842536060512E-14,-54.873,6.));
#671=CARTESIAN_POINT('',(-3.09999999999999,54.873,6.));
#672=CARTESIAN_POINT('Origin',(1.21842536060512E-14,54.873,6.));
#673=CARTESIAN_POINT('',(35.7010704040494,38.8010704040494,6.));
#674=CARTESIAN_POINT('Origin',(38.8010704040494,38.8010704040494,6.));
#675=CARTESIAN_POINT('',(-41.9010704040494,38.8010704040494,6.));
#676=CARTESIAN_POINT('Origin',(-38.8010704040494,38.8010704040494,6.));
#677=CARTESIAN_POINT('Origin',(0.,0.,5.));
#678=CARTESIAN_POINT('',(63.4553693024042,-13.4878551184205,5.));
#679=CARTESIAN_POINT('Origin',(62.4772217016704,-13.2799434276027,5.));
#680=CARTESIAN_POINT('',(63.4553693024042,13.4878551184205,5.));
#681=CARTESIAN_POINT('Origin',(62.4772217016704,13.2799434276027,5.));
#682=CARTESIAN_POINT('Origin',(0.,0.,5.));
#683=CARTESIAN_POINT('Origin',(54.2026213157799,11.5211228203844,0.));
#684=CARTESIAN_POINT('',(54.2026213157799,11.5211228203844,0.));
#685=CARTESIAN_POINT('',(54.2026213157799,11.5211228203844,0.));
#686=CARTESIAN_POINT('',(63.4553693024042,13.4878551184205,0.));
#687=CARTESIAN_POINT('',(0.,0.,0.));
#688=CARTESIAN_POINT('',(63.4553693024042,13.4878551184205,0.));
#689=CARTESIAN_POINT('Origin',(-38.8010704040494,-38.8010704040494,0.));
#690=CARTESIAN_POINT('',(-41.9010704040494,-38.8010704040494,0.));
#691=CARTESIAN_POINT('',(-41.9010704040494,-38.8010704040494,0.));
#692=CARTESIAN_POINT('Origin',(-38.8010704040494,-38.8010704040494,0.));
#693=CARTESIAN_POINT('Origin',(38.8010704040494,-38.8010704040494,0.));
#694=CARTESIAN_POINT('',(35.7010704040494,-38.8010704040494,0.));
#695=CARTESIAN_POINT('',(35.7010704040494,-38.8010704040494,0.));
#696=CARTESIAN_POINT('Origin',(38.8010704040494,-38.8010704040494,0.));
#697=CARTESIAN_POINT('Origin',(1.21842536060512E-14,-54.873,0.));
#698=CARTESIAN_POINT('',(-3.09999999999999,-54.873,0.));
#699=CARTESIAN_POINT('',(-3.09999999999999,-54.873,0.));
#700=CARTESIAN_POINT('Origin',(1.21842536060512E-14,-54.873,0.));
#701=CARTESIAN_POINT('Origin',(1.21842536060512E-14,54.873,0.));
#702=CARTESIAN_POINT('',(-3.09999999999999,54.873,0.));
#703=CARTESIAN_POINT('',(-3.09999999999999,54.873,0.));
#704=CARTESIAN_POINT('Origin',(1.21842536060512E-14,54.873,0.));
#705=CARTESIAN_POINT('Origin',(38.8010704040494,38.8010704040494,0.));
#706=CARTESIAN_POINT('',(35.7010704040494,38.8010704040494,0.));
#707=CARTESIAN_POINT('',(35.7010704040494,38.8010704040494,0.));
#708=CARTESIAN_POINT('Origin',(38.8010704040494,38.8010704040494,0.));
#709=CARTESIAN_POINT('Origin',(0.,0.,0.));
#710=CARTESIAN_POINT('',(-15.7,-1.92269547466134E-15,0.));
#711=CARTESIAN_POINT('',(-15.7,-1.92269547466134E-15,0.));
#712=CARTESIAN_POINT('Origin',(0.,0.,0.));
#713=CARTESIAN_POINT('Origin',(-38.8010704040494,38.8010704040494,0.));
#714=CARTESIAN_POINT('',(-41.9010704040494,38.8010704040494,0.));
#715=CARTESIAN_POINT('',(-41.9010704040494,38.8010704040494,0.));
#716=CARTESIAN_POINT('Origin',(-38.8010704040494,38.8010704040494,0.));
#717=CARTESIAN_POINT('Origin',(56.6515115547246,-2.22044604925031E-15,0.));
#718=CARTESIAN_POINT('',(54.202570360079,-11.5211119892981,0.));
#719=CARTESIAN_POINT('Origin',(56.6515115547246,-2.22044604925031E-15,0.));
#720=CARTESIAN_POINT('',(54.202570360079,-11.5211119892981,0.));
#721=CARTESIAN_POINT('Origin',(63.4553693024042,-13.4878551184205,0.));
#722=CARTESIAN_POINT('',(63.4553693024042,-13.4878551184205,0.));
#723=CARTESIAN_POINT('',(63.4553693024042,-13.4878551184205,0.));
#724=CARTESIAN_POINT('',(0.,0.,0.));
#725=CARTESIAN_POINT('Origin',(0.,0.,0.));
#726=CARTESIAN_POINT('Origin',(0.,0.,0.));
#727=CARTESIAN_POINT('Origin',(-0.708815348797911,0.,0.));
#728=UNCERTAINTY_MEASURE_WITH_UNIT(LENGTH_MEASURE(0.01),#732,
'DISTANCE_ACCURACY_VALUE',
'Maximum model space distance between geometric entities at asserted c
onnectivities');
#729=UNCERTAINTY_MEASURE_WITH_UNIT(LENGTH_MEASURE(0.01),#732,
'DISTANCE_ACCURACY_VALUE',
'Maximum model space distance between geometric entities at asserted c
onnectivities');
#730=(
GEOMETRIC_REPRESENTATION_CONTEXT(3)
GLOBAL_UNCERTAINTY_ASSIGNED_CONTEXT((#728))
GLOBAL_UNIT_ASSIGNED_CONTEXT((#732,#734,#735))
REPRESENTATION_CONTEXT('','3D')
);
#731=(
GEOMETRIC_REPRESENTATION_CONTEXT(3)
GLOBAL_UNCERTAINTY_ASSIGNED_CONTEXT((#729))
GLOBAL_UNIT_ASSIGNED_CONTEXT((#732,#734,#735))
REPRESENTATION_CONTEXT('','3D')
);
#732=(
LENGTH_UNIT()
NAMED_UNIT(*)
SI_UNIT(.MILLI.,.METRE.)
);
#733=(
LENGTH_UNIT()
NAMED_UNIT(*)
SI_UNIT($,.METRE.)
);
#734=(
NAMED_UNIT(*)
PLANE_ANGLE_UNIT()
SI_UNIT($,.RADIAN.)
);
#735=(
NAMED_UNIT(*)
SI_UNIT($,.STERADIAN.)
SOLID_ANGLE_UNIT()
);
#736=SHAPE_DEFINITION_REPRESENTATION(#737,#738);
#737=PRODUCT_DEFINITION_SHAPE('',$,#740);
#738=SHAPE_REPRESENTATION('',(#389),#730);
#739=PRODUCT_DEFINITION_CONTEXT('part definition',#744,'design');
#740=PRODUCT_DEFINITION('2026-07-02-20-06-08-412','Top Cone',#741,#739);
#741=PRODUCT_DEFINITION_FORMATION('',$,#746);
#742=PRODUCT_RELATED_PRODUCT_CATEGORY('Top Cone','Top Cone',(#746));
#743=APPLICATION_PROTOCOL_DEFINITION('international standard',
'automotive_design',2009,#744);
#744=APPLICATION_CONTEXT(
'Core Data for Automotive Mechanical Design Process');
#745=PRODUCT_CONTEXT('part definition',#744,'mechanical');
#746=PRODUCT('2026-07-02-20-06-08-412','Top Cone',$,(#745));
#747=PRESENTATION_STYLE_ASSIGNMENT((#749));
#748=PRESENTATION_STYLE_ASSIGNMENT((#750));
#749=SURFACE_STYLE_USAGE(.BOTH.,#751);
#750=SURFACE_STYLE_USAGE(.BOTH.,#752);
#751=SURFACE_SIDE_STYLE('',(#753));
#752=SURFACE_SIDE_STYLE('',(#754));
#753=SURFACE_STYLE_FILL_AREA(#755);
#754=SURFACE_STYLE_FILL_AREA(#756);
#755=FILL_AREA_STYLE('Stahl - satiniert',(#757));
#756=FILL_AREA_STYLE('ABS (Schwarz)',(#758));
#757=FILL_AREA_STYLE_COLOUR('Stahl - satiniert',#759);
#758=FILL_AREA_STYLE_COLOUR('ABS (Schwarz)',#760);
#759=COLOUR_RGB('Stahl - satiniert',0.627450980392157,0.627450980392157,
0.627450980392157);
#760=COLOUR_RGB('ABS (Schwarz)',0.250980392156863,0.250980392156863,0.250980392156863);
ENDSEC;
END-ISO-10303-21;
