ISO-10303-21;
HEADER;
/* Generated by software containing ST-Developer
 * from STEP Tools, Inc. (www.steptools.com) 
 */

FILE_DESCRIPTION(
/* description */ (''),
/* implementation_level */ '2;1');

FILE_NAME(
/* name */ 'Winding Clamp.step',
/* time_stamp */ '2026-07-12T12:43:07+02:00',
/* author */ (''),
/* organization */ (''),
/* preprocessor_version */ 'ST-DEVELOPER v20.1',
/* originating_system */ 'Autodesk Translation Framework v15.8.0.0',
/* authorisation */ '');

FILE_SCHEMA (('AUTOMOTIVE_DESIGN { 1 0 10303 214 3 1 1 }'));
ENDSEC;

DATA;
#10=MECHANICAL_DESIGN_GEOMETRIC_PRESENTATION_REPRESENTATION('',(#13),#347);
#11=SHAPE_REPRESENTATION_RELATIONSHIP('SRR','None',#354,#12);
#12=ADVANCED_BREP_SHAPE_REPRESENTATION('',(#14),#346);
#13=STYLED_ITEM('',(#363),#14);
#14=MANIFOLD_SOLID_BREP('Winding Clamp',#143);
#15=CIRCLE('',#159,53.2268);
#16=CIRCLE('',#161,53.2268);
#17=CYLINDRICAL_SURFACE('',#158,53.2268);
#18=CYLINDRICAL_SURFACE('',#160,53.2268);
#19=LINE('',#317,#31);
#20=LINE('',#319,#32);
#21=LINE('',#321,#33);
#22=LINE('',#323,#34);
#23=LINE('',#324,#35);
#24=LINE('',#327,#36);
#25=LINE('',#332,#37);
#26=LINE('',#335,#38);
#27=LINE('',#336,#39);
#28=LINE('',#339,#40);
#29=LINE('',#340,#41);
#30=LINE('',#342,#42);
#31=VECTOR('',#170,10.);
#32=VECTOR('',#171,10.);
#33=VECTOR('',#172,10.);
#34=VECTOR('',#173,10.);
#35=VECTOR('',#174,10.);
#36=VECTOR('',#177,10.);
#37=VECTOR('',#184,10.);
#38=VECTOR('',#187,10.);
#39=VECTOR('',#188,10.);
#40=VECTOR('',#191,10.);
#41=VECTOR('',#192,10.);
#42=VECTOR('',#195,10.);
#43=PLANE('',#157);
#44=PLANE('',#162);
#45=PLANE('',#163);
#46=PLANE('',#164);
#47=PLANE('',#165);
#48=FACE_OUTER_BOUND('',#56,.T.);
#49=FACE_OUTER_BOUND('',#57,.T.);
#50=FACE_OUTER_BOUND('',#58,.T.);
#51=FACE_OUTER_BOUND('',#59,.T.);
#52=FACE_OUTER_BOUND('',#60,.T.);
#53=FACE_OUTER_BOUND('',#61,.T.);
#54=FACE_OUTER_BOUND('',#62,.T.);
#55=FACE_OUTER_BOUND('',#63,.T.);
#56=EDGE_LOOP('',(#98,#99,#100,#101));
#57=EDGE_LOOP('',(#102,#103,#104,#105,#106,#107));
#58=EDGE_LOOP('',(#108,#109,#110,#111));
#59=EDGE_LOOP('',(#112,#113,#114,#115));
#60=EDGE_LOOP('',(#116,#117,#118,#119));
#61=EDGE_LOOP('',(#120,#121,#122,#123));
#62=EDGE_LOOP('',(#124,#125,#126,#127,#128,#129));
#63=EDGE_LOOP('',(#130,#131,#132,#133));
#64=B_SPLINE_CURVE_WITH_KNOTS('',3,(#257,#258,#259,#260,#261,#262,#263,
#264),.UNSPECIFIED.,.F.,.F.,(4,2,2,4),(0.,0.854254245936351,2.26862317131744,
3.61642321532185),.UNSPECIFIED.);
#65=B_SPLINE_CURVE_WITH_KNOTS('',3,(#266,#267,#268,#269,#270,#271,#272,
#273,#274,#275,#276,#277,#278,#279,#280,#281,#282,#283,#284,#285),
 .UNSPECIFIED.,.F.,.F.,(4,2,2,2,2,2,2,2,2,4),(0.0504485848808479,0.131559794504377,
0.255917198742626,0.372235232406313,0.483952492837654,0.596019920978579,
0.712931427364713,0.837267895972203,0.956804379255369,1.02606599161608),
 .UNSPECIFIED.);
#66=B_SPLINE_CURVE_WITH_KNOTS('',3,(#287,#288,#289,#290,#291,#292,#293,
#294),.UNSPECIFIED.,.F.,.F.,(4,2,2,4),(0.,1.84286557083919,2.67054204990213,
3.61768923981053),.UNSPECIFIED.);
#67=B_SPLINE_CURVE_WITH_KNOTS('',3,(#295,#296,#297,#298,#299,#300,#301,
#302,#303,#304,#305,#306,#307,#308,#309,#310,#311,#312,#313,#314),
 .UNSPECIFIED.,.F.,.F.,(4,2,2,2,2,2,2,2,2,4),(0.0504576907413187,0.131543502969267,
0.255902798889981,0.372241745208823,0.483985655302583,0.596065094092217,
0.712957816723719,0.837244548502219,0.957307377716395,1.02709372768111),
 .UNSPECIFIED.);
#68=VERTEX_POINT('',#255);
#69=VERTEX_POINT('',#256);
#70=VERTEX_POINT('',#265);
#71=VERTEX_POINT('',#286);
#72=VERTEX_POINT('',#316);
#73=VERTEX_POINT('',#318);
#74=VERTEX_POINT('',#320);
#75=VERTEX_POINT('',#322);
#76=VERTEX_POINT('',#326);
#77=VERTEX_POINT('',#330);
#78=VERTEX_POINT('',#334);
#79=VERTEX_POINT('',#338);
#80=EDGE_CURVE('',#68,#69,#64,.T.);
#81=EDGE_CURVE('',#70,#68,#65,.T.);
#82=EDGE_CURVE('',#71,#70,#66,.T.);
#83=EDGE_CURVE('',#69,#71,#67,.T.);
#84=EDGE_CURVE('',#68,#72,#19,.T.);
#85=EDGE_CURVE('',#73,#72,#20,.T.);
#86=EDGE_CURVE('',#74,#73,#21,.T.);
#87=EDGE_CURVE('',#75,#74,#22,.T.);
#88=EDGE_CURVE('',#75,#70,#23,.T.);
#89=EDGE_CURVE('',#76,#69,#24,.T.);
#90=EDGE_CURVE('',#72,#76,#15,.T.);
#91=EDGE_CURVE('',#77,#75,#16,.T.);
#92=EDGE_CURVE('',#71,#77,#25,.T.);
#93=EDGE_CURVE('',#78,#77,#26,.T.);
#94=EDGE_CURVE('',#74,#78,#27,.T.);
#95=EDGE_CURVE('',#79,#73,#28,.T.);
#96=EDGE_CURVE('',#78,#79,#29,.T.);
#97=EDGE_CURVE('',#76,#79,#30,.T.);
#98=ORIENTED_EDGE('',*,*,#80,.F.);
#99=ORIENTED_EDGE('',*,*,#81,.F.);
#100=ORIENTED_EDGE('',*,*,#82,.F.);
#101=ORIENTED_EDGE('',*,*,#83,.F.);
#102=ORIENTED_EDGE('',*,*,#81,.T.);
#103=ORIENTED_EDGE('',*,*,#84,.T.);
#104=ORIENTED_EDGE('',*,*,#85,.F.);
#105=ORIENTED_EDGE('',*,*,#86,.F.);
#106=ORIENTED_EDGE('',*,*,#87,.F.);
#107=ORIENTED_EDGE('',*,*,#88,.T.);
#108=ORIENTED_EDGE('',*,*,#80,.T.);
#109=ORIENTED_EDGE('',*,*,#89,.F.);
#110=ORIENTED_EDGE('',*,*,#90,.F.);
#111=ORIENTED_EDGE('',*,*,#84,.F.);
#112=ORIENTED_EDGE('',*,*,#82,.T.);
#113=ORIENTED_EDGE('',*,*,#88,.F.);
#114=ORIENTED_EDGE('',*,*,#91,.F.);
#115=ORIENTED_EDGE('',*,*,#92,.F.);
#116=ORIENTED_EDGE('',*,*,#93,.T.);
#117=ORIENTED_EDGE('',*,*,#91,.T.);
#118=ORIENTED_EDGE('',*,*,#87,.T.);
#119=ORIENTED_EDGE('',*,*,#94,.T.);
#120=ORIENTED_EDGE('',*,*,#86,.T.);
#121=ORIENTED_EDGE('',*,*,#95,.F.);
#122=ORIENTED_EDGE('',*,*,#96,.F.);
#123=ORIENTED_EDGE('',*,*,#94,.F.);
#124=ORIENTED_EDGE('',*,*,#83,.T.);
#125=ORIENTED_EDGE('',*,*,#92,.T.);
#126=ORIENTED_EDGE('',*,*,#93,.F.);
#127=ORIENTED_EDGE('',*,*,#96,.T.);
#128=ORIENTED_EDGE('',*,*,#97,.F.);
#129=ORIENTED_EDGE('',*,*,#89,.T.);
#130=ORIENTED_EDGE('',*,*,#97,.T.);
#131=ORIENTED_EDGE('',*,*,#95,.T.);
#132=ORIENTED_EDGE('',*,*,#85,.T.);
#133=ORIENTED_EDGE('',*,*,#90,.T.);
#134=B_SPLINE_SURFACE_WITH_KNOTS('',3,3,((#199,#200,#201,#202,#203,#204,
#205,#206),(#207,#208,#209,#210,#211,#212,#213,#214),(#215,#216,#217,#218,
#219,#220,#221,#222),(#223,#224,#225,#226,#227,#228,#229,#230),(#231,#232,
#233,#234,#235,#236,#237,#238),(#239,#240,#241,#242,#243,#244,#245,#246),
(#247,#248,#249,#250,#251,#252,#253,#254)),.UNSPECIFIED.,.F.,.F.,.F.,(4,
1,1,1,4),(4,2,2,4),(-3.05601000673456,-2.1383930622266,-1.22077611771863,
-0.303159173210668,0.155649299043315),(15.3645457068399,15.4045614184008,
15.8990888279434,16.0513868999319),.UNSPECIFIED.);
#135=ADVANCED_FACE('',(#48),#134,.F.);
#136=ADVANCED_FACE('',(#49),#43,.T.);
#137=ADVANCED_FACE('',(#50),#17,.F.);
#138=ADVANCED_FACE('',(#51),#18,.F.);
#139=ADVANCED_FACE('',(#52),#44,.F.);
#140=ADVANCED_FACE('',(#53),#45,.T.);
#141=ADVANCED_FACE('',(#54),#46,.T.);
#142=ADVANCED_FACE('',(#55),#47,.T.);
#143=CLOSED_SHELL('',(#135,#136,#137,#138,#139,#140,#141,#142));
#144=DERIVED_UNIT_ELEMENT(#146,1.);
#145=DERIVED_UNIT_ELEMENT(#349,-3.);
#146=(
MASS_UNIT()
NAMED_UNIT(*)
SI_UNIT(.KILO.,.GRAM.)
);
#147=DERIVED_UNIT((#144,#145));
#148=MEASURE_REPRESENTATION_ITEM('density measure',
POSITIVE_RATIO_MEASURE(7850.),#147);
#149=PROPERTY_DEFINITION_REPRESENTATION(#154,#151);
#150=PROPERTY_DEFINITION_REPRESENTATION(#155,#152);
#151=REPRESENTATION('material name',(#153),#346);
#152=REPRESENTATION('density',(#148),#346);
#153=DESCRIPTIVE_REPRESENTATION_ITEM('Stahl','Stahl');
#154=PROPERTY_DEFINITION('material property','material name',#356);
#155=PROPERTY_DEFINITION('material property','density of part',#356);
#156=AXIS2_PLACEMENT_3D('',#198,#166,#167);
#157=AXIS2_PLACEMENT_3D('',#315,#168,#169);
#158=AXIS2_PLACEMENT_3D('',#325,#175,#176);
#159=AXIS2_PLACEMENT_3D('',#328,#178,#179);
#160=AXIS2_PLACEMENT_3D('',#329,#180,#181);
#161=AXIS2_PLACEMENT_3D('',#331,#182,#183);
#162=AXIS2_PLACEMENT_3D('',#333,#185,#186);
#163=AXIS2_PLACEMENT_3D('',#337,#189,#190);
#164=AXIS2_PLACEMENT_3D('',#341,#193,#194);
#165=AXIS2_PLACEMENT_3D('',#343,#196,#197);
#166=DIRECTION('axis',(0.,0.,1.));
#167=DIRECTION('refdir',(1.,0.,0.));
#168=DIRECTION('center_axis',(0.,-1.,0.));
#169=DIRECTION('ref_axis',(1.,0.,0.));
#170=DIRECTION('',(0.,0.,1.));
#171=DIRECTION('',(1.,0.,0.));
#172=DIRECTION('',(0.,0.,1.));
#173=DIRECTION('',(-1.,0.,0.));
#174=DIRECTION('',(0.,0.,1.));
#175=DIRECTION('center_axis',(0.,0.,1.));
#176=DIRECTION('ref_axis',(-1.,-1.22464679914735E-16,0.));
#177=DIRECTION('',(0.,0.,-1.));
#178=DIRECTION('center_axis',(0.,0.,-1.));
#179=DIRECTION('ref_axis',(1.,0.,0.));
#180=DIRECTION('center_axis',(0.,0.,1.));
#181=DIRECTION('ref_axis',(-1.,-7.6571373978539E-16,0.));
#182=DIRECTION('center_axis',(0.,0.,1.));
#183=DIRECTION('ref_axis',(1.,0.,0.));
#184=DIRECTION('',(0.,0.,-1.));
#185=DIRECTION('center_axis',(0.,0.,1.));
#186=DIRECTION('ref_axis',(1.,0.,0.));
#187=DIRECTION('',(1.,5.55111512312578E-16,0.));
#188=DIRECTION('',(2.52079071097888E-15,1.,0.));
#189=DIRECTION('center_axis',(-1.,2.52079071097888E-15,0.));
#190=DIRECTION('ref_axis',(-2.52079071097888E-15,-1.,0.));
#191=DIRECTION('',(-2.52079071097888E-15,-1.,0.));
#192=DIRECTION('',(0.,0.,1.));
#193=DIRECTION('center_axis',(-5.55111512312578E-16,1.,0.));
#194=DIRECTION('ref_axis',(-1.,-5.55111512312578E-16,0.));
#195=DIRECTION('',(-1.,-5.55111512312578E-16,0.));
#196=DIRECTION('center_axis',(0.,0.,1.));
#197=DIRECTION('ref_axis',(1.,0.,0.));
#198=CARTESIAN_POINT('',(0.,0.,0.));
#199=CARTESIAN_POINT('Ctrl Pts',(-50.0125150448822,18.2269364582116,91.5959125450833));
#200=CARTESIAN_POINT('Ctrl Pts',(-50.2519680183975,17.5585894377689,91.6728470899));
#201=CARTESIAN_POINT('Ctrl Pts',(-50.4778770613742,16.8854542723387,91.7497732520237));
#202=CARTESIAN_POINT('Ctrl Pts',(-53.3110025003755,7.83612204843019,92.7772365842326));
#203=CARTESIAN_POINT('Ctrl Pts',(-53.8141259536952,-1.17544833077452,93.7263984873567));
#204=CARTESIAN_POINT('Ctrl Pts',(-51.6409375376376,-12.4066385453551,94.9659329786073));
#205=CARTESIAN_POINT('Ctrl Pts',(-50.924369833311,-15.0093571765325,95.2576573837088));
#206=CARTESIAN_POINT('Ctrl Pts',(-50.0162495843063,-17.5424867987031,95.5492676752036));
#207=CARTESIAN_POINT('Ctrl Pts',(-50.8763996467792,18.5363279726855,91.594843795858));
#208=CARTESIAN_POINT('Ctrl Pts',(-51.1199617546849,17.856511938511,91.6730996900405));
#209=CARTESIAN_POINT('Ctrl Pts',(-51.3497743642641,17.1717861217542,91.751352269265));
#210=CARTESIAN_POINT('Ctrl Pts',(-54.2317537471531,7.96539012364994,92.7966269750382));
#211=CARTESIAN_POINT('Ctrl Pts',(-54.7431162855434,-1.19510605085426,93.7614491047164));
#212=CARTESIAN_POINT('Ctrl Pts',(-52.5324811847847,-12.6214943208558,95.022549557271));
#213=CARTESIAN_POINT('Ctrl Pts',(-51.8036235564135,-15.2686485626389,95.3192302355153));
#214=CARTESIAN_POINT('Ctrl Pts',(-50.8801661422111,-17.8445610776815,95.6157520177645));
#215=CARTESIAN_POINT('Ctrl Pts',(-52.6266391046337,19.0599625965933,90.6961950373484));
#216=CARTESIAN_POINT('Ctrl Pts',(-52.8784327359564,18.3571749268687,90.7770975468354));
#217=CARTESIAN_POINT('Ctrl Pts',(-53.1160765412166,17.6491899843693,90.858011729227));
#218=CARTESIAN_POINT('Ctrl Pts',(-56.0959940357074,8.12893543385675,91.9388846417267));
#219=CARTESIAN_POINT('Ctrl Pts',(-56.6251212383468,-1.32875156716725,92.9349338360232));
#220=CARTESIAN_POINT('Ctrl Pts',(-54.3374567356388,-13.1553685268911,94.2402489282312));
#221=CARTESIAN_POINT('Ctrl Pts',(-53.583208642659,-15.8940083110651,94.5471343481154));
#222=CARTESIAN_POINT('Ctrl Pts',(-52.627858818134,-18.5588435793389,94.8538650256798));
#223=CARTESIAN_POINT('Ctrl Pts',(-53.289359998527,18.9536398542847,87.7098491941681));
#224=CARTESIAN_POINT('Ctrl Pts',(-53.543782523323,18.2435256193727,87.7915959440101));
#225=CARTESIAN_POINT('Ctrl Pts',(-53.7839535160544,17.5280618051049,87.8733658261491));
#226=CARTESIAN_POINT('Ctrl Pts',(-56.7957045488763,7.90514893407425,88.9658869440302));
#227=CARTESIAN_POINT('Ctrl Pts',(-57.3342606603347,-1.66338144828816,89.9736153309178));
#228=CARTESIAN_POINT('Ctrl Pts',(-55.015620397738,-13.6517764004298,91.2967920950541));
#229=CARTESIAN_POINT('Ctrl Pts',(-54.2508455781778,-16.428577089654,91.6079350249545));
#230=CARTESIAN_POINT('Ctrl Pts',(-53.2819071604479,-19.1311855969512,91.9190038050073));
#231=CARTESIAN_POINT('Ctrl Pts',(-51.7696873030235,18.1910512046137,85.8150243076206));
#232=CARTESIAN_POINT('Ctrl Pts',(-52.016529067513,17.5021025681103,85.8943326520429));
#233=CARTESIAN_POINT('Ctrl Pts',(-52.2495166958324,16.8079881213636,85.9736592617494));
#234=CARTESIAN_POINT('Ctrl Pts',(-55.1715381819425,7.47300892200925,87.0335309748584));
#235=CARTESIAN_POINT('Ctrl Pts',(-55.6975323966396,-1.83247614517746,88.013623531254));
#236=CARTESIAN_POINT('Ctrl Pts',(-53.4434881396175,-13.4847844311695,89.2996610223827));
#237=CARTESIAN_POINT('Ctrl Pts',(-52.6996849427388,-16.1859316556236,89.6023663126336));
#238=CARTESIAN_POINT('Ctrl Pts',(-51.7566530035389,-18.8161907585676,89.9051304451931));
#239=CARTESIAN_POINT('Ctrl Pts',(-50.4579506336644,17.6970105508199,85.6059350664976));
#240=CARTESIAN_POINT('Ctrl Pts',(-50.6984786784687,17.0256848377217,85.6832130763574));
#241=CARTESIAN_POINT('Ctrl Pts',(-50.9254689936966,16.3493880211886,85.7605007024561));
#242=CARTESIAN_POINT('Ctrl Pts',(-53.7725236127883,7.25472937140053,86.7931175675134));
#243=CARTESIAN_POINT('Ctrl Pts',(-54.2861245586402,-1.82651687015523,87.7496507520794));
#244=CARTESIAN_POINT('Ctrl Pts',(-52.0890778296368,-13.1825673093978,89.0029561501073));
#245=CARTESIAN_POINT('Ctrl Pts',(-51.3639572732419,-15.8163798802533,89.2981509638506));
#246=CARTESIAN_POINT('Ctrl Pts',(-50.4442539912777,-18.3815556039464,89.5934436102464));
#247=CARTESIAN_POINT('Ctrl Pts',(-50.0259363935447,17.5459648391278,85.6384020270155));
#248=CARTESIAN_POINT('Ctrl Pts',(-50.2644161475719,16.8803560060959,85.7150213915524));
#249=CARTESIAN_POINT('Ctrl Pts',(-50.4894603816987,16.209837042726,85.7916478086913));
#250=CARTESIAN_POINT('Ctrl Pts',(-53.3121555245245,7.19352041223787,86.8153805331159));
#251=CARTESIAN_POINT('Ctrl Pts',(-53.8216105089098,-1.813213797782,87.7640775666827));
#252=CARTESIAN_POINT('Ctrl Pts',(-51.6433038934836,-13.0715496258711,89.0065873327089));
#253=CARTESIAN_POINT('Ctrl Pts',(-50.9243374215864,-15.6831038987639,89.2992994869187));
#254=CARTESIAN_POINT('Ctrl Pts',(-50.012316792308,-18.2268502385653,89.5921320156091));
#255=CARTESIAN_POINT('',(-50.2268,-17.6170599136179,95.5571948192693));
#256=CARTESIAN_POINT('',(-50.2268,17.6170599136179,91.6659632785254));
#257=CARTESIAN_POINT('Ctrl Pts',(-50.2268,-17.6170599136179,95.5571948192693));
#258=CARTESIAN_POINT('Ctrl Pts',(-51.1637890867852,-14.9456741264943,95.2504599503276));
#259=CARTESIAN_POINT('Ctrl Pts',(-51.8861638663532,-12.2037893019848,94.9441496218925));
#260=CARTESIAN_POINT('Ctrl Pts',(-53.2163487775884,-4.80433244761915,94.1295078282691));
#261=CARTESIAN_POINT('Ctrl Pts',(-53.432678306764,-0.101752705976422,93.6237955918903));
#262=CARTESIAN_POINT('Ctrl Pts',(-52.6470827856741,9.0181368513736,92.6320714303847));
#263=CARTESIAN_POINT('Ctrl Pts',(-51.7051328196796,13.4022858689382,92.149970075925));
#264=CARTESIAN_POINT('Ctrl Pts',(-50.2268,17.6170599136179,91.6659632785255));
#265=CARTESIAN_POINT('',(-50.2268,-17.6170599136179,89.5220833952149));
#266=CARTESIAN_POINT('Ctrl Pts',(-50.2268,-17.6170599136179,89.5220833952149));
#267=CARTESIAN_POINT('Ctrl Pts',(-50.4960414950879,-17.6170599136179,89.5129732426448));
#268=CARTESIAN_POINT('Ctrl Pts',(-50.7659763907614,-17.6170599135318,89.5364081276602));
#269=CARTESIAN_POINT('Ctrl Pts',(-51.434959589187,-17.6170599135318,89.6806927075657));
#270=CARTESIAN_POINT('Ctrl Pts',(-51.8191687274416,-17.6170599136002,89.8453832989324));
#271=CARTESIAN_POINT('Ctrl Pts',(-52.4749911801023,-17.6170599136002,90.3048918877258));
#272=CARTESIAN_POINT('Ctrl Pts',(-52.7452091073007,-17.6170599136165,90.5857808756658));
#273=CARTESIAN_POINT('Ctrl Pts',(-53.1500380667151,-17.6170599136165,91.2268499447484));
#274=CARTESIAN_POINT('Ctrl Pts',(-53.2846050554658,-17.617059913618,91.5756829692051));
#275=CARTESIAN_POINT('Ctrl Pts',(-53.412172034038,-17.617059913618,92.3086686290958));
#276=CARTESIAN_POINT('Ctrl Pts',(-53.40318498825,-17.6170599136182,92.6838257354464));
#277=CARTESIAN_POINT('Ctrl Pts',(-53.2421521587052,-17.6170599136182,93.4282738146645));
#278=CARTESIAN_POINT('Ctrl Pts',(-53.0858575867513,-17.6170599136212,93.7881537261268));
#279=CARTESIAN_POINT('Ctrl Pts',(-52.6358180083948,-17.6170599136212,94.4534106105139));
#280=CARTESIAN_POINT('Ctrl Pts',(-52.3382653724408,-17.6170599136351,94.7476870902032));
#281=CARTESIAN_POINT('Ctrl Pts',(-51.6650348619681,-17.6170599136351,95.2027456376105));
#282=CARTESIAN_POINT('Ctrl Pts',(-51.2968938406041,-17.617059913644,95.3655105014618));
#283=CARTESIAN_POINT('Ctrl Pts',(-50.6859649895797,-17.617059913644,95.516128832491));
#284=CARTESIAN_POINT('Ctrl Pts',(-50.4568553533049,-17.6170599136179,95.5484378284439));
#285=CARTESIAN_POINT('Ctrl Pts',(-50.2268,-17.6170599136179,95.5571948192694));
#286=CARTESIAN_POINT('',(-50.2268,17.6170599136179,85.6308372535196));
#287=CARTESIAN_POINT('Ctrl Pts',(-50.2268,17.6170599136178,85.6308372535196));
#288=CARTESIAN_POINT('Ctrl Pts',(-52.2481446604235,11.8541417826712,86.2926373774666));
#289=CARTESIAN_POINT('Ctrl Pts',(-53.2626574359051,5.78608499106196,86.9495123263101));
#290=CARTESIAN_POINT('Ctrl Pts',(-53.20929330357,-3.0637686987214,87.9083620926107));
#291=CARTESIAN_POINT('Ctrl Pts',(-52.9807655572205,-5.80120854274126,88.205142898477));
#292=CARTESIAN_POINT('Ctrl Pts',(-52.0405299164333,-11.607214732372,88.8425061418804));
#293=CARTESIAN_POINT('Ctrl Pts',(-51.2656780791724,-14.6551853577708,89.1819780961801));
#294=CARTESIAN_POINT('Ctrl Pts',(-50.2268,-17.6170599136179,89.5220833952149));
#295=CARTESIAN_POINT('Ctrl Pts',(-50.2268,17.6170599136179,91.6659632785255));
#296=CARTESIAN_POINT('Ctrl Pts',(-50.4959418330453,17.6170599136179,91.6755015055909));
#297=CARTESIAN_POINT('Ctrl Pts',(-50.7658293174547,17.617059913537,91.6525127178263));
#298=CARTESIAN_POINT('Ctrl Pts',(-51.4349772216999,17.617059913537,91.5093564971654));
#299=CARTESIAN_POINT('Ctrl Pts',(-51.8194654116244,17.6170599136015,91.3452999714224));
#300=CARTESIAN_POINT('Ctrl Pts',(-52.476128448016,17.6170599136015,90.8868529402058));
#301=CARTESIAN_POINT('Ctrl Pts',(-52.746872408542,17.6170599136166,90.6063659247001));
#302=CARTESIAN_POINT('Ctrl Pts',(-53.1528805063238,17.6170599136166,89.9658507202087));
#303=CARTESIAN_POINT('Ctrl Pts',(-53.2880784939134,17.6170599136178,89.6171591688435));
#304=CARTESIAN_POINT('Ctrl Pts',(-53.4169104957819,17.6170599136178,88.8842615290666));
#305=CARTESIAN_POINT('Ctrl Pts',(-53.4085614357611,17.6170599136181,88.50904598731));
#306=CARTESIAN_POINT('Ctrl Pts',(-53.2487693862934,17.6170599136181,87.7643529889096));
#307=CARTESIAN_POINT('Ctrl Pts',(-53.0931004449349,17.6170599136208,87.404274163808));
#308=CARTESIAN_POINT('Ctrl Pts',(-52.6442671384823,17.6170599136208,86.7384797144118));
#309=CARTESIAN_POINT('Ctrl Pts',(-52.3473155662587,17.6170599136336,86.4438468613037));
#310=CARTESIAN_POINT('Ctrl Pts',(-51.6735020972236,17.6170599136336,85.9868204908909));
#311=CARTESIAN_POINT('Ctrl Pts',(-51.3038303299504,17.6170599136429,85.8230507369577));
#312=CARTESIAN_POINT('Ctrl Pts',(-50.6894897822696,17.6170599136429,85.6716331731675));
#313=CARTESIAN_POINT('Ctrl Pts',(-50.4586065121234,17.6170599136179,85.6392762097236));
#314=CARTESIAN_POINT('Ctrl Pts',(-50.2268,17.6170599136179,85.6308372535197));
#315=CARTESIAN_POINT('Origin',(-62.2268000000001,-17.6170599136179,90.594));
#316=CARTESIAN_POINT('',(-50.2268,-17.6170599136179,110.594));
#317=CARTESIAN_POINT('',(-50.2268,-17.6170599136179,90.594));
#318=CARTESIAN_POINT('',(-62.2268000000001,-17.6170599136179,110.594));
#319=CARTESIAN_POINT('',(-62.2268000000001,-17.6170599136179,110.594));
#320=CARTESIAN_POINT('',(-62.2268000000001,-17.6170599136179,70.594));
#321=CARTESIAN_POINT('',(-62.2268000000001,-17.6170599136179,90.594));
#322=CARTESIAN_POINT('',(-50.2268,-17.6170599136179,70.594));
#323=CARTESIAN_POINT('',(-62.2268000000001,-17.6170599136179,70.594));
#324=CARTESIAN_POINT('',(-50.2268,-17.6170599136179,90.594));
#325=CARTESIAN_POINT('Origin',(0.,0.,90.594));
#326=CARTESIAN_POINT('',(-50.2268,17.6170599136179,110.594));
#327=CARTESIAN_POINT('',(-50.2268,17.6170599136179,90.594));
#328=CARTESIAN_POINT('Origin',(0.,0.,110.594));
#329=CARTESIAN_POINT('Origin',(0.,0.,90.594));
#330=CARTESIAN_POINT('',(-50.2268,17.6170599136179,70.594));
#331=CARTESIAN_POINT('Origin',(0.,0.,70.594));
#332=CARTESIAN_POINT('',(-50.2268,17.6170599136179,90.594));
#333=CARTESIAN_POINT('Origin',(-56.2268,-1.33226762955019E-14,70.594));
#334=CARTESIAN_POINT('',(-62.2268,17.6170599136179,70.594));
#335=CARTESIAN_POINT('',(-50.2268,17.6170599136179,70.594));
#336=CARTESIAN_POINT('',(-62.2268,17.6170599136179,70.594));
#337=CARTESIAN_POINT('Origin',(-62.2268,17.6170599136179,90.594));
#338=CARTESIAN_POINT('',(-62.2268,17.6170599136179,110.594));
#339=CARTESIAN_POINT('',(-62.2268,17.6170599136179,110.594));
#340=CARTESIAN_POINT('',(-62.2268,17.6170599136179,90.594));
#341=CARTESIAN_POINT('Origin',(-50.2268,17.6170599136179,90.594));
#342=CARTESIAN_POINT('',(-50.2268,17.6170599136179,110.594));
#343=CARTESIAN_POINT('Origin',(-56.2268,-1.33226762955019E-14,110.594));
#344=UNCERTAINTY_MEASURE_WITH_UNIT(LENGTH_MEASURE(0.01),#348,
'DISTANCE_ACCURACY_VALUE',
'Maximum model space distance between geometric entities at asserted c
onnectivities');
#345=UNCERTAINTY_MEASURE_WITH_UNIT(LENGTH_MEASURE(0.01),#348,
'DISTANCE_ACCURACY_VALUE',
'Maximum model space distance between geometric entities at asserted c
onnectivities');
#346=(
GEOMETRIC_REPRESENTATION_CONTEXT(3)
GLOBAL_UNCERTAINTY_ASSIGNED_CONTEXT((#344))
GLOBAL_UNIT_ASSIGNED_CONTEXT((#348,#350,#351))
REPRESENTATION_CONTEXT('','3D')
);
#347=(
GEOMETRIC_REPRESENTATION_CONTEXT(3)
GLOBAL_UNCERTAINTY_ASSIGNED_CONTEXT((#345))
GLOBAL_UNIT_ASSIGNED_CONTEXT((#348,#350,#351))
REPRESENTATION_CONTEXT('','3D')
);
#348=(
LENGTH_UNIT()
NAMED_UNIT(*)
SI_UNIT(.MILLI.,.METRE.)
);
#349=(
LENGTH_UNIT()
NAMED_UNIT(*)
SI_UNIT($,.METRE.)
);
#350=(
NAMED_UNIT(*)
PLANE_ANGLE_UNIT()
SI_UNIT($,.RADIAN.)
);
#351=(
NAMED_UNIT(*)
SI_UNIT($,.STERADIAN.)
SOLID_ANGLE_UNIT()
);
#352=SHAPE_DEFINITION_REPRESENTATION(#353,#354);
#353=PRODUCT_DEFINITION_SHAPE('',$,#356);
#354=SHAPE_REPRESENTATION('',(#156),#346);
#355=PRODUCT_DEFINITION_CONTEXT('part definition',#360,'design');
#356=PRODUCT_DEFINITION('2026-07-02-21-23-53-611','Winding Help',#357,#355);
#357=PRODUCT_DEFINITION_FORMATION('',$,#362);
#358=PRODUCT_RELATED_PRODUCT_CATEGORY('Winding Help','Winding Help',(#362));
#359=APPLICATION_PROTOCOL_DEFINITION('international standard',
'automotive_design',2009,#360);
#360=APPLICATION_CONTEXT(
'Core Data for Automotive Mechanical Design Process');
#361=PRODUCT_CONTEXT('part definition',#360,'mechanical');
#362=PRODUCT('2026-07-02-21-23-53-611','Winding Help',$,(#361));
#363=PRESENTATION_STYLE_ASSIGNMENT((#364));
#364=SURFACE_STYLE_USAGE(.BOTH.,#365);
#365=SURFACE_SIDE_STYLE('',(#366));
#366=SURFACE_STYLE_FILL_AREA(#367);
#367=FILL_AREA_STYLE('Stahl - satiniert',(#368));
#368=FILL_AREA_STYLE_COLOUR('Stahl - satiniert',#369);
#369=COLOUR_RGB('Stahl - satiniert',0.627450980392157,0.627450980392157,
0.627450980392157);
ENDSEC;
END-ISO-10303-21;
