ISO-10303-21;
HEADER;
/* Generated by software containing ST-Developer
 * from STEP Tools, Inc. (www.steptools.com) 
 */

FILE_DESCRIPTION(
/* description */ (''),
/* implementation_level */ '2;1');

FILE_NAME(
/* name */ 'SameSky_CMT-0525-75-SMT_Buzzer.step',
/* time_stamp */ '2026-09-22T23:18:44+02:00',
/* author */ (''),
/* organization */ (''),
/* preprocessor_version */ 'ST-DEVELOPER v20.2',
/* originating_system */ 'Autodesk Translation Framework v15.15.0.0',
/* authorisation */ '');

FILE_SCHEMA (('AUTOMOTIVE_DESIGN { 1 0 10303 214 3 1 1 }'));
ENDSEC;

DATA;
#10=MECHANICAL_DESIGN_GEOMETRIC_PRESENTATION_REPRESENTATION('',(#13,#14,
#15,#16),#2112);
#11=SHAPE_REPRESENTATION_RELATIONSHIP('SRR','None',#2119,#12);
#12=ADVANCED_BREP_SHAPE_REPRESENTATION('',(#17,#18,#19,#20),#2111);
#13=STYLED_ITEM('',(#2129),#17);
#14=STYLED_ITEM('',(#2130),#18);
#15=STYLED_ITEM('',(#2130),#19);
#16=STYLED_ITEM('',(#2130),#20);
#17=MANIFOLD_SOLID_BREP('Body1',#1296);
#18=MANIFOLD_SOLID_BREP('Body3',#1297);
#19=MANIFOLD_SOLID_BREP('Body4',#1298);
#20=MANIFOLD_SOLID_BREP('Body5',#1299);
#21=FACE_BOUND('',#146,.T.);
#22=CIRCLE('',#1331,0.4);
#23=CIRCLE('',#1332,0.4);
#24=CIRCLE('',#1364,0.3);
#25=CIRCLE('',#1365,0.15);
#26=CIRCLE('',#1370,0.15);
#27=CIRCLE('',#1375,0.3);
#28=CIRCLE('',#1378,0.3);
#29=CIRCLE('',#1379,0.15);
#30=CIRCLE('',#1384,0.15);
#31=CIRCLE('',#1389,0.3);
#32=CIRCLE('',#1392,0.3);
#33=CIRCLE('',#1393,0.15);
#34=CIRCLE('',#1398,0.15);
#35=CIRCLE('',#1403,0.3);
#36=CYLINDRICAL_SURFACE('',#1330,0.4);
#37=CYLINDRICAL_SURFACE('',#1369,0.15);
#38=CYLINDRICAL_SURFACE('',#1374,0.3);
#39=CYLINDRICAL_SURFACE('',#1383,0.15);
#40=CYLINDRICAL_SURFACE('',#1388,0.3);
#41=CYLINDRICAL_SURFACE('',#1397,0.15);
#42=CYLINDRICAL_SURFACE('',#1402,0.3);
#43=FACE_OUTER_BOUND('',#121,.T.);
#44=FACE_OUTER_BOUND('',#122,.T.);
#45=FACE_OUTER_BOUND('',#123,.T.);
#46=FACE_OUTER_BOUND('',#124,.T.);
#47=FACE_OUTER_BOUND('',#125,.T.);
#48=FACE_OUTER_BOUND('',#126,.T.);
#49=FACE_OUTER_BOUND('',#127,.T.);
#50=FACE_OUTER_BOUND('',#128,.T.);
#51=FACE_OUTER_BOUND('',#129,.T.);
#52=FACE_OUTER_BOUND('',#130,.T.);
#53=FACE_OUTER_BOUND('',#131,.T.);
#54=FACE_OUTER_BOUND('',#132,.T.);
#55=FACE_OUTER_BOUND('',#133,.T.);
#56=FACE_OUTER_BOUND('',#134,.T.);
#57=FACE_OUTER_BOUND('',#135,.T.);
#58=FACE_OUTER_BOUND('',#136,.T.);
#59=FACE_OUTER_BOUND('',#137,.T.);
#60=FACE_OUTER_BOUND('',#138,.T.);
#61=FACE_OUTER_BOUND('',#139,.T.);
#62=FACE_OUTER_BOUND('',#140,.T.);
#63=FACE_OUTER_BOUND('',#141,.T.);
#64=FACE_OUTER_BOUND('',#142,.T.);
#65=FACE_OUTER_BOUND('',#143,.T.);
#66=FACE_OUTER_BOUND('',#144,.T.);
#67=FACE_OUTER_BOUND('',#145,.T.);
#68=FACE_OUTER_BOUND('',#147,.T.);
#69=FACE_OUTER_BOUND('',#148,.T.);
#70=FACE_OUTER_BOUND('',#149,.T.);
#71=FACE_OUTER_BOUND('',#150,.T.);
#72=FACE_OUTER_BOUND('',#151,.T.);
#73=FACE_OUTER_BOUND('',#152,.T.);
#74=FACE_OUTER_BOUND('',#153,.T.);
#75=FACE_OUTER_BOUND('',#154,.T.);
#76=FACE_OUTER_BOUND('',#155,.T.);
#77=FACE_OUTER_BOUND('',#156,.T.);
#78=FACE_OUTER_BOUND('',#157,.T.);
#79=FACE_OUTER_BOUND('',#158,.T.);
#80=FACE_OUTER_BOUND('',#159,.T.);
#81=FACE_OUTER_BOUND('',#160,.T.);
#82=FACE_OUTER_BOUND('',#161,.T.);
#83=FACE_OUTER_BOUND('',#162,.T.);
#84=FACE_OUTER_BOUND('',#163,.T.);
#85=FACE_OUTER_BOUND('',#164,.T.);
#86=FACE_OUTER_BOUND('',#165,.T.);
#87=FACE_OUTER_BOUND('',#166,.T.);
#88=FACE_OUTER_BOUND('',#167,.T.);
#89=FACE_OUTER_BOUND('',#168,.T.);
#90=FACE_OUTER_BOUND('',#169,.T.);
#91=FACE_OUTER_BOUND('',#170,.T.);
#92=FACE_OUTER_BOUND('',#171,.T.);
#93=FACE_OUTER_BOUND('',#172,.T.);
#94=FACE_OUTER_BOUND('',#173,.T.);
#95=FACE_OUTER_BOUND('',#174,.T.);
#96=FACE_OUTER_BOUND('',#175,.T.);
#97=FACE_OUTER_BOUND('',#176,.T.);
#98=FACE_OUTER_BOUND('',#177,.T.);
#99=FACE_OUTER_BOUND('',#178,.T.);
#100=FACE_OUTER_BOUND('',#179,.T.);
#101=FACE_OUTER_BOUND('',#180,.T.);
#102=FACE_OUTER_BOUND('',#181,.T.);
#103=FACE_OUTER_BOUND('',#182,.T.);
#104=FACE_OUTER_BOUND('',#183,.T.);
#105=FACE_OUTER_BOUND('',#184,.T.);
#106=FACE_OUTER_BOUND('',#185,.T.);
#107=FACE_OUTER_BOUND('',#186,.T.);
#108=FACE_OUTER_BOUND('',#187,.T.);
#109=FACE_OUTER_BOUND('',#188,.T.);
#110=FACE_OUTER_BOUND('',#189,.T.);
#111=FACE_OUTER_BOUND('',#190,.T.);
#112=FACE_OUTER_BOUND('',#191,.T.);
#113=FACE_OUTER_BOUND('',#192,.T.);
#114=FACE_OUTER_BOUND('',#193,.T.);
#115=FACE_OUTER_BOUND('',#194,.T.);
#116=FACE_OUTER_BOUND('',#195,.T.);
#117=FACE_OUTER_BOUND('',#196,.T.);
#118=FACE_OUTER_BOUND('',#197,.T.);
#119=FACE_OUTER_BOUND('',#198,.T.);
#120=FACE_OUTER_BOUND('',#199,.T.);
#121=EDGE_LOOP('',(#799,#800,#801,#802));
#122=EDGE_LOOP('',(#803,#804,#805,#806));
#123=EDGE_LOOP('',(#807,#808,#809,#810));
#124=EDGE_LOOP('',(#811,#812,#813,#814));
#125=EDGE_LOOP('',(#815,#816,#817,#818));
#126=EDGE_LOOP('',(#819,#820,#821,#822));
#127=EDGE_LOOP('',(#823,#824,#825,#826));
#128=EDGE_LOOP('',(#827,#828,#829,#830));
#129=EDGE_LOOP('',(#831,#832,#833,#834));
#130=EDGE_LOOP('',(#835,#836,#837,#838));
#131=EDGE_LOOP('',(#839,#840,#841,#842));
#132=EDGE_LOOP('',(#843,#844,#845,#846));
#133=EDGE_LOOP('',(#847,#848,#849,#850));
#134=EDGE_LOOP('',(#851,#852,#853,#854));
#135=EDGE_LOOP('',(#855,#856,#857,#858));
#136=EDGE_LOOP('',(#859,#860,#861,#862));
#137=EDGE_LOOP('',(#863,#864,#865,#866));
#138=EDGE_LOOP('',(#867,#868,#869,#870));
#139=EDGE_LOOP('',(#871));
#140=EDGE_LOOP('',(#872,#873,#874,#875));
#141=EDGE_LOOP('',(#876,#877,#878,#879));
#142=EDGE_LOOP('',(#880,#881,#882,#883));
#143=EDGE_LOOP('',(#884,#885,#886,#887));
#144=EDGE_LOOP('',(#888,#889,#890,#891));
#145=EDGE_LOOP('',(#892,#893,#894,#895,#896,#897,#898,#899,#900,#901,#902));
#146=EDGE_LOOP('',(#903));
#147=EDGE_LOOP('',(#904,#905,#906,#907));
#148=EDGE_LOOP('',(#908,#909,#910,#911));
#149=EDGE_LOOP('',(#912,#913,#914,#915));
#150=EDGE_LOOP('',(#916,#917,#918,#919));
#151=EDGE_LOOP('',(#920,#921,#922,#923));
#152=EDGE_LOOP('',(#924,#925,#926,#927));
#153=EDGE_LOOP('',(#928,#929,#930,#931));
#154=EDGE_LOOP('',(#932,#933,#934,#935));
#155=EDGE_LOOP('',(#936,#937,#938,#939));
#156=EDGE_LOOP('',(#940,#941,#942,#943));
#157=EDGE_LOOP('',(#944,#945,#946,#947));
#158=EDGE_LOOP('',(#948,#949,#950,#951));
#159=EDGE_LOOP('',(#952,#953,#954,#955));
#160=EDGE_LOOP('',(#956,#957,#958,#959));
#161=EDGE_LOOP('',(#960,#961,#962,#963));
#162=EDGE_LOOP('',(#964,#965,#966,#967));
#163=EDGE_LOOP('',(#968,#969,#970,#971));
#164=EDGE_LOOP('',(#972,#973,#974,#975));
#165=EDGE_LOOP('',(#976,#977,#978,#979));
#166=EDGE_LOOP('',(#980,#981,#982,#983));
#167=EDGE_LOOP('',(#984,#985,#986,#987));
#168=EDGE_LOOP('',(#988,#989,#990,#991));
#169=EDGE_LOOP('',(#992,#993,#994,#995,#996,#997,#998,#999,#1000,#1001,
#1002));
#170=EDGE_LOOP('',(#1003,#1004,#1005,#1006,#1007,#1008,#1009,#1010));
#171=EDGE_LOOP('',(#1011,#1012,#1013,#1014));
#172=EDGE_LOOP('',(#1015,#1016,#1017,#1018));
#173=EDGE_LOOP('',(#1019,#1020,#1021,#1022));
#174=EDGE_LOOP('',(#1023,#1024,#1025,#1026));
#175=EDGE_LOOP('',(#1027,#1028,#1029,#1030));
#176=EDGE_LOOP('',(#1031,#1032,#1033,#1034));
#177=EDGE_LOOP('',(#1035,#1036,#1037,#1038));
#178=EDGE_LOOP('',(#1039,#1040,#1041,#1042));
#179=EDGE_LOOP('',(#1043,#1044,#1045,#1046,#1047,#1048,#1049,#1050));
#180=EDGE_LOOP('',(#1051,#1052,#1053,#1054,#1055,#1056,#1057,#1058));
#181=EDGE_LOOP('',(#1059,#1060,#1061,#1062));
#182=EDGE_LOOP('',(#1063,#1064,#1065,#1066));
#183=EDGE_LOOP('',(#1067,#1068,#1069,#1070));
#184=EDGE_LOOP('',(#1071,#1072,#1073,#1074));
#185=EDGE_LOOP('',(#1075,#1076,#1077,#1078));
#186=EDGE_LOOP('',(#1079,#1080,#1081,#1082));
#187=EDGE_LOOP('',(#1083,#1084,#1085,#1086));
#188=EDGE_LOOP('',(#1087,#1088,#1089,#1090));
#189=EDGE_LOOP('',(#1091,#1092,#1093,#1094,#1095,#1096,#1097,#1098));
#190=EDGE_LOOP('',(#1099,#1100,#1101,#1102,#1103,#1104,#1105,#1106));
#191=EDGE_LOOP('',(#1107,#1108,#1109,#1110));
#192=EDGE_LOOP('',(#1111,#1112,#1113,#1114));
#193=EDGE_LOOP('',(#1115,#1116,#1117,#1118));
#194=EDGE_LOOP('',(#1119,#1120,#1121,#1122));
#195=EDGE_LOOP('',(#1123,#1124,#1125,#1126));
#196=EDGE_LOOP('',(#1127,#1128,#1129,#1130));
#197=EDGE_LOOP('',(#1131,#1132,#1133,#1134));
#198=EDGE_LOOP('',(#1135,#1136,#1137,#1138));
#199=EDGE_LOOP('',(#1139,#1140,#1141,#1142,#1143,#1144,#1145,#1146));
#200=LINE('',#1755,#360);
#201=LINE('',#1757,#361);
#202=LINE('',#1759,#362);
#203=LINE('',#1760,#363);
#204=LINE('',#1763,#364);
#205=LINE('',#1765,#365);
#206=LINE('',#1766,#366);
#207=LINE('',#1769,#367);
#208=LINE('',#1771,#368);
#209=LINE('',#1772,#369);
#210=LINE('',#1775,#370);
#211=LINE('',#1777,#371);
#212=LINE('',#1778,#372);
#213=LINE('',#1781,#373);
#214=LINE('',#1783,#374);
#215=LINE('',#1784,#375);
#216=LINE('',#1787,#376);
#217=LINE('',#1789,#377);
#218=LINE('',#1790,#378);
#219=LINE('',#1793,#379);
#220=LINE('',#1795,#380);
#221=LINE('',#1796,#381);
#222=LINE('',#1799,#382);
#223=LINE('',#1801,#383);
#224=LINE('',#1802,#384);
#225=LINE('',#1805,#385);
#226=LINE('',#1807,#386);
#227=LINE('',#1808,#387);
#228=LINE('',#1811,#388);
#229=LINE('',#1813,#389);
#230=LINE('',#1814,#390);
#231=LINE('',#1816,#391);
#232=LINE('',#1817,#392);
#233=LINE('',#1820,#393);
#234=LINE('',#1822,#394);
#235=LINE('',#1823,#395);
#236=LINE('',#1826,#396);
#237=LINE('',#1827,#397);
#238=LINE('',#1830,#398);
#239=LINE('',#1831,#399);
#240=LINE('',#1834,#400);
#241=LINE('',#1835,#401);
#242=LINE('',#1838,#402);
#243=LINE('',#1839,#403);
#244=LINE('',#1842,#404);
#245=LINE('',#1843,#405);
#246=LINE('',#1848,#406);
#247=LINE('',#1853,#407);
#248=LINE('',#1854,#408);
#249=LINE('',#1857,#409);
#250=LINE('',#1858,#410);
#251=LINE('',#1861,#411);
#252=LINE('',#1862,#412);
#253=LINE('',#1865,#413);
#254=LINE('',#1866,#414);
#255=LINE('',#1868,#415);
#256=LINE('',#1872,#416);
#257=LINE('',#1874,#417);
#258=LINE('',#1875,#418);
#259=LINE('',#1878,#419);
#260=LINE('',#1879,#420);
#261=LINE('',#1882,#421);
#262=LINE('',#1883,#422);
#263=LINE('',#1886,#423);
#264=LINE('',#1887,#424);
#265=LINE('',#1890,#425);
#266=LINE('',#1891,#426);
#267=LINE('',#1894,#427);
#268=LINE('',#1895,#428);
#269=LINE('',#1898,#429);
#270=LINE('',#1899,#430);
#271=LINE('',#1902,#431);
#272=LINE('',#1903,#432);
#273=LINE('',#1906,#433);
#274=LINE('',#1907,#434);
#275=LINE('',#1910,#435);
#276=LINE('',#1911,#436);
#277=LINE('',#1913,#437);
#278=LINE('',#1916,#438);
#279=LINE('',#1918,#439);
#280=LINE('',#1919,#440);
#281=LINE('',#1922,#441);
#282=LINE('',#1923,#442);
#283=LINE('',#1926,#443);
#284=LINE('',#1927,#444);
#285=LINE('',#1930,#445);
#286=LINE('',#1931,#446);
#287=LINE('',#1934,#447);
#288=LINE('',#1935,#448);
#289=LINE('',#1938,#449);
#290=LINE('',#1939,#450);
#291=LINE('',#1942,#451);
#292=LINE('',#1943,#452);
#293=LINE('',#1946,#453);
#294=LINE('',#1947,#454);
#295=LINE('',#1950,#455);
#296=LINE('',#1951,#456);
#297=LINE('',#1954,#457);
#298=LINE('',#1955,#458);
#299=LINE('',#1957,#459);
#300=LINE('',#1964,#460);
#301=LINE('',#1966,#461);
#302=LINE('',#1968,#462);
#303=LINE('',#1972,#463);
#304=LINE('',#1974,#464);
#305=LINE('',#1975,#465);
#306=LINE('',#1978,#466);
#307=LINE('',#1980,#467);
#308=LINE('',#1981,#468);
#309=LINE('',#1984,#469);
#310=LINE('',#1985,#470);
#311=LINE('',#1988,#471);
#312=LINE('',#1989,#472);
#313=LINE('',#1993,#473);
#314=LINE('',#1996,#474);
#315=LINE('',#1997,#475);
#316=LINE('',#2000,#476);
#317=LINE('',#2001,#477);
#318=LINE('',#2004,#478);
#319=LINE('',#2005,#479);
#320=LINE('',#2014,#480);
#321=LINE('',#2016,#481);
#322=LINE('',#2018,#482);
#323=LINE('',#2022,#483);
#324=LINE('',#2024,#484);
#325=LINE('',#2025,#485);
#326=LINE('',#2028,#486);
#327=LINE('',#2030,#487);
#328=LINE('',#2031,#488);
#329=LINE('',#2034,#489);
#330=LINE('',#2035,#490);
#331=LINE('',#2038,#491);
#332=LINE('',#2039,#492);
#333=LINE('',#2043,#493);
#334=LINE('',#2046,#494);
#335=LINE('',#2047,#495);
#336=LINE('',#2050,#496);
#337=LINE('',#2051,#497);
#338=LINE('',#2054,#498);
#339=LINE('',#2055,#499);
#340=LINE('',#2064,#500);
#341=LINE('',#2066,#501);
#342=LINE('',#2068,#502);
#343=LINE('',#2072,#503);
#344=LINE('',#2074,#504);
#345=LINE('',#2075,#505);
#346=LINE('',#2078,#506);
#347=LINE('',#2080,#507);
#348=LINE('',#2081,#508);
#349=LINE('',#2084,#509);
#350=LINE('',#2085,#510);
#351=LINE('',#2088,#511);
#352=LINE('',#2089,#512);
#353=LINE('',#2093,#513);
#354=LINE('',#2096,#514);
#355=LINE('',#2097,#515);
#356=LINE('',#2100,#516);
#357=LINE('',#2101,#517);
#358=LINE('',#2104,#518);
#359=LINE('',#2105,#519);
#360=VECTOR('',#1409,10.);
#361=VECTOR('',#1410,10.);
#362=VECTOR('',#1411,10.);
#363=VECTOR('',#1412,10.);
#364=VECTOR('',#1415,10.);
#365=VECTOR('',#1416,10.);
#366=VECTOR('',#1417,10.);
#367=VECTOR('',#1420,10.);
#368=VECTOR('',#1421,10.);
#369=VECTOR('',#1422,10.);
#370=VECTOR('',#1425,10.);
#371=VECTOR('',#1426,10.);
#372=VECTOR('',#1427,10.);
#373=VECTOR('',#1430,10.);
#374=VECTOR('',#1431,10.);
#375=VECTOR('',#1432,10.);
#376=VECTOR('',#1435,10.);
#377=VECTOR('',#1436,10.);
#378=VECTOR('',#1437,10.);
#379=VECTOR('',#1440,10.);
#380=VECTOR('',#1441,10.);
#381=VECTOR('',#1442,10.);
#382=VECTOR('',#1445,10.);
#383=VECTOR('',#1446,10.);
#384=VECTOR('',#1447,10.);
#385=VECTOR('',#1450,10.);
#386=VECTOR('',#1451,10.);
#387=VECTOR('',#1452,10.);
#388=VECTOR('',#1455,10.);
#389=VECTOR('',#1456,10.);
#390=VECTOR('',#1457,10.);
#391=VECTOR('',#1460,10.);
#392=VECTOR('',#1461,10.);
#393=VECTOR('',#1464,10.);
#394=VECTOR('',#1465,10.);
#395=VECTOR('',#1466,10.);
#396=VECTOR('',#1469,10.);
#397=VECTOR('',#1470,10.);
#398=VECTOR('',#1473,10.);
#399=VECTOR('',#1474,10.);
#400=VECTOR('',#1477,10.);
#401=VECTOR('',#1478,10.);
#402=VECTOR('',#1481,10.);
#403=VECTOR('',#1482,10.);
#404=VECTOR('',#1485,10.);
#405=VECTOR('',#1486,10.);
#406=VECTOR('',#1491,0.4);
#407=VECTOR('',#1498,10.);
#408=VECTOR('',#1499,10.);
#409=VECTOR('',#1502,10.);
#410=VECTOR('',#1503,10.);
#411=VECTOR('',#1506,10.);
#412=VECTOR('',#1507,10.);
#413=VECTOR('',#1510,10.);
#414=VECTOR('',#1511,10.);
#415=VECTOR('',#1514,10.);
#416=VECTOR('',#1519,10.);
#417=VECTOR('',#1520,10.);
#418=VECTOR('',#1521,10.);
#419=VECTOR('',#1524,10.);
#420=VECTOR('',#1525,10.);
#421=VECTOR('',#1528,10.);
#422=VECTOR('',#1529,10.);
#423=VECTOR('',#1532,10.);
#424=VECTOR('',#1533,10.);
#425=VECTOR('',#1536,10.);
#426=VECTOR('',#1537,10.);
#427=VECTOR('',#1540,10.);
#428=VECTOR('',#1541,10.);
#429=VECTOR('',#1544,10.);
#430=VECTOR('',#1545,10.);
#431=VECTOR('',#1548,10.);
#432=VECTOR('',#1549,10.);
#433=VECTOR('',#1552,10.);
#434=VECTOR('',#1553,10.);
#435=VECTOR('',#1556,10.);
#436=VECTOR('',#1557,10.);
#437=VECTOR('',#1560,10.);
#438=VECTOR('',#1563,10.);
#439=VECTOR('',#1564,10.);
#440=VECTOR('',#1565,10.);
#441=VECTOR('',#1568,10.);
#442=VECTOR('',#1569,10.);
#443=VECTOR('',#1572,10.);
#444=VECTOR('',#1573,10.);
#445=VECTOR('',#1576,10.);
#446=VECTOR('',#1577,10.);
#447=VECTOR('',#1580,10.);
#448=VECTOR('',#1581,10.);
#449=VECTOR('',#1584,10.);
#450=VECTOR('',#1585,10.);
#451=VECTOR('',#1588,10.);
#452=VECTOR('',#1589,10.);
#453=VECTOR('',#1592,10.);
#454=VECTOR('',#1593,10.);
#455=VECTOR('',#1596,10.);
#456=VECTOR('',#1597,10.);
#457=VECTOR('',#1600,10.);
#458=VECTOR('',#1601,10.);
#459=VECTOR('',#1604,10.);
#460=VECTOR('',#1611,10.);
#461=VECTOR('',#1612,10.);
#462=VECTOR('',#1613,10.);
#463=VECTOR('',#1616,10.);
#464=VECTOR('',#1617,10.);
#465=VECTOR('',#1618,10.);
#466=VECTOR('',#1621,10.);
#467=VECTOR('',#1622,10.);
#468=VECTOR('',#1623,10.);
#469=VECTOR('',#1626,10.);
#470=VECTOR('',#1627,10.);
#471=VECTOR('',#1630,10.);
#472=VECTOR('',#1631,10.);
#473=VECTOR('',#1636,10.);
#474=VECTOR('',#1639,10.);
#475=VECTOR('',#1640,10.);
#476=VECTOR('',#1643,10.);
#477=VECTOR('',#1644,10.);
#478=VECTOR('',#1647,10.);
#479=VECTOR('',#1648,10.);
#480=VECTOR('',#1659,10.);
#481=VECTOR('',#1660,10.);
#482=VECTOR('',#1661,10.);
#483=VECTOR('',#1664,10.);
#484=VECTOR('',#1665,10.);
#485=VECTOR('',#1666,10.);
#486=VECTOR('',#1669,10.);
#487=VECTOR('',#1670,10.);
#488=VECTOR('',#1671,10.);
#489=VECTOR('',#1674,10.);
#490=VECTOR('',#1675,10.);
#491=VECTOR('',#1678,10.);
#492=VECTOR('',#1679,10.);
#493=VECTOR('',#1684,10.);
#494=VECTOR('',#1687,10.);
#495=VECTOR('',#1688,10.);
#496=VECTOR('',#1691,10.);
#497=VECTOR('',#1692,10.);
#498=VECTOR('',#1695,10.);
#499=VECTOR('',#1696,10.);
#500=VECTOR('',#1707,10.);
#501=VECTOR('',#1708,10.);
#502=VECTOR('',#1709,10.);
#503=VECTOR('',#1712,10.);
#504=VECTOR('',#1713,10.);
#505=VECTOR('',#1714,10.);
#506=VECTOR('',#1717,10.);
#507=VECTOR('',#1718,10.);
#508=VECTOR('',#1719,10.);
#509=VECTOR('',#1722,10.);
#510=VECTOR('',#1723,10.);
#511=VECTOR('',#1726,10.);
#512=VECTOR('',#1727,10.);
#513=VECTOR('',#1732,10.);
#514=VECTOR('',#1735,10.);
#515=VECTOR('',#1736,10.);
#516=VECTOR('',#1739,10.);
#517=VECTOR('',#1740,10.);
#518=VECTOR('',#1743,10.);
#519=VECTOR('',#1744,10.);
#520=VERTEX_POINT('',#1753);
#521=VERTEX_POINT('',#1754);
#522=VERTEX_POINT('',#1756);
#523=VERTEX_POINT('',#1758);
#524=VERTEX_POINT('',#1762);
#525=VERTEX_POINT('',#1764);
#526=VERTEX_POINT('',#1768);
#527=VERTEX_POINT('',#1770);
#528=VERTEX_POINT('',#1774);
#529=VERTEX_POINT('',#1776);
#530=VERTEX_POINT('',#1780);
#531=VERTEX_POINT('',#1782);
#532=VERTEX_POINT('',#1786);
#533=VERTEX_POINT('',#1788);
#534=VERTEX_POINT('',#1792);
#535=VERTEX_POINT('',#1794);
#536=VERTEX_POINT('',#1798);
#537=VERTEX_POINT('',#1800);
#538=VERTEX_POINT('',#1804);
#539=VERTEX_POINT('',#1806);
#540=VERTEX_POINT('',#1810);
#541=VERTEX_POINT('',#1812);
#542=VERTEX_POINT('',#1819);
#543=VERTEX_POINT('',#1821);
#544=VERTEX_POINT('',#1825);
#545=VERTEX_POINT('',#1829);
#546=VERTEX_POINT('',#1833);
#547=VERTEX_POINT('',#1837);
#548=VERTEX_POINT('',#1841);
#549=VERTEX_POINT('',#1845);
#550=VERTEX_POINT('',#1847);
#551=VERTEX_POINT('',#1852);
#552=VERTEX_POINT('',#1856);
#553=VERTEX_POINT('',#1860);
#554=VERTEX_POINT('',#1864);
#555=VERTEX_POINT('',#1871);
#556=VERTEX_POINT('',#1873);
#557=VERTEX_POINT('',#1877);
#558=VERTEX_POINT('',#1881);
#559=VERTEX_POINT('',#1885);
#560=VERTEX_POINT('',#1889);
#561=VERTEX_POINT('',#1893);
#562=VERTEX_POINT('',#1897);
#563=VERTEX_POINT('',#1901);
#564=VERTEX_POINT('',#1905);
#565=VERTEX_POINT('',#1909);
#566=VERTEX_POINT('',#1915);
#567=VERTEX_POINT('',#1917);
#568=VERTEX_POINT('',#1921);
#569=VERTEX_POINT('',#1925);
#570=VERTEX_POINT('',#1929);
#571=VERTEX_POINT('',#1933);
#572=VERTEX_POINT('',#1937);
#573=VERTEX_POINT('',#1941);
#574=VERTEX_POINT('',#1945);
#575=VERTEX_POINT('',#1949);
#576=VERTEX_POINT('',#1953);
#577=VERTEX_POINT('',#1960);
#578=VERTEX_POINT('',#1961);
#579=VERTEX_POINT('',#1963);
#580=VERTEX_POINT('',#1965);
#581=VERTEX_POINT('',#1967);
#582=VERTEX_POINT('',#1969);
#583=VERTEX_POINT('',#1971);
#584=VERTEX_POINT('',#1973);
#585=VERTEX_POINT('',#1977);
#586=VERTEX_POINT('',#1979);
#587=VERTEX_POINT('',#1983);
#588=VERTEX_POINT('',#1987);
#589=VERTEX_POINT('',#1991);
#590=VERTEX_POINT('',#1995);
#591=VERTEX_POINT('',#1999);
#592=VERTEX_POINT('',#2003);
#593=VERTEX_POINT('',#2010);
#594=VERTEX_POINT('',#2011);
#595=VERTEX_POINT('',#2013);
#596=VERTEX_POINT('',#2015);
#597=VERTEX_POINT('',#2017);
#598=VERTEX_POINT('',#2019);
#599=VERTEX_POINT('',#2021);
#600=VERTEX_POINT('',#2023);
#601=VERTEX_POINT('',#2027);
#602=VERTEX_POINT('',#2029);
#603=VERTEX_POINT('',#2033);
#604=VERTEX_POINT('',#2037);
#605=VERTEX_POINT('',#2041);
#606=VERTEX_POINT('',#2045);
#607=VERTEX_POINT('',#2049);
#608=VERTEX_POINT('',#2053);
#609=VERTEX_POINT('',#2060);
#610=VERTEX_POINT('',#2061);
#611=VERTEX_POINT('',#2063);
#612=VERTEX_POINT('',#2065);
#613=VERTEX_POINT('',#2067);
#614=VERTEX_POINT('',#2069);
#615=VERTEX_POINT('',#2071);
#616=VERTEX_POINT('',#2073);
#617=VERTEX_POINT('',#2077);
#618=VERTEX_POINT('',#2079);
#619=VERTEX_POINT('',#2083);
#620=VERTEX_POINT('',#2087);
#621=VERTEX_POINT('',#2091);
#622=VERTEX_POINT('',#2095);
#623=VERTEX_POINT('',#2099);
#624=VERTEX_POINT('',#2103);
#625=EDGE_CURVE('',#520,#521,#200,.T.);
#626=EDGE_CURVE('',#520,#522,#201,.T.);
#627=EDGE_CURVE('',#522,#523,#202,.T.);
#628=EDGE_CURVE('',#523,#521,#203,.T.);
#629=EDGE_CURVE('',#524,#520,#204,.T.);
#630=EDGE_CURVE('',#524,#525,#205,.T.);
#631=EDGE_CURVE('',#525,#522,#206,.T.);
#632=EDGE_CURVE('',#526,#524,#207,.T.);
#633=EDGE_CURVE('',#526,#527,#208,.T.);
#634=EDGE_CURVE('',#527,#525,#209,.T.);
#635=EDGE_CURVE('',#528,#526,#210,.T.);
#636=EDGE_CURVE('',#528,#529,#211,.T.);
#637=EDGE_CURVE('',#529,#527,#212,.T.);
#638=EDGE_CURVE('',#530,#528,#213,.T.);
#639=EDGE_CURVE('',#530,#531,#214,.T.);
#640=EDGE_CURVE('',#531,#529,#215,.T.);
#641=EDGE_CURVE('',#532,#531,#216,.T.);
#642=EDGE_CURVE('',#533,#530,#217,.T.);
#643=EDGE_CURVE('',#533,#532,#218,.T.);
#644=EDGE_CURVE('',#534,#532,#219,.T.);
#645=EDGE_CURVE('',#535,#533,#220,.T.);
#646=EDGE_CURVE('',#535,#534,#221,.T.);
#647=EDGE_CURVE('',#536,#534,#222,.T.);
#648=EDGE_CURVE('',#537,#535,#223,.T.);
#649=EDGE_CURVE('',#537,#536,#224,.T.);
#650=EDGE_CURVE('',#538,#536,#225,.T.);
#651=EDGE_CURVE('',#539,#537,#226,.T.);
#652=EDGE_CURVE('',#539,#538,#227,.T.);
#653=EDGE_CURVE('',#540,#538,#228,.T.);
#654=EDGE_CURVE('',#541,#539,#229,.T.);
#655=EDGE_CURVE('',#541,#540,#230,.T.);
#656=EDGE_CURVE('',#521,#541,#231,.T.);
#657=EDGE_CURVE('',#523,#540,#232,.T.);
#658=EDGE_CURVE('',#534,#542,#233,.T.);
#659=EDGE_CURVE('',#543,#542,#234,.T.);
#660=EDGE_CURVE('',#532,#543,#235,.T.);
#661=EDGE_CURVE('',#536,#544,#236,.T.);
#662=EDGE_CURVE('',#542,#544,#237,.T.);
#663=EDGE_CURVE('',#538,#545,#238,.T.);
#664=EDGE_CURVE('',#544,#545,#239,.T.);
#665=EDGE_CURVE('',#540,#546,#240,.T.);
#666=EDGE_CURVE('',#545,#546,#241,.T.);
#667=EDGE_CURVE('',#523,#547,#242,.T.);
#668=EDGE_CURVE('',#546,#547,#243,.T.);
#669=EDGE_CURVE('',#522,#548,#244,.T.);
#670=EDGE_CURVE('',#547,#548,#245,.T.);
#671=EDGE_CURVE('',#549,#549,#22,.T.);
#672=EDGE_CURVE('',#549,#550,#246,.T.);
#673=EDGE_CURVE('',#550,#550,#23,.T.);
#674=EDGE_CURVE('',#551,#543,#247,.T.);
#675=EDGE_CURVE('',#531,#551,#248,.T.);
#676=EDGE_CURVE('',#552,#551,#249,.T.);
#677=EDGE_CURVE('',#529,#552,#250,.T.);
#678=EDGE_CURVE('',#553,#552,#251,.T.);
#679=EDGE_CURVE('',#527,#553,#252,.T.);
#680=EDGE_CURVE('',#554,#553,#253,.T.);
#681=EDGE_CURVE('',#525,#554,#254,.T.);
#682=EDGE_CURVE('',#548,#554,#255,.T.);
#683=EDGE_CURVE('',#537,#555,#256,.T.);
#684=EDGE_CURVE('',#555,#556,#257,.T.);
#685=EDGE_CURVE('',#539,#556,#258,.T.);
#686=EDGE_CURVE('',#535,#557,#259,.T.);
#687=EDGE_CURVE('',#557,#555,#260,.T.);
#688=EDGE_CURVE('',#533,#558,#261,.T.);
#689=EDGE_CURVE('',#558,#557,#262,.T.);
#690=EDGE_CURVE('',#530,#559,#263,.T.);
#691=EDGE_CURVE('',#559,#558,#264,.T.);
#692=EDGE_CURVE('',#528,#560,#265,.T.);
#693=EDGE_CURVE('',#560,#559,#266,.T.);
#694=EDGE_CURVE('',#526,#561,#267,.T.);
#695=EDGE_CURVE('',#561,#560,#268,.T.);
#696=EDGE_CURVE('',#562,#561,#269,.T.);
#697=EDGE_CURVE('',#524,#562,#270,.T.);
#698=EDGE_CURVE('',#563,#562,#271,.T.);
#699=EDGE_CURVE('',#520,#563,#272,.T.);
#700=EDGE_CURVE('',#564,#563,#273,.T.);
#701=EDGE_CURVE('',#521,#564,#274,.T.);
#702=EDGE_CURVE('',#565,#564,#275,.T.);
#703=EDGE_CURVE('',#541,#565,#276,.T.);
#704=EDGE_CURVE('',#556,#565,#277,.T.);
#705=EDGE_CURVE('',#566,#562,#278,.T.);
#706=EDGE_CURVE('',#566,#567,#279,.T.);
#707=EDGE_CURVE('',#567,#561,#280,.T.);
#708=EDGE_CURVE('',#568,#563,#281,.T.);
#709=EDGE_CURVE('',#568,#566,#282,.T.);
#710=EDGE_CURVE('',#569,#564,#283,.T.);
#711=EDGE_CURVE('',#568,#569,#284,.T.);
#712=EDGE_CURVE('',#570,#565,#285,.T.);
#713=EDGE_CURVE('',#569,#570,#286,.T.);
#714=EDGE_CURVE('',#571,#556,#287,.T.);
#715=EDGE_CURVE('',#570,#571,#288,.T.);
#716=EDGE_CURVE('',#572,#555,#289,.T.);
#717=EDGE_CURVE('',#572,#571,#290,.T.);
#718=EDGE_CURVE('',#573,#557,#291,.T.);
#719=EDGE_CURVE('',#572,#573,#292,.T.);
#720=EDGE_CURVE('',#574,#558,#293,.T.);
#721=EDGE_CURVE('',#573,#574,#294,.T.);
#722=EDGE_CURVE('',#575,#559,#295,.T.);
#723=EDGE_CURVE('',#575,#574,#296,.T.);
#724=EDGE_CURVE('',#576,#560,#297,.T.);
#725=EDGE_CURVE('',#575,#576,#298,.T.);
#726=EDGE_CURVE('',#576,#567,#299,.T.);
#727=EDGE_CURVE('',#577,#578,#24,.T.);
#728=EDGE_CURVE('',#578,#579,#300,.T.);
#729=EDGE_CURVE('',#579,#580,#301,.T.);
#730=EDGE_CURVE('',#580,#581,#302,.T.);
#731=EDGE_CURVE('',#581,#582,#25,.T.);
#732=EDGE_CURVE('',#582,#583,#303,.T.);
#733=EDGE_CURVE('',#583,#584,#304,.T.);
#734=EDGE_CURVE('',#584,#577,#305,.T.);
#735=EDGE_CURVE('',#585,#578,#306,.T.);
#736=EDGE_CURVE('',#586,#585,#307,.T.);
#737=EDGE_CURVE('',#579,#586,#308,.T.);
#738=EDGE_CURVE('',#587,#586,#309,.T.);
#739=EDGE_CURVE('',#580,#587,#310,.T.);
#740=EDGE_CURVE('',#588,#587,#311,.T.);
#741=EDGE_CURVE('',#581,#588,#312,.T.);
#742=EDGE_CURVE('',#589,#588,#26,.T.);
#743=EDGE_CURVE('',#582,#589,#313,.T.);
#744=EDGE_CURVE('',#590,#589,#314,.T.);
#745=EDGE_CURVE('',#583,#590,#315,.T.);
#746=EDGE_CURVE('',#591,#590,#316,.T.);
#747=EDGE_CURVE('',#584,#591,#317,.T.);
#748=EDGE_CURVE('',#592,#591,#318,.T.);
#749=EDGE_CURVE('',#577,#592,#319,.T.);
#750=EDGE_CURVE('',#585,#592,#27,.T.);
#751=EDGE_CURVE('',#593,#594,#28,.T.);
#752=EDGE_CURVE('',#594,#595,#320,.T.);
#753=EDGE_CURVE('',#595,#596,#321,.T.);
#754=EDGE_CURVE('',#596,#597,#322,.T.);
#755=EDGE_CURVE('',#597,#598,#29,.T.);
#756=EDGE_CURVE('',#598,#599,#323,.T.);
#757=EDGE_CURVE('',#599,#600,#324,.T.);
#758=EDGE_CURVE('',#600,#593,#325,.T.);
#759=EDGE_CURVE('',#601,#594,#326,.T.);
#760=EDGE_CURVE('',#602,#601,#327,.T.);
#761=EDGE_CURVE('',#595,#602,#328,.T.);
#762=EDGE_CURVE('',#603,#602,#329,.T.);
#763=EDGE_CURVE('',#596,#603,#330,.T.);
#764=EDGE_CURVE('',#604,#603,#331,.T.);
#765=EDGE_CURVE('',#597,#604,#332,.T.);
#766=EDGE_CURVE('',#605,#604,#30,.T.);
#767=EDGE_CURVE('',#598,#605,#333,.T.);
#768=EDGE_CURVE('',#606,#605,#334,.T.);
#769=EDGE_CURVE('',#599,#606,#335,.T.);
#770=EDGE_CURVE('',#607,#606,#336,.T.);
#771=EDGE_CURVE('',#600,#607,#337,.T.);
#772=EDGE_CURVE('',#608,#607,#338,.T.);
#773=EDGE_CURVE('',#593,#608,#339,.T.);
#774=EDGE_CURVE('',#601,#608,#31,.T.);
#775=EDGE_CURVE('',#609,#610,#32,.T.);
#776=EDGE_CURVE('',#610,#611,#340,.T.);
#777=EDGE_CURVE('',#611,#612,#341,.T.);
#778=EDGE_CURVE('',#612,#613,#342,.T.);
#779=EDGE_CURVE('',#613,#614,#33,.T.);
#780=EDGE_CURVE('',#614,#615,#343,.T.);
#781=EDGE_CURVE('',#615,#616,#344,.T.);
#782=EDGE_CURVE('',#616,#609,#345,.T.);
#783=EDGE_CURVE('',#617,#610,#346,.T.);
#784=EDGE_CURVE('',#618,#617,#347,.T.);
#785=EDGE_CURVE('',#611,#618,#348,.T.);
#786=EDGE_CURVE('',#619,#618,#349,.T.);
#787=EDGE_CURVE('',#612,#619,#350,.T.);
#788=EDGE_CURVE('',#620,#619,#351,.T.);
#789=EDGE_CURVE('',#613,#620,#352,.T.);
#790=EDGE_CURVE('',#621,#620,#34,.T.);
#791=EDGE_CURVE('',#614,#621,#353,.T.);
#792=EDGE_CURVE('',#622,#621,#354,.T.);
#793=EDGE_CURVE('',#615,#622,#355,.T.);
#794=EDGE_CURVE('',#623,#622,#356,.T.);
#795=EDGE_CURVE('',#616,#623,#357,.T.);
#796=EDGE_CURVE('',#624,#623,#358,.T.);
#797=EDGE_CURVE('',#609,#624,#359,.T.);
#798=EDGE_CURVE('',#617,#624,#35,.T.);
#799=ORIENTED_EDGE('',*,*,#625,.F.);
#800=ORIENTED_EDGE('',*,*,#626,.T.);
#801=ORIENTED_EDGE('',*,*,#627,.T.);
#802=ORIENTED_EDGE('',*,*,#628,.T.);
#803=ORIENTED_EDGE('',*,*,#629,.F.);
#804=ORIENTED_EDGE('',*,*,#630,.T.);
#805=ORIENTED_EDGE('',*,*,#631,.T.);
#806=ORIENTED_EDGE('',*,*,#626,.F.);
#807=ORIENTED_EDGE('',*,*,#632,.F.);
#808=ORIENTED_EDGE('',*,*,#633,.T.);
#809=ORIENTED_EDGE('',*,*,#634,.T.);
#810=ORIENTED_EDGE('',*,*,#630,.F.);
#811=ORIENTED_EDGE('',*,*,#635,.F.);
#812=ORIENTED_EDGE('',*,*,#636,.T.);
#813=ORIENTED_EDGE('',*,*,#637,.T.);
#814=ORIENTED_EDGE('',*,*,#633,.F.);
#815=ORIENTED_EDGE('',*,*,#638,.F.);
#816=ORIENTED_EDGE('',*,*,#639,.T.);
#817=ORIENTED_EDGE('',*,*,#640,.T.);
#818=ORIENTED_EDGE('',*,*,#636,.F.);
#819=ORIENTED_EDGE('',*,*,#641,.T.);
#820=ORIENTED_EDGE('',*,*,#639,.F.);
#821=ORIENTED_EDGE('',*,*,#642,.F.);
#822=ORIENTED_EDGE('',*,*,#643,.T.);
#823=ORIENTED_EDGE('',*,*,#644,.T.);
#824=ORIENTED_EDGE('',*,*,#643,.F.);
#825=ORIENTED_EDGE('',*,*,#645,.F.);
#826=ORIENTED_EDGE('',*,*,#646,.T.);
#827=ORIENTED_EDGE('',*,*,#647,.T.);
#828=ORIENTED_EDGE('',*,*,#646,.F.);
#829=ORIENTED_EDGE('',*,*,#648,.F.);
#830=ORIENTED_EDGE('',*,*,#649,.T.);
#831=ORIENTED_EDGE('',*,*,#650,.T.);
#832=ORIENTED_EDGE('',*,*,#649,.F.);
#833=ORIENTED_EDGE('',*,*,#651,.F.);
#834=ORIENTED_EDGE('',*,*,#652,.T.);
#835=ORIENTED_EDGE('',*,*,#653,.T.);
#836=ORIENTED_EDGE('',*,*,#652,.F.);
#837=ORIENTED_EDGE('',*,*,#654,.F.);
#838=ORIENTED_EDGE('',*,*,#655,.T.);
#839=ORIENTED_EDGE('',*,*,#656,.F.);
#840=ORIENTED_EDGE('',*,*,#628,.F.);
#841=ORIENTED_EDGE('',*,*,#657,.T.);
#842=ORIENTED_EDGE('',*,*,#655,.F.);
#843=ORIENTED_EDGE('',*,*,#644,.F.);
#844=ORIENTED_EDGE('',*,*,#658,.T.);
#845=ORIENTED_EDGE('',*,*,#659,.F.);
#846=ORIENTED_EDGE('',*,*,#660,.F.);
#847=ORIENTED_EDGE('',*,*,#647,.F.);
#848=ORIENTED_EDGE('',*,*,#661,.T.);
#849=ORIENTED_EDGE('',*,*,#662,.F.);
#850=ORIENTED_EDGE('',*,*,#658,.F.);
#851=ORIENTED_EDGE('',*,*,#650,.F.);
#852=ORIENTED_EDGE('',*,*,#663,.T.);
#853=ORIENTED_EDGE('',*,*,#664,.F.);
#854=ORIENTED_EDGE('',*,*,#661,.F.);
#855=ORIENTED_EDGE('',*,*,#653,.F.);
#856=ORIENTED_EDGE('',*,*,#665,.T.);
#857=ORIENTED_EDGE('',*,*,#666,.F.);
#858=ORIENTED_EDGE('',*,*,#663,.F.);
#859=ORIENTED_EDGE('',*,*,#657,.F.);
#860=ORIENTED_EDGE('',*,*,#667,.T.);
#861=ORIENTED_EDGE('',*,*,#668,.F.);
#862=ORIENTED_EDGE('',*,*,#665,.F.);
#863=ORIENTED_EDGE('',*,*,#627,.F.);
#864=ORIENTED_EDGE('',*,*,#669,.T.);
#865=ORIENTED_EDGE('',*,*,#670,.F.);
#866=ORIENTED_EDGE('',*,*,#667,.F.);
#867=ORIENTED_EDGE('',*,*,#671,.F.);
#868=ORIENTED_EDGE('',*,*,#672,.T.);
#869=ORIENTED_EDGE('',*,*,#673,.T.);
#870=ORIENTED_EDGE('',*,*,#672,.F.);
#871=ORIENTED_EDGE('',*,*,#673,.F.);
#872=ORIENTED_EDGE('',*,*,#641,.F.);
#873=ORIENTED_EDGE('',*,*,#660,.T.);
#874=ORIENTED_EDGE('',*,*,#674,.F.);
#875=ORIENTED_EDGE('',*,*,#675,.F.);
#876=ORIENTED_EDGE('',*,*,#640,.F.);
#877=ORIENTED_EDGE('',*,*,#675,.T.);
#878=ORIENTED_EDGE('',*,*,#676,.F.);
#879=ORIENTED_EDGE('',*,*,#677,.F.);
#880=ORIENTED_EDGE('',*,*,#637,.F.);
#881=ORIENTED_EDGE('',*,*,#677,.T.);
#882=ORIENTED_EDGE('',*,*,#678,.F.);
#883=ORIENTED_EDGE('',*,*,#679,.F.);
#884=ORIENTED_EDGE('',*,*,#634,.F.);
#885=ORIENTED_EDGE('',*,*,#679,.T.);
#886=ORIENTED_EDGE('',*,*,#680,.F.);
#887=ORIENTED_EDGE('',*,*,#681,.F.);
#888=ORIENTED_EDGE('',*,*,#631,.F.);
#889=ORIENTED_EDGE('',*,*,#681,.T.);
#890=ORIENTED_EDGE('',*,*,#682,.F.);
#891=ORIENTED_EDGE('',*,*,#669,.F.);
#892=ORIENTED_EDGE('',*,*,#670,.T.);
#893=ORIENTED_EDGE('',*,*,#682,.T.);
#894=ORIENTED_EDGE('',*,*,#680,.T.);
#895=ORIENTED_EDGE('',*,*,#678,.T.);
#896=ORIENTED_EDGE('',*,*,#676,.T.);
#897=ORIENTED_EDGE('',*,*,#674,.T.);
#898=ORIENTED_EDGE('',*,*,#659,.T.);
#899=ORIENTED_EDGE('',*,*,#662,.T.);
#900=ORIENTED_EDGE('',*,*,#664,.T.);
#901=ORIENTED_EDGE('',*,*,#666,.T.);
#902=ORIENTED_EDGE('',*,*,#668,.T.);
#903=ORIENTED_EDGE('',*,*,#671,.T.);
#904=ORIENTED_EDGE('',*,*,#651,.T.);
#905=ORIENTED_EDGE('',*,*,#683,.T.);
#906=ORIENTED_EDGE('',*,*,#684,.T.);
#907=ORIENTED_EDGE('',*,*,#685,.F.);
#908=ORIENTED_EDGE('',*,*,#648,.T.);
#909=ORIENTED_EDGE('',*,*,#686,.T.);
#910=ORIENTED_EDGE('',*,*,#687,.T.);
#911=ORIENTED_EDGE('',*,*,#683,.F.);
#912=ORIENTED_EDGE('',*,*,#645,.T.);
#913=ORIENTED_EDGE('',*,*,#688,.T.);
#914=ORIENTED_EDGE('',*,*,#689,.T.);
#915=ORIENTED_EDGE('',*,*,#686,.F.);
#916=ORIENTED_EDGE('',*,*,#642,.T.);
#917=ORIENTED_EDGE('',*,*,#690,.T.);
#918=ORIENTED_EDGE('',*,*,#691,.T.);
#919=ORIENTED_EDGE('',*,*,#688,.F.);
#920=ORIENTED_EDGE('',*,*,#638,.T.);
#921=ORIENTED_EDGE('',*,*,#692,.T.);
#922=ORIENTED_EDGE('',*,*,#693,.T.);
#923=ORIENTED_EDGE('',*,*,#690,.F.);
#924=ORIENTED_EDGE('',*,*,#635,.T.);
#925=ORIENTED_EDGE('',*,*,#694,.T.);
#926=ORIENTED_EDGE('',*,*,#695,.T.);
#927=ORIENTED_EDGE('',*,*,#692,.F.);
#928=ORIENTED_EDGE('',*,*,#696,.T.);
#929=ORIENTED_EDGE('',*,*,#694,.F.);
#930=ORIENTED_EDGE('',*,*,#632,.T.);
#931=ORIENTED_EDGE('',*,*,#697,.T.);
#932=ORIENTED_EDGE('',*,*,#698,.T.);
#933=ORIENTED_EDGE('',*,*,#697,.F.);
#934=ORIENTED_EDGE('',*,*,#629,.T.);
#935=ORIENTED_EDGE('',*,*,#699,.T.);
#936=ORIENTED_EDGE('',*,*,#700,.T.);
#937=ORIENTED_EDGE('',*,*,#699,.F.);
#938=ORIENTED_EDGE('',*,*,#625,.T.);
#939=ORIENTED_EDGE('',*,*,#701,.T.);
#940=ORIENTED_EDGE('',*,*,#702,.T.);
#941=ORIENTED_EDGE('',*,*,#701,.F.);
#942=ORIENTED_EDGE('',*,*,#656,.T.);
#943=ORIENTED_EDGE('',*,*,#703,.T.);
#944=ORIENTED_EDGE('',*,*,#704,.T.);
#945=ORIENTED_EDGE('',*,*,#703,.F.);
#946=ORIENTED_EDGE('',*,*,#654,.T.);
#947=ORIENTED_EDGE('',*,*,#685,.T.);
#948=ORIENTED_EDGE('',*,*,#696,.F.);
#949=ORIENTED_EDGE('',*,*,#705,.F.);
#950=ORIENTED_EDGE('',*,*,#706,.T.);
#951=ORIENTED_EDGE('',*,*,#707,.T.);
#952=ORIENTED_EDGE('',*,*,#698,.F.);
#953=ORIENTED_EDGE('',*,*,#708,.F.);
#954=ORIENTED_EDGE('',*,*,#709,.T.);
#955=ORIENTED_EDGE('',*,*,#705,.T.);
#956=ORIENTED_EDGE('',*,*,#700,.F.);
#957=ORIENTED_EDGE('',*,*,#710,.F.);
#958=ORIENTED_EDGE('',*,*,#711,.F.);
#959=ORIENTED_EDGE('',*,*,#708,.T.);
#960=ORIENTED_EDGE('',*,*,#702,.F.);
#961=ORIENTED_EDGE('',*,*,#712,.F.);
#962=ORIENTED_EDGE('',*,*,#713,.F.);
#963=ORIENTED_EDGE('',*,*,#710,.T.);
#964=ORIENTED_EDGE('',*,*,#704,.F.);
#965=ORIENTED_EDGE('',*,*,#714,.F.);
#966=ORIENTED_EDGE('',*,*,#715,.F.);
#967=ORIENTED_EDGE('',*,*,#712,.T.);
#968=ORIENTED_EDGE('',*,*,#684,.F.);
#969=ORIENTED_EDGE('',*,*,#716,.F.);
#970=ORIENTED_EDGE('',*,*,#717,.T.);
#971=ORIENTED_EDGE('',*,*,#714,.T.);
#972=ORIENTED_EDGE('',*,*,#687,.F.);
#973=ORIENTED_EDGE('',*,*,#718,.F.);
#974=ORIENTED_EDGE('',*,*,#719,.F.);
#975=ORIENTED_EDGE('',*,*,#716,.T.);
#976=ORIENTED_EDGE('',*,*,#689,.F.);
#977=ORIENTED_EDGE('',*,*,#720,.F.);
#978=ORIENTED_EDGE('',*,*,#721,.F.);
#979=ORIENTED_EDGE('',*,*,#718,.T.);
#980=ORIENTED_EDGE('',*,*,#691,.F.);
#981=ORIENTED_EDGE('',*,*,#722,.F.);
#982=ORIENTED_EDGE('',*,*,#723,.T.);
#983=ORIENTED_EDGE('',*,*,#720,.T.);
#984=ORIENTED_EDGE('',*,*,#693,.F.);
#985=ORIENTED_EDGE('',*,*,#724,.F.);
#986=ORIENTED_EDGE('',*,*,#725,.F.);
#987=ORIENTED_EDGE('',*,*,#722,.T.);
#988=ORIENTED_EDGE('',*,*,#695,.F.);
#989=ORIENTED_EDGE('',*,*,#707,.F.);
#990=ORIENTED_EDGE('',*,*,#726,.F.);
#991=ORIENTED_EDGE('',*,*,#724,.T.);
#992=ORIENTED_EDGE('',*,*,#709,.F.);
#993=ORIENTED_EDGE('',*,*,#711,.T.);
#994=ORIENTED_EDGE('',*,*,#713,.T.);
#995=ORIENTED_EDGE('',*,*,#715,.T.);
#996=ORIENTED_EDGE('',*,*,#717,.F.);
#997=ORIENTED_EDGE('',*,*,#719,.T.);
#998=ORIENTED_EDGE('',*,*,#721,.T.);
#999=ORIENTED_EDGE('',*,*,#723,.F.);
#1000=ORIENTED_EDGE('',*,*,#725,.T.);
#1001=ORIENTED_EDGE('',*,*,#726,.T.);
#1002=ORIENTED_EDGE('',*,*,#706,.F.);
#1003=ORIENTED_EDGE('',*,*,#727,.T.);
#1004=ORIENTED_EDGE('',*,*,#728,.T.);
#1005=ORIENTED_EDGE('',*,*,#729,.T.);
#1006=ORIENTED_EDGE('',*,*,#730,.T.);
#1007=ORIENTED_EDGE('',*,*,#731,.T.);
#1008=ORIENTED_EDGE('',*,*,#732,.T.);
#1009=ORIENTED_EDGE('',*,*,#733,.T.);
#1010=ORIENTED_EDGE('',*,*,#734,.T.);
#1011=ORIENTED_EDGE('',*,*,#735,.F.);
#1012=ORIENTED_EDGE('',*,*,#736,.F.);
#1013=ORIENTED_EDGE('',*,*,#737,.F.);
#1014=ORIENTED_EDGE('',*,*,#728,.F.);
#1015=ORIENTED_EDGE('',*,*,#737,.T.);
#1016=ORIENTED_EDGE('',*,*,#738,.F.);
#1017=ORIENTED_EDGE('',*,*,#739,.F.);
#1018=ORIENTED_EDGE('',*,*,#729,.F.);
#1019=ORIENTED_EDGE('',*,*,#739,.T.);
#1020=ORIENTED_EDGE('',*,*,#740,.F.);
#1021=ORIENTED_EDGE('',*,*,#741,.F.);
#1022=ORIENTED_EDGE('',*,*,#730,.F.);
#1023=ORIENTED_EDGE('',*,*,#741,.T.);
#1024=ORIENTED_EDGE('',*,*,#742,.F.);
#1025=ORIENTED_EDGE('',*,*,#743,.F.);
#1026=ORIENTED_EDGE('',*,*,#731,.F.);
#1027=ORIENTED_EDGE('',*,*,#743,.T.);
#1028=ORIENTED_EDGE('',*,*,#744,.F.);
#1029=ORIENTED_EDGE('',*,*,#745,.F.);
#1030=ORIENTED_EDGE('',*,*,#732,.F.);
#1031=ORIENTED_EDGE('',*,*,#745,.T.);
#1032=ORIENTED_EDGE('',*,*,#746,.F.);
#1033=ORIENTED_EDGE('',*,*,#747,.F.);
#1034=ORIENTED_EDGE('',*,*,#733,.F.);
#1035=ORIENTED_EDGE('',*,*,#747,.T.);
#1036=ORIENTED_EDGE('',*,*,#748,.F.);
#1037=ORIENTED_EDGE('',*,*,#749,.F.);
#1038=ORIENTED_EDGE('',*,*,#734,.F.);
#1039=ORIENTED_EDGE('',*,*,#749,.T.);
#1040=ORIENTED_EDGE('',*,*,#750,.F.);
#1041=ORIENTED_EDGE('',*,*,#735,.T.);
#1042=ORIENTED_EDGE('',*,*,#727,.F.);
#1043=ORIENTED_EDGE('',*,*,#750,.T.);
#1044=ORIENTED_EDGE('',*,*,#748,.T.);
#1045=ORIENTED_EDGE('',*,*,#746,.T.);
#1046=ORIENTED_EDGE('',*,*,#744,.T.);
#1047=ORIENTED_EDGE('',*,*,#742,.T.);
#1048=ORIENTED_EDGE('',*,*,#740,.T.);
#1049=ORIENTED_EDGE('',*,*,#738,.T.);
#1050=ORIENTED_EDGE('',*,*,#736,.T.);
#1051=ORIENTED_EDGE('',*,*,#751,.T.);
#1052=ORIENTED_EDGE('',*,*,#752,.T.);
#1053=ORIENTED_EDGE('',*,*,#753,.T.);
#1054=ORIENTED_EDGE('',*,*,#754,.T.);
#1055=ORIENTED_EDGE('',*,*,#755,.T.);
#1056=ORIENTED_EDGE('',*,*,#756,.T.);
#1057=ORIENTED_EDGE('',*,*,#757,.T.);
#1058=ORIENTED_EDGE('',*,*,#758,.T.);
#1059=ORIENTED_EDGE('',*,*,#759,.F.);
#1060=ORIENTED_EDGE('',*,*,#760,.F.);
#1061=ORIENTED_EDGE('',*,*,#761,.F.);
#1062=ORIENTED_EDGE('',*,*,#752,.F.);
#1063=ORIENTED_EDGE('',*,*,#761,.T.);
#1064=ORIENTED_EDGE('',*,*,#762,.F.);
#1065=ORIENTED_EDGE('',*,*,#763,.F.);
#1066=ORIENTED_EDGE('',*,*,#753,.F.);
#1067=ORIENTED_EDGE('',*,*,#763,.T.);
#1068=ORIENTED_EDGE('',*,*,#764,.F.);
#1069=ORIENTED_EDGE('',*,*,#765,.F.);
#1070=ORIENTED_EDGE('',*,*,#754,.F.);
#1071=ORIENTED_EDGE('',*,*,#765,.T.);
#1072=ORIENTED_EDGE('',*,*,#766,.F.);
#1073=ORIENTED_EDGE('',*,*,#767,.F.);
#1074=ORIENTED_EDGE('',*,*,#755,.F.);
#1075=ORIENTED_EDGE('',*,*,#767,.T.);
#1076=ORIENTED_EDGE('',*,*,#768,.F.);
#1077=ORIENTED_EDGE('',*,*,#769,.F.);
#1078=ORIENTED_EDGE('',*,*,#756,.F.);
#1079=ORIENTED_EDGE('',*,*,#769,.T.);
#1080=ORIENTED_EDGE('',*,*,#770,.F.);
#1081=ORIENTED_EDGE('',*,*,#771,.F.);
#1082=ORIENTED_EDGE('',*,*,#757,.F.);
#1083=ORIENTED_EDGE('',*,*,#771,.T.);
#1084=ORIENTED_EDGE('',*,*,#772,.F.);
#1085=ORIENTED_EDGE('',*,*,#773,.F.);
#1086=ORIENTED_EDGE('',*,*,#758,.F.);
#1087=ORIENTED_EDGE('',*,*,#773,.T.);
#1088=ORIENTED_EDGE('',*,*,#774,.F.);
#1089=ORIENTED_EDGE('',*,*,#759,.T.);
#1090=ORIENTED_EDGE('',*,*,#751,.F.);
#1091=ORIENTED_EDGE('',*,*,#774,.T.);
#1092=ORIENTED_EDGE('',*,*,#772,.T.);
#1093=ORIENTED_EDGE('',*,*,#770,.T.);
#1094=ORIENTED_EDGE('',*,*,#768,.T.);
#1095=ORIENTED_EDGE('',*,*,#766,.T.);
#1096=ORIENTED_EDGE('',*,*,#764,.T.);
#1097=ORIENTED_EDGE('',*,*,#762,.T.);
#1098=ORIENTED_EDGE('',*,*,#760,.T.);
#1099=ORIENTED_EDGE('',*,*,#775,.T.);
#1100=ORIENTED_EDGE('',*,*,#776,.T.);
#1101=ORIENTED_EDGE('',*,*,#777,.T.);
#1102=ORIENTED_EDGE('',*,*,#778,.T.);
#1103=ORIENTED_EDGE('',*,*,#779,.T.);
#1104=ORIENTED_EDGE('',*,*,#780,.T.);
#1105=ORIENTED_EDGE('',*,*,#781,.T.);
#1106=ORIENTED_EDGE('',*,*,#782,.T.);
#1107=ORIENTED_EDGE('',*,*,#783,.F.);
#1108=ORIENTED_EDGE('',*,*,#784,.F.);
#1109=ORIENTED_EDGE('',*,*,#785,.F.);
#1110=ORIENTED_EDGE('',*,*,#776,.F.);
#1111=ORIENTED_EDGE('',*,*,#785,.T.);
#1112=ORIENTED_EDGE('',*,*,#786,.F.);
#1113=ORIENTED_EDGE('',*,*,#787,.F.);
#1114=ORIENTED_EDGE('',*,*,#777,.F.);
#1115=ORIENTED_EDGE('',*,*,#787,.T.);
#1116=ORIENTED_EDGE('',*,*,#788,.F.);
#1117=ORIENTED_EDGE('',*,*,#789,.F.);
#1118=ORIENTED_EDGE('',*,*,#778,.F.);
#1119=ORIENTED_EDGE('',*,*,#789,.T.);
#1120=ORIENTED_EDGE('',*,*,#790,.F.);
#1121=ORIENTED_EDGE('',*,*,#791,.F.);
#1122=ORIENTED_EDGE('',*,*,#779,.F.);
#1123=ORIENTED_EDGE('',*,*,#791,.T.);
#1124=ORIENTED_EDGE('',*,*,#792,.F.);
#1125=ORIENTED_EDGE('',*,*,#793,.F.);
#1126=ORIENTED_EDGE('',*,*,#780,.F.);
#1127=ORIENTED_EDGE('',*,*,#793,.T.);
#1128=ORIENTED_EDGE('',*,*,#794,.F.);
#1129=ORIENTED_EDGE('',*,*,#795,.F.);
#1130=ORIENTED_EDGE('',*,*,#781,.F.);
#1131=ORIENTED_EDGE('',*,*,#795,.T.);
#1132=ORIENTED_EDGE('',*,*,#796,.F.);
#1133=ORIENTED_EDGE('',*,*,#797,.F.);
#1134=ORIENTED_EDGE('',*,*,#782,.F.);
#1135=ORIENTED_EDGE('',*,*,#797,.T.);
#1136=ORIENTED_EDGE('',*,*,#798,.F.);
#1137=ORIENTED_EDGE('',*,*,#783,.T.);
#1138=ORIENTED_EDGE('',*,*,#775,.F.);
#1139=ORIENTED_EDGE('',*,*,#798,.T.);
#1140=ORIENTED_EDGE('',*,*,#796,.T.);
#1141=ORIENTED_EDGE('',*,*,#794,.T.);
#1142=ORIENTED_EDGE('',*,*,#792,.T.);
#1143=ORIENTED_EDGE('',*,*,#790,.T.);
#1144=ORIENTED_EDGE('',*,*,#788,.T.);
#1145=ORIENTED_EDGE('',*,*,#786,.T.);
#1146=ORIENTED_EDGE('',*,*,#784,.T.);
#1147=PLANE('',#1313);
#1148=PLANE('',#1314);
#1149=PLANE('',#1315);
#1150=PLANE('',#1316);
#1151=PLANE('',#1317);
#1152=PLANE('',#1318);
#1153=PLANE('',#1319);
#1154=PLANE('',#1320);
#1155=PLANE('',#1321);
#1156=PLANE('',#1322);
#1157=PLANE('',#1323);
#1158=PLANE('',#1324);
#1159=PLANE('',#1325);
#1160=PLANE('',#1326);
#1161=PLANE('',#1327);
#1162=PLANE('',#1328);
#1163=PLANE('',#1329);
#1164=PLANE('',#1333);
#1165=PLANE('',#1334);
#1166=PLANE('',#1335);
#1167=PLANE('',#1336);
#1168=PLANE('',#1337);
#1169=PLANE('',#1338);
#1170=PLANE('',#1339);
#1171=PLANE('',#1340);
#1172=PLANE('',#1341);
#1173=PLANE('',#1342);
#1174=PLANE('',#1343);
#1175=PLANE('',#1344);
#1176=PLANE('',#1345);
#1177=PLANE('',#1346);
#1178=PLANE('',#1347);
#1179=PLANE('',#1348);
#1180=PLANE('',#1349);
#1181=PLANE('',#1350);
#1182=PLANE('',#1351);
#1183=PLANE('',#1352);
#1184=PLANE('',#1353);
#1185=PLANE('',#1354);
#1186=PLANE('',#1355);
#1187=PLANE('',#1356);
#1188=PLANE('',#1357);
#1189=PLANE('',#1358);
#1190=PLANE('',#1359);
#1191=PLANE('',#1360);
#1192=PLANE('',#1361);
#1193=PLANE('',#1362);
#1194=PLANE('',#1363);
#1195=PLANE('',#1366);
#1196=PLANE('',#1367);
#1197=PLANE('',#1368);
#1198=PLANE('',#1371);
#1199=PLANE('',#1372);
#1200=PLANE('',#1373);
#1201=PLANE('',#1376);
#1202=PLANE('',#1377);
#1203=PLANE('',#1380);
#1204=PLANE('',#1381);
#1205=PLANE('',#1382);
#1206=PLANE('',#1385);
#1207=PLANE('',#1386);
#1208=PLANE('',#1387);
#1209=PLANE('',#1390);
#1210=PLANE('',#1391);
#1211=PLANE('',#1394);
#1212=PLANE('',#1395);
#1213=PLANE('',#1396);
#1214=PLANE('',#1399);
#1215=PLANE('',#1400);
#1216=PLANE('',#1401);
#1217=PLANE('',#1404);
#1218=ADVANCED_FACE('',(#43),#1147,.T.);
#1219=ADVANCED_FACE('',(#44),#1148,.T.);
#1220=ADVANCED_FACE('',(#45),#1149,.T.);
#1221=ADVANCED_FACE('',(#46),#1150,.T.);
#1222=ADVANCED_FACE('',(#47),#1151,.T.);
#1223=ADVANCED_FACE('',(#48),#1152,.T.);
#1224=ADVANCED_FACE('',(#49),#1153,.T.);
#1225=ADVANCED_FACE('',(#50),#1154,.T.);
#1226=ADVANCED_FACE('',(#51),#1155,.T.);
#1227=ADVANCED_FACE('',(#52),#1156,.T.);
#1228=ADVANCED_FACE('',(#53),#1157,.T.);
#1229=ADVANCED_FACE('',(#54),#1158,.T.);
#1230=ADVANCED_FACE('',(#55),#1159,.T.);
#1231=ADVANCED_FACE('',(#56),#1160,.T.);
#1232=ADVANCED_FACE('',(#57),#1161,.T.);
#1233=ADVANCED_FACE('',(#58),#1162,.T.);
#1234=ADVANCED_FACE('',(#59),#1163,.T.);
#1235=ADVANCED_FACE('',(#60),#36,.F.);
#1236=ADVANCED_FACE('',(#61),#1164,.T.);
#1237=ADVANCED_FACE('',(#62),#1165,.T.);
#1238=ADVANCED_FACE('',(#63),#1166,.T.);
#1239=ADVANCED_FACE('',(#64),#1167,.T.);
#1240=ADVANCED_FACE('',(#65),#1168,.T.);
#1241=ADVANCED_FACE('',(#66),#1169,.T.);
#1242=ADVANCED_FACE('',(#67,#21),#1170,.T.);
#1243=ADVANCED_FACE('',(#68),#1171,.T.);
#1244=ADVANCED_FACE('',(#69),#1172,.T.);
#1245=ADVANCED_FACE('',(#70),#1173,.T.);
#1246=ADVANCED_FACE('',(#71),#1174,.T.);
#1247=ADVANCED_FACE('',(#72),#1175,.T.);
#1248=ADVANCED_FACE('',(#73),#1176,.T.);
#1249=ADVANCED_FACE('',(#74),#1177,.T.);
#1250=ADVANCED_FACE('',(#75),#1178,.T.);
#1251=ADVANCED_FACE('',(#76),#1179,.T.);
#1252=ADVANCED_FACE('',(#77),#1180,.T.);
#1253=ADVANCED_FACE('',(#78),#1181,.T.);
#1254=ADVANCED_FACE('',(#79),#1182,.T.);
#1255=ADVANCED_FACE('',(#80),#1183,.T.);
#1256=ADVANCED_FACE('',(#81),#1184,.T.);
#1257=ADVANCED_FACE('',(#82),#1185,.T.);
#1258=ADVANCED_FACE('',(#83),#1186,.T.);
#1259=ADVANCED_FACE('',(#84),#1187,.T.);
#1260=ADVANCED_FACE('',(#85),#1188,.T.);
#1261=ADVANCED_FACE('',(#86),#1189,.T.);
#1262=ADVANCED_FACE('',(#87),#1190,.T.);
#1263=ADVANCED_FACE('',(#88),#1191,.T.);
#1264=ADVANCED_FACE('',(#89),#1192,.T.);
#1265=ADVANCED_FACE('',(#90),#1193,.F.);
#1266=ADVANCED_FACE('',(#91),#1194,.F.);
#1267=ADVANCED_FACE('',(#92),#1195,.T.);
#1268=ADVANCED_FACE('',(#93),#1196,.T.);
#1269=ADVANCED_FACE('',(#94),#1197,.T.);
#1270=ADVANCED_FACE('',(#95),#37,.F.);
#1271=ADVANCED_FACE('',(#96),#1198,.T.);
#1272=ADVANCED_FACE('',(#97),#1199,.T.);
#1273=ADVANCED_FACE('',(#98),#1200,.T.);
#1274=ADVANCED_FACE('',(#99),#38,.T.);
#1275=ADVANCED_FACE('',(#100),#1201,.T.);
#1276=ADVANCED_FACE('',(#101),#1202,.F.);
#1277=ADVANCED_FACE('',(#102),#1203,.T.);
#1278=ADVANCED_FACE('',(#103),#1204,.T.);
#1279=ADVANCED_FACE('',(#104),#1205,.T.);
#1280=ADVANCED_FACE('',(#105),#39,.F.);
#1281=ADVANCED_FACE('',(#106),#1206,.T.);
#1282=ADVANCED_FACE('',(#107),#1207,.T.);
#1283=ADVANCED_FACE('',(#108),#1208,.T.);
#1284=ADVANCED_FACE('',(#109),#40,.T.);
#1285=ADVANCED_FACE('',(#110),#1209,.T.);
#1286=ADVANCED_FACE('',(#111),#1210,.F.);
#1287=ADVANCED_FACE('',(#112),#1211,.T.);
#1288=ADVANCED_FACE('',(#113),#1212,.T.);
#1289=ADVANCED_FACE('',(#114),#1213,.T.);
#1290=ADVANCED_FACE('',(#115),#41,.F.);
#1291=ADVANCED_FACE('',(#116),#1214,.T.);
#1292=ADVANCED_FACE('',(#117),#1215,.T.);
#1293=ADVANCED_FACE('',(#118),#1216,.T.);
#1294=ADVANCED_FACE('',(#119),#42,.T.);
#1295=ADVANCED_FACE('',(#120),#1217,.T.);
#1296=CLOSED_SHELL('',(#1218,#1219,#1220,#1221,#1222,#1223,#1224,#1225,
#1226,#1227,#1228,#1229,#1230,#1231,#1232,#1233,#1234,#1235,#1236,#1237,
#1238,#1239,#1240,#1241,#1242,#1243,#1244,#1245,#1246,#1247,#1248,#1249,
#1250,#1251,#1252,#1253,#1254,#1255,#1256,#1257,#1258,#1259,#1260,#1261,
#1262,#1263,#1264,#1265));
#1297=CLOSED_SHELL('',(#1266,#1267,#1268,#1269,#1270,#1271,#1272,#1273,
#1274,#1275));
#1298=CLOSED_SHELL('',(#1276,#1277,#1278,#1279,#1280,#1281,#1282,#1283,
#1284,#1285));
#1299=CLOSED_SHELL('',(#1286,#1287,#1288,#1289,#1290,#1291,#1292,#1293,
#1294,#1295));
#1300=DERIVED_UNIT_ELEMENT(#1302,1.);
#1301=DERIVED_UNIT_ELEMENT(#2114,-3.);
#1302=(
MASS_UNIT()
NAMED_UNIT(*)
SI_UNIT(.KILO.,.GRAM.)
);
#1303=DERIVED_UNIT((#1300,#1301));
#1304=MEASURE_REPRESENTATION_ITEM('density measure',
POSITIVE_RATIO_MEASURE(7850.),#1303);
#1305=PROPERTY_DEFINITION_REPRESENTATION(#1310,#1307);
#1306=PROPERTY_DEFINITION_REPRESENTATION(#1311,#1308);
#1307=REPRESENTATION('material name',(#1309),#2111);
#1308=REPRESENTATION('density',(#1304),#2111);
#1309=DESCRIPTIVE_REPRESENTATION_ITEM('Steel','Steel');
#1310=PROPERTY_DEFINITION('material property','material name',#2121);
#1311=PROPERTY_DEFINITION('material property','density of part',#2121);
#1312=AXIS2_PLACEMENT_3D('',#1751,#1405,#1406);
#1313=AXIS2_PLACEMENT_3D('',#1752,#1407,#1408);
#1314=AXIS2_PLACEMENT_3D('',#1761,#1413,#1414);
#1315=AXIS2_PLACEMENT_3D('',#1767,#1418,#1419);
#1316=AXIS2_PLACEMENT_3D('',#1773,#1423,#1424);
#1317=AXIS2_PLACEMENT_3D('',#1779,#1428,#1429);
#1318=AXIS2_PLACEMENT_3D('',#1785,#1433,#1434);
#1319=AXIS2_PLACEMENT_3D('',#1791,#1438,#1439);
#1320=AXIS2_PLACEMENT_3D('',#1797,#1443,#1444);
#1321=AXIS2_PLACEMENT_3D('',#1803,#1448,#1449);
#1322=AXIS2_PLACEMENT_3D('',#1809,#1453,#1454);
#1323=AXIS2_PLACEMENT_3D('',#1815,#1458,#1459);
#1324=AXIS2_PLACEMENT_3D('',#1818,#1462,#1463);
#1325=AXIS2_PLACEMENT_3D('',#1824,#1467,#1468);
#1326=AXIS2_PLACEMENT_3D('',#1828,#1471,#1472);
#1327=AXIS2_PLACEMENT_3D('',#1832,#1475,#1476);
#1328=AXIS2_PLACEMENT_3D('',#1836,#1479,#1480);
#1329=AXIS2_PLACEMENT_3D('',#1840,#1483,#1484);
#1330=AXIS2_PLACEMENT_3D('',#1844,#1487,#1488);
#1331=AXIS2_PLACEMENT_3D('',#1846,#1489,#1490);
#1332=AXIS2_PLACEMENT_3D('',#1849,#1492,#1493);
#1333=AXIS2_PLACEMENT_3D('',#1850,#1494,#1495);
#1334=AXIS2_PLACEMENT_3D('',#1851,#1496,#1497);
#1335=AXIS2_PLACEMENT_3D('',#1855,#1500,#1501);
#1336=AXIS2_PLACEMENT_3D('',#1859,#1504,#1505);
#1337=AXIS2_PLACEMENT_3D('',#1863,#1508,#1509);
#1338=AXIS2_PLACEMENT_3D('',#1867,#1512,#1513);
#1339=AXIS2_PLACEMENT_3D('',#1869,#1515,#1516);
#1340=AXIS2_PLACEMENT_3D('',#1870,#1517,#1518);
#1341=AXIS2_PLACEMENT_3D('',#1876,#1522,#1523);
#1342=AXIS2_PLACEMENT_3D('',#1880,#1526,#1527);
#1343=AXIS2_PLACEMENT_3D('',#1884,#1530,#1531);
#1344=AXIS2_PLACEMENT_3D('',#1888,#1534,#1535);
#1345=AXIS2_PLACEMENT_3D('',#1892,#1538,#1539);
#1346=AXIS2_PLACEMENT_3D('',#1896,#1542,#1543);
#1347=AXIS2_PLACEMENT_3D('',#1900,#1546,#1547);
#1348=AXIS2_PLACEMENT_3D('',#1904,#1550,#1551);
#1349=AXIS2_PLACEMENT_3D('',#1908,#1554,#1555);
#1350=AXIS2_PLACEMENT_3D('',#1912,#1558,#1559);
#1351=AXIS2_PLACEMENT_3D('',#1914,#1561,#1562);
#1352=AXIS2_PLACEMENT_3D('',#1920,#1566,#1567);
#1353=AXIS2_PLACEMENT_3D('',#1924,#1570,#1571);
#1354=AXIS2_PLACEMENT_3D('',#1928,#1574,#1575);
#1355=AXIS2_PLACEMENT_3D('',#1932,#1578,#1579);
#1356=AXIS2_PLACEMENT_3D('',#1936,#1582,#1583);
#1357=AXIS2_PLACEMENT_3D('',#1940,#1586,#1587);
#1358=AXIS2_PLACEMENT_3D('',#1944,#1590,#1591);
#1359=AXIS2_PLACEMENT_3D('',#1948,#1594,#1595);
#1360=AXIS2_PLACEMENT_3D('',#1952,#1598,#1599);
#1361=AXIS2_PLACEMENT_3D('',#1956,#1602,#1603);
#1362=AXIS2_PLACEMENT_3D('',#1958,#1605,#1606);
#1363=AXIS2_PLACEMENT_3D('',#1959,#1607,#1608);
#1364=AXIS2_PLACEMENT_3D('',#1962,#1609,#1610);
#1365=AXIS2_PLACEMENT_3D('',#1970,#1614,#1615);
#1366=AXIS2_PLACEMENT_3D('',#1976,#1619,#1620);
#1367=AXIS2_PLACEMENT_3D('',#1982,#1624,#1625);
#1368=AXIS2_PLACEMENT_3D('',#1986,#1628,#1629);
#1369=AXIS2_PLACEMENT_3D('',#1990,#1632,#1633);
#1370=AXIS2_PLACEMENT_3D('',#1992,#1634,#1635);
#1371=AXIS2_PLACEMENT_3D('',#1994,#1637,#1638);
#1372=AXIS2_PLACEMENT_3D('',#1998,#1641,#1642);
#1373=AXIS2_PLACEMENT_3D('',#2002,#1645,#1646);
#1374=AXIS2_PLACEMENT_3D('',#2006,#1649,#1650);
#1375=AXIS2_PLACEMENT_3D('',#2007,#1651,#1652);
#1376=AXIS2_PLACEMENT_3D('',#2008,#1653,#1654);
#1377=AXIS2_PLACEMENT_3D('',#2009,#1655,#1656);
#1378=AXIS2_PLACEMENT_3D('',#2012,#1657,#1658);
#1379=AXIS2_PLACEMENT_3D('',#2020,#1662,#1663);
#1380=AXIS2_PLACEMENT_3D('',#2026,#1667,#1668);
#1381=AXIS2_PLACEMENT_3D('',#2032,#1672,#1673);
#1382=AXIS2_PLACEMENT_3D('',#2036,#1676,#1677);
#1383=AXIS2_PLACEMENT_3D('',#2040,#1680,#1681);
#1384=AXIS2_PLACEMENT_3D('',#2042,#1682,#1683);
#1385=AXIS2_PLACEMENT_3D('',#2044,#1685,#1686);
#1386=AXIS2_PLACEMENT_3D('',#2048,#1689,#1690);
#1387=AXIS2_PLACEMENT_3D('',#2052,#1693,#1694);
#1388=AXIS2_PLACEMENT_3D('',#2056,#1697,#1698);
#1389=AXIS2_PLACEMENT_3D('',#2057,#1699,#1700);
#1390=AXIS2_PLACEMENT_3D('',#2058,#1701,#1702);
#1391=AXIS2_PLACEMENT_3D('',#2059,#1703,#1704);
#1392=AXIS2_PLACEMENT_3D('',#2062,#1705,#1706);
#1393=AXIS2_PLACEMENT_3D('',#2070,#1710,#1711);
#1394=AXIS2_PLACEMENT_3D('',#2076,#1715,#1716);
#1395=AXIS2_PLACEMENT_3D('',#2082,#1720,#1721);
#1396=AXIS2_PLACEMENT_3D('',#2086,#1724,#1725);
#1397=AXIS2_PLACEMENT_3D('',#2090,#1728,#1729);
#1398=AXIS2_PLACEMENT_3D('',#2092,#1730,#1731);
#1399=AXIS2_PLACEMENT_3D('',#2094,#1733,#1734);
#1400=AXIS2_PLACEMENT_3D('',#2098,#1737,#1738);
#1401=AXIS2_PLACEMENT_3D('',#2102,#1741,#1742);
#1402=AXIS2_PLACEMENT_3D('',#2106,#1745,#1746);
#1403=AXIS2_PLACEMENT_3D('',#2107,#1747,#1748);
#1404=AXIS2_PLACEMENT_3D('',#2108,#1749,#1750);
#1405=DIRECTION('axis',(0.,0.,1.));
#1406=DIRECTION('refdir',(1.,0.,0.));
#1407=DIRECTION('center_axis',(0.,0.707106781186548,-0.707106781186548));
#1408=DIRECTION('ref_axis',(-1.,0.,0.));
#1409=DIRECTION('',(1.,0.,0.));
#1410=DIRECTION('',(-0.577350125803135,0.5773505559625,0.577350125803135));
#1411=DIRECTION('',(1.,0.,0.));
#1412=DIRECTION('',(-0.281085480846681,-0.678597790730642,-0.67859854912362));
#1413=DIRECTION('center_axis',(-0.707106781186548,7.85046223492837E-17,
-0.707106781186548));
#1414=DIRECTION('ref_axis',(-0.707106781186548,0.,0.707106781186548));
#1415=DIRECTION('',(1.11022301635335E-16,1.,0.));
#1416=DIRECTION('',(-0.65465367070798,0.377964473009222,0.654653670707977));
#1417=DIRECTION('',(1.11022301635335E-16,1.,0.));
#1418=DIRECTION('center_axis',(-0.353553390593273,0.612372435695792,-0.70710678118655));
#1419=DIRECTION('ref_axis',(-0.894427190999917,0.,0.447213595499956));
#1420=DIRECTION('',(0.866025403784438,0.500000000000001,0.));
#1421=DIRECTION('',(-0.654653670707978,0.377964473009223,0.654653670707978));
#1422=DIRECTION('',(0.866025403784438,0.500000000000001,0.));
#1423=DIRECTION('center_axis',(-0.707106781186548,0.,-0.707106781186548));
#1424=DIRECTION('ref_axis',(-0.707106781186548,0.,0.707106781186548));
#1425=DIRECTION('',(0.,1.,0.));
#1426=DIRECTION('',(-0.654653670707978,-0.377964473009223,0.654653670707978));
#1427=DIRECTION('',(0.,1.,0.));
#1428=DIRECTION('center_axis',(-0.353553390593276,-0.612372435695797,-0.707106781186544));
#1429=DIRECTION('ref_axis',(-0.894427190999914,0.,0.447213595499962));
#1430=DIRECTION('',(-0.866025403784438,0.5,0.));
#1431=DIRECTION('',(-0.654653670707981,-0.377964473009219,0.654653670707978));
#1432=DIRECTION('',(-0.866025403784438,0.5,0.));
#1433=DIRECTION('center_axis',(-0.707106781186548,7.85046223492837E-17,
-0.707106781186548));
#1434=DIRECTION('ref_axis',(-0.707106781186548,0.,0.707106781186548));
#1435=DIRECTION('',(1.11022301635335E-16,1.,0.));
#1436=DIRECTION('',(1.11022301635335E-16,1.,0.));
#1437=DIRECTION('',(-0.577350269189624,-0.577350269189627,0.577350269189627));
#1438=DIRECTION('center_axis',(0.,-0.707106781186548,-0.707106781186548));
#1439=DIRECTION('ref_axis',(-1.,0.,0.));
#1440=DIRECTION('',(-1.,0.,0.));
#1441=DIRECTION('',(-1.,0.,0.));
#1442=DIRECTION('',(0.577350269189626,-0.577350269189626,0.577350269189626));
#1443=DIRECTION('center_axis',(0.707106781186548,-7.85046223492837E-17,
-0.707106781186548));
#1444=DIRECTION('ref_axis',(-0.707106781186548,0.,-0.707106781186548));
#1445=DIRECTION('',(-1.11022301635335E-16,-1.,0.));
#1446=DIRECTION('',(-1.11022301635335E-16,-1.,0.));
#1447=DIRECTION('',(0.654653670707975,-0.377964473009227,0.654653670707979));
#1448=DIRECTION('center_axis',(0.353553390593276,-0.612372435695796,-0.707106781186545));
#1449=DIRECTION('ref_axis',(-0.894427190999914,0.,-0.447213595499962));
#1450=DIRECTION('',(-0.866025403784438,-0.500000000000002,0.));
#1451=DIRECTION('',(-0.866025403784438,-0.500000000000002,0.));
#1452=DIRECTION('',(0.654653670707979,-0.377964473009222,0.654653670707979));
#1453=DIRECTION('center_axis',(0.707106781186548,0.,-0.707106781186548));
#1454=DIRECTION('ref_axis',(-0.707106781186548,0.,-0.707106781186548));
#1455=DIRECTION('',(0.,-1.,0.));
#1456=DIRECTION('',(0.,-1.,0.));
#1457=DIRECTION('',(0.678597790730648,0.281085480846673,0.678598549123618));
#1458=DIRECTION('center_axis',(0.499999999999999,0.499999999999999,-0.707106781186549));
#1459=DIRECTION('ref_axis',(-0.816496580927727,0.,-0.577350269189625));
#1460=DIRECTION('',(0.707106781186548,-0.707106781186548,0.));
#1461=DIRECTION('',(0.707106781186548,-0.707106781186548,0.));
#1462=DIRECTION('center_axis',(0.,-1.,0.));
#1463=DIRECTION('ref_axis',(1.,0.,0.));
#1464=DIRECTION('',(0.,0.,1.));
#1465=DIRECTION('',(1.,0.,0.));
#1466=DIRECTION('',(0.,0.,1.));
#1467=DIRECTION('center_axis',(1.,-1.11022301635335E-16,0.));
#1468=DIRECTION('ref_axis',(1.11022301635335E-16,1.,0.));
#1469=DIRECTION('',(0.,0.,1.));
#1470=DIRECTION('',(1.11022301635335E-16,1.,0.));
#1471=DIRECTION('center_axis',(0.500000000000002,-0.866025403784438,0.));
#1472=DIRECTION('ref_axis',(0.866025403784438,0.500000000000002,0.));
#1473=DIRECTION('',(0.,0.,1.));
#1474=DIRECTION('',(0.866025403784438,0.500000000000002,0.));
#1475=DIRECTION('center_axis',(1.,0.,0.));
#1476=DIRECTION('ref_axis',(0.,1.,0.));
#1477=DIRECTION('',(0.,0.,1.));
#1478=DIRECTION('',(0.,1.,0.));
#1479=DIRECTION('center_axis',(0.707106781186548,0.707106781186548,0.));
#1480=DIRECTION('ref_axis',(-0.707106781186548,0.707106781186548,0.));
#1481=DIRECTION('',(0.,0.,1.));
#1482=DIRECTION('',(-0.707106781186548,0.707106781186548,0.));
#1483=DIRECTION('center_axis',(0.,1.,0.));
#1484=DIRECTION('ref_axis',(-1.,0.,0.));
#1485=DIRECTION('',(0.,0.,1.));
#1486=DIRECTION('',(-1.,0.,0.));
#1487=DIRECTION('center_axis',(0.,0.,-1.));
#1488=DIRECTION('ref_axis',(1.,0.,0.));
#1489=DIRECTION('center_axis',(0.,0.,-1.));
#1490=DIRECTION('ref_axis',(1.,0.,0.));
#1491=DIRECTION('',(0.,0.,-1.));
#1492=DIRECTION('center_axis',(0.,0.,-1.));
#1493=DIRECTION('ref_axis',(1.,0.,0.));
#1494=DIRECTION('center_axis',(0.,0.,1.));
#1495=DIRECTION('ref_axis',(1.,0.,0.));
#1496=DIRECTION('center_axis',(-1.,1.11022301635335E-16,0.));
#1497=DIRECTION('ref_axis',(-1.11022301635335E-16,-1.,0.));
#1498=DIRECTION('',(-1.11022301635335E-16,-1.,0.));
#1499=DIRECTION('',(0.,0.,1.));
#1500=DIRECTION('center_axis',(-0.5,-0.866025403784438,0.));
#1501=DIRECTION('ref_axis',(0.866025403784438,-0.5,0.));
#1502=DIRECTION('',(0.866025403784438,-0.5,0.));
#1503=DIRECTION('',(0.,0.,1.));
#1504=DIRECTION('center_axis',(-1.,0.,0.));
#1505=DIRECTION('ref_axis',(0.,-1.,0.));
#1506=DIRECTION('',(0.,-1.,0.));
#1507=DIRECTION('',(0.,0.,1.));
#1508=DIRECTION('center_axis',(-0.500000000000001,0.866025403784438,0.));
#1509=DIRECTION('ref_axis',(-0.866025403784438,-0.500000000000001,0.));
#1510=DIRECTION('',(-0.866025403784438,-0.500000000000001,0.));
#1511=DIRECTION('',(0.,0.,1.));
#1512=DIRECTION('center_axis',(-1.,1.11022301635335E-16,0.));
#1513=DIRECTION('ref_axis',(-1.11022301635335E-16,-1.,0.));
#1514=DIRECTION('',(-1.11022301635335E-16,-1.,0.));
#1515=DIRECTION('center_axis',(0.,0.,1.));
#1516=DIRECTION('ref_axis',(1.,0.,0.));
#1517=DIRECTION('center_axis',(0.353553390593276,-0.612372435695796,0.707106781186545));
#1518=DIRECTION('ref_axis',(0.894427190999914,0.,-0.447213595499962));
#1519=DIRECTION('',(0.654653670707976,-0.377964473009224,-0.65465367070798));
#1520=DIRECTION('',(0.866025403784438,0.500000000000002,0.));
#1521=DIRECTION('',(0.654653670707978,-0.377964473009223,-0.654653670707978));
#1522=DIRECTION('center_axis',(0.707106781186548,-7.85046223492837E-17,
0.707106781186548));
#1523=DIRECTION('ref_axis',(0.707106781186548,0.,-0.707106781186548));
#1524=DIRECTION('',(0.577350269189624,-0.577350269189627,-0.577350269189627));
#1525=DIRECTION('',(1.11022301635335E-16,1.,0.));
#1526=DIRECTION('center_axis',(0.,-0.707106781186548,0.707106781186548));
#1527=DIRECTION('ref_axis',(1.,0.,0.));
#1528=DIRECTION('',(-0.577350269189624,-0.577350269189627,-0.577350269189627));
#1529=DIRECTION('',(1.,0.,0.));
#1530=DIRECTION('center_axis',(-0.707106781186548,7.85046223492837E-17,
0.707106781186548));
#1531=DIRECTION('ref_axis',(0.707106781186548,0.,0.707106781186548));
#1532=DIRECTION('',(-0.654653670707981,-0.377964473009219,-0.654653670707978));
#1533=DIRECTION('',(-1.11022301635335E-16,-1.,0.));
#1534=DIRECTION('center_axis',(-0.353553390593276,-0.612372435695797,0.707106781186544));
#1535=DIRECTION('ref_axis',(0.894427190999914,0.,0.447213595499962));
#1536=DIRECTION('',(-0.654653670707978,-0.377964473009225,-0.654653670707978));
#1537=DIRECTION('',(0.866025403784438,-0.5,0.));
#1538=DIRECTION('center_axis',(-0.707106781186548,0.,0.707106781186548));
#1539=DIRECTION('ref_axis',(0.707106781186548,0.,0.707106781186548));
#1540=DIRECTION('',(-0.654653670707977,0.377964473009226,-0.654653670707977));
#1541=DIRECTION('',(0.,-1.,0.));
#1542=DIRECTION('center_axis',(-0.353553390593275,0.612372435695795,0.707106781186547));
#1543=DIRECTION('ref_axis',(0.894427190999915,0.,0.447213595499959));
#1544=DIRECTION('',(-0.866025403784438,-0.500000000000001,0.));
#1545=DIRECTION('',(-0.65465367070798,0.377964473009222,-0.654653670707977));
#1546=DIRECTION('center_axis',(-0.707106781186548,7.85046223492837E-17,
0.707106781186548));
#1547=DIRECTION('ref_axis',(0.707106781186548,0.,0.707106781186548));
#1548=DIRECTION('',(-1.11022301635335E-16,-1.,0.));
#1549=DIRECTION('',(-0.577350125803135,0.5773505559625,-0.577350125803135));
#1550=DIRECTION('center_axis',(0.,0.707106781186548,0.707106781186548));
#1551=DIRECTION('ref_axis',(1.,0.,0.));
#1552=DIRECTION('',(-1.,0.,0.));
#1553=DIRECTION('',(0.281085480846688,0.678597790730641,-0.678598549123618));
#1554=DIRECTION('center_axis',(0.499999999999999,0.499999999999999,0.707106781186549));
#1555=DIRECTION('ref_axis',(0.816496580927727,0.,-0.577350269189625));
#1556=DIRECTION('',(-0.707106781186548,0.707106781186548,0.));
#1557=DIRECTION('',(0.678597790730646,0.28108548084668,-0.678598549123616));
#1558=DIRECTION('center_axis',(0.707106781186548,0.,0.707106781186548));
#1559=DIRECTION('ref_axis',(0.707106781186548,0.,-0.707106781186548));
#1560=DIRECTION('',(0.,1.,0.));
#1561=DIRECTION('center_axis',(-0.500000000000001,0.866025403784438,0.));
#1562=DIRECTION('ref_axis',(-0.866025403784438,-0.500000000000001,0.));
#1563=DIRECTION('',(0.,0.,1.));
#1564=DIRECTION('',(-0.866025403784438,-0.500000000000001,0.));
#1565=DIRECTION('',(0.,0.,1.));
#1566=DIRECTION('center_axis',(-1.,1.11022301635335E-16,0.));
#1567=DIRECTION('ref_axis',(-1.11022301635335E-16,-1.,0.));
#1568=DIRECTION('',(0.,0.,1.));
#1569=DIRECTION('',(-1.11022301635335E-16,-1.,0.));
#1570=DIRECTION('center_axis',(0.,1.,0.));
#1571=DIRECTION('ref_axis',(-1.,0.,0.));
#1572=DIRECTION('',(0.,0.,1.));
#1573=DIRECTION('',(1.,0.,0.));
#1574=DIRECTION('center_axis',(0.707106781186548,0.707106781186548,0.));
#1575=DIRECTION('ref_axis',(-0.707106781186548,0.707106781186548,0.));
#1576=DIRECTION('',(0.,0.,1.));
#1577=DIRECTION('',(0.707106781186548,-0.707106781186548,0.));
#1578=DIRECTION('center_axis',(1.,0.,0.));
#1579=DIRECTION('ref_axis',(0.,1.,0.));
#1580=DIRECTION('',(0.,0.,1.));
#1581=DIRECTION('',(0.,-1.,0.));
#1582=DIRECTION('center_axis',(0.500000000000002,-0.866025403784438,0.));
#1583=DIRECTION('ref_axis',(0.866025403784438,0.500000000000002,0.));
#1584=DIRECTION('',(0.,0.,1.));
#1585=DIRECTION('',(0.866025403784438,0.500000000000002,0.));
#1586=DIRECTION('center_axis',(1.,-1.11022301635335E-16,0.));
#1587=DIRECTION('ref_axis',(1.11022301635335E-16,1.,0.));
#1588=DIRECTION('',(0.,0.,1.));
#1589=DIRECTION('',(-1.11022301635335E-16,-1.,0.));
#1590=DIRECTION('center_axis',(0.,-1.,0.));
#1591=DIRECTION('ref_axis',(1.,0.,0.));
#1592=DIRECTION('',(0.,0.,1.));
#1593=DIRECTION('',(-1.,0.,0.));
#1594=DIRECTION('center_axis',(-1.,1.11022301635335E-16,0.));
#1595=DIRECTION('ref_axis',(-1.11022301635335E-16,-1.,0.));
#1596=DIRECTION('',(0.,0.,1.));
#1597=DIRECTION('',(-1.11022301635335E-16,-1.,0.));
#1598=DIRECTION('center_axis',(-0.5,-0.866025403784438,0.));
#1599=DIRECTION('ref_axis',(0.866025403784438,-0.5,0.));
#1600=DIRECTION('',(0.,0.,1.));
#1601=DIRECTION('',(-0.866025403784438,0.5,0.));
#1602=DIRECTION('center_axis',(-1.,0.,0.));
#1603=DIRECTION('ref_axis',(0.,-1.,0.));
#1604=DIRECTION('',(0.,1.,0.));
#1605=DIRECTION('center_axis',(0.,0.,1.));
#1606=DIRECTION('ref_axis',(1.,0.,0.));
#1607=DIRECTION('center_axis',(0.,1.,0.));
#1608=DIRECTION('ref_axis',(1.,0.,0.));
#1609=DIRECTION('center_axis',(0.,-1.,0.));
#1610=DIRECTION('ref_axis',(0.,0.,-1.));
#1611=DIRECTION('',(1.,0.,1.26463496719495E-16));
#1612=DIRECTION('',(0.,0.,1.));
#1613=DIRECTION('',(-1.,0.,2.29552752407921E-16));
#1614=DIRECTION('center_axis',(0.,1.,0.));
#1615=DIRECTION('ref_axis',(0.,0.,-1.));
#1616=DIRECTION('',(-0.173648177666929,0.,0.984807753012208));
#1617=DIRECTION('',(-0.984807753012208,0.,-0.173648177666931));
#1618=DIRECTION('',(0.173648177666925,0.,-0.984807753012209));
#1619=DIRECTION('center_axis',(1.26463496719495E-16,0.,-1.));
#1620=DIRECTION('ref_axis',(-1.,0.,-1.26463496719495E-16));
#1621=DIRECTION('',(0.,-1.,0.));
#1622=DIRECTION('',(-1.,0.,-1.26463496719495E-16));
#1623=DIRECTION('',(0.,1.,0.));
#1624=DIRECTION('center_axis',(1.,0.,0.));
#1625=DIRECTION('ref_axis',(0.,0.,-1.));
#1626=DIRECTION('',(0.,0.,-1.));
#1627=DIRECTION('',(0.,1.,0.));
#1628=DIRECTION('center_axis',(2.29552752407921E-16,0.,1.));
#1629=DIRECTION('ref_axis',(1.,0.,-2.29552752407921E-16));
#1630=DIRECTION('',(1.,0.,-2.29552752407921E-16));
#1631=DIRECTION('',(0.,1.,0.));
#1632=DIRECTION('center_axis',(0.,1.,0.));
#1633=DIRECTION('ref_axis',(0.,0.,-1.));
#1634=DIRECTION('center_axis',(0.,-1.,0.));
#1635=DIRECTION('ref_axis',(0.,0.,-1.));
#1636=DIRECTION('',(0.,1.,0.));
#1637=DIRECTION('center_axis',(0.984807753012208,0.,0.173648177666929));
#1638=DIRECTION('ref_axis',(0.173648177666929,0.,-0.984807753012208));
#1639=DIRECTION('',(0.173648177666929,0.,-0.984807753012208));
#1640=DIRECTION('',(0.,1.,0.));
#1641=DIRECTION('center_axis',(-0.173648177666931,0.,0.984807753012208));
#1642=DIRECTION('ref_axis',(0.984807753012208,0.,0.173648177666931));
#1643=DIRECTION('',(0.984807753012208,0.,0.173648177666931));
#1644=DIRECTION('',(0.,1.,0.));
#1645=DIRECTION('center_axis',(-0.984807753012209,0.,-0.173648177666925));
#1646=DIRECTION('ref_axis',(-0.173648177666925,0.,0.984807753012209));
#1647=DIRECTION('',(-0.173648177666925,0.,0.984807753012209));
#1648=DIRECTION('',(0.,1.,0.));
#1649=DIRECTION('center_axis',(0.,1.,0.));
#1650=DIRECTION('ref_axis',(0.,0.,-1.));
#1651=DIRECTION('center_axis',(0.,1.,0.));
#1652=DIRECTION('ref_axis',(0.,0.,-1.));
#1653=DIRECTION('center_axis',(0.,1.,0.));
#1654=DIRECTION('ref_axis',(1.,0.,0.));
#1655=DIRECTION('center_axis',(0.,1.,0.));
#1656=DIRECTION('ref_axis',(1.,0.,0.));
#1657=DIRECTION('center_axis',(0.,-1.,0.));
#1658=DIRECTION('ref_axis',(0.,0.,-1.));
#1659=DIRECTION('',(1.,0.,1.26463496719495E-16));
#1660=DIRECTION('',(0.,0.,1.));
#1661=DIRECTION('',(-1.,0.,2.29552752407921E-16));
#1662=DIRECTION('center_axis',(0.,1.,0.));
#1663=DIRECTION('ref_axis',(0.,0.,-1.));
#1664=DIRECTION('',(-0.173648177666929,0.,0.984807753012208));
#1665=DIRECTION('',(-0.984807753012208,0.,-0.173648177666931));
#1666=DIRECTION('',(0.173648177666925,0.,-0.984807753012209));
#1667=DIRECTION('center_axis',(1.26463496719495E-16,0.,-1.));
#1668=DIRECTION('ref_axis',(-1.,0.,-1.26463496719495E-16));
#1669=DIRECTION('',(0.,-1.,0.));
#1670=DIRECTION('',(-1.,0.,-1.26463496719495E-16));
#1671=DIRECTION('',(0.,1.,0.));
#1672=DIRECTION('center_axis',(1.,0.,0.));
#1673=DIRECTION('ref_axis',(0.,0.,-1.));
#1674=DIRECTION('',(0.,0.,-1.));
#1675=DIRECTION('',(0.,1.,0.));
#1676=DIRECTION('center_axis',(2.29552752407921E-16,0.,1.));
#1677=DIRECTION('ref_axis',(1.,0.,-2.29552752407921E-16));
#1678=DIRECTION('',(1.,0.,-2.29552752407921E-16));
#1679=DIRECTION('',(0.,1.,0.));
#1680=DIRECTION('center_axis',(0.,1.,0.));
#1681=DIRECTION('ref_axis',(0.,0.,-1.));
#1682=DIRECTION('center_axis',(0.,-1.,0.));
#1683=DIRECTION('ref_axis',(0.,0.,-1.));
#1684=DIRECTION('',(0.,1.,0.));
#1685=DIRECTION('center_axis',(0.984807753012208,0.,0.173648177666929));
#1686=DIRECTION('ref_axis',(0.173648177666929,0.,-0.984807753012208));
#1687=DIRECTION('',(0.173648177666929,0.,-0.984807753012208));
#1688=DIRECTION('',(0.,1.,0.));
#1689=DIRECTION('center_axis',(-0.173648177666931,0.,0.984807753012208));
#1690=DIRECTION('ref_axis',(0.984807753012208,0.,0.173648177666931));
#1691=DIRECTION('',(0.984807753012208,0.,0.173648177666931));
#1692=DIRECTION('',(0.,1.,0.));
#1693=DIRECTION('center_axis',(-0.984807753012209,0.,-0.173648177666925));
#1694=DIRECTION('ref_axis',(-0.173648177666925,0.,0.984807753012209));
#1695=DIRECTION('',(-0.173648177666925,0.,0.984807753012209));
#1696=DIRECTION('',(0.,1.,0.));
#1697=DIRECTION('center_axis',(0.,1.,0.));
#1698=DIRECTION('ref_axis',(0.,0.,-1.));
#1699=DIRECTION('center_axis',(0.,1.,0.));
#1700=DIRECTION('ref_axis',(0.,0.,-1.));
#1701=DIRECTION('center_axis',(0.,1.,0.));
#1702=DIRECTION('ref_axis',(1.,0.,0.));
#1703=DIRECTION('center_axis',(0.,1.,0.));
#1704=DIRECTION('ref_axis',(1.,0.,0.));
#1705=DIRECTION('center_axis',(0.,-1.,0.));
#1706=DIRECTION('ref_axis',(0.98480775301221,0.,-0.17364817766692));
#1707=DIRECTION('',(0.173648177666926,0.,0.984807753012209));
#1708=DIRECTION('',(-0.984807753012208,0.,0.173648177666932));
#1709=DIRECTION('',(-0.17364817766693,0.,-0.984807753012208));
#1710=DIRECTION('center_axis',(0.,1.,0.));
#1711=DIRECTION('ref_axis',(0.984807753012208,0.,-0.173648177666929));
#1712=DIRECTION('',(-1.,0.,-2.86940940509902E-16));
#1713=DIRECTION('',(0.,0.,-1.));
#1714=DIRECTION('',(1.,0.,-1.1471748154143E-16));
#1715=DIRECTION('center_axis',(0.984807753012209,0.,-0.173648177666926));
#1716=DIRECTION('ref_axis',(-0.173648177666926,0.,-0.984807753012209));
#1717=DIRECTION('',(0.,-1.,0.));
#1718=DIRECTION('',(-0.173648177666926,0.,-0.984807753012209));
#1719=DIRECTION('',(0.,1.,0.));
#1720=DIRECTION('center_axis',(0.173648177666932,0.,0.984807753012208));
#1721=DIRECTION('ref_axis',(0.984807753012208,0.,-0.173648177666932));
#1722=DIRECTION('',(0.984807753012208,0.,-0.173648177666932));
#1723=DIRECTION('',(0.,1.,0.));
#1724=DIRECTION('center_axis',(-0.984807753012208,0.,0.17364817766693));
#1725=DIRECTION('ref_axis',(0.17364817766693,0.,0.984807753012208));
#1726=DIRECTION('',(0.17364817766693,0.,0.984807753012208));
#1727=DIRECTION('',(0.,1.,0.));
#1728=DIRECTION('center_axis',(0.,1.,0.));
#1729=DIRECTION('ref_axis',(0.984807753012208,0.,-0.173648177666929));
#1730=DIRECTION('center_axis',(0.,-1.,0.));
#1731=DIRECTION('ref_axis',(0.984807753012208,0.,-0.173648177666929));
#1732=DIRECTION('',(0.,1.,0.));
#1733=DIRECTION('center_axis',(-2.86940940509902E-16,0.,1.));
#1734=DIRECTION('ref_axis',(1.,0.,2.86940940509902E-16));
#1735=DIRECTION('',(1.,0.,2.86940940509902E-16));
#1736=DIRECTION('',(0.,1.,0.));
#1737=DIRECTION('center_axis',(-1.,0.,0.));
#1738=DIRECTION('ref_axis',(0.,0.,1.));
#1739=DIRECTION('',(0.,0.,1.));
#1740=DIRECTION('',(0.,1.,0.));
#1741=DIRECTION('center_axis',(-1.1471748154143E-16,0.,-1.));
#1742=DIRECTION('ref_axis',(-1.,0.,1.1471748154143E-16));
#1743=DIRECTION('',(-1.,0.,1.1471748154143E-16));
#1744=DIRECTION('',(0.,1.,0.));
#1745=DIRECTION('center_axis',(0.,1.,0.));
#1746=DIRECTION('ref_axis',(0.98480775301221,0.,-0.17364817766692));
#1747=DIRECTION('center_axis',(0.,1.,0.));
#1748=DIRECTION('ref_axis',(0.98480775301221,0.,-0.17364817766692));
#1749=DIRECTION('center_axis',(0.,1.,0.));
#1750=DIRECTION('ref_axis',(1.,0.,0.));
#1751=CARTESIAN_POINT('',(0.,0.,0.));
#1752=CARTESIAN_POINT('Origin',(0.749999983236194,2.475,0.675));
#1753=CARTESIAN_POINT('',(-2.25,2.45,0.65));
#1754=CARTESIAN_POINT('',(1.47928923247438,2.45,0.65));
#1755=CARTESIAN_POINT('',(0.749999983236194,2.45,0.65));
#1756=CARTESIAN_POINT('',(-2.3,2.5000000372529,0.7));
#1757=CARTESIAN_POINT('',(-2.25,2.45,0.65));
#1758=CARTESIAN_POINT('',(1.49999996647239,2.49999994412065,0.7));
#1759=CARTESIAN_POINT('',(0.749999983236194,2.5,0.7));
#1760=CARTESIAN_POINT('',(1.49999996647239,2.49999994412065,0.7));
#1761=CARTESIAN_POINT('Origin',(-2.275,1.25000002793968,0.675));
#1762=CARTESIAN_POINT('',(-2.25,1.27113252379342,0.65));
#1763=CARTESIAN_POINT('',(-2.25,1.25000002793968,0.65));
#1764=CARTESIAN_POINT('',(-2.3,1.3000000372529,0.7));
#1765=CARTESIAN_POINT('',(-2.25,1.27113252379342,0.65));
#1766=CARTESIAN_POINT('',(-2.3,1.25000002793968,0.7));
#1767=CARTESIAN_POINT('Origin',(-1.70645826026269,1.61381400700604,0.675));
#1768=CARTESIAN_POINT('',(-2.45,1.1556624699555,0.65));
#1769=CARTESIAN_POINT('',(-1.69395826026269,1.59216337191143,0.65));
#1770=CARTESIAN_POINT('',(-2.5,1.18452998341498,0.7));
#1771=CARTESIAN_POINT('',(-2.45,1.1556624699555,0.65));
#1772=CARTESIAN_POINT('',(-1.71895826026269,1.63546464210065,0.7));
#1773=CARTESIAN_POINT('Origin',(-2.475,0.592265001020715,0.675));
#1774=CARTESIAN_POINT('',(-2.45,-1.15566243270259,0.65));
#1775=CARTESIAN_POINT('',(-2.45,0.592265001020715,0.65));
#1776=CARTESIAN_POINT('',(-2.5,-1.18452994616208,0.7));
#1777=CARTESIAN_POINT('',(-2.45,-1.15566243270259,0.65));
#1778=CARTESIAN_POINT('',(-2.5,0.592265001020715,0.7));
#1779=CARTESIAN_POINT('Origin',(-1.80645826026269,-1.55607894283417,0.675));
#1780=CARTESIAN_POINT('',(-2.25,-1.27113248654052,0.65));
#1781=CARTESIAN_POINT('',(-1.79395826026269,-1.53442830773956,0.65));
#1782=CARTESIAN_POINT('',(-2.3,-1.3,0.7));
#1783=CARTESIAN_POINT('',(-2.25,-1.27113248654052,0.65));
#1784=CARTESIAN_POINT('',(-1.81895826026269,-1.57772957792878,0.7));
#1785=CARTESIAN_POINT('Origin',(-2.275,-0.649999990686774,0.675));
#1786=CARTESIAN_POINT('',(-2.3,-2.5,0.7));
#1787=CARTESIAN_POINT('',(-2.3,-0.649999990686774,0.7));
#1788=CARTESIAN_POINT('',(-2.25,-2.45,0.65));
#1789=CARTESIAN_POINT('',(-2.25,-0.649999990686774,0.65));
#1790=CARTESIAN_POINT('',(-2.25,-2.45,0.65));
#1791=CARTESIAN_POINT('Origin',(-1.15,-2.475,0.675));
#1792=CARTESIAN_POINT('',(2.3,-2.5,0.7));
#1793=CARTESIAN_POINT('',(-1.15,-2.5,0.7));
#1794=CARTESIAN_POINT('',(2.25,-2.45,0.65));
#1795=CARTESIAN_POINT('',(-1.15,-2.45,0.65));
#1796=CARTESIAN_POINT('',(2.25,-2.45,0.65));
#1797=CARTESIAN_POINT('Origin',(2.275,-1.24999999068677,0.675));
#1798=CARTESIAN_POINT('',(2.3,-1.3,0.7));
#1799=CARTESIAN_POINT('',(2.3,-1.24999999068677,0.7));
#1800=CARTESIAN_POINT('',(2.25,-1.27113248654052,0.65));
#1801=CARTESIAN_POINT('',(2.25,-1.24999999068677,0.65));
#1802=CARTESIAN_POINT('',(2.25,-1.27113248654052,0.65));
#1803=CARTESIAN_POINT('Origin',(1.70645826026269,-1.61381396975313,0.675));
#1804=CARTESIAN_POINT('',(2.5,-1.18452994616207,0.7));
#1805=CARTESIAN_POINT('',(1.71895826026269,-1.63546460484775,0.7));
#1806=CARTESIAN_POINT('',(2.45,-1.15566243270259,0.65));
#1807=CARTESIAN_POINT('',(1.69395826026269,-1.59216333465852,0.65));
#1808=CARTESIAN_POINT('',(2.45,-1.15566243270259,0.65));
#1809=CARTESIAN_POINT('Origin',(2.475,-0.592264963767811,0.675));
#1810=CARTESIAN_POINT('',(2.49999994412065,1.49999996647239,0.7));
#1811=CARTESIAN_POINT('',(2.5,-0.592264963767811,0.7));
#1812=CARTESIAN_POINT('',(2.45,1.47928923247438,0.65));
#1813=CARTESIAN_POINT('',(2.45,-0.592264963767811,0.65));
#1814=CARTESIAN_POINT('',(2.45,1.47928923247438,0.65));
#1815=CARTESIAN_POINT('Origin',(2.2323222755223,1.7323222960114,0.675));
#1816=CARTESIAN_POINT('',(2.21464460599264,1.71464462648174,0.65));
#1817=CARTESIAN_POINT('',(2.24999994505197,1.74999996554106,0.7));
#1818=CARTESIAN_POINT('Origin',(-2.3,-2.5,0.65));
#1819=CARTESIAN_POINT('',(2.3,-2.5,2.5));
#1820=CARTESIAN_POINT('',(2.3,-2.5,0.65));
#1821=CARTESIAN_POINT('',(-2.3,-2.5,2.5));
#1822=CARTESIAN_POINT('',(-1.15,-2.5,2.5));
#1823=CARTESIAN_POINT('',(-2.3,-2.5,0.65));
#1824=CARTESIAN_POINT('Origin',(2.3,-2.5,0.65));
#1825=CARTESIAN_POINT('',(2.3,-1.3,2.5));
#1826=CARTESIAN_POINT('',(2.3,-1.3,0.65));
#1827=CARTESIAN_POINT('',(2.3,-1.24999999068677,2.5));
#1828=CARTESIAN_POINT('Origin',(2.3,-1.3,0.65));
#1829=CARTESIAN_POINT('',(2.5,-1.18452994616207,2.5));
#1830=CARTESIAN_POINT('',(2.5,-1.18452994616207,0.65));
#1831=CARTESIAN_POINT('',(1.71895826026269,-1.63546460484775,2.5));
#1832=CARTESIAN_POINT('Origin',(2.5,-1.18452994616207,0.65));
#1833=CARTESIAN_POINT('',(2.49999994412065,1.49999996647239,2.5));
#1834=CARTESIAN_POINT('',(2.49999994412065,1.49999996647239,0.65));
#1835=CARTESIAN_POINT('',(2.5,-0.592264963767811,2.5));
#1836=CARTESIAN_POINT('Origin',(2.49999994412065,1.49999996647239,0.65));
#1837=CARTESIAN_POINT('',(1.49999996647239,2.49999994412065,2.5));
#1838=CARTESIAN_POINT('',(1.49999996647239,2.49999994412065,0.65));
#1839=CARTESIAN_POINT('',(2.24999994505197,1.74999996554106,2.5));
#1840=CARTESIAN_POINT('Origin',(1.49999996647239,2.5,0.65));
#1841=CARTESIAN_POINT('',(-2.3,2.5000000372529,2.5));
#1842=CARTESIAN_POINT('',(-2.3,2.5000000372529,0.65));
#1843=CARTESIAN_POINT('',(0.749999983236194,2.5,2.5));
#1844=CARTESIAN_POINT('Origin',(0.,1.25,2.5));
#1845=CARTESIAN_POINT('',(-0.4,1.25,2.5));
#1846=CARTESIAN_POINT('Origin',(0.,1.25,2.5));
#1847=CARTESIAN_POINT('',(-0.4,1.25,2.1));
#1848=CARTESIAN_POINT('',(-0.4,1.25,2.5));
#1849=CARTESIAN_POINT('Origin',(0.,1.25,2.1));
#1850=CARTESIAN_POINT('Origin',(0.,1.25,2.1));
#1851=CARTESIAN_POINT('Origin',(-2.3,-1.3,0.65));
#1852=CARTESIAN_POINT('',(-2.3,-1.3,2.5));
#1853=CARTESIAN_POINT('',(-2.3,-0.649999990686774,2.5));
#1854=CARTESIAN_POINT('',(-2.3,-1.3,0.65));
#1855=CARTESIAN_POINT('Origin',(-2.5,-1.18452994616208,0.65));
#1856=CARTESIAN_POINT('',(-2.5,-1.18452994616208,2.5));
#1857=CARTESIAN_POINT('',(-1.81895826026269,-1.57772957792878,2.5));
#1858=CARTESIAN_POINT('',(-2.5,-1.18452994616208,0.65));
#1859=CARTESIAN_POINT('Origin',(-2.5,1.18452998341498,0.65));
#1860=CARTESIAN_POINT('',(-2.5,1.18452998341498,2.5));
#1861=CARTESIAN_POINT('',(-2.5,0.592265001020715,2.5));
#1862=CARTESIAN_POINT('',(-2.5,1.18452998341498,0.65));
#1863=CARTESIAN_POINT('Origin',(-2.3,1.3000000372529,0.65));
#1864=CARTESIAN_POINT('',(-2.3,1.3000000372529,2.5));
#1865=CARTESIAN_POINT('',(-1.71895826026269,1.63546464210065,2.5));
#1866=CARTESIAN_POINT('',(-2.3,1.3000000372529,0.65));
#1867=CARTESIAN_POINT('Origin',(-2.3,2.5000000372529,0.65));
#1868=CARTESIAN_POINT('',(-2.3,1.25000002793968,2.5));
#1869=CARTESIAN_POINT('Origin',(0.,1.86264514923096E-8,2.5));
#1870=CARTESIAN_POINT('Origin',(1.70645826026269,-1.61381396975313,0.625));
#1871=CARTESIAN_POINT('',(2.3,-1.3,0.6));
#1872=CARTESIAN_POINT('',(2.25,-1.27113248654052,0.65));
#1873=CARTESIAN_POINT('',(2.5,-1.18452994616207,0.6));
#1874=CARTESIAN_POINT('',(1.71895826026269,-1.63546460484775,0.6));
#1875=CARTESIAN_POINT('',(2.45,-1.15566243270259,0.65));
#1876=CARTESIAN_POINT('Origin',(2.275,-1.24999999068677,0.625));
#1877=CARTESIAN_POINT('',(2.3,-2.5,0.6));
#1878=CARTESIAN_POINT('',(2.25,-2.45,0.65));
#1879=CARTESIAN_POINT('',(2.3,-1.24999999068677,0.6));
#1880=CARTESIAN_POINT('Origin',(-1.15,-2.475,0.625));
#1881=CARTESIAN_POINT('',(-2.3,-2.5,0.6));
#1882=CARTESIAN_POINT('',(-2.25,-2.45,0.65));
#1883=CARTESIAN_POINT('',(-1.15,-2.5,0.6));
#1884=CARTESIAN_POINT('Origin',(-2.275,-0.649999990686774,0.625));
#1885=CARTESIAN_POINT('',(-2.3,-1.3,0.6));
#1886=CARTESIAN_POINT('',(-2.25,-1.27113248654052,0.65));
#1887=CARTESIAN_POINT('',(-2.3,-0.649999990686774,0.6));
#1888=CARTESIAN_POINT('Origin',(-1.80645826026269,-1.55607894283417,0.625));
#1889=CARTESIAN_POINT('',(-2.5,-1.18452994616208,0.6));
#1890=CARTESIAN_POINT('',(-2.45,-1.15566243270259,0.65));
#1891=CARTESIAN_POINT('',(-1.81895826026269,-1.57772957792878,0.6));
#1892=CARTESIAN_POINT('Origin',(-2.475,0.592265001020715,0.625));
#1893=CARTESIAN_POINT('',(-2.5,1.18452998341498,0.6));
#1894=CARTESIAN_POINT('',(-2.45,1.1556624699555,0.65));
#1895=CARTESIAN_POINT('',(-2.5,0.592265001020715,0.6));
#1896=CARTESIAN_POINT('Origin',(-1.70645826026269,1.61381400700604,0.625));
#1897=CARTESIAN_POINT('',(-2.3,1.3000000372529,0.6));
#1898=CARTESIAN_POINT('',(-1.71895826026269,1.63546464210065,0.6));
#1899=CARTESIAN_POINT('',(-2.25,1.27113252379342,0.65));
#1900=CARTESIAN_POINT('Origin',(-2.275,1.25000002793968,0.625));
#1901=CARTESIAN_POINT('',(-2.3,2.5000000372529,0.6));
#1902=CARTESIAN_POINT('',(-2.3,1.25000002793968,0.6));
#1903=CARTESIAN_POINT('',(-2.25,2.45,0.65));
#1904=CARTESIAN_POINT('Origin',(0.749999983236194,2.475,0.625));
#1905=CARTESIAN_POINT('',(1.49999996647239,2.49999994412065,0.6));
#1906=CARTESIAN_POINT('',(0.749999983236194,2.5,0.6));
#1907=CARTESIAN_POINT('',(1.47928923247438,2.45,0.65));
#1908=CARTESIAN_POINT('Origin',(2.2323222755223,1.7323222960114,0.625));
#1909=CARTESIAN_POINT('',(2.49999994412065,1.49999996647239,0.6));
#1910=CARTESIAN_POINT('',(2.24999994505197,1.74999996554106,0.6));
#1911=CARTESIAN_POINT('',(2.45,1.47928923247438,0.65));
#1912=CARTESIAN_POINT('Origin',(2.475,-0.592264963767811,0.625));
#1913=CARTESIAN_POINT('',(2.5,-0.592264963767811,0.6));
#1914=CARTESIAN_POINT('Origin',(-2.3,1.3000000372529,0.01));
#1915=CARTESIAN_POINT('',(-2.3,1.3000000372529,0.01));
#1916=CARTESIAN_POINT('',(-2.3,1.3000000372529,0.01));
#1917=CARTESIAN_POINT('',(-2.5,1.18452998341498,0.01));
#1918=CARTESIAN_POINT('',(-2.3,1.3000000372529,0.01));
#1919=CARTESIAN_POINT('',(-2.5,1.18452998341498,0.01));
#1920=CARTESIAN_POINT('Origin',(-2.3,2.5000000372529,0.01));
#1921=CARTESIAN_POINT('',(-2.3,2.5000000372529,0.01));
#1922=CARTESIAN_POINT('',(-2.3,2.5000000372529,0.01));
#1923=CARTESIAN_POINT('',(-2.3,2.5000000372529,0.01));
#1924=CARTESIAN_POINT('Origin',(1.49999996647239,2.5,0.01));
#1925=CARTESIAN_POINT('',(1.49999996647239,2.49999994412065,0.01));
#1926=CARTESIAN_POINT('',(1.49999996647239,2.49999994412065,0.01));
#1927=CARTESIAN_POINT('',(-2.5,2.5,0.01));
#1928=CARTESIAN_POINT('Origin',(2.49999994412065,1.49999996647239,0.01));
#1929=CARTESIAN_POINT('',(2.49999994412065,1.49999996647239,0.01));
#1930=CARTESIAN_POINT('',(2.49999994412065,1.49999996647239,0.01));
#1931=CARTESIAN_POINT('',(1.49999996647239,2.49999994412065,0.01));
#1932=CARTESIAN_POINT('Origin',(2.5,-1.18452994616207,0.01));
#1933=CARTESIAN_POINT('',(2.5,-1.18452994616207,0.01));
#1934=CARTESIAN_POINT('',(2.5,-1.18452994616207,0.01));
#1935=CARTESIAN_POINT('',(2.5,2.5,0.01));
#1936=CARTESIAN_POINT('Origin',(2.3,-1.3,0.01));
#1937=CARTESIAN_POINT('',(2.3,-1.3,0.01));
#1938=CARTESIAN_POINT('',(2.3,-1.3,0.01));
#1939=CARTESIAN_POINT('',(2.3,-1.3,0.01));
#1940=CARTESIAN_POINT('Origin',(2.3,-2.5,0.01));
#1941=CARTESIAN_POINT('',(2.3,-2.5,0.01));
#1942=CARTESIAN_POINT('',(2.3,-2.5,0.01));
#1943=CARTESIAN_POINT('',(2.3,2.5000000372529,0.01));
#1944=CARTESIAN_POINT('Origin',(-2.3,-2.5,0.01));
#1945=CARTESIAN_POINT('',(-2.3,-2.5,0.01));
#1946=CARTESIAN_POINT('',(-2.3,-2.5,0.01));
#1947=CARTESIAN_POINT('',(2.5,-2.5,0.01));
#1948=CARTESIAN_POINT('Origin',(-2.3,-1.3,0.01));
#1949=CARTESIAN_POINT('',(-2.3,-1.3,0.01));
#1950=CARTESIAN_POINT('',(-2.3,-1.3,0.01));
#1951=CARTESIAN_POINT('',(-2.3,2.5000000372529,0.01));
#1952=CARTESIAN_POINT('Origin',(-2.5,-1.18452994616208,0.01));
#1953=CARTESIAN_POINT('',(-2.5,-1.18452994616208,0.01));
#1954=CARTESIAN_POINT('',(-2.5,-1.18452994616208,0.01));
#1955=CARTESIAN_POINT('',(-2.3,-1.3,0.01));
#1956=CARTESIAN_POINT('Origin',(-2.5,1.18452998341498,0.01));
#1957=CARTESIAN_POINT('',(-2.5,-2.5,0.01));
#1958=CARTESIAN_POINT('Origin',(0.,1.86264514923096E-8,0.01));
#1959=CARTESIAN_POINT('Origin',(-2.2089907463852,-2.2,0.497377388417357));
#1960=CARTESIAN_POINT('',(-2.59544232590366,-2.2,0.247905546699921));
#1961=CARTESIAN_POINT('',(-2.3,-2.2,-6.93533338188766E-17));
#1962=CARTESIAN_POINT('Origin',(-2.3,-2.2,0.3));
#1963=CARTESIAN_POINT('',(-1.69544232590366,-2.2,7.10114361595088E-18));
#1964=CARTESIAN_POINT('',(-2.3,-2.2,-6.93533338188766E-17));
#1965=CARTESIAN_POINT('',(-1.69544232590366,-2.2,0.149999999999999));
#1966=CARTESIAN_POINT('',(-1.69544232590366,-2.2,7.10114361595087E-18));
#1967=CARTESIAN_POINT('',(-2.3,-2.2,0.149999999999999));
#1968=CARTESIAN_POINT('',(-2.3,-2.2,0.149999999999999));
#1969=CARTESIAN_POINT('',(-2.44772116295183,-2.2,0.27395277334996));
#1970=CARTESIAN_POINT('Origin',(-2.3,-2.2,0.299999999999999));
#1971=CARTESIAN_POINT('',(-2.57481800391491,-2.2,0.994754776834714));
#1972=CARTESIAN_POINT('',(-2.57481800391491,-2.2,0.994754776834714));
#1973=CARTESIAN_POINT('',(-2.72253916686674,-2.2,0.968707550184674));
#1974=CARTESIAN_POINT('',(-2.72253916686674,-2.2,0.968707550184674));
#1975=CARTESIAN_POINT('',(-2.59544232590366,-2.2,0.247905546699921));
#1976=CARTESIAN_POINT('Origin',(-1.69544232590366,-1.9,7.10114361595088E-18));
#1977=CARTESIAN_POINT('',(-2.3,-1.6,-6.93533338188766E-17));
#1978=CARTESIAN_POINT('',(-2.3,-1.9,-6.93533338188766E-17));
#1979=CARTESIAN_POINT('',(-1.69544232590366,-1.6,7.10114361595088E-18));
#1980=CARTESIAN_POINT('',(-2.3,-1.6,-6.93533338188766E-17));
#1981=CARTESIAN_POINT('',(-1.69544232590366,-1.9,7.10114361595088E-18));
#1982=CARTESIAN_POINT('Origin',(-1.69544232590366,-1.9,0.149999999999999));
#1983=CARTESIAN_POINT('',(-1.69544232590366,-1.6,0.149999999999999));
#1984=CARTESIAN_POINT('',(-1.69544232590366,-1.6,7.10114361595087E-18));
#1985=CARTESIAN_POINT('',(-1.69544232590366,-1.9,0.149999999999999));
#1986=CARTESIAN_POINT('Origin',(-2.3,-1.9,0.149999999999999));
#1987=CARTESIAN_POINT('',(-2.3,-1.6,0.149999999999999));
#1988=CARTESIAN_POINT('',(-2.3,-1.6,0.149999999999999));
#1989=CARTESIAN_POINT('',(-2.3,-1.9,0.149999999999999));
#1990=CARTESIAN_POINT('Origin',(-2.3,-1.9,0.299999999999999));
#1991=CARTESIAN_POINT('',(-2.44772116295183,-1.6,0.27395277334996));
#1992=CARTESIAN_POINT('Origin',(-2.3,-1.6,0.299999999999999));
#1993=CARTESIAN_POINT('',(-2.44772116295183,-1.9,0.27395277334996));
#1994=CARTESIAN_POINT('Origin',(-2.57481800391491,-1.9,0.994754776834714));
#1995=CARTESIAN_POINT('',(-2.57481800391491,-1.6,0.994754776834714));
#1996=CARTESIAN_POINT('',(-2.57481800391491,-1.6,0.994754776834714));
#1997=CARTESIAN_POINT('',(-2.57481800391491,-1.9,0.994754776834714));
#1998=CARTESIAN_POINT('Origin',(-2.72253916686674,-1.9,0.968707550184674));
#1999=CARTESIAN_POINT('',(-2.72253916686674,-1.6,0.968707550184674));
#2000=CARTESIAN_POINT('',(-2.72253916686674,-1.6,0.968707550184674));
#2001=CARTESIAN_POINT('',(-2.72253916686674,-1.9,0.968707550184674));
#2002=CARTESIAN_POINT('Origin',(-2.59544232590366,-1.9,0.247905546699921));
#2003=CARTESIAN_POINT('',(-2.59544232590366,-1.6,0.247905546699921));
#2004=CARTESIAN_POINT('',(-2.59544232590366,-1.6,0.247905546699921));
#2005=CARTESIAN_POINT('',(-2.59544232590366,-1.9,0.247905546699921));
#2006=CARTESIAN_POINT('Origin',(-2.3,-1.9,0.3));
#2007=CARTESIAN_POINT('Origin',(-2.3,-1.6,0.3));
#2008=CARTESIAN_POINT('Origin',(-2.2089907463852,-1.6,0.497377388417357));
#2009=CARTESIAN_POINT('Origin',(-2.2089907463852,1.6,0.497377388417357));
#2010=CARTESIAN_POINT('',(-2.59544232590366,1.6,0.247905546699921));
#2011=CARTESIAN_POINT('',(-2.3,1.6,-6.93533338188766E-17));
#2012=CARTESIAN_POINT('Origin',(-2.3,1.6,0.3));
#2013=CARTESIAN_POINT('',(-1.69544232590366,1.6,7.10114361595088E-18));
#2014=CARTESIAN_POINT('',(-2.3,1.6,-6.93533338188766E-17));
#2015=CARTESIAN_POINT('',(-1.69544232590366,1.6,0.149999999999999));
#2016=CARTESIAN_POINT('',(-1.69544232590366,1.6,7.10114361595087E-18));
#2017=CARTESIAN_POINT('',(-2.3,1.6,0.149999999999999));
#2018=CARTESIAN_POINT('',(-2.3,1.6,0.149999999999999));
#2019=CARTESIAN_POINT('',(-2.44772116295183,1.6,0.27395277334996));
#2020=CARTESIAN_POINT('Origin',(-2.3,1.6,0.299999999999999));
#2021=CARTESIAN_POINT('',(-2.57481800391491,1.6,0.994754776834714));
#2022=CARTESIAN_POINT('',(-2.57481800391491,1.6,0.994754776834714));
#2023=CARTESIAN_POINT('',(-2.72253916686674,1.6,0.968707550184674));
#2024=CARTESIAN_POINT('',(-2.72253916686674,1.6,0.968707550184674));
#2025=CARTESIAN_POINT('',(-2.59544232590366,1.6,0.247905546699921));
#2026=CARTESIAN_POINT('Origin',(-1.69544232590366,1.9,7.10114361595088E-18));
#2027=CARTESIAN_POINT('',(-2.3,2.2,-6.93533338188766E-17));
#2028=CARTESIAN_POINT('',(-2.3,1.9,-6.93533338188766E-17));
#2029=CARTESIAN_POINT('',(-1.69544232590366,2.2,7.10114361595088E-18));
#2030=CARTESIAN_POINT('',(-2.3,2.2,-6.93533338188766E-17));
#2031=CARTESIAN_POINT('',(-1.69544232590366,1.9,7.10114361595088E-18));
#2032=CARTESIAN_POINT('Origin',(-1.69544232590366,1.9,0.149999999999999));
#2033=CARTESIAN_POINT('',(-1.69544232590366,2.2,0.149999999999999));
#2034=CARTESIAN_POINT('',(-1.69544232590366,2.2,7.10114361595087E-18));
#2035=CARTESIAN_POINT('',(-1.69544232590366,1.9,0.149999999999999));
#2036=CARTESIAN_POINT('Origin',(-2.3,1.9,0.149999999999999));
#2037=CARTESIAN_POINT('',(-2.3,2.2,0.149999999999999));
#2038=CARTESIAN_POINT('',(-2.3,2.2,0.149999999999999));
#2039=CARTESIAN_POINT('',(-2.3,1.9,0.149999999999999));
#2040=CARTESIAN_POINT('Origin',(-2.3,1.9,0.299999999999999));
#2041=CARTESIAN_POINT('',(-2.44772116295183,2.2,0.27395277334996));
#2042=CARTESIAN_POINT('Origin',(-2.3,2.2,0.299999999999999));
#2043=CARTESIAN_POINT('',(-2.44772116295183,1.9,0.27395277334996));
#2044=CARTESIAN_POINT('Origin',(-2.57481800391491,1.9,0.994754776834714));
#2045=CARTESIAN_POINT('',(-2.57481800391491,2.2,0.994754776834714));
#2046=CARTESIAN_POINT('',(-2.57481800391491,2.2,0.994754776834714));
#2047=CARTESIAN_POINT('',(-2.57481800391491,1.9,0.994754776834714));
#2048=CARTESIAN_POINT('Origin',(-2.72253916686674,1.9,0.968707550184674));
#2049=CARTESIAN_POINT('',(-2.72253916686674,2.2,0.968707550184674));
#2050=CARTESIAN_POINT('',(-2.72253916686674,2.2,0.968707550184674));
#2051=CARTESIAN_POINT('',(-2.72253916686674,1.9,0.968707550184674));
#2052=CARTESIAN_POINT('Origin',(-2.59544232590366,1.9,0.247905546699921));
#2053=CARTESIAN_POINT('',(-2.59544232590366,2.2,0.247905546699921));
#2054=CARTESIAN_POINT('',(-2.59544232590366,2.2,0.247905546699921));
#2055=CARTESIAN_POINT('',(-2.59544232590366,1.9,0.247905546699921));
#2056=CARTESIAN_POINT('Origin',(-2.3,1.9,0.3));
#2057=CARTESIAN_POINT('Origin',(-2.3,2.2,0.3));
#2058=CARTESIAN_POINT('Origin',(-2.2089907463852,2.2,0.497377388417357));
#2059=CARTESIAN_POINT('Origin',(2.2089907463852,-2.2,0.497377388417357));
#2060=CARTESIAN_POINT('',(2.3,-2.2,-6.93889390390723E-17));
#2061=CARTESIAN_POINT('',(2.59544232590366,-2.2,0.247905546699924));
#2062=CARTESIAN_POINT('Origin',(2.3,-2.2,0.3));
#2063=CARTESIAN_POINT('',(2.72253916686674,-2.2,0.968707550184673));
#2064=CARTESIAN_POINT('',(2.59544232590366,-2.2,0.247905546699924));
#2065=CARTESIAN_POINT('',(2.57481800391491,-2.2,0.994754776834713));
#2066=CARTESIAN_POINT('',(2.72253916686674,-2.2,0.968707550184673));
#2067=CARTESIAN_POINT('',(2.44772116295183,-2.2,0.27395277334996));
#2068=CARTESIAN_POINT('',(2.57481800391491,-2.2,0.994754776834713));
#2069=CARTESIAN_POINT('',(2.3,-2.2,0.149999999999999));
#2070=CARTESIAN_POINT('Origin',(2.3,-2.2,0.299999999999999));
#2071=CARTESIAN_POINT('',(1.69544232590366,-2.2,0.149999999999999));
#2072=CARTESIAN_POINT('',(2.3,-2.2,0.149999999999999));
#2073=CARTESIAN_POINT('',(1.69544232590366,-2.2,0.));
#2074=CARTESIAN_POINT('',(1.69544232590366,-2.2,0.));
#2075=CARTESIAN_POINT('',(2.3,-2.2,-6.93533338188766E-17));
#2076=CARTESIAN_POINT('Origin',(2.72253916686674,-1.9,0.968707550184673));
#2077=CARTESIAN_POINT('',(2.59544232590366,-1.6,0.247905546699924));
#2078=CARTESIAN_POINT('',(2.59544232590366,-1.9,0.247905546699924));
#2079=CARTESIAN_POINT('',(2.72253916686674,-1.6,0.968707550184673));
#2080=CARTESIAN_POINT('',(2.59544232590366,-1.6,0.247905546699924));
#2081=CARTESIAN_POINT('',(2.72253916686674,-1.9,0.968707550184673));
#2082=CARTESIAN_POINT('Origin',(2.57481800391491,-1.9,0.994754776834713));
#2083=CARTESIAN_POINT('',(2.57481800391491,-1.6,0.994754776834713));
#2084=CARTESIAN_POINT('',(2.72253916686674,-1.6,0.968707550184673));
#2085=CARTESIAN_POINT('',(2.57481800391491,-1.9,0.994754776834713));
#2086=CARTESIAN_POINT('Origin',(2.44772116295183,-1.9,0.27395277334996));
#2087=CARTESIAN_POINT('',(2.44772116295183,-1.6,0.27395277334996));
#2088=CARTESIAN_POINT('',(2.57481800391491,-1.6,0.994754776834713));
#2089=CARTESIAN_POINT('',(2.44772116295183,-1.9,0.27395277334996));
#2090=CARTESIAN_POINT('Origin',(2.3,-1.9,0.299999999999999));
#2091=CARTESIAN_POINT('',(2.3,-1.6,0.149999999999999));
#2092=CARTESIAN_POINT('Origin',(2.3,-1.6,0.299999999999999));
#2093=CARTESIAN_POINT('',(2.3,-1.9,0.149999999999999));
#2094=CARTESIAN_POINT('Origin',(1.69544232590366,-1.9,0.149999999999999));
#2095=CARTESIAN_POINT('',(1.69544232590366,-1.6,0.149999999999999));
#2096=CARTESIAN_POINT('',(2.3,-1.6,0.149999999999999));
#2097=CARTESIAN_POINT('',(1.69544232590366,-1.9,0.149999999999999));
#2098=CARTESIAN_POINT('Origin',(1.69544232590366,-1.9,0.));
#2099=CARTESIAN_POINT('',(1.69544232590366,-1.6,0.));
#2100=CARTESIAN_POINT('',(1.69544232590366,-1.6,0.));
#2101=CARTESIAN_POINT('',(1.69544232590366,-1.9,0.));
#2102=CARTESIAN_POINT('Origin',(2.3,-1.9,-6.93533338188766E-17));
#2103=CARTESIAN_POINT('',(2.3,-1.6,-6.93889390390723E-17));
#2104=CARTESIAN_POINT('',(2.3,-1.6,-6.93533338188766E-17));
#2105=CARTESIAN_POINT('',(2.3,-1.9,-6.93533338188766E-17));
#2106=CARTESIAN_POINT('Origin',(2.3,-1.9,0.3));
#2107=CARTESIAN_POINT('Origin',(2.3,-1.6,0.3));
#2108=CARTESIAN_POINT('Origin',(2.2089907463852,-1.6,0.497377388417357));
#2109=UNCERTAINTY_MEASURE_WITH_UNIT(LENGTH_MEASURE(0.01),#2113,
'DISTANCE_ACCURACY_VALUE',
'Maximum model space distance between geometric entities at asserted c
onnectivities');
#2110=UNCERTAINTY_MEASURE_WITH_UNIT(LENGTH_MEASURE(0.01),#2113,
'DISTANCE_ACCURACY_VALUE',
'Maximum model space distance between geometric entities at asserted c
onnectivities');
#2111=(
GEOMETRIC_REPRESENTATION_CONTEXT(3)
GLOBAL_UNCERTAINTY_ASSIGNED_CONTEXT((#2109))
GLOBAL_UNIT_ASSIGNED_CONTEXT((#2113,#2115,#2116))
REPRESENTATION_CONTEXT('','3D')
);
#2112=(
GEOMETRIC_REPRESENTATION_CONTEXT(3)
GLOBAL_UNCERTAINTY_ASSIGNED_CONTEXT((#2110))
GLOBAL_UNIT_ASSIGNED_CONTEXT((#2113,#2115,#2116))
REPRESENTATION_CONTEXT('','3D')
);
#2113=(
LENGTH_UNIT()
NAMED_UNIT(*)
SI_UNIT(.MILLI.,.METRE.)
);
#2114=(
LENGTH_UNIT()
NAMED_UNIT(*)
SI_UNIT($,.METRE.)
);
#2115=(
NAMED_UNIT(*)
PLANE_ANGLE_UNIT()
SI_UNIT($,.RADIAN.)
);
#2116=(
NAMED_UNIT(*)
SI_UNIT($,.STERADIAN.)
SOLID_ANGLE_UNIT()
);
#2117=SHAPE_DEFINITION_REPRESENTATION(#2118,#2119);
#2118=PRODUCT_DEFINITION_SHAPE('',$,#2121);
#2119=SHAPE_REPRESENTATION('',(#1312),#2111);
#2120=PRODUCT_DEFINITION_CONTEXT('part definition',#2125,'design');
#2121=PRODUCT_DEFINITION('2026-09-22-22-39-12-774',
'SameSky_CMT-0525-75-SMT_Buzzer',#2122,#2120);
#2122=PRODUCT_DEFINITION_FORMATION('',$,#2127);
#2123=PRODUCT_RELATED_PRODUCT_CATEGORY('SameSky_CMT-0525-75-SMT_Buzzer',
'SameSky_CMT-0525-75-SMT_Buzzer',(#2127));
#2124=APPLICATION_PROTOCOL_DEFINITION('international standard',
'automotive_design',2009,#2125);
#2125=APPLICATION_CONTEXT(
'Core Data for Automotive Mechanical Design Process');
#2126=PRODUCT_CONTEXT('part definition',#2125,'mechanical');
#2127=PRODUCT('2026-09-22-22-39-12-774',
'SameSky_CMT-0525-75-SMT_Buzzer',$,(#2126));
#2128=PRESENTATION_STYLE_ASSIGNMENT((#2131));
#2129=PRESENTATION_STYLE_ASSIGNMENT((#2132));
#2130=PRESENTATION_STYLE_ASSIGNMENT((#2133));
#2131=SURFACE_STYLE_USAGE(.BOTH.,#2134);
#2132=SURFACE_STYLE_USAGE(.BOTH.,#2135);
#2133=SURFACE_STYLE_USAGE(.BOTH.,#2136);
#2134=SURFACE_SIDE_STYLE('',(#2137));
#2135=SURFACE_SIDE_STYLE('',(#2138));
#2136=SURFACE_SIDE_STYLE('',(#2139));
#2137=SURFACE_STYLE_FILL_AREA(#2140);
#2138=SURFACE_STYLE_FILL_AREA(#2141);
#2139=SURFACE_STYLE_FILL_AREA(#2142);
#2140=FILL_AREA_STYLE('Steel - Satin',(#2143));
#2141=FILL_AREA_STYLE('Electronics Black',(#2144));
#2142=FILL_AREA_STYLE('Aluminum - Satin',(#2145));
#2143=FILL_AREA_STYLE_COLOUR('Steel - Satin',#2146);
#2144=FILL_AREA_STYLE_COLOUR('Electronics Black',#2147);
#2145=FILL_AREA_STYLE_COLOUR('Aluminum - Satin',#2148);
#2146=COLOUR_RGB('Steel - Satin',0.627450980392157,0.627450980392157,0.627450980392157);
#2147=COLOUR_RGB('Electronics Black',0.137254901960784,0.137254901960784,
0.137254901960784);
#2148=COLOUR_RGB('Aluminum - Satin',0.96078431372549,0.96078431372549,0.964705882352941);
ENDSEC;
END-ISO-10303-21;
